<svg xmlns="http://www.w3.org/2000/svg" viewBox="0 0 680.96216 153.64525"><defs><style>.cls-1{font-size:90.59229px;font-family:HelveticaNeue, Helvetica Neue;}.cls-1,.cls-4{fill:#4fc6b7;}.cls-2{font-size:89px;fill:#f0f6e6;font-family:HelveticaNeue-Light, Helvetica Neue;}.cls-3{letter-spacing:-0.09199em;}.cls-5{opacity:0.13;}</style></defs><title>big-logo</title><g id="Layer_2" data-name="Layer 2"><g id="left_bracket" data-name="left bracket"><text class="cls-1" transform="translate(0.00024 110.07005)">&lt;</text></g><g id="right_bracket" data-name="right bracket"><text class="cls-1" transform="translate(625.71899 110.07005)">&gt;</text></g><g id="text"><text class="cls-2" transform="translate(73.63208 113.28978)">Plant <tspan class="cls-3" x="217.60156" y="0">T</tspan><tspan x="258.89844" y="0">utorials</tspan></text></g><g id="small_leaf" data-name="small leaf"><path class="cls-4" d="M451.97935,7.2909s15.36235,3.82429,23.48527,15.85333,10.77806,24.4342,5.93042,27.70769-15.36235-3.82429-23.48527-15.85333S451.97935,7.2909,451.97935,7.2909Z"/><g id="_Group_" data-name="&lt;Group&gt;" class="cls-5"><path d="M475.76581,22.65921c-8.22712-12.18331-23.78644-16.05662-23.78644-16.05662l29.79289,44.11962C486.68206,47.40674,483.99288,34.84252,475.76581,22.65921Z"/></g></g><g id="big_leaf" data-name="big leaf"><path class="cls-4" d="M522.44081,38.08122c-11.16411,16.533-25.61545,26.28755-32.27736,21.7885-6.6627-4.49905-3.01381-21.54818,8.1503-38.08122C509.47786,5.25625,530.59189,0,530.59189,0S533.60492,21.549,522.44081,38.08122Z"/><g id="_Group_2" data-name="&lt;Group&gt;" class="cls-5"><path d="M521.54894,38.37107C532.5717,22.04777,529.59649.772,529.59649.772L489.67966,59.88388C496.25786,64.326,510.52623,54.69437,521.54894,38.37107Z"/></g></g></g></svg>