<svg xmlns="http://www.w3.org/2000/svg" viewBox="0 0 169.37365 84.84863"><defs><style>.cls-1{font-size:63.4146px;fill:#f0f6e6;font-family:HelveticaNeue, Helvetica Neue;}.cls-2{fill:#4fc6b7;}.cls-3{opacity:0.13;}</style></defs><title>nav-logo</title><g id="Layer_2" data-name="Layer 2"><g id="left_bracket" data-name="left bracket"><text class="cls-1" transform="translate(0 54.3457)">&lt;</text></g><g id="right_bracket" data-name="right bracket"><text class="cls-1" transform="translate(130.70313 54.3457)">&gt;</text></g><g id="small_leaf" data-name="small leaf"><path class="cls-2" d="M41.9785,9.12677s17.70307,4.019,27.06365,16.66053,12.42028,25.67831,6.834,29.11848-17.70307-4.019-27.06365-16.66053S41.9785,9.12677,41.9785,9.12677Z"/><g id="_Group_" data-name="&lt;Group&gt;" class="cls-3"><path d="M69.04218,25.7873C59.68156,13.14576,41.97852,9.12677,41.97852,9.12677l33.89766,45.779C81.46244,51.4656,78.40276,38.42883,69.04218,25.7873Z"/></g></g><g id="big_leaf" data-name="big leaf"><path class="cls-2" d="M119.41284,42.23365C107.2874,60.19032,91.59169,70.78477,84.35613,65.89832,77.11972,61.01186,81.0828,42.49466,93.20824,24.538,105.33368,6.58218,128.2658.87332,128.2658.87332S131.53827,24.27784,119.41284,42.23365Z"/><g id="_Group_2" data-name="&lt;Group&gt;" class="cls-3"><path d="M119.41313,42.23376c12.12543-17.95622,8.85259-41.3603,8.85259-41.3603L84.35578,65.89862C91.592,70.78508,107.28775,60.19,119.41313,42.23376Z"/></g></g></g></svg>