<svg xmlns="http://www.w3.org/2000/svg" viewBox="0 0 215 120"><defs><style>.cls-1{fill:#009ddc;}.cls-2{fill:#fefefe;}.cls-3{fill:#009cdb;}</style></defs><title>compass-logo-bg</title><g id="Layer_2" data-name="Layer 2"><g id="Layer_1-2" data-name="Layer 1"><rect class="cls-1" width="215" height="120"/><path class="cls-2" d="M132.89057,91.39227A40.55912,40.55912,0,1,1,102.7612,21.91806c11.07642-.46773,46.85426-3.756,46.85426-3.756s-3.91765,35.86063-4.6618,46.99717A40.4074,40.4074,0,0,1,132.89057,91.39227Z" transform="translate(-0.03906)"/><path class="cls-3" d="M122.10429,56.33456c-5.73671-8.46795-13.17949-11.96246-20.61774-9.71053-8.2991,2.51255-13.43927,8.93628-13.49307,16.86243A17.79524,17.79524,0,0,0,100.77,80.4343c7.58453,2.42242,15.10024-.7937,21.07708-9.10916h13.14523c-.52339,8.48-11.33262,21.90257-27.73827,22.78969-15.43447.83463-30.447-11.52874-32.09675-26.00642-2.15825-18.94,10.72563-32.14263,24.90981-34.46248,16.72075-2.73472,32.66581,7.64338,35.37486,22.68863Z" transform="translate(-0.03906)"/></g></g></svg>