<svg xmlns="http://www.w3.org/2000/svg" viewBox="0 0 219 95.53498"><defs><style>.cls-1{fill:#fefefe;}</style></defs><title>translink-logo</title><g id="Layer_2" data-name="Layer 2"><g id="Layer_1-2" data-name="Layer 1"><path class="cls-1" d="M0,49.53881c5.06874-.003,10.13756.00613,15.20616-.02251.74316-.0042.9723.25612.95527.9736q-.05768,2.4299-.0007,4.862c.016.70686-.24227.94512-.93186.8701-.78945-.08588-1.59029-.07-2.3786-.16277-.737-.08669-.98252.17683-.97674.9167.02717,3.47723.01143,6.95479.01077,10.43223-.00015.79568-.0312,1.59282.00746,2.38659.0318.65305-.27542.78177-.853.77407-1.94466-.026-3.89061-.04-5.83453.00614-.71517.017-.89576-.22631-.89133-.90934.02673-4.12561.01353-8.25148.013-12.37726-.00015-1.28325-.00092-1.28082-1.24073-1.205-1.02819.06283-2.05679.11906-3.0852.17822Z"/><path class="cls-1" d="M100.00046,95.49238c0-1.53266-.00612-3.06535.006-4.5979a2.46971,2.46971,0,0,1,.132-.7734c4.08331-11.82233,9.72176-22.79249,17.87274-32.363A76.89675,76.89675,0,0,1,158.53061,32.7403,103.59512,103.59512,0,0,1,189.193,29.84014c5.22408.24209,10.4247.98983,15.63571,1.51119a2.01489,2.01489,0,0,1,.29642.083V34.232c-.23965.02443-.49081.06754-.74279.07314-5.156.11453-10.31752.1113-15.46707.35851-12.306.59076-24.413,2.3612-36.08392,6.51412a79.5209,79.5209,0,0,0-37.55275,28.00243A136.00852,136.00852,0,0,0,100.48657,94.7471c-.11968.263-.24109.52528-.36169.78788Z"/><path class="cls-1" d="M87.18979,70.55317c-2.38766,0-4.65048.0208-6.91173-.02921-.25185-.00557-.56448-.37108-.73121-.64209-1.95979-3.18541-3.89626-6.38515-5.84169-9.5794-.17769-.29176-.3749-.57163-.64385-.97959l.362,11.19256H66.12414c-.02112-.32642-.05863-.63748-.05879-.94855-.00342-6.337.0127-12.674-.02122-19.01083-.00441-.823.23428-1.06642,1.04249-1.04327,1.82591.05232,3.65475.03849,5.48152.00431a1.25242,1.25242,0,0,1,1.25257.73527c1.96108,3.38962,3.95711,6.759,5.94409,10.13362a2.36235,2.36235,0,0,0,.7357.83365,4.63723,4.63723,0,0,0-.00892-.96514c-.72923-3.34951-.41423-6.74616-.48786-10.12533-.01059-.48638.224-.6017.64438-.60023,1.94527.00683,3.89082.01992,5.83573-.00759.62549-.00884.71564.29083.71309.81551-.01532,3.15367-.00723,6.30746-.00714,9.46121q.00014,4.77484,0,9.54968Z"/><path class="cls-1" d="M112.49,55.13673c-.07539-1.37592-.34892-2.69256.22578-4.00926,6.52224-14.9427,16.73275-26.51465,31.29979-34.01161a64.05511,64.05511,0,0,1,8.42158-3.09244,4.97932,4.97932,0,0,1,1.74237-.17024,2.19438,2.19438,0,0,1,2.37158,2.52205c-.01449.67768-.03406,1.35588-.02279,2.03337.052,3.12911,1.94872,4.8568,5.05028,4.35487,2.34074-.3788,4.64634-1.00568,6.9432-1.61423,1.67425-.44359,3.29274-1.09922,4.96924-1.53189a7.00533,7.00533,0,0,1,2.02327.07756,8.98515,8.98515,0,0,1-.56631,1.84767,2.81675,2.81675,0,0,1-4.08568,1.28831,1.50715,1.50715,0,0,0-1.03935.05826c-3.01693,1.15353-5.9905,2.42967-9.04222,3.47961a11.62362,11.62362,0,0,1-5.9215.53178,4.482,4.482,0,0,1-3.91116-4.07141c-.07439-.46012-.15291-.91957-.26689-1.6036-2.21926.82846-4.39183,1.53625-6.48068,2.43794-7.32723,3.16293-13.3836,8.06709-18.73818,13.90008a114.02215,114.02215,0,0,0-12.46006,16.80182C112.83852,54.62691,112.661,54.87981,112.49,55.13673Z"/><path class="cls-1" d="M179.9694,70.5525c-2.429,0-4.63336.01038-6.83707-.021-.16486-.00234-.37843-.27765-.472-.47275a1.5194,1.5194,0,0,1-.028-.611q-.001-9.37328.00024-18.74655c.0003-1.16707.005-1.16975,1.16711-1.17141,1.70959-.00245,3.4206.04016,5.12813-.01923a1.49334,1.49334,0,0,1,1.52065.89856c1.94,3.368,3.92487,6.71,5.897,10.05942.15933.2706.33927.52905.55493.86336-.17722-3.9504-.34929-7.78646-.52338-11.667a7.18046,7.18046,0,0,1,.86286-.12942c1.8864-.00826,3.77294.00362,5.65927-.011.51456-.004.82172.08462.81982.71647q-.02977,9.94779-.02324,19.8957a2.59824,2.59824,0,0,1-.071.3703c-.28593.01652-.59574.049-.90562.04988-1.798.00493-3.59681-.028-5.39365.01845a1.32725,1.32725,0,0,1-1.32411-.76628c-1.90421-3.18475-3.84069-6.35022-5.76973-9.5201-.17677-.2905-.37744-.56644-.64543-.9661C179.71612,63.13071,179.84014,66.7647,179.9694,70.5525Z"/><path class="cls-1" d="M19.5545,49.66725c4.19009-.11713,8.36165-.56439,12.44586.27577,4.99143,1.02679,6.05871,5.29687,5.2122,8.97953A4.06145,4.06145,0,0,1,34.795,61.68539c-.46528.22066-.93825.4251-1.26823.574l5.6489,8.21768c-.42506.0379-.67286.07867-.92073.07919-2.32814.00488-4.65661-.01765-6.98424.01723A1.06746,1.06746,0,0,1,30.1266,69.868c-.82847-1.75574-1.70724-3.48781-2.573-5.2258a1.523,1.523,0,0,0-.65692-.71786v6.55378H19.5545Zm7.29237,5.47085c0,.94266-.00036,1.7301.00008,2.51753.00077,1.35643.1299,1.4637,1.46442,1.2152.08652-.01611.17084-.04368.25689-.06268a1.671,1.671,0,0,0,1.532-1.73714,1.69734,1.69734,0,0,0-1.53584-1.83487A13.65314,13.65314,0,0,0,26.84687,55.13809Z"/><path class="cls-1" d="M205.15785,58.7392c1.60112-2.95656,3.1103-5.7121,4.58182-8.4876a1.20653,1.20653,0,0,1,1.23971-.73506c2.38224.03141,4.7651.01282,7.32367.01282-.23049.40187-.37225.67534-.5378.93355-1.82766,2.8505-3.64628,5.70694-5.50044,8.54012a1.1409,1.1409,0,0,0,.00145,1.48755c2.06949,3.00795,4.09682,6.0449,6.13736,9.07273.1795.26634.3497.53892.59639.92011-.3426.0313-.58581.07234-.82911.07284-2.35716.00485-4.71459-.01711-7.07125.01708a1.16026,1.16026,0,0,1-1.17885-.68768c-1.52192-2.71339-3.07831-5.40743-4.74631-8.324v8.93377h-7.25257c-.01982-.31008-.05392-.59574-.05405-.8814-.003-6.3643.01-12.72867-.01838-19.09284-.00341-.76692.19723-1.0318.98773-1.00875,1.82524.05323,3.65356.04079,5.47966.00509.68619-.01341.92339.19584.90089.9058-.07837,2.473-.09841,4.948-.13381,7.42226C205.08041,58.09233,205.12334,58.33976,205.15785,58.7392Z"/><path class="cls-1" d="M63.16747,70.55443c-2.53241,0-5.00414.0073-7.47556-.01628-.16649-.00159-.33936-.227-.49165-.36735a.562.562,0,0,1-.09689-.24382c-.61728-2.01438-.61709-2.01453-2.71979-2.0144-1.00226.00006-2.00548.0269-3.0064-.00965a.79645.79645,0,0,0-.92368.70382c-.51317,1.95551-.52445,1.95255-2.5115,1.95255H40.08057c.11394-.38347.19029-.68324.29139-.97442,2.22758-6.41572,4.46713-12.82733,6.6726-19.25063a.99043.99043,0,0,1,1.11526-.81879c2.29875.03587,4.59851.02746,6.89759.00448a.86857.86857,0,0,1,.96353.67427q3.48837,9.85334,7.00347,19.69723A5.67255,5.67255,0,0,1,63.16747,70.55443ZM53.22294,62.984l-1.47326-6.529-.31536-.02155L49.98716,62.984Z"/><path class="cls-1" d="M90.24681,68.99534l2.27353-5.76445c.33766.23732.61061.43772.892.62548a7.18515,7.18515,0,0,0,4.43641,1.494,1.83188,1.83188,0,0,0,1.01079-.21728c.36424-.30973.8106-.78025.80991-1.182-.00058-.33356-.54051-.83771-.93783-.9645-.91771-.29287-1.89795-.38387-2.84558-.59008-2.72247-.59244-4.64288-2.35883-4.87911-4.59689a6.751,6.751,0,0,1,2.6596-6.4768c3.56854-2.67955,7.47121-2.67964,11.47257-1.11809,1.61788.6314,1.59919.684.97745,2.30638-.46175,1.20492-.92831,2.408-1.41837,3.67839a9.70187,9.70187,0,0,0-1.85211-.88658,14.76885,14.76885,0,0,0-3.25867-.45112c-.35515-.0036-.91228.571-1.02949.98053-.17533.61265.39858.90573.94954,1.04075.97028.23775,1.95262.43,2.91507.69522,2.40983.664,4.40864,1.876,4.8617,4.54634a6.65475,6.65475,0,0,1-2.86248,7.02683,10.84192,10.84192,0,0,1-7.24032,1.73913A17.784,17.784,0,0,1,90.24681,68.99534Z"/><path class="cls-1" d="M142.87732,49.529c1.24427,0,2.44392-.00011,3.64358,0,1.00217.00012,2.00584.03429,3.006-.011.675-.03054.8473.23507.8437.87566-.02313,4.12642-.01251,8.253-.01079,12.37958.00049,1.14342.00387,1.14444,1.17225,1.14508,1.73542.00093,3.47084.00024,5.273.00024v6.55665h-13.9277Z"/><path class="cls-1" d="M167.788,70.55909c-2.23367,0-4.40906.00178-6.58444-.00234-.25852-.00049-.517-.03314-.8235-.05418-.01948-.30175-.05048-.559-.05059-.81618-.00269-6.39828.01327-12.79665-.02151-19.19475-.00438-.80705.25619-.99446,1.00482-.9771,1.91551.04441,3.83281.02472,5.74921.00933.52118-.00418.80531.09239.8034.7227-.02006,6.60461-.01349,13.2093-.01648,19.814C167.84881,70.176,167.82163,70.29144,167.788,70.55909Z"/><path class="cls-1" d="M154.28289,5.12188a6.59647,6.59647,0,0,1-2.20015,5.08886,3.98563,3.98563,0,0,1-6.63745-1.52888,6.83785,6.83785,0,0,1,1.84991-7.56525A3.96232,3.96232,0,0,1,151.575.32152a4.55289,4.55289,0,0,1,2.64761,3.80656A8.75455,8.75455,0,0,1,154.28289,5.12188Z"/></g></g></svg>