<?xml version="1.0" encoding="utf-8"?>
<!-- Generator: Adobe Illustrator 21.0.2, SVG Export Plug-In . SVG Version: 6.00 Build 0)  -->
<svg version="1.1" id="Layer_1" xmlns="http://www.w3.org/2000/svg" xmlns:xlink="http://www.w3.org/1999/xlink" x="0px" y="0px"
	 viewBox="0 0 1920 774" style="enable-background:new 0 0 1920 774;" xml:space="preserve">
<style type="text/css">
	.st0{fill:#5245DB;}
	.st1{fill:#4FC6B7;}
	.st2{opacity:0.13;enable-background:new    ;}
	.st3{fill:#F8E6D3;stroke:#000000;stroke-width:2.08;stroke-miterlimit:10;}
	.st4{fill:#1C1C1C;stroke:#000000;stroke-width:2.08;stroke-miterlimit:10;}
	.st5{fill:#4C4C4C;stroke:#000000;stroke-width:2.08;stroke-miterlimit:10;}
	.st6{fill:#FFFFFF;stroke:#000000;stroke-width:4.16;stroke-linecap:round;stroke-miterlimit:10;}
	.st7{fill:#FFFFFF;stroke:#000000;stroke-width:2.08;stroke-miterlimit:10;}
	.st8{fill:none;stroke:#000000;stroke-width:3.12;stroke-linecap:round;stroke-miterlimit:10;}
	.st9{fill:none;stroke:#000000;stroke-width:4.16;stroke-linecap:round;stroke-miterlimit:10;}
	.st10{fill:#FFFFFF;stroke:#231F20;stroke-width:2.08;stroke-linecap:round;stroke-miterlimit:10;}
	.st11{fill:#F8DAA4;stroke:#231F20;stroke-width:2.08;stroke-linecap:round;stroke-miterlimit:10;}
	.st12{fill:#F39C9C;}
</style>
<title>about-me-header-wide2</title>
<path class="st0" d="M0-57h1920.5v831.5H0V-57z"/>
<g>
	<path class="st1" d="M1785.5,767.7c41.3-11.2,73.6-30.7,72.2-43.5s-36-14.3-77.3-3.1s-72.2,43.5-72.2,43.5
		S1744.2,778.8,1785.5,767.7z"/>
	<path class="st2" d="M1785.5,767.7c-41.3,11.2-77.3-3.1-77.3-3.1l149.5-40.4C1859.1,737,1826.8,756.5,1785.5,767.7z"/>
	<path class="st1" d="M1734.6,729.9c41.3-11.2,73.6-30.7,72.2-43.5s-36-14.3-77.3-3.1s-72.2,43.5-72.2,43.5S1693.4,741,1734.6,729.9
		L1734.6,729.9z"/>
	<path class="st2" d="M1734.6,729.9c-41.3,11.2-77.3-3.1-77.3-3.1l149.5-40.4C1808.2,699.2,1775.9,718.7,1734.6,729.9L1734.6,729.9z
		"/>
	<path class="st1" d="M1678.9,700.7c40.7-13,72.1-34,70.1-46.8s-36.6-12.6-77.4,0.4s-70.1,46.8-70.1,46.8S1638.2,713.7,1678.9,700.7
		z"/>
	<path class="st2" d="M1678.9,700.7c-40.7,13-77.4,0.4-77.4,0.4l147.5-47.2C1751,666.7,1719.6,687.7,1678.9,700.7z"/>
	<path class="st1" d="M1873,635.5c6.7,42.2,2.1,79.7-10.3,83.7s-27.8-27-34.4-69.3s10.3-83.7,10.3-83.7S1866.4,593.2,1873,635.5z"/>
	<path class="st2" d="M1873,635.5c-6.7-42.2-34.4-69.3-34.4-69.3l24.1,153C1875.1,715.2,1879.7,677.7,1873,635.5z"/>
	<path class="st1" d="M1817.8,604.5c6.7,42.2,2.1,79.7-10.3,83.7s-27.8-27-34.4-69.3s10.3-83.7,10.3-83.7S1811.1,562.3,1817.8,604.5
		z"/>
	<path class="st2" d="M1817.8,604.5c-6.7-42.2-34.4-69.3-34.4-69.3l24.1,153C1819.8,684.2,1824.4,646.8,1817.8,604.5z"/>
	<path class="st1" d="M1760.1,558.8c7.8,42,4.2,79.6-8.1,83.9s-28.5-26.3-36.2-68.3s8.1-83.9,8.1-83.9S1752.3,516.8,1760.1,558.8
		L1760.1,558.8z"/>
	<path class="st2" d="M1760.1,558.8c-7.8-42-36.2-68.3-36.2-68.3l28.2,152.3C1764.3,638.5,1767.9,600.9,1760.1,558.8z"/>
	<path class="st1" d="M1695,527.6c14.1,40.4,16.2,78,4.8,84.2s-32.1-21.7-46.2-62s-4.8-84.2-4.8-84.2S1680.9,487.3,1695,527.6z"/>
	<path class="st2" d="M1695,527.6c-14.1-40.4-46.2-62-46.2-62l51,146.2C1711.2,605.7,1709,568,1695,527.6z"/>
	<path class="st1" d="M1620.9,524.1c25.8,30.9,39.1,62.6,29.7,70.7s-38-10.3-63.8-41.2s-29.7-70.7-29.7-70.7
		S1595.1,493.2,1620.9,524.1L1620.9,524.1z"/>
	<path class="st2" d="M1620.9,524.1c-25.8-30.9-63.8-41.2-63.8-41.2l93.5,111.9C1660,586.7,1646.7,555,1620.9,524.1L1620.9,524.1z"
		/>
	<path class="st1" d="M1547.3,534.8c31.3,20,51.8,44.2,45.7,54s-36.4,1.4-67.8-18.6s-45.7-54-45.7-54S1516,514.7,1547.3,534.8z"/>
	<path class="st2" d="M1547.3,534.8c-31.3-20-67.8-18.6-67.8-18.6l113.5,72.6C1599.1,579,1578.7,554.8,1547.3,534.8z"/>
	<path class="st1" d="M1471.1,559.4c36.2,8.4,63.6,24.4,61.1,35.6s-33.9,13.5-70.1,5.1s-61.1-35.6-61.1-35.6
		S1434.8,550.9,1471.1,559.4z"/>
	<path class="st2" d="M1471.1,559.4c-36.2-8.4-70.1,5.1-70.1,5.1l131.2,30.6C1534.7,583.8,1507.3,567.8,1471.1,559.4z"/>
	<path class="st1" d="M1415.2,627.2c28.7-13.5,55.4-17.3,59.7-8.4s-15.5,26.9-44.2,40.4s-57.3,11.2-57.3,11.2
		S1386.5,640.7,1415.2,627.2L1415.2,627.2z"/>
	<path class="st2" d="M1415.2,627.2c-28.7,13.5-41.8,43.2-41.8,43.2l101.5-51.6C1470.6,609.9,1443.9,613.7,1415.2,627.2
		L1415.2,627.2z"/>
	<path class="st1" d="M1609.2,666.3c39.7-16,69.4-39.2,66.5-51.8s-37.5-9.9-77.1,6.1s-66.5,51.8-66.5,51.8
		S1569.6,682.3,1609.2,666.3z"/>
	<path class="st2" d="M1609.2,666.3c-39.7,16-77.1,6.1-77.1,6.1l143.6-57.9C1678.7,627.1,1648.9,650.3,1609.2,666.3z"/>
	<path class="st1" d="M1517.3,661.8c33.9-23.4,57.1-51.6,51.8-63s-37.2-1.6-71.1,21.8s-51.8,63-51.8,63S1483.4,685.2,1517.3,661.8z"
		/>
	<path class="st2" d="M1517.3,661.8c-33.9,23.4-71.1,21.8-71.1,21.8l122.9-84.7C1574.4,610.2,1551.2,638.4,1517.3,661.8z"/>
	<path class="st1" d="M1930.2,797.8c-16.8-17.6-34.3-34.2-52.3-50.2s-36.5-31.2-55.7-45.4c-4.8-3.6-9.6-7.1-14.5-10.5
		c-2.4-1.7-4.9-3.4-7.3-5.1s-4.9-3.3-7.4-5c-9.9-6.5-20-12.9-30.2-18.8s-20.7-11.6-31.3-16.8s-21.3-10.1-32.3-14.4
		s-22-8.2-33.3-11.5c-11.2-3.4-22.6-6.1-34.1-8.2c-23-4.4-46.5-6.1-69.9-5.1c-11.8,0.5-23.5,1.7-35.1,3.6l-2.2,0.3l-2.2,0.4
		l-4.3,0.8l-4.4,0.8c-1.5,0.3-2.9,0.7-4.3,1l-8.7,2l-8.6,2.3c-1.4,0.4-2.9,0.7-4.3,1.2l-4.3,1.3c-2.8,0.9-5.7,1.7-8.5,2.7
		c-5.6,2-11.3,3.9-16.9,6.2c-2.8,1.1-5.6,2.2-8.4,3.3l-8.3,3.6c-1.4,0.6-2.8,1.2-4.2,1.8l-4.1,1.9c-2.7,1.3-5.5,2.6-8.3,3.8
		c9.7-7.4,19.9-14.1,30.5-20.2c5.2-3.2,10.8-5.8,16.2-8.7c1.4-0.7,2.8-1.3,4.2-2l4.2-1.9l4.2-1.9c1.4-0.6,2.8-1.2,4.3-1.8l8.6-3.4
		l8.8-3c1.5-0.5,2.9-1,4.4-1.5l4.5-1.3l4.5-1.3l2.2-0.7l2.3-0.6l9.1-2.2c3-0.7,6.1-1.2,9.2-1.8c1.5-0.3,3.1-0.6,4.6-0.9l4.6-0.7
		l4.6-0.7l2.3-0.3l2.3-0.2c12.4-1.4,25-2,37.5-1.7c12.5,0.3,25,1.4,37.4,3.3l4.7,0.7c1.6,0.2,3.1,0.6,4.6,0.9l4.6,0.9
		c1.5,0.3,3.1,0.6,4.6,1l9.2,2.1l9.1,2.4c12,3.4,23.8,7.4,35.5,12s22.9,9.8,33.9,15.5c2.8,1.4,5.5,2.8,8.2,4.3s5.5,2.9,8.1,4.5
		l8,4.7l7.9,4.8c10.5,6.6,20.7,13.5,30.6,20.9c2.5,1.8,5,3.7,7.4,5.6s4.9,3.7,7.3,5.7c4.8,3.8,9.5,7.8,14.2,11.8
		c18.6,16,36.1,33.1,52.5,51.4c8.1,9.1,16,18.5,23.4,28.1C1916.7,777.6,1923.7,787.5,1930.2,797.8L1930.2,797.8z"/>
	<path class="st1" d="M1898.4,91.8c24.7-25.2,39.5-52.6,33.1-61.2s-31.6,4.9-56.3,30.1s-33.1,61.2-33.1,61.2S1873.7,117,1898.4,91.8
		z"/>
	<path class="st2" d="M1898.4,91.8c-24.7,25.2-56.3,30.1-56.3,30.1l89.4-91.3C1937.9,39.2,1923.1,66.6,1898.4,91.8z"/>
	<path class="st1" d="M1846.5,86.2c24.7-25.2,39.5-52.6,33.1-61.2s-31.6,4.9-56.3,30.1s-33.1,61.2-33.1,61.2
		S1821.8,111.4,1846.5,86.2L1846.5,86.2z"/>
	<path class="st2" d="M1846.5,86.2c-24.7,25.2-56.3,30.1-56.3,30.1l89.4-91.3C1886,33.6,1871.1,61,1846.5,86.2z"/>
	<path class="st1" d="M1794.6,88.8c23.5-26.3,37.1-54.3,30.3-62.6s-31.3,6.3-54.8,32.6s-30.3,62.6-30.3,62.6
		S1771.1,115.1,1794.6,88.8z"/>
	<path class="st2" d="M1794.6,88.8c-23.5,26.3-54.8,32.6-54.8,32.6l85.1-95.2C1831.7,34.5,1818.1,62.5,1794.6,88.8z"/>
	<path class="st1" d="M1905.4-38.8c22.4,27.2,34.8,55.8,27.7,63.8s-31-7.6-53.4-34.8s-27.7-63.8-27.7-63.8S1883-66,1905.4-38.8z"/>
	<path class="st2" d="M1905.4-38.8c-22.4-27.2-53.4-34.9-53.4-34.9l81.1,98.6C1940.2,17,1927.8-11.5,1905.4-38.8z"/>
	<path class="st1" d="M1853.1-37.7c22.4,27.2,34.8,55.8,27.7,63.8s-31-7.6-53.4-34.8s-27.7-63.8-27.7-63.8S1830.7-64.9,1853.1-37.7z
		"/>
	<path class="st2" d="M1853.1-37.7c-22.4-27.2-53.4-34.8-53.4-34.8l81.2,98.6C1887.9,18.1,1875.5-10.4,1853.1-37.7L1853.1-37.7z"/>
	<path class="st1" d="M1793-46c23.1,26.6,36.3,54.8,29.4,63s-31.2-6.8-54.4-33.4s-29.4-63-29.4-63S1769.9-72.7,1793-46z"/>
	<path class="st2" d="M1793-46c-23.1-26.6-54.4-33.4-54.4-33.4l83.8,96.4C1829.3,8.8,1816.2-19.4,1793-46z"/>
	<path class="st1" d="M1733.6-40.9c26.9,22.8,44.2,48.7,38.6,57.8s-31.9-2-58.8-24.8s-38.6-57.8-38.6-57.8S1706.7-63.7,1733.6-40.9z
		"/>
	<path class="st2" d="M1733.6-40.9c-26.9-22.8-58.8-24.8-58.8-24.8l97.4,82.6C1777.8,7.7,1760.6-18.1,1733.6-40.9z"/>
	<path class="st1" d="M1679.5-12.5c31.3,11.2,54,28.1,50.7,37.9s-31.3,8.6-62.6-2.6s-50.7-37.9-50.7-37.9S1648.2-23.7,1679.5-12.5z"
		/>
	<path class="st2" d="M1679.5-12.5c-31.3-11.2-62.6-2.6-62.6-2.6l113.3,40.5C1733.5,15.6,1710.8-1.3,1679.5-12.5z"/>
	<path class="st1" d="M1631.7,25.9c30.7,1.1,55.3,9.7,55.1,19.2s-25.3,16.3-56,15.1S1575.7,41,1575.7,41S1601,24.8,1631.7,25.9
		L1631.7,25.9z"/>
	<path class="st2" d="M1631.7,25.9c-30.7-1.1-56,15.1-56,15.1l111.1,4.1C1687,35.6,1662.3,27,1631.7,25.9z"/>
	<path class="st1" d="M1587.7,75.3c29.3-9.2,55.4-9.3,58.3-0.2s-18.4,23.8-47.7,32.9s-58.3,0.2-58.3,0.2S1558.4,84.4,1587.7,75.3z"
		/>
	<path class="st2" d="M1587.7,75.3c-29.3,9.2-47.7,32.9-47.7,32.9L1646.1,75C1643.1,66,1617,66.1,1587.7,75.3z"/>
	<path class="st1" d="M1576.4,146.9c14.8-21.6,32.2-35.5,38.9-31s0.2,25.6-14.6,47.2c-9.3,13.3-21.7,24.2-36,31.9
		C1564.7,195,1561.6,168.5,1576.4,146.9z"/>
	<path class="st2" d="M1576.4,146.9c-14.8,21.6-11.7,48.2-11.7,48.2l50.6-79.2C1608.6,111.4,1591.1,125.3,1576.4,146.9L1576.4,146.9
		z"/>
	<path class="st1" d="M1730.7,93.5c21.5-28,33-56.9,25.6-64.7s-30.8,8.6-52.3,36.6s-25.6,64.7-25.6,64.7S1709.2,121.5,1730.7,93.5z"
		/>
	<path class="st2" d="M1730.7,93.5c-21.5,28-52.3,36.6-52.3,36.6l77.9-101.2C1763.7,36.6,1752.2,65.6,1730.7,93.5z"/>
	<path class="st1" d="M1663.5,128.8c14.3-30.8,19-60.6,10.5-66.4s-27.1,14.4-41.4,45.2S1622,174,1622,174S1649.2,159.6,1663.5,128.8
		z"/>
	<path class="st2" d="M1663.5,128.8c-14.3,30.8-41.5,45.2-41.5,45.2l51.9-111.6C1682.5,68.2,1677.8,98,1663.5,128.8z"/>
	<path class="st1" d="M2013.9,52.7c-19.3-5.5-38.7-10-58.2-13.8s-39-6.9-58.6-9c-4.9-0.5-9.8-1-14.7-1.4l-7.3-0.6
		c-2.4-0.2-4.9-0.3-7.3-0.5c-9.8-0.5-19.6-0.8-29.4-0.8s-19.5,0.4-29.2,1.2s-19.4,1.7-29,3.3c-9.6,1.6-19.1,3.4-28.5,5.7
		c-9.4,2.3-18.6,5.2-27.7,8.5c-18.2,6.5-35.6,15.1-51.8,25.6c-8.1,5.3-16,11.1-23.4,17.2l-1.4,1.2l-1.4,1.2l-2.8,2.4l-2.8,2.4
		c-0.9,0.8-1.8,1.7-2.7,2.5l-5.3,5l-5.1,5.3c-0.8,0.9-1.8,1.7-2.6,2.7l-2.5,2.7c-1.6,1.8-3.3,3.6-4.9,5.5c-3.2,3.8-6.4,7.5-9.4,11.5
		c-1.5,2-3.1,3.9-4.6,5.9l-4.4,6c-0.7,1-1.5,2-2.2,3l-2.1,3.1c-1.4,2.1-2.8,4.1-4.3,6.2c3.8-9.3,8.3-18.4,13.3-27.1
		c2.4-4.5,5.2-8.7,7.9-13c1.4-2.1,2.9-4.2,4.3-6.3l2.2-3.1c0.7-1,1.5-2,2.3-3l4.7-6l5-5.8c0.8-1,1.6-2,2.5-2.9l2.6-2.8l2.6-2.8
		l1.3-1.4l1.4-1.3l5.5-5.4c1.9-1.8,3.8-3.4,5.8-5.1c1-0.8,1.9-1.7,2.9-2.5l3-2.4l3-2.4l1.5-1.2l1.5-1.1c8.2-6.2,16.9-11.8,25.9-16.8
		c9-5.1,18.4-9.5,28-13.3l3.6-1.5c1.2-0.5,2.4-0.9,3.6-1.3c2.4-0.8,4.8-1.8,7.3-2.5l7.4-2.3l7.4-2.1c10-2.6,20.1-4.7,30.2-6.3
		c10.2-1.6,20.4-2.6,30.6-3.2s20.4-0.8,30.7-0.5s20.4,1,30.5,2.1c2.5,0.3,5.1,0.5,7.6,0.9s5,0.6,7.6,1c5,0.7,10,1.5,15,2.4
		c19.9,3.6,39.6,8.4,58.8,14.6c9.6,3.1,19.1,6.5,28.4,10.2C1995.8,43.9,2005,48.1,2013.9,52.7L2013.9,52.7z"/>
	<path class="st1" d="M1891.6,663c21.5,13.3,43.1,19.4,48.1,13.6s-8.4-21.4-29.9-34.7s-48.1-13.6-48.1-13.6S1870.1,649.7,1891.6,663
		z"/>
	<path class="st2" d="M1891.6,663c-21.5-13.3-29.9-34.7-29.9-34.7l78,48.3C1934.7,682.4,1913.2,676.3,1891.6,663L1891.6,663z"/>
	<path class="st1" d="M1887.4,625.7c21.5,13.3,43.1,19.4,48.1,13.6s-8.4-21.4-29.9-34.7s-48.1-13.6-48.1-13.6
		S1865.8,612.4,1887.4,625.7z"/>
	<path class="st2" d="M1887.4,625.7c-21.5-13.3-29.9-34.7-29.9-34.7l78,48.3C1930.4,645.1,1908.9,639,1887.4,625.7L1887.4,625.7z"/>
	<path class="st1" d="M1877.4,589.8c22.1,12.3,43.9,17.4,48.6,11.4s-9.4-21-31.5-33.3s-48.6-11.4-48.6-11.4
		S1855.3,577.4,1877.4,589.8z"/>
	<path class="st2" d="M1877.4,589.8c-22.1-12.3-31.5-33.3-31.5-33.3l80.1,44.7C1921.3,607.2,1899.6,602.1,1877.4,589.8z"/>
	<path class="st1" d="M1930.3,493.2c-2.9,23.7-11.2,42.2-18.6,41.5s-10.9-20.6-8-44.3s18.6-41.5,18.6-41.5
		S1933.3,469.5,1930.3,493.2L1930.3,493.2z"/>
	<path class="st2" d="M1930.3,493.2c2.9-23.7-8-44.3-8-44.3l-10.6,85.8C1919.1,535.4,1927.4,516.9,1930.3,493.2L1930.3,493.2z"/>
	<path class="st1" d="M1895.9,465.7c4,21.7,1.9,40.3-4.8,41.6s-15.4-15.2-19.4-36.9s4.8-41.6,4.8-41.6S1891.9,444,1895.9,465.7z"/>
	<path class="st2" d="M1895.9,465.7c-4-21.7-19.4-36.9-19.4-36.9l14.6,78.5C1897.8,506,1899.9,487.4,1895.9,465.7L1895.9,465.7z"/>
	<path class="st1" d="M1854.4,442.6c11,19.1,15.2,37.4,9.3,40.9s-19.6-9.2-30.6-28.3s-9.3-40.9-9.3-40.9S1843.4,423.6,1854.4,442.6z
		"/>
	<path class="st2" d="M1854.4,442.6c-11-19.1-30.6-28.3-30.6-28.3l39.9,69.1C1869.6,480,1865.4,461.7,1854.4,442.6L1854.4,442.6z"/>
	<path class="st1" d="M1802.4,445.9c17.5,7,29.9,17,27.8,22.4s-17.9,4.2-35.4-2.8c-10.8-4.5-20.4-11.4-28-20.2
		C1766.9,445.3,1785,439,1802.4,445.9L1802.4,445.9z"/>
	<path class="st2" d="M1802.4,445.9c-17.5-7-35.6-0.6-35.6-0.6l63.4,23C1832.4,462.9,1819.9,452.9,1802.4,445.9L1802.4,445.9z"/>
	<path class="st1" d="M1864.1,545.7c23,10.7,45.1,14.2,49.3,7.8s-10.9-20.2-33.8-30.9s-49.3-7.8-49.3-7.8S1841.1,535,1864.1,545.7z"
		/>
	<path class="st2" d="M1864.1,545.7c-23-10.7-33.8-30.9-33.8-30.9l83.2,38.7C1909.1,559.9,1887.1,556.4,1864.1,545.7z"/>
	<path class="st1" d="M1828.8,504.1c23.9,5.2,45.4,3.8,48.2-3.1s-14.3-16.7-38.2-22s-48.2,3.1-48.2,3.1
		C1800.9,493.1,1814.2,500.8,1828.8,504.1z"/>
	<path class="st2" d="M1828.8,504.1c-14.6-3.4-27.9-11-38.2-22L1877,501C1874.2,508,1852.7,509.4,1828.8,504.1z"/>
	<path class="st1" d="M1937.2,737.8c0.8-14.4,0.9-28.7,0.6-43s-1.3-28.4-2.9-42.5c-1.6-14-3.9-27.9-7-41.7
		c-1.6-6.8-3.3-13.6-5.4-20.3s-4.3-13.3-6.8-19.8c-10.2-25.9-24.9-50-44.8-69.4c-5-4.9-10.3-9.5-15.8-13.7c-1.3-1.1-2.8-2.1-4.2-3.1
		s-2.8-2.1-4.3-3l-4.4-3l-4.5-2.8c-12-7.4-25-13.3-38.4-18.6c1.8,0.3,3.5,0.7,5.3,1c1.8,0.4,3.6,0.7,5.3,1.1l5.3,1.3
		c1.8,0.5,3.5,1,5.2,1.5c3.5,1,6.9,2.3,10.3,3.5c1.7,0.6,3.4,1.4,5.1,2s3.4,1.4,5,2.2c6.7,3.1,13.1,6.6,19.3,10.5l4.6,3
		c1.5,1,3,2.2,4.5,3.2c0.7,0.5,1.5,1.1,2.2,1.6l2.2,1.7c1.4,1.2,2.9,2.3,4.3,3.5c5.7,4.8,11,10.1,15.9,15.7
		c5,5.5,9.5,11.4,13.7,17.5c4.2,6.1,8,12.5,11.4,19.1c3.4,6.6,6.5,13.3,9.2,20.2c2.7,6.9,5,13.9,7.1,20.9s3.8,14.2,5.1,21.4
		c2.8,14.4,4.5,28.9,5.1,43.5c0.6,14.5,0.3,29.1-1,43.5c-0.7,7.2-1.5,14.4-2.7,21.5c-0.6,3.6-1.2,7.1-1.9,10.7
		S1938.2,734.3,1937.2,737.8L1937.2,737.8z"/>
</g>
<g>
	<g>
		<path class="st3" d="M1.6,517.8c0,0-7-14.2-10.2,2.5c0,0-0.3,13,10.7,16.2l1.2,0.3C3.3,536.9,1,518,1.6,517.8z"/>
		<path class="st4" d="M-38.4,684.5c-5-18.4-57.4-185.1,69.1-285.3c0,0,33.7-31.5,90.6-32.8c27-0.6,54.8,10,74.6,28.2
			c15.1,13.8,25.5,31.8,31.8,51.1c4.2,13,6.9,26.4,8.1,40c6.2,63.2-15.4,135.5-48.3,189.5c-4.5,7.4-9.5,14.4-15,21.1
			c-2.5,3-8.7,11.5-18.2,15.7c-6,2.6-215.8,23.2-215.8,23.2C-62.3,735-38.1,685.3-38.4,684.5z"/>
		<path class="st5" d="M-72.6,763.8c-1-0.3-1.7-1.4-1.4-2.4c2.9-12.9,52.3-144.8,104-140.3c0,0,2.5,0.6,3.1-3.6l2.3-9.3
			c0,0,3.3-9.7,10.6-6.1c0,0,1.3,0.1,2.5,2.1c0,0,22.2,26,61.2,15.2l-1-3.2c0,0,7.2-3.3,10.7,3.2c0,0,3.8,7.8,1.7,20.7
			c0,0,21.3,7.5,29,26.5c0,0,29.6,91.6,4.9,141.2c-0.4,1-1.5,1.5-2.6,1.2L-72.6,763.8z"/>
		<path class="st4" d="M150.8,653.4c-8.9,17.7-29.9,53.7-51.5,66.9c0,0,49.4,9.7,71.1-21.6"/>
		<path class="st3" d="M52.9,593.9c0,0-2.2,7.3-4.3,9.5c0,0,19.2,24.9,61,15.8c0,0-1.4-6.7-1-10.5
			C108.6,608.7,75.8,610.3,52.9,593.9L52.9,593.9z"/>
		<path class="st3" d="M6.4,485.9c0,0-26.2,76.8,45.5,110.6c11.7,5.5,26,9.9,43.5,12.5c0,0,91.8,17.9,111.2-78.8
			c0,0-26.6-8-32.9-35.2l-0.5,13.6c0,0-25.3-16-30.1-80.7c0,0-25.3,45.7-67.8,57c0,0,4.9-11.4,5.1-17.1c0,0-24.2,15.4-43.6,17.4
			l3.9-10.6C40.9,474.6,21.8,485.3,6.4,485.9z"/>
		<path class="st6" d="M35.2,496.6l26.5,3.2 M146.6,516.7l26.4,3.8"/>
		<ellipse transform="matrix(0.1395 -0.9902 0.9902 0.1395 -473.6269 492.9571)" class="st7" cx="46.8" cy="519" rx="9" ry="17.6"/>
		<ellipse transform="matrix(0.2872 -0.9579 0.9579 0.2872 -463.5315 415.0795)" cx="47.1" cy="519" rx="8" ry="8"/>
		
			<ellipse transform="matrix(0.1395 -0.9902 0.9902 0.1395 -400.6107 618.0296)" class="st7" cx="155.3" cy="539.5" rx="9" ry="17.6"/>
		<ellipse transform="matrix(0.2872 -0.9579 0.9579 0.2872 -405.6462 534.0162)" cx="156" cy="539.6" rx="8.1" ry="8.1"/>
		<path class="st8" d="M99.5,543.1l-3.1,10.4l5.3,1.6"/>
		<path class="st9" d="M84.6,582.3l14,1"/>
		<path class="st8" d="M153.1,326.2c0,0-20.8,12.7-23.7,43.1c0,0,0.7-13.9-9.1-16.3"/>
		<path class="st10" d="M156.5,319.7c0,0-9.1-17.6,1.2-23.1c0,0,11.5-1.2,1.1,23.7L156.5,319.7z M161.3,320.5
			c0,0,6.6-18.6,17.6-14.9c0,0,8.7,7.5-16.6,17L161.3,320.5z M160.8,324.7c0,0,19.5-3.5,21.7,8c0,0-2.2,11.3-23-6L160.8,324.7z
			 M158.3,325.9c0,0,7.3,18.4-3.4,22.8c0,0-11.5,0.1,1.3-23.7L158.3,325.9z M154.8,324.2c0,0-18.8,6-22.5-5c0,0,0.7-11.5,23.6,2.9
			L154.8,324.2z"/>
		
			<ellipse transform="matrix(0.2872 -0.9579 0.9579 0.2872 -197.0192 382.1626)" class="st11" cx="158.3" cy="323.5" rx="4.1" ry="4.1"/>
		<path class="st8" d="M144.6,358.3c0,0-5.6-11.9-15.2,11.1"/>
		<path class="st3" d="M201.3,551.3c0,0,11-10.5,8.3,5.7c0,0-4.1,11.8-15,11.1l-1.2-0.1C193.4,568,201.7,551.7,201.3,551.3z"/>
		<path d="M82.5,575.8c-1.1-0.1-2.2,0.7-2.3,1.8c0,0.2,0,0.5,0,0.7c0.9,4.5,5.5,8.3,11.4,9.1s11.3-1.7,13.4-5.8
			c0.5-1,0.1-2.3-0.9-2.8c-0.2-0.1-0.4-0.2-0.7-0.2L82.5,575.8z"/>
		
			<ellipse transform="matrix(0.1395 -0.9902 0.9902 0.1395 -422.8563 648.1199)" class="st12" cx="161.5" cy="567.4" rx="5.4" ry="10.5"/>
		
			<ellipse transform="matrix(0.1395 -0.9902 0.9902 0.1395 -508.3091 506.7299)" class="st12" cx="37.4" cy="545.8" rx="5.4" ry="10.5"/>
	</g>
</g>
<g>
	<path class="st1" d="M95.6,806.6c-39.8-7.6-71.8-23.8-71.3-36.1s33-16.1,72.9-8.4s71.3,36.1,71.3,36.1S135.4,814.3,95.6,806.6z"/>
	<path class="st2" d="M95.6,806.6c39.8,7.6,72.9-8.4,72.9-8.4L24.3,770.6C23.8,782.8,55.8,799,95.6,806.6z"/>
	<path class="st1" d="M141,767.3c-39.8-7.6-71.8-23.8-71.3-36.1s33-16.1,72.9-8.4s71.3,36.1,71.3,36.1S180.8,774.9,141,767.3z"/>
	<path class="st2" d="M141,767.3c39.8,7.6,72.9-8.4,72.9-8.4L69.7,731.2C69.2,743.5,101.2,759.7,141,767.3z"/>
	<path class="st1" d="M191.6,735.8c-39.4-9.4-70.6-27-69.6-39.3s33.7-14.5,73.2-5.1s69.6,39.3,69.6,39.3S231.1,745.2,191.6,735.8z"
		/>
	<path class="st2" d="M191.6,735.8c39.4,9.4,73.2-5.1,73.2-5.1L122,696.5C121,708.8,152.2,726.3,191.6,735.8L191.6,735.8z"/>
	<path class="st1" d="M3.5,687.8c-3.3,40.4,3.7,75.5,15.6,78.4s24.3-27.5,27.7-67.9s-15.6-78.4-15.6-78.4S6.8,647.4,3.5,687.8z"/>
	<path class="st2" d="M3.5,687.8c3.3-40.4,27.7-67.9,27.7-67.9l-12,146.3C7.1,763.3,0.1,728.2,3.5,687.8z"/>
	<path class="st1" d="M53.5,654.7c-3.3,40.4,3.7,75.5,15.6,78.4s24.3-27.5,27.7-67.9s-15.6-78.4-15.6-78.4S56.8,614.2,53.5,654.7z"
		/>
	<path class="st2" d="M53.5,654.7c3.3-40.4,27.7-67.9,27.7-67.9L69.2,733C57.2,730.2,50.2,695.1,53.5,654.7z"/>
	<path class="st1" d="M104.8,607.4c-4.4,40.3,1.7,75.6,13.5,78.8s25.1-26.9,29.5-67.2s-13.5-78.8-13.5-78.8S109.2,567.1,104.8,607.4
		L104.8,607.4z"/>
	<path class="st2" d="M104.8,607.4c4.4-40.3,29.4-67.2,29.4-67.2l-15.9,146C106.5,683,100.4,647.7,104.8,607.4z"/>
	<path class="st1" d="M164.2,573.3c-10.5,39.2-9.9,75,1.4,79.9s28.9-22.7,39.4-61.9s-1.4-79.9-1.4-79.9S174.7,534.1,164.2,573.3z"/>
	<path class="st2" d="M164.2,573.3c10.5-39.2,39.3-61.9,39.3-61.9l-37.9,141.8C154.4,648.2,153.8,612.5,164.2,573.3z"/>
	<path class="st1" d="M234,564.7c-22.2,31-32.5,61.9-23,69s35.2-12.4,57.5-43.5s23-69,23-69S256.2,533.7,234,564.7L234,564.7z"/>
	<path class="st2" d="M234,564.7c22.2-31,57.5-43.5,57.5-43.5L211,633.7C201.5,626.6,211.8,595.8,234,564.7L234,564.7z"/>
	<path class="st1" d="M304.3,569.6c-28.2,21.2-45.9,45.5-39.4,54.2s34.6-1.2,62.8-22.4s39.4-54.2,39.4-54.2S332.5,548.4,304.3,569.6
		z"/>
	<path class="st2" d="M304.3,569.6c28.2-21.2,62.8-22.4,62.8-22.4l-102.2,76.6C258.4,615.1,276.1,590.8,304.3,569.6z"/>
	<path class="st1" d="M378.2,587.5c-33.7,10.5-58.4,27.5-55.3,38s33,10.4,66.6-0.2s55.3-38,55.3-38S411.8,576.9,378.2,587.5z"/>
	<path class="st2" d="M378.2,587.5c33.7-10.5,66.6-0.2,66.6-0.2l-121.9,38.2C319.8,615,344.5,598,378.2,587.5z"/>
	<path class="st1" d="M435.8,647.7c-28.1-10.7-53.6-12.4-57-3.8s16.6,24.4,44.7,35.1s54.9,6.5,54.9,6.5S463.9,658.4,435.8,647.7z"/>
	<path class="st2" d="M435.8,647.7c28.1,10.7,42.6,37.9,42.6,37.9l-99.6-41.6C382.2,635.2,407.7,636.9,435.8,647.7z"/>
	<path class="st1" d="M255.1,698.4c-38.6-12.3-68.4-32.2-66.5-44.3s34.7-12,73.4,0.3s66.5,44.3,66.5,44.3S293.7,710.7,255.1,698.4
		L255.1,698.4z"/>
	<path class="st2" d="M255.1,698.4c38.6,12.3,73.3,0.3,73.3,0.3l-139.9-44.6C186.7,666.2,216.4,686,255.1,698.4L255.1,698.4z"/>
	<path class="st1" d="M341.7,687.6c-33.7-19.7-57.6-44.8-53.4-55.9s35-4.2,68.8,15.5s53.4,55.9,53.4,55.9S375.4,707.4,341.7,687.6z"
		/>
	<path class="st2" d="M341.7,687.6c33.7,19.7,68.8,15.5,68.8,15.5l-122.2-71.4C284,642.9,307.9,667.9,341.7,687.6L341.7,687.6z"/>
	<path class="st1" d="M-39.2,845.4c5.4-10.2,11.3-20.1,17.8-29.8c6.4-9.6,13.1-19.1,20.2-28.3c14.2-18.4,29.5-35.9,46-52.3
		c4.1-4.1,8.3-8.1,12.6-12.1c2.1-2,4.3-3.9,6.5-5.9s4.4-3.9,6.6-5.8c8.8-7.7,18-14.9,27.4-21.9s19.2-13.5,29.3-19.6s20.4-11.8,31-17
		s21.6-9.7,32.7-13.8l8.4-2.9l8.5-2.6c2.8-0.9,5.7-1.6,8.6-2.4c1.4-0.4,2.9-0.8,4.3-1.1l4.3-1c11.6-2.7,23.3-4.7,35.2-5.8
		c11.8-1.2,23.7-1.6,35.5-1.1l2.2,0.1l2.2,0.1l4.4,0.3l4.4,0.3c1.5,0.1,2.9,0.3,4.4,0.5c2.9,0.4,5.9,0.6,8.8,1.1l8.7,1.4l2.2,0.4
		l2.2,0.5l4.3,0.9l4.3,0.9c1.4,0.3,2.9,0.7,4.3,1.1l8.5,2.2l8.4,2.6c1.4,0.5,2.8,0.9,4.2,1.4l4.1,1.5l4.1,1.5c1.4,0.5,2.8,1,4.1,1.6
		c5.4,2.3,10.8,4.4,16,7.1c10.5,5,20.6,10.6,30.3,16.9c-2.7-1-5.4-2-8.1-3l-4-1.5c-1.3-0.5-2.7-0.9-4.1-1.4l-8.1-2.8
		c-2.7-0.9-5.5-1.7-8.2-2.6c-5.4-1.8-10.9-3.2-16.4-4.7c-2.7-0.7-5.5-1.3-8.3-2l-4.1-1c-1.4-0.3-2.8-0.5-4.2-0.8l-8.3-1.6l-8.4-1.3
		c-1.4-0.2-2.8-0.5-4.2-0.6l-4.2-0.5l-4.2-0.5l-2.1-0.2l-2.1-0.2c-11.1-0.9-22.3-1.3-33.4-0.9c-22.2,0.7-44.3,4-65.7,9.8
		c-10.7,2.8-21.3,6.2-31.7,10.2c-10.4,3.9-20.6,8.3-30.6,13.2c-10.1,4.8-19.9,10.2-29.5,15.9s-19.1,11.7-28.4,18s-18.3,13.1-27.2,20
		c-2.2,1.7-4.5,3.5-6.6,5.2s-4.4,3.5-6.6,5.3c-4.4,3.6-8.7,7.2-13,10.9C39.1,762,22.6,777.7,6.7,794.1S-24.5,827.5-39.2,845.4
		L-39.2,845.4z"/>
	<path class="st1" d="M-6.3,22c-6-31.7-3.5-60.1,5.8-63.4S21-21.6,27,10.1s-5.8,63.4-5.8,63.4S-0.3,53.8-6.3,22z"/>
	<path class="st2" d="M-6.3,22c6,31.7,27.6,51.5,27.6,51.5L-0.6-41.3C-9.8-38-12.4-9.7-6.3,22z"/>
	<path class="st1" d="M31.9,50.3c-4.6-32-0.7-60.2,8.6-63.1S61.2,7.9,65.8,39.9S57.1,103,57.1,103S36.5,82.2,31.9,50.3z"/>
	<path class="st2" d="M31.9,50.3c4.6,32,25.3,52.7,25.3,52.7L40.5-12.8C31.1-9.9,27.3,18.3,31.9,50.3z"/>
	<path class="st1" d="M144.1-17.7C112-14,85.7-3,85.3,6.8s25.3,14.7,57.4,10.9s58.8-24.5,58.8-24.5S176.2-21.5,144.1-17.7z"/>
	<path class="st2" d="M144.1-17.7c32.1-3.8,57.4,10.9,57.4,10.9L85.3,6.8C85.7-3,112-14,144.1-17.7z"/>
	<path class="st1" d="M171,31.4c-29.5-7.3-55.4-5.9-57.8,3.2s19.5,22.4,49,29.7s57.8-3.2,57.8-3.2S200.5,38.7,171,31.4z"/>
	<path class="st2" d="M171,31.4c29.5,7.3,49,29.8,49,29.8L113.1,34.6C115.6,25.5,141.4,24.1,171,31.4z"/>
	<path class="st1" d="M188,84.9c-24-14.7-47.1-20.6-51.7-13.2s11.1,25.2,35,39.9s51.7,13.2,51.7,13.2S211.9,99.6,188,84.9z"/>
	<path class="st2" d="M188,84.9c24,14.7,35,39.9,35,39.9l-86.8-53.2C140.9,64.3,164,70.2,188,84.9L188,84.9z"/>
	<path class="st1" d="M196.5,144.8c-17.7-21.8-37.6-35.1-44.4-29.8s2,27.5,19.7,49.3s44.4,29.8,44.4,29.8S214.1,166.6,196.5,144.8
		L196.5,144.8z"/>
	<path class="st2" d="M196.5,144.8c17.7,21.8,19.7,49.3,19.7,49.3l-64.1-79C158.9,109.7,178.8,123,196.5,144.8z"/>
	<path class="st1" d="M168.8,205.1c-0.3-23.9-6.6-43.4-14-43.3s-13.1,19.4-12.8,43.4c0.4,14.9,4.2,29.5,11.3,42.6
		C153.3,247.8,169.2,229.1,168.8,205.1z"/>
	<path class="st2" d="M168.8,205.1c0.3,23.9-15.5,42.6-15.5,42.6l1.6-86C162.3,161.8,168.5,181.2,168.8,205.1z"/>
	<path class="st1" d="M78.2,86.3C76,54,81.9,26.2,91.4,24s19.1,22.2,21.3,54.4s-13.2,62.3-13.2,62.3S80.4,118.5,78.2,86.3z"/>
	<path class="st2" d="M78.2,86.3c2.2,32.2,21.3,54.4,21.3,54.4L91.4,24C81.9,26.2,76,54,78.2,86.3z"/>
	<path class="st1" d="M111.6,147.2c4.7-30.8,16.2-55.8,25.7-55.9s13.4,24.7,8.7,55.5s-25.7,55.9-25.7,55.9S106.9,178,111.6,147.2z"
		/>
	<path class="st2" d="M111.6,147.2c-4.7,30.8,8.7,55.5,8.7,55.5l17-111.4C127.8,91.4,116.3,116.5,111.6,147.2z"/>
	<path class="st1" d="M-117-88.4c9.2,1,18.2,2.5,27.2,4.4c9,1.9,18,4.1,26.8,6.6c17.8,5.1,35.2,11.3,52.2,18.7
		c8.5,3.7,16.9,7.7,25.1,12s16.3,9,24.3,13.9s15.6,10.3,23.1,15.9s14.7,11.6,21.7,18s13.5,13.1,19.8,20.1l4.6,5.4l4.4,5.5
		c1.5,1.8,2.9,3.8,4.3,5.6c0.7,1,1.4,1.9,2.1,2.8l2,2.9c5.4,7.8,10.3,15.9,14.6,24.3c4.4,8.4,8.1,17.1,11.2,26l0.6,1.7l0.5,1.7
		l1.1,3.4l1.1,3.4c0.3,1.1,0.6,2.3,0.9,3.4c0.6,2.3,1.2,4.5,1.8,6.8l1.5,6.9c0.3,1.1,0.5,2.3,0.7,3.5l0.6,3.5c0.4,2.3,0.8,4.6,1,7
		l0.8,7l0.5,7c0.1,1.2,0.2,2.3,0.2,3.5l0.1,3.5c0,2.3,0.2,4.6,0.1,7c-0.1,4.6-0.1,9.3-0.5,13.9c-0.6,9.2-1.8,18.4-3.6,27.4
		c-0.2-18.4-1.3-36.6-4.6-54.2l-1.2-6.6l-1.5-6.6c-0.3-1.1-0.5-2.2-0.8-3.3l-0.9-3.2l-0.9-3.2c-0.3-1.1-0.6-2.2-0.9-3.2
		c-2.6-8.5-5.6-16.8-9.1-25c-7-16.3-15.9-31.6-26.4-45.9c-5.2-7.1-10.9-14-16.8-20.5C84.9,26,78.6,19.7,72,13.7
		C65.5,7.7,58.7,2,51.6-3.5S37.4-14.2,29.9-19.2s-15-9.7-22.8-14.3s-15.6-8.9-23.6-13.1c-16-8.4-32.5-15.9-49.2-22.9
		S-99.6-82.8-117-88.4z"/>
</g>
</svg>
