<?xml version="1.0" encoding="utf-8"?>
<!-- Generator: Adobe Illustrator 21.0.2, SVG Export Plug-In . SVG Version: 6.00 Build 0)  -->
<svg version="1.1" id="Layer_1" xmlns="http://www.w3.org/2000/svg" xmlns:xlink="http://www.w3.org/1999/xlink" x="0px" y="0px"
	 viewBox="0 0 1920 1033" style="enable-background:new 0 0 1920 1033;" xml:space="preserve">
<style type="text/css">
	.st0{fill:#5245DB;}
	.st1{fill:#4FC6B7;}
	.st2{opacity:0.13;enable-background:new    ;}
	.st3{fill:#F8E6D3;stroke:#000000;stroke-width:2.08;stroke-miterlimit:10;}
	.st4{fill:#1C1C1C;stroke:#000000;stroke-width:2.08;stroke-miterlimit:10;}
	.st5{fill:#4C4C4C;stroke:#000000;stroke-width:2.08;stroke-miterlimit:10;}
	.st6{fill:#FFFFFF;stroke:#000000;stroke-width:4.16;stroke-linecap:round;stroke-miterlimit:10;}
	.st7{fill:#FFFFFF;stroke:#000000;stroke-width:2.08;stroke-miterlimit:10;}
	.st8{fill:none;stroke:#000000;stroke-width:3.12;stroke-linecap:round;stroke-miterlimit:10;}
	.st9{fill:none;stroke:#000000;stroke-width:4.16;stroke-linecap:round;stroke-miterlimit:10;}
	.st10{fill:#FFFFFF;stroke:#231F20;stroke-width:2.08;stroke-linecap:round;stroke-miterlimit:10;}
	.st11{fill:#F8DAA4;stroke:#231F20;stroke-width:2.08;stroke-linecap:round;stroke-miterlimit:10;}
	.st12{fill:#F39C9C;}
</style>
<title>about-me-header</title>
<path class="st0" d="M0-22h1920.5v1055.5H0V-22z"/>
<g>
	<path class="st1" d="M1785.5,1026.7c41.3-11.2,73.6-30.7,72.2-43.5s-36-14.3-77.3-3.1s-72.2,43.5-72.2,43.5
		S1744.2,1037.8,1785.5,1026.7z"/>
	<path class="st2" d="M1785.5,1026.7c-41.3,11.2-77.3-3.1-77.3-3.1l149.5-40.4C1859.1,996,1826.8,1015.5,1785.5,1026.7z"/>
	<path class="st1" d="M1734.6,988.9c41.3-11.2,73.6-30.7,72.2-43.5s-36-14.3-77.3-3.1s-72.2,43.5-72.2,43.5
		S1693.4,1000,1734.6,988.9L1734.6,988.9z"/>
	<path class="st2" d="M1734.6,988.9c-41.3,11.2-77.3-3.1-77.3-3.1l149.5-40.4C1808.2,958.2,1775.9,977.7,1734.6,988.9L1734.6,988.9z
		"/>
	<path class="st1" d="M1678.9,959.7c40.7-13,72.1-34,70.1-46.8s-36.6-12.6-77.4,0.4s-70.1,46.8-70.1,46.8S1638.2,972.7,1678.9,959.7
		z"/>
	<path class="st2" d="M1678.9,959.7c-40.7,13-77.4,0.4-77.4,0.4l147.5-47.2C1751,925.7,1719.6,946.7,1678.9,959.7z"/>
	<path class="st1" d="M1873,894.5c6.7,42.2,2.1,79.7-10.3,83.7s-27.8-27-34.4-69.3s10.3-83.7,10.3-83.7S1866.4,852.2,1873,894.5z"/>
	<path class="st2" d="M1873,894.5c-6.7-42.2-34.4-69.3-34.4-69.3l24.1,153C1875.1,974.2,1879.7,936.7,1873,894.5z"/>
	<path class="st1" d="M1817.8,863.5c6.7,42.2,2.1,79.7-10.3,83.7s-27.8-27-34.4-69.3s10.3-83.7,10.3-83.7S1811.1,821.3,1817.8,863.5
		z"/>
	<path class="st2" d="M1817.8,863.5c-6.7-42.2-34.4-69.3-34.4-69.3l24.1,153C1819.8,943.2,1824.4,905.8,1817.8,863.5z"/>
	<path class="st1" d="M1760.1,817.8c7.8,42,4.2,79.6-8.1,83.9s-28.5-26.3-36.2-68.3s8.1-83.9,8.1-83.9S1752.3,775.8,1760.1,817.8
		L1760.1,817.8z"/>
	<path class="st2" d="M1760.1,817.8c-7.8-42-36.2-68.3-36.2-68.3l28.2,152.3C1764.3,897.5,1767.9,859.9,1760.1,817.8z"/>
	<path class="st1" d="M1695,786.6c14.1,40.4,16.2,78,4.8,84.2s-32.1-21.7-46.2-62s-4.8-84.2-4.8-84.2S1680.9,746.3,1695,786.6z"/>
	<path class="st2" d="M1695,786.6c-14.1-40.4-46.2-62-46.2-62l51,146.2C1711.2,864.7,1709,827,1695,786.6z"/>
	<path class="st1" d="M1620.9,783.1c25.8,30.9,39.1,62.6,29.7,70.7s-38-10.3-63.8-41.2s-29.7-70.7-29.7-70.7
		S1595.1,752.2,1620.9,783.1L1620.9,783.1z"/>
	<path class="st2" d="M1620.9,783.1c-25.8-30.9-63.8-41.2-63.8-41.2l93.5,111.9C1660,845.7,1646.7,814,1620.9,783.1L1620.9,783.1z"
		/>
	<path class="st1" d="M1547.3,793.8c31.3,20,51.8,44.2,45.7,54s-36.4,1.4-67.8-18.6s-45.7-54-45.7-54S1516,773.7,1547.3,793.8z"/>
	<path class="st2" d="M1547.3,793.8c-31.3-20-67.8-18.6-67.8-18.6l113.5,72.6C1599.1,838,1578.7,813.8,1547.3,793.8z"/>
	<path class="st1" d="M1471.1,818.4c36.2,8.4,63.6,24.4,61.1,35.6s-33.9,13.5-70.1,5.1s-61.1-35.6-61.1-35.6
		S1434.8,809.9,1471.1,818.4z"/>
	<path class="st2" d="M1471.1,818.4c-36.2-8.4-70.1,5.1-70.1,5.1l131.2,30.6C1534.7,842.8,1507.3,826.8,1471.1,818.4z"/>
	<path class="st1" d="M1415.2,886.2c28.7-13.5,55.4-17.3,59.7-8.4s-15.5,26.9-44.2,40.4s-57.3,11.2-57.3,11.2
		S1386.5,899.7,1415.2,886.2L1415.2,886.2z"/>
	<path class="st2" d="M1415.2,886.2c-28.7,13.5-41.8,43.2-41.8,43.2l101.5-51.6C1470.6,868.9,1443.9,872.7,1415.2,886.2
		L1415.2,886.2z"/>
	<path class="st1" d="M1609.2,925.3c39.7-16,69.4-39.2,66.5-51.8s-37.5-9.9-77.1,6.1s-66.5,51.8-66.5,51.8
		S1569.6,941.3,1609.2,925.3z"/>
	<path class="st2" d="M1609.2,925.3c-39.7,16-77.1,6.1-77.1,6.1l143.6-57.9C1678.7,886.1,1648.9,909.3,1609.2,925.3z"/>
	<path class="st1" d="M1517.3,920.8c33.9-23.4,57.1-51.6,51.8-63s-37.2-1.6-71.1,21.8s-51.8,63-51.8,63S1483.4,944.2,1517.3,920.8z"
		/>
	<path class="st2" d="M1517.3,920.8c-33.9,23.4-71.1,21.8-71.1,21.8l122.9-84.7C1574.4,869.2,1551.2,897.4,1517.3,920.8z"/>
	<path class="st1" d="M1930.2,1056.8c-16.8-17.6-34.3-34.2-52.3-50.2s-36.5-31.2-55.7-45.4c-4.8-3.6-9.6-7.1-14.5-10.5
		c-2.4-1.7-4.9-3.4-7.3-5.1s-4.9-3.4-7.4-5c-9.9-6.5-20-12.9-30.2-18.8s-20.7-11.6-31.3-16.8s-21.3-10.1-32.3-14.4
		s-22-8.2-33.3-11.5c-11.2-3.4-22.6-6.1-34.1-8.2c-23-4.4-46.5-6.1-69.9-5.1c-11.8,0.5-23.5,1.7-35.1,3.6l-2.2,0.3l-2.2,0.4
		l-4.3,0.8l-4.4,0.8c-1.5,0.3-2.9,0.7-4.3,1l-8.7,2l-8.6,2.3c-1.4,0.4-2.9,0.7-4.3,1.2l-4.3,1.3c-2.8,0.9-5.7,1.7-8.5,2.7
		c-5.6,2-11.3,3.9-16.9,6.2c-2.8,1.1-5.6,2.2-8.4,3.3l-8.3,3.6c-1.4,0.6-2.8,1.2-4.2,1.8l-4.1,1.9c-2.7,1.3-5.5,2.6-8.3,3.8
		c9.7-7.4,19.9-14.1,30.5-20.2c5.2-3.2,10.8-5.8,16.2-8.7c1.4-0.7,2.8-1.3,4.2-2l4.2-1.9l4.2-1.9c1.4-0.6,2.8-1.2,4.3-1.8l8.6-3.4
		l8.8-3c1.5-0.5,2.9-1,4.4-1.5l4.5-1.3l4.5-1.3l2.2-0.7l2.3-0.6l9.1-2.2c3-0.7,6.1-1.2,9.2-1.8c1.5-0.3,3.1-0.6,4.6-0.9l4.6-0.7
		l4.6-0.7l2.3-0.3l2.3-0.2c12.4-1.4,25-2,37.5-1.7c12.5,0.3,25,1.4,37.4,3.3l4.7,0.7c1.6,0.2,3.1,0.6,4.6,0.9l4.6,0.9
		c1.5,0.3,3.1,0.6,4.6,1l9.2,2.1l9.1,2.4c12,3.4,23.8,7.4,35.5,12s22.9,9.8,33.9,15.5c2.8,1.4,5.5,2.8,8.2,4.3s5.5,2.9,8.1,4.5
		l8,4.7l7.9,4.8c10.5,6.6,20.7,13.5,30.6,20.9c2.5,1.8,5,3.7,7.4,5.6s4.9,3.7,7.3,5.7c4.8,3.8,9.5,7.8,14.2,11.8
		c18.6,16,36.1,33.1,52.5,51.4c8.1,9.1,16,18.5,23.4,28.1C1916.7,1036.6,1923.7,1046.5,1930.2,1056.8L1930.2,1056.8z"/>
	<path class="st1" d="M1892.6,100.5c25.9-26.5,41.5-55.2,34.8-64.3s-33.2,5.2-59.1,31.6s-34.8,64.3-34.8,64.3
		S1866.6,127,1892.6,100.5z"/>
	<path class="st2" d="M1892.6,100.5c-25.9,26.5-59.1,31.6-59.1,31.6l93.9-95.9C1934.1,45.3,1918.5,74.1,1892.6,100.5z"/>
	<path class="st1" d="M1838,94.6c25.9-26.5,41.5-55.2,34.8-64.3s-33.2,5.2-59.1,31.6s-34.8,64.3-34.8,64.3S1812,121.1,1838,94.6z"/>
	<path class="st2" d="M1838,94.6c-25.9,26.5-59.1,31.6-59.1,31.6l93.9-95.9C1879.5,39.4,1863.9,68.2,1838,94.6z"/>
	<path class="st1" d="M1783.5,97.3c24.7-27.6,38.9-57.1,31.8-65.8s-32.9,6.7-57.6,34.3s-31.8,65.8-31.8,65.8S1758.8,125,1783.5,97.3
		z"/>
	<path class="st2" d="M1783.5,97.3c-24.7,27.6-57.6,34.3-57.6,34.3l89.4-100.1C1822.4,40.3,1808.2,69.7,1783.5,97.3L1783.5,97.3z"/>
	<path class="st1" d="M1899.9-36.7c23.6,28.6,36.6,58.6,29.1,67s-32.6-8-56.2-36.6s-29.1-67-29.1-67S1876.3-65.3,1899.9-36.7z"/>
	<path class="st2" d="M1899.9-36.7c-23.6-28.6-56.2-36.6-56.2-36.6L1929,30.3C1936.4,21.9,1923.4-8.1,1899.9-36.7z"/>
	<path class="st1" d="M1845-35.5c23.6,28.6,36.6,58.6,29.1,67s-32.6-8-56.2-36.6s-29.1-67-29.1-67S1821.4-64.2,1845-35.5z"/>
	<path class="st2" d="M1845-35.5c-23.6-28.6-56.2-36.6-56.2-36.6l85.3,103.7C1881.5,23.1,1868.5-6.9,1845-35.5z"/>
	<path class="st1" d="M1781.8-44.3c24.3,28,38.1,57.6,30.9,66.2s-32.8-7.1-57.1-35.1s-30.9-66.2-30.9-66.2S1757.5-72.3,1781.8-44.3z
		"/>
	<path class="st2" d="M1781.8-44.3c-24.3-28-57.1-35.1-57.1-35.1l88,101.3C1819.9,13.3,1806.1-16.3,1781.8-44.3z"/>
	<path class="st1" d="M1719.4-39c28.3,24,46.4,51.2,40.6,60.8s-33.5-2-61.8-26S1657.6-65,1657.6-65S1691.1-63,1719.4-39z"/>
	<path class="st2" d="M1719.4-39c-28.3-24-61.8-26-61.8-26L1760,21.8C1765.9,12.2,1747.7-15,1719.4-39z"/>
	<path class="st1" d="M1662.5-9.1c32.9,11.7,56.7,29.6,53.2,39.8s-32.9,9-65.8-2.7s-53.2-39.8-53.2-39.8S1629.7-20.8,1662.5-9.1z"/>
	<path class="st2" d="M1662.5-9.1c-32.9-11.7-65.8-2.7-65.8-2.7l119,42.5C1719.2,20.5,1695.4,2.7,1662.5-9.1z"/>
	<path class="st1" d="M1612.3,31.2c32.2,1.2,58.1,10.2,57.9,20.2s-26.6,17.1-58.8,15.9s-57.9-20.2-57.9-20.2S1580,30,1612.3,31.2z"
		/>
	<path class="st2" d="M1612.3,31.2c-32.2-1.2-58.8,15.9-58.8,15.9l116.7,4.3C1670.4,41.5,1644.5,32.4,1612.3,31.2z"/>
	<path class="st1" d="M1566.1,83.1c30.8-9.6,58.2-9.7,61.3-0.2s-19.4,25-50.2,34.6s-61.3,0.2-61.3,0.2S1535.3,92.8,1566.1,83.1z"/>
	<path class="st2" d="M1566.1,83.1c-30.8,9.6-50.2,34.6-50.2,34.6l111.5-34.8C1624.3,73.4,1596.9,73.5,1566.1,83.1L1566.1,83.1z"/>
	<path class="st1" d="M1554.2,158.4c15.5-22.7,33.8-37.3,40.9-32.6s0.2,26.9-15.3,49.6s-37.9,33.6-37.9,33.6
		S1538.6,181.1,1554.2,158.4z"/>
	<path class="st2" d="M1554.2,158.4c-15.5,22.7-12.3,50.6-12.3,50.6l53.1-83.2C1588,121.1,1569.7,135.7,1554.2,158.4z"/>
	<path class="st1" d="M1716.3,102.3c22.6-29.4,34.6-59.8,26.9-67.9s-32.3,9.1-54.9,38.4s-26.9,67.9-26.9,67.9
		S1693.7,131.7,1716.3,102.3z"/>
	<path class="st2" d="M1716.3,102.3c-22.6,29.4-54.9,38.4-54.9,38.4l81.8-106.4C1751,42.5,1738.9,72.9,1716.3,102.3z"/>
	<path class="st1" d="M1645.7,139.4c15.1-32.4,20-63.7,11-69.8s-28.5,15.1-43.6,47.5s-11,69.8-11,69.8S1630.6,171.8,1645.7,139.4z"
		/>
	<path class="st2" d="M1645.7,139.4c-15.1,32.4-43.6,47.5-43.6,47.5l54.5-117.3C1665.7,75.7,1660.8,107,1645.7,139.4z"/>
	<path class="st1" d="M2013.9,59.4c-20.3-5.8-40.7-10.5-61.1-14.5s-41-7.2-61.6-9.4c-5.2-0.5-10.3-1-15.4-1.5
		c-2.6-0.2-5.2-0.4-7.7-0.6s-5.2-0.3-7.7-0.5c-10.3-0.5-20.6-0.9-30.9-0.8s-20.5,0.4-30.7,1.2s-20.4,1.8-30.4,3.5s-20.1,3.6-29.9,6
		c-9.9,2.4-19.6,5.4-29.1,8.9c-19.1,6.9-37.4,15.9-54.4,26.9c-8.5,5.6-16.8,11.6-24.6,18.1l-1.5,1.3l-1.4,1.3l-2.9,2.5l-2.9,2.5
		c-1,0.8-1.9,1.8-2.8,2.6l-5.6,5.3l-5.4,5.5c-0.9,0.9-1.8,1.8-2.7,2.8l-2.6,2.9c-1.7,1.9-3.5,3.8-5.2,5.8c-3.3,4-6.8,7.9-9.9,12
		c-1.6,2.1-3.2,4.1-4.8,6.2l-4.6,6.3c-0.8,1.1-1.6,2.1-2.3,3.2l-2.2,3.2c-1.5,2.2-3,4.3-4.5,6.5c4-9.8,8.7-19.3,13.9-28.5
		c2.5-4.7,5.5-9.1,8.3-13.6c1.4-2.2,3-4.4,4.6-6.6l2.3-3.3c0.8-1.1,1.6-2.1,2.4-3.2l4.9-6.3l5.2-6.1c0.9-1,1.7-2.1,2.7-3l2.8-2.9
		l2.8-2.9l1.4-1.5l1.4-1.4l5.8-5.6c2-1.8,4-3.6,6.1-5.4c1-0.9,2-1.8,3.1-2.7l3.2-2.6l3.2-2.5l1.6-1.3l1.6-1.3
		c8.7-6.5,17.8-12.4,27.3-17.7c9.5-5.3,19.3-10,29.4-14l3.8-1.5c1.3-0.5,2.6-0.9,3.8-1.4c2.6-0.9,5.1-1.9,7.7-2.7l7.8-2.5l7.8-2.2
		c10.5-2.7,21.1-5,31.8-6.6c10.7-1.6,21.4-2.7,32.2-3.4s21.5-0.8,32.2-0.5s21.4,1,32,2.2c2.7,0.3,5.3,0.6,8,0.9s5.3,0.6,7.9,1
		c5.3,0.8,10.5,1.6,15.8,2.5c20.9,3.7,41.6,8.9,61.8,15.4c10.1,3.2,20.1,6.8,29.9,10.7C1994.9,50.1,2004.5,54.5,2013.9,59.4
		L2013.9,59.4z"/>
	<path class="st1" d="M1891.6,922c21.5,13.3,43.1,19.4,48.1,13.6s-8.4-21.4-29.9-34.7s-48.1-13.6-48.1-13.6S1870.1,908.7,1891.6,922
		z"/>
	<path class="st2" d="M1891.6,922c-21.5-13.3-29.9-34.7-29.9-34.7l78,48.3C1934.7,941.4,1913.2,935.3,1891.6,922L1891.6,922z"/>
	<path class="st1" d="M1887.4,884.7c21.5,13.3,43.1,19.4,48.1,13.6s-8.4-21.4-29.9-34.7s-48.1-13.6-48.1-13.6
		S1865.8,871.4,1887.4,884.7z"/>
	<path class="st2" d="M1887.4,884.7c-21.5-13.3-29.9-34.7-29.9-34.7l78,48.3C1930.4,904.1,1908.9,898,1887.4,884.7L1887.4,884.7z"/>
	<path class="st1" d="M1877.4,848.8c22.1,12.3,43.9,17.4,48.6,11.4s-9.4-21-31.5-33.3s-48.6-11.4-48.6-11.4
		S1855.3,836.4,1877.4,848.8z"/>
	<path class="st2" d="M1877.4,848.8c-22.1-12.3-31.5-33.3-31.5-33.3l80.1,44.7C1921.3,866.2,1899.6,861.1,1877.4,848.8z"/>
	<path class="st1" d="M1930.3,752.2c-2.9,23.7-11.2,42.2-18.6,41.5s-10.9-20.6-8-44.3s18.6-41.5,18.6-41.5
		S1933.3,728.5,1930.3,752.2z"/>
	<path class="st2" d="M1930.3,752.2c2.9-23.7-8-44.3-8-44.3l-10.6,85.8C1919.1,794.4,1927.4,775.9,1930.3,752.2z"/>
	<path class="st1" d="M1895.9,724.7c4,21.7,1.9,40.3-4.8,41.6s-15.4-15.2-19.4-36.9s4.8-41.6,4.8-41.6S1891.9,703,1895.9,724.7z"/>
	<path class="st2" d="M1895.9,724.7c-4-21.7-19.4-36.9-19.4-36.9l14.6,78.5C1897.8,765,1899.9,746.4,1895.9,724.7L1895.9,724.7z"/>
	<path class="st1" d="M1854.4,701.7c11,19.1,15.2,37.4,9.3,40.9s-19.6-9.2-30.6-28.3s-9.3-40.9-9.3-40.9S1843.4,682.6,1854.4,701.7z
		"/>
	<path class="st2" d="M1854.4,701.7c-11-19.1-30.6-28.3-30.6-28.3l39.9,69.1C1869.6,739,1865.4,720.7,1854.4,701.7L1854.4,701.7z"/>
	<path class="st1" d="M1802.4,704.9c17.5,7,29.9,17,27.8,22.4s-17.9,4.2-35.4-2.8c-10.8-4.5-20.4-11.4-28-20.2
		C1766.9,704.3,1785,698,1802.4,704.9L1802.4,704.9z"/>
	<path class="st2" d="M1802.4,704.9c-17.5-7-35.6-0.6-35.6-0.6l63.4,23C1832.4,721.9,1819.9,711.9,1802.4,704.9L1802.4,704.9z"/>
	<path class="st1" d="M1864.1,804.7c23,10.7,45.1,14.2,49.3,7.8s-10.9-20.2-33.8-30.9s-49.3-7.8-49.3-7.8S1841.1,794,1864.1,804.7z"
		/>
	<path class="st2" d="M1864.1,804.7c-23-10.7-33.8-30.9-33.8-30.9l83.2,38.7C1909.1,818.9,1887.1,815.4,1864.1,804.7z"/>
	<path class="st1" d="M1828.8,763.2c23.9,5.2,45.4,3.8,48.2-3.1s-14.3-16.7-38.2-22s-48.2,3.1-48.2,3.1
		C1800.9,752.1,1814.2,759.8,1828.8,763.2z"/>
	<path class="st2" d="M1828.8,763.2c-14.6-3.4-27.9-11-38.2-22L1877,760C1874.2,767,1852.7,768.4,1828.8,763.2z"/>
	<path class="st1" d="M1937.2,996.8c0.8-14.4,0.9-28.7,0.6-43s-1.3-28.4-2.9-42.5c-1.6-14-3.9-27.9-7-41.7
		c-1.6-6.8-3.3-13.6-5.4-20.3s-4.3-13.3-6.8-19.8c-10.2-25.9-24.9-50-44.8-69.4c-5-4.9-10.3-9.5-15.8-13.7c-1.3-1.1-2.8-2.1-4.2-3.1
		s-2.8-2.1-4.3-3l-4.4-3l-4.5-2.8c-12-7.4-25-13.3-38.4-18.6c1.8,0.3,3.5,0.7,5.3,1c1.8,0.3,3.6,0.7,5.3,1.2l5.3,1.3
		c1.8,0.5,3.5,1,5.2,1.5c3.5,1,6.9,2.3,10.3,3.5c1.7,0.6,3.4,1.4,5.1,2s3.4,1.4,5,2.2c6.7,3.1,13.1,6.6,19.3,10.5l4.6,3
		c1.5,1,3,2.2,4.5,3.2c0.7,0.5,1.5,1.1,2.2,1.6l2.2,1.7c1.4,1.2,2.9,2.3,4.3,3.5c5.7,4.8,11,10.1,15.9,15.7
		c5,5.5,9.5,11.4,13.7,17.5c4.2,6.1,8,12.5,11.4,19.1c3.4,6.6,6.5,13.3,9.2,20.2c2.7,6.9,5,13.9,7.1,20.9s3.8,14.2,5.1,21.4
		c2.8,14.4,4.5,28.9,5.1,43.5c0.6,14.5,0.3,29.1-1,43.5c-0.7,7.2-1.5,14.4-2.7,21.5c-0.6,3.6-1.2,7.1-1.9,10.7
		S1938.2,993.3,1937.2,996.8L1937.2,996.8z"/>
</g>
<g>
	<g>
		<path class="st3" d="M1.6,776.8c0,0-7-14.2-10.2,2.5c0,0-0.3,13,10.7,16.2l1.2,0.3C3.3,795.9,1,777,1.6,776.8z"/>
		<path class="st4" d="M-38.4,943.5c-5-18.4-57.4-185.1,69.1-285.3c0,0,33.7-31.5,90.6-32.8c27-0.7,54.8,10,74.6,28.2
			c15.1,13.8,25.5,31.8,31.8,51.1c4.2,13,6.9,26.4,8.1,40c6.2,63.2-15.4,135.5-48.3,189.5c-4.5,7.4-9.5,14.4-15,21.1
			c-2.5,3-8.7,11.5-18.2,15.7c-6,2.6-215.8,23.2-215.8,23.2C-62.3,994-38.1,944.3-38.4,943.5z"/>
		<path class="st5" d="M-72.6,1022.8c-1-0.3-1.7-1.4-1.4-2.4c2.9-12.9,52.3-144.8,104-140.4c0,0,2.5,0.6,3.1-3.6l2.3-9.3
			c0,0,3.3-9.7,10.6-6.1c0,0,1.3,0.1,2.5,2.1c0,0,22.2,26,61.1,15.2l-1-3.2c0,0,7.2-3.3,10.7,3.2c0,0,3.8,7.8,1.7,20.7
			c0,0,21.3,7.5,29,26.5c0,0,29.6,91.6,4.9,141.2c-0.4,1-1.5,1.5-2.6,1.2L-72.6,1022.8z"/>
		<path class="st4" d="M150.8,912.4c-8.9,17.7-29.9,53.7-51.5,66.9c0,0,49.4,9.7,71.1-21.6"/>
		<path class="st3" d="M52.9,852.9c0,0-2.2,7.3-4.3,9.5c0,0,19.2,24.9,61,15.8c0,0-1.4-6.7-1-10.5
			C108.6,867.7,75.8,869.3,52.9,852.9L52.9,852.9z"/>
		<path class="st3" d="M6.4,744.9c0,0-26.2,76.8,45.5,110.5c11.7,5.5,26,9.9,43.5,12.5c0,0,91.8,17.9,111.2-78.8
			c0,0-26.6-8-32.9-35.2l-0.5,13.6c0,0-25.3-16-30.1-80.7c0,0-25.3,45.7-67.8,57c0,0,4.9-11.4,5.1-17.2c0,0-24.2,15.4-43.6,17.4
			l3.9-10.6C40.9,733.6,21.8,744.2,6.4,744.9z"/>
		<path class="st6" d="M35.2,755.6l26.5,3.2 M146.6,775.7l26.4,3.8"/>
		<ellipse transform="matrix(0.1395 -0.9902 0.9902 0.1395 -730.1025 715.8222)" class="st7" cx="46.8" cy="778" rx="9" ry="17.6"/>
		<ellipse transform="matrix(0.2872 -0.9579 0.9579 0.2872 -711.5984 599.6926)" cx="47.1" cy="778" rx="8" ry="8"/>
		
			<ellipse transform="matrix(0.1395 -0.9902 0.9902 0.1395 -657.0792 840.9062)" class="st7" cx="155.3" cy="798.5" rx="9" ry="17.6"/>
		<ellipse transform="matrix(0.2872 -0.9579 0.9579 0.2872 -653.7198 718.6213)" cx="156" cy="798.5" rx="8.1" ry="8.1"/>
		<path class="st8" d="M99.5,802.1l-3.1,10.4l5.3,1.6"/>
		<path class="st9" d="M84.6,841.3l14,1"/>
		<path class="st8" d="M153.1,585.2c0,0-20.8,12.7-23.7,43.1c0,0,0.7-13.9-9.1-16.3"/>
		<path class="st10" d="M156.5,578.7c0,0-9.1-17.6,1.2-23.1c0,0,11.5-1.2,1.1,23.7L156.5,578.7z M161.3,579.5
			c0,0,6.6-18.7,17.6-14.9c0,0,8.7,7.5-16.6,17L161.3,579.5z M160.8,583.7c0,0,19.5-3.5,21.7,8c0,0-2.2,11.3-23-6L160.8,583.7z
			 M158.3,584.8c0,0,7.3,18.4-3.4,22.8c0,0-11.5,0.1,1.3-23.7L158.3,584.8z M154.8,583.2c0,0-18.8,6-22.5-5c0,0,0.7-11.5,23.6,2.9
			L154.8,583.2z"/>
		
			<ellipse transform="matrix(0.2872 -0.9579 0.9579 0.2872 -445.0753 566.7686)" class="st11" cx="158.3" cy="582.4" rx="4.1" ry="4.1"/>
		<path class="st8" d="M144.6,617.3c0,0-5.6-11.8-15.2,11.1"/>
		<path class="st3" d="M201.3,810.3c0,0,11-10.5,8.3,5.7c0,0-4.1,11.8-15,11.1l-1.2-0.1C193.4,827,201.7,810.7,201.3,810.3z"/>
		<path d="M82.5,834.8c-1.1-0.1-2.2,0.7-2.3,1.8c0,0.2,0,0.5,0,0.7c0.9,4.5,5.5,8.3,11.4,9.1s11.3-1.7,13.4-5.8
			c0.5-1,0.1-2.3-0.9-2.8c-0.2-0.1-0.4-0.2-0.7-0.2L82.5,834.8z"/>
		
			<ellipse transform="matrix(0.1395 -0.9902 0.9902 0.1395 -679.3302 870.9853)" class="st12" cx="161.5" cy="826.4" rx="5.4" ry="10.5"/>
		
			<ellipse transform="matrix(0.1395 -0.9902 0.9902 0.1395 -764.7847 729.595)" class="st12" cx="37.4" cy="804.8" rx="5.4" ry="10.5"/>
	</g>
</g>
<g>
	<path class="st1" d="M95.6,1065.6c-39.8-7.6-71.8-23.8-71.3-36.1s33-16.1,72.9-8.4c39.9,7.6,71.3,36.1,71.3,36.1
		S135.4,1073.3,95.6,1065.6L95.6,1065.6z"/>
	<path class="st2" d="M95.6,1065.6c39.8,7.6,72.9-8.4,72.9-8.4l-144.2-27.7C23.8,1041.8,55.8,1058,95.6,1065.6L95.6,1065.6z"/>
	<path class="st1" d="M141,1026.3c-39.8-7.6-71.8-23.8-71.3-36.1s33-16.1,72.9-8.4s71.3,36.1,71.3,36.1S180.8,1033.9,141,1026.3z"/>
	<path class="st2" d="M141,1026.3c39.8,7.6,72.9-8.4,72.9-8.4L69.7,990.2C69.2,1002.5,101.2,1018.7,141,1026.3z"/>
	<path class="st1" d="M191.6,994.8c-39.4-9.4-70.6-27-69.6-39.3s33.7-14.5,73.2-5.1s69.6,39.3,69.6,39.3S231.1,1004.2,191.6,994.8z"
		/>
	<path class="st2" d="M191.6,994.8c39.4,9.4,73.2-5.1,73.2-5.1L122,955.5C121,967.8,152.2,985.3,191.6,994.8L191.6,994.8z"/>
	<path class="st1" d="M3.5,946.8c-3.3,40.4,3.7,75.5,15.6,78.4c12,2.9,24.3-27.5,27.7-67.9s-15.6-78.4-15.6-78.4
		S6.8,906.4,3.5,946.8L3.5,946.8z"/>
	<path class="st2" d="M3.5,946.8c3.3-40.4,27.7-67.9,27.7-67.9l-12,146.3C7.1,1022.3,0.1,987.2,3.5,946.8z"/>
	<path class="st1" d="M53.5,913.7c-3.3,40.4,3.7,75.5,15.6,78.4s24.3-27.5,27.7-67.9s-15.6-78.4-15.6-78.4S56.8,873.2,53.5,913.7z"
		/>
	<path class="st2" d="M53.5,913.7c3.3-40.4,27.7-67.9,27.7-67.9L69.2,992C57.2,989.2,50.2,954.1,53.5,913.7z"/>
	<path class="st1" d="M104.8,866.4c-4.4,40.3,1.7,75.6,13.5,78.8s25.1-26.9,29.5-67.2s-13.5-78.8-13.5-78.8S109.2,826.1,104.8,866.4
		L104.8,866.4z"/>
	<path class="st2" d="M104.8,866.4c4.4-40.3,29.4-67.2,29.4-67.2l-15.9,146C106.5,942,100.4,906.7,104.8,866.4z"/>
	<path class="st1" d="M164.2,832.3c-10.5,39.2-9.9,75,1.4,79.9s28.9-22.7,39.4-61.9s-1.4-79.9-1.4-79.9S174.7,793.1,164.2,832.3z"/>
	<path class="st2" d="M164.2,832.3c10.5-39.2,39.3-61.9,39.3-61.9l-37.9,141.8C154.4,907.2,153.8,871.5,164.2,832.3L164.2,832.3z"/>
	<path class="st1" d="M234,823.7c-22.2,31-32.5,61.9-23,69s35.2-12.4,57.5-43.5s23-69,23-69S256.2,792.7,234,823.7L234,823.7z"/>
	<path class="st2" d="M234,823.7c22.2-31,57.5-43.5,57.5-43.5L211,892.7C201.5,885.6,211.8,854.8,234,823.7L234,823.7z"/>
	<path class="st1" d="M304.3,828.6c-28.2,21.2-45.9,45.5-39.4,54.2s34.6-1.2,62.8-22.4s39.4-54.2,39.4-54.2S332.5,807.4,304.3,828.6
		z"/>
	<path class="st2" d="M304.3,828.6c28.2-21.2,62.8-22.4,62.8-22.4l-102.2,76.6C258.4,874.1,276.1,849.8,304.3,828.6z"/>
	<path class="st1" d="M378.2,846.5c-33.7,10.5-58.4,27.5-55.3,38s33,10.4,66.6-0.2s55.3-38,55.3-38S411.8,835.9,378.2,846.5z"/>
	<path class="st2" d="M378.2,846.5c33.7-10.5,66.6-0.2,66.6-0.2l-121.9,38.2C319.8,874,344.5,857,378.2,846.5z"/>
	<path class="st1" d="M435.8,906.7c-28.1-10.7-53.6-12.4-57-3.8s16.6,24.4,44.7,35.1s54.9,6.5,54.9,6.5S463.9,917.4,435.8,906.7z"/>
	<path class="st2" d="M435.8,906.7c28.1,10.7,42.6,37.9,42.6,37.9l-99.6-41.6C382.2,894.2,407.7,895.9,435.8,906.7z"/>
	<path class="st1" d="M255.1,957.4c-38.6-12.3-68.4-32.2-66.5-44.3s34.7-12,73.4,0.3s66.5,44.3,66.5,44.3S293.7,969.7,255.1,957.4
		L255.1,957.4z"/>
	<path class="st2" d="M255.1,957.4c38.6,12.3,73.3,0.3,73.3,0.3l-139.9-44.6C186.7,925.2,216.4,945,255.1,957.4L255.1,957.4z"/>
	<path class="st1" d="M341.7,946.6c-33.7-19.7-57.6-44.8-53.4-55.9s35-4.2,68.8,15.5s53.4,55.9,53.4,55.9S375.4,966.4,341.7,946.6z"
		/>
	<path class="st2" d="M341.7,946.6c33.7,19.7,68.8,15.5,68.8,15.5l-122.2-71.4C284,901.9,307.9,926.9,341.7,946.6L341.7,946.6z"/>
	<path class="st1" d="M-39.2,1104.4c5.4-10.2,11.3-20.1,17.8-29.8c6.4-9.6,13.1-19.1,20.2-28.3c14.2-18.4,29.5-35.9,46-52.3
		c4.1-4.1,8.3-8.1,12.6-12.1c2.1-2,4.3-3.9,6.5-5.9s4.4-3.9,6.6-5.8c8.8-7.7,18-14.9,27.4-21.9s19.2-13.5,29.3-19.6s20.4-11.8,31-17
		s21.6-9.7,32.7-13.8l8.4-2.9l8.5-2.6c2.8-0.9,5.7-1.6,8.6-2.4c1.4-0.4,2.9-0.8,4.3-1.1l4.3-1c11.6-2.7,23.3-4.7,35.2-5.8
		c11.8-1.2,23.7-1.6,35.5-1.1l2.2,0.1l2.2,0.1l4.4,0.3l4.4,0.3c1.5,0.1,2.9,0.3,4.4,0.5c2.9,0.4,5.9,0.6,8.8,1.1l8.7,1.4l2.2,0.4
		l2.2,0.5l4.3,0.9l4.3,0.9c1.4,0.3,2.9,0.7,4.3,1.1l8.5,2.2l8.4,2.6c1.4,0.5,2.8,0.9,4.2,1.4l4.1,1.5l4.1,1.5c1.4,0.5,2.8,1,4.1,1.6
		c5.4,2.3,10.8,4.4,16,7.1c10.5,5,20.6,10.6,30.3,16.9c-2.7-1-5.4-2-8.1-3l-4-1.5c-1.3-0.5-2.7-0.9-4.1-1.4l-8.1-2.8
		c-2.7-0.9-5.5-1.7-8.2-2.6c-5.4-1.8-10.9-3.2-16.4-4.7c-2.7-0.7-5.5-1.3-8.3-2l-4.1-1c-1.4-0.3-2.8-0.5-4.2-0.8l-8.3-1.6l-8.4-1.3
		c-1.4-0.2-2.8-0.5-4.2-0.6l-4.2-0.5l-4.2-0.5l-2.1-0.2l-2.1-0.2c-11.1-0.9-22.3-1.3-33.4-0.9c-22.2,0.7-44.3,4-65.7,9.8
		c-10.7,2.8-21.3,6.2-31.7,10.2c-10.4,3.9-20.6,8.4-30.6,13.3c-10.1,4.8-19.9,10.2-29.5,15.9s-19.1,11.7-28.4,18s-18.3,13.1-27.2,20
		c-2.2,1.7-4.5,3.5-6.6,5.2s-4.4,3.5-6.6,5.3c-4.4,3.6-8.7,7.2-13,10.9c-17.2,14.8-33.6,30.5-49.5,46.9S-24.5,1086.5-39.2,1104.4
		L-39.2,1104.4z"/>
	<path class="st1" d="M-7.3,45.9c-6-31.4-3.4-59.6,5.7-62.8s21.4,19.6,27.4,51s-5.7,62.8-5.7,62.8S-1.3,77.4-7.3,45.9z"/>
	<path class="st2" d="M-7.3,45.9c6,31.4,27.4,51,27.4,51L-1.6-16.9C-10.8-13.7-13.3,14.5-7.3,45.9z"/>
	<path class="st1" d="M30.6,73.9c-4.6-31.7-0.7-59.7,8.6-62.5s20.5,20.5,25,52.2s-8.6,62.5-8.6,62.5S35.1,105.6,30.6,73.9z"/>
	<path class="st2" d="M30.6,73.9c4.6,31.7,25,52.2,25,52.2L39.1,11.4C29.8,14.2,26,42.2,30.6,73.9z"/>
	<path class="st1" d="M99.5-27.2C68.6-18.7,44.5-4,45.6,5.7s27,10.6,57.9,2s53.9-32.9,53.9-32.9S130.3-35.7,99.5-27.2z"/>
	<path class="st2" d="M99.5-27.2c30.8-8.5,57.9,2,57.9,2L45.6,5.7C44.5-4,68.6-18.7,99.5-27.2z"/>
	<path class="st1" d="M141.8,6.5C110,10.2,83.9,21.1,83.6,30.8s25.1,14.5,56.9,10.8s58.2-24.3,58.2-24.3S173.6,2.8,141.8,6.5z"/>
	<path class="st2" d="M141.8,6.5c31.8-3.7,56.9,10.8,56.9,10.8L83.6,30.8C83.9,21.1,110,10.2,141.8,6.5z"/>
	<path class="st1" d="M168.4,55.2c-29.2-7.3-54.9-5.8-57.3,3.2s19.4,22.2,48.6,29.5s57.3-3.2,57.3-3.2S197.7,62.4,168.4,55.2z"/>
	<path class="st2" d="M168.4,55.2c29.2,7.3,48.6,29.5,48.6,29.5L111.1,58.3C113.5,49.3,139.2,47.9,168.4,55.2z"/>
	<path class="st1" d="M185.3,108.2c-23.7-14.6-46.7-20.4-51.3-13.1s11,25,34.7,39.5s51.3,13.1,51.3,13.1S209,122.8,185.3,108.2
		L185.3,108.2z"/>
	<path class="st2" d="M185.3,108.2c23.7,14.6,34.7,39.6,34.7,39.6l-86-52.7C138.6,87.8,161.6,93.7,185.3,108.2L185.3,108.2z"/>
	<path class="st1" d="M193.7,167.6c-17.5-21.6-37.2-34.8-44-29.5s2,27.2,19.5,48.9s44,29.5,44,29.5S211.2,189.2,193.7,167.6z"/>
	<path class="st2" d="M193.7,167.6c17.5,21.6,19.5,48.9,19.5,48.9l-63.5-78.3C156.5,132.8,176.1,146,193.7,167.6z"/>
	<path class="st1" d="M166.3,227.4c-0.3-23.7-6.5-43-13.9-43s-13,19.3-12.7,43c0.4,14.8,4.2,29.2,11.2,42.2
		C150.9,269.6,166.6,251.1,166.3,227.4L166.3,227.4z"/>
	<path class="st2" d="M166.3,227.4c0.3,23.7-15.4,42.3-15.4,42.3l1.5-85.2C159.8,184.4,166,203.7,166.3,227.4L166.3,227.4z"/>
	<path class="st1" d="M76.5,109.6C74.3,77.6,80.2,50,89.6,47.8s18.9,22,21.1,53.9s-13.1,61.7-13.1,61.7S78.7,141.5,76.5,109.6z"/>
	<path class="st2" d="M76.5,109.6c2.2,31.9,21.1,53.9,21.1,53.9l-8-115.6C80.2,50,74.3,77.6,76.5,109.6z"/>
	<path class="st1" d="M109.6,170c4.7-30.5,16-55.3,25.5-55.4s13.3,24.5,8.6,55S118.2,225,118.2,225S104.9,200.5,109.6,170z"/>
	<path class="st2" d="M109.6,170c-4.7,30.5,8.6,55,8.6,55L135,114.5C125.6,114.7,114.2,139.5,109.6,170z"/>
	<path class="st1" d="M-117-63.5c9.1,1,18.1,2.5,27,4.4c8.9,1.9,17.8,4.1,26.6,6.6c17.6,5,34.9,11.2,51.8,18.5
		c8.4,3.7,16.8,7.6,24.9,11.9s16.2,8.9,24.1,13.8S52.8,1.8,60.3,7.4s14.6,11.5,21.5,17.8s13.4,13,19.7,20l4.6,5.3l4.4,5.5
		c1.5,1.8,2.8,3.7,4.3,5.6c0.7,0.9,1.4,1.9,2.1,2.8l2,2.9c5.4,7.7,10.2,15.7,14.5,24.1c4.3,8.3,8,16.9,11.1,25.8l0.6,1.6l0.5,1.7
		l1.1,3.3l1,3.3c0.3,1.1,0.6,2.2,0.9,3.4c0.6,2.3,1.2,4.5,1.8,6.8l1.5,6.8c0.3,1.1,0.5,2.3,0.7,3.4l0.6,3.4c0.4,2.3,0.8,4.6,1,6.9
		l0.8,6.9l0.5,6.9c0.1,1.1,0.2,2.3,0.2,3.5l0.1,3.5c0,2.3,0.2,4.6,0.1,6.9c-0.1,4.6-0.1,9.2-0.5,13.8c-0.6,9.1-1.8,18.2-3.6,27.2
		c-0.2-18.2-1.3-36.2-4.6-53.8l-1.1-6.6l-1.5-6.5c-0.3-1.1-0.5-2.2-0.8-3.2l-0.9-3.2l-0.9-3.2c-0.3-1.1-0.6-2.1-0.9-3.2
		c-2.5-8.4-5.6-16.7-9.1-24.8c-7-16.1-15.8-31.3-26.3-45.4c-5.2-7.1-10.8-13.8-16.7-20.3c-5.9-6.5-12.1-12.7-18.6-18.6
		c-6.5-6-13.3-11.6-20.2-17S36,10,28.6,5.1S13.7-4.6,6.1-9.1s-15.5-8.9-23.4-13c-15.9-8.3-32.2-15.8-48.8-22.7S-99.7-58-117-63.5z"
		/>
</g>
</svg>
