<svg xmlns="http://www.w3.org/2000/svg" viewBox="0 0 920 667"><title>about-me-header-crop</title><path fill="#5245db" d="M-22.14-5.66H930v674.21H-22.14z" data-name="bg"/><g data-name="behind leaf"><path d="M810.7 664.91c30.87-8.35 55-22.93 54-32.57s-26.94-10.69-57.81-2.35-54 32.57-54 32.57 26.94 10.69 57.81 2.35z" fill="#4fc6b7" data-name="&lt;Group&gt;"/><path d="M810.7 664.91c-30.87 8.35-57.81-2.35-57.81-2.35l111.8-30.22c1.05 9.66-23.12 24.22-53.99 32.57z" data-name="&lt;Group&gt;" opacity=".13"/><path d="M772.68 636.63c30.87-8.35 55-22.93 54-32.57s-26.94-10.69-57.81-2.35-54 32.57-54 32.57 26.93 10.72 57.81 2.35z" fill="#4fc6b7" data-name="&lt;Group&gt;"/><path d="M772.68 636.63c-30.87 8.35-57.81-2.35-57.81-2.35l111.8-30.22c1.05 9.65-23.12 24.23-53.99 32.57z" data-name="&lt;Group&gt;" opacity=".13"/><path d="M731 614.81c30.46-9.74 53.94-25.41 52.45-35s-27.4-9.45-57.86.29-52.45 35-52.45 35 27.38 9.46 57.86-.29z" fill="#4fc6b7" data-name="&lt;Group&gt;"/><path d="M731 614.81c-30.46 9.74-57.86.29-57.86.29l110.3-35.28c1.48 9.58-22 25.25-52.44 34.99z" data-name="&lt;Group&gt;" opacity=".13"/><path d="M876.18 566c5 31.59 1.54 59.61-7.69 62.58s-20.76-20.22-25.74-51.81 7.69-62.58 7.69-62.58 20.76 20.27 25.74 51.81z" fill="#4fc6b7" data-name="&lt;Group&gt;"/><path d="M876.18 566c-5-31.59-25.74-51.81-25.74-51.81l18.05 114.39c9.24-2.93 12.68-30.94 7.69-62.58z" data-name="&lt;Group&gt;" opacity=".13"/><path d="M834.85 542.88c5 31.59 1.54 59.61-7.69 62.58s-20.76-20.22-25.74-51.81 7.69-62.58 7.69-62.58 20.76 20.22 25.74 51.81z" fill="#4fc6b7" data-name="&lt;Group&gt;"/><path d="M834.85 542.88c-5-31.59-25.74-51.81-25.74-51.81l18.05 114.39c9.23-2.97 12.68-30.99 7.69-62.58z" data-name="&lt;Group&gt;" opacity=".13"/><path d="M791.73 508.72c5.82 31.45 3.13 59.55-6 62.76s-21.29-19.67-27.11-51.11 6-62.76 6-62.76 21.29 19.66 27.11 51.11z" fill="#4fc6b7" data-name="&lt;Group&gt;"/><path d="M791.73 508.72c-5.82-31.45-27.11-51.11-27.11-51.11l21.09 113.87c9.15-3.22 11.85-31.32 6.02-62.76z" data-name="&lt;Group&gt;" opacity=".13"/><path d="M743 485.39c10.54 30.19 12.15 58.38 3.6 62.95s-24-16.2-34.58-46.39-3.6-62.95-3.6-62.95 24.03 16.2 34.58 46.39z" fill="#4fc6b7" data-name="&lt;Group&gt;"/><path d="M743 485.39c-10.55-30.2-34.59-46.39-34.59-46.39l38.18 109.34c8.56-4.58 6.94-32.76-3.59-62.95z" data-name="&lt;Group&gt;" opacity=".13"/><path d="M687.61 482.73c19.31 23.12 29.24 46.8 22.18 52.89s-28.43-7.71-47.74-30.83-22.18-52.89-22.18-52.89 28.43 7.71 47.74 30.83z" fill="#4fc6b7" data-name="&lt;Group&gt;"/><path d="M687.61 482.73c-19.31-23.12-47.74-30.83-47.74-30.83l69.92 83.72c7.06-6.09-2.87-29.77-22.18-52.89z" data-name="&lt;Group&gt;" opacity=".13"/><path d="M632.58 490.72c23.44 15 38.76 33.06 34.2 40.36s-27.25 1.07-50.7-13.92-34.2-40.36-34.2-40.36 27.25-1.06 50.7 13.92z" fill="#4fc6b7" data-name="&lt;Group&gt;"/><path d="M632.58 490.72c-23.44-15-50.7-13.92-50.7-13.92l84.9 54.28c4.56-7.3-10.78-25.37-34.2-40.36z" data-name="&lt;Group&gt;" opacity=".13"/><path d="M575.54 509.11c27.1 6.31 47.56 18.24 45.7 26.64s-25.34 10.09-52.44 3.78-45.7-26.64-45.7-26.64 25.34-10.09 52.44-3.78z" fill="#4fc6b7" data-name="&lt;Group&gt;"/><path d="M575.54 509.11c-27.1-6.31-52.44 3.78-52.44 3.78l98.14 22.86c1.86-8.4-18.6-20.32-45.7-26.64z" data-name="&lt;Group&gt;" opacity=".13"/><path d="M533.74 559.83c21.47-10.09 41.46-12.91 44.65-6.31s-11.62 20.14-33.09 30.23a94.13 94.13 0 0 1-42.83 8.38s9.8-22.21 31.27-32.3z" fill="#4fc6b7" data-name="&lt;Group&gt;"/><path d="M533.74 559.83c-21.47 10.09-31.27 32.29-31.27 32.29l75.92-38.6c-3.19-6.6-23.18-3.78-44.65 6.31z" data-name="&lt;Group&gt;" opacity=".13"/><path d="M678.88 589.11c29.66-12 51.93-29.31 49.74-38.75s-28-7.42-57.68 4.54-49.74 38.75-49.74 38.75 28.02 7.41 57.68-4.54z" fill="#4fc6b7" data-name="&lt;Group&gt;"/><path d="M678.88 589.11c-29.66 12-57.68 4.54-57.68 4.54l107.41-43.29c2.2 9.44-20.07 26.79-49.73 38.75z" data-name="&lt;Group&gt;" opacity=".13"/><path d="M610.13 585.75c25.38-17.5 42.71-38.59 38.72-47.1s-27.8-1.23-53.18 16.27S557 602 557 602s27.76 1.25 53.13-16.25z" fill="#4fc6b7" data-name="&lt;Group&gt;"/><path d="M610.13 585.75C584.76 603.25 557 602 557 602l91.9-63.37c3.94 8.53-13.39 29.62-38.77 47.12z" data-name="&lt;Group&gt;" opacity=".13"/><path d="M919 687.44c-12.56-13.15-25.65-25.6-39.11-37.55s-27.33-23.33-41.68-34q-10.75-8-21.87-15.38c-7.43-4.89-14.93-9.65-22.6-14.09s-15.44-8.67-23.38-12.53-15.94-7.56-24.14-10.74-16.47-6.13-24.88-8.6a240.38 240.38 0 0 0-25.52-6.15 228.34 228.34 0 0 0-52.26-3.81 230.87 230.87 0 0 0-26.25 2.7c-1.1.14-2.18.34-3.26.56l-3.26.62-3.26.62c-1.09.2-2.16.49-3.24.72l-6.49 1.48-6.43 1.76c-17.19 4.71-33.86 11.59-50.31 19.39a212.37 212.37 0 0 1 22.83-15.1c3.93-2.38 8.06-4.37 12.15-6.5 2.05-1 4.17-1.93 6.27-2.9l3.15-1.43c1-.48 2.13-.88 3.2-1.32l6.45-2.55 6.56-2.27c2.18-.8 4.41-1.43 6.64-2.07l3.35-1c1.11-.34 2.23-.65 3.37-.91l6.79-1.64c2.27-.51 4.57-.9 6.85-1.35 1.15-.21 2.29-.46 3.44-.64l3.46-.52 3.47-.51 1.74-.24 1.74-.17a200.74 200.74 0 0 1 28-1.23 206.8 206.8 0 0 1 28 2.48l3.47.52c1.16.18 2.3.43 3.45.65 2.29.46 4.61.84 6.88 1.38l6.84 1.57 6.78 1.79c9 2.55 17.84 5.55 26.52 8.95s17.11 7.35 25.39 11.56 16.34 8.8 24.17 13.73 15.48 10.11 22.87 15.62 14.61 11.23 21.6 17.2a415 415 0 0 1 39.2 38.46q9.13 10.23 17.54 21A267.07 267.07 0 0 1 919 687.44z" fill="#4fc6b7" data-name="oqeQgB.tif"/><path d="M898.15 55.68c18.94-19.35 30.32-40.37 25.41-46.95s-24.25 3.76-43.19 23.11S855 78.79 855 78.79s24.2-3.79 43.15-23.11z" fill="#4fc6b7" data-name="&lt;Group&gt;"/><path d="M898.15 55.68C879.2 75 855 78.79 855 78.79l68.6-70.06c4.87 6.58-6.51 27.6-25.45 46.95z" data-name="&lt;Group&gt;" opacity=".13"/><path d="M858.26 51.38C877.21 32 888.58 11 883.67 4.43s-24.25 3.76-43.19 23.11-25.41 46.95-25.41 46.95 24.25-3.77 43.19-23.11z" fill="#4fc6b7" data-name="&lt;Group&gt;"/><path d="M858.26 51.38c-18.94 19.35-43.19 23.11-43.19 23.11l68.6-70.06c4.91 6.57-6.46 27.57-25.41 46.95z" data-name="&lt;Group&gt;" opacity=".13"/><path d="M818.46 53.36c18-20.19 28.45-41.71 23.25-48.06s-24.05 4.86-42.09 25.05-23.25 48.06-23.25 48.06 24.05-4.86 42.09-25.05z" fill="#4fc6b7" data-name="&lt;Group&gt;"/><path d="M818.46 53.36c-18 20.19-42.09 25.05-42.09 25.05L841.71 5.3c5.2 6.35-5.2 27.87-23.25 48.06z" data-name="&lt;Group&gt;" opacity=".13"/><path d="M903.49-44.58c17.2 20.91 26.72 42.84 21.26 49s-23.83-5.84-41-26.76-21.26-49-21.26-49 23.79 5.85 41 26.76z" fill="#4fc6b7" data-name="&lt;Group&gt;"/><path d="M903.49-44.58c-17.2-20.91-41-26.76-41-26.76l62.26 75.73c5.46-6.14-4.06-28.06-21.26-48.97z" data-name="&lt;Group&gt;" opacity=".13"/><path d="M863.38-43.74c17.2 20.91 26.72 42.84 21.26 49s-23.83-5.84-41-26.76-21.26-49-21.26-49 23.79 5.85 41 26.76z" fill="#4fc6b7" data-name="&lt;Group&gt;"/><path d="M863.38-43.74c-17.2-20.91-41-26.76-41-26.76l62.26 75.73c5.46-6.13-4.06-28.06-21.26-48.97z" data-name="&lt;Group&gt;" opacity=".13"/><path d="M771.65-46.25c20.66 17.51 33.94 37.38 29.66 44.39s-24.49-1.5-45.15-19-29.66-44.39-29.66-44.39 24.5 1.5 45.15 19zM730.1-24.41c24 8.58 41.43 21.59 38.89 29.07s-24.06 6.58-48.08-2S682-26.4 682-26.4s24.08-6.6 48.1 1.99z" fill="#4fc6b7" data-name="&lt;Group&gt;"/><path d="M730.1-24.41c-24-8.58-48.08-2-48.08-2L769 4.66c2.53-7.47-14.89-20.49-38.9-29.07z" data-name="&lt;Group&gt;" opacity=".13"/><path d="M693.37 5.06c23.54.87 42.48 7.48 42.29 14.76s-19.43 12.48-43 11.61-42.26-14.76-42.26-14.76 19.43-12.48 42.97-11.61z" fill="#4fc6b7" data-name="&lt;Group&gt;"/><path d="M693.37 5.06c-23.54-.87-43 11.61-43 11.61l85.26 3.15c.22-7.28-18.71-13.89-42.26-14.76z" data-name="&lt;Group&gt;" opacity=".13"/><path d="M659.64 43c22.49-7 42.54-7.11 44.79-.18S690.28 61 667.79 68.07s-44.79.18-44.79.18S637.16 50 659.64 43z" fill="#4fc6b7" data-name="&lt;Group&gt;"/><path d="M659.64 43C637.16 50 623 68.25 623 68.25l81.43-25.46c-2.25-6.93-22.3-6.85-44.79.21z" data-name="&lt;Group&gt;" opacity=".13"/><path d="M650.92 97.93c11.33-16.58 24.71-27.23 29.87-23.78s.16 19.69-11.17 36.27a79.7 79.7 0 0 1-27.62 24.5s-2.41-20.41 8.92-36.99z" fill="#4fc6b7" data-name="&lt;Group&gt;"/><path d="M650.92 97.93c-11.33 16.58-9 37-9 37l38.88-60.78c-5.17-3.45-18.54 7.2-29.88 23.78z" data-name="&lt;Group&gt;" opacity=".13"/><path d="M769.41 57c16.51-21.46 25.31-43.68 19.65-49.64S765.43 14 748.92 35.41 729.27 85 729.27 85s23.63-6.57 40.14-28z" fill="#4fc6b7" data-name="&lt;Group&gt;"/><path d="M769.41 57c-16.51 21.43-40.14 28-40.14 28l59.79-77.67c5.66 5.95-3.14 28.18-19.65 49.67z" data-name="&lt;Group&gt;" opacity=".13"/><path d="M717.8 84c11-23.67 14.6-46.5 8-51S705 44.08 694 67.75s-8 51-8 51 20.79-11.04 31.8-34.75z" fill="#4fc6b7" data-name="&lt;Group&gt;"/><path d="M717.8 84c-11 23.67-31.82 34.71-31.82 34.71L725.83 33c6.57 4.54 2.97 27.38-8.03 51z" data-name="&lt;Group&gt;" opacity=".13"/><path d="M986.83 25.64C972 21.43 957.12 18 942.16 15s-30-5.29-45-6.88a409.87 409.87 0 0 0-45.11-2.41c-7.5.06-15 .31-22.44.9S814.73 8 807.38 9.16C778 13.7 749.45 23.46 724.5 39.7a195.44 195.44 0 0 0-18 13.24c-1.48 1.15-2.83 2.44-4.25 3.66s-2.82 2.47-4.17 3.77L694 64.24l-3.94 4c-10.53 10.81-19.74 23-28.39 35.75q1.13-2.66 2.31-5.3c.78-1.77 1.55-3.54 2.43-5.26L669 88.3c.89-1.72 1.88-3.38 2.82-5.08 1.83-3.43 4-6.65 6.07-10 1-1.65 2.22-3.2 3.33-4.81s2.24-3.2 3.46-4.73l3.61-4.63 3.81-4.48c1.25-1.52 2.61-2.94 4-4.36s2.66-2.9 4.09-4.25l4.25-4.11c1.44-1.34 2.95-2.62 4.42-3.93.75-.65 1.47-1.32 2.23-1.95l2.3-1.86c1.55-1.23 3.05-2.52 4.67-3.66A169.93 169.93 0 0 1 738 17.54a175.1 175.1 0 0 1 21.48-10.2A200 200 0 0 1 782-.13q11.48-3 23.19-4.86c7.8-1.2 15.64-2 23.49-2.47s15.7-.6 23.53-.36A318.23 318.23 0 0 1 898.75-3a351.34 351.34 0 0 1 45.16 11.25c7.37 2.37 14.66 5 21.83 7.84 3.58 1.45 7.14 2.94 10.67 4.5s7.02 3.22 10.42 5.05z" fill="#4fc6b7" data-name="oqeQgB.tif"/><path d="M887.64 578.15c17.47 10.81 34.91 15.75 39 11s-6.84-17.3-24.3-28.15-39-11-39-11a64.62 64.62 0 0 0 24.3 28.15z" fill="#4fc6b7" data-name="&lt;Group&gt;"/><path d="M887.64 578.15A64.62 64.62 0 0 1 863.36 550l63.25 39.16c-4.06 4.74-21.51-.16-38.97-11.01z" data-name="&lt;Group&gt;" opacity=".13"/><path d="M884.21 547.91c17.47 10.81 34.91 15.75 39 11s-6.81-17.33-24.28-28.14-39-11-39-11a64.62 64.62 0 0 0 24.28 28.14z" fill="#4fc6b7" data-name="&lt;Group&gt;"/><path d="M884.21 547.91a64.62 64.62 0 0 1-24.28-28.14l63.25 39.16c-4.06 4.73-21.51-.21-38.97-11.02z" data-name="&lt;Group&gt;" opacity=".13"/><path d="M876.14 518.77c17.94 10 35.6 14.14 39.44 9.24S908 511 890 501s-39.44-9.24-39.44-9.24a64.62 64.62 0 0 0 25.58 27.01z" fill="#4fc6b7" data-name="&lt;Group&gt;"/><path d="M876.14 518.77a64.62 64.62 0 0 1-25.53-27l65 36.24c-3.88 4.91-21.53.77-39.47-9.24z" data-name="&lt;Group&gt;" opacity=".13"/><path d="M952.56 500.69c-12.19 16.53-26.55 27.61-32.08 24.73s-.12-18.62 12.07-35.15 32.08-24.73 32.08-24.73a64.62 64.62 0 0 1-12.07 35.15zm-10.45-33.1c-9.53 18.2-22 31.33-27.94 29.32s-3-18.38 6.58-36.58S948.68 431 948.68 431a64.62 64.62 0 0 1-6.57 36.59z" fill="#4fc6b7" data-name="&lt;Group&gt;"/><path d="M942.11 467.59a64.62 64.62 0 0 0 6.57-36.59l-34.52 65.9c5.91 2.02 18.42-11.11 27.95-29.31z" data-name="&lt;Group&gt;" opacity=".13"/><path d="M919 440.45c-2.37 19.2-9.11 34.25-15.07 33.62s-8.86-16.72-6.5-35.92 15.07-33.62 15.07-33.62 8.91 16.72 6.5 35.92z" fill="#4fc6b7" data-name="&lt;Group&gt;"/><path d="M919 440.45c2.37-19.2-6.5-35.92-6.5-35.92l-8.5 69.54c5.93.64 12.68-14.41 15-33.62z" data-name="&lt;Group&gt;" opacity=".13"/><path d="M891.14 418.15c3.26 17.57 1.51 32.69-3.91 33.76S874.76 439.59 871.5 422s3.91-33.76 3.91-33.76 12.46 12.34 15.73 29.91z" fill="#4fc6b7" data-name="&lt;Group&gt;"/><path d="M891.14 418.15c-3.26-17.57-15.73-29.89-15.73-29.89l11.81 63.64c5.43-1.06 7.18-16.17 3.92-33.75z" data-name="&lt;Group&gt;" opacity=".13"/><path d="M857.47 399.47c8.94 15.53 12.33 30.32 7.53 33.13s-15.86-7.45-24.79-22.93-7.57-33.13-7.57-33.13 15.9 7.46 24.83 22.93z" fill="#4fc6b7" data-name="&lt;Group&gt;"/><path d="M857.47 399.47c-8.94-15.48-24.79-22.93-24.79-22.93L865 432.6c4.8-2.81 1.41-17.6-7.53-33.13z" data-name="&lt;Group&gt;" opacity=".13"/><path d="M815.34 402.14c14.16 5.64 24.26 13.77 22.56 18.17s-14.55 3.39-28.7-2.25a60.47 60.47 0 0 1-22.73-16.41s14.71-5.15 28.87.49z" fill="#4fc6b7" data-name="&lt;Group&gt;"/><path d="M815.34 402.14c-14.16-5.64-28.87-.49-28.87-.49l51.43 18.66c1.7-4.4-8.4-12.53-22.56-18.17z" data-name="&lt;Group&gt;" opacity=".13"/><path d="M865.32 483.06c18.63 8.66 36.54 11.49 40 6.31s-8.82-16.39-27.45-25.06-40-6.31-40-6.31a64.62 64.62 0 0 0 27.45 25.06z" fill="#4fc6b7" data-name="&lt;Group&gt;"/><path d="M865.32 483.06A64.62 64.62 0 0 1 837.88 458l67.46 31.37c-3.48 5.18-21.34 2.35-40.02-6.31z" data-name="&lt;Group&gt;" opacity=".13"/><path d="M836.72 449.34c19.35 4.22 36.85 3.09 39.09-2.52s-11.63-13.58-31-17.8-39.09 2.52-39.09 2.52a61.49 61.49 0 0 0 31 17.8z" fill="#4fc6b7" data-name="&lt;Group&gt;"/><path d="M836.72 449.34a61.49 61.49 0 0 1-31-17.8l70.06 15.28c-2.22 5.61-19.72 6.74-39.06 2.52z" data-name="&lt;Group&gt;" opacity=".13"/><path d="M924.59 638.81q.95-17.5.45-34.83c-.32-11.55-1.06-23.06-2.37-34.46-2.6-22.78-7.39-45.24-15.65-66.3s-20.2-40.52-36.36-56.29a148.28 148.28 0 0 0-12.79-11.12c-1.1-.91-2.28-1.69-3.41-2.54s-2.29-1.68-3.48-2.46l-3.54-2.39-3.65-2.25c-1.2-.78-2.45-1.49-3.69-2.19s-2.48-1.45-3.75-2.11c-2.56-1.31-5.1-2.67-7.72-3.88-1.31-.61-2.6-1.28-3.93-1.85l-4-1.72c-2.65-1.22-5.39-2.16-8.09-3.32q2.15.39 4.31.83c1.44.28 2.88.56 4.3.93l4.27 1.09c1.42.37 2.82.83 4.23 1.24a135.9 135.9 0 0 1 16.57 6.28A129.67 129.67 0 0 1 862 430l3.75 2.46c1.23.84 2.43 1.75 3.64 2.62s2.4 1.79 3.57 2.73 2.37 1.84 3.48 2.85a128.93 128.93 0 0 1 12.88 12.6 132.87 132.87 0 0 1 11.12 14.21 151.8 151.8 0 0 1 9.27 15.46q4.13 8 7.45 16.36A201.11 201.11 0 0 1 927 533.6a241.43 241.43 0 0 1 4.13 35.26 265.78 265.78 0 0 1-.81 35.29 216.23 216.23 0 0 1-5.73 34.66z" fill="#4fc6b7" data-name="oqeQgB.tif"/></g><g data-name="Layer 1"><g data-name="happy crop"><path d="M-53.26 595.53c-4-14.94-46.52-150.12 56.06-231.35 0 0 27.3-25.5 73.48-26.62 21.86-.53 44.42 8.15 60.49 22.85 12.23 11.19 20.65 25.82 25.81 41.47a150.89 150.89 0 0 1 6.57 32.4c5.05 51.21-12.46 109.9-39.2 153.62a140.82 140.82 0 0 1-12.14 17.1c-2.06 2.46-7.06 9.37-14.73 12.71-4.86 2.12-175 18.82-175 18.82-.76-.02 18.86-40.28 18.66-41z" fill="#1c1c1c" stroke="#000" stroke-miterlimit="10" stroke-width="1.69"/><path d="M-81 659.84a1.68 1.68 0 0 1-1.16-2C-79.88 647.43-39.83 540.43 2.1 544c0 0 2 .52 2.53-2.94l1.83-7.51s2.69-7.89 8.59-5c0 0 1 .1 2 1.67 0 0 18 21.06 49.59 12.35l-.83-2.6s5.84-2.66 8.67 2.6c0 0 3.06 6.32 1.34 16.8 0 0 17.3 6.12 23.55 21.51 0 0 24 74.28 4 114.46a1.77 1.77 0 0 1-2.07 1z" fill="#4c4c4c" stroke="#000" stroke-miterlimit="10" stroke-width="1.69"/><path d="M100.14 570.37c-7.23 14.39-24.23 43.57-41.75 54.21 0 0 40.09 7.9 57.66-17.53" fill="#1c1c1c" stroke="#000" stroke-miterlimit="10" stroke-width="1.69"/><path d="M20.77 522.11s-1.78 5.94-3.53 7.7c0 0 15.56 20.2 49.44 12.85 0 0-1.11-5.44-.79-8.54 0 0-26.53 1.26-45.12-12.01z" fill="#f8e6d3" stroke="#000" stroke-miterlimit="10" stroke-width="1.69"/><path d="M-16.94 434.55s-21.27 62.25 36.87 89.64c9.5 4.47 21.11 8 35.28 10.21 0 0 74.42 14.54 90.17-63.92 0 0-21.53-6.46-26.65-28.52l-.38 11S97.81 440 94 387.58c0 0-20.5 37.07-54.93 46.21 0 0 4-9.27 4.17-13.9 0 0-19.58 12.46-35.33 14.12l3.09-8.62s-15.46 8.61-27.94 9.16z" fill="#f8e6d3" stroke="#000" stroke-miterlimit="10" stroke-width="1.69"/><path fill="#fff" stroke="#000" stroke-linecap="round" stroke-miterlimit="10" stroke-width="3.37" d="M6.4 443.23l21.5 2.63m68.8 13.66l21.44 3.09"/><ellipse cx="15.83" cy="461.37" rx="7.31" ry="14.28" transform="rotate(-81.98 15.83 461.375)" fill="#fff" stroke="#000" stroke-miterlimit="10" stroke-width="1.69"/><circle cx="16.07" cy="461.4" r="6.49" transform="rotate(-73.31 16.04 461.38)"/><ellipse cx="103.78" cy="478.02" rx="7.31" ry="14.28" transform="rotate(-82 103.905 478.18)" fill="#fff" stroke="#000" stroke-miterlimit="10" stroke-width="1.69"/><circle cx="104.34" cy="478.09" r="6.56" transform="rotate(-73.31 104.31 478.073)"/><path fill="none" stroke="#000" stroke-linecap="round" stroke-miterlimit="10" stroke-width="2.53" d="M58.55 480.92l-2.53 8.44 4.28 1.28"/><path fill="none" stroke="#000" stroke-linecap="round" stroke-miterlimit="10" stroke-width="3.37" d="M46.43 512.71l11.38.85"/><path d="M102 305.09s-16.83 10.3-19.24 35c0 0 .54-11.27-7.35-13.21" fill="none" stroke="#000" stroke-linecap="round" stroke-miterlimit="10" stroke-width="2.53"/><path d="M104.74 299.81s-7.37-14.24 1-18.7c0 0 9.3-1 .85 19.24zm3.93.6s5.34-15.12 14.28-12.11c0 0 7.09 6.11-13.44 13.79zm-.45 3.43S124 301 125.79 310.3c0 0-1.82 9.18-18.62-4.9zm-2.04.93s6 14.89-2.76 18.52c0 0-9.36.08 1-19.23zm-2.79-1.35s-15.27 4.89-18.27-4.06c0 0 .58-9.34 19.11 2.37z" fill="#fff" stroke="#231f20" stroke-linecap="round" stroke-miterlimit="10" stroke-width="1.69"/><circle cx="106.19" cy="302.85" r="3.35" transform="rotate(-73.31 106.17 302.836)" fill="#f8daa4" stroke="#231f20" stroke-linecap="round" stroke-miterlimit="10" stroke-width="1.69"/><path d="M95.08 331.05s-4.5-9.61-12.29 9" fill="none" stroke="#000" stroke-linecap="round" stroke-miterlimit="10" stroke-width="2.53"/><path data-name="ear" d="M141.06 487.61s8.92-8.52 6.75 4.6c0 0-3.3 9.53-12.19 9l-1-.06s6.8-13.25 6.44-13.54z" fill="#f8e6d3" stroke="#000" stroke-miterlimit="10" stroke-width="1.69"/><path d="M44.73 507.39a1.68 1.68 0 0 0-1.86 2c.77 3.63 4.46 6.71 9.25 7.35s9.16-1.34 10.88-4.64a1.68 1.68 0 0 0-1.26-2.44z"/><ellipse cx="108.8" cy="500.59" rx="4.38" ry="8.55" transform="rotate(-82 108.929 500.756)" fill="#f39c9c"/><ellipse cx="8.2" cy="483.13" rx="4.38" ry="8.55" transform="rotate(-81.98 8.198 483.14)" fill="#f39c9c"/></g></g><g data-name="big leaf"><path d="M55.37 694.61c-32.29-6.19-58.18-19.29-57.84-29.25s26.79-13 59.08-6.83 57.84 29.25 57.84 29.25-26.8 13.02-59.08 6.83z" fill="#4fc6b7" data-name="&lt;Group&gt;"/><path d="M55.37 694.61c32.29 6.19 59.08-6.83 59.08-6.83L-2.47 665.36c-.34 9.96 25.55 23.06 57.84 29.25z" data-name="&lt;Group&gt;" opacity=".13"/><path d="M92.18 662.72c-32.29-6.2-58.18-19.29-57.84-29.26s26.79-13 59.08-6.83 57.84 29.25 57.84 29.25-26.8 13.03-59.08 6.84z" fill="#4fc6b7" data-name="&lt;Group&gt;"/><path d="M92.18 662.72c32.29 6.19 59.08-6.83 59.08-6.83L34.34 633.46c-.34 9.97 25.55 23.06 57.84 29.26z" data-name="&lt;Group&gt;" opacity=".13"/><path d="M133.25 637.16c-32-7.66-57.24-21.92-56.44-31.86s27.36-11.79 59.33-4.13S192.58 633 192.58 633s-27.36 11.81-59.33 4.16z" fill="#4fc6b7" data-name="&lt;Group&gt;"/><path d="M133.25 637.16c32 7.66 59.33-4.13 59.33-4.13L76.81 605.3c-.81 9.94 24.47 24.2 56.44 31.86z" data-name="&lt;Group&gt;" opacity=".13"/><path d="M-19.33 598.28C-22 631-16.35 659.5-6.66 661.84s19.73-22.32 22.42-55.08S3.09 543.2 3.09 543.2s-19.73 22.32-22.42 55.08z" fill="#4fc6b7" data-name="&lt;Group&gt;"/><path d="M-19.33 598.28c2.69-32.76 22.42-55.08 22.42-55.08l-9.75 118.64C-16.35 659.5-22 631-19.33 598.28z" data-name="&lt;Group&gt;" opacity=".13"/><path d="M21.26 571.37c-2.69 32.76 3 61.22 12.68 63.56s19.73-22.32 22.42-55.08-12.68-63.56-12.68-63.56S24 538.61 21.26 571.37z" fill="#4fc6b7" data-name="&lt;Group&gt;"/><path d="M21.26 571.37c2.69-32.76 22.42-55.08 22.42-55.08l-9.74 118.64c-9.69-2.34-15.37-30.8-12.68-63.56z" data-name="&lt;Group&gt;" opacity=".13"/><path d="M62.85 533c-3.56 32.68 1.35 61.28 11 63.88s20.32-21.79 23.88-54.47-11-63.88-11-63.88S66.41 500.37 62.85 533z" fill="#4fc6b7" data-name="&lt;Group&gt;"/><path d="M62.85 533c3.56-32.68 23.88-54.47 23.88-54.47l-12.9 118.39c-9.63-2.6-14.54-31.19-10.98-63.92z" data-name="&lt;Group&gt;" opacity=".13"/><path d="M111 505.4c-8.5 31.76-8 60.77 1.13 64.8S135.55 551.76 144 520s-1.13-64.8-1.13-64.8-23.35 18.44-31.87 50.2z" fill="#4fc6b7" data-name="&lt;Group&gt;"/><path d="M111 505.4c8.5-31.76 31.89-50.2 31.89-50.2l-30.77 115c-9.12-4.03-9.59-33.04-1.12-64.8z" data-name="&lt;Group&gt;" opacity=".13"/><path d="M167.6 498.44c-18 25.18-26.39 50.21-18.69 55.91s28.56-10.08 46.58-35.26 18.69-55.91 18.69-55.91-28.56 10.08-46.58 35.26z" fill="#4fc6b7" data-name="&lt;Group&gt;"/><path d="M167.6 498.44c18-25.18 46.58-35.26 46.58-35.26l-65.26 91.17c-7.71-5.71.65-30.74 18.68-55.91z" data-name="&lt;Group&gt;" opacity=".13"/><path d="M224.62 502.42c-22.89 17.16-37.2 36.85-32 44s28-1 50.91-18.15 32-44 32-44-28.02.99-50.91 18.15z" fill="#4fc6b7" data-name="&lt;Group&gt;"/><path d="M224.62 502.42c22.89-17.16 50.91-18.15 50.91-18.15l-82.88 62.13c-5.23-7.13 9.08-26.82 31.97-43.98z" data-name="&lt;Group&gt;" opacity=".13"/><path d="M284.5 516.9c-27.3 8.55-47.36 22.34-44.81 30.81s26.75 8.41 54-.14 44.81-30.81 44.81-30.81-26.7-8.4-54 .14z" fill="#4fc6b7" data-name="&lt;Group&gt;"/><path d="M284.5 516.9c27.3-8.55 54-.14 54-.14l-98.86 30.95c-2.5-8.47 17.56-22.26 44.86-30.81z" data-name="&lt;Group&gt;" opacity=".13"/><path d="M331.23 565.69c-22.78-8.7-43.49-10.06-46.25-3.05s13.46 19.75 36.24 28.45a96.76 96.76 0 0 0 44.55 5.31s-11.77-22.01-34.54-30.71z" fill="#4fc6b7" data-name="&lt;Group&gt;"/><path d="M331.23 565.69c22.78 8.7 34.53 30.71 34.53 30.71L285 562.64c2.74-7.01 23.45-5.64 46.23 3.05z" data-name="&lt;Group&gt;" opacity=".13"/><path d="M184.69 606.81c-31.32-10-55.48-26.07-54-35.92s28.15-9.75 59.47.24 54 35.92 54 35.92-28.16 9.75-59.47-.24z" fill="#4fc6b7" data-name="&lt;Group&gt;"/><path d="M184.69 606.81c31.32 10 59.47.24 59.47.24L130.74 570.9c-1.53 9.85 22.63 25.93 53.95 35.91z" data-name="&lt;Group&gt;" opacity=".13"/><path d="M254.91 598.11c-27.35-16-46.74-36.29-43.3-45.32s28.4-3.39 55.76 12.61 43.3 45.32 43.3 45.32-28.41 3.39-55.76-12.61z" fill="#4fc6b7" data-name="&lt;Group&gt;"/><path d="M254.91 598.11c27.35 16 55.76 12.61 55.76 12.61l-99.06-57.93c-3.44 9.04 15.94 29.33 43.3 45.32z" data-name="&lt;Group&gt;" opacity=".13"/><path d="M-53.88 726a274.57 274.57 0 0 1 14.41-24.13q7.76-11.74 16.37-22.92a426.56 426.56 0 0 1 37.29-42.43c6.71-6.65 13.63-13.11 20.82-19.28s14.61-12.1 22.25-17.76S72.87 588.56 81 583.55s16.53-9.59 25.14-13.79 17.48-7.9 26.5-11.2l6.81-2.35 6.89-2.13c2.29-.73 4.64-1.29 7-1.94 1.16-.31 2.32-.65 3.49-.93l3.52-.8a212.64 212.64 0 0 1 28.49-4.69 206.34 206.34 0 0 1 28.82-.88h1.8l1.8.12 3.59.25 3.59.26c1.19.1 2.38.27 3.58.4 2.38.29 4.76.52 7.13.86l7.08 1.17c1.18.18 2.35.41 3.52.67l3.5.74c2.34.49 4.67 1 7 1.62l6.9 1.83 6.81 2.12c1.13.37 2.27.69 3.38 1.11l3.34 1.22c2.22.84 4.46 1.58 6.65 2.5 4.35 1.87 8.74 3.59 13 5.73a218.31 218.31 0 0 1 24.56 13.73c-17.45-6.74-35.07-12.51-53.05-16l-6.84-1.29-6.77-1c-1.13-.16-2.25-.37-3.38-.49l-3.39-.39-3.39-.39c-1.13-.14-2.25-.26-3.39-.32a237.34 237.34 0 0 0-27.11-.76 234.72 234.72 0 0 0-53.28 7.91 247.12 247.12 0 0 0-25.69 8.26q-12.65 4.77-24.84 10.72c-8.16 3.89-16.1 8.27-23.92 12.86s-15.49 9.5-23 14.63-14.89 10.57-22.14 16.16-14.3 11.43-21.24 17.44c-13.9 12-27.24 24.74-40.13 38S-42 711.56-53.88 726z" fill="#4fc6b7" data-name="oqeQgB.tif"/><path d="M-27.29 22.76C-32.19-3-30.1-26-22.62-28.64s17.51 16 22.41 41.73-4.66 51.4-4.66 51.4-17.51-16.01-22.42-41.73zM3.7 45.66C0 19.74 3.11-3.15 10.7-5.48s16.77 16.79 20.49 42.7-7 51.14-7 51.14S7.43 71.58 3.7 45.66z" fill="#4fc6b7" data-name="&lt;Group&gt;"/><path d="M3.7 45.66c3.73 25.92 20.49 42.71 20.49 42.71L10.7-5.48C3.11-3.15 0 19.74 3.7 45.66z" data-name="&lt;Group&gt;" opacity=".13"/><path d="M94.71-9.5c-26 3-47.33 11.94-47.64 19.87s20.52 11.9 46.53 8.86S141.24-.63 141.24-.63 120.71-12.54 94.71-9.5z" fill="#4fc6b7" data-name="&lt;Group&gt;"/><path d="M94.71-9.5c26-3 46.53 8.86 46.53 8.86l-94.17 11C47.37 2.44 68.7-6.46 94.71-9.5z" data-name="&lt;Group&gt;" opacity=".13"/><path d="M116.48 30.33c-23.93-5.95-44.92-4.78-46.88 2.59S85.45 51.1 109.38 57s46.88-2.59 46.88-2.59-15.85-18.13-39.78-24.08z" fill="#4fc6b7" data-name="&lt;Group&gt;"/><path d="M116.48 30.33c23.93 5.95 39.78 24.12 39.78 24.12L69.6 32.93c1.96-7.38 22.95-8.54 46.88-2.6z" data-name="&lt;Group&gt;" opacity=".13"/><path d="M130.28 73.71C110.86 61.81 92.07 57 88.33 63s9 20.45 28.39 32.35 42 10.74 42 10.74-9.01-20.47-28.44-32.38z" fill="#4fc6b7" data-name="&lt;Group&gt;"/><path d="M130.28 73.71c19.43 11.9 28.39 32.35 28.39 32.35L88.33 63c3.74-6 22.53-1.19 41.95 10.71z" data-name="&lt;Group&gt;" opacity=".13"/><path d="M137.15 122.3c-14.35-17.7-30.45-28.5-36-24.12s1.63 22.27 16 40 36 24.12 36 24.12-1.65-22.3-16-40z" fill="#4fc6b7" data-name="&lt;Group&gt;"/><path d="M137.15 122.3c14.35 17.7 16 40 16 40l-51.97-64.12c5.52-4.38 21.63 6.42 35.97 24.12z" data-name="&lt;Group&gt;" opacity=".13"/><path d="M114.76 171.22c-.25-19.42-5.32-35.15-11.33-35.14S92.76 151.85 93 171.27a77.06 77.06 0 0 0 9.16 34.54s12.84-15.17 12.6-34.59z" fill="#4fc6b7" data-name="&lt;Group&gt;"/><path d="M114.76 171.22c.25 19.42-12.59 34.58-12.59 34.58l1.26-69.72c6.01-.01 11.08 15.72 11.33 35.14z" data-name="&lt;Group&gt;" opacity=".13"/><path d="M41.27 74.82C39.46 48.7 44.27 26.1 52 24.33s15.49 18 17.3 44.1-10.74 50.49-10.74 50.49-15.48-17.98-17.29-44.1z" fill="#4fc6b7" data-name="&lt;Group&gt;"/><path d="M41.27 74.82c1.81 26.12 17.3 44.1 17.3 44.1L52 24.33C44.27 26.1 39.46 48.7 41.27 74.82z" data-name="&lt;Group&gt;" opacity=".13"/><path d="M68.34 124.25C72.15 99.3 81.47 79 89.17 78.88s10.85 20 7 45-20.83 45.36-20.83 45.36a78.37 78.37 0 0 1-7-44.99z" fill="#4fc6b7" data-name="&lt;Group&gt;"/><path d="M68.34 124.25a78.37 78.37 0 0 0 7 45l13.83-90.37c-7.7.12-17.02 20.42-20.83 45.37z" data-name="&lt;Group&gt;" opacity=".13"/><path d="M-117-66.77c3.71.35 7.4.93 11.09 1.51s7.34 1.33 11 2.09c7.32 1.51 14.57 3.33 21.78 5.37a339.76 339.76 0 0 1 42.32 15.14 307.71 307.71 0 0 1 40.08 21c6.43 4 12.66 8.34 18.76 12.88S40 .64 45.62 5.78s11 10.62 16.08 16.33a193.46 193.46 0 0 1 14.16 18.08A169.37 169.37 0 0 1 87.7 59.9 164.32 164.32 0 0 1 96.82 81c.7 1.78 1.21 3.63 1.81 5.44l.86 2.73c.28.91.5 1.84.76 2.76.48 1.85 1 3.68 1.46 5.53l1.22 5.58c.43 1.85.67 3.75 1 5.61s.66 3.74.85 5.63l.67 5.65.43 5.66c.16 1.88.21 3.77.25 5.66s.14 3.77.1 5.65c-.11 3.77-.08 7.52-.45 11.27-.16 1.87-.25 3.74-.45 5.6l-.65 5.57c-.21 1.85-.53 3.7-.85 5.54s-.64 3.67-1 5.5c-.13-14.9-1-29.63-3.73-44l-1-5.37-1.23-5.31c-.38-1.77-.86-3.52-1.34-5.27s-.89-3.51-1.47-5.22a189 189 0 0 0-7.4-20.29C75.28 58.52 57.53 35.39 36.28 16 31 11.1 25.43 6.51 19.73 2.07S8.15-6.6 2.14-10.66a396.27 396.27 0 0 0-37.62-22.2c-13-6.77-26.32-12.9-39.92-18.54s-27.46-10.83-41.6-15.37z" fill="#4fc6b7" data-name="oqeQgB.tif"/></g></svg>