<svg xmlns="http://www.w3.org/2000/svg" viewBox="0 0 238 373.42"><title>balloon-grace</title><g data-name="Layer 2"><g data-name="bubble"><path d="M124.94 235.9c-12.11 9.06-9.54 32.3-1.44 42.94 9.07 11.9 27.21 18.39 30.11 33.14 3.05 15.57-16.21 18.21-15.75 32.3.2 6.25 5.14 7.72 7.91 12.76 2.59 4.7 1.43 11.44 3.57 15.95" fill="none" stroke="#3f3f3f" stroke-miterlimit="10" stroke-width="2"/><path d="M109.27 235.82l-8.61 9.57s16.27 9.09 34.93 3.35l-3.83-12" fill="#bdffee" stroke="#3f3f3f" stroke-miterlimit="10" stroke-width="2"/><circle cx="119" cy="119" r="118" fill="#bdffee" fill-opacity=".75" stroke="#3f3f3f" stroke-miterlimit="10" stroke-width="2"/><path d="M220.29 119a4.64 4.64 0 0 1-.62 0 5.05 5.05 0 0 1-4.18-5.71c2.85-23.41-8.61-36-9.1-36.55a5.32 5.32 0 0 1 0-7.2 4.64 4.64 0 0 1 6.8 0c.63.66 15.34 16.46 11.86 45.07a4.93 4.93 0 0 1-4.76 4.39z" fill="#fff" stroke="#3f3f3f" stroke-linecap="round" stroke-linejoin="round" stroke-width="1.65"/><g data-name="normal crop"><path d="M90 175.7c-3.6-5.81-38.71-57.59-5.63-105 0 0 8.31-14.25 27.7-20.58a39.11 39.11 0 0 1 28.48 2 42.68 42.68 0 0 1 16.17 14.26 66.62 66.62 0 0 1 6.89 12.87c8.63 21 8.67 48.06 2.91 69.94a62.17 62.17 0 0 1-3 8.78c-.56 1.3-1.8 4.86-4.62 7.24-1.74 1.55-68.06 10.79-68.06 10.79a.74.74 0 0 1-.84-.3z" fill="#1c1c1c" stroke="#000" stroke-miterlimit="10" stroke-width=".74"/><path d="M91 183.61a.74.74 0 0 1-.74-.69c-.34-4.71-1.55-32.23 16.65-36 0 0 .92 0 .7-1.56l-.18-3.41s.13-3.68 3-3.19a1.4 1.4 0 0 1 1.08.45s10.29 6.62 22.54-1.07l-.68-1s2.13-1.86 4 0a13.29 13.29 0 0 1 2.7 6.94s8.11.23 12.71 5.95c0 0 11.35 16.75 10.24 32.9a.75.75 0 0 1-.75.69z" fill="#4c4c4c" stroke="#000" stroke-miterlimit="10" stroke-width=".74"/><path d="M112 135.26a11.92 11.92 0 0 1-.52 3.71s9.14 6.57 22.54-.84a16.7 16.7 0 0 1-1.42-3.51s-11.04 3.89-20.6.64z" fill="#f8e6d3" stroke="#000" stroke-miterlimit="10" stroke-width=".74"/><path data-name="ear" d="M86.57 114.44s-3.85-4.16-3.23 1.92c0 0 1.24 4.47 5.34 4.47h.44s-2.72-6.27-2.55-6.39z" fill="#f8e6d3" stroke="#000" stroke-miterlimit="10" stroke-width=".74"/><path d="M85 103s-1.1 29 27 33.23a56.79 56.79 0 0 0 16.22-.16s33.32-3.29 30-38.47c0 0-9.93 0-14.89-8.68l1.24 4.71s-10.34-2.89-18.61-24.57c0 0-4 18.28-17.37 26.51 0 0 .5-4.42 0-6.41 0 0-6.7 7.75-13.15 10.45l.25-4S90.17 101.21 85 103z" fill="#f8e6d3" stroke="#000" stroke-miterlimit="10" stroke-width=".74"/><path fill="#fff" stroke="#000" stroke-linecap="round" stroke-miterlimit="10" stroke-width="1.49" d="M95.93 103.73l9.43-1.62m30.83-2.95l9.46-1.41"/><ellipse cx="102.22" cy="110.2" rx="6.3" ry="3.23" transform="rotate(-8.68 102.167 110.129)" fill="#fff" stroke="#000" stroke-miterlimit="10" stroke-width=".74"/><circle cx="106.32" cy="109.42" r="2.43"/><ellipse cx="141.53" cy="106.08" rx="6.3" ry="3.23" transform="rotate(-8.68 141.441 106.02)" fill="#fff" stroke="#000" stroke-miterlimit="10" stroke-width=".74"/><circle cx="145.63" cy="105.3" r="2.43"/><path fill="none" stroke="#000" stroke-linecap="round" stroke-miterlimit="10" stroke-width="1.12" d="M122.77 113.05v3.89h1.97"/><path fill="none" stroke="#000" stroke-linecap="round" stroke-miterlimit="10" stroke-width="1.49" d="M121.67 128.03l4.92-1.08"/><path fill="none" stroke="#f39c9c" stroke-linecap="round" stroke-miterlimit="10" stroke-width=".74" d="M145.64 115.74l2.42-.75m-2.18 2.69l2.42-.74m-48.88 4.7l2.42-.75m-2.17 2.69l2.42-.74"/><path d="M118.85 33.18s-5.81 6.49-3.7 17.23c0 0-1.2-4.83-4.78-4.66" fill="none" stroke="#000" stroke-linecap="round" stroke-miterlimit="10" stroke-width="1.12"/><path d="M119.33 30.6s-4.92-5.09-2-8c0 0 3.81-1.6 2.8 8zm1.74-.24s.34-7.07 4.5-6.93c0 0 3.77 1.68-3.93 7.54zm.24 1.5s6.32-3.19 8.25.5c0 0 .39 4.11-8.5.29zm-.74.66s4.41 5.54 1.18 8.18c0 0-3.95 1.22-2-8.26zm-1.36-.22s-5.84 4-8.24.6c0 0-.94-4 8.38-1.42z" fill="#fff" stroke="#231f20" stroke-linecap="round" stroke-miterlimit="10" stroke-width=".74"/><circle cx="120.33" cy="31.7" r="1.48" fill="#f8daa4" stroke="#231f20" stroke-linecap="round" stroke-miterlimit="10" stroke-width=".74"/><path d="M119.2 45s-3.12-3.49-4.06 5.37" fill="none" stroke="#000" stroke-linecap="round" stroke-miterlimit="10" stroke-width="1.12"/><path d="M151.7 145.6c-1.23 7-4.72 21.5-10.78 28.22 0 0 18-1.74 22.16-14.73" fill="#1c1c1c" stroke="#000" stroke-miterlimit="10" stroke-width=".74"/><path data-name="ear" d="M158.51 105.41s2.69-4.73 3.44 1.09c0 0-.19 4.45-4 5.34l-.41.1s1.16-6.45.97-6.53z" fill="#f8e6d3" stroke="#000" stroke-miterlimit="10" stroke-width=".74"/></g><g data-name="happy crop"><path d="M90 175.7c-3.6-5.81-38.71-57.59-5.63-105 0 0 8.31-14.25 27.7-20.58a39.11 39.11 0 0 1 28.48 2 42.68 42.68 0 0 1 16.17 14.26 66.62 66.62 0 0 1 6.89 12.87c8.63 21 8.67 48.06 2.91 69.94a62.17 62.17 0 0 1-3 8.78c-.56 1.3-1.8 4.86-4.62 7.24-1.74 1.55-68.06 10.79-68.06 10.79a.74.74 0 0 1-.84-.3z" fill="#1c1c1c" stroke="#000" stroke-miterlimit="10" stroke-width=".74"/><path d="M91 183.61a.74.74 0 0 1-.74-.69c-.34-4.71-1.55-32.23 16.65-36 0 0 .92 0 .7-1.56l-.18-3.41s.13-3.68 3-3.19a1.4 1.4 0 0 1 1.08.45s10.29 6.62 22.54-1.07l-.68-1s2.13-1.86 4 0a13.29 13.29 0 0 1 2.7 6.94s8.11.23 12.71 5.95c0 0 11.35 16.75 10.24 32.9a.75.75 0 0 1-.75.69z" fill="#4c4c4c" stroke="#000" stroke-miterlimit="10" stroke-width=".74"/><path d="M151.7 145.6c-1.23 7-4.72 21.5-10.78 28.22 0 0 18-1.74 22.16-14.73" fill="#1c1c1c" stroke="#000" stroke-miterlimit="10" stroke-width=".74"/><path d="M112 135.26a11.92 11.92 0 0 1-.52 3.71s9.14 6.57 22.54-.84a16.7 16.7 0 0 1-1.42-3.51s-11.04 3.89-20.6.64z" fill="#f8e6d3" stroke="#000" stroke-miterlimit="10" stroke-width=".74"/><path data-name="ear" d="M86.57 114.44s-3.85-4.16-3.23 1.92c0 0 1.24 4.47 5.34 4.47h.44s-2.72-6.27-2.55-6.39z" fill="#f8e6d3" stroke="#000" stroke-miterlimit="10" stroke-width=".74"/><path d="M85 103s-1.1 29 27 33.23a56.79 56.79 0 0 0 16.22-.16s33.32-3.29 30-38.47c0 0-9.93 0-14.89-8.68l1.24 4.71s-10.34-2.89-18.61-24.57c0 0-4 18.28-17.37 26.51 0 0 .5-4.42 0-6.41 0 0-6.7 7.75-13.15 10.45l.25-4S90.17 101.21 85 103z" fill="#f8e6d3" stroke="#000" stroke-miterlimit="10" stroke-width=".74"/><path fill="#fff" stroke="#000" stroke-linecap="round" stroke-miterlimit="10" stroke-width="1.49" d="M95.93 103.73l9.43-1.62m30.83-2.95l9.46-1.41"/><ellipse cx="102.22" cy="110.2" rx="6.3" ry="3.23" transform="rotate(-8.68 102.167 110.129)" fill="#fff" stroke="#000" stroke-miterlimit="10" stroke-width=".74"/><circle cx="102.32" cy="110.19" r="2.87"/><ellipse cx="141.53" cy="106.08" rx="6.3" ry="3.23" transform="rotate(-8.68 141.441 106.02)" fill="#fff" stroke="#000" stroke-miterlimit="10" stroke-width=".74"/><circle cx="141.77" cy="106.05" r="2.89"/><path fill="none" stroke="#000" stroke-linecap="round" stroke-miterlimit="10" stroke-width="1.12" d="M122.77 113.05v3.89h1.97"/><path fill="none" stroke="#000" stroke-linecap="round" stroke-miterlimit="10" stroke-width="1.49" d="M121.67 128.03l4.92-1.08"/><path d="M118.85 33.18s-5.81 6.49-3.7 17.23c0 0-1.2-4.83-4.78-4.66" fill="none" stroke="#000" stroke-linecap="round" stroke-miterlimit="10" stroke-width="1.12"/><path d="M119.33 30.6s-4.92-5.09-2-8c0 0 3.81-1.6 2.8 8zm1.74-.24s.34-7.07 4.5-6.93c0 0 3.77 1.68-3.93 7.54zm.24 1.5s6.32-3.19 8.25.5c0 0 .39 4.11-8.5.29zm-.74.66s4.41 5.54 1.18 8.18c0 0-3.95 1.22-2-8.26zm-1.36-.22s-5.84 4-8.24.6c0 0-.94-4 8.38-1.42z" fill="#fff" stroke="#231f20" stroke-linecap="round" stroke-miterlimit="10" stroke-width=".74"/><circle cx="120.33" cy="31.7" r="1.48" fill="#f8daa4" stroke="#231f20" stroke-linecap="round" stroke-miterlimit="10" stroke-width=".74"/><path d="M119.2 45s-3.12-3.49-4.06 5.37" fill="none" stroke="#000" stroke-linecap="round" stroke-miterlimit="10" stroke-width="1.12"/><path data-name="ear" d="M158.51 105.41s2.69-4.73 3.44 1.09c0 0-.19 4.45-4 5.34l-.41.1s1.16-6.45.97-6.53z" fill="#f8e6d3" stroke="#000" stroke-miterlimit="10" stroke-width=".74"/><path d="M120.28 126a.74.74 0 0 0-.53 1.09 5.08 5.08 0 0 0 8.84-1.41.74.74 0 0 0-.84-.87z"/><ellipse cx="146.51" cy="114.99" rx="3.77" ry="1.93" transform="rotate(-8.68 146.462 114.948)" fill="#f39c9c"/><ellipse cx="101.75" cy="120.37" rx="3.77" ry="1.93" transform="rotate(-8.68 101.727 120.3)" fill="#f39c9c"/></g><rect x="54.45" y="124.55" width="133.11" height="78.02" rx="4.02" ry="4.02" fill="#cecece"/><path d="M183.53 125a3.58 3.58 0 0 1 3.57 3.57v70a3.58 3.58 0 0 1-3.57 3.57H58.47a3.58 3.58 0 0 1-3.57-3.57v-70a3.58 3.58 0 0 1 3.57-3.57h125.06m0-.89H58.47a4.48 4.48 0 0 0-4.47 4.46v70a4.48 4.48 0 0 0 4.47 4.43h125.06a4.48 4.48 0 0 0 4.47-4.47v-70a4.48 4.48 0 0 0-4.47-4.47z"/><path d="M133.16 161.94a24.28 24.28 0 0 1-12.38 9.14c-8 2.47-15.08-.87-14.91-2.19l.17-1.36a49.61 49.61 0 0 0 7.74-1.27 20.06 20.06 0 0 0 3.76 0c8.18-.68 14.54-6 16.75-10a6.87 6.87 0 0 0 .5-3.17c.1 1.07.26 2.06.32 2.9a9.29 9.29 0 0 1-1.95 5.95z" fill="#f9f07d" stroke="#59545e" stroke-linecap="round" stroke-linejoin="round" stroke-width=".86" fill-rule="evenodd"/><path d="M134.3 156.29c.95-1.46-.14-4.43 1.59-7.69l-1.57-.53a10.78 10.78 0 0 1-.92 2.88 4.74 4.74 0 0 1-2 1.73l-.13.06c-1.24.67-5 4.11-11.66 6.21s-15.71.74-15.71.74l-.46 1.29c-.45 1.25 5.72 6 14.1 5.33 8.18-.68 14.54-6 16.75-10z" fill="#f9f07d" stroke="#59545e" stroke-linecap="round" stroke-linejoin="round" stroke-width=".86" fill-rule="evenodd"/><path d="M130.27 155.38a28.17 28.17 0 0 1-12.51 6 33.37 33.37 0 0 1-6.36.64m-2 0a34.29 34.29 0 0 1-3.46-.33" fill="none" stroke="#59545e" stroke-linecap="round" stroke-linejoin="round" stroke-width=".86"/></g></g></svg>