<svg xmlns="http://www.w3.org/2000/svg" viewBox="0 0 1299.52 622.78"><title>confetti-blue-2</title><g data-name="Layer 2"><g data-name="confetti-blue"><path fill="none" d="M416.165 322.11l8.847-11.475 6.154 4.744-8.847 11.476z"/><path fill="#d2ebf9" stroke="#3f3f3f" stroke-miterlimit="10" d="M424.87 311.78l3.92 2.47-6.33 11.5-3.91-2.47 6.32-11.5z"/><path fill="none" d="M260.343 617.94l.367-14.486 7.767.197-.367 14.485z"/><path fill="#d2ebf9" stroke="#3f3f3f" stroke-miterlimit="10" d="M261.26 604.44l4.62-.32 1.68 13.01-4.62.32-1.68-13.01z"/><path fill="none" d="M179.313 237.866l10.312-10.18 5.459 5.53-10.312 10.18z"/><path fill="#d2ebf9" stroke="#3f3f3f" stroke-miterlimit="10" d="M189.33 228.78l3.54 2.97-7.82 10.54-3.54-2.97 7.82-10.54z"/><path fill="none" d="M53.398 336.08l4.393-13.807 7.404 2.356-4.393 13.808z"/><path fill="#d2ebf9" stroke="#3f3f3f" stroke-miterlimit="10" d="M58.05 323.36l4.52.98-2.02 12.97-4.52-.98 2.02-12.97z"/><path fill="none" d="M945.32 622.26l.92-14.461 7.755.493-.92 14.46z"/><path fill="#d2ebf9" stroke="#3f3f3f" stroke-miterlimit="10" d="M946.8 608.84l4.63-.13 1.18 13.06-4.63.14-1.18-13.07z"/><path fill="none" d="M791.875 417.308l12.566-7.214 3.869 6.738-12.567 7.215z"/><path fill="#d2ebf9" stroke="#3f3f3f" stroke-miterlimit="10" d="M803.88 411.11l2.67 3.78-10.24 8.19-2.67-3.78 10.24-8.19z"/><path fill="none" d="M960.46 332.267l5.059-13.579 7.281 2.712-5.058 13.579z"/><path fill="#d2ebf9" stroke="#3f3f3f" stroke-miterlimit="10" d="M965.68 319.78l4.47 1.21-2.64 12.85-4.47-1.2 2.64-12.86z"/><path fill="none" d="M1253.649 365.072l7.68-1.18 2.199 14.323-7.68 1.18z"/><path fill="#d2ebf9" stroke="#3f3f3f" stroke-miterlimit="10" d="M1254.35 366.06l4.49-1.12 3.95 12.51-4.49 1.13-3.95-12.52z"/><path fill="none" d="M940.243 77.372l1.7-14.39 7.717.912-1.7 14.39z"/><path fill="#d2ebf9" stroke="#3f3f3f" stroke-miterlimit="10" d="M942.33 64l4.62.11.48 13.12-4.63-.11-.47-13.12z"/><path fill="none" d="M733.417 103.889l7.186-2.956 5.513 13.4-7.186 2.957z"/><path fill="#d2ebf9" stroke="#3f3f3f" stroke-miterlimit="10" d="M734.33 104.59l4.09-2.16 6.79 11.23-4.09 2.16-6.79-11.23z"/><path fill="none" d="M65.92 66.004l10.236-10.255 5.5 5.49-10.238 10.254z"/><path fill="#d2ebf9" stroke="#3f3f3f" stroke-miterlimit="10" d="M75.87 56.85l3.56 2.95-7.74 10.59-3.56-2.95 7.74-10.59z"/><path fill="none" d="M961.484 404.145l7.166-3.002 5.599 13.365-7.167 3.002z"/><path fill="#d2ebf9" stroke="#3f3f3f" stroke-miterlimit="10" d="M962.39 404.9l4.09-2.18 6.86 11.19-4.09 2.18-6.86-11.19z"/><path fill="none" d="M1091.997 358.495l2.705-14.235 7.633 1.45-2.705 14.236z"/><path fill="#d2ebf9" stroke="#3f3f3f" stroke-miterlimit="10" d="M1095.17 345.38l4.61.44-.45 13.11-4.61-.43.45-13.12z"/><path fill="none" d="M961.44 93.77l13.696-4.73 2.536 7.345-13.696 4.73z"/><path fill="#d2ebf9" stroke="#3f3f3f" stroke-miterlimit="10" d="M974.39 89.86l1.91 4.21-11.6 6.13-1.91-4.21 11.6-6.13z"/><path fill="none" d="M483.515 97.946l3.346-14.099 7.56 1.794-3.346 14.099z"/><path fill="#d2ebf9" stroke="#3f3f3f" stroke-miterlimit="10" d="M487.2 84.94l4.58.64-1.04 13.08-4.58-.64 1.04-13.08z"/><path fill="none" d="M667.335 476.72l5.736-13.306 7.135 3.076-5.736 13.307z"/><path fill="#d2ebf9" stroke="#3f3f3f" stroke-miterlimit="10" d="M673.25 464.6l4.4 1.42-3.29 12.71-4.4-1.43 3.29-12.7z"/><path fill="none" d="M530.134 215.715l10.888-9.561 5.127 5.838-10.888 9.562z"/><path fill="#d2ebf9" stroke="#3f3f3f" stroke-miterlimit="10" d="M540.68 207.27l3.37 3.18-8.42 10.06-3.37-3.17 8.42-10.07z"/><path fill="none" d="M988.796 140.66l5.75-13.3 7.132 3.083-5.75 13.3z"/><path fill="#d2ebf9" stroke="#3f3f3f" stroke-miterlimit="10" d="M994.65 128.47l4.4 1.43-3.3 12.7-4.4-1.43 3.3-12.7z"/><path fill="none" d="M666.703 158.197l9.543-10.904 5.847 5.117-9.542 10.904z"/><path fill="#d2ebf9" stroke="#3f3f3f" stroke-miterlimit="10" d="M676.05 148.43l3.76 2.7-7.03 11.09-3.76-2.71 7.03-11.08z"/><path fill="none" d="M787.054 16.422l10.78-9.682 5.193 5.78-10.78 9.683z"/><path fill="#d2ebf9" stroke="#3f3f3f" stroke-miterlimit="10" d="M797.52 7.85l3.4 3.14-8.31 10.16-3.4-3.14 8.31-10.16z"/><path fill="none" d="M663.377 33.835l11.94-8.21 4.402 6.403-11.94 8.21z"/><path fill="#d2ebf9" stroke="#3f3f3f" stroke-miterlimit="10" d="M674.87 26.7l2.97 3.55-9.56 9-2.96-3.55 9.55-9z"/><path fill="none" d="M352.808 13.458l7.97-12.026 6.45 4.273-7.97 12.027z"/><path fill="#d2ebf9" stroke="#3f3f3f" stroke-miterlimit="10" d="M361.43 1.13l4.08 2.18-5.48 11.92-4.08-2.18 5.48-11.92z"/><path fill="none" d="M203.797 122.16l5.833-13.263 7.113 3.128-5.834 13.264z"/><path fill="#d2ebf9" stroke="#3f3f3f" stroke-miterlimit="10" d="M209.77 110.04l4.39 1.46-3.38 12.67-4.39-1.45 3.38-12.68z"/><path fill="none" d="M135.655 49.047l14.153-3.11 1.667 7.59-14.152 3.109z"/><path fill="#d2ebf9" stroke="#3f3f3f" stroke-miterlimit="10" d="M148.97 46.71l1.42 4.41-12.24 4.74-1.41-4.41 12.23-4.74z"/><path fill="none" d="M70.235 102.607l7.626-1.485 2.77 14.223-7.627 1.485z"/><path fill="#d2ebf9" stroke="#3f3f3f" stroke-miterlimit="10" d="M70.99 103.44l4.44-1.3 4.45 12.34-4.44 1.31-4.45-12.35z"/><path fill="none" d="M1115.643 16.547l7.744-.632 1.18 14.442-7.744.632z"/><path fill="#d2ebf9" stroke="#3f3f3f" stroke-miterlimit="10" d="M1116.3 17.47l4.55-.81 3.06 12.77-4.56.8-3.05-12.76z"/><path fill="none" d="M1287.1 52.526l5.261-13.5 7.24 2.82-5.261 13.502z"/><path fill="#d2ebf9" stroke="#3f3f3f" stroke-miterlimit="10" d="M1292.46 40.12l4.45 1.27-2.83 12.81-4.45-1.27 2.83-12.81z"/><path fill="none" d="M821.95 160.477l7.457-2.182 4.07 13.907-7.458 2.182z"/><path fill="#d2ebf9" stroke="#3f3f3f" stroke-miterlimit="10" d="M822.77 161.27l4.31-1.71 5.56 11.88-4.3 1.71-5.57-11.88z"/><path fill="none" d="M352.682 177.05l6.252-13.072 7.01 3.352-6.253 13.072z"/><path fill="#d2ebf9" stroke="#3f3f3f" stroke-miterlimit="10" d="M359.03 165.11l4.34 1.59-3.78 12.57-4.34-1.6 3.78-12.56z"/><path fill="none" d="M651.351 300.32l8.753-11.547 6.192 4.693-8.753 11.548z"/><path fill="#d2ebf9" stroke="#3f3f3f" stroke-miterlimit="10" d="M659.95 289.87l3.93 2.43-6.23 11.55-3.93-2.44 6.23-11.54z"/><path fill="none" d="M417.857 388.587l11.916-8.245 4.42 6.39-11.915 8.245z"/><path fill="#d2ebf9" stroke="#3f3f3f" stroke-miterlimit="10" d="M429.29 381.43l2.98 3.54-9.52 9.03-2.98-3.54 9.52-9.03z"/><path fill="none" d="M131.254 314.366l13.913-4.047 2.17 7.46-13.913 4.048z"/><path fill="#d2ebf9" stroke="#3f3f3f" stroke-miterlimit="10" d="M144.4 311.14l1.7 4.3-11.89 5.55-1.7-4.3 11.89-5.55z"/><path fill="none" d="M775.52 47.966l12.344-7.588 4.07 6.62-12.345 7.588z"/><path fill="#d2ebf9" stroke="#3f3f3f" stroke-miterlimit="10" d="M787.32 41.37l2.78 3.7-10 8.5-2.78-3.7 10-8.5z"/><path fill="none" d="M382.401 118.859l.026-14.49 7.77.013-.026 14.49z"/><path fill="#d2ebf9" stroke="#3f3f3f" stroke-miterlimit="10" d="M382.98 105.35l4.61-.42 1.99 12.97-4.61.43-1.99-12.98z"/><path fill="none" d="M499.589 30.799l6.363-4.459 8.316 11.867-6.364 4.459z"/><path fill="#d2ebf9" stroke="#3f3f3f" stroke-miterlimit="10" d="M500.62 31.26l3.53-3 9.08 9.47-3.52 3-9.09-9.47z"/><path fill="none" d="M153.601 77.962l6.722-3.897 7.267 12.536-6.722 3.897z"/><path fill="#d2ebf9" stroke="#3f3f3f" stroke-miterlimit="10" d="M154.59 78.5l3.77-2.69 8.24 10.22-3.77 2.68-8.24-10.21z"/><path fill="none" d="M-.147 42.63l8.26-11.882 6.37 4.429-8.259 11.881z"/><path fill="#d2ebf9" stroke="#3f3f3f" stroke-miterlimit="10" d="M8.12 31.68l4.05 2.26-5.69 11.82-4.04-2.25 5.68-11.83z"/><path fill="none" d="M1020.761 72.91l.774-14.469 7.759.415-.774 14.47z"/><path fill="#d2ebf9" stroke="#3f3f3f" stroke-miterlimit="10" d="M1022.03 59.45l4.63-.19 1.31 13.06-4.62.18-1.32-13.05z"/><path fill="none" d="M785.45 104.004l11.904-8.261 4.43 6.383-11.904 8.261z"/><path fill="#d2ebf9" stroke="#3f3f3f" stroke-miterlimit="10" d="M796.91 96.82l2.98 3.54-9.51 9.05-2.98-3.54 9.51-9.05z"/><path fill="none" d="M1201.359 115.06l13.418-5.468 2.932 7.196-13.418 5.467z"/><path fill="#d2ebf9" stroke="#3f3f3f" stroke-miterlimit="10" d="M1214.08 110.48l2.14 4.1-11.25 6.76-2.14-4.11 11.25-6.75z"/><path fill="none" d="M1235.223 33.92l3.738-14 7.507 2.004-3.738 14z"/><path fill="#d2ebf9" stroke="#3f3f3f" stroke-miterlimit="10" d="M1239.17 20.99l4.57.77-1.41 13.05-4.56-.77 1.4-13.05z"/><path fill="none" d="M625.665 101.903l9.177-11.212 6.013 4.92-9.178 11.214z"/><path fill="#d2ebf9" stroke="#3f3f3f" stroke-miterlimit="10" d="M634.66 91.81l3.84 2.59-6.66 11.3-3.84-2.58 6.66-11.31z"/><path fill="none" d="M649.572 213.481l10.07-10.42 5.587 5.4-10.07 10.42z"/><path fill="#d2ebf9" stroke="#3f3f3f" stroke-miterlimit="10" d="M659.36 204.15l3.61 2.89-7.56 10.72-3.62-2.89 7.57-10.72z"/><path fill="none" d="M208.012 144.04l7.08-3.2 5.97 13.202-7.08 3.202z"/><path fill="#d2ebf9" stroke="#3f3f3f" stroke-miterlimit="10" d="M208.94 144.69l4.02-2.29 7.17 10.99-4.02 2.29-7.17-10.99z"/><path fill="none" d="M556.897 123.733l12.946-6.508 3.49 6.942-12.946 6.508z"/><path fill="#d2ebf9" stroke="#3f3f3f" stroke-miterlimit="10" d="M569.24 118.22l2.45 3.92-10.68 7.62-2.46-3.92 10.69-7.62z"/><path fill="none" d="M280.868 54.379l8.783-11.525 6.18 4.71-8.783 11.524z"/><path fill="#d2ebf9" stroke="#3f3f3f" stroke-miterlimit="10" d="M289.51 43.98l3.93 2.44-6.27 11.53-3.92-2.44 6.26-11.53z"/><path fill="none" d="M488.795 157.041l13.248-5.868 3.147 7.105-13.248 5.868z"/><path fill="#d2ebf9" stroke="#3f3f3f" stroke-miterlimit="10" d="M501.38 152.14l2.26 4.04-11.04 7.09-2.26-4.04 11.04-7.09z"/><path fill="none" d="M1019.364 210.112l.834-14.466 7.758.447-.835 14.466z"/><path fill="#d2ebf9" stroke="#3f3f3f" stroke-miterlimit="10" d="M1020.64 196.64l4.63-.17 1.26 13.06-4.63.17-1.26-13.06z"/><path fill="none" d="M777.325 134.648l5.606-13.361 7.165 3.006-5.606 13.361z"/><path fill="#d2ebf9" stroke="#3f3f3f" stroke-miterlimit="10" d="M783.08 122.42l4.42 1.38-3.17 12.74-4.41-1.39 3.16-12.73z"/><path fill="none" d="M790.144 182.853l7.684-1.151 2.147 14.33-7.685 1.151z"/><path fill="#d2ebf9" stroke="#3f3f3f" stroke-miterlimit="10" d="M790.86 183.68l4.5-1.11 3.9 12.52-4.49 1.12-3.91-12.53z"/><path fill="none" d="M895.29 40.599l7.255-2.78 5.183 13.531-7.255 2.78z"/><path fill="#d2ebf9" stroke="#3f3f3f" stroke-miterlimit="10" d="M896.19 41.33l4.15-2.05 6.51 11.39-4.15 2.05-6.51-11.39z"/><path fill="none" d="M1257.802 244.871l6.621-4.065 7.582 12.348-6.621 4.065z"/><path fill="#d2ebf9" stroke="#3f3f3f" stroke-miterlimit="10" d="M1258.78 245.35l3.7-2.78 8.5 10-3.7 2.78-8.5-10z"/><path fill="none" d="M307.933 218.36l6.306-4.54 8.465 11.76-6.305 4.54z"/><path fill="#d2ebf9" stroke="#3f3f3f" stroke-miterlimit="10" d="M308.96 218.8l3.49-3.05 9.21 9.36-3.49 3.04-9.21-9.35z"/></g></g></svg>