<svg id="Layer_1" xmlns="http://www.w3.org/2000/svg" viewBox="0 0 1309.6 728"><style>.st0{stroke:#3f3f3f;stroke-miterlimit:10}.st0,.st1,.st2{fill:#e5d4f4}.st2{stroke:#3f3f3f;stroke-width:.9052;stroke-miterlimit:10}.st3{fill:none}.st4{fill:#decced;stroke:#3f3f3f;stroke-miterlimit:10}</style><title>confetti-purple-2</title><path transform="rotate(-15.507 397.664 267.133)" class="st0" d="M390.6 264.9h14.1v4.5h-14.1z"/><path transform="rotate(-31.398 271.945 155.034)" class="st0" d="M269.7 148h4.5v14.1h-4.5z"/><path transform="rotate(-58.54 265.208 368.482)" class="st0" d="M263 361.4h4.5v14.1H263z"/><path transform="rotate(-62.303 78.77 200.214)" class="st0" d="M71.7 198h14.1v4.5H71.7z"/><path transform="rotate(-12.525 884.63 233.51)" class="st0" d="M882.4 226.4h4.5v14.1h-4.5z"/><path transform="rotate(-71.06 797.715 576.04)" class="st0" d="M790.7 573.8h14.1v4.5h-14.1z"/><path transform="rotate(-67.778 465.911 436.42)" class="st0" d="M458.9 434.2H473v4.5h-14.1z"/><path transform="rotate(-63.012 1087.275 699.761)" class="st0" d="M1085 692.7h4.5v14.1h-4.5z"/><path transform="rotate(-75.618 1150.017 196.87)" class="st0" d="M1143 194.6h14.1v4.5H1143z"/><path transform="rotate(-58.92 937.744 45.34)" class="st1" d="M933 37.3h9.4v16.1H933z"/><path transform="rotate(-43.4 937.735 45.227)" class="st0" d="M935.5 38.2h4.5v14.1h-4.5z"/><path transform="rotate(-32.016 713.415 63.423)" class="st1" d="M708.7 55.4h9.4v16.1h-9.4z"/><path transform="rotate(-16.51 713.354 63.346)" class="st0" d="M711.1 56.3h4.5v14.1h-4.5z"/><path transform="rotate(-35.423 1210.267 57.273)" class="st0" d="M1208 50.2h4.5v14.1h-4.5z"/><path transform="rotate(-58.239 469.633 17.741)" class="st1" d="M465 9.7h9.4v16.1H465z"/><path transform="rotate(-42.718 469.662 17.752)" class="st0" d="M467.4 10.7h4.5v14.1h-4.5z"/><path transform="rotate(-16.903 749.534 251.88)" class="st0" d="M747.3 244.8h4.5v14.1h-4.5z"/><path transform="rotate(-58.862 597.935 152.104)" class="st0" d="M595.7 145h4.5v14.1h-4.5z"/><path transform="rotate(-28.813 1170.975 272.094)" class="st1" d="M1166.3 264h9.4v16.1h-9.4z"/><path transform="rotate(-13.295 1170.929 272.218)" class="st0" d="M1168.7 265.1h4.5v14.1h-4.5z"/><path class="st2" d="M41.3 665l3.2 2.2-5.7 12.3-3.3-2.3z"/><path transform="rotate(-74.068 409.807 30.642)" class="st0" d="M407.6 23.6h4.5v14.1h-4.5z"/><path transform="rotate(-85.51 191.2 8.34) scale(.99997)" class="st1" d="M183.2 3.6h16.1V13h-16.1z"/><path transform="rotate(-69.989 191.176 8.457)" class="st0" d="M184.1 6.2h14.1v4.5h-14.1z"/><path transform="rotate(-76.738 1143.66 60.46)" class="st0" d="M1136.6 58.2h14.1v4.5h-14.1z"/><path transform="rotate(-14.288 25.148 147.848)" class="st0" d="M22.9 140.8h4.5v14.1h-4.5z"/><path transform="rotate(-64.38 1110.118 168.502)" class="st0" d="M1107.9 161.5h4.5v14.1h-4.5z"/><path transform="rotate(-18.821 879.651 108.744)" class="st0" d="M877.4 101.7h4.5v14.1h-4.5z"/><path transform="rotate(-46.649 583.025 40.727)" class="st1" d="M578.4 32.7h9.4v16.1h-9.4z"/><path transform="rotate(-31.13 582.942 40.732)" class="st0" d="M580.7 33.7h4.5v14.1h-4.5z"/><path transform="rotate(-50.417 570.194 239.629)" class="st0" d="M567.9 232.6h4.5v14.1h-4.5z"/><path transform="rotate(-70.001 1285.33 224.214)" class="st0" d="M1283.1 217.2h4.5v14.1h-4.5z"/><path transform="rotate(-57.891 246.532 77.196)" class="st0" d="M244.3 70.1h4.5v14.1h-4.5z"/><path transform="rotate(-60.382 142.972 71.526)" class="st1" d="M134.9 66.8H151v9.4h-16.1z"/><path transform="rotate(-44.871 142.936 71.458)" class="st0" d="M135.9 69.2H150v4.5h-14.1z"/><path transform="rotate(-1.812 817.368 20.956)" class="st0" d="M814.9 14.3h4.5v14.1h-4.5z"/><path transform="rotate(-25.028 52.047 240.349)" class="st0" d="M49.8 233.3h4.5v14.1h-4.5z"/><path transform="rotate(-87.96 865.409 150.127)" class="st0" d="M858.4 147.9h14.1v4.5h-14.1z"/><path transform="rotate(-49.323 825.679 18.007)" class="st0" d="M823.4 11h4.5v14.1h-4.5z"/><path transform="rotate(-70.621 202.564 22.739)" class="st1" d="M194.5 18h16.1v9.4h-16.1z"/><path transform="rotate(-55.103 202.51 22.64)" class="st0" d="M195.5 20.4h14.1v4.5h-14.1z"/><path transform="rotate(-78.89 1092.491 68.848)" class="st0" d="M1085.5 66.6h14.1v4.5h-14.1z"/><path transform="rotate(-10.091 960.552 80.25)" class="st0" d="M958.3 73.2h4.5v14.1h-4.5z"/><path transform="rotate(-49.25 1238.737 78.76)" class="st0" d="M1236.6 71.7h4.5v14.1h-4.5z"/><path transform="rotate(-75.547 1211.454 189.652)" class="st0" d="M1204.4 187.4h14.2v4.5h-14.2z"/><path transform="rotate(-.13 835.64 237.361)" class="st0" d="M833.4 230.3h4.5v14.1h-4.5z"/><path transform="rotate(-4.62 209.664 306.185) scale(1.00005)" class="st0" d="M207.4 299.1h4.5v14.1h-4.5z"/><path transform="rotate(-37.3 242.363 104.844)" class="st0" d="M240.1 97.8h4.5v14.1h-4.5z"/><path transform="rotate(-65.032 70.946 481.267)" class="st0" d="M63.9 479H78v4.5H63.9z"/><path transform="rotate(-75.724 1003.605 240.968)" class="st1" d="M995.5 236.3h16.1v9.4h-16.1z"/><path transform="rotate(-60.205 1003.515 240.94)" class="st0" d="M996.5 238.7h14.1v4.5h-14.1z"/><path transform="rotate(-29.038 464.894 99.243)" class="st1" d="M460.2 91.2h9.4v16.1h-9.4z"/><path transform="rotate(-13.526 464.85 99.249)" class="st0" d="M462.6 92.2h4.5v14.1h-4.5z"/><path transform="rotate(-52.549 170.816 211.162)" class="st0" d="M168.6 204.1h4.5v14.1h-4.5z"/><path transform="rotate(-70.677 170.644 389.817)" class="st0" d="M163.6 387.6h14.1v4.5h-14.1z"/><path transform="rotate(-19.456 525.367 293.042)" class="st0" d="M523.1 286h4.5v14.1h-4.5z"/><path transform="rotate(-56.59 729.27 312.48)" class="st0" d="M727 305.4h4.5v14.1H727z"/><path transform="rotate(-81.478 943.18 322.168)" class="st1" d="M938.5 314.1h9.4v16.1h-9.4z"/><path transform="rotate(-65.965 943.102 322.158)" class="st0" d="M940.9 315.1h4.5v14.1h-4.5z"/><path transform="rotate(-65.89 698.657 129.732)" class="st0" d="M691.6 127.5h14.1v4.5h-14.1z"/><path transform="rotate(-72.002 611.93 279.542)" class="st3" d="M603.9 274.5H620v10.1h-16.1z"/><path transform="rotate(-53.06 611.954 279.569)" class="st4" d="M604.9 277.3H619v4.5h-14.1z"/><path transform="rotate(-72.002 405.93 87.84)" class="st3" d="M397.9 82.8H414v10.1h-16.1z"/><path transform="rotate(-53.06 405.892 87.946)" class="st4" d="M398.9 85.7H413v4.5h-14.1z"/><path transform="rotate(-72.002 370.141 289.578)" class="st3" d="M362.1 284.5h16.1v10.1h-16.1z"/><path transform="rotate(-53.06 370.156 289.598)" class="st4" d="M363.1 287.4h14.1v4.5h-14.1z"/><path transform="rotate(-53.822 565.614 176.983)" class="st3" d="M557.6 171.9h16.1V182h-16.1z"/><path transform="rotate(-34.885 565.53 177.069)" class="st4" d="M558.5 174.8h14.1v4.5h-14.1z"/><path transform="rotate(-53.822 494.325 153.587)" class="st3" d="M486.3 148.5h16.1v10.1h-16.1z"/><path transform="rotate(-34.885 494.24 153.67)" class="st4" d="M487.2 151.4h14.1v4.5h-14.1z"/><path transform="rotate(-61.725 357.725 347.647)" class="st3" d="M349.7 342.6h16.1v10.1h-16.1z"/><path transform="rotate(-42.787 357.731 347.62)" class="st4" d="M350.7 345.4h14.1v4.5h-14.1z"/><path transform="rotate(-61.725 431.56 361.068)" class="st3" d="M423.5 356h16.1v10.1h-16.1z"/><path transform="rotate(-42.787 431.55 361.037)" class="st4" d="M424.5 358.8h14.1v4.5h-14.1z"/><path transform="rotate(-77.044 273.677 217.81)" class="st3" d="M268.6 209.8h10.1v16.1h-10.1z"/><path transform="rotate(-58.103 273.681 217.807)" class="st4" d="M271.4 210.8h4.5v14.1h-4.5z"/><path transform="rotate(-69.591 272.25 280.228)" class="st3" d="M267.2 272.2h10.1v16.1h-10.1z"/><path transform="rotate(-50.653 272.25 280.223)" class="st4" d="M270 273.2h4.5v14.1H270z"/><path transform="rotate(-72.002 84.006 47.785)" class="st3" d="M76 42.7h16.1v10.1H76z"/><path transform="rotate(-53.06 83.966 47.876)" class="st4" d="M76.9 45.6H91v4.5H76.9z"/><path transform="rotate(-72.002 88.308 261.04)" class="st3" d="M80.3 256h16.1v10.1H80.3z"/><path transform="rotate(-53.06 88.296 261.052)" class="st4" d="M81.2 258.8h14.1v4.5H81.2z"/><path transform="rotate(-72.002 690.562 319.564)" class="st3" d="M682.5 314.5h16.1v10.1h-16.1z"/><path transform="rotate(-53.06 690.54 319.657)" class="st4" d="M683.5 317.4h14.1v4.5h-14.1z"/><path transform="rotate(-72.002 624.78 522.81)" class="st3" d="M616.8 517.8h16.1v10.1h-16.1z"/><path transform="rotate(-53.06 624.783 522.828)" class="st4" d="M617.8 520.6h14.1v4.5h-14.1z"/><path transform="rotate(-62.128 918.725 302.571)" class="st3" d="M910.7 297.5h16.1v10.1h-16.1z"/><path transform="rotate(-43.189 918.714 302.557)" class="st4" d="M911.7 300.3h14.1v4.5h-14.1z"/><path transform="rotate(-72.002 1129.77 454.039)" class="st3" d="M1121.8 449h16.1v10.1h-16.1z"/><path transform="rotate(-53.06 1129.815 454.06)" class="st4" d="M1122.8 451.8h14.1v4.5h-14.1z"/><path transform="rotate(-72.002 799.264 399.696)" class="st3" d="M791.2 394.7h16.1v10.1h-16.1z"/><path transform="rotate(-53.06 799.3 399.702)" class="st4" d="M792.3 397.5h14.1v4.5h-14.1z"/><path transform="rotate(-72.002 784.99 14.877)" class="st3" d="M777 9.8h16.1v10.1H777z"/><path transform="rotate(-53.06 785.021 14.888)" class="st4" d="M778 12.6h14.1v4.5H778z"/><path transform="rotate(-72.002 374.428 93.58)" class="st3" d="M366.4 88.5h16.1v10.1h-16.1z"/><path transform="rotate(-53.06 374.445 93.596)" class="st4" d="M367.4 91.3h14.1v4.5h-14.1z"/><path transform="rotate(-72.002 1046.817 210.349)" class="st3" d="M1038.8 205.3h16.1v10.1h-16.1z"/><path transform="rotate(-53.06 1046.847 210.372)" class="st4" d="M1039.8 208.1h14.1v4.5h-14.1z"/><path transform="rotate(-72.002 796.423 33.517)" class="st3" d="M788.4 28.5h16.1v10.1h-16.1z"/><path transform="rotate(-53.06 796.441 33.523)" class="st4" d="M789.4 31.3h14.1v4.5h-14.1z"/><path transform="rotate(-72.002 1029.612 122.202)" class="st3" d="M1021.6 117.2h16.1v10.1h-16.1z"/><path transform="rotate(-53.06 1029.637 122.21)" class="st4" d="M1022.6 120h14.1v4.5h-14.1z"/><path transform="rotate(-72.002 734.924 126.493)" class="st3" d="M726.9 121.4H743v10.1h-16.1z"/><path transform="rotate(-53.06 734.944 126.505)" class="st4" d="M727.9 124.3H742v4.5h-14.1z"/><path transform="rotate(-72.002 817.855 203.703)" class="st3" d="M809.8 198.7h16.1v10.1h-16.1z"/><path transform="rotate(-53.06 817.892 203.705)" class="st4" d="M810.9 201.5H825v4.5h-14.1z"/><path transform="rotate(-36.628 378.85 190.27)" class="st3" d="M370.8 185.2h16.1v10.1h-16.1z"/><path transform="rotate(-17.687 378.847 190.268)" class="st4" d="M371.8 188h14.1v4.5h-14.1z"/><path transform="rotate(-45.725 455.837 237.012)" class="st3" d="M447.8 232h16.1v10.1h-16.1z"/><path transform="rotate(-26.785 455.83 237.06)" class="st4" d="M448.8 234.8h14.1v4.5h-14.1z"/><path transform="rotate(-54.816 540.433 267.988)" class="st3" d="M532.4 262.9h16.1V273h-16.1z"/><path transform="rotate(-35.879 540.434 267.926)" class="st4" d="M533.4 265.7h14.1v4.5h-14.1z"/><path transform="rotate(-50.007 344.828 167.957)" class="st3" d="M339.8 159.9h10.1V176h-10.1z"/><path transform="rotate(-31.074 344.82 167.94)" class="st4" d="M342.6 160.9h4.5V175h-4.5z"/><path transform="rotate(-50.007 616.523 398.935)" class="st3" d="M611.5 390.9h10.1V407h-10.1z"/><path transform="rotate(-31.074 616.479 398.912)" class="st4" d="M614.3 391.9h4.5V406h-4.5z"/><path transform="rotate(-72.002 1028.2 74.967)" class="st3" d="M1020.2 69.9h16.1V80h-16.1z"/><path transform="rotate(-53.06 1028.233 74.982)" class="st4" d="M1021.2 72.7h14.1v4.5h-14.1z"/><path transform="rotate(-72.002 700.604 93.558)" class="st3" d="M692.6 88.5h16.1v10.1h-16.1z"/><path transform="rotate(-53.06 700.634 93.576)" class="st4" d="M693.6 91.3h14.1v4.5h-14.1z"/><path transform="rotate(-72.002 680.565 186.617)" class="st3" d="M672.5 181.6h16.1v10.1h-16.1z"/><path transform="rotate(-53.06 680.572 186.629)" class="st4" d="M673.5 184.4h14.1v4.5h-14.1z"/><path transform="rotate(-72.002 1158.38 332.452)" class="st3" d="M1150.4 327.4h16.1v10.1h-16.1z"/><path transform="rotate(-53.06 1158.42 332.47)" class="st4" d="M1151.4 330.2h14.1v4.5h-14.1z"/><path transform="rotate(-72.002 982.44 106.468)" class="st3" d="M974.4 101.4h16.1v10.1h-16.1z"/><path transform="rotate(-53.06 982.462 106.488)" class="st4" d="M975.5 104.2h14.1v4.5h-14.1z"/><path transform="rotate(-40.562 880.938 142.827)" class="st3" d="M875.9 134.8H886v16.1h-10.1z"/><path transform="rotate(-21.624 880.936 142.837)" class="st4" d="M878.7 135.8h4.5v14.1h-4.5z"/><path transform="rotate(-72.002 1269.994 50.626)" class="st3" d="M1262 45.6h16.1v10.1H1262z"/><path transform="rotate(-53.06 1270.035 50.65)" class="st4" d="M1263 48.4h14.1v4.5H1263z"/><path transform="rotate(-72.002 1248.51 392.567)" class="st3" d="M1240.5 387.5h16.1v10.1h-16.1z"/><path transform="rotate(-53.06 1248.542 392.586)" class="st4" d="M1241.5 390.4h14.1v4.5h-14.1z"/><path transform="rotate(-3.658 948.328 373.385)" class="st3" d="M943.2 365.3h10.1v16.1h-10.1z"/><path transform="rotate(-74.716 948.266 373.387)" class="st4" d="M941.2 371.1h14.1v4.5h-14.1z"/><path transform="rotate(-32.907 293.56 449.904)" class="st3" d="M285.5 444.9h16.1V455h-16.1z"/><path transform="rotate(-13.964 293.437 449.979)" class="st4" d="M286.4 447.7h14.1v4.5h-14.1z"/><path transform="rotate(-72.002 371.518 614.332)" class="st3" d="M363.5 609.3h16.1v10.1h-16.1z"/><path transform="rotate(-53.06 371.532 614.338)" class="st4" d="M364.5 612.1h14.1v4.5h-14.1z"/><path transform="rotate(-64.432 212.453 86.324)" class="st3" d="M204.4 81.3h16.1v10.1h-16.1z"/><path transform="rotate(-45.486 212.479 86.332)" class="st4" d="M205.4 84.1h14.1v4.5h-14.1z"/><path transform="rotate(-64.432 138.06 76.44)" class="st3" d="M130 71.4h16.1v10.1H130z"/><path transform="rotate(-45.486 138.074 76.447)" class="st4" d="M131 74.2h14.1v4.5H131z"/><path transform="rotate(-81.634 989.213 280.255)" class="st3" d="M981.2 275.2h16.1v10.1h-16.1z"/><path transform="rotate(-62.692 989.251 280.273)" class="st4" d="M982.3 278h14.1v4.5h-14.1z"/><path transform="rotate(-73.954 1051.517 278.758)" class="st3" d="M1043.4 273.7h16.1v10.1h-16.1z"/><path transform="rotate(-55.018 1051.35 278.896)" class="st4" d="M1044.3 276.6h14.1v4.5h-14.1z"/><path transform="rotate(-72.002 136.943 126.502)" class="st3" d="M128.9 121.5H145v10.1h-16.1z"/><path transform="rotate(-53.06 136.952 126.514)" class="st4" d="M129.9 124.3H144v4.5h-14.1z"/><path transform="rotate(-8.428 495.373 89.279)" class="st3" d="M487.3 84.3h16.1v10.1h-16.1z"/><path transform="rotate(-79.496 495.406 89.36)" class="st4" d="M493.1 82.3h4.5v14.1h-4.5z"/><path transform="rotate(-15.464 539.533 163.859)" class="st3" d="M531.5 158.8h16.1v10.1h-16.1z"/><path transform="rotate(-86.52 539.514 163.89)" class="st4" d="M537.3 156.8h4.5v14.1h-4.5z"/><path transform="rotate(-66.884 670.588 246.526)" class="st3" d="M662.5 241.5h16.1v10.1h-16.1z"/><path transform="rotate(-47.947 670.564 246.518)" class="st4" d="M663.5 244.3h14.1v4.5h-14.1z"/><path transform="rotate(-19.305 1137.74 105.54)" class="st3" d="M1129.7 100.5h16.1v10.1h-16.1z"/><path transform="matrix(1 -.00635 .00635 1 -.648 7.231)" class="st4" d="M1130.7 103.3h14.1v4.5h-14.1z"/><path transform="rotate(-48.649 1237.683 176.592)" class="st3" d="M1229.7 171.5h16.1v10.1h-16.1z"/><path transform="rotate(-29.711 1237.663 176.632)" class="st4" d="M1230.6 174.4h14.1v4.5h-14.1z"/><path transform="rotate(-72.002 540.296 59.274)" class="st3" d="M532.3 54.2h16.1v10.1h-16.1z"/><path transform="rotate(-53.06 540.311 59.262)" class="st4" d="M533.3 57h14.1v4.5h-14.1z"/><path transform="rotate(-72.002 551.44 257.065)" class="st3" d="M546.4 249h10.1v16.1h-10.1z"/><path transform="rotate(-53.06 551.458 257.088)" class="st4" d="M549.2 250h4.5v14.1h-4.5z"/><path transform="rotate(-72.002 649.088 14.87)" class="st3" d="M641.1 9.8h16.1v10.1h-16.1z"/><path transform="rotate(-53.06 649.12 14.883)" class="st4" d="M642.1 12.6h14.1v4.5h-14.1z"/><path transform="matrix(.9961 -.08806 .08806 .9961 -5.429 70.621)" class="st3" d="M792.7 88.8h10.1v16.1h-10.1z"/><path transform="rotate(-76.114 797.661 96.792)" class="st4" d="M790.6 94.5h14.1V99h-14.1z"/><path transform="rotate(-15.528 716.042 139.939)" class="st3" d="M711 131.9h10.1V148H711z"/><path transform="rotate(-86.584 716.086 139.935) scale(.99998)" class="st4" d="M709 137.7h14.1v4.5H709z"/><path transform="rotate(-39.968 632.98 218.777)" class="st3" d="M627.9 210.8H638v16.1h-10.1z"/><path transform="rotate(-21.029 632.952 218.873)" class="st4" d="M630.7 211.8h4.5v14.1h-4.5z"/><path transform="rotate(-51.508 1123.212 364.47)" class="st3" d="M1115.2 359.4h16.1v10.1h-16.1z"/><path transform="rotate(-32.567 1123.231 364.454)" class="st4" d="M1116.2 362.2h14.1v4.5h-14.1z"/><path transform="rotate(-76.403 1093.752 156.984)" class="st3" d="M1085.7 151.9h16.1V162h-16.1z"/><path transform="rotate(-57.459 1093.839 157.061)" class="st4" d="M1086.8 154.8h14.1v4.5h-14.1z"/><path transform="rotate(-25.873 289.558 116.444)" class="st3" d="M281.5 111.4h16.1v10.1h-16.1z"/><path transform="rotate(-6.927 289.565 116.42)" class="st4" d="M282.5 114.2h14.1v4.5h-14.1z"/><path transform="rotate(-18.622 251.161 66.845)" class="st3" d="M243.1 61.8h16.1v10.1h-16.1z"/><path transform="matrix(.00556 -1 1 .00556 182.987 317.577)" class="st4" d="M248.9 59.7h4.5v14.1h-4.5z"/><path transform="rotate(-72.002 315.713 67.858)" class="st3" d="M307.7 62.8h16.1v10.1h-16.1z"/><path transform="rotate(-53.06 315.725 67.852)" class="st4" d="M308.7 65.6h14.1v4.5h-14.1z"/><path transform="rotate(-72.002 978.11 173.7)" class="st3" d="M970.1 168.7h16.1v10.1h-16.1z"/><path transform="rotate(-53.06 978.136 173.71)" class="st4" d="M971.1 171.5h14.1v4.5h-14.1z"/></svg>