<svg id="Layer_1" xmlns="http://www.w3.org/2000/svg" viewBox="0 0 1274.7 643.4"><style>.st0{stroke:#3f3f3f;stroke-miterlimit:10}.st0,.st1,.st2{fill:#bdffee}.st2{stroke:#000;stroke-miterlimit:10}.st3{fill:none}.st4{fill:#caefc5;stroke:#3f3f3f;stroke-miterlimit:10}</style><title>confetti-green-2</title><path transform="rotate(-49.5 1044.434 79.266)" class="st0" d="M1042.2 72.1h4.6v14.4h-4.6z"/><path transform="rotate(-22.241 999.553 257.303)" class="st1" d="M991.6 253.6h15.9v7.4h-15.9z"/><path transform="rotate(-28.884 999.602 257.43)" class="st0" d="M992.4 255.1h14.4v4.6h-14.4z"/><path transform="rotate(-75.653 1187.781 363.203)" class="st1" d="M1184.1 355.2h7.4v15.9h-7.4z"/><path transform="rotate(-82.3 1187.747 363.1)" class="st0" d="M1185.5 355.9h4.6v14.4h-4.6z"/><path transform="rotate(-75.048 907.913 514.175)" class="st1" d="M899.9 510.5h15.9v7.4h-15.9z"/><path transform="rotate(-81.692 907.826 514.165)" class="st0" d="M900.6 511.9H915v4.6h-14.4z"/><path transform="rotate(-63.486 372.13 489.004)" class="st1" d="M364.2 485.3h15.9v7.4h-15.9z"/><path transform="rotate(-70.13 372.31 488.907)" class="st0" d="M365.1 486.6h14.4v4.6h-14.4z"/><path transform="rotate(-39.059 299.78 103.046)" class="st1" d="M296.1 95.1h7.4V111h-7.4z"/><path transform="rotate(-45.709 299.814 103.12)" class="st0" d="M297.5 95.9h4.6v14.4h-4.6z"/><path transform="rotate(-37.871 111.553 164.92)" class="st1" d="M103.6 161.2h15.9v7.4h-15.9z"/><path transform="rotate(-44.51 111.61 164.904)" class="st0" d="M104.4 162.6h14.4v4.6h-14.4z"/><path transform="rotate(-17.73 265.729 282.869)" class="st0" d="M258.5 280.6h14.4v4.6h-14.4z"/><path transform="rotate(-41.47 135.682 420.555)" class="st1" d="M132 412.6h7.4v15.9H132z"/><path transform="rotate(-48.118 135.658 420.503)" class="st0" d="M133.4 413.3h4.6v14.4h-4.6z"/><path transform="rotate(-56.799 613.108 625.946)" class="st0" d="M605.9 623.7h14.4v4.6h-14.4z"/><path transform="rotate(-48.807 813.787 373.632)" class="st1" d="M810.1 365.7h7.4v15.9h-7.4z"/><path transform="rotate(-55.45 813.813 373.827)" class="st0" d="M811.5 366.6h4.6V381h-4.6z"/><path transform="rotate(-25.816 1188.682 585.97)" class="st1" d="M1180.7 582.3h15.9v7.4h-15.9z"/><path transform="rotate(-32.471 1188.686 585.696)" class="st0" d="M1181.5 583.4h14.4v4.6h-14.4z"/><path transform="rotate(-84.68 558.024 37.307)" class="st1" d="M554.3 29.4h7.4v15.9h-7.4z"/><path transform="rotate(-1.32 557.963 37.299) scale(.99997)" class="st0" d="M550.8 35h14.4v4.6h-14.4z"/><path transform="rotate(-38.879 97.035 573.315)" class="st1" d="M89.1 569.6H105v7.4H89.1z"/><path transform="rotate(-45.531 97.114 573.299)" class="st0" d="M89.9 571h14.4v4.6H89.9z"/><path transform="rotate(-44.798 521.776 347.704)" class="st1" d="M513.8 344h15.9v7.4h-15.9z"/><path transform="rotate(-51.451 521.847 347.602)" class="st0" d="M514.7 345.3h14.4v4.6h-14.4z"/><path transform="rotate(-87.85 695.54 213.892)" class="st1" d="M691.8 205.9h7.4v15.9h-7.4z"/><path transform="rotate(-4.5 695.486 213.787) scale(.99998)" class="st0" d="M688.3 211.5h14.4v4.6h-14.4z"/><path transform="rotate(-74.443 637.631 417.506)" class="st1" d="M634 409.6h7.4v15.9H634z"/><path transform="rotate(-81.089 637.561 417.523)" class="st0" d="M635.2 410.3h4.6v14.4h-4.6z"/><path transform="rotate(-53.651 425.282 150.723)" class="st1" d="M421.6 142.8h7.4v15.9h-7.4z"/><path transform="rotate(-60.289 425.27 150.803)" class="st0" d="M423 143.6h4.6V158H423z"/><path transform="rotate(-23.109 1233.749 150.362)" class="st1" d="M1225.9 146.7h15.9v7.4h-15.9z"/><path transform="rotate(-29.75 1233.683 150.43)" class="st0" d="M1226.5 148.1h14.4v4.6h-14.4z"/><path transform="rotate(-66.958 92.307 24.167)" class="st1" d="M84.4 20.5h15.9v7.4H84.4z"/><path transform="rotate(-73.609 92.263 24.146)" class="st0" d="M85.1 21.8h14.4v4.6H85.1z"/><path transform="rotate(-45.42 222.563 52.123)" class="st1" d="M214.6 48.4h15.9v7.4h-15.9z"/><path transform="rotate(-52.063 222.514 52.036)" class="st0" d="M215.3 49.7h14.4v4.6h-14.4z"/><path transform="rotate(-55.012 816.171 91.391)" class="st1" d="M808.2 87.7h15.9v7.4h-15.9z"/><path transform="rotate(-61.659 816.221 91.433)" class="st0" d="M809 89.1h14.4v4.6H809z"/><path transform="rotate(-50.559 519.724 97.373)" class="st1" d="M516 89.4h7.4v15.9H516z"/><path transform="rotate(-57.209 519.77 97.337)" class="st2" d="M517.5 90.1h4.6v14.4h-4.6z"/><path transform="rotate(-58.669 854.707 11.19)" class="st2" d="M847.5 8.9h14.4v4.6h-14.4z"/><path transform="rotate(-73.7 1105.794 116.485)" class="st1" d="M1102.1 108.5h7.4v15.9h-7.4z"/><path transform="rotate(-80.38 1106.043 116.637)" class="st2" d="M1103.7 109.4h4.6v14.4h-4.6z"/><path transform="rotate(-15.522 973.957 35.296)" class="st1" d="M966 31.6h15.9V39H966z"/><path transform="rotate(-22.161 974 35.293)" class="st2" d="M966.8 33h14.4v4.6h-14.4z"/><path transform="rotate(-89.82 1234.442 49.094)" class="st2" d="M1232.1 41.9h4.6v14.4h-4.6z"/><path transform="rotate(-81.188 307.661 62.507)" class="st2" d="M305.4 55.3h4.6v14.4h-4.6z"/><path transform="rotate(-65.23 407.565 210.95)" class="st1" d="M403.9 203h7.4v15.9h-7.4z"/><path transform="rotate(-71.88 407.647 211.008)" class="st2" d="M405.3 203.8h4.6v14.4h-4.6z"/><path transform="rotate(-2.819 218.858 224.6) scale(1.00001)" class="st1" d="M210.9 220.9h15.9v7.4h-15.9z"/><path transform="rotate(-9.46 218.831 224.471)" class="st2" d="M211.6 222.2H226v4.6h-14.4z"/><path transform="rotate(-21.709 948.847 143.018)" class="st2" d="M941.7 140.7h14.4v4.6h-14.4z"/><path transform="rotate(-37.486 402.024 91.64)" class="st1" d="M398.3 83.7h7.4v15.9h-7.4z"/><path transform="rotate(-44.141 401.887 91.613)" class="st2" d="M399.6 84.4h4.6v14.4h-4.6z"/><path transform="rotate(-58.669 69.823 122.39)" class="st1" d="M61.9 118.7h15.9v7.4H61.9z"/><path transform="rotate(-65.323 69.773 122.261)" class="st2" d="M62.6 120H77v4.6H62.6z"/><path transform="rotate(-50.699 637.516 70.94)" class="st1" d="M629.6 67.2h15.9v7.4h-15.9z"/><path transform="rotate(-57.35 637.463 70.876)" class="st2" d="M630.3 68.6h14.4v4.6h-14.4z"/><path transform="rotate(-18.14 729.839 33.629)" class="st1" d="M721.9 29.9h15.9v7.4h-15.9z"/><path transform="rotate(-24.789 729.807 33.6)" class="st2" d="M722.6 31.3H737v4.6h-14.4z"/><path transform="rotate(-65.298 1073.336 253.535)" class="st1" d="M1065.4 249.8h15.9v7.4h-15.9z"/><path transform="rotate(-71.953 1073.182 253.555)" class="st2" d="M1066 251.3h14.4v4.6H1066z"/><path transform="rotate(-12.78 1000.95 144.399)" class="st1" d="M993 140.7h15.9v7.4H993z"/><path transform="rotate(-19.433 1000.885 144.299)" class="st2" d="M993.7 142h14.4v4.6h-14.4z"/><path transform="matrix(.9964 -.08506 .08506 .9964 -20.611 42.046)" class="st2" d="M475.9 260.6h14.4v4.6h-14.4z"/><path transform="rotate(-65.442 678.723 129.976)" class="st1" d="M675 122h7.4v15.9H675z"/><path transform="rotate(-72.091 678.728 130.058)" class="st2" d="M676.4 122.9h4.6v14.4h-4.6z"/><path transform="rotate(-42.301 565.131 85.29)" class="st1" d="M561.4 77.3h7.4v15.9h-7.4z"/><path transform="rotate(-48.941 565.116 85.361)" class="st2" d="M562.8 78.2h4.6v14.4h-4.6z"/><path transform="rotate(-60.02 48.439 153.936)" class="st1" d="M44.7 146h7.4v15.9h-7.4z"/><path transform="rotate(-66.66 48.476 154.004)" class="st2" d="M46.2 146.8h4.6v14.4h-4.6z"/><path transform="rotate(-29.669 366.447 21.794)" class="st1" d="M358.5 18.1h15.9v7.4h-15.9z"/><path transform="rotate(-36.322 366.515 21.795)" class="st2" d="M359.3 19.5h14.4v4.6h-14.4z"/><path transform="rotate(-37.899 543.853 183.989)" class="st1" d="M535.9 180.3h15.9v7.4h-15.9z"/><path transform="rotate(-44.55 543.826 184.044)" class="st2" d="M536.6 181.7H551v4.6h-14.4z"/><path transform="rotate(-76.632 1034.957 140.424)" class="st1" d="M1031.3 132.5h7.4v15.9h-7.4z"/><path transform="rotate(-83.281 1034.904 140.492)" class="st2" d="M1032.6 133.3h4.6v14.4h-4.6z"/><path transform="rotate(-85.94 938.438 177.956) scale(1.00001)" class="st2" d="M936.1 170.8h4.6v14.4h-4.6z"/><path transform="rotate(-51.031 383.484 149.516)" class="st1" d="M375.5 145.8h15.9v7.4h-15.9z"/><path transform="rotate(-57.67 383.537 149.505)" class="st2" d="M376.3 147.2h14.4v4.6h-14.4z"/><path transform="rotate(-34.71 16.99 70.885)" class="st2" d="M9.8 68.6h14.4v4.6H9.8z"/><path transform="rotate(-77.249 58.423 42.645)" class="st1" d="M54.7 34.7h7.4v15.9h-7.4z"/><path transform="rotate(-83.898 58.419 42.7)" class="st2" d="M56.1 35.5h4.6v14.4h-4.6z"/><path transform="rotate(-87.01 677.233 9.336) scale(.99996)" class="st1" d="M669.3 5.6h15.9V13h-15.9z"/><path transform="matrix(.998 -.06368 .06368 .998 .208 43.17)" class="st2" d="M675 11.1h4.6v14.4H675z"/><path transform="rotate(-73.178 1043.544 14.804)" class="st2" d="M1036.3 12.5h14.4v4.6h-14.4z"/><path transform="rotate(-21.019 1148.696 84.87)" class="st2" d="M1141.5 82.6h14.4v4.6h-14.4z"/><path transform="rotate(-44.121 606.29 117.237)" class="st1" d="M602.6 109.3h7.4v15.9h-7.4z"/><path transform="rotate(-50.758 606.34 117.38)" class="st2" d="M604 110.2h4.6v14.4H604z"/><path transform="rotate(-77.819 492.755 139.745)" class="st1" d="M484.8 136.1h15.9v7.4h-15.9z"/><path transform="matrix(.09638 -.9953 .9953 .09638 306.084 616.659)" class="st2" d="M485.5 137.5h14.4v4.6h-14.4z"/><path transform="rotate(-3.242 509.047 52.713)" class="st1" d="M501.1 49H517v7.4h-15.9z"/><path transform="rotate(-9.893 509.105 52.598)" class="st2" d="M501.9 50.3h14.4v4.6h-14.4z"/><path transform="rotate(-39.551 133.723 111.75)" class="st1" d="M130 103.8h7.4v15.9H130z"/><path transform="rotate(-46.203 133.714 111.677)" class="st2" d="M131.4 104.5h4.6v14.4h-4.6z"/><path transform="rotate(-83.177 40.945 321.694)" class="st2" d="M38.6 314.5h4.6v14.4h-4.6z"/><path transform="rotate(-7.563 1015.065 198.322)" class="st1" d="M1007.1 194.7h15.9v7.4h-15.9z"/><path transform="rotate(-14.211 1015.212 198.382)" class="st2" d="M1008 196.1h14.4v4.6H1008z"/><path transform="rotate(-68.981 887.387 177.98)" class="st1" d="M879.5 174.3h15.9v7.4h-15.9z"/><path transform="rotate(-75.629 887.317 178.097)" class="st2" d="M880.1 175.8h14.4v4.6h-14.4z"/><path transform="rotate(-75.629 1113.485 444.22)" class="st2" d="M1106.3 441.9h14.4v4.6h-14.4z"/><path transform="rotate(-52.488 907.907 265.144)" class="st2" d="M905.6 257.9h4.6v14.4h-4.6z"/><path transform="rotate(-58.79 633.387 101.691)" class="st1" d="M625.5 98h15.9v7.4h-15.9z"/><path transform="rotate(-65.442 633.196 101.676)" class="st2" d="M626 99.4h14.4v4.6H626z"/><path transform="rotate(-39.734 438.202 60.988)" class="st1" d="M434.5 53h7.4v16h-7.4z"/><path transform="rotate(-46.451 437.393 60.78)" class="st2" d="M435.1 53.6h4.6V68h-4.6z"/><path transform="rotate(-45.388 1005.136 97.909)" class="st1" d="M997.2 94.2h15.9v7.4h-15.9z"/><path transform="rotate(-52.039 1005.114 98.002)" class="st2" d="M997.9 95.7h14.4v4.6h-14.4z"/><path transform="rotate(-49.949 729.825 72.856)" class="st1" d="M721.9 69.2h15.9v7.4h-15.9z"/><path transform="rotate(-56.593 729.806 72.872)" class="st2" d="M722.6 70.6H737v4.6h-14.4z"/><path transform="rotate(-80.16 884.362 107.15)" class="st2" d="M877.2 104.9h14.3v4.6h-14.3z"/><path transform="rotate(-20.446 779.463 53.646)" class="st1" d="M771.5 50h15.9v7.4h-15.9z"/><path transform="rotate(-27.089 779.51 53.787)" class="st2" d="M772.3 51.5h14.4v4.6h-14.4z"/><path transform="rotate(-69.341 1240.714 205.3)" class="st1" d="M1232.8 201.6h15.9v7.4h-15.9z"/><path transform="rotate(-75.978 1240.885 205.24)" class="st2" d="M1233.7 202.9h14.4v4.6h-14.4z"/><path transform="rotate(-74.58 1073.304 184.273)" class="st2" d="M1066.1 182h14.4v4.6h-14.4z"/><path transform="rotate(-74.58 747.996 300.232)" class="st2" d="M740.8 297.9h14.4v4.6h-14.4z"/><path transform="rotate(-81.53 1156.276 209.89)" class="st2" d="M1154 202.7h4.6v14.4h-4.6z"/><path transform="rotate(-42.6 163.452 174.82)" class="st1" d="M155.5 171.1h15.9v7.4h-15.9z"/><path transform="rotate(-49.262 163.54 174.791)" class="st2" d="M156.3 172.5h14.4v4.6h-14.4z"/><path transform="rotate(-61.738 605.649 210.826)" class="st2" d="M603.3 203.6h4.6V218h-4.6z"/><path transform="rotate(-53.028 1012.593 410.724)" class="st3" d="M1008.9 402.8h7.4v15.9h-7.4z"/><path transform="rotate(-59.675 1012.673 410.637)" class="st4" d="M1010.4 403.5h4.6v14.4h-4.6z"/><path transform="rotate(-72.002 288.04 272.603)" class="st3" d="M281.9 264.5h12.2v16.2h-12.2z"/><path transform="rotate(-43.739 288.141 272.662)" class="st2" d="M285.8 265.5h4.6v14.4h-4.6z"/><path transform="rotate(-72.002 397.192 274.543)" class="st3" d="M391.1 266.5h12.2v16.2h-12.2z"/><path transform="rotate(-43.739 397.272 274.45)" class="st2" d="M395 267.3h4.6v14.4H395z"/><path transform="rotate(-27 148.62 337.303)" class="st3" d="M140.5 331.2h16.2v12.2h-16.2z"/><path transform="rotate(-88.739 148.673 337.278) scale(1.00004)" class="st2" d="M146.4 330.1h4.6v14.4h-4.6z"/><path transform="rotate(-72.002 826.366 148.2)" class="st3" d="M820.3 140.1h12.2v16.2h-12.2z"/><path transform="rotate(-43.739 826.408 148.217)" class="st2" d="M824.1 141h4.6v14.4h-4.6z"/><path transform="rotate(-10.199 806.772 216.27)" class="st3" d="M800.4 208.2h12.2v16.2h-12.2z"/><path transform="rotate(-71.94 806.572 216.256)" class="st2" d="M799.3 214h14.4v4.6h-14.4z"/><path transform="rotate(-72.002 1027.68 266.99)" class="st3" d="M1021.6 258.9h12.2v16.2h-12.2z"/><path transform="rotate(-43.739 1027.709 266.97)" class="st2" d="M1025.4 259.8h4.6v14.4h-4.6z"/><path transform="rotate(-72.002 931.709 52.302)" class="st3" d="M925.6 44.2h12.2v16.2h-12.2z"/><path transform="rotate(-43.739 931.79 52.213)" class="st2" d="M929.5 45h4.6v14.4h-4.6z"/><path transform="rotate(-72.002 1198.977 95.536)" class="st3" d="M1192.9 87.4h12.2v16.2h-12.2z"/><path transform="rotate(-43.739 1199.013 95.53)" class="st2" d="M1196.7 88.4h4.6v14.4h-4.6z"/><path transform="rotate(-72.002 239.122 112.546)" class="st3" d="M233 104.4h12.2v16.2H233z"/><path transform="rotate(-43.739 239.184 112.458)" class="st2" d="M236.9 105.3h4.6v14.4h-4.6z"/><path transform="rotate(-72.002 278.712 155.939)" class="st3" d="M272.6 147.8h12.2V164h-12.2z"/><path transform="rotate(-43.739 278.724 155.96)" class="st2" d="M276.4 148.8h4.6v14.4h-4.6z"/><path transform="rotate(-72.002 120.093 235.363)" class="st3" d="M114 227.3h12.2v16.2H114z"/><path transform="rotate(-43.739 120.078 235.373)" class="st2" d="M117.8 228.2h4.6v14.4h-4.6z"/><path transform="rotate(-2.471 165.959 30.975) scale(1.00003)" class="st3" d="M157.9 24.9h16.2v12.2h-16.2z"/><path transform="rotate(-64.208 165.928 30.945)" class="st2" d="M163.6 23.7h4.6v14.4h-4.6z"/><path transform="rotate(-79.415 100.604 151.07)" class="st3" d="M92.5 145h16.2v12.2H92.5z"/><path transform="rotate(-51.154 100.577 151.084)" class="st2" d="M93.4 148.8h14.4v4.6H93.4z"/><path transform="rotate(-82.166 410.555 159.99)" class="st3" d="M402.5 153.9h16.2v12.2h-16.2z"/><path transform="rotate(-53.905 410.576 160.02)" class="st2" d="M403.4 157.7h14.4v4.6h-14.4z"/><path transform="rotate(-65.083 328.038 52.23)" class="st3" d="M321.9 44.1h12.2v16.2h-12.2z"/><path transform="rotate(-36.825 328.009 52.194)" class="st2" d="M325.7 45h4.6v14.4h-4.6z"/><path transform="rotate(-83.362 233.164 59.543)" class="st3" d="M227.1 51.4h12.2v16.2h-12.2z"/><path transform="rotate(-55.096 233.203 59.476)" class="st2" d="M230.9 52.3h4.6v14.4h-4.6z"/><path transform="rotate(-32.221 1186.622 85.051)" class="st3" d="M1180.5 77h12.2v16.2h-12.2z"/><path transform="rotate(-3.962 1186.576 84.986) scale(.99999)" class="st2" d="M1184.3 77.8h4.6v14.4h-4.6z"/><path transform="rotate(-77.608 1075.583 51.791)" class="st3" d="M1069.5 43.7h12.2v16.2h-12.2z"/><path transform="rotate(-49.347 1075.57 51.755)" class="st2" d="M1073.3 44.6h4.6V59h-4.6z"/><path transform="rotate(-27.285 756.392 143.621)" class="st3" d="M748.3 137.5h16.2v12.2h-16.2z"/><path transform="matrix(.01701 -.9999 .9999 .01701 599.956 897.359)" class="st2" d="M754.1 136.4h4.6v14.4h-4.6z"/><path transform="rotate(-72.002 929.813 110.552)" class="st3" d="M923.7 102.5h12.2v16.2h-12.2z"/><path transform="rotate(-43.739 929.868 110.537)" class="st2" d="M927.6 103.4h4.6v14.4h-4.6z"/><path transform="rotate(-72.585 582.732 170.695)" class="st3" d="M576.7 162.6h12.2v16.2h-12.2z"/><path transform="rotate(-44.324 582.725 170.734)" class="st2" d="M580.4 163.5h4.6v14.4h-4.6z"/><path transform="rotate(-68.579 657.652 170.396)" class="st3" d="M651.5 162.3h12.2v16.2h-12.2z"/><path transform="rotate(-69.127 657.608 170.415)" class="st2" d="M650.5 168.1h14.4v4.6h-14.4z"/><path transform="rotate(-68.579 736.068 175.063)" class="st3" d="M729.9 167h12.2v16.2h-12.2z"/><path transform="rotate(-40.315 736.162 175.104)" class="st2" d="M733.9 167.9h4.6v14.4h-4.6z"/><path transform="rotate(-72.002 203.42 95.565)" class="st3" d="M197.3 87.5h12.2v16.2h-12.2z"/><path transform="rotate(-43.739 203.422 95.578)" class="st2" d="M201.1 88.4h4.6v14.4h-4.6z"/><path transform="rotate(-22.215 196.613 151.617)" class="st3" d="M190.5 143.5h12.2v16.2h-12.2z"/><path transform="rotate(-83.955 196.658 151.634)" class="st2" d="M189.5 149.3h14.4v4.6h-14.4z"/><path transform="rotate(-50.201 202.309 163.026)" class="st3" d="M196.2 154.9h12.2v16.2h-12.2z"/><path transform="rotate(-21.936 202.305 163.01)" class="st2" d="M200 155.8h4.6v14.4H200z"/><path transform="rotate(-50.201 248.722 471.497)" class="st3" d="M242.6 463.4h12.2v16.2h-12.2z"/><path transform="rotate(-21.936 248.724 471.48)" class="st2" d="M246.4 464.3h4.6v14.4h-4.6z"/><path transform="rotate(-72.002 1148.705 144.29)" class="st3" d="M1142.6 136.2h12.2v16.2h-12.2z"/><path transform="rotate(-43.739 1148.721 144.255)" class="st2" d="M1146.4 137.1h4.6v14.4h-4.6z"/><path transform="rotate(-72.404 518.886 539.2)" class="st3" d="M510.8 533.1H527v12.2h-16.2z"/><path transform="rotate(-44.141 518.895 539.215)" class="st2" d="M511.7 536.9h14.4v4.6h-14.4z"/><path transform="rotate(-72.002 461.192 265.124)" class="st3" d="M455.1 257h12.2v16.2h-12.2z"/><path transform="rotate(-43.739 461.203 265.106)" class="st2" d="M458.9 257.9h4.6v14.4h-4.6z"/><path transform="rotate(-72.002 321.973 184.145)" class="st3" d="M315.9 176.1h12.2v16.2h-12.2z"/><path transform="rotate(-43.739 322 184.157)" class="st2" d="M319.7 177h4.6v14.4h-4.6z"/><path transform="rotate(-72.002 1181.388 292.669)" class="st3" d="M1175.3 284.6h12.2v16.2h-12.2z"/><path transform="rotate(-43.739 1181.441 292.662)" class="st2" d="M1179.1 285.5h4.6v14.4h-4.6z"/></svg>