<svg xmlns="http://www.w3.org/2000/svg" viewBox="0 0 920 667"><title>javascript-tutorial-header-crop</title><path fill="#6179cd" d="M0 0h920v667H0z" data-name="bg"/><g data-name="Layer 1"><g data-name="&lt;Group&gt;"><path d="M-15.16 24C7.78-9.11 37.12-28.29 50.37-18.84s5.41 44-17.53 77.09-65.54 42.84-65.54 42.84S-38.1 57.12-15.16 24z" fill="#4fc6b7" data-name="&lt;Group&gt;"/><path d="M-15.16 24c-22.94 33.12-17.53 77.09-17.53 77.09L50.37-18.84C37.12-28.29 7.78-9.11-15.16 24z" data-name="&lt;Group&gt;" opacity=".13"/></g><ellipse cx="836.75" cy="41.76" rx="95.12" ry="38.33" transform="rotate(-18.48 836.905 41.756)" fill="#4fc6b7" data-name="&lt;Group&gt;"/><path d="M824.6 5.41c-49.82 16.65-78.06 66.51-78.06 66.51L927 11.61c-6.75-20.08-52.58-22.86-102.4-6.2z" data-name="&lt;Group&gt;" opacity=".13"/><rect x="825.12" y="437.25" width="79.25" height="207.52" rx="35.59" ry="35.59" fill="#3ebdb2" data-name="&lt;Group&gt;"/><path d="M904.37 605.15V476.87c2-23.79-18.51-42.21-39.62-39.62v207.52a39.74 39.74 0 0 0 39.62-39.62z" fill="#34a799" data-name="&lt;Group&gt;"/><path d="M824.66 616.45v-71a29.34 29.34 0 0 0-29.26-29.25 29.34 29.34 0 0 0-29.26 29.26v71z" fill="#3ebdb2" data-name="&lt;Group&gt;"/><path d="M824.66 616.45v-71a29.34 29.34 0 0 0-29.26-29.25v100.25z" fill="#34a799" data-name="&lt;Group&gt;"/><path fill="#131d32" d="M881.913 496.67l7.827-6.91 1.423 1.611-7.827 6.91zm-37.877 46.953l7.827-6.91 1.423 1.612-7.827 6.91zm.389 37.984l7.827-6.91 1.423 1.612-7.827 6.91zm-67.632-36.681l7.826-6.91 1.423 1.612-7.826 6.91zm65.495-40.596l1.423-1.612 7.83 6.905-1.423 1.613zm42.584 59.51l1.422-1.612 7.83 6.905-1.423 1.613zm-1.799-32.994l1.423-1.612 7.83 6.905-1.423 1.613zm-2.121-70.976l1.422-1.612 7.83 6.905-1.422 1.612zM776.79 569.45l1.422-1.612 7.83 6.905-1.422 1.613zm26.562-9.735l7.826-6.91 1.423 1.612-7.826 6.91zm-.002 26.658l7.826-6.91 1.423 1.612-7.826 6.91zm40.916-111.228l7.827-6.91 1.423 1.612-7.827 6.91z" data-name="&lt;Group&gt;"/><circle cx="730.43" cy="109.16" r="69.68" fill="#ead981"/><path d="M731.11 39.47v139.37a69.68 69.68 0 0 0 0-139.37z" opacity=".08"/><g data-name="&lt;Group&gt;"><ellipse cx="31.37" cy="109.91" rx="77.81" ry="31.36" transform="rotate(-72.16 31.373 109.906)" fill="#4fc6b7" data-name="&lt;Group&gt;"/><ellipse cx="130.63" cy="33.69" rx="34.31" ry="85.13" transform="rotate(-65.71 130.633 33.689)" fill="#4fc6b7" data-name="&lt;Group&gt;"/><path d="M1.52 100.3c-13.17 40.91 6 83.68 6 83.68L55.21 35.84C38.72 30.53 14.69 59.39 1.52 100.3zM122.9 66.59c39.88 17.26 85.85 2.2 85.85 2.2L64.35 6.28C56.81 22.33 83 49.33 122.9 66.59z" data-name="&lt;Group&gt;" opacity=".13"/><ellipse cx="82.99" cy="75.98" rx="39.75" ry="98.64" transform="rotate(-31.68 82.996 75.988)" fill="#4fc6b7" data-name="&lt;Group&gt;"/><path d="M49.17 96.86c28.61 46.36 85.63 63.06 85.63 63.06L31.19-8C12.5 3.57 20.55 50.5 49.17 96.86z" data-name="&lt;Group&gt;" opacity=".13"/></g><g data-name="&lt;Group&gt;"><path d="M258.19 553h36.29a15 15 0 0 0 15-15 15 15 0 0 0-15-15h-36.29z" fill="#3ebdb2" data-name="&lt;Group&gt;"/><path d="M315.71 537.13V508.6c0-7.56-6.69-13.75-14.87-13.75s-14.87 6.19-14.87 13.75v28.53z" fill="#3ebdb2" data-name="&lt;Group&gt;"/><path d="M315.71 538.1v-29.22c0-7.72-6.79-14-15.1-14v43.22z" fill="#34a799" data-name="&lt;Group&gt;"/><path d="M255.65 553.68h42.54c9.64 0 17.53-7.42 17.53-16.49h-60.07z" fill="#34a799" data-name="&lt;Group&gt;"/></g><g data-name="&lt;Group&gt;"><path d="M234.08 537.73h-36.29a15 15 0 0 1-15-15 15 15 0 0 1 15-15h36.29z" fill="#3ebdb2" data-name="&lt;Group&gt;"/><path d="M176.56 522.85v-57.74a15 15 0 0 1 14.87-15 15 15 0 0 1 14.87 15v57.74z" fill="#3ebdb2" data-name="&lt;Group&gt;"/><path d="M176.56 523.9v-58.49a15.23 15.23 0 0 1 15.1-15.27v73.76z" fill="#34a799" data-name="&lt;Group&gt;"/><path d="M234.08 538.36h-40.74a16.69 16.69 0 0 1-16.78-16.49h57.52z" fill="#34a799" data-name="&lt;Group&gt;"/></g><path fill="#131d32" d="M234.165 550.358l7.392-6.526 1.343 1.522-7.391 6.525z" data-name="&lt;Group&gt;"/><rect x="218.24" y="425.57" width="57.2" height="231.62" rx="28.6" ry="28.6" fill="#3ebdb2" data-name="&lt;Group&gt;"/><path d="M275.44 613V469.79c2.26-26.14-4.26-41.54-28.6-44.22v231.62c15.9-1.82 31.16-6.9 28.6-44.19z" fill="#34a799" data-name="&lt;Group&gt;"/><path fill="#131d32" d="M256.347 505.39l7.392-6.526 1.343 1.522-7.391 6.525zm-27.949 79.942l7.392-6.525 1.343 1.522-7.391 6.525zm2.092-94.383l1.342-1.522 7.395 6.521-1.342 1.523zm-.008 51.905l7.394-6.522 1.343 1.522-7.395 6.522zm24.503-74.126l7.391-6.526 1.344 1.522-7.392 6.525zm-24.493-15.832l7.391-6.526 1.344 1.522-7.392 6.525zm26.494 156.164l7.392-6.526 1.343 1.522-7.391 6.526zm1.689-61.148l1.343-1.522 7.395 6.522-1.343 1.522z" data-name="&lt;Group&gt;"/><g data-name="&lt;Group&gt;"><path fill="#a7acd9" d="M299.54 673.65H194.46l-14.75-89.62h134.57l-14.74 89.62z" data-name="&lt;Group&gt;"/><path fill="#7d89bc" d="M326.75 588.68l-14.5 10.94H181.74l-15.75-10.94h160.76z" data-name="&lt;Group&gt;"/><path fill="#a7acd9" d="M165.99 569.16h160.76v19.52H165.99z" data-name="&lt;Group&gt;"/><path opacity=".11" d="M247.36 569.16v104.49h52.18l12.23-74.03h.48l14.5-10.94v-19.52h-79.39z"/></g><g data-name="&lt;Group&gt;"><path d="M918.41 645.52c-26.14 29.67-56.93 45-68.77 34.29s-.26-43.48 25.88-73.14 68.77-34.29 68.77-34.29.26 43.47-25.88 73.14z" fill="#4fc6b7" data-name="&lt;Group&gt;"/><path d="M918.41 645.52c26.14-29.67 25.88-73.14 25.88-73.14l-94.64 107.43c11.84 10.73 42.63-4.62 68.76-34.29z" data-name="&lt;Group&gt;" opacity=".13"/></g><ellipse cx="131.23" cy="635.41" rx="103.83" ry="41.84" transform="rotate(-14.1 131.187 635.316)" fill="#4fc6b7" data-name="&lt;Group&gt;"/><path d="M141.42 676c55.62-14 90.51-65.87 90.51-65.87L30.53 660.7c5.63 22.41 55.28 29.3 110.89 15.3z" data-name="&lt;Group&gt;" opacity=".13"/><path d="M123.28 607c-34 40.48-73.32 59.49-87.91 42.47s1.12-63.64 35.08-104.11 87.91-42.47 87.91-42.47-1.11 63.65-35.08 104.11z" fill="#4fc6b7" data-name="&lt;Group&gt;"/><path d="M123.28 607c34-40.48 35.08-104.11 35.08-104.11l-123 146.58C50 666.51 89.32 647.5 123.28 607z" data-name="&lt;Group&gt;" opacity=".13"/><ellipse cx="31.39" cy="577.03" rx="103.83" ry="41.84" transform="rotate(-76.29 31.388 577.04)" fill="#4fc6b7" data-name="&lt;Group&gt;"/><path d="M72 586.95c13.59-55.71-16-110.79-16-110.79L6.78 677.9c22.45 5.48 51.67-35.24 65.22-90.95z" data-name="&lt;Group&gt;" opacity=".13"/><ellipse cx="881.56" cy="109.3" rx="107.87" ry="43.47" transform="rotate(-80.68 881.535 109.315)" fill="#4fc6b7" data-name="&lt;Group&gt;"/><path d="M838.66 102.26C829 161 864.08 215.74 864.08 215.74L899 2.85c-23.66-3.85-50.69 40.62-60.34 99.41z" data-name="&lt;Group&gt;" opacity=".13"/><ellipse cx="771.04" cy="621.67" rx="36.23" ry="89.91" transform="rotate(-64.71 771.097 621.678)" fill="#4fc6b7" data-name="&lt;Group&gt;"/><path d="M786.52 588.91c-44.9-21.21-96.77-5.64-96.77-5.64l162.59 76.81c8.54-18.08-20.92-49.96-65.82-71.17z" data-name="&lt;Group&gt;" opacity=".13"/></g></svg>