<svg xmlns="http://www.w3.org/2000/svg" viewBox="0 0 1920 819"><title>javascript-tutorial-header</title><path fill="#6179cd" d="M0-214h1920.5V819.5H0z" data-name="bg"/><g data-name="Layer 1"><rect x="1807.83" y="499.3" width="112.92" height="295.7" rx="50.72" ry="50.72" fill="#3ebdb2" data-name="&lt;Group&gt;"/><path d="M1920.74 738.54V555.76c2.79-33.9-26.37-60.14-56.46-56.46V795a56.62 56.62 0 0 0 56.46-56.46z" fill="#34a799" data-name="&lt;Group&gt;"/><path d="M1807.17 754.65V653.48a41.81 41.81 0 0 0-41.69-41.69 41.81 41.81 0 0 0-41.69 41.69v101.17z" fill="#3ebdb2" data-name="&lt;Group&gt;"/><path d="M1807.17 754.65V653.48a41.81 41.81 0 0 0-41.69-41.69v142.86z" fill="#34a799" data-name="&lt;Group&gt;"/><path fill="#131d32" d="M1888.742 583.96l11.147-9.842 2.032 2.302-11.147 9.841zm-53.966 66.922l11.147-9.841 2.032 2.301-11.147 9.842zm.558 54.111l11.147-9.842 2.032 2.301-11.147 9.842zm-96.385-52.267l11.147-9.841 2.032 2.301-11.147 9.841zm93.341-57.831l2.03-2.303 11.153 9.836-2.03 2.302zm60.676 84.8l2.03-2.302 11.153 9.835-2.03 2.303zm-2.586-47.045l2.03-2.302 11.153 9.835-2.031 2.303zm-2.987-101.103l2.031-2.302 11.153 9.836-2.031 2.302zM1738.976 687.68l2.031-2.303 11.153 9.836-2.031 2.302zm37.822-13.88l11.147-9.84 2.032 2.3-11.147 9.842zm0 37.965l11.147-9.842 2.032 2.302-11.147 9.841zm58.297-158.47l11.147-9.841 2.032 2.301-11.147 9.842z" data-name="&lt;Group&gt;"/><circle cx="1654.65" cy="-75.65" r="99.65" fill="#ead981"/><path d="M1655.61-175.29V24a99.64 99.64 0 0 0 99.65-99.65 99.64 99.64 0 0 0-99.65-99.64z" opacity=".08"/><g data-name="&lt;Group&gt;"><ellipse cx="47.3" cy="-50.09" rx="112.35" ry="45.27" transform="rotate(-72.16 47.299 -50.09)" fill="#4fc6b7" data-name="&lt;Group&gt;"/><path d="M4.21-64C-14.8-4.9 12.89 56.85 12.89 56.85L81.72-157c-23.8-7.69-58.51 34-77.51 93z" data-name="&lt;Group&gt;" opacity=".13"/><ellipse cx="121.83" cy="-99.07" rx="57.39" ry="142.42" transform="rotate(-31.8 120.683 -98.279)" fill="#4fc6b7" data-name="&lt;Group&gt;"/><path d="M73-68.93c41.31 66.93 123.64 91 123.64 91L47-220.26c-26.94 16.65-15.32 84.4 26 151.33z" data-name="&lt;Group&gt;" opacity=".13"/></g><g data-name="&lt;Group&gt;"><path d="M370.73 648.31h50.76a21 21 0 0 0 20.91-20.91 21 21 0 0 0-20.91-20.91h-50.76z" fill="#3ebdb2" data-name="&lt;Group&gt;"/><path d="M451.19 626v-39.9c0-10.58-9.36-19.24-20.8-19.24-11.44 0-20.8 8.66-20.8 19.24V626z" fill="#3ebdb2" data-name="&lt;Group&gt;"/><path d="M451.19 627.39v-40.86c0-10.8-9.5-19.63-21.12-19.63v60.49z" fill="#34a799" data-name="&lt;Group&gt;"/><path d="M367.18 649.19h59.49c13.48 0 24.51-10.38 24.51-23.07h-84z" fill="#34a799" data-name="&lt;Group&gt;"/></g><g data-name="&lt;Group&gt;"><path d="M337 626.88h-50.76A21 21 0 0 1 265.33 606a21 21 0 0 1 20.91-21H337z" fill="#3ebdb2" data-name="&lt;Group&gt;"/><path d="M256.55 606.06V525.3a20.93 20.93 0 0 1 20.8-20.93 20.93 20.93 0 0 1 20.8 20.93v80.76z" fill="#3ebdb2" data-name="&lt;Group&gt;"/><path d="M256.55 607.54v-81.81a21.3 21.3 0 0 1 21.12-21.36v103.17z" fill="#34a799" data-name="&lt;Group&gt;"/><path d="M337 627.76h-57a23.34 23.34 0 0 1-23.48-23.07H337z" fill="#34a799" data-name="&lt;Group&gt;"/></g><path fill="#131d32" d="M337.112 644.53l10.337-9.127 1.88 2.129-10.338 9.127z" data-name="&lt;Group&gt;"/><rect x="314.85" y="470" width="80" height="323.98" rx="40" ry="40" fill="#3ebdb2" data-name="&lt;Group&gt;"/><path d="M394.85 732.12V531.86c3.15-36.56-6-58.1-40-61.86v324c22.25-2.58 43.56-9.68 40-61.88z" fill="#34a799" data-name="&lt;Group&gt;"/><path fill="#131d32" d="M368.148 581.64l10.338-9.126 1.88 2.13-10.338 9.126zM329.05 693.472l10.337-9.127 1.88 2.13-10.338 9.126zm2.919-132.024l1.878-2.13 10.343 9.121-1.879 2.13zm.006 72.594l10.342-9.122 1.878 2.13-10.342 9.122zm34.262-103.679l10.338-9.127 1.88 2.13-10.338 9.126zm-34.262-22.15l10.337-9.127 1.88 2.129-10.338 9.127zm37.07 218.443l10.337-9.127 1.88 2.13-10.338 9.126zm2.361-85.534l1.878-2.13 10.343 9.121-1.879 2.13z" data-name="&lt;Group&gt;"/><g data-name="&lt;Group&gt;"><path fill="#a7acd9" d="M428.56 817H281.58l-20.62-125.36h188.22L428.56 817z" data-name="&lt;Group&gt;"/><path fill="#7d89bc" d="M466.62 698.14l-20.27 15.31H263.79l-22.02-15.31h224.85z" data-name="&lt;Group&gt;"/><path fill="#a7acd9" d="M241.77 670.84h224.86v27.31H241.77z" data-name="&lt;Group&gt;"/><path opacity=".11" d="M355.57 670.84V817h72.99l17.12-103.55h.67l20.27-15.31v-27.3H355.57z"/></g><g data-name="&lt;Group&gt;"><path d="M1940.76 796.07c-37.24 42.27-81.11 64.15-98 48.86s-.37-61.95 36.88-104.22 98-48.86 98-48.86.36 61.95-36.88 104.22z" fill="#4fc6b7" data-name="&lt;Group&gt;"/><path d="M1940.76 796.07c37.24-42.27 36.88-104.22 36.88-104.22l-134.87 153.08c16.88 15.29 60.75-6.59 97.99-48.86z" data-name="&lt;Group&gt;" opacity=".13"/></g><ellipse cx="193.15" cy="763.5" rx="145.23" ry="58.53" transform="rotate(-14.1 193.097 763.367)" fill="#4fc6b7" data-name="&lt;Group&gt;"/><path d="M207.4 820.26c77.79-19.53 126.6-92.13 126.6-92.13L52.3 798.87c7.87 31.35 77.31 40.93 155.1 21.39z" data-name="&lt;Group&gt;" opacity=".13"/><path d="M182 723.8c-47.51 56.62-102.56 83.21-123 59.4s1.57-89 49.07-145.62 123-59.4 123-59.4-1.53 89-49.07 145.62z" fill="#4fc6b7" data-name="&lt;Group&gt;"/><path d="M182 723.8c47.51-56.62 49.07-145.62 49.07-145.62l-172 205C79.47 807 134.52 780.41 182 723.8z" data-name="&lt;Group&gt;" opacity=".13"/><ellipse cx="53.49" cy="681.85" rx="145.23" ry="58.53" transform="rotate(-76.29 53.501 681.859)" fill="#4fc6b7" data-name="&lt;Group&gt;"/><path d="M110.35 695.72c19-77.92-22.44-155-22.44-155L19.08 822.94c31.4 7.66 72.26-49.3 91.27-127.22z" data-name="&lt;Group&gt;" opacity=".13"/><ellipse cx="1870.75" cy="-75.45" rx="154.25" ry="62.16" transform="rotate(-80.68 1870.697 -75.404)" fill="#4fc6b7" data-name="&lt;Group&gt;"/><path d="M1809.41-85.52c-13.8 84.06 36.35 162.28 36.35 162.28l50-304.42c-33.9-5.56-72.55 58.08-86.35 142.14z" data-name="&lt;Group&gt;" opacity=".13"/><ellipse cx="1730.77" cy="762.09" rx="51.63" ry="128.11" transform="rotate(-64.71 1730.876 762.075)" fill="#4fc6b7" data-name="&lt;Group&gt;"/><path d="M1752.83 715.41c-64-30.22-137.89-8-137.89-8l231.67 109.44c12.18-25.85-29.81-71.22-93.78-101.44z" data-name="&lt;Group&gt;" opacity=".13"/></g></svg>