<svg data-name="Layer 1" xmlns="http://www.w3.org/2000/svg" viewBox="0 0 100.32825 35.87793"><title>logo-7</title><path d="M16.681 11.886v15.007c0 4.743-3.442 7.75-8.681 7.75a12.374 12.374 0 0 1-7.008-2.2l1.612-2.915a8.474 8.474 0 0 0 5.178 1.737c2.977 0 4.868-1.644 4.868-4.28v-1.953a5.994 5.994 0 0 1-5.27 2.605c-4.403 0-7.38-3.225-7.38-8 0-4.682 2.945-7.875 7.255-7.875a6.142 6.142 0 0 1 5.395 2.604v-2.48zm-4.03 7.843c0-2.79-1.799-4.743-4.403-4.743s-4.403 1.985-4.435 4.743c.032 2.791 1.8 4.745 4.435 4.745 2.604 0 4.402-1.953 4.402-4.745zM35.556 0v3.907c-3.504-.218-5.644 1.83-5.644 4.836v8h-4.03V.155h4.03V3.35A6.04 6.04 0 0 1 35.556 0zM47.41 35.691v-2.015a6.509 6.509 0 0 1-5.364 2.202c-3.566 0-5.798-2.202-5.798-5.148 0-3.069 2.263-4.96 6.294-4.992h4.837v-.433c0-1.923-1.272-3.07-3.752-3.07a9.708 9.708 0 0 0-4.93 1.55l-1.457-2.79a13.338 13.338 0 0 1 7.286-2.047c4.341 0 6.79 2.201 6.822 5.89l.03 10.853zm-.031-5.766v-1.488h-4.186c-2.14 0-3.131.588-3.131 2.045 0 1.396 1.116 2.294 2.945 2.294 2.326 0 4.155-1.24 4.372-2.851zM67.24 6.272c-2.668 0-4.528 1.985-4.528 4.9 0 2.976 1.86 4.96 4.527 4.96a5.338 5.338 0 0 0 4.465-1.953l2.511 2.078c-1.457 2.108-3.938 3.348-7.193 3.348a7.983 7.983 0 0 1-8.372-8.403 8.031 8.031 0 0 1 8.434-8.464 8.458 8.458 0 0 1 6.945 3.038L71.58 8.103a5.692 5.692 0 0 0-4.34-1.83zm33.047 12.612H88.039a4.629 4.629 0 0 0 4.744 3.782 6.161 6.161 0 0 0 4.465-1.86l2.17 2.263a9.21 9.21 0 0 1-6.976 2.853c-5.147 0-8.527-3.411-8.527-8.403a8.048 8.048 0 0 1 8.434-8.464c5.83 0 8.34 3.813 7.938 9.829zm-3.66-2.698a3.942 3.942 0 0 0-4.247-4 4.344 4.344 0 0 0-4.434 4z"/></svg>