<svg data-name="Layer 1" xmlns="http://www.w3.org/2000/svg" viewBox="0 0 100.32825 35.87793"><title>logo-7-hover</title><path d="M16.774 9.383V24.39c0 4.744-3.441 7.75-8.681 7.75a12.38 12.38 0 0 1-7.008-2.2l1.613-2.916a8.46 8.46 0 0 0 5.178 1.737c2.977 0 4.867-1.643 4.867-4.279V22.53a5.992 5.992 0 0 1-5.27 2.605c-4.404 0-7.38-3.225-7.38-8 0-4.682 2.946-7.875 7.256-7.875a6.14 6.14 0 0 1 5.394 2.604v-2.48zm-4.03 7.845c0-2.791-1.799-4.745-4.403-4.745s-4.403 1.985-4.434 4.745c.031 2.79 1.798 4.743 4.434 4.743 2.604 0 4.402-1.953 4.402-4.743zm22.645-8v3.906c-3.504-.217-5.644 1.83-5.644 4.838v7.999h-4.03V9.383h4.03v3.193a6.039 6.039 0 0 1 5.644-3.348zM52.616 25.97v-2.015a6.507 6.507 0 0 1-5.363 2.202c-3.566 0-5.799-2.202-5.799-5.147 0-3.07 2.264-4.961 6.295-4.992h4.836v-.434c0-1.923-1.27-3.07-3.751-3.07a9.711 9.711 0 0 0-4.93 1.55l-1.458-2.79a13.342 13.342 0 0 1 7.287-2.046c4.34 0 6.79 2.2 6.82 5.89l.032 10.853zm-.031-5.766v-1.488h-4.186c-2.138 0-3.13.589-3.13 2.046 0 1.395 1.115 2.294 2.945 2.294 2.325 0 4.154-1.24 4.371-2.852zm19.793-7.411c-2.666 0-4.526 1.984-4.526 4.9 0 2.976 1.86 4.96 4.526 4.96a5.338 5.338 0 0 0 4.465-1.953l2.511 2.077c-1.457 2.109-3.937 3.349-7.193 3.349a7.983 7.983 0 0 1-8.371-8.402 8.031 8.031 0 0 1 8.434-8.465 8.46 8.46 0 0 1 6.945 3.038l-2.45 2.325a5.692 5.692 0 0 0-4.341-1.829zm27.877 6.294H88.008a4.627 4.627 0 0 0 4.744 3.783 6.162 6.162 0 0 0 4.465-1.86l2.17 2.263a9.21 9.21 0 0 1-6.976 2.853c-5.147 0-8.527-3.411-8.527-8.402a8.048 8.048 0 0 1 8.433-8.465c5.83 0 8.341 3.813 7.938 9.828zm-3.658-2.697a3.943 3.943 0 0 0-4.248-4 4.345 4.345 0 0 0-4.434 4z"/></svg>