<svg xmlns="http://www.w3.org/2000/svg" viewBox="0 0 349.61 325.87"><title>balloon-1</title><g id="327131e1-e644-47e3-8e28-948d1a7d2b8f" data-name="Layer 2"><g id="be80634d-5fdf-49bf-ba0f-11aac79c88b3" data-name="bubble"><path d="M119.83,231.46a46.71,46.71,0,0,0,65.91,51.46c8.84-4.22,12.59-14.19,3.86-21.23-5.32-4.29-12.91-5.21-19.43-3.16s-12,6.8-15.75,12.5c-16,24.09,11.15,41.17,31,48.53,9.53,3.52,19.79,4.56,29.93,5.12,25.11,1.39,45.28-4.86,68.76-13.51,24.93-9.18,43.64-4,64.45,11.31" fill="none" stroke="#3f3f3f" stroke-linecap="round" stroke-linejoin="round" stroke-width="2"/><path d="M109.27,235.82l-8.61,9.57s16.27,9.09,34.93,3.35l-3.83-12" fill="#bdffee" stroke="#3f3f3f" stroke-miterlimit="10" stroke-width="2"/><circle cx="119" cy="119" r="118" fill="#bdffee" stroke="#3f3f3f" stroke-miterlimit="10" stroke-width="2"/><path d="M220.29,119a4.64,4.64,0,0,1-.62,0,5.05,5.05,0,0,1-4.18-5.71c2.85-23.41-8.61-36-9.1-36.55a5.32,5.32,0,0,1,0-7.2,4.64,4.64,0,0,1,6.8,0c.63.66,15.34,16.46,11.86,45.07A4.93,4.93,0,0,1,220.29,119Z" fill="#fff" stroke="#3f3f3f" stroke-linecap="round" stroke-linejoin="round" stroke-width="1.65"/></g></g></svg>