<svg xmlns="http://www.w3.org/2000/svg" viewBox="0 0 238 373.42"><title>balloon-2</title><g id="b5193fae-4f73-4869-b9c0-d53947b59745" data-name="Layer 2"><g id="e669c91f-8fbc-4152-8ac7-49a6b76ef747" data-name="bubble"><path d="M124.94,235.9c-12.11,9.06-9.54,32.3-1.44,42.94,9.07,11.9,27.21,18.39,30.11,33.14,3.05,15.57-16.21,18.21-15.75,32.3.2,6.25,5.14,7.72,7.91,12.76,2.59,4.7,1.43,11.44,3.57,15.95" fill="none" stroke="#3f3f3f" stroke-miterlimit="10" stroke-width="2"/><path d="M109.27,235.82l-8.61,9.57s16.27,9.09,34.93,3.35l-3.83-12" fill="#bdffee" stroke="#3f3f3f" stroke-miterlimit="10" stroke-width="2"/><circle cx="119" cy="119" r="118" fill="#bdffee" stroke="#3f3f3f" stroke-miterlimit="10" stroke-width="2"/><path d="M220.29,119a4.64,4.64,0,0,1-.62,0,5.05,5.05,0,0,1-4.18-5.71c2.85-23.41-8.61-36-9.1-36.55a5.32,5.32,0,0,1,0-7.2,4.64,4.64,0,0,1,6.8,0c.63.66,15.34,16.46,11.86,45.07A4.93,4.93,0,0,1,220.29,119Z" fill="#fff" stroke="#3f3f3f" stroke-linecap="round" stroke-linejoin="round" stroke-width="1.65"/></g></g></svg>