<svg xmlns="http://www.w3.org/2000/svg" viewBox="0 0 349.61 325.87"><title>balloon-cat-1</title><g id="e8ee4838-7fbd-4a08-8278-88b5fc2c9c35" data-name="Layer 2"><g id="3bdb99f7-4b2f-484c-a0a6-aeb5885579b1" data-name="bubble"><path d="M119.83,231.46a46.71,46.71,0,0,0,65.91,51.46c8.84-4.22,12.59-14.19,3.86-21.23-5.32-4.29-12.91-5.21-19.43-3.16s-12,6.8-15.75,12.5c-16,24.09,11.15,41.17,31,48.53,9.53,3.52,19.79,4.56,29.93,5.12,25.11,1.39,45.28-4.86,68.76-13.51,24.93-9.18,43.64-4,64.45,11.31" fill="none" stroke="#3f3f3f" stroke-linecap="round" stroke-linejoin="round" stroke-width="2"/><path d="M109.27,235.82l-8.61,9.57s16.27,9.09,34.93,3.35l-3.83-12" fill="#bdffee" stroke="#3f3f3f" stroke-miterlimit="10" stroke-width="2"/><circle cx="119" cy="119" r="118" fill="#bdffee" stroke="#3f3f3f" stroke-miterlimit="10" stroke-width="2"/><path d="M161.08,186.27l6,2.28s2.07,1.48,7.22-1.57c0,0,9.8-5.83,17.68-1.3,0,0,8.05,6.69,1.74,14.86,0,0-10.07,10.8-23.43,6.27,0,0-13.41-1.6-19.09-10.52" fill="#ffefde" stroke="#3f3f3f" stroke-miterlimit="10" stroke-width="2"/><path d="M172.84,154.91l2,.21c8.41.06,7.73-12.79,7.73-12.79L175.14,116,55.32,74" fill="#ffefde" stroke="#3f3f3f" stroke-miterlimit="10" stroke-width="2"/><path d="M172.84,154.91,32.42,108.7c-5.8-3.05-3.19-11.52-3.19-11.52C30.8,88,55.32,74,55.32,74" fill="#ffefde" stroke="#3f3f3f" stroke-miterlimit="10" stroke-width="2"/><path d="M165.6,122.34l6.66-3.85c19.52-10,6.74-45.12,6.74-45.12,1.75-1.57,2.76-7.58,2.76-7.58-.14-6.37-4.44-4.74-4.44-4.74l-8,1.33c-35.08-24.29-72.06-26-72.06-26-5.21.5-5.45-4.21-5.45-4.21l-2.28-4.92c-4-3.35-5.33.89-5.33.89L80.51,38.81C60.37,51,55.24,61.23,55.21,68.94c0,5,2.78,10.13,2.78,10.13" fill="#ffefde" stroke="#3f3f3f" stroke-miterlimit="10" stroke-width="2"/><path d="M171.13,135.85s7.25,16.14-4.55,40.74c0,0-12.95,29.72-45.7,34.8l-6.19,7.78s-5.07,6.87-8.88,1.48c0,0-1.45-7.61-.77-11.19,0,0-23.66,1.56-41.18-12.69,0,0-6.87,5.89-9.92,6.21,0,0-8.11,1.72-6.87-5.07l1.63-12.14S23.85,162.53,27,131.88c0,0,2.68-27.83,19.77-43.64" fill="#ffefde" stroke="#3f3f3f" stroke-miterlimit="10" stroke-width="2"/><circle cx="92.59" cy="58.41" r="2.42" transform="translate(9.51 129.7) rotate(-72.88)" fill="#3f3f3f"/><circle cx="154.33" cy="80.52" r="2.42" transform="translate(31.95 204.3) rotate(-72.88)" fill="#3f3f3f"/><path d="M83.84,67.65l68.92,22.5a17.88,17.88,0,0,1-4.22,6.09c-10.17,10.21-29.3,9.51-41.35,3.52C94.78,93.58,82.5,82.88,83.84,67.65Z" fill="#3f3f3f" stroke="#3f3f3f" stroke-miterlimit="10" stroke-width="2"/><path d="M99.08,95.24s7.14-5.39,16.88,2.67c0,0,6.48-2.78,13,6C129,103.9,115.51,106.2,99.08,95.24Z" fill="#edb9b9" stroke="#3f3f3f" stroke-miterlimit="10" stroke-width="0.5"/><ellipse cx="163.69" cy="103.91" rx="2.68" ry="5.1" transform="translate(16.19 229.76) rotate(-72.88)" fill="#edb9b9" stroke="#3f3f3f" stroke-miterlimit="10"/><ellipse cx="70.6" cy="69.61" rx="2.68" ry="5.1" transform="translate(-16.72 116.57) rotate(-72.87)" fill="#edb9b9" stroke="#3f3f3f" stroke-miterlimit="10"/><line x1="84.9" y1="175.02" x2="90.25" y2="186.36" fill="none" stroke="#3f3f3f" stroke-miterlimit="10"/><line x1="93.75" y1="177.74" x2="82.29" y2="183.48" fill="none" stroke="#3f3f3f" stroke-miterlimit="10"/><path d="M220.29,119a4.64,4.64,0,0,1-.62,0,5.05,5.05,0,0,1-4.18-5.71c2.85-23.41-8.61-36-9.1-36.55a5.32,5.32,0,0,1,0-7.2,4.64,4.64,0,0,1,6.8,0c.63.66,15.34,16.46,11.86,45.07A4.93,4.93,0,0,1,220.29,119Z" fill="#fff" stroke="#3f3f3f" stroke-linecap="round" stroke-linejoin="round" stroke-width="1.65"/></g></g></svg>