<svg xmlns="http://www.w3.org/2000/svg" viewBox="0 0 238 373.42"><title>balloon-grace-2</title><g id="382662dc-fb2c-40ac-9dda-f3ea69bcc553" data-name="Layer 2"><g id="98088271-c625-4d34-bd07-29059b166344" data-name="bubble"><path d="M124.94,235.9c-12.11,9.06-9.54,32.3-1.44,42.94,9.07,11.9,27.21,18.39,30.11,33.14,3.05,15.57-16.21,18.21-15.75,32.3.2,6.25,5.14,7.72,7.91,12.76,2.59,4.7,1.43,11.44,3.57,15.95" fill="none" stroke="#3f3f3f" stroke-miterlimit="10" stroke-width="2"/><path d="M109.27,235.82l-8.61,9.57s16.27,9.09,34.93,3.35l-3.83-12" fill="#bdffee" stroke="#3f3f3f" stroke-miterlimit="10" stroke-width="2"/><circle cx="119" cy="119" r="118" fill="#bdffee" fill-opacity="0.75" stroke="#3f3f3f" stroke-miterlimit="10" stroke-width="2"/><path d="M220.29,119a4.64,4.64,0,0,1-.62,0,5.05,5.05,0,0,1-4.18-5.71c2.85-23.41-8.61-36-9.1-36.55a5.32,5.32,0,0,1,0-7.2,4.64,4.64,0,0,1,6.8,0c.63.66,15.34,16.46,11.86,45.07A4.93,4.93,0,0,1,220.29,119Z" fill="#fff" stroke="#3f3f3f" stroke-linecap="round" stroke-linejoin="round" stroke-width="1.65"/><path d="M90.6,184.93s15.54,7.17,32.28,6c0,0,19.14,0,29.9-6l-2.39-7.17-57.47-.33Z" fill="#fff" stroke="#000" stroke-miterlimit="10" stroke-width="1.6"/><polygon points="90.6 182.54 74.09 176.09 69.08 186.12 103.75 208.84 131.25 211.23 153.97 199.27 181.47 182.54 167.12 176.09 153.97 182.54 90.6 182.54" fill="#303030" stroke="#000" stroke-miterlimit="10" stroke-width="1.2"/><g id="01f98285-eb49-4ab5-9324-4af15ea2660c" data-name="normal crop"><path d="M110.45,44.88" fill="#fff"/><path d="M93.45,154.11c-3.21-5.18-34.54-51.38-5-93.64,0,0,7.41-12.71,24.71-18.36a34.89,34.89,0,0,1,25.41,1.78A38.08,38.08,0,0,1,153,56.61a59.44,59.44,0,0,1,6.15,11.48c7.7,18.75,7.73,42.88,2.59,62.4a55.47,55.47,0,0,1-2.65,7.83c-.5,1.16-1.6,4.33-4.12,6.46-1.6,1.35-60.77,9.61-60.77,9.61A.66.66,0,0,1,93.45,154.11Z" fill="#1c1c1c" stroke="#000" stroke-miterlimit="10" stroke-width="0.66"/><path d="M94.32,161.17a.66.66,0,0,1-.66-.61c-.31-4.2-1.38-28.75,14.85-32.13,0,0,.82,0,.62-1.39l-.16-3s.12-3.28,2.68-2.84a1.25,1.25,0,0,1,1,.4s9.18,5.91,20.11-1l-.61-.89s1.9-1.66,3.56,0a11.86,11.86,0,0,1,2.41,6.19s7.24.21,11.34,5.3c0,0,10.13,14.95,9.14,29.35a.67.67,0,0,1-.67.62Z" fill="#4c4c4c" stroke="#000" stroke-miterlimit="10" stroke-width="0.66"/><path d="M113.07,118a10.64,10.64,0,0,1-.46,3.31s8.16,5.86,20.11-.75a14.9,14.9,0,0,1-1.26-3.13S121.59,120.93,113.07,118Z" fill="#f8e6d3" stroke="#000" stroke-miterlimit="10" stroke-width="0.66"/><path id="f2835d33-353b-4cd4-86fa-24fd449475a9" data-name="ear" d="M90.37,99.45s-3.43-3.71-2.88,1.71c0,0,1.11,4,4.76,4h.39S90.22,99.57,90.37,99.45Z" fill="#f8e6d3" stroke="#000" stroke-miterlimit="10" stroke-width="0.66"/><path d="M88.94,89.26S88,115.15,113,118.91a50.67,50.67,0,0,0,14.47-.14s29.72-2.93,26.79-34.32c0,0-8.86,0-13.28-7.74l1.11,4.21S132.85,78.33,125.47,59c0,0-3.54,16.31-15.5,23.65a23.37,23.37,0,0,0,0-5.72s-6,6.92-11.73,9.33l.22-3.61S93.58,87.65,88.94,89.26Z" fill="#f8e6d3" stroke="#000" stroke-miterlimit="10" stroke-width="0.66"/><line x1="98.72" y1="89.9" x2="107.13" y2="88.45" fill="#fff" stroke="#000" stroke-linecap="round" stroke-miterlimit="10" stroke-width="1.33"/><line x1="134.64" y1="85.82" x2="143.08" y2="84.56" fill="#fff" stroke="#000" stroke-linecap="round" stroke-miterlimit="10" stroke-width="1.33"/><ellipse cx="104.33" cy="95.67" rx="5.62" ry="2.88" transform="translate(-13.24 16.83) rotate(-8.68)" fill="#fff" stroke="#000" stroke-miterlimit="10" stroke-width="0.66"/><circle cx="107.99" cy="94.97" r="2.17"/><ellipse cx="139.4" cy="92" rx="5.62" ry="2.88" transform="translate(-12.28 22.08) rotate(-8.68)" fill="#fff" stroke="#000" stroke-miterlimit="10" stroke-width="0.66"/><circle cx="143.06" cy="91.3" r="2.17"/><polyline points="122.67 98.21 122.67 101.68 124.43 101.68" fill="none" stroke="#000" stroke-linecap="round" stroke-miterlimit="10"/><line x1="121.69" y1="111.58" x2="126.08" y2="110.61" fill="none" stroke="#000" stroke-linecap="round" stroke-miterlimit="10" stroke-width="1.33"/><line x1="143.07" y1="100.61" x2="145.23" y2="99.95" fill="none" stroke="#f39c9c" stroke-linecap="round" stroke-miterlimit="10" stroke-width="0.66"/><line x1="143.29" y1="102.35" x2="145.45" y2="101.68" fill="none" stroke="#f39c9c" stroke-linecap="round" stroke-miterlimit="10" stroke-width="0.66"/><line x1="101.84" y1="105.88" x2="104" y2="105.21" fill="none" stroke="#f39c9c" stroke-linecap="round" stroke-miterlimit="10" stroke-width="0.66"/><line x1="102.06" y1="107.61" x2="104.22" y2="106.95" fill="none" stroke="#f39c9c" stroke-linecap="round" stroke-miterlimit="10" stroke-width="0.66"/><path d="M119.17,26.95s-5.19,5.79-3.3,15.38c0,0-1.07-4.31-4.27-4.15" fill="none" stroke="#000" stroke-linecap="round" stroke-miterlimit="10"/><path d="M119.6,24.65s-4.39-4.54-1.76-7.16c0,0,3.4-1.42,2.5,7.16Z" fill="#fff" stroke="#231f20" stroke-linecap="round" stroke-miterlimit="10" stroke-width="0.66"/><path d="M121.15,24.43s.3-6.31,4-6.18c0,0,3.37,1.5-3.51,6.72Z" fill="#fff" stroke="#231f20" stroke-linecap="round" stroke-miterlimit="10" stroke-width="0.66"/><path d="M121.37,25.78s5.64-2.85,7.36.45c0,0,.35,3.67-7.58.26Z" fill="#fff" stroke="#231f20" stroke-linecap="round" stroke-miterlimit="10" stroke-width="0.66"/><path d="M120.7,26.36s3.93,4.94,1.05,7.3c0,0-3.52,1.09-1.79-7.37Z" fill="#fff" stroke="#231f20" stroke-linecap="round" stroke-miterlimit="10" stroke-width="0.66"/><path d="M119.5,26.16s-5.21,3.57-7.35.54c0,0-.84-3.59,7.48-1.27Z" fill="#fff" stroke="#231f20" stroke-linecap="round" stroke-miterlimit="10" stroke-width="0.66"/><circle cx="120.49" cy="25.63" r="1.32" fill="#f8daa4" stroke="#231f20" stroke-linecap="round" stroke-miterlimit="10" stroke-width="0.66"/><path d="M119.49,37.53s-2.79-3.12-3.62,4.79" fill="none" stroke="#000" stroke-linecap="round" stroke-miterlimit="10"/><path d="M148.48,127.26c-1.1,6.25-4.21,19.18-9.62,25.18,0,0,16-1.56,19.77-13.14" fill="#1c1c1c" stroke="#000" stroke-miterlimit="10" stroke-width="0.66"/><path id="83d99e33-f160-42b1-8106-8b3649dccf64" data-name="ear" d="M154.56,91.4s2.4-4.22,3.07,1c0,0-.17,4-3.59,4.77l-.37.09S154.73,91.47,154.56,91.4Z" fill="#f8e6d3" stroke="#000" stroke-miterlimit="10" stroke-width="0.66"/></g><g id="92e48a1c-ab94-4d23-89b7-300fb47cb1e7" data-name="happy crop"><path d="M93.45,154.11c-3.21-5.18-34.54-51.38-5-93.64,0,0,7.41-12.71,24.71-18.36a34.89,34.89,0,0,1,25.41,1.78A38.08,38.08,0,0,1,153,56.61a59.44,59.44,0,0,1,6.15,11.48c7.7,18.75,7.73,42.88,2.59,62.4a55.47,55.47,0,0,1-2.65,7.83c-.5,1.16-1.6,4.33-4.12,6.46-1.6,1.35-60.77,9.61-60.77,9.61A.66.66,0,0,1,93.45,154.11Z" fill="#1c1c1c" stroke="#000" stroke-miterlimit="10" stroke-width="0.66"/><path d="M94.32,161.17a.66.66,0,0,1-.66-.61c-.31-4.2-1.38-28.75,14.85-32.13,0,0,.82,0,.62-1.39l-.16-3s.12-3.28,2.68-2.84a1.25,1.25,0,0,1,1,.4s9.18,5.91,20.11-1l-.61-.89s1.9-1.66,3.56,0a11.86,11.86,0,0,1,2.41,6.19s7.24.21,11.34,5.3c0,0,10.13,14.95,9.14,29.35a.67.67,0,0,1-.67.62Z" fill="#4c4c4c" stroke="#000" stroke-miterlimit="10" stroke-width="0.66"/><path d="M148.48,127.26c-1.1,6.25-4.21,19.18-9.62,25.18,0,0,16-1.56,19.77-13.14" fill="#1c1c1c" stroke="#000" stroke-miterlimit="10" stroke-width="0.66"/><path d="M110.45,44.88" fill="#fff"/><path d="M113.07,118a10.64,10.64,0,0,1-.46,3.31s8.16,5.86,20.11-.75a14.9,14.9,0,0,1-1.26-3.13S121.59,120.93,113.07,118Z" fill="#f8e6d3" stroke="#000" stroke-miterlimit="10" stroke-width="0.66"/><path id="9cabcbb5-c54b-4640-a977-74271f7d8230" data-name="ear" d="M90.37,99.45s-3.43-3.71-2.88,1.71c0,0,1.11,4,4.76,4h.39S90.22,99.57,90.37,99.45Z" fill="#f8e6d3" stroke="#000" stroke-miterlimit="10" stroke-width="0.66"/><path d="M88.94,89.26S88,115.15,113,118.91a50.67,50.67,0,0,0,14.47-.14s29.72-2.93,26.79-34.32c0,0-8.86,0-13.28-7.74l1.11,4.21S132.85,78.33,125.47,59c0,0-3.54,16.31-15.5,23.65a23.37,23.37,0,0,0,0-5.72s-6,6.92-11.73,9.33l.22-3.61S93.58,87.65,88.94,89.26Z" fill="#f8e6d3" stroke="#000" stroke-miterlimit="10" stroke-width="0.66"/><line x1="98.72" y1="89.9" x2="107.13" y2="88.45" fill="#fff" stroke="#000" stroke-linecap="round" stroke-miterlimit="10" stroke-width="1.33"/><line x1="134.64" y1="85.82" x2="143.08" y2="84.56" fill="#fff" stroke="#000" stroke-linecap="round" stroke-miterlimit="10" stroke-width="1.33"/><ellipse cx="104.33" cy="95.67" rx="5.62" ry="2.88" transform="translate(-13.24 16.83) rotate(-8.68)" fill="#fff" stroke="#000" stroke-miterlimit="10" stroke-width="0.66"/><circle cx="104.43" cy="95.66" r="2.56"/><ellipse cx="139.4" cy="92" rx="5.62" ry="2.88" transform="translate(-12.28 22.08) rotate(-8.68)" fill="#fff" stroke="#000" stroke-miterlimit="10" stroke-width="0.66"/><circle cx="139.62" cy="91.97" r="2.58"/><polyline points="122.67 98.21 122.67 101.68 124.43 101.68" fill="none" stroke="#000" stroke-linecap="round" stroke-miterlimit="10"/><line x1="121.69" y1="111.58" x2="126.08" y2="110.61" fill="none" stroke="#000" stroke-linecap="round" stroke-miterlimit="10" stroke-width="1.33"/><path d="M119.17,26.95s-5.19,5.79-3.3,15.38c0,0-1.07-4.31-4.27-4.15" fill="none" stroke="#000" stroke-linecap="round" stroke-miterlimit="10"/><path d="M119.6,24.65s-4.39-4.54-1.76-7.16c0,0,3.4-1.42,2.5,7.16Z" fill="#fff" stroke="#231f20" stroke-linecap="round" stroke-miterlimit="10" stroke-width="0.66"/><path d="M121.15,24.43s.3-6.31,4-6.18c0,0,3.37,1.5-3.51,6.72Z" fill="#fff" stroke="#231f20" stroke-linecap="round" stroke-miterlimit="10" stroke-width="0.66"/><path d="M121.37,25.78s5.64-2.85,7.36.45c0,0,.35,3.67-7.58.26Z" fill="#fff" stroke="#231f20" stroke-linecap="round" stroke-miterlimit="10" stroke-width="0.66"/><path d="M120.7,26.36s3.93,4.94,1.05,7.3c0,0-3.52,1.09-1.79-7.37Z" fill="#fff" stroke="#231f20" stroke-linecap="round" stroke-miterlimit="10" stroke-width="0.66"/><path d="M119.5,26.16s-5.21,3.57-7.35.54c0,0-.84-3.59,7.48-1.27Z" fill="#fff" stroke="#231f20" stroke-linecap="round" stroke-miterlimit="10" stroke-width="0.66"/><circle cx="120.49" cy="25.63" r="1.32" fill="#f8daa4" stroke="#231f20" stroke-linecap="round" stroke-miterlimit="10" stroke-width="0.66"/><path d="M119.49,37.53s-2.79-3.12-3.62,4.79" fill="none" stroke="#000" stroke-linecap="round" stroke-miterlimit="10"/><path id="3e0483ae-5a24-48eb-8038-49d88a1db951" data-name="ear" d="M154.56,91.4s2.4-4.22,3.07,1c0,0-.17,4-3.59,4.77l-.37.09S154.73,91.47,154.56,91.4Z" fill="#f8e6d3" stroke="#000" stroke-miterlimit="10" stroke-width="0.66"/><path d="M120.45,109.77a.66.66,0,0,0-.47,1,4.54,4.54,0,0,0,7.89-1.26.66.66,0,0,0-.75-.78Z"/><ellipse cx="143.85" cy="99.95" rx="3.37" ry="1.72" transform="translate(-13.43 22.84) rotate(-8.68)" fill="#f39c9c"/><ellipse cx="103.92" cy="104.75" rx="3.37" ry="1.72" transform="translate(-14.61 16.87) rotate(-8.68)" fill="#f39c9c"/></g><rect x="61.71" y="108.47" width="118.76" height="69.61" rx="3.59" ry="3.59" fill="#cecece"/><path d="M176.89,108.87a3.19,3.19,0,0,1,3.19,3.19V174.5a3.19,3.19,0,0,1-3.19,3.19H65.3a3.19,3.19,0,0,1-3.19-3.19V112.06a3.19,3.19,0,0,1,3.19-3.19H176.89m0-.8H65.3a4,4,0,0,0-4,4V174.5a4,4,0,0,0,4,4H176.89a4,4,0,0,0,4-4V112.06a4,4,0,0,0-4-4Z"/><path d="M131.94,141.83a21.66,21.66,0,0,1-11,8.16c-7.17,2.21-13.45-.78-13.3-2l.16-1.21a44.26,44.26,0,0,0,6.9-1.13,17.9,17.9,0,0,0,3.36,0c7.3-.61,13-5.31,14.94-8.94h0a6.13,6.13,0,0,0,.45-2.83c.09,1,.23,1.84.29,2.58A8.29,8.29,0,0,1,131.94,141.83Z" fill="#f9f07d" stroke="#59545e" stroke-linecap="round" stroke-linejoin="round" stroke-width="0.77" fill-rule="evenodd"/><path d="M133,136.79c.84-1.3-.13-4,1.42-6.86l-1.4-.47a9.62,9.62,0,0,1-.82,2.57,4.23,4.23,0,0,1-1.78,1.55l-.11.05c-1.1.6-4.46,3.66-10.41,5.54s-14,.66-14,.66l-.41,1.15c-.4,1.12,5.1,5.37,12.58,4.75,7.3-.61,13-5.31,14.94-8.94Z" fill="#f9f07d" stroke="#59545e" stroke-linecap="round" stroke-linejoin="round" stroke-width="0.77" fill-rule="evenodd"/><path d="M129.36,136a25.13,25.13,0,0,1-11.16,5.34,29.78,29.78,0,0,1-5.67.57m-1.77,0a30.59,30.59,0,0,1-3.09-.3" fill="none" stroke="#59545e" stroke-linecap="round" stroke-linejoin="round" stroke-width="0.77" fill-rule="evenodd"/><path d="M134.84,203.92l42.69-35.48s11.88-7.5,17.17-3c0,0,12.76,11-1.32,21.49,0,0-32.57,25.48-49.74,31.48C143.64,218.41,135.72,216.41,134.84,203.92Z" fill="#303030" stroke="#000" stroke-miterlimit="10" stroke-width="1.27"/><path d="M120.94,224.72a29.32,29.32,0,0,1-12.46-2.85l-.64-.56,24.23-7.61c1.29,2.89.45,7.29.44,7.33-1.42,2.83-7.34,3.35-7.4,3.35a25.49,25.49,0,0,1-4.18.34Z" fill="#fff"/><path d="M131.93,214c1.05,2.61.45,6.35.35,6.9-1.43,2.7-7.13,3.21-7.22,3.22a25.1,25.1,0,0,1-4.11.34,29.23,29.23,0,0,1-12.29-2.8l-.29-.26,23.58-7.4m.28-.62-24.87,7.81,1,.9A29.35,29.35,0,0,0,120.94,225a25.52,25.52,0,0,0,4.2-.34s6.1-.51,7.63-3.56c0,0,.92-4.7-.56-7.69Z"/><path d="M120.76,223.2a44.53,44.53,0,0,1-5.26-.34c-.06,0-6.6-1-9.58-2.52l-8.08-5.14-2.42-2.43h-.79l7.71-10.19,3.38,1.45,10.2,3.06c.18,0,11.2.05,14.64,3.5,0,0,4.36,6.42,0,9.79C130.5,220.46,128.64,223.2,120.76,223.2Z" fill="#fff"/><path d="M102.42,202.89l3.19,1.37h.05l10.17,3.05.07,0H116c.11,0,10.94,0,14.35,3.38.34.52,4.06,6.35.08,9.44l-.07.06,0,.07s-1.85,2.65-9.54,2.65a44.28,44.28,0,0,1-5.21-.34c-.07,0-6.53-1-9.49-2.48L98,215l-2.35-2.35-.15-.15h-.38l7.28-9.63m-.17-.62L94.12,213h1.2l2.39,2.39,8.11,5.15c3.05,1.53,9.66,2.54,9.66,2.54a44.54,44.54,0,0,0,5.29.34c8.16,0,10-2.88,10-2.88,4.58-3.56,0-10.17,0-10.17-3.56-3.56-14.75-3.56-14.75-3.56l-10.17-3.05-3.56-1.53Z"/><path d="M119.22,209.44s-4.78,3.59-4.78,8.37" fill="#fff" stroke="#000" stroke-miterlimit="10" stroke-width="0.51"/><path d="M113.25,208.24s-4.78,3.59-3.59,8.37" fill="#fff" stroke="#000" stroke-miterlimit="10" stroke-width="0.51"/><path d="M107.94,204.35,64.12,168.49s-12.2-7.58-17.62-3c0,0-13.1,11.11,1.36,21.72,0,0,33.43,25.76,51,31.82C98.91,219,107,217,107.94,204.35Z" fill="#303030" stroke="#000" stroke-miterlimit="10" stroke-width="1.25"/><path d="M118.18,224.72a25.32,25.32,0,0,1-4.16-.34c-.08,0-6-.53-7.44-3.42h0s-.83-4.39.46-7.27l24.23,7.61-.68.6A29.58,29.58,0,0,1,118.18,224.72Z" fill="#fff"/><path d="M107.19,214l23.58,7.4-.29.26a29.23,29.23,0,0,1-12.29,2.8,25.41,25.41,0,0,1-4.16-.34c-.06,0-5.75-.51-7.18-3.22-.1-.55-.7-4.29.35-6.9m-.28-.62c-1.48,3-.56,7.69-.56,7.69,1.53,3.05,7.63,3.56,7.63,3.56a25.52,25.52,0,0,0,4.2.34,29.35,29.35,0,0,0,12.58-2.88l1-.9-24.87-7.81Z"/><path d="M118.36,223.2c-7.88,0-9.73-2.74-9.75-2.77-4.39-3.43,0-9.82,0-9.89,3.42-3.41,14.43-3.45,14.54-3.45L133.38,204l3.4-1.46,7.71,10.19h-.79l-2.47,2.47-8.07,5.12c-3,1.48-9.5,2.5-9.56,2.51a44.46,44.46,0,0,1-5.25.34Z" fill="#fff"/><path d="M136.7,202.89l7.28,9.63h-.38l-.15.15L141.1,215l-8,5.11c-3,1.47-9.42,2.47-9.47,2.48a44.31,44.31,0,0,1-5.23.34c-7.69,0-9.52-2.62-9.53-2.65l0-.08-.07-.06c-1.72-1.33-2.23-3.31-1.54-5.86a13.36,13.36,0,0,1,1.63-3.58c3.41-3.34,14.24-3.38,14.35-3.38h.07l.07,0,10.17-3.05h.05l3.19-1.37m.17-.62-3.56,1.53-10.17,3.05s-11.19,0-14.75,3.56c0,0-4.58,6.61,0,10.17,0,0,1.8,2.88,10,2.88a44.54,44.54,0,0,0,5.29-.34s6.61-1,9.66-2.54l8.11-5.15,2.39-2.39H145l-8.14-10.76Z"/><path d="M119.9,209.44s4.78,3.59,4.78,8.37" fill="#fff" stroke="#000" stroke-linecap="round" stroke-linejoin="round" stroke-width="1.2"/><path d="M125.87,208.24s4.78,3.59,3.59,8.37" fill="#fff" stroke="#000" stroke-linecap="round" stroke-linejoin="round" stroke-width="1.2"/></g></g></svg>