<?xml version="1.0" encoding="utf-8"?>
<!-- Generator: Adobe Illustrator 21.0.2, SVG Export Plug-In . SVG Version: 6.00 Build 0)  -->
<svg version="1.1" id="Layer_1" xmlns="http://www.w3.org/2000/svg" xmlns:xlink="http://www.w3.org/1999/xlink" x="0px" y="0px"
	 viewBox="0 0 190.7 183.4" style="enable-background:new 0 0 190.7 183.4;" xml:space="preserve">
<style type="text/css">
	.st0{fill:#FFEFDE;stroke:#3F3F3F;stroke-width:2;stroke-miterlimit:10;}
	.st1{fill:#3F3F3F;}
	.st2{fill:#3F3F3F;stroke:#3F3F3F;stroke-width:2;stroke-miterlimit:10;}
	.st3{fill:#EDB9B9;stroke:#3F3F3F;stroke-width:0.5;stroke-miterlimit:10;}
	.st4{fill:#EDB9B9;stroke:#3F3F3F;stroke-miterlimit:10;}
	.st5{fill:none;stroke:#3F3F3F;stroke-miterlimit:10;}
	.st6{fill:#FFEFDE;}
	.st7{fill:#4C4C4C;}
	.st8{fill:#EDB9B9;}
	.st9{fill:none;stroke:#3F3F3F;stroke-width:0.8532;stroke-miterlimit:10;}
	.st10{fill:#FFFFFF;}
	.st11{fill:none;stroke:#FFFFFF;stroke-width:2.3733;stroke-miterlimit:10;}
</style>
<title>cat</title>
<g id="cabab734-5ebe-4ce3-8ca8-a349006cb4c2">
	<g id="_x37_c0a7047-24e3-47c0-82ad-35beb2e2de74">
		<path class="st0" d="M153.4,132l6.4,0.4c0,0,2.4,0.8,6.4-3.6c0,0,7.6-8.5,16.5-6.5c0,0,9.7,4,6.1,13.7c0,0-6.4,13.3-20.5,13
			c0,0-13.3,2.5-21.4-4.4"/>
		<path class="st0" d="M155.4,98.6l2-0.4c8-2.4,3.6-14.5,3.6-14.5l-15-22.9L19.1,56.4"/>
		<path class="st0" d="M155.4,98.6L7.5,96.3c-6.4-1.2-6.5-10-6.5-10C-0.2,77,19,56.4,19,56.4"/>
		<path class="st0" d="M138.7,69.6l5.2-5.6c15.6-15.4-7-45.1-7-45.1c1.2-2,0.4-8.1,0.4-8.1c-2-6-5.6-3.2-5.6-3.2l-7.2,3.6
			C83.7-1.5,47.9,7.9,47.9,7.9c-4.8,2-6.5-2.4-6.5-2.4l-3.6-4C33-0.5,33,4,33,4l-0.4,11.3C17,32.9,15.2,44.2,17.5,51.5
			c1.5,4.8,5.7,8.8,5.7,8.8"/>
		<path class="st0" d="M148,80.9c0,0,11.7,13.2,7.8,40.2c0,0-3.5,32.2-33.3,46.8l-3.5,9.3c0,0-2.8,8.1-8,4.1c0,0-3.7-6.8-4.1-10.5
			c0,0-22.1,8.5-43.1,0.1c0,0-4.8,7.7-7.6,8.9c0,0-7.2,4.1-8.1-2.8L46,165c0,0-30.6-14.8-36.8-45c0,0-5.7-27.4,5.9-47.5"/>
		<ellipse transform="matrix(1 -3.490630e-03 3.490630e-03 1 -0.1055 0.1747)" class="st1" cx="50" cy="30.3" rx="2.4" ry="2.4"/>
		<ellipse transform="matrix(1 -3.665158e-03 3.665158e-03 1 -0.1202 0.4235)" class="st1" cx="115.5" cy="33" rx="2.4" ry="2.4"/>
		<path class="st2" d="M44.4,41.8l72.5,1c-0.2,2.5-1,4.9-2.2,7.1C108,62.6,89.5,67.6,76.2,65.5C62.6,63.3,47.7,56.7,44.4,41.8z"/>
		<path class="st3" d="M67.2,63.6c0,0,5.2-7.3,16.9-2.5c0,0,5.4-4.6,14.2,1.8C98.3,62.9,86.1,69.1,67.2,63.6z"/>
		<ellipse transform="matrix(1 -3.490630e-03 3.490630e-03 1 -0.1828 0.459)" class="st4" cx="131.4" cy="52.6" rx="5.1" ry="2.7"/>
		<ellipse class="st4" cx="32.2" cy="47.7" rx="5.1" ry="2.7"/>
		<line class="st5" x1="77.4" y1="143.9" x2="85.9" y2="153.2"/>
		<line class="st5" x1="86.6" y1="143.9" x2="77.4" y2="152.8"/>
	</g>
</g>
<g>
	<path class="st6" d="M150.4-184l-1.5-14.7c-0.2-2-2.5-3-4.1-1.8l-12.2,8.8c-0.4,0.3-0.7,0.7-0.9,1.2c-28.7-1.1-51.5,8.3-58.1,11.4
		c-0.2-0.2-0.5-0.3-0.7-0.4L57.8-185c-2.1-0.8-4.1,1.1-3.6,3.2l3.9,15.5c0.1,0.3,0.2,0.6,0.4,0.8c-7.6,15.4-6.8,24.2-3.7,29.5
		c2.2,3.7,6.4,6.2,6.4,6.2l97.8-14.9l3.2-5.7C170.2-162.8,156.5-178.1,150.4-184z"/>
	<ellipse transform="matrix(0.9727 -0.2322 0.2322 0.9727 39.1728 13.7959)" class="st7" cx="78.2" cy="-159.5" rx="2.8" ry="2.8"/>
	<path class="st6" d="M183.5-95.7l5.4-0.9c0,0,2.2,0.2,4.6-4.3c0,0,4.7-8.5,12.4-8.6c0,0,8.8,1.4,7.7,10.2c0,0-2.7,12.3-14.5,14.8
		c0,0-10.6,4.6-18.6,0.6"/>
	<path class="st6" d="M178.5-123.8l1.6-0.7c6.2-3.6,0.1-12.7,0.1-12.7l-16.9-16.1l-106.2,21"/>
	<path class="st6" d="M178.5-123.8L55.3-96.9c-5.6,0.3-7.3-7-7.3-7c-2.8-7.4,9.1-28.3,9.1-28.3"/>
	<path class="st6" d="M169-137.1c0,0,12.3,8.7,14.3,31.9c0,0,3.4,27.5-18.5,45.4l-1.1,8.4c0,0-0.7,7.2-5.9,4.9c0,0-4.4-5-5.4-7.9
		c0,0-16.7,11.4-35.8,8.5c0,0-2.5,7.3-4.6,8.9c0,0-5.2,4.8-7.2-0.7l-4.2-9.6c0,0-28.3-6.3-39.3-30.2c0,0-10.1-21.6-4.4-40.6"/>
	
		<ellipse transform="matrix(0.9727 -0.2322 0.2322 0.9727 43.2185 26.1509)" class="st7" cx="132.7" cy="-170.5" rx="2.8" ry="2.8"/>
	<path class="st7" d="M75.3-149.4l60.4-13.3c0.3,2.1,0.1,4.3-0.5,6.3c-3.1,11.9-17.4,19.6-28.9,20.5
		C94.6-135.1,80.9-137.6,75.3-149.4z"/>
	<path class="st8" d="M98.5-135.7c0,0,2.9-7.1,13.6-5.4c0,0,3.6-4.8,12.2-1.3C124.2-142.3,115.3-134.8,98.5-135.7z"/>
	<ellipse transform="matrix(0.9727 -0.232 0.232 0.9727 40.5789 30.4407)" class="st8" cx="149.7" cy="-157.3" rx="4.4" ry="2.3"/>
	<ellipse transform="matrix(0.9735 -0.2286 0.2286 0.9735 34.2391 11.3921)" class="st8" cx="66.3" cy="-142.1" rx="4.4" ry="2.3"/>
	<line class="st9" x1="122.6" y1="-70.9" x2="131.5" y2="-64.9"/>
	<line class="st9" x1="130.3" y1="-72.8" x2="124.4" y2="-63.6"/>
	<rect x="126.4" y="-177.7" transform="matrix(0.9827 -0.1852 0.1852 0.9827 34.997 21.2775)" class="st7" width="10" height="2"/>
	<rect x="72.6" y="-166.5" transform="matrix(0.9827 -0.1852 0.1852 0.9827 31.9945 11.5082)" class="st7" width="10" height="2"/>
</g>
<path class="st6" d="M-46.6-184l-1.5-14.7c-0.2-2-2.5-3-4.1-1.8l-12.2,8.8c-0.4,0.3-0.7,0.7-0.9,1.2c-28.7-1.1-51.5,8.3-58.1,11.4
	c-0.2-0.2-0.5-0.3-0.7-0.4l-15.1-5.5c-2.1-0.8-4.1,1.1-3.6,3.2l3.9,15.5c0.1,0.3,0.2,0.6,0.4,0.8c-7.6,15.4-6.8,24.2-3.7,29.5
	c2.2,3.7,6.4,6.2,6.4,6.2l97.8-14.9l3.2-5.7C-26.8-162.8-40.5-178.1-46.6-184z"/>
<ellipse transform="matrix(0.9727 -0.2322 0.2322 0.9727 37.8332 -19.5921)" class="st10" cx="-64.3" cy="-170.5" rx="4" ry="4"/>
<ellipse transform="matrix(0.9727 -0.2322 0.2322 0.9727 33.7875 -31.9472)" class="st10" cx="-118.8" cy="-159.5" rx="4" ry="4"/>
<ellipse transform="matrix(0.9727 -0.2322 0.2322 0.9727 33.7875 -31.9472)" class="st7" cx="-118.8" cy="-159.5" rx="2.8" ry="2.8"/>
<path class="st6" d="M-13.5-95.7l5.4-0.9c0,0,2.2,0.2,4.6-4.3c0,0,4.7-8.5,12.4-8.6c0,0,8.8,1.4,7.7,10.2c0,0-2.7,12.3-14.5,14.8
	c0,0-10.6,4.6-18.6,0.6"/>
<path class="st6" d="M-18.5-123.8l1.6-0.7c6.2-3.6,0.1-12.7,0.1-12.7l-16.9-16.1l-106.2,21.1"/>
<path class="st6" d="M-18.5-123.8l-123.2,26.9c-5.6,0.3-7.3-7-7.3-7c-2.8-7.4,9.1-28.3,9.1-28.3"/>
<path class="st6" d="M-28-137.1c0,0,12.3,8.7,14.3,31.9c0,0,3.4,27.5-18.5,45.4l-1.1,8.4c0,0-0.7,7.2-5.9,4.9c0,0-4.4-5-5.4-7.9
	c0,0-16.7,11.4-35.8,8.5c0,0-2.5,7.3-4.6,8.9c0,0-5.2,4.8-7.2-0.7l-4.2-9.6c0,0-28.3-6.3-39.3-30.2c0,0-10.1-21.6-4.4-40.6"/>
<ellipse transform="matrix(0.9727 -0.2322 0.2322 0.9727 37.8332 -19.5921)" class="st7" cx="-64.3" cy="-170.5" rx="2.8" ry="2.8"/>
<path class="st7" d="M-121.7-149.4l60.4-13.3c0.3,2.1,0.1,4.3-0.5,6.3c-3.1,11.9-17.4,19.6-28.9,20.5
	C-102.4-135.1-116.1-137.6-121.7-149.4z"/>
<path class="st8" d="M-98.5-135.7c0,0,2.9-7.1,13.6-5.4c0,0,3.6-4.8,12.2-1.3C-72.8-142.3-81.7-134.8-98.5-135.7z"/>
<ellipse transform="matrix(0.9727 -0.232 0.232 0.9727 35.8182 -16.0412)" class="st8" cx="-50.3" cy="-160.3" rx="4.9" ry="2.6"/>
<ellipse transform="matrix(0.9735 -0.2286 0.2286 0.9735 29.0229 -33.6422)" class="st8" cx="-130.7" cy="-142.1" rx="4.9" ry="2.6"/>
<line class="st11" x1="-148.2" y1="40.7" x2="-134.5" y2="40.7"/>
<line class="st11" x1="-148.8" y1="52.4" x2="-136.9" y2="57.6"/>
<line class="st11" x1="-148.8" y1="29.2" x2="-136.9" y2="24"/>
<line class="st11" x1="-181" y1="41.7" x2="-194.7" y2="41.7"/>
<line class="st11" x1="-180.4" y1="53.4" x2="-192.3" y2="58.6"/>
<line class="st11" x1="-180.4" y1="30.2" x2="-192.3" y2="25"/>
</svg>
