<svg xmlns="http://www.w3.org/2000/svg" viewBox="0 0 357.91 348.54"><title>vancouver</title><g id="d6a40893-dce0-4b3f-af32-be7c8214c0ec" data-name="Layer 2"><g id="3ab6164a-3174-4e8b-9ef0-f73d32d8f2a7" data-name="bubble"><line id="c9ecc3c5-71c8-401a-bc06-b0ef6f055a55" data-name="ski cable" x1="136.24" y1="6.93" x2="174.66" y2="24.49" fill="#9b8272" stroke="#000" stroke-linecap="round" stroke-linejoin="round" stroke-width="0.41"/><g id="8e37ce80-02fb-4120-8787-926411f1ac88" data-name="free mountains"><path d="M150.13,111.84h73.19l-5.22-15.09L217.47,95q-1-2.65-1.93-5.29-1.48-4-3-8-1.89-5-3.85-9.91-2.18-5.5-4.46-11-2.35-5.62-4.84-11.18c-1.59-3.55-3.24-7.08-5-10.56C192.86,36,191.26,33,189.52,30c-1.24-2.12-2.59-4.17-4-6.16-.61-.86-1.33-1.62-1.95-2.45a5.43,5.43,0,0,0-2-1.85,1.91,1.91,0,0,0-1.38.1A6.91,6.91,0,0,0,178,21.45c-.74.81-1.44,1.65-2.12,2.5-1,1.26-2,2.57-2.9,3.88-1.3,1.82-2.54,3.68-3.76,5.56q-2.42,3.72-4.71,7.53-2.93,4.86-5.73,9.8l-1.21,2.14-.12-.31q-2.18-5.5-4.46-11-2.35-5.62-4.84-11.18c-1.59-3.55-3.24-7.08-5-10.56-1.54-3.08-3.14-6.14-4.88-9.11-1.24-2.12-2.59-4.17-4-6.16-.61-.86-1.33-1.62-1.95-2.45a5.43,5.43,0,0,0-2-1.85,1.91,1.91,0,0,0-1.38.1,6.91,6.91,0,0,0-2.19,1.84c-.74.81-1.44,1.65-2.12,2.5-1,1.26-2,2.57-2.9,3.88-1.3,1.82-2.54,3.68-3.76,5.56q-2.42,3.72-4.71,7.53-2.93,4.86-5.73,9.8-3.49,6.15-6.84,12.37-4.09,7.58-8,15.24-4.72,9.16-9.3,18.4L64.7,111.84h85.42Z" fill="#9ab2d8" stroke="#000" stroke-linecap="round" stroke-linejoin="round" stroke-width="0.41"/><line x1="157.29" y1="52.29" x2="160" y2="59.95" fill="#5473af" stroke="#000" stroke-linecap="round" stroke-linejoin="round" stroke-width="0.41"/><path d="M108.74,29.15s1.45-.21,4.75-3.31c0,0,2.48-1.65,3.31,1.65,0,0,2.89,18.4,5.79,20.05,0,0,2.27,3.1,3.72-.83,0,0,1.86-12.61,3.72-13.85,0,0,3.31-5.79,6.2.41,0,0,1.45,9.72,5.37,6.82,0,0,4.13-1.65,5.37-10.34V27.91S135.61,1.66,130.24.42c0,0-2.27-1.45-6.41,4.34C123.83,4.76,114.94,18.82,108.74,29.15Z" fill="#fff" stroke="#000" stroke-linecap="round" stroke-linejoin="round" stroke-width="0.41"/><path d="M183.81,21.16l0-.07a4.72,4.72,0,0,0-2.06-1.71,1.72,1.72,0,0,0-.52-.15c-1.3-.27-3,.23-5.06,2.9L164.55,40.73A35.34,35.34,0,0,1,170.34,37c2.07-.83,3.93.62,4.55,3.72,0,0,1.24,13.23,4.75,10.75,0,0,2.07-1.45,3.31-5.79,0,0,1.45-4.13,3.1-.41,0,0,2.89,4.34,7.44-2.07a11.11,11.11,0,0,0,1.68-2.54S188.44,26.44,183.81,21.16Z" fill="#fff" stroke="#000" stroke-linecap="round" stroke-linejoin="round" stroke-width="0.41"/></g><path d="M112.42,112,85.19,112a.42.42,0,0,1-.43-.41L85,44.86a.42.42,0,0,1,.43-.41l27.23.1a.42.42,0,0,1,.43.41l-.23,66.68A.42.42,0,0,1,112.42,112Z" fill="#c1bfbf" stroke="#000" stroke-linecap="round" stroke-linejoin="round" stroke-width="0.41"/><rect x="90.66" y="51.59" width="5.36" height="5.15" rx="0.42" ry="0.42" transform="translate(38.86 147.33) rotate(-89.81)" fill="#fdf49e" stroke="#000" stroke-linecap="round" stroke-linejoin="round" stroke-width="0.41"/><path d="M95.48,70.91l-4.3,0a.42.42,0,0,1-.42-.42l0-5.35a.42.42,0,0,1,.43-.42l4.3,0a.42.42,0,0,1,.42.42l0,5.35A.42.42,0,0,1,95.48,70.91Z" fill="#fdf49e" stroke="#000" stroke-linecap="round" stroke-linejoin="round" stroke-width="0.41"/><path d="M95.48,85h-4.3a.42.42,0,0,1-.42-.42l0-5.35a.42.42,0,0,1,.43-.42h4.3a.42.42,0,0,1,.42.42l0,5.35A.42.42,0,0,1,95.48,85Z" fill="#6d6c6d" stroke="#000" stroke-linecap="round" stroke-linejoin="round" stroke-width="0.41"/><path d="M95.27,98,91,98a.42.42,0,0,1-.42-.42l0-5.35a.42.42,0,0,1,.43-.42h4.3a.42.42,0,0,1,.42.42l0,5.35A.42.42,0,0,1,95.27,98Z" fill="#6d6c6d" stroke="#000" stroke-linecap="round" stroke-linejoin="round" stroke-width="0.41"/><rect x="101.82" y="51.59" width="5.36" height="5.15" rx="0.42" ry="0.42" transform="translate(49.98 158.48) rotate(-89.81)" fill="#fdf49e" stroke="#000" stroke-linecap="round" stroke-linejoin="round" stroke-width="0.41"/><rect x="101.41" y="65.24" width="6.19" height="5.15" rx="0.42" ry="0.42" transform="translate(36.35 172.09) rotate(-89.81)" fill="#6d6c6d" stroke="#000" stroke-linecap="round" stroke-linejoin="round" stroke-width="0.41"/><path d="M106.43,85h-4.3a.42.42,0,0,1-.42-.42l0-5.35a.42.42,0,0,1,.43-.42l4.3,0a.42.42,0,0,1,.42.42l0,5.35A.42.42,0,0,1,106.43,85Z" fill="#fdf49e" stroke="#000" stroke-linecap="round" stroke-linejoin="round" stroke-width="0.41"/><rect x="101.2" y="92.52" width="6.19" height="5.15" rx="0.42" ry="0.42" transform="translate(8.85 199.07) rotate(-89.81)" fill="#fdf49e" stroke="#000" stroke-linecap="round" stroke-linejoin="round" stroke-width="0.41"/><path d="M42.22,112,20.62,112a.33.33,0,0,1-.34-.32l.18-51.42a.33.33,0,0,1,.34-.32L42.4,60a.33.33,0,0,1,.34.32l-.18,51.42A.33.33,0,0,1,42.22,112Z" fill="#ddd" stroke="#000" stroke-linecap="round" stroke-linejoin="round" stroke-width="0.41"/><path d="M28.78,69.48H25.36a.33.33,0,0,1-.34-.33V65.66a.33.33,0,0,1,.34-.32h3.42a.33.33,0,0,1,.34.33v3.48A.33.33,0,0,1,28.78,69.48Z" fill="#6d6c6d" stroke="#000" stroke-linecap="round" stroke-linejoin="round" stroke-width="0.41"/><path d="M28.78,80.32H25.37A.33.33,0,0,1,25,80V75.86a.33.33,0,0,1,.34-.32h3.41a.33.33,0,0,1,.34.32V80A.33.33,0,0,1,28.78,80.32Z" fill="#fdf49e" stroke="#000" stroke-linecap="round" stroke-linejoin="round" stroke-width="0.41"/><path d="M28.78,91.16H25.37a.33.33,0,0,1-.34-.32V86.7a.33.33,0,0,1,.34-.32h3.41a.33.33,0,0,1,.34.32v4.13A.33.33,0,0,1,28.78,91.16Z" fill="#fdf49e" stroke="#000" stroke-linecap="round" stroke-linejoin="round" stroke-width="0.41"/><path d="M37.63,69.48H34.22a.33.33,0,0,1-.34-.33V65.66a.33.33,0,0,1,.34-.32h3.41a.33.33,0,0,1,.34.33v3.48A.33.33,0,0,1,37.63,69.48Z" fill="#fdf49e" stroke="#000" stroke-linecap="round" stroke-linejoin="round" stroke-width="0.41"/><rect x="33.55" y="75.89" width="4.77" height="4.09" rx="0.32" ry="0.32" transform="translate(-42.11 113.62) rotate(-89.81)" fill="#6d6c6d" stroke="#000" stroke-linecap="round" stroke-linejoin="round" stroke-width="0.41"/><path d="M37.47,91.17H34.06a.33.33,0,0,1-.34-.32V86.7a.33.33,0,0,1,.34-.32h3.41a.33.33,0,0,1,.34.32v4.13A.33.33,0,0,1,37.47,91.17Z" fill="#fdf49e" stroke="#000" stroke-linecap="round" stroke-linejoin="round" stroke-width="0.41"/><path d="M66,111.84l-22-.21a.41.41,0,0,1-.41-.42l.56-59.54a.41.41,0,0,1,.42-.41l22,.21a.21.21,0,0,1,.2.21l-.57,59.95A.21.21,0,0,1,66,111.84Z" fill="#b6b6b7" stroke="#000" stroke-linecap="round" stroke-linejoin="round" stroke-width="0.41"/><rect x="49.01" y="67.62" width="4.31" height="4.31" rx="0.41" ry="0.41" transform="translate(-19.09 120.27) rotate(-89.45)" fill="#fdf49e" stroke="#000" stroke-linecap="round" stroke-linejoin="round" stroke-width="0.41"/><rect x="48.8" y="77.75" width="4.31" height="4.31" rx="0.41" ry="0.41" transform="translate(-29.45 130.07) rotate(-89.43)" fill="#6d6c6d" stroke="#000" stroke-linecap="round" stroke-linejoin="round" stroke-width="0.41"/><rect x="48.8" y="87.88" width="4.31" height="4.31" rx="0.41" ry="0.41" transform="translate(-39.55 140.15) rotate(-89.46)" fill="#fdf49e" stroke="#000" stroke-linecap="round" stroke-linejoin="round" stroke-width="0.41"/><rect x="57.49" y="67.62" width="4.31" height="4.31" rx="0.41" ry="0.41" transform="translate(-10.68 128.77) rotate(-89.47)" fill="#fdf49e" stroke="#000" stroke-linecap="round" stroke-linejoin="round" stroke-width="0.41"/><rect x="49.01" y="57.7" width="4.31" height="4.31" rx="0.41" ry="0.41" transform="translate(-9.17 110.45) rotate(-89.46)" fill="#fdf49e" stroke="#000" stroke-linecap="round" stroke-linejoin="round" stroke-width="0.41"/><rect x="57.49" y="57.7" width="4.31" height="4.31" rx="0.41" ry="0.41" transform="translate(-0.77 118.92) rotate(-89.46)" fill="#fdf49e" stroke="#000" stroke-linecap="round" stroke-linejoin="round" stroke-width="0.41"/><rect x="57.28" y="77.75" width="4.31" height="4.31" rx="0.41" ry="0.41" transform="translate(-21.02 138.59) rotate(-89.47)" fill="#fdf49e" stroke="#000" stroke-linecap="round" stroke-linejoin="round" stroke-width="0.41"/><rect x="57.28" y="88.08" width="4.31" height="4.31" rx="0.41" ry="0.41" transform="translate(-31.39 148.78) rotate(-89.43)" fill="#fdf49e" stroke="#000" stroke-linecap="round" stroke-linejoin="round" stroke-width="0.41"/><path d="M66.54,51.69l-21.89-.21a.41.41,0,0,1-.41-.42l0-2.27a.41.41,0,0,1,.42-.41l21.89.2a.21.21,0,0,1,.2.21l0,2.69A.21.21,0,0,1,66.54,51.69Z" fill="#ddd" stroke="#000" stroke-linecap="round" stroke-linejoin="round" stroke-width="0.41"/><rect x="54.25" y="37.64" width="3.13" height="19" rx="0.41" ry="0.41" transform="translate(8.15 102.5) rotate(-89.45)" fill="#ddd" stroke="#000" stroke-linecap="round" stroke-linejoin="round" stroke-width="0.41"/><rect x="54.34" y="36.09" width="3.16" height="16.31" rx="0.41" ry="0.41" transform="translate(11.15 99.74) rotate(-89.46)" fill="#ddd" stroke="#000" stroke-linecap="round" stroke-linejoin="round" stroke-width="0.41"/><rect x="74.42" y="1.45" width="3.51" height="16.12" rx="1.65" ry="1.65" fill="#b6b6b7" stroke="#000" stroke-linecap="round" stroke-linejoin="round" stroke-width="0.41"/><path d="M82.95,111.84l-15.12-.13a.43.43,0,0,1-.44-.42l.74-72.63a.43.43,0,0,1,.45-.41l15.12.13a.43.43,0,0,1,.44.42l-.74,72.64A.43.43,0,0,1,82.95,111.84Z" fill="#818281" stroke="#000" stroke-linecap="round" stroke-linejoin="round" stroke-width="0.41"/><path d="M77.47,50.86l-2.62,0c-.24,0-.43-.15-.43-.32l0-2.64c0-.18.2-.32.44-.32l2.62,0c.24,0,.44.15.43.32l0,2.65C77.91,50.72,77.71,50.86,77.47,50.86Z" fill="#fdf49e" stroke="#000" stroke-linecap="round" stroke-linejoin="round" stroke-width="0.41"/><path d="M77.26,59.75l-2.62,0c-.24,0-.43-.15-.43-.32l0-2.65c0-.18.2-.32.44-.32l2.61,0c.24,0,.43.15.43.32l0,2.65C77.7,59.61,77.5,59.75,77.26,59.75Z" fill="#fdf49e" stroke="#000" stroke-linecap="round" stroke-linejoin="round" stroke-width="0.41"/><path d="M77.26,68.64l-2.62,0c-.24,0-.43-.15-.43-.32l0-2.65c0-.18.2-.32.44-.32l2.62,0c.24,0,.43.15.43.32l0,2.65C77.7,68.5,77.5,68.64,77.26,68.64Z" fill="#fdf49e" stroke="#000" stroke-linecap="round" stroke-linejoin="round" stroke-width="0.41"/><path d="M77.26,76.7l-2.62,0c-.24,0-.43-.15-.43-.32l0-2.65c0-.18.2-.32.44-.32l2.62,0c.24,0,.43.15.43.32l0,2.65C77.7,76.56,77.5,76.7,77.26,76.7Z" fill="#fdf49e" stroke="#000" stroke-linecap="round" stroke-linejoin="round" stroke-width="0.41"/><path d="M83.67,38.87l-15.21-.13a.43.43,0,0,1-.44-.42l0-1.73a.43.43,0,0,1,.45-.41l15.21.13a.43.43,0,0,1,.44.42l0,1.73A.43.43,0,0,1,83.67,38.87Z" fill="silver" stroke="#000" stroke-linecap="round" stroke-linejoin="round" stroke-width="0.41"/><path d="M58.57,24.6H92.78a.41.41,0,0,1,.36.66l-9,11.16a.46.46,0,0,1-.36.17H68.15a.46.46,0,0,1-.35-.16L58.22,25.28A.41.41,0,0,1,58.57,24.6Z" fill="#818281" stroke="#000" stroke-linecap="round" stroke-linejoin="round" stroke-width="0.41"/><path d="M59.5,24H91.92a.41.41,0,0,0,.37-.65L90.9,21.48a.46.46,0,0,0-.37-.18H61.2a.46.46,0,0,0-.34.15l-1.7,1.86A.41.41,0,0,0,59.5,24Z" fill="#818281" stroke="#000" stroke-linecap="round" stroke-linejoin="round" stroke-width="0.41"/><path d="M65.39,20.68H87.1a.43.43,0,0,0,.44-.48L87,17.3a.44.44,0,0,0-.44-.35H66.26a.44.44,0,0,0-.43.3L65,20.15A.42.42,0,0,0,65.39,20.68Z" fill="#818281" stroke="#000" stroke-linecap="round" stroke-linejoin="round" stroke-width="0.41"/><g id="ca5c485d-a3e0-4555-be0d-2607b4082edb" data-name="&lt;Group&gt;"><rect id="6a196ba1-f785-481c-82e0-ed01f8e763e7" data-name="&lt;Rectangle&gt;" x="273.09" y="77.99" width="4.06" height="34" rx="1.65" ry="1.65" fill="#d6a380" stroke="#000" stroke-miterlimit="10" stroke-width="0.41"/><path id="ad19af61-bc11-430e-8597-1879bc229de6" data-name="&lt;Path&gt;" d="M277.15,85.34s25.4,19.24,57,0" fill="none" stroke="#000" stroke-linecap="round" stroke-miterlimit="10" stroke-width="0.62"/><path id="ad147573-6535-47e8-a5b7-fb4bc755fb84" data-name="&lt;Path&gt;" d="M277.15,81.06s25.4,19.24,57,0" fill="none" stroke="#000" stroke-linecap="round" stroke-miterlimit="10" stroke-width="0.62"/><line id="6b8f8b8c-34a2-4fc1-a4f5-f0bc7ec623ed" data-name="&lt;Path&gt;" x1="279.86" y1="82.81" x2="279.86" y2="86.76" fill="none" stroke="#000" stroke-linecap="round" stroke-miterlimit="10" stroke-width="0.62"/><line id="19dced53-cf04-443a-918e-59c1ddd6d712" data-name="&lt;Path&gt;" x1="283.68" y1="85.12" x2="283.68" y2="89.07" fill="none" stroke="#000" stroke-linecap="round" stroke-miterlimit="10" stroke-width="0.62"/><line id="d28e6e15-c857-4b85-94f9-9703819c4be4" data-name="&lt;Path&gt;" x1="287.83" y1="86.76" x2="287.83" y2="90.71" fill="none" stroke="#000" stroke-linecap="round" stroke-miterlimit="10" stroke-width="0.62"/><line id="b2e89157-8beb-4941-bc28-f0c78f27dc35" data-name="&lt;Path&gt;" x1="291.98" y1="88.05" x2="291.98" y2="92" fill="none" stroke="#000" stroke-linecap="round" stroke-miterlimit="10" stroke-width="0.62"/><line id="4c9cc088-fe4a-437c-8396-62e7f167fc4b" data-name="&lt;Path&gt;" x1="296.13" y1="89.07" x2="296.13" y2="92.65" fill="none" stroke="#000" stroke-linecap="round" stroke-miterlimit="10" stroke-width="0.62"/><line id="e65dbb66-821d-4264-8a7d-dc13ce59f966" data-name="&lt;Path&gt;" x1="300.28" y1="89.62" x2="300.28" y2="93.15" fill="none" stroke="#000" stroke-linecap="round" stroke-miterlimit="10" stroke-width="0.62"/><line id="5972692c-dfc7-40ea-be90-ad784739f0ff" data-name="&lt;Path&gt;" x1="304.42" y1="89.71" x2="304.42" y2="93.86" fill="none" stroke="#000" stroke-linecap="round" stroke-miterlimit="10" stroke-width="0.62"/><line id="98cf1cc5-0084-4ea5-91d1-6192d67da718" data-name="&lt;Path&gt;" x1="308.57" y1="89.71" x2="308.57" y2="93.65" fill="none" stroke="#000" stroke-linecap="round" stroke-miterlimit="10" stroke-width="0.62"/><line id="76d9443d-7ee1-4a3e-8c94-235e92042127" data-name="&lt;Path&gt;" x1="312.72" y1="89.1" x2="312.72" y2="93.24" fill="none" stroke="#000" stroke-linecap="round" stroke-miterlimit="10" stroke-width="0.62"/><line id="f652063f-bc98-4d82-9d06-9358831cd93e" data-name="&lt;Path&gt;" x1="316.87" y1="88.58" x2="316.87" y2="92.41" fill="none" stroke="#000" stroke-linecap="round" stroke-miterlimit="10" stroke-width="0.62"/><line id="ed6cc93c-ad0a-456d-8e76-fbc744e7ea7e" data-name="&lt;Path&gt;" x1="321.02" y1="87.24" x2="321.02" y2="91.17" fill="none" stroke="#000" stroke-linecap="round" stroke-miterlimit="10" stroke-width="0.62"/><line id="423bcb15-efe1-47f3-8143-2ee412e0a2bf" data-name="&lt;Path&gt;" x1="325.17" y1="85.79" x2="325.17" y2="89.72" fill="none" stroke="#000" stroke-linecap="round" stroke-miterlimit="10" stroke-width="0.62"/><line id="491d50d9-2ae8-4dd6-a85e-83509fe1370e" data-name="&lt;Path&gt;" x1="329.32" y1="83.93" x2="329.32" y2="87.86" fill="none" stroke="#000" stroke-linecap="round" stroke-miterlimit="10" stroke-width="0.62"/><line id="69992610-9098-43cf-ae53-a2ee0220e5f7" data-name="&lt;Path&gt;" x1="333.46" y1="85.12" x2="333.46" y2="89.07" fill="none" stroke="#69e2b3" stroke-linecap="round" stroke-miterlimit="10" stroke-width="0.41"/><rect id="655e2646-53a9-4b93-9f0f-09ca1af9a338" data-name="&lt;Rectangle&gt;" x="332.08" y="77.99" width="4.06" height="34" rx="1.65" ry="1.65" fill="#d6a380" stroke="#000" stroke-miterlimit="10" stroke-width="0.41"/></g><polygon points="237.42 69.26 251.57 111.84 223.26 111.84 237.42 69.26" fill="#88b769" stroke="#000" stroke-miterlimit="10" stroke-width="0.31"/><polygon points="283 72.15 297.05 111.84 268.95 111.84 283 72.15" fill="#bfe0a9" stroke="#000" stroke-miterlimit="10" stroke-width="0.31"/><polygon points="252.21 34.85 265.01 78.77 239.41 78.77 252.21 34.85" fill="#88b769" stroke="#000" stroke-miterlimit="10" stroke-width="0.31"/><polygon points="275.47 39.82 286.93 70.5 264.01 70.5 275.47 39.82" fill="#6c9651" stroke="#000" stroke-miterlimit="10" stroke-width="0.31"/><polygon points="252.53 65.95 260.89 86.62 244.16 86.62 252.53 65.95" fill="#32561f" stroke="#000" stroke-miterlimit="10" stroke-width="0.31"/><path d="M256.26,105.71H255a.44.44,0,0,1-.44-.43V75a.44.44,0,0,1,.44-.43h1.3a.44.44,0,0,1,.44.43v30.29A.44.44,0,0,1,256.26,105.71Z" fill="#967c69" stroke="#000" stroke-linecap="round" stroke-linejoin="round" stroke-width="0.41"/><path d="M289.24,77.07h1.61a.45.45,0,0,0,.35-.66l-4.56-10.1-.26-.58a.45.45,0,0,1,.35-.66h1.2a.45.45,0,0,0,.33-.68l-3.1-5.92-3.12-6a.37.37,0,0,0-.67,0l-3.12,6-3.1,5.92a.45.45,0,0,0,.33.68h1.34a.45.45,0,0,1,.35.66l-.26.58-4.57,10.1a.45.45,0,0,0,.35.66h2a.44.44,0,0,1,.37.59l-3.21,11.48a.44.44,0,0,0,.37.59h19.48a.44.44,0,0,0,.37-.59l-3.21-11.48A.44.44,0,0,1,289.24,77.07Z" fill="#619944" stroke="#000" stroke-miterlimit="10" stroke-width="0.31"/><path d="M286.68,105.71H284.5c-.18,0-.32-.19-.32-.43v-28c0-.24.14-.43.32-.43h2.18c.18,0,.32.19.32.43v28C287,105.52,286.86,105.71,286.68,105.71Z" fill="#967c69" stroke="#000" stroke-linecap="round" stroke-linejoin="round" stroke-width="0.41"/><path d="M273.4,105.71h-2.28a.48.48,0,0,1-.51-.43v-28a.48.48,0,0,1,.51-.43h2.28a.48.48,0,0,1,.51.43v28A.48.48,0,0,1,273.4,105.71Z" fill="#967c69" stroke="#000" stroke-linecap="round" stroke-linejoin="round" stroke-width="0.41"/><path d="M262.09,105.28V74.35c0-.24.14-.43.32-.43h2.82c.18,0,.32.19.32.43v30.93c0,.24-.14.43-.32.43h-2.82C262.23,105.71,262.09,105.52,262.09,105.28Z" fill="#967c69" stroke="#000" stroke-linecap="round" stroke-linejoin="round" stroke-width="0.41"/><path d="M273.27,59.12h2.57c.26,0,.41-.38.27-.67l-6-12.34-.4-.82c-.14-.29,0-.67.27-.67H272c.27,0,.42-.41.26-.69l-4.12-7.29-4.26-7.53a.28.28,0,0,0-.52,0l-4.26,7.53L255,43.93c-.16.28,0,.69.26.69h2.25c.26,0,.41.38.27.67l-.4.82-6,12.33c-.14.29,0,.67.27.67h3.08c.23,0,.39.31.3.59l-4.27,14.1c-.09.28.07.59.3.59h25.9c.23,0,.39-.31.3-.59L273,59.71C272.88,59.43,273,59.12,273.27,59.12Z" fill="#bfe0a9" stroke="#000" stroke-miterlimit="10" stroke-width="0.31"/><path d="M292.45,66.87H294c.26,0,.41-.38.27-.67L290,57.5l-.2-.41c-.14-.29,0-.67.27-.67h1.14c.27,0,.42-.41.26-.69l-2.86-5.05-3-5.29a.28.28,0,0,0-.52,0l-3,5.29-2.86,5.05c-.16.28,0,.69.26.69h1.27c.26,0,.41.38.27.67l-.2.41-4.25,8.69c-.14.29,0,.67.27.67h1.92c.23,0,.39.31.3.59l-3,9.82c-.09.28.07.59.3.59h18.38c.23,0,.39-.31.3-.59l-3-9.82C292.07,67.17,292.22,66.87,292.45,66.87Z" fill="#bfe0a9" stroke="#000" stroke-miterlimit="10" stroke-width="0.31"/><path d="M279.48,71.28H281c.26,0,.41-.38.27-.67l-4.25-8.69-.2-.41c-.14-.29,0-.67.27-.67h1.14c.27,0,.42-.41.26-.69l-2.86-5.05-3-5.29a.28.28,0,0,0-.52,0l-3,5.29-2.86,5.05c-.16.28,0,.69.26.69h1.27c.26,0,.41.38.27.67l-.2.41-4.25,8.69c-.14.29,0,.67.27.67h1.92c.23,0,.39.31.3.59l-3,9.82c-.09.28.07.59.3.59h18.38c.23,0,.39-.31.3-.59l-3-9.82C279.1,71.59,279.25,71.28,279.48,71.28Z" fill="#88b769" stroke="#000" stroke-miterlimit="10" stroke-width="0.31"/><path d="M244.71,107.91h-2.18c-.18,0-.32-.19-.32-.43v-28c0-.24.14-.43.32-.43h2.18c.18,0,.32.19.32.43v28C245,107.72,244.89,107.91,244.71,107.91Z" fill="#967c69" stroke="#000" stroke-linecap="round" stroke-linejoin="round" stroke-width="0.41"/><path d="M250.69,69.95h1.43c.24,0,.38-.35.25-.61l-3.91-8-.18-.37c-.13-.26,0-.61.25-.61h1c.25,0,.39-.38.24-.64l-2.63-4.65-2.75-4.87a.26.26,0,0,0-.47,0l-2.75,4.87-2.63,4.65c-.15.26,0,.64.24.64H240c.24,0,.38.35.25.61l-.18.37-3.91,8c-.13.26,0,.61.25.61h1.76c.21,0,.35.29.28.55l-2.73,9c-.08.26.06.55.28.55h16.91c.21,0,.35-.28.28-.55l-2.73-9C250.34,70.23,250.48,69.95,250.69,69.95Z" fill="#bfe0a9" stroke="#000" stroke-miterlimit="10" stroke-width="0.31"/><path d="M252.87,105.71h-1.5a.47.47,0,0,1-.51-.43V75a.47.47,0,0,1,.51-.43h1.5a.47.47,0,0,1,.51.43v30.29A.47.47,0,0,1,252.87,105.71Z" fill="#967c69" stroke="#000" stroke-linecap="round" stroke-linejoin="round" stroke-width="0.41"/><path d="M255.94,70.41h.9c.27,0,.42-.41.26-.69l-3-5.24v0h0c-.14-.29,0-.67.27-.67h.74c.27,0,.42-.41.26-.69l-1.67-3L251.9,57a.28.28,0,0,0-.52,0l-1.8,3.19-1.67,3c-.16.28,0,.69.26.69H249c.26,0,.41.38.27.67h0v0l-3,5.23c-.16.28,0,.69.26.69h1.16c.25,0,.4.36.28.65l-2.49,5.69c-.13.29,0,.65.28.65h12.3c.25,0,.41-.37.27-.66l-2.67-5.66C255.53,70.78,255.68,70.41,255.94,70.41Z" fill="#65994d" stroke="#000" stroke-miterlimit="10" stroke-width="0.31"/><polygon points="262.13 56.77 274.93 100.68 249.33 100.68 262.13 56.77" fill="#bfe0a9" stroke="#000" stroke-miterlimit="10" stroke-width="0.31"/><polygon points="245.18 67.4 257.98 107.09 232.38 107.09 245.18 67.4" fill="#97b783" stroke="#000" stroke-miterlimit="10" stroke-width="0.31"/><circle cx="281.45" cy="93.96" r="7.55" fill="#97b783" stroke="#000" stroke-miterlimit="10" stroke-width="0.31"/><path d="M272.68,94.15a4.58,4.58,0,0,0,2.35-3.9,4.94,4.94,0,0,0-4.46-4.65,6.3,6.3,0,0,0,.19-1.53c0-3-2.1-5.46-4.69-5.46s-4.69,2.44-4.69,5.46a6.32,6.32,0,0,0,.15,1.38c-2.79.26-5,2.26-5,4.68a4.48,4.48,0,0,0,2.12,3.7c-2.61,1.26-4.3,3.23-4.3,5.45,0,3.79,4.92,6.87,11,6.87s11-3.07,11-6.87C276.39,97.25,275,95.41,272.68,94.15Z" fill="#88b769" stroke="#000" stroke-miterlimit="10" stroke-width="0.31"/><circle cx="250.76" cy="95.92" r="5.58" fill="#6c9651" stroke="#000" stroke-miterlimit="10" stroke-width="0.31"/><ellipse cx="262.8" cy="126.21" rx="39.33" ry="28.73" fill="#6c9651" stroke="#000" stroke-miterlimit="10" stroke-width="0.31"/><g id="c93b0af2-ecab-4da7-b805-e5e67b79d334" data-name="ball"><circle cx="213.75" cy="81.87" r="26.46" fill="#e9f4f0" stroke="#020202" stroke-miterlimit="10" stroke-width="0.41"/><polygon points="206.52 72.77 222.44 72.77 213.75 89.1 205.07 72.77 206.52 72.77" fill="#c7e0e5" stroke="#000" stroke-linecap="round" stroke-linejoin="round" stroke-width="0.41"/><polygon points="223.78 72.77 238.35 72.77 230.5 89.1 222.44 72.77 223.78 72.77" fill="#c7e0e5" stroke="#000" stroke-linecap="round" stroke-linejoin="round" stroke-width="0.41"/><polygon points="190.1 72.77 205.07 72.77 196.91 89.1 189.15 72.77 190.1 72.77" fill="#c7e0e5" stroke="#000" stroke-linecap="round" stroke-linejoin="round" stroke-width="0.41"/><polygon points="214.79 89.1 230.7 89.1 222.02 105.43 213.34 89.1 214.79 89.1" fill="#c7e0e5" stroke="#000" stroke-linecap="round" stroke-linejoin="round" stroke-width="0.41"/><polygon points="198.37 89.1 213.34 89.1 205.17 105.43 197.01 89.1 198.37 89.1" fill="#c7e0e5" stroke="#000" stroke-linecap="round" stroke-linejoin="round" stroke-width="0.41"/><path d="M188.53,89.1h8.27l-4.13,8.48S189.36,93,188.53,89.1Z" fill="#c7e0e5" stroke="#000" stroke-linecap="round" stroke-linejoin="round" stroke-width="0.41"/><path d="M239.18,88.9l-8.68.21,4.13,8.48S238.56,92.82,239.18,88.9Z" fill="#c7e0e5" stroke="#000" stroke-linecap="round" stroke-linejoin="round" stroke-width="0.41"/><path d="M229.07,60.37a26.34,26.34,0,0,0-15.32-4.88h0l8.68,17.36,6.64-12.48Z" fill="#c7e0e5" stroke="#000" stroke-linecap="round" stroke-linejoin="round" stroke-width="0.41"/><path d="M198.47,60.35l6.61,12.42,8.64-17.28A26.34,26.34,0,0,0,198.47,60.35Z" fill="#c7e0e5" stroke="#000" stroke-linecap="round" stroke-linejoin="round" stroke-width="0.41"/></g><g id="500b14c8-69cb-441f-8789-6ce17dfc005c" data-name="base"><path d="M229.35,111.15l-2.94-3.1a.43.43,0,0,0-.31-.13H201.35a.43.43,0,0,0-.33.15l-2.67,3.1a.41.41,0,0,0,.33.68H229A.41.41,0,0,0,229.35,111.15Z" fill="#a7a6a6" stroke="#000" stroke-linecap="round" stroke-linejoin="round" stroke-width="0.41"/><rect x="201.35" y="105.02" width="24.81" height="2.89" rx="0.78" ry="0.78" fill="#6d6c6d" stroke="#000" stroke-linecap="round" stroke-linejoin="round" stroke-width="0.41"/></g><path d="M120.1,106.7c-.11-1.2-.84-4.85-5.61-8.48a.46.46,0,0,1,.29-.82c5,.62,18.79.32,33-17.43a.43.43,0,0,1,.74.4c-1.16,4.76-3.53,16.9-.32,26.14a.45.45,0,0,1-.4.61H120.53A.44.44,0,0,1,120.1,106.7Z" fill="#fff" stroke="#000" stroke-miterlimit="10" stroke-width="0.41"/><path d="M137.8,106.7c-.11-1.2-.84-4.85-5.61-8.48a.46.46,0,0,1,.29-.82c5,.62,18.79.32,33-17.43a.43.43,0,0,1,.74.4c-1.16,4.76-3.53,16.9-.32,26.14a.45.45,0,0,1-.4.61H138.23A.44.44,0,0,1,137.8,106.7Z" fill="#fff" stroke="#000" stroke-miterlimit="10" stroke-width="0.41"/><path d="M156.36,106.7c-.11-1.2-.84-4.85-5.61-8.48a.46.46,0,0,1,.29-.82c5,.62,18.79.32,33-17.43a.43.43,0,0,1,.74.4c-1.16,4.76-3.53,16.9-.32,26.14a.45.45,0,0,1-.4.61H156.78A.44.44,0,0,1,156.36,106.7Z" fill="#fff" stroke="#000" stroke-miterlimit="10" stroke-width="0.41"/><rect x="116.8" y="107.11" width="70.7" height="5.97" rx="1.85" ry="1.85" fill="#a7a6a6" stroke="#000" stroke-linecap="round" stroke-linejoin="round" stroke-width="0.41"/><line x1="120.52" y1="107.09" x2="120.52" y2="111.84" fill="none" stroke="#000" stroke-linecap="round" stroke-linejoin="round" stroke-width="0.41"/><line x1="124.75" y1="107.09" x2="124.75" y2="111.84" fill="none" stroke="#000" stroke-linecap="round" stroke-linejoin="round" stroke-width="0.41"/><line x1="128.98" y1="107.09" x2="128.98" y2="111.84" fill="none" stroke="#000" stroke-linecap="round" stroke-linejoin="round" stroke-width="0.41"/><line x1="133.21" y1="107.09" x2="133.21" y2="111.84" fill="none" stroke="#000" stroke-linecap="round" stroke-linejoin="round" stroke-width="0.41"/><line x1="137.44" y1="107.09" x2="137.44" y2="111.84" fill="none" stroke="#000" stroke-linecap="round" stroke-linejoin="round" stroke-width="0.41"/><line x1="141.67" y1="107.09" x2="141.67" y2="111.84" fill="none" stroke="#000" stroke-linecap="round" stroke-linejoin="round" stroke-width="0.41"/><line x1="145.91" y1="107.09" x2="145.91" y2="111.84" fill="none" stroke="#000" stroke-linecap="round" stroke-linejoin="round" stroke-width="0.41"/><line x1="150.14" y1="107.09" x2="150.14" y2="111.84" fill="none" stroke="#000" stroke-linecap="round" stroke-linejoin="round" stroke-width="0.41"/><line x1="154.37" y1="107.09" x2="154.37" y2="111.84" fill="none" stroke="#000" stroke-linecap="round" stroke-linejoin="round" stroke-width="0.41"/><line x1="158.6" y1="107.09" x2="158.6" y2="111.84" fill="none" stroke="#000" stroke-linecap="round" stroke-linejoin="round" stroke-width="0.41"/><line x1="162.83" y1="107.09" x2="162.83" y2="111.84" fill="none" stroke="#000" stroke-linecap="round" stroke-linejoin="round" stroke-width="0.41"/><line x1="167.06" y1="107.09" x2="167.06" y2="111.84" fill="none" stroke="#000" stroke-linecap="round" stroke-linejoin="round" stroke-width="0.41"/><line x1="171.29" y1="107.09" x2="171.29" y2="111.84" fill="none" stroke="#000" stroke-linecap="round" stroke-linejoin="round" stroke-width="0.41"/><line x1="175.52" y1="107.09" x2="175.52" y2="111.84" fill="none" stroke="#000" stroke-linecap="round" stroke-linejoin="round" stroke-width="0.41"/><line x1="179.75" y1="107.09" x2="179.75" y2="111.84" fill="none" stroke="#000" stroke-linecap="round" stroke-linejoin="round" stroke-width="0.41"/><line x1="183.98" y1="107.09" x2="183.98" y2="111.84" fill="none" stroke="#000" stroke-linecap="round" stroke-linejoin="round" stroke-width="0.41"/><g id="58cd8086-ca63-46d1-a268-02f30ce45b1d" data-name="&lt;Group&gt;"><path d="M330.24,71H285s-1,3.11,3.63,3.63a5.14,5.14,0,0,0,5.19,2.85,4.8,4.8,0,0,0,5.8,2.59h15.24c4.54,1,6.1-2.59,6.1-2.59a5.42,5.42,0,0,0,5.46-2.85C331.33,74.1,330.24,71,330.24,71Z" fill="#e5bba8" stroke="#000" stroke-linecap="round" stroke-linejoin="round" stroke-width="0.41"/><path d="M292.18,71.79l1.56,1.3a.45.45,0,0,0,.29.11H319.7a.45.45,0,0,0,.3-.12l1.49-1.3c.42-.36.21-1.18-.3-1.18H292.47C292,70.6,291.75,71.44,292.18,71.79Z" fill="#f4e2dc" stroke="#000" stroke-miterlimit="10" stroke-width="0.41"/><path d="M313.08,65.25a4.32,4.32,0,0,0-1.3-3.1V59.25a.83.83,0,0,0-.83-.83h-.52a.83.83,0,0,0-.83.83v1.8a3.84,3.84,0,0,0-.57,0H305.6a3.84,3.84,0,0,0-.6.05V59.25a.83.83,0,0,0-.83-.83h-.52a.83.83,0,0,0-.83.83v2.91a4.32,4.32,0,0,0-1.28,3.08V82a.42.42,0,0,0,.14.31,5,5,0,0,0,1.36.86.41.41,0,0,1,0,.76,4,4,0,0,0-1.4,1,.41.41,0,0,0-.1.27v22.4a4.16,4.16,0,0,0,4,4.24H309a4.16,4.16,0,0,0,4-4.24V85.21a.41.41,0,0,0-.1-.27,4,4,0,0,0-1.43-1,.41.41,0,0,1,0-.76,5,5,0,0,0,1.39-.89.42.42,0,0,0,.14-.31Z" fill="#e5bba8" stroke="#000" stroke-linecap="round" stroke-linejoin="round" stroke-width="0.41"/><path d="M301.76,100.92s4.85,4.29,11.28,0V92.23s-6,3.54-11.28,0Z" fill="#f4e2dc" stroke="#000" stroke-miterlimit="10" stroke-width="0.41"/><path d="M301.65,82.2s4.85,4.29,11.28,0V73.51s-6,3.54-11.28,0Z" fill="#f4e2dc" stroke="#000" stroke-miterlimit="10" stroke-width="0.41"/></g><path d="M14.47,126.11l36,77.59a2.07,2.07,0,0,0,3,.84l17.71-12a2.07,2.07,0,0,1,3.1,1l23.07,62.56A2.07,2.07,0,0,0,99,257.37l12.82,2.25a2.07,2.07,0,0,1,1.64,1.52l5,19.2a2.07,2.07,0,0,0,.13.36l12.25,26.13a2.07,2.07,0,0,0,.18.31l14.31,20.44.14.17,17.15,19.68a2.07,2.07,0,0,0,3.53-.73L179.28,305a2.07,2.07,0,0,1,3.6-.64l5.3,6.83a2.07,2.07,0,0,0,3.23,0l18.39-22.33a2.07,2.07,0,0,1,.52-.45l12.34-7.52a2.07,2.07,0,0,0,.84-1l13-32.57a2.07,2.07,0,0,1,2.7-1.15l14,5.69a2.07,2.07,0,0,0,2.68-1.09l31.73-73.31a2.07,2.07,0,0,1,2.55-1.14l11.44,3.81a2.07,2.07,0,0,0,2.47-1l28.59-52.75a.21.21,0,0,0-.18-.31h-318" fill="#ba9e93" stroke="#000" stroke-linecap="round" stroke-linejoin="round" stroke-width="0.83"/><rect x="0.21" y="111.84" width="346.68" height="14.26" rx="5.37" ry="5.37" fill="#967c6b" stroke="#000" stroke-linecap="round" stroke-linejoin="round" stroke-width="0.41"/><line x1="175.72" y1="67.19" x2="175.72" y2="67.4" fill="none" stroke="#000" stroke-linecap="round" stroke-linejoin="round" stroke-width="0.31"/><line x1="289.72" y1="176.24" x2="270.91" y2="169.21" fill="#9b7c6d" stroke="#000" stroke-linecap="round" stroke-linejoin="round" stroke-width="0.83"/><polyline points="72.66 191.55 80 175.1 92.82 171.38" fill="#9b7c6d" stroke="#000" stroke-linecap="round" stroke-linejoin="round" stroke-width="0.83"/><line x1="182.22" y1="303.66" x2="175.51" y2="293.97" fill="#9b7c6d" stroke="#000" stroke-linecap="round" stroke-linejoin="round" stroke-width="0.83"/><line x1="210.34" y1="288.43" x2="198.25" y2="295.62" fill="#9b7c6d" stroke="#000" stroke-linecap="round" stroke-linejoin="round" stroke-width="0.83"/><line x1="236.91" y1="246.63" x2="244.76" y2="227.81" fill="#9b7c6d" stroke="#000" stroke-linecap="round" stroke-linejoin="round" stroke-width="0.83"/><polygon points="127.96 251.59 148.84 225.33 128.17 233.19 127.96 251.59" fill="#9b7c6d"/><polygon points="253.24 251.38 245.18 227.81 237.94 245.39 238.49 245.6 253.24 251.38" fill="#9b7c6d"/><polyline points="148.63 224.92 127.75 232.98 127.75 251.38 108.74 259.03" fill="none" stroke="#000" stroke-linecap="round" stroke-linejoin="round" stroke-width="0.83"/><line x1="127.76" y1="232.98" x2="127.76" y2="226.99" fill="#9b7c6d" stroke="#000" stroke-linecap="round" stroke-linejoin="round" stroke-width="0.83"/><path d="M284.45,183.58l2.89-6.41s0-.41.83-1l-17.57-6.62Z" fill="#9b7c6d"/><path d="M164.35,347.51s.62.41,1.24-1.45l13.23-41.14a2.32,2.32,0,0,1,2.27-1.86l-6-9.1Z" fill="#9b7c6d"/><polygon points="198.25 296.03 207.96 290.25 208.17 290.25 203.42 296.03 198.25 296.03" fill="#9b7c6d"/><rect x="160" y="22.23" width="6.93" height="6.02" rx="1.65" ry="1.65" fill="#db776a" stroke="#000" stroke-linecap="round" stroke-linejoin="round" stroke-width="0.21"/><rect x="160.98" y="23.36" width="1.96" height="1.96" rx="0.37" ry="0.37" fill="#fff" stroke="#000" stroke-linecap="round" stroke-linejoin="round" stroke-width="0.21"/><rect x="163.99" y="23.36" width="1.96" height="1.96" rx="0.37" ry="0.37" fill="#fff" stroke="#000" stroke-linecap="round" stroke-linejoin="round" stroke-width="0.21"/><line x1="160.08" y1="26.52" x2="166.85" y2="26.52" fill="none" stroke="#000" stroke-linecap="round" stroke-linejoin="round" stroke-width="0.21"/><line x1="163.31" y1="22.12" x2="163.31" y2="19.44" fill="none" stroke="#000" stroke-linecap="round" stroke-linejoin="round" stroke-width="0.31"/><line x1="163.39" y1="26.52" x2="163.39" y2="28.17" fill="none" stroke="#000" stroke-linecap="round" stroke-linejoin="round" stroke-width="0.21"/><path d="M353.4,39.61c.61,3,2,4.86,4.31,5.6-2.25.84-3.73,2.57-4.18,5.77a19.37,19.37,0,0,0-1.67-3.68,13.61,13.61,0,0,0-2.8-2.23C351.39,44.48,352.77,42.62,353.4,39.61Z" fill="#f9e4a0" stroke="#000" stroke-linecap="round" stroke-linejoin="round" stroke-width="0.41"/></g></g></svg>