<svg xmlns="http://www.w3.org/2000/svg" viewBox="0 0 615.17 715.73"><title>world</title><g id="291ceb70-d244-4906-bfaa-4359ac95a081" data-name="Layer 2"><g id="f9a805db-8799-4dae-bb90-9aac27681fcf" data-name="bubble"><path d="M357.4,194.43,300.58,222a1,1,0,0,1-1.32-.43L231.83,82.4a1,1,0,0,1,.48-1.3l56.83-27.53a1,1,0,0,1,1.32.43l67.42,139.13A1,1,0,0,1,357.4,194.43Z" fill="#c1bfbf" stroke="#000" stroke-linecap="round" stroke-linejoin="round" stroke-width="1.05"/><path d="M265.91,96.69l-9,4.35a1,1,0,0,1-1.31-.45L251,91.17a1,1,0,0,1,.46-1.31l9-4.35a1,1,0,0,1,1.31.45l4.57,9.43A1,1,0,0,1,265.91,96.69Z" fill="#fdf49e" stroke="#000" stroke-linecap="round" stroke-linejoin="round" stroke-width="1.05"/><path d="M280.22,126l-9,4.35a1,1,0,0,1-1.31-.44l-5.41-11.17a1,1,0,0,1,.46-1.3l9-4.35a1,1,0,0,1,1.31.44l5.41,11.17A1,1,0,0,1,280.22,126Z" fill="#fdf49e" stroke="#000" stroke-linecap="round" stroke-linejoin="round" stroke-width="1.05"/><path d="M294.53,155.26l-9,4.35a1,1,0,0,1-1.31-.44L278.83,148a1,1,0,0,1,.46-1.3l9-4.35a1,1,0,0,1,1.31.44L295,154A1,1,0,0,1,294.53,155.26Z" fill="#6d6c6d" stroke="#000" stroke-linecap="round" stroke-linejoin="round" stroke-width="1.05"/><path d="M307.36,182.61l-9,4.35a1,1,0,0,1-1.31-.44l-5.41-11.17a1,1,0,0,1,.46-1.3l9-4.35a1,1,0,0,1,1.31.44l5.41,11.17A1,1,0,0,1,307.36,182.61Z" fill="#6d6c6d" stroke="#000" stroke-linecap="round" stroke-linejoin="round" stroke-width="1.05"/><path d="M289.16,85.33l-9,4.35a1,1,0,0,1-1.31-.45L274.3,79.8a1,1,0,0,1,.46-1.31l9-4.35a1,1,0,0,1,1.31.45L289.62,84A1,1,0,0,1,289.16,85.33Z" fill="#fdf49e" stroke="#000" stroke-linecap="round" stroke-linejoin="round" stroke-width="1.05"/><path d="M303.47,114.61l-9,4.35a1,1,0,0,1-1.31-.44l-5.42-11.17a1,1,0,0,1,.46-1.3l9-4.35a1,1,0,0,1,1.31.44l5.41,11.17A1,1,0,0,1,303.47,114.61Z" fill="#6d6c6d" stroke="#000" stroke-linecap="round" stroke-linejoin="round" stroke-width="1.05"/><path d="M317.36,144.11l-9,4.35a1,1,0,0,1-1.31-.44l-5.41-11.17a1,1,0,0,1,.46-1.3l9-4.35a1,1,0,0,1,1.31.44l5.41,11.17A1,1,0,0,1,317.36,144.11Z" fill="#fdf49e" stroke="#000" stroke-linecap="round" stroke-linejoin="round" stroke-width="1.05"/><path d="M330.83,171.67l-9,4.35a1,1,0,0,1-1.31-.44l-5.42-11.17a1,1,0,0,1,.46-1.3l9-4.35a1,1,0,0,1,1.31.44l5.41,11.17A1,1,0,0,1,330.83,171.67Z" fill="#fdf49e" stroke="#000" stroke-linecap="round" stroke-linejoin="round" stroke-width="1.05"/><path d="M211.17,265.91l-45.08,21.84a.77.77,0,0,1-1-.32l-52-107.3a.77.77,0,0,1,.39-1l45.08-21.84a.77.77,0,0,1,1,.32l52,107.29A.77.77,0,0,1,211.17,265.91Z" fill="#ddd" stroke="#000" stroke-linecap="round" stroke-linejoin="round" stroke-width="1.05"/><path d="M139.82,190.93l-7.12,3.45a.77.77,0,0,1-1-.34l-3.53-7.27a.77.77,0,0,1,.37-1l7.13-3.45a.77.77,0,0,1,1,.34l3.52,7.27A.77.77,0,0,1,139.82,190.93Z" fill="#6d6c6d" stroke="#000" stroke-linecap="round" stroke-linejoin="round" stroke-width="1.05"/><path d="M150.86,213.51,143.74,217a.76.76,0,0,1-1-.33L138.53,208a.76.76,0,0,1,.38-1l7.12-3.45a.76.76,0,0,1,1,.33l4.17,8.61A.76.76,0,0,1,150.86,213.51Z" fill="#fdf49e" stroke="#000" stroke-linecap="round" stroke-linejoin="round" stroke-width="1.05"/><path d="M161.9,236.09l-7.12,3.45a.76.76,0,0,1-1-.33l-4.18-8.62a.76.76,0,0,1,.38-1l7.12-3.45a.76.76,0,0,1,1,.33l4.18,8.62A.76.76,0,0,1,161.9,236.09Z" fill="#fdf49e" stroke="#000" stroke-linecap="round" stroke-linejoin="round" stroke-width="1.05"/><path d="M158.27,181.91l-7.13,3.45a.77.77,0,0,1-1-.34l-3.52-7.27a.77.77,0,0,1,.37-1l7.13-3.45a.77.77,0,0,1,1,.34l3.52,7.27A.77.77,0,0,1,158.27,181.91Z" fill="#fdf49e" stroke="#000" stroke-linecap="round" stroke-linejoin="round" stroke-width="1.05"/><path d="M169.31,204.5l-7.12,3.45a.76.76,0,0,1-1-.33L157,199a.76.76,0,0,1,.38-1l7.12-3.45a.76.76,0,0,1,1,.33l4.17,8.61A.76.76,0,0,1,169.31,204.5Z" fill="#6d6c6d" stroke="#000" stroke-linecap="round" stroke-linejoin="round" stroke-width="1.05"/><path d="M180,227.24l-7.12,3.45a.76.76,0,0,1-1-.33l-4.18-8.61a.76.76,0,0,1,.38-1l7.12-3.45a.76.76,0,0,1,1,.33l4.17,8.61A.76.76,0,0,1,180,227.24Z" fill="#fdf49e" stroke="#000" stroke-linecap="round" stroke-linejoin="round" stroke-width="1.05"/><path d="M260.48,241.27l-46,21.94a1,1,0,0,1-1.28-.45l-59.45-124.6a1,1,0,0,1,.45-1.28l46-21.94a.48.48,0,0,1,.64.23l59.86,125.46A.48.48,0,0,1,260.48,241.27Z" fill="#b6b6b7" stroke="#000" stroke-linecap="round" stroke-linejoin="round" stroke-width="1.05"/><rect x="181.76" y="163.74" width="9.99" height="9.99" rx="0.96" ry="0.96" transform="translate(-54.46 96.86) rotate(-25.51)" fill="#fdf49e" stroke="#000" stroke-linecap="round" stroke-linejoin="round" stroke-width="1.05"/><rect x="191.64" y="185.06" width="9.99" height="9.99" rx="0.96" ry="0.96" transform="translate(-62.64 103.1) rotate(-25.48)" fill="#6d6c6d" stroke="#000" stroke-linecap="round" stroke-linejoin="round" stroke-width="1.05"/><rect x="201.96" y="206.16" width="9.99" height="9.99" rx="0.96" ry="0.96" transform="translate(-70.77 109.74) rotate(-25.51)" fill="#fdf49e" stroke="#000" stroke-linecap="round" stroke-linejoin="round" stroke-width="1.05"/><rect x="199.41" y="155.11" width="9.99" height="9.99" rx="0.96" ry="0.96" transform="translate(-49.04 103.7) rotate(-25.52)" fill="#fdf49e" stroke="#000" stroke-linecap="round" stroke-linejoin="round" stroke-width="1.05"/><rect x="171.65" y="143.07" width="9.99" height="9.99" rx="0.96" ry="0.96" transform="translate(-46.55 90.51) rotate(-25.51)" fill="#fdf49e" stroke="#000" stroke-linecap="round" stroke-linejoin="round" stroke-width="1.05"/><rect x="189.31" y="134.44" width="9.99" height="9.99" rx="0.96" ry="0.96" transform="translate(-41.11 97.28) rotate(-25.51)" fill="#fdf49e" stroke="#000" stroke-linecap="round" stroke-linejoin="round" stroke-width="1.05"/><rect x="209.29" y="176.42" width="9.99" height="9.99" rx="0.96" ry="0.96" transform="translate(-57.25 110.01) rotate(-25.52)" fill="#fdf49e" stroke="#000" stroke-linecap="round" stroke-linejoin="round" stroke-width="1.05"/><rect x="219.82" y="197.95" width="9.99" height="9.99" rx="0.96" ry="0.96" transform="translate(-65.45 116.48) rotate(-25.48)" fill="#fdf49e" stroke="#000" stroke-linecap="round" stroke-linejoin="round" stroke-width="1.05"/><path d="M200.35,115.4l-45.81,21.86a1,1,0,0,1-1.28-.45L151,132a1,1,0,0,1,.45-1.28l45.81-21.87a.48.48,0,0,1,.64.23l2.69,5.63A.48.48,0,0,1,200.35,115.4Z" fill="#ddd" stroke="#000" stroke-linecap="round" stroke-linejoin="round" stroke-width="1.05"/><rect x="151.36" y="113.21" width="44.05" height="7.27" rx="0.96" ry="0.96" transform="translate(-33.41 86.03) rotate(-25.5)" fill="#ddd" stroke="#000" stroke-linecap="round" stroke-linejoin="round" stroke-width="1.05"/><rect x="151.75" y="107.05" width="37.82" height="7.33" rx="0.96" ry="0.96" transform="translate(-31.04 84.28) rotate(-25.51)" fill="#ddd" stroke="#000" stroke-linecap="round" stroke-linejoin="round" stroke-width="1.05"/><rect x="173.42" y="-0.96" width="8.15" height="37.39" rx="4.07" ry="4.07" transform="translate(10.24 79.75) rotate(-26.05)" fill="#b6b6b7" stroke="#000" stroke-linecap="round" stroke-linejoin="round" stroke-width="1.05"/><path d="M295.8,224l-31.62,15.12a1,1,0,0,1-1.34-.42L190.41,86.64a1,1,0,0,1,.52-1.31l31.62-15.12a1,1,0,0,1,1.34.42l72.43,152.07A1,1,0,0,1,295.8,224Z" fill="#818281" stroke="#000" stroke-linecap="round" stroke-linejoin="round" stroke-width="1.05"/><path d="M222.28,102.55l-5.47,2.61a.91.91,0,0,1-1.23-.23l-2.64-5.54a.91.91,0,0,1,.59-1.1L219,95.67a.91.91,0,0,1,1.23.23l2.64,5.54A.91.91,0,0,1,222.28,102.55Z" fill="#fdf49e" stroke="#000" stroke-linecap="round" stroke-linejoin="round" stroke-width="1.05"/><path d="M230.91,121.27l-5.47,2.62a.91.91,0,0,1-1.23-.23l-2.64-5.54a.91.91,0,0,1,.59-1.1l5.47-2.61a.91.91,0,0,1,1.23.23l2.64,5.54A.91.91,0,0,1,230.91,121.27Z" fill="#fdf49e" stroke="#000" stroke-linecap="round" stroke-linejoin="round" stroke-width="1.05"/><path d="M240,139.79l-5.47,2.61a.91.91,0,0,1-1.23-.23l-2.64-5.54a.91.91,0,0,1,.59-1.1l5.47-2.62a.91.91,0,0,1,1.23.23l2.64,5.54A.91.91,0,0,1,240,139.79Z" fill="#fdf49e" stroke="#000" stroke-linecap="round" stroke-linejoin="round" stroke-width="1.05"/><path d="M248.17,156.59l-5.47,2.61a.91.91,0,0,1-1.23-.23l-2.64-5.54a.91.91,0,0,1,.59-1.1l5.47-2.62a.91.91,0,0,1,1.23.23l2.64,5.54A.91.91,0,0,1,248.17,156.59Z" fill="#fdf49e" stroke="#000" stroke-linecap="round" stroke-linejoin="round" stroke-width="1.05"/><path d="M223,71.26,191.17,86.47a1,1,0,0,1-1.35-.42l-1.72-3.62a1,1,0,0,1,.52-1.31l31.82-15.21a1,1,0,0,1,1.35.42l1.72,3.61A1,1,0,0,1,223,71.26Z" fill="silver" stroke="#000" stroke-linecap="round" stroke-linejoin="round" stroke-width="1.05"/><path d="M156.17,67.1l71.28-34.85a1,1,0,0,1,1.42,1l-7.3,32.38a1.07,1.07,0,0,1-.58.71l-32.65,16a1.07,1.07,0,0,1-.89,0L156.12,68.86A1,1,0,0,1,156.17,67.1Z" fill="#818281" stroke="#000" stroke-linecap="round" stroke-linejoin="round" stroke-width="1.05"/><path d="M157.48,64.86l67.54-33a1,1,0,0,0,.11-1.73l-4.8-2.46a1.07,1.07,0,0,0-.95,0L158.3,57.53a1.07,1.07,0,0,0-.56.65l-1.66,5.61A1,1,0,0,0,157.48,64.86Z" fill="#818281" stroke="#000" stroke-linecap="round" stroke-linejoin="round" stroke-width="1.05"/><path d="M166.39,52l45.23-22.11a1,1,0,0,0,.43-1.45l-4-5.5a1,1,0,0,0-1.27-.27L164.41,43.33a1,1,0,0,0-.59,1.07L165,51.32A1,1,0,0,0,166.39,52Z" fill="#818281" stroke="#000" stroke-linecap="round" stroke-linejoin="round" stroke-width="1.05"/><g id="0cc5b430-e48f-4ae2-9bd9-eff568b6c543" data-name="free mountains"><path d="M503.74,320l32.15,76.8,13.54-12.11,1.56-1.42q2.36-2.17,4.7-4.35,3.56-3.32,7.09-6.68,4.38-4.17,8.7-8.39,4.81-4.71,9.54-9.5t9.61-10c3-3.23,6-6.51,8.9-9.86,2.56-3,5.06-6,7.42-9.12,1.67-2.23,3.23-4.55,4.7-6.92.63-1,1.12-2.1,1.72-3.12a6.18,6.18,0,0,0,1.05-2.94,2.18,2.18,0,0,0-.71-1.41,7.86,7.86,0,0,0-2.89-1.49c-1.17-.42-2.36-.79-3.56-1.13-1.77-.5-3.56-.94-5.35-1.34-2.48-.56-5-1.05-7.48-1.51-3.31-.6-6.64-1.14-10-1.63-4.26-.63-8.53-1.19-12.8-1.71l-2.78-.33.27-.26q4.81-4.71,9.54-9.5t9.61-10c3-3.23,6-6.51,8.9-9.86,2.56-3,5.06-6,7.42-9.12,1.67-2.23,3.23-4.55,4.7-6.92.63-1,1.12-2.1,1.72-3.12a6.18,6.18,0,0,0,1.05-2.94,2.18,2.18,0,0,0-.71-1.41,7.86,7.86,0,0,0-2.89-1.49c-1.17-.42-2.36-.79-3.56-1.13-1.77-.5-3.56-.94-5.35-1.34-2.48-.56-5-1.05-7.48-1.51-3.31-.6-6.64-1.14-10-1.63-4.26-.63-8.53-1.19-12.8-1.71q-8-1-16-1.74-9.75-1-19.52-1.73-11.69-.93-23.4-1.67l-44.18-4.45,34,81.13Z" fill="#9ab2d8" stroke="#000" stroke-linecap="round" stroke-linejoin="round" stroke-width="1.05"/><line x1="569.39" y1="301.32" x2="562.53" y2="307.53" fill="#5473af" stroke="#000" stroke-linecap="round" stroke-linejoin="round" stroke-width="1.05"/><path d="M572.33,240.2s.85,1.43,5.56,3.54c0,0,2.82,1.88-.28,4.2,0,0-18,11.12-18.5,14.88,0,0-2.26,3.75,2.5,3.54,0,0,14-3.59,16.17-2.18,0,0,7.53.93,2.29,6.69,0,0-9.56,5.79-4.8,8.64,0,0,3.55,3.61,13.21,1.1l2-.82s22.56-23.46,21.5-29.65c0,0,.52-3-7.37-4.82C604.56,245.32,585.9,242.17,572.33,240.2Z" fill="#fff" stroke="#000" stroke-linecap="round" stroke-linejoin="round" stroke-width="1.05"/><path d="M613.69,315.47l.06-.07a5.37,5.37,0,0,0,.89-2.92,2,2,0,0,0-.07-.62c-.29-1.49-1.58-3.09-5.26-4l-24.61-4s4.67,2.63,6.45,4.44,1.07,4.39-1.91,6.41c0,0-13.34,7.11-9.19,9.71,0,0,2.43,1.53,7.53.93,0,0,5-.3,1.8,3.07,0,0-3.28,4.94,5.44,6.9a12.64,12.64,0,0,0,3.41.65S610.18,322.65,613.69,315.47Z" fill="#fff" stroke="#000" stroke-linecap="round" stroke-linejoin="round" stroke-width="1.05"/></g><path d="M412.53,555.72l43.72-24.46a.77.77,0,0,1,1.05.26l58.22,104a.77.77,0,0,1-.33,1l-43.72,24.45a.77.77,0,0,1-1.05-.26l-58.22-104A.77.77,0,0,1,412.53,555.72Z" fill="#ddd" stroke="#000" stroke-linecap="round" stroke-linejoin="round" stroke-width="1.05"/><path d="M488.17,626.38l6.91-3.87a.77.77,0,0,1,1,.28l3.95,7.05a.77.77,0,0,1-.31,1l-6.91,3.87a.77.77,0,0,1-1-.28l-3.94-7A.77.77,0,0,1,488.17,626.38Z" fill="#6d6c6d" stroke="#000" stroke-linecap="round" stroke-linejoin="round" stroke-width="1.05"/><path d="M475.82,604.48l6.91-3.86a.76.76,0,0,1,1,.27l4.67,8.35a.76.76,0,0,1-.32,1l-6.91,3.86a.76.76,0,0,1-1-.27l-4.67-8.35A.76.76,0,0,1,475.82,604.48Z" fill="#fdf49e" stroke="#000" stroke-linecap="round" stroke-linejoin="round" stroke-width="1.05"/><path d="M463.47,582.59l6.91-3.87a.76.76,0,0,1,1,.27l4.68,8.35a.76.76,0,0,1-.32,1l-6.91,3.87a.76.76,0,0,1-1-.27l-4.68-8.35A.76.76,0,0,1,463.47,582.59Z" fill="#fdf49e" stroke="#000" stroke-linecap="round" stroke-linejoin="round" stroke-width="1.05"/><path d="M470.28,636.46l6.91-3.87a.77.77,0,0,1,1,.28l3.95,7.05a.77.77,0,0,1-.31,1L475,644.82a.77.77,0,0,1-1-.28l-3.95-7A.77.77,0,0,1,470.28,636.46Z" fill="#fdf49e" stroke="#000" stroke-linecap="round" stroke-linejoin="round" stroke-width="1.05"/><path d="M457.94,614.57l6.9-3.86a.76.76,0,0,1,1,.27l4.68,8.36a.76.76,0,0,1-.32,1l-6.91,3.86a.76.76,0,0,1-1-.27l-4.67-8.35A.76.76,0,0,1,457.94,614.57Z" fill="#6d6c6d" stroke="#000" stroke-linecap="round" stroke-linejoin="round" stroke-width="1.05"/><path d="M445.92,592.49l6.9-3.86a.76.76,0,0,1,1,.27l4.68,8.35a.76.76,0,0,1-.32,1l-6.91,3.86a.76.76,0,0,1-1-.27l-4.67-8.35A.76.76,0,0,1,445.92,592.49Z" fill="#fdf49e" stroke="#000" stroke-linecap="round" stroke-linejoin="round" stroke-width="1.05"/><polygon points="515.59 636.32 470.07 659.5 505.92 668.36 515.59 636.32" fill="#ffd6a9" stroke="#000" stroke-linecap="round" stroke-linejoin="round" stroke-width="1.05"/><path d="M352.71,582.82,408.51,556a.9.9,0,0,1,1.22.27l55,111.8a.88.88,0,0,1-.54,1.12L408.37,696a.9.9,0,0,1-1.22-.27l-55-111.79A.88.88,0,0,1,352.71,582.82Z" fill="#c1c1c1" stroke="#000" stroke-linecap="round" stroke-linejoin="round" stroke-width="1.05"/><path d="M433.27,658.4l8.82-4.24a.9.9,0,0,1,1.22.29L447,662a.88.88,0,0,1-.52,1.12l-8.82,4.24a.9.9,0,0,1-1.22-.29l-3.73-7.57A.88.88,0,0,1,433.27,658.4Z" fill="#6d6c6d" stroke="#000" stroke-linecap="round" stroke-linejoin="round" stroke-width="1.05"/><path d="M421.59,634.87l8.81-4.23a.9.9,0,0,1,1.21.28l4.42,9a.88.88,0,0,1-.53,1.12l-8.82,4.23a.9.9,0,0,1-1.21-.28l-4.41-9A.88.88,0,0,1,421.59,634.87Z" fill="#fdf49e" stroke="#000" stroke-linecap="round" stroke-linejoin="round" stroke-width="1.05"/><path d="M409.89,611.36l8.82-4.24a.9.9,0,0,1,1.21.28l4.42,9a.88.88,0,0,1-.53,1.12L415,621.73a.9.9,0,0,1-1.21-.28l-4.42-9A.88.88,0,0,1,409.89,611.36Z" fill="#fdf49e" stroke="#000" stroke-linecap="round" stroke-linejoin="round" stroke-width="1.05"/><path d="M410.43,669.45l8.82-4.24a.9.9,0,0,1,1.22.29l3.73,7.58a.88.88,0,0,1-.52,1.12l-8.82,4.24a.9.9,0,0,1-1.22-.29l-3.73-7.57A.88.88,0,0,1,410.43,669.45Z" fill="#fdf49e" stroke="#000" stroke-linecap="round" stroke-linejoin="round" stroke-width="1.05"/><path d="M398.74,645.93l8.81-4.24a.9.9,0,0,1,1.21.28l4.42,9a.88.88,0,0,1-.53,1.12l-8.82,4.23a.9.9,0,0,1-1.21-.28l-4.41-9A.88.88,0,0,1,398.74,645.93Z" fill="#6d6c6d" stroke="#000" stroke-linecap="round" stroke-linejoin="round" stroke-width="1.05"/><path d="M387.48,622.2l8.81-4.24a.9.9,0,0,1,1.21.28l4.42,9a.88.88,0,0,1-.53,1.12l-8.82,4.23a.9.9,0,0,1-1.21-.28l-4.41-9A.88.88,0,0,1,387.48,622.2Z" fill="#fdf49e" stroke="#000" stroke-linecap="round" stroke-linejoin="round" stroke-width="1.05"/><polygon points="464.69 668.89 407.32 695.41 452.92 715.2 464.69 668.89" fill="#dd927a" stroke="#000" stroke-linecap="round" stroke-linejoin="round" stroke-width="1.05"/><path d="M408.38,562.63l-15.23,6.23a2.58,2.58,0,0,0-1.46,1.52,2.83,2.83,0,0,0,0,2.18l10.54,24.84a.66.66,0,0,0,.14.23L433.26,608,448,579a.64.64,0,0,1,0-.13.64.64,0,0,0,0-.13l-10.54-24.84a2.83,2.83,0,0,0-1.52-1.56,2.58,2.58,0,0,0-2.11-.06l-15.23,6.23Z" fill="#f9e4a0" stroke="#000" stroke-linecap="round" stroke-linejoin="round" stroke-width="1.05"/><path d="M393.83,601.61l11.78,4,6.95,17a1.44,1.44,0,0,0,.75.81,1.3,1.3,0,0,0,1.06,0L422,620.3a1.3,1.3,0,0,0,.76-.75,1.44,1.44,0,0,0,0-1.1l-3.32-8.11,13.15,4.53a5.12,5.12,0,0,0,6-2.47l18.32-36.59a1.33,1.33,0,0,0,.07-1.07,1.51,1.51,0,0,0-.68-.86l-3.72-2.07a1.44,1.44,0,0,0-1-.12,1.54,1.54,0,0,0-.83.68L433.09,607.6l-37.27-12.78a1.28,1.28,0,0,0-1,.05l-.12,0a1.44,1.44,0,0,0-.65.8l-1.2,4.09a1.5,1.5,0,0,0,.12,1.09A1.33,1.33,0,0,0,393.83,601.61Z" fill="#dd927a" stroke="#000" stroke-linecap="round" stroke-linejoin="round" stroke-width="1.05"/><rect x="409.6" y="581.08" width="11.05" height="11.05" rx="1.19" ry="1.19" transform="translate(1021.48 972.29) rotate(157.74)" fill="#8e8e8e" stroke="#000" stroke-linecap="round" stroke-linejoin="round" stroke-width="1.05"/><path d="M463.75,520.6l-13.7,9.11a2.58,2.58,0,0,0-1.13,1.78,2.83,2.83,0,0,0,.44,2.14l16.81,25.6a.66.66,0,0,0,.19.2l32.32,4.09,8.71-31.39a.64.64,0,0,1-.06-.12.64.64,0,0,0-.06-.12l-16.81-25.6a2.83,2.83,0,0,0-1.8-1.23,2.58,2.58,0,0,0-2.08.36l-13.7,9.11Z" fill="#c4a091" stroke="#000" stroke-linecap="round" stroke-linejoin="round" stroke-width="1.05"/><path d="M458.76,565l12.34,1.61,10.16,15.27a1.44,1.44,0,0,0,.89.65,1.3,1.3,0,0,0,1-.21l6.85-4.56a1.3,1.3,0,0,0,.6-.88,1.44,1.44,0,0,0-.25-1.07l-4.86-7.3,13.78,1.84a5.12,5.12,0,0,0,5.42-3.61l10.74-39.49a1.33,1.33,0,0,0-.14-1.07,1.51,1.51,0,0,0-.84-.71l-4.05-1.3a1.44,1.44,0,0,0-1,.09,1.54,1.54,0,0,0-.68.83l-10.32,38L459.37,558a1.28,1.28,0,0,0-.92.24l-.11.07a1.44,1.44,0,0,0-.48.91l-.37,4.24a1.5,1.5,0,0,0,.34,1A1.33,1.33,0,0,0,458.76,565Z" fill="#cc836d" stroke="#000" stroke-linecap="round" stroke-linejoin="round" stroke-width="1.05"/><rect x="471.14" y="540.58" width="11.05" height="11.05" rx="1.19" ry="1.19" transform="translate(1176.02 736.72) rotate(146.36)" fill="#fdf49e" stroke="#000" stroke-linecap="round" stroke-linejoin="round" stroke-width="1.05"/><path d="M107.35,456.93l2.22,5.09a1,1,0,0,1-.68,1.19l-65.4,28.49a1,1,0,0,1-1.34-.31l-2.22-5.09a1,1,0,0,1,.68-1.19L106,456.62A1,1,0,0,1,107.35,456.93Z" fill="#967c69" stroke="#000" stroke-linecap="round" stroke-linejoin="round" stroke-width="1.05"/><text></text><polygon points="112.32 564.78 192.28 492.86 219.42 555.04 112.32 564.78" fill="#88b769" stroke="#000" stroke-miterlimit="10" stroke-width="1.05"/><polygon points="65.62 483.1 129.94 405.36 164.53 463.15 65.62 483.1" fill="#bfe0a9" stroke="#000" stroke-miterlimit="10" stroke-width="1.05"/><polygon points="26.82 592.32 101.36 511.95 132.87 564.59 26.82 592.32" fill="#88b769" stroke="#000" stroke-miterlimit="10" stroke-width="1.05"/><polygon points="8.4 538.38 57.38 477.05 85.59 524.18 8.4 538.38" fill="#6c9651" stroke="#000" stroke-miterlimit="10" stroke-width="1.05"/><polygon points="90.38 553.4 122.59 510.76 143.17 545.14 90.38 553.4" fill="#32561f" stroke="#000" stroke-miterlimit="10" stroke-width="1.05"/><path d="M167.53,496.78l1.6,2.67a1,1,0,0,1-.35,1.43L106.5,538.15a1,1,0,0,1-1.43-.37l-1.6-2.67a1,1,0,0,1,.35-1.43L166.1,496.4A1,1,0,0,1,167.53,496.78Z" fill="#967c69" stroke="#000" stroke-linecap="round" stroke-linejoin="round" stroke-width="1.05"/><path d="M68.06,464.2l-2-3.32a1.08,1.08,0,0,0-1.77.09L49.15,482.79,48.28,484a1.08,1.08,0,0,1-1.77.09L45,481.67a1.08,1.08,0,0,0-1.81.15l-8.36,13.65-8.42,13.75a.88.88,0,0,0,.82,1.38l16.1-.92,16-.92a1.08,1.08,0,0,0,1-1.52l-1.65-2.76A1.08,1.08,0,0,1,59.6,503l1.51-.17,26.39-3a1.08,1.08,0,0,0,.92-1.52L86,494.11a1.06,1.06,0,0,1,.75-1.49l27.55-7.52a1.06,1.06,0,0,0,.75-1.49l-12-20-12-20a1.06,1.06,0,0,0-1.66,0L69.72,464.25A1.06,1.06,0,0,1,68.06,464.2Z" fill="#619944" stroke="#000" stroke-miterlimit="10" stroke-width="1.05"/><path d="M146.44,461.55l2.81,4.69a1.15,1.15,0,0,1-.26,1.59L91.34,502.34a1.15,1.15,0,0,1-1.52-.52L87,497.12a1.15,1.15,0,0,1,.26-1.59L144.92,461A1.15,1.15,0,0,1,146.44,461.55Z" fill="#967c69" stroke="#000" stroke-linecap="round" stroke-linejoin="round" stroke-width="1.05"/><path d="M159.47,485.33,95.88,523.39a.93.93,0,0,1-1.29-.13l-3.47-5.8a.93.93,0,0,1,.49-1.2L155.2,478.2a.93.93,0,0,1,1.29.13l3.47,5.8A.93.93,0,0,1,159.47,485.33Z" fill="#967c69" stroke="#000" stroke-linecap="round" stroke-linejoin="round" stroke-width="1.05"/><path d="M50.8,519.16l-3.17-5.29c-.32-.53-1.29-.38-1.71.27L28,541.7l-1.2,1.84c-.42.64-1.39.79-1.71.27l-2.54-4.24c-.33-.55-1.35-.36-1.74.32l-9.91,17.44-10.24,18a.67.67,0,0,0,.63,1.06L22,575.9l20.06-.49c.78,0,1.43-.83,1.11-1.38l-2.77-4.63c-.32-.53.28-1.31,1-1.38l2.19-.19L76.4,565c.76-.06,1.36-.85,1-1.38l-3.79-6.33c-.28-.47.16-1.17.85-1.35l34.25-8.59c.69-.17,1.13-.88.85-1.35L93.67,519.43,77.73,492.8c-.28-.47-1.11-.41-1.59.11L52.39,519C51.91,519.57,51.08,519.63,50.8,519.16Z" fill="#bfe0a9" stroke="#000" stroke-miterlimit="10" stroke-width="1.05"/><path d="M43.12,470.18,41.21,467c-.32-.53-1.29-.38-1.71.27L26.85,486.68l-.59.91c-.42.64-1.39.79-1.71.27l-1.4-2.33c-.33-.55-1.35-.36-1.74.32l-6.87,12.1L7.35,510.6A.67.67,0,0,0,8,511.66l14.56-.36L36.46,511c.78,0,1.43-.83,1.11-1.38L36,507c-.32-.53.28-1.31,1-1.38l1.08-.09,23.1-2c.76-.06,1.36-.85,1-1.38l-2.36-3.94c-.28-.47.16-1.17.85-1.35l23.85-6c.69-.17,1.13-.88.85-1.35l-11.31-18.9L62.84,451.75c-.28-.47-1.11-.41-1.59.11l-16.54,18.2C44.23,470.59,43.4,470.65,43.12,470.18Z" fill="#bfe0a9" stroke="#000" stroke-miterlimit="10" stroke-width="1.05"/><path d="M68.15,491.41l-1.91-3.19c-.32-.53-1.29-.38-1.71.27L51.88,507.92l-.59.91c-.42.64-1.39.79-1.71.27l-1.4-2.33c-.33-.55-1.35-.36-1.74.32l-6.87,12.1-7.2,12.66A.67.67,0,0,0,33,532.9l14.56-.36,13.91-.34c.78,0,1.43-.83,1.11-1.38L61,528.2c-.32-.53.28-1.31,1-1.38l1.08-.09,23.1-2c.76-.06,1.36-.85,1-1.38l-2.36-3.94c-.28-.47.16-1.17.85-1.35l23.85-6c.69-.17,1.13-.88.85-1.35l-11.31-18.9L87.87,473c-.28-.47-1.11-.41-1.59.11L69.74,491.3C69.26,491.82,68.43,491.88,68.15,491.41Z" fill="#88b769" stroke="#000" stroke-miterlimit="10" stroke-width="1.05"/><path d="M186.28,517.82l2.69,4.49a.93.93,0,0,1-.49,1.2L130.82,558a.93.93,0,0,1-1.29-.13l-2.69-4.49a.93.93,0,0,1,.49-1.2L185,517.68A.93.93,0,0,1,186.28,517.82Z" fill="#967c69" stroke="#000" stroke-linecap="round" stroke-linejoin="round" stroke-width="1.05"/><path d="M100.85,552.24l-1.76-2.94c-.29-.49-1.19-.35-1.57.24L85.88,567.43l-.54.83c-.38.59-1.28.73-1.57.24l-1.29-2.15c-.3-.5-1.25-.33-1.6.3l-6.33,11.13-6.62,11.65a.62.62,0,0,0,.58,1l13.4-.33,12.8-.31c.72,0,1.32-.77,1-1.27l-1.44-2.41c-.29-.49.25-1.21,1-1.27l1-.08,21.26-1.8c.7-.06,1.25-.78,1-1.27L116.29,578c-.26-.43.15-1.08.78-1.24L139,571.3c.63-.16,1-.81.78-1.24l-10.4-17.39L119,535.29c-.26-.43-1-.38-1.46.11l-15.22,16.74C101.88,552.62,101.11,552.68,100.85,552.24Z" fill="#bfe0a9" stroke="#000" stroke-miterlimit="10" stroke-width="1.05"/><path d="M171.7,503.75l1.85,3.09a1.14,1.14,0,0,1-.26,1.58L111,545.69a1.14,1.14,0,0,1-1.51-.51l-1.85-3.09a1.14,1.14,0,0,1,.26-1.58l62.28-37.28A1.14,1.14,0,0,1,171.7,503.75Z" fill="#967c69" stroke="#000" stroke-linecap="round" stroke-linejoin="round" stroke-width="1.05"/><path d="M95.35,540.9,94.23,539c-.33-.55-1.36-.36-1.74.32l-7.11,12.56,0,.06h0c-.42.64-1.39.79-1.71.27l-.91-1.51c-.33-.55-1.35-.36-1.74.32l-4,7.07-4.34,7.64a.67.67,0,0,0,.63,1.06l8.78-.22,8.13-.2c.78,0,1.43-.83,1.11-1.38l-1-1.69c-.32-.53.28-1.31,1-1.38h.07l14.42-.33c.78,0,1.44-.83,1.11-1.38l-1.42-2.38c-.31-.51.25-1.28,1-1.37l14.75-1.88c.75-.1,1.3-.86,1-1.37L114.8,540.8l-7.7-12.86c-.31-.52-1.27-.38-1.7.25L97,540.65C96.62,541.28,95.66,541.42,95.35,540.9Z" fill="#65994d" stroke="#000" stroke-miterlimit="10" stroke-width="1.05"/><polygon points="59.67 544.94 134.21 464.58 165.72 517.22 59.67 544.94" fill="#bfe0a9" stroke="#000" stroke-miterlimit="10" stroke-width="1.05"/><polygon points="102.39 566.72 168.25 491.55 199.76 544.19 102.39 566.72" fill="#97b783" stroke="#000" stroke-miterlimit="10" stroke-width="1.05"/><circle cx="112.37" cy="459.44" r="18.08" transform="translate(-220.01 122.93) rotate(-30.9)" fill="#97b783" stroke="#000" stroke-miterlimit="10" stroke-width="1.05"/><path d="M123.56,477.23a11,11,0,0,0-10.91,0c-4.8,2.87-6.4,9.22-4.06,14.89a15.1,15.1,0,0,0-3.37,1.49c-6.2,3.71-8.65,11-5.46,16.36s10.8,6.63,17,2.92a15.15,15.15,0,0,0,2.66-2c4,5.41,10.75,7.42,15.73,4.43a10.74,10.74,0,0,0,5-8.91c5.8,3.83,11.93,4.87,16.49,2.14,7.8-4.67,8.06-18.58.58-31.07s-19.86-18.83-27.65-14.17C125.36,465.81,123.35,471,123.56,477.23Z" fill="#88b769" stroke="#000" stroke-miterlimit="10" stroke-width="1.05"/><circle cx="154.19" cy="520.14" r="13.38" transform="translate(-245.25 153.02) rotate(-30.9)" fill="#6c9651" stroke="#000" stroke-miterlimit="10" stroke-width="1.05"/><circle cx="330.12" cy="383.59" r="204.6" fill="#6696c6" stroke="#000" stroke-linecap="round" stroke-linejoin="round" stroke-width="1.05"/><path d="M147.44,307.56c3.77,21.35,16.43,45.42,38.09,46.5,19.56,1,33.92-17.12,46.08-32.46s30.92-31.12,49.14-23.94c3.81,1.5,7.19,3.93,11,5.47,16.69,6.76,35.63-6,44.28-21.76S346.7,247,353.16,230.23s34.69-36.72,52.7-37c-30-13.15-55.19-19.12-79.48-18.35a214.61,214.61,0,0,0-139.74,58.41C167.51,251.45,142.85,281.55,147.44,307.56Z" fill="#87c687" stroke="#000" stroke-linecap="round" stroke-linejoin="round" stroke-width="1.05"/><path d="M455.64,233.65c-9.29,19.07-9.93,37.37-8.76,58.54.29,5.2,1,10.58,3.7,15s8,7.68,13.11,6.53c7.39-1.66,13.38-11.62,20.12-8.16,5.91,12.91.06,27.77-4.06,41.36a165.17,165.17,0,0,0-7.09,45.23c-.07,4.22.08,8.64,2.19,12.3,5,8.72,17.52,8.36,27.47,6.87l31.35-4.7s24.21-94-72.48-180.67Z" fill="#87c687" stroke="#000" stroke-linecap="round" stroke-linejoin="round" stroke-width="1.05"/><path d="M297.23,374.62C314,359.32,336.37,352,358,345.1c4.57-1.46,9.29-2.94,14.07-2.55s9.71,3.11,11.21,7.67c1.36,4.13-.36,8.72-3.07,12.12s-6.3,6-9.47,8.93c-5.67,5.32-9.95,12-13.45,18.93-1.54,3-3,6.29-3,9.7s1.72,7.05,4.9,8.29c6.8,2.64,15.6-6.38,20.87-1.33,1.56,1.5,2.05,3.8,2.13,6,.48,12.7-9.85,22.79-18.38,32.22a164.77,164.77,0,0,0-23.05,32.71c-1.33,2.47-2.62,5.32-1.75,8,.61,1.86,2.17,3.25,3,5,2.87,5.84-3,12.4-9,14.79a28.72,28.72,0,0,1-22.37-.4,24.56,24.56,0,0,1-13.77-17.34c-2-11.09,4.34-22.05,4.46-33.34a12.3,12.3,0,0,0-1.19-6.06c-2.62-4.8-9.54-5.39-14.58-3.27s-9,6.14-13.74,8.89c-5.22,3-9.14,3.59-12,2.51-8.92-3.38-7.12-22.83-1.13-31.8C270,407.81,282.15,388.38,297.23,374.62Z" fill="#87c687" stroke="#000" stroke-linecap="round" stroke-linejoin="round" stroke-width="1.05"/><path d="M125.75,410.49c-1.84-9.76,17.76-11.28,27.49-13.29s21.1.61,26.65,8.85c4.62,6.86,4.26,15.92,2.48,24s-4.8,16-5,24.26c-.13,6.72,2.76,14.56,9.29,16.18,5.2,1.29,11.53-1.72,15.65,1.72,1.81,1.51,2.6,3.9,3.12,6.19,2.82,12.47,0,25.72,3.07,38.13,3.43,13.91,14.1,27.59,9.14,41C217.68,557.57,146.48,520.5,125.75,410.49Z" fill="#87c687" stroke="#000" stroke-linecap="round" stroke-linejoin="round" stroke-width="1.05"/><path d="M335.74,583.56a82,82,0,0,1,38.84-53.29c5.79-3.32,12.73-6,19-3.71,5.58,2,9.51,7.51,15.27,8.9,7.33,1.76,14.32-3.75,19.41-9.31,10.67-11.67,19.24-25.48,31.87-35s32.71-12.68,45.12-2.88c0,0-45.76,96.78-165.68,99.41h-4.73Z" fill="#87c687" stroke="#000" stroke-linecap="round" stroke-linejoin="round" stroke-width="1.05"/></g></g></svg>