<svg id="Layer_1" data-name="Layer 1" xmlns="http://www.w3.org/2000/svg" viewBox="0 0 28.18 23.08"><defs><style>.cls-1{fill:#313131;}.cls-2{fill:none;stroke:#313131;stroke-miterlimit:10;stroke-width:2.49px;}</style></defs><title>logo-3</title><path class="cls-1" d="M3.61,10.47l3.67,7.71,3.65-7.71h3.17v12.6H11.55v-8.5L8.2,21.8H6.35L3,14.58v8.5H.42V10.47Z"/><path class="cls-1" d="M28.18,14.85c0,2.94-1.84,4.63-5,4.63h-2.5v3.6H17.79V10.47h5.35C26.34,10.47,28.18,12.06,28.18,14.85Zm-2.7.09c0-1.41-.9-2.11-2.48-2.11H20.64V17.1H23C24.58,17.1,25.48,16.38,25.48,14.94Z"/><polyline class="cls-2" points="0.55 4.93 7.66 1.41 14.05 4.93 21.16 1.41 27.55 4.93"/></svg>