<svg id="Layer_1" data-name="Layer 1" xmlns="http://www.w3.org/2000/svg" viewBox="0 0 47.31 31.01"><defs><style>.cls-1{fill:#313131;}.cls-2{fill:none;stroke:#313131;stroke-miterlimit:10;stroke-width:2.12px;}</style></defs><title>logo-2</title><path class="cls-1" d="M2.08.06l2.4,5,2.39-5H8.94V8.3H7.27V2.74L5.08,7.46H3.87L1.68,2.74V8.3H0V.06Z"/><path class="cls-1" d="M16.79,6.7H13l-.65,1.6H10.41L14,.06H15.9L19.42,8.3h-2Zm-.6-1.49L14.89,2,13.59,5.2Z"/><path class="cls-1" d="M24.47,1.61A2.48,2.48,0,0,0,22,4.14a2.49,2.49,0,0,0,2.51,2.54,3.18,3.18,0,0,0,2.14-1L27.7,6.91a4.82,4.82,0,0,1-3.33,1.47A4.19,4.19,0,1,1,24.44,0a4.69,4.69,0,0,1,3.25,1.37L26.61,2.68A3,3,0,0,0,24.47,1.61Z"/><path class="cls-1" d="M31.26.06V3.49H35V.06h1.86V8.3H35V5H31.26V8.3H29.4V.06Z"/><path class="cls-1" d="M42.83,6.75a1.74,1.74,0,0,0,1.84-1.91V.06h1.86V4.85a3.36,3.36,0,0,1-3.7,3.53c-2.28,0-3.74-1.35-3.74-3.53V.06h1.86V4.85A1.78,1.78,0,0,0,42.83,6.75Z"/><path class="cls-1" d="M6.79,16.43c0,1.92-1.2,3-3.29,3H1.86v2.35H0V13.57H3.49C5.59,13.57,6.79,14.61,6.79,16.43ZM5,16.49c0-.92-.59-1.38-1.62-1.38H1.86V17.9H3.4C4.44,17.9,5,17.43,5,16.49Z"/><path class="cls-1" d="M10.42,13.57v8.24H8.56V13.57Z"/><path class="cls-1" d="M16.66,15.13a2.54,2.54,0,0,0,0,5.07,3.18,3.18,0,0,0,2.14-1l1.09,1.19a4.82,4.82,0,0,1-3.33,1.47,4.19,4.19,0,1,1,.07-8.38,4.69,4.69,0,0,1,3.25,1.37L18.8,16.2A3,3,0,0,0,16.66,15.13Z"/><path class="cls-1" d="M25.26,15.13a2.54,2.54,0,0,0,0,5.07,3.18,3.18,0,0,0,2.14-1l1.09,1.19a4.82,4.82,0,0,1-3.33,1.47,4.19,4.19,0,1,1,.07-8.38,4.69,4.69,0,0,1,3.25,1.37L27.4,16.2A3,3,0,0,0,25.26,15.13Z"/><path class="cls-1" d="M32,13.57V17h3.73V13.57h1.86v8.24H35.77V18.56H32v3.25H30.18V13.57Z"/><path class="cls-1" d="M43.62,20.27a1.74,1.74,0,0,0,1.84-1.91V13.57h1.86v4.79a3.36,3.36,0,0,1-3.69,3.53c-2.28,0-3.74-1.35-3.74-3.53V13.57h1.86v4.79A1.78,1.78,0,0,0,43.62,20.27Z"/><polyline class="cls-2" points="9.89 29.86 16.95 27.04 23.3 29.86 30.36 27.04 36.72 29.86"/></svg>