<svg xmlns="http://www.w3.org/2000/svg" viewBox="0 0 1920 1033"><title>portfolio-project-header</title><g id="aad4497a-04ae-4c46-8666-7ed56be757d0" data-name="bg"><rect y="-22" width="1920.5" height="1055.5" fill="#5245db"/></g><g id="f1b72b99-8486-4c30-8bc0-8a69352d2fbf" data-name="big leaf"><g id="996e8af7-5670-4f12-b181-744ee97ef8f4" data-name="happy crop"><path d="M851.07,1243.58c-14-22.58-150.51-223.88-21.9-408,0,0,32.31-55.38,107.69-80,35.68-11.65,77.05-8.51,110.72,7.74,25.62,12.36,46.69,32.26,62.88,55.45a259,259,0,0,1,26.78,50c33.56,81.71,33.7,186.84,11.3,271.9A241.72,241.72,0,0,1,1137,1174.8c-2.18,5.06-7,18.88-18,28.16-7,5.88-264.78,41.88-264.78,41.88A2.88,2.88,0,0,1,851.07,1243.58Z" fill="#1c1c1c" stroke="#000" stroke-miterlimit="10" stroke-width="2.89"/><path id="9a0ad0d5-cb1e-4ffb-8b8e-c52c81fcae8f" data-name="ear" d="M837.67,1005.42s-15-16.18-12.54,7.46c0,0,4.82,17.37,20.74,17.37h1.71S837,1005.9,837.67,1005.42Z" fill="#f8e6d3" stroke="#000" stroke-miterlimit="10" stroke-width="2.89"/><path d="M831.4,961s-4.28,112.83,104.82,129.2c17.82,2.67,38.66,2.77,63-.61,0,0,129.52-12.79,116.73-149.56,0,0-38.59,0-57.88-33.74l4.82,18.33s-40.19-11.23-72.36-95.51c0,0-15.44,71.05-67.53,103.06,0,0,1.93-17.2,0-24.91,0,0-26,30.14-51.13,40.64l1-15.72S851.66,954,831.4,961Z" fill="#f8e6d3" stroke="#000" stroke-miterlimit="10" stroke-width="2.89"/><line x1="874.05" y1="963.77" x2="910.7" y2="957.48" fill="#fff" stroke="#000" stroke-linecap="round" stroke-miterlimit="10" stroke-width="5.79"/><line x1="1030.55" y1="946.02" x2="1067.33" y2="940.52" fill="#fff" stroke="#000" stroke-linecap="round" stroke-miterlimit="10" stroke-width="5.79"/><ellipse cx="898.5" cy="988.94" rx="24.51" ry="12.55" transform="translate(-138.89 146.85) rotate(-8.68)" fill="#fff" stroke="#000" stroke-miterlimit="10" stroke-width="2.89"/><circle cx="898.91" cy="988.88" r="11.14"/><ellipse cx="1051.32" cy="972.93" rx="24.51" ry="12.55" transform="translate(-134.73 169.72) rotate(-8.68)" fill="#fff" stroke="#000" stroke-miterlimit="10" stroke-width="2.89"/><circle cx="1052.26" cy="972.79" r="11.25"/><polyline points="978.38 1000.02 978.38 1015.13 986.05 1015.13" fill="none" stroke="#000" stroke-linecap="round" stroke-miterlimit="10" stroke-width="4.34"/><path d="M963.16,689.49s-22.6,25.23-14.39,67c0,0-4.67-18.79-18.59-18.1" fill="none" stroke="#000" stroke-linecap="round" stroke-miterlimit="10" stroke-width="4.34"/><path d="M965,679.47s-19.14-19.78-7.66-31.21c0,0,14.81-6.21,10.89,31.21Z" fill="#fff" stroke="#231f20" stroke-linecap="round" stroke-miterlimit="10" stroke-width="2.89"/><path d="M971.77,678.52s1.32-27.49,17.51-26.94c0,0,14.66,6.55-15.3,29.3Z" fill="#fff" stroke="#231f20" stroke-linecap="round" stroke-miterlimit="10" stroke-width="2.89"/><path d="M972.73,684.38s24.57-12.4,32.07,2c0,0,1.53,16-33,1.12Z" fill="#fff" stroke="#231f20" stroke-linecap="round" stroke-miterlimit="10" stroke-width="2.89"/><path d="M969.83,686.91s17.13,21.55,4.59,31.8c0,0-15.34,4.74-7.8-32.12Z" fill="#fff" stroke="#231f20" stroke-linecap="round" stroke-miterlimit="10" stroke-width="2.89"/><path d="M964.57,686.06s-22.7,15.57-32,2.34c0,0-3.64-15.64,32.59-5.52Z" fill="#fff" stroke="#231f20" stroke-linecap="round" stroke-miterlimit="10" stroke-width="2.89"/><circle cx="968.9" cy="683.75" r="5.74" fill="#f8daa4" stroke="#231f20" stroke-linecap="round" stroke-miterlimit="10" stroke-width="2.89"/><path d="M964.53,735.6S952.4,722,948.77,756.49" fill="none" stroke="#000" stroke-linecap="round" stroke-miterlimit="10" stroke-width="4.34"/><path id="3be9e6b3-a0b1-41f7-a065-589cf8f46115" data-name="ear" d="M1117.33,970.32s10.46-18.4,13.36,4.24c0,0-.73,17.3-15.62,20.78l-1.6.37S1118.08,970.62,1117.33,970.32Z" fill="#f8e6d3" stroke="#000" stroke-miterlimit="10" stroke-width="2.89"/><ellipse cx="1070.7" cy="1007.57" rx="14.67" ry="7.51" transform="translate(-139.73 173.04) rotate(-8.68)" fill="#f39c9c"/><ellipse cx="896.68" cy="1028.48" rx="14.67" ry="7.51" transform="translate(-144.88 147.03) rotate(-8.68)" fill="#f39c9c"/></g></g></svg>