<svg xmlns="http://www.w3.org/2000/svg" viewBox="0 0 1920.5 831.5"><title>portfolio-project-header-wide</title><g data-name="bg"><path fill="#5245db" d="M0 0h1920.5v831.5H0z"/><path fill="#bdffee" stroke="#3f3f3f" stroke-miterlimit="10" stroke-width="1.34" d="M840.27 64.32l4.63-4.03 16.95 10.78-4.63 4.02-16.95-10.77zM770 274.48l19.53-8.01 3.44 4.64-19.53 8.01-3.44-4.64zM211.49 220.6l22.23-1.3.56 5.28-22.23 1.3-.56-5.28zm-69.1 148.68l1.11-5.23 22.03 2.57-1.1 5.23-22.04-2.57zM488.91 87.77l10.59-14.59 6.27 2.51-10.58 14.59-6.28-2.51z"/><path fill="#bdffee" stroke="#000" stroke-miterlimit="10" stroke-width="1.34" d="M551.11 48.92l11.6-14.16 6.09 2.76-11.6 14.16-6.09-2.76zm441.23 63.09l1.19-5.22 21.99 2.77-1.19 5.22-21.99-2.77zm-262.2-94.23l20.66-6.25 2.69 4.9-20.66 6.26-2.69-4.91zm447.87 17.88l.02-5.3 22.31.06-.02 5.29-22.31-.05zM691.32 141.68l20.72-6.13 2.64 4.92-20.73 6.13-2.63-4.92zM124.05 63.59l12.03-13.95 6 2.85-12.03 13.96-6-2.86zm200.6-47.36l20.25-6.95 2.99 4.81-20.25 6.95-2.99-4.81zM37 35.96l21.03-5.52 2.38 5-21.04 5.51L37 35.96zm148.22 90.24l2.19-5.04 21.22 5.1-2.19 5.04-21.22-5.1zm639.44 13.67l.84-5.26 22.15 1.94-.84 5.26-22.15-1.94zm-149.2 43.56l.5-5.29 22.25 1.18-.5 5.28-22.25-1.17zM272.1 21.92l7.11-.34 1.42 16.55-7.11.33-1.42-16.54zm598.03 37.11l6.46-15.87 6.82 1.53-6.46 15.87-6.82-1.53zm188.41 15.68l20.82-5.94 2.56 4.94-20.82 5.94-2.56-4.94zM73.89 108.46l4.51-4.1 17.27 10.48-4.5 4.1-17.28-10.48zm720.1 95.88l21.63-4.07 1.75 5.13-21.63 4.07-1.75-5.13zm-192.63-15.45l5.54-16.06 6.9 1.31-5.53 16.06-6.91-1.31zm570.28 57.13l5.54-16.06 6.9 1.32-5.54 16.05-6.9-1.31zm-543.29 32.7l4.34-4.2 17.69 10.09-4.34 4.2-17.69-10.09zM118.52 99.96l9.26-15.07 6.49 2.2-9.27 15.07-6.48-2.2zM780.3 94.2l13.72-13.06 5.62 3.25-13.72 13.07-5.62-3.26zM266.99 65.85l12.28-13.84 5.95 2.92-12.28 13.84-5.95-2.92zm330.68 41.65l3.79-16.22 7.02.91-3.78 16.22-7.03-.91zM429.04 39.83l19.85-7.55 3.25 4.71-19.86 7.55-3.24-4.71zM946.99 195.9l5.93-15.98 6.87 1.41-5.93 15.98-6.87-1.41zM385.33 329.37l5.93-15.98 6.87 1.41-5.93 15.98-6.87-1.41zm685.01-109.9l1.04-5.24 22.07 2.44-1.05 5.24-22.06-2.44zm-998.2-1.85l3.38-4.67 19.65 7.85-3.38 4.67-19.65-7.85z"/><path fill="none" d="M944.03 314.53l6.9-6.8 19.67 11.01-6.89 6.8-19.68-11.01z"/><path fill="#caefc5" stroke="#3f3f3f" stroke-miterlimit="10" stroke-width="1.34" d="M946.14 314.65l3.6-4.57 19.25 8.37-3.59 4.57-19.26-8.37z"/><path fill="none" d="M498.38 150.85l5.84-13.36 23.87 5.76-5.84 13.36-23.87-5.76z"/><path fill="#bdffee" stroke="#000" stroke-miterlimit="10" stroke-width="1.34" d="M502.93 142.93l5.14-3.66 15.43 11.98-5.15 3.66-15.42-11.98z"/><path fill="none" d="M470.89 217.6l18.6-2.49 4.45 18.35-18.6 2.49-4.45-18.35z"/><path fill="#bdffee" stroke="#000" stroke-miterlimit="10" stroke-width="1.34" d="M475.65 232.57l6.92-15.76 6.77 1.64-6.91 15.76-6.78-1.64z"/><path fill="none" d="M861.64 204.16l5.84-13.36 23.87 5.77-5.85 13.36-23.86-5.77z"/><path fill="#bdffee" stroke="#000" stroke-miterlimit="10" stroke-width="1.34" d="M866.19 196.22l5.15-3.66 15.42 11.98-5.15 3.66-15.42-11.98z"/><path fill="none" d="M661.54 40.49l5.84-13.36 23.86 5.77-5.84 13.36-23.86-5.77z"/><path fill="#bdffee" stroke="#000" stroke-miterlimit="10" stroke-width="1.34" d="M666.18 32.4l5.15-3.66 15.42 11.98-5.14 3.66-15.43-11.98z"/><path fill="none" d="M1133.19 90.22l5.84-13.36 23.86 5.76-5.84 13.36-23.86-5.76z"/><path fill="#bdffee" stroke="#000" stroke-miterlimit="10" stroke-width="1.34" d="M1137.84 82.36l5.15-3.66 15.42 11.97-5.14 3.66-15.43-11.97z"/><path fill="none" d="M1114.2 70.3l15.99-7.49 13.38 15.78-15.98 7.49-13.39-15.78z"/><path fill="#bdffee" stroke="#000" stroke-miterlimit="10" stroke-width="1.34" d="M1124.5 66.24l7.11-.37 1.54 16.54-7.11.36-1.54-16.53z"/><path fill="none" d="M942.62 40.94l4.05-13.72 24.51 4-4.06 13.72-24.5-4z"/><path fill="#bdffee" stroke="#000" stroke-miterlimit="10" stroke-width="1.34" d="M946.22 32.67l4.65-4.01 16.92 10.79-4.64 4.02-16.93-10.8z"/><path fill="none" d="M389.25 139.81l22.3-8.55 8.66 12.48-22.3 8.55-8.66-12.48z"/><path fill="#bdffee" stroke="#000" stroke-miterlimit="10" stroke-width="1.34" d="M393.6 144.15l.12-5.3 22.3.29-.12 5.29-22.3-.28z"/><path fill="none" d="M658.67 107.57l5.84-13.35 23.87 5.76-5.84 13.35-23.87-5.76z"/><path fill="#bdffee" stroke="#000" stroke-miterlimit="10" stroke-width="1.34" d="M663.31 99.59l5.15-3.66 15.42 11.98-5.14 3.66-15.43-11.98z"/><path fill="#bdffee" stroke="#3f3f3f" stroke-miterlimit="10" stroke-width="1.34" d="M1736.91 87.77l10.59-14.59 6.27 2.51-10.59 14.59-6.27-2.51z"/><path fill="#bdffee" stroke="#000" stroke-miterlimit="10" stroke-width="1.34" d="M1799.11 48.92l11.6-14.16 6.09 2.76-11.6 14.16-6.09-2.76zm-146.65 227.51l.5-5.29 22.25 1.18-.5 5.28-22.25-1.17zm196.9-87.54l5.54-16.06 6.9 1.31-5.53 16.06-6.91-1.31zm26.99 89.83l4.34-4.2 17.69 10.09-4.34 4.2-17.69-10.09zm-30.68-171.22l3.79-16.22 7.02.91-3.78 16.22-7.03-.91zm-168.63-67.67l19.85-7.55 3.25 4.71-19.86 7.55-3.24-4.71z"/><path fill="none" d="M1746.38 150.85l5.84-13.36 23.87 5.76-5.84 13.36-23.87-5.76z"/><path fill="#bdffee" stroke="#000" stroke-miterlimit="10" stroke-width="1.34" d="M1750.92 142.93l5.15-3.66 15.42 11.98-5.14 3.66-15.43-11.98z"/><path fill="none" d="M1718.89 217.6l18.6-2.49 4.45 18.35-18.6 2.49-4.45-18.35z"/><path fill="#bdffee" stroke="#000" stroke-miterlimit="10" stroke-width="1.34" d="M1723.65 232.57l6.92-15.76 6.77 1.64-6.91 15.76-6.78-1.64z"/><path fill="none" d="M1637.25 139.81l22.3-8.55 8.66 12.48-22.3 8.55-8.66-12.48z"/><path fill="#bdffee" stroke="#000" stroke-miterlimit="10" stroke-width="1.34" d="M1641.6 144.15l.12-5.3 22.3.29-.12 5.29-22.3-.28z"/><path fill="none" d="M149.1 175.81l6.9-13.07 23.36 6.81-6.9 13.08-23.36-6.82z"/><path fill="#bdffee" stroke="#000" stroke-miterlimit="10" stroke-width="1.34" d="M156.96 179.35l7.95-15.48 6.66 1.88-7.95 15.49-6.66-1.89z"/><path fill="none" d="M270.6 181.22l6.9-13.08 23.36 6.82-6.9 13.07-23.36-6.81z"/><path fill="#bdffee" stroke="#000" stroke-miterlimit="10" stroke-width="1.34" d="M276 173.41l5.43-3.42 14.43 12.64-5.43 3.42L276 173.41z"/><path fill="none" d="M1055.37 146.39l5.84-13.36 23.86 5.76-5.84 13.36-23.86-5.76z"/><path fill="#bdffee" stroke="#000" stroke-miterlimit="10" stroke-width="1.34" d="M1059.91 138.43l5.15-3.66 15.42 11.98-5.15 3.66-15.42-11.98z"/><path fill="none" d="M1106.03 317.2l5.84-13.36 23.87 5.76-5.84 13.36-23.87-5.76z"/><path fill="#bdffee" stroke="#000" stroke-miterlimit="10" stroke-width="1.34" d="M1110.56 309.29l5.15-3.66 15.42 11.97-5.15 3.66-15.42-11.97z"/><path fill="#bdffee" stroke="#3f3f3f" stroke-miterlimit="10" stroke-width="1.34" d="M1425.38 240.59l22.23-1.3.56 5.28-22.23 1.3-.56-5.28zm-99.04 93.92l1.1-5.23 22.04 2.57-1.1 5.23-22.04-2.57z"/><path fill="#bdffee" stroke="#000" stroke-miterlimit="10" stroke-width="1.34" d="M1337.94 83.58l12.03-13.96 6 2.86-12.03 13.96-6-2.86zm234.82-19.99l20.25-6.95 2.99 4.81-20.25 6.95-2.99-4.81zM1262.44 29.3l21.03-5.52 2.37 4.99-21.03 5.52-2.37-4.99zm136.67 116.89l2.19-5.04 21.22 5.1-2.19 5.04-21.22-5.1zm65.44-136.76l7.11-.34 1.42 16.54-7.11.34-1.42-16.54zm-176.77 119.01l4.51-4.1 17.27 10.49-4.5 4.1-17.28-10.49zm44.62-8.49l9.27-15.08 6.48 2.2-9.27 15.08-6.48-2.2zm148.48-34.11L1493.16 72l5.95 2.92-12.28 13.83-5.95-2.91zm-280.9 79.74l19.86-7.55 3.25 4.72-19.86 7.55-3.25-4.72zm371.86 183.78l5.93-15.98 6.87 1.4-5.93 15.98-6.87-1.4zM1286.03 237.6l3.38-4.66 19.64 7.85-3.37 4.66-19.65-7.85z"/><path fill="none" d="M1546.07 159.8l22.3-8.55 8.66 12.48-22.3 8.55-8.66-12.48z"/><path fill="#bdffee" stroke="#000" stroke-miterlimit="10" stroke-width="1.34" d="M1550.42 164.14l.12-5.3 22.3.28-.12 5.3-22.3-.28z"/><path fill="none" d="M1362.98 195.8l6.91-13.07 23.36 6.81-6.9 13.07-23.37-6.81z"/><path fill="#bdffee" stroke="#000" stroke-miterlimit="10" stroke-width="1.34" d="M1370.85 199.34l7.95-15.49 6.66 1.89-7.95 15.49-6.66-1.89z"/><path fill="none" d="M1484.49 201.21l6.9-13.08 23.36 6.81-6.9 13.08-23.36-6.81z"/><path fill="#bdffee" stroke="#000" stroke-miterlimit="10" stroke-width="1.34" d="M1489.89 193.4l5.43-3.43 14.43 12.64-5.43 3.43-14.43-12.64z"/></g><g data-name="big leaf"><g data-name="happy crop"><path d="M860.42 1031.64c-12.91-20.85-139-206.72-20.22-376.74 0 0 29.83-51.14 99.43-73.86 32.95-10.76 71.15-7.86 102.23 7.14 23.65 11.42 43.11 29.79 58.06 51.2a239.14 239.14 0 0 1 24.73 46.2c31 75.44 31.11 172.51 10.43 251.05a223.18 223.18 0 0 1-10.65 31.5c-2 4.67-6.45 17.43-16.58 26-6.42 5.43-244.48 38.67-244.48 38.67a2.66 2.66 0 0 1-2.95-1.16z" fill="#1c1c1c" stroke="#000" stroke-miterlimit="10" stroke-width="2.67"/><path data-name="ear" d="M848.05 811.74s-13.81-14.94-11.58 6.88c0 0 4.45 16 19.15 16h1.58s-9.78-22.44-9.15-22.88z" fill="#f8e6d3" stroke="#000" stroke-miterlimit="10" stroke-width="2.67"/><path d="M842.26 770.72S838.31 874.9 939 890c16.45 2.47 35.7 2.56 58.21-.57 0 0 119.59-11.81 107.78-138.09 0 0-35.63 0-53.45-31.15l4.45 16.92s-37.11-10.37-66.81-88.19c0 0-14.25 65.6-62.35 95.16 0 0 1.78-15.88 0-23 0 0-24.05 27.83-47.21 37.52l.89-14.52s-19.51 20.15-38.25 26.64z" fill="#f8e6d3" stroke="#000" stroke-miterlimit="10" stroke-width="2.67"/><path fill="#fff" stroke="#000" stroke-linecap="round" stroke-miterlimit="10" stroke-width="5.34" d="M881.64 773.28l33.84-5.81m110.66-10.58l33.96-5.07"/><ellipse cx="904.22" cy="796.52" rx="22.63" ry="11.59" transform="rotate(-8.68 903.759 796.147)" fill="#fff" stroke="#000" stroke-miterlimit="10" stroke-width="2.67"/><circle cx="904.59" cy="796.46" r="10.28"/><ellipse cx="1045.31" cy="781.74" rx="22.63" ry="11.59" transform="rotate(-8.68 1044.757 781.403)" fill="#fff" stroke="#000" stroke-miterlimit="10" stroke-width="2.67"/><circle cx="1046.19" cy="781.61" r="10.39"/><path fill="none" stroke="#000" stroke-linecap="round" stroke-miterlimit="10" stroke-width="4.01" d="M977.97 806.75v13.95h7.08M963.92 520s-20.87 23.3-13.29 61.86c0 0-4.31-17.35-17.17-16.71"/><path d="M965.63 510.78S948 492.52 958.56 482c0 0 13.68-5.73 10.05 28.81zm6.24-.88s1.22-25.39 16.13-24.9c0 0 13.54 6-14.12 27.05zm.89 5.41s22.69-11.45 29.61 1.81c0 0 1.41 14.76-30.5 1zm-2.68 2.34s15.82 19.89 4.24 29.36c0 0-14.17 4.38-7.21-29.65zm-4.86-.78s-21 14.37-29.59 2.16c0 0-3.36-14.44 30.09-5.1z" fill="#fff" stroke="#231f20" stroke-linecap="round" stroke-miterlimit="10" stroke-width="2.67"/><circle cx="969.22" cy="514.73" r="5.3" fill="#f8daa4" stroke="#231f20" stroke-linecap="round" stroke-miterlimit="10" stroke-width="2.67"/><path d="M965.19 562.61s-11.19-12.53-14.56 19.28" fill="none" stroke="#000" stroke-linecap="round" stroke-miterlimit="10" stroke-width="4.01"/><path data-name="ear" d="M1106.27 779.33s9.66-17 12.34 3.92c0 0-.67 16-14.42 19.18l-1.48.35s4.29-23.17 3.56-23.45z" fill="#f8e6d3" stroke="#000" stroke-miterlimit="10" stroke-width="2.67"/><ellipse cx="1063.21" cy="813.72" rx="13.55" ry="6.94" transform="rotate(-8.68 1062.673 813.376)" fill="#f39c9c"/><ellipse cx="902.54" cy="833.03" rx="13.55" ry="6.94" transform="rotate(-8.68 902.048 832.66)" fill="#f39c9c"/></g></g></svg>