<svg xmlns="http://www.w3.org/2000/svg" viewBox="0 0 920 667"><title>portfolio-project-header-crop</title><g data-name="bg"><path fill="#5245db" d="M-22.14-5.66H930v674.21H-22.14z"/><path fill="#bdffee" stroke="#3f3f3f" stroke-miterlimit="10" stroke-width="1.34" d="M528.27 58.32l4.63-4.03 16.95 10.78-4.63 4.02-16.95-10.77zM458 268.48l19.53-8.01 3.44 4.64-19.53 8.01-3.44-4.64zM176.91 81.77l10.59-14.59 6.27 2.51-10.58 14.59-6.28-2.51z"/><path fill="#bdffee" stroke="#000" stroke-miterlimit="10" stroke-width="1.34" d="M239.11 42.92l11.6-14.16 6.09 2.76-11.6 14.16-6.09-2.76zm441.23 63.09l1.19-5.22 21.99 2.77-1.19 5.22-21.99-2.77zm-262.2-94.23l20.66-6.25 2.69 4.9-20.66 6.26-2.69-4.91zm447.87 17.88l.02-5.3 22.31.06-.02 5.29-22.31-.05zM379.32 135.68l20.72-6.13 2.64 4.92-20.73 6.13-2.63-4.92zM12.65 10.23L32.9 3.28l2.99 4.81-20.25 6.95-2.99-4.81zm500.01 123.64l.84-5.26 22.15 1.94-.84 5.26-22.15-1.94zm-149.2 43.56l.5-5.29 22.25 1.18-.5 5.28-22.25-1.17zm194.67-124.4l6.46-15.87 6.82 1.53-6.46 15.87-6.82-1.53zm188.41 15.68l20.82-5.94 2.56 4.94-20.82 5.94-2.56-4.94zM481.99 198.34l21.63-4.07 1.75 5.13-21.63 4.07-1.75-5.13zm-192.63-15.45l5.54-16.06 6.9 1.31-5.53 16.06-6.91-1.31zm570.28 57.13l5.54-16.06 6.9 1.32-5.54 16.05-6.9-1.31zm-543.29 32.7l4.34-4.2 17.69 10.09-4.34 4.2-17.69-10.09zM468.31 88.2l13.71-13.06 5.62 3.25-13.72 13.07-5.61-3.26zm-182.63 13.3l3.78-16.22 7.02.91-3.78 16.22-7.02-.91zM117.04 33.83l19.85-7.55 3.25 4.71-19.86 7.55-3.24-4.71zM634.99 189.9l5.93-15.98 6.87 1.41-5.93 15.98-6.87-1.41zM73.33 323.37l5.93-15.98 6.87 1.41-5.93 15.98-6.87-1.41zm685.01-109.9l1.04-5.24 22.07 2.44-1.05 5.24-22.06-2.44z"/><path fill="none" d="M632.03 308.53l6.9-6.8 19.67 11.01-6.89 6.8-19.68-11.01z"/><path fill="#caefc5" stroke="#3f3f3f" stroke-miterlimit="10" stroke-width="1.34" d="M634.14 308.65l3.6-4.57 19.25 8.37-3.59 4.57-19.26-8.37z"/><path fill="none" d="M186.38 144.85l5.84-13.36 23.87 5.76-5.84 13.36-23.87-5.76z"/><path fill="#bdffee" stroke="#000" stroke-miterlimit="10" stroke-width="1.34" d="M190.93 136.93l5.14-3.66 15.43 11.98-5.15 3.66-15.42-11.98z"/><path fill="none" d="M158.89 211.6l18.6-2.49 4.45 18.35-18.6 2.49-4.45-18.35z"/><path fill="#bdffee" stroke="#000" stroke-miterlimit="10" stroke-width="1.34" d="M163.65 226.57l6.92-15.76 6.77 1.64-6.91 15.76-6.78-1.64z"/><path fill="none" d="M549.64 198.16l5.84-13.36 23.87 5.77-5.85 13.36-23.86-5.77z"/><path fill="#bdffee" stroke="#000" stroke-miterlimit="10" stroke-width="1.34" d="M554.19 190.22l5.15-3.66 15.42 11.98-5.15 3.66-15.42-11.98z"/><path fill="none" d="M349.54 34.49l5.84-13.36 23.86 5.77-5.84 13.36-23.86-5.77z"/><path fill="#bdffee" stroke="#000" stroke-miterlimit="10" stroke-width="1.34" d="M354.18 26.4l5.15-3.66 15.42 11.98-5.14 3.66-15.43-11.98z"/><path fill="none" d="M821.19 84.22l5.83-13.36 23.87 5.76-5.84 13.36-23.86-5.76z"/><path fill="#bdffee" stroke="#000" stroke-miterlimit="10" stroke-width="1.34" d="M825.84 76.36l5.15-3.66 15.42 11.97-5.14 3.66-15.43-11.97z"/><path fill="none" d="M802.21 64.3l15.98-7.49 13.38 15.78-15.98 7.49-13.38-15.78z"/><path fill="#bdffee" stroke="#000" stroke-miterlimit="10" stroke-width="1.34" d="M812.5 60.24l7.11-.37 1.54 16.54-7.11.36-1.54-16.53z"/><path fill="none" d="M630.62 34.94l4.05-13.72 24.51 4-4.06 13.72-24.5-4z"/><path fill="#bdffee" stroke="#000" stroke-miterlimit="10" stroke-width="1.34" d="M634.22 26.67l4.65-4.01 16.92 10.79-4.64 4.02-16.93-10.8z"/><path fill="none" d="M77.25 133.81l22.3-8.55 8.66 12.48-22.3 8.55-8.66-12.48z"/><path fill="#bdffee" stroke="#000" stroke-miterlimit="10" stroke-width="1.34" d="M81.6 138.15l.12-5.3 22.3.29-.12 5.29-22.3-.28z"/><path fill="none" d="M346.67 101.57l5.84-13.35 23.87 5.76-5.84 13.35-23.87-5.76z"/><path fill="#bdffee" stroke="#000" stroke-miterlimit="10" stroke-width="1.34" d="M351.31 93.59l5.15-3.66 15.42 11.98-5.14 3.66-15.43-11.98z"/><path fill="none" d="M743.37 140.39l5.84-13.36 23.86 5.76-5.83 13.36-23.87-5.76z"/><path fill="#bdffee" stroke="#000" stroke-miterlimit="10" stroke-width="1.34" d="M747.91 132.43l5.15-3.66 15.42 11.98-5.15 3.66-15.42-11.98z"/><path fill="none" d="M794.03 311.2l5.84-13.36 23.87 5.76-5.84 13.36-23.87-5.76z"/><path fill="#bdffee" stroke="#000" stroke-miterlimit="10" stroke-width="1.34" d="M798.56 303.29l5.15-3.66 15.42 11.97-5.15 3.66-15.42-11.97zm89.42-143.71l19.86-7.55 3.25 4.72-19.86 7.55-3.25-4.72z"/></g><g data-name="big leaf"><g data-name="happy crop"><path d="M369.79 826.26c-10-16.15-107.67-160.16-15.67-291.88 0 0 23.11-39.62 77-57.23 25.53-8.33 55.12-6.09 79.2 5.53 18.33 8.85 33.4 23.08 45 39.67a185.28 185.28 0 0 1 19.16 35.79c24 58.45 24.11 133.66 8.08 194.5a172.91 172.91 0 0 1-8.25 24.4c-1.56 3.62-5 13.51-12.85 20.15-5 4.21-189.41 30-189.41 30a2.06 2.06 0 0 1-2.26-.93z" fill="#1c1c1c" stroke="#000" stroke-miterlimit="10" stroke-width="2.07"/><path data-name="ear" d="M360.2 655.88s-10.7-11.57-9 5.33c0 0 3.45 12.42 14.84 12.42h1.23s-7.56-17.4-7.07-17.75z" fill="#f8e6d3" stroke="#000" stroke-miterlimit="10" stroke-width="2.07"/><path d="M355.71 624.1s-3.06 80.71 75 92.42c12.75 1.91 27.66 2 45.1-.44 0 0 92.65-9.15 83.51-107 0 0-27.61 0-41.41-24.14l3.45 13.11s-28.75-8-51.76-68.32c0 0-11 50.83-48.31 73.72 0 0 1.38-12.3 0-17.82 0 0-18.63 21.56-36.58 29.07l.69-11.25s-15.19 15.63-29.69 20.65z" fill="#f8e6d3" stroke="#000" stroke-miterlimit="10" stroke-width="2.07"/><path fill="#fff" stroke="#000" stroke-linecap="round" stroke-miterlimit="10" stroke-width="4.14" d="M386.22 626.09l26.22-4.5m85.74-8.2l26.31-3.93"/><ellipse cx="403.72" cy="644.1" rx="17.53" ry="8.98" transform="rotate(-8.68 403.511 643.813)" fill="#fff" stroke="#000" stroke-miterlimit="10" stroke-width="2.07"/><circle cx="404" cy="644.05" r="7.97"/><ellipse cx="513.03" cy="632.65" rx="17.53" ry="8.98" transform="rotate(-8.68 512.785 632.36)" fill="#fff" stroke="#000" stroke-miterlimit="10" stroke-width="2.07"/><circle cx="513.71" cy="632.54" r="8.05"/><path fill="none" stroke="#000" stroke-linecap="round" stroke-miterlimit="10" stroke-width="3.11" d="M460.86 652.02v10.81h5.48M450 429.88s-16.17 18.05-10.3 47.93c0 0-3.34-13.44-13.3-12.95"/><path d="M451.29 422.71s-13.69-14.15-5.48-22.32c0 0 10.6-4.44 7.79 22.32zm4.84-.71s.94-19.67 12.52-19.27c0 0 10.49 4.69-10.94 21zm.69 4.23s17.58-8.87 22.94 1.4c0 0 1.09 11.44-23.63.8zm-2.08 1.77S467 443.45 458 450.79c0 0-11 3.39-5.58-23zm-3.74-.57s-16.24 11.14-22.93 1.67c0 0-2.61-11.19 23.31-3.95z" fill="#fff" stroke="#231f20" stroke-linecap="round" stroke-miterlimit="10" stroke-width="2.07"/><circle cx="454.08" cy="425.77" r="4.11" fill="#f8daa4" stroke="#231f20" stroke-linecap="round" stroke-miterlimit="10" stroke-width="2.07"/><path d="M451 462.87s-8.68-9.71-11.28 14.94" fill="none" stroke="#000" stroke-linecap="round" stroke-miterlimit="10" stroke-width="3.11"/><path data-name="ear" d="M560.26 630.78s7.48-13.17 9.56 3c0 0-.52 12.38-11.17 14.86l-1.15.27s3.29-17.91 2.76-18.13z" fill="#f8e6d3" stroke="#000" stroke-miterlimit="10" stroke-width="2.07"/><ellipse cx="526.9" cy="657.42" rx="10.5" ry="5.37" transform="rotate(-8.68 526.61 657.131)" fill="#f39c9c"/><ellipse cx="402.41" cy="672.38" rx="10.5" ry="5.37" transform="rotate(-8.68 402.162 672.071)" fill="#f39c9c"/></g></g></svg>