<svg xmlns="http://www.w3.org/2000/svg" viewBox="0 0 1920 1033"><title>portfolio-project-header</title><g data-name="bg"><path fill="#5245db" d="M0-22h1920.5v1055.5H0z"/><path fill="#bdffee" stroke="#3f3f3f" stroke-miterlimit="10" stroke-width="1.34" d="M840.27 79.32l4.63-4.03 16.95 10.78-4.63 4.02-16.95-10.77zM770 289.48l19.53-8.01 3.44 4.64-19.53 8.01-3.44-4.64zM211.49 235.6l22.23-1.3.56 5.28-22.23 1.3-.56-5.28zm-69.1 148.68l1.11-5.23 22.03 2.57-1.1 5.23-22.04-2.57zm346.52-281.51l10.59-14.59 6.27 2.51-10.58 14.59-6.28-2.51z"/><path fill="#bdffee" stroke="#000" stroke-miterlimit="10" stroke-width="1.34" d="M551.11 63.92l11.6-14.16 6.09 2.76-11.6 14.16-6.09-2.76zm441.23 63.09l1.19-5.22 21.99 2.77-1.19 5.22-21.99-2.77zm-262.2-94.23l20.66-6.25 2.69 4.9-20.66 6.26-2.69-4.91zm447.87 17.88l.02-5.3 22.31.06-.02 5.29-22.31-.05zM691.32 156.68l20.72-6.13 2.64 4.92-20.73 6.13-2.63-4.92zM124.05 78.59l12.03-13.95 6 2.85-12.03 13.96-6-2.86zm200.6-47.36l20.25-6.95 2.99 4.81-20.25 6.95-2.99-4.81zM37 50.96l21.03-5.52 2.38 5-21.04 5.51L37 50.96zm148.22 90.24l2.19-5.04 21.22 5.1-2.19 5.04-21.22-5.1zm639.44 13.67l.84-5.26 22.15 1.94-.84 5.26-22.15-1.94zm-149.2 43.56l.5-5.29 22.25 1.18-.5 5.28-22.25-1.17zM272.1 36.92l7.11-.34 1.42 16.55-7.11.33-1.42-16.54zm598.03 37.11l6.46-15.87 6.82 1.53-6.46 15.87-6.82-1.53zm188.41 15.68l20.82-5.94 2.56 4.94-20.82 5.94-2.56-4.94zM73.89 123.46l4.51-4.1 17.27 10.48-4.5 4.1-17.28-10.48zm720.1 95.88l21.63-4.07 1.75 5.13-21.63 4.07-1.75-5.13zm-192.63-15.45l5.54-16.06 6.9 1.31-5.53 16.06-6.91-1.31zm570.28 57.13l5.54-16.06 6.9 1.32-5.54 16.05-6.9-1.31zm-543.29 32.7l4.34-4.2 17.69 10.09-4.34 4.2-17.69-10.09zM118.52 114.96l9.26-15.07 6.49 2.2-9.27 15.07-6.48-2.2zm661.78-5.76l13.72-13.06 5.62 3.25-13.72 13.07-5.62-3.26zM266.99 80.85l12.28-13.84 5.95 2.92-12.28 13.84-5.95-2.92zm330.68 41.65l3.79-16.22 7.02.91-3.78 16.22-7.03-.91zM429.04 54.83l19.85-7.55 3.25 4.71-19.86 7.55-3.24-4.71zM946.99 210.9l5.93-15.98 6.87 1.41-5.93 15.98-6.87-1.41zM385.33 344.37l5.93-15.98 6.87 1.41-5.93 15.98-6.87-1.41zm685.01-109.9l1.04-5.24 22.07 2.44-1.05 5.24-22.06-2.44zm-998.2-1.85l3.38-4.67 19.65 7.85-3.38 4.67-19.65-7.85z"/><path fill="none" d="M944.03 329.53l6.9-6.8 19.67 11.01-6.89 6.8-19.68-11.01z"/><path fill="#caefc5" stroke="#3f3f3f" stroke-miterlimit="10" stroke-width="1.34" d="M946.14 329.65l3.6-4.57 19.25 8.37-3.59 4.57-19.26-8.37z"/><path fill="none" d="M498.38 165.85l5.84-13.36 23.87 5.76-5.84 13.36-23.87-5.76z"/><path fill="#bdffee" stroke="#000" stroke-miterlimit="10" stroke-width="1.34" d="M502.93 157.93l5.14-3.66 15.43 11.98-5.15 3.66-15.42-11.98z"/><path fill="none" d="M470.89 232.6l18.6-2.49 4.45 18.35-18.6 2.49-4.45-18.35z"/><path fill="#bdffee" stroke="#000" stroke-miterlimit="10" stroke-width="1.34" d="M475.65 247.57l6.92-15.76 6.77 1.64-6.91 15.76-6.78-1.64z"/><path fill="none" d="M861.64 219.16l5.84-13.36 23.87 5.77-5.85 13.36-23.86-5.77z"/><path fill="#bdffee" stroke="#000" stroke-miterlimit="10" stroke-width="1.34" d="M866.19 211.22l5.15-3.66 15.42 11.98-5.15 3.66-15.42-11.98z"/><path fill="none" d="M661.54 55.49l5.84-13.36 23.86 5.77-5.84 13.36-23.86-5.77z"/><path fill="#bdffee" stroke="#000" stroke-miterlimit="10" stroke-width="1.34" d="M666.18 47.4l5.15-3.66 15.42 11.98-5.14 3.66-15.43-11.98z"/><path fill="none" d="M1133.19 105.22l5.84-13.36 23.86 5.76-5.84 13.36-23.86-5.76z"/><path fill="#bdffee" stroke="#000" stroke-miterlimit="10" stroke-width="1.34" d="M1137.84 97.36l5.15-3.66 15.42 11.97-5.14 3.66-15.43-11.97z"/><path fill="none" d="M1114.2 85.3l15.99-7.49 13.38 15.78-15.98 7.49-13.39-15.78z"/><path fill="#bdffee" stroke="#000" stroke-miterlimit="10" stroke-width="1.34" d="M1124.5 81.24l7.11-.37 1.54 16.54-7.11.36-1.54-16.53z"/><path fill="none" d="M942.62 55.94l4.05-13.72 24.51 4-4.06 13.72-24.5-4z"/><path fill="#bdffee" stroke="#000" stroke-miterlimit="10" stroke-width="1.34" d="M946.22 47.67l4.65-4.01 16.92 10.79-4.64 4.02-16.93-10.8z"/><path fill="none" d="M389.25 154.81l22.3-8.55 8.66 12.48-22.3 8.55-8.66-12.48z"/><path fill="#bdffee" stroke="#000" stroke-miterlimit="10" stroke-width="1.34" d="M393.6 159.15l.12-5.3 22.3.29-.12 5.29-22.3-.28z"/><path fill="none" d="M658.67 122.57l5.84-13.35 23.87 5.76-5.84 13.36-23.87-5.77z"/><path fill="#bdffee" stroke="#000" stroke-miterlimit="10" stroke-width="1.34" d="M663.31 114.59l5.15-3.66 15.42 11.98-5.14 3.66-15.43-11.98z"/><path fill="#bdffee" stroke="#3f3f3f" stroke-miterlimit="10" stroke-width="1.34" d="M1736.91 102.77l10.59-14.59 6.27 2.51-10.59 14.59-6.27-2.51z"/><path fill="#bdffee" stroke="#000" stroke-miterlimit="10" stroke-width="1.34" d="M1799.11 63.92l11.6-14.16 6.09 2.76-11.6 14.16-6.09-2.76zm-146.65 227.51l.5-5.29 22.25 1.18-.5 5.28-22.25-1.17zm196.9-87.54l5.54-16.06 6.9 1.31-5.53 16.06-6.91-1.31zm26.99 89.83l4.34-4.2 17.69 10.09-4.34 4.2-17.69-10.09zm-30.68-171.22l3.79-16.22 7.02.91-3.78 16.22-7.03-.91zm-168.63-67.67l19.85-7.55 3.25 4.71-19.86 7.55-3.24-4.71z"/><path fill="none" d="M1746.38 165.85l5.84-13.36 23.87 5.76-5.84 13.36-23.87-5.76z"/><path fill="#bdffee" stroke="#000" stroke-miterlimit="10" stroke-width="1.34" d="M1750.92 157.93l5.15-3.66 15.42 11.98-5.14 3.66-15.43-11.98z"/><path fill="none" d="M1718.89 232.6l18.6-2.49 4.45 18.35-18.6 2.49-4.45-18.35z"/><path fill="#bdffee" stroke="#000" stroke-miterlimit="10" stroke-width="1.34" d="M1723.65 247.57l6.92-15.76 6.77 1.64-6.91 15.76-6.78-1.64z"/><path fill="none" d="M1637.25 154.81l22.3-8.55 8.66 12.48-22.3 8.55-8.66-12.48z"/><path fill="#bdffee" stroke="#000" stroke-miterlimit="10" stroke-width="1.34" d="M1641.6 159.15l.12-5.3 22.3.29-.12 5.29-22.3-.28z"/><path fill="none" d="M149.1 190.81l6.9-13.07 23.36 6.81-6.9 13.08-23.36-6.82z"/><path fill="#bdffee" stroke="#000" stroke-miterlimit="10" stroke-width="1.34" d="M156.96 194.35l7.95-15.48 6.66 1.88-7.95 15.49-6.66-1.89z"/><path fill="none" d="M270.6 196.22l6.9-13.08 23.36 6.82-6.9 13.07-23.36-6.81z"/><path fill="#bdffee" stroke="#000" stroke-miterlimit="10" stroke-width="1.34" d="M276 188.41l5.43-3.42 14.43 12.64-5.43 3.42L276 188.41z"/><path fill="none" d="M1055.37 161.39l5.84-13.36 23.86 5.76-5.84 13.36-23.86-5.76z"/><path fill="#bdffee" stroke="#000" stroke-miterlimit="10" stroke-width="1.34" d="M1059.91 153.43l5.15-3.66 15.42 11.98-5.15 3.66-15.42-11.98z"/><path fill="none" d="M1106.03 332.2l5.84-13.36 23.87 5.76-5.84 13.36-23.87-5.76z"/><path fill="#bdffee" stroke="#000" stroke-miterlimit="10" stroke-width="1.34" d="M1110.56 324.29l5.15-3.66 15.42 11.97-5.15 3.66-15.42-11.97z"/><path fill="#bdffee" stroke="#3f3f3f" stroke-miterlimit="10" stroke-width="1.34" d="M1425.38 255.59l22.23-1.3.56 5.28-22.23 1.3-.56-5.28zm-99.04 93.92l1.1-5.23 22.04 2.57-1.1 5.23-22.04-2.57z"/><path fill="#bdffee" stroke="#000" stroke-miterlimit="10" stroke-width="1.34" d="M1337.94 98.58l12.03-13.96 6 2.86-12.03 13.96-6-2.86zm234.82-19.99l20.25-6.95 2.99 4.81-20.25 6.95-2.99-4.81zM1262.44 44.3l21.03-5.52 2.37 4.99-21.03 5.52-2.37-4.99zm136.67 116.89l2.19-5.04 21.22 5.1-2.19 5.04-21.22-5.1zm65.44-136.76l7.11-.34 1.42 16.54-7.11.34-1.42-16.54zm-176.77 119.01l4.51-4.1 17.27 10.49-4.5 4.1-17.28-10.49zm44.62-8.49l9.27-15.08 6.48 2.2-9.27 15.08-6.48-2.2zm148.48-34.11L1493.16 87l5.95 2.92-12.28 13.83-5.95-2.91zm-280.9 79.74l19.86-7.55 3.25 4.72-19.86 7.55-3.25-4.72zm371.86 183.78l5.93-15.98 6.87 1.4-5.93 15.98-6.87-1.4zM1286.03 252.6l3.38-4.66 19.64 7.85-3.37 4.66-19.65-7.85z"/><path fill="none" d="M1546.07 174.8l22.3-8.55 8.66 12.48-22.3 8.55-8.66-12.48z"/><path fill="#bdffee" stroke="#000" stroke-miterlimit="10" stroke-width="1.34" d="M1550.42 179.14l.12-5.3 22.3.28-.12 5.3-22.3-.28z"/><path fill="none" d="M1362.98 210.8l6.91-13.07 23.36 6.81-6.9 13.07-23.37-6.81z"/><path fill="#bdffee" stroke="#000" stroke-miterlimit="10" stroke-width="1.34" d="M1370.85 214.34l7.95-15.49 6.66 1.89-7.95 15.49-6.66-1.89z"/><path fill="none" d="M1484.49 216.21l6.9-13.08 23.36 6.81-6.9 13.08-23.36-6.81z"/><path fill="#bdffee" stroke="#000" stroke-miterlimit="10" stroke-width="1.34" d="M1489.89 208.4l5.43-3.43 14.43 12.64-5.43 3.43-14.43-12.64z"/></g><g data-name="big leaf"><g data-name="happy crop"><path d="M851.07 1243.58c-14-22.58-150.51-223.88-21.9-408 0 0 32.31-55.38 107.69-80 35.68-11.65 77.05-8.51 110.72 7.74 25.62 12.36 46.69 32.26 62.88 55.45a259 259 0 0 1 26.78 50c33.56 81.71 33.7 186.84 11.3 271.9a241.72 241.72 0 0 1-11.54 34.13c-2.18 5.06-7 18.88-18 28.16-7 5.88-264.78 41.88-264.78 41.88a2.88 2.88 0 0 1-3.15-1.26z" fill="#1c1c1c" stroke="#000" stroke-miterlimit="10" stroke-width="2.89"/><path data-name="ear" d="M837.67 1005.42s-15-16.18-12.54 7.46c0 0 4.82 17.37 20.74 17.37h1.71s-10.58-24.35-9.91-24.83z" fill="#f8e6d3" stroke="#000" stroke-miterlimit="10" stroke-width="2.89"/><path d="M831.4 961s-4.28 112.83 104.82 129.2c17.82 2.67 38.66 2.77 63-.61 0 0 129.52-12.79 116.73-149.56 0 0-38.59 0-57.88-33.74l4.82 18.33s-40.19-11.23-72.36-95.51c0 0-15.44 71.05-67.53 103.06 0 0 1.93-17.2 0-24.91 0 0-26 30.14-51.13 40.64l1-15.72S851.66 954 831.4 961z" fill="#f8e6d3" stroke="#000" stroke-miterlimit="10" stroke-width="2.89"/><path fill="#fff" stroke="#000" stroke-linecap="round" stroke-miterlimit="10" stroke-width="5.79" d="M874.05 963.77l36.65-6.29m119.85-11.46l36.78-5.5"/><ellipse cx="898.5" cy="988.94" rx="24.51" ry="12.55" transform="rotate(-8.68 898.042 988.47)" fill="#fff" stroke="#000" stroke-miterlimit="10" stroke-width="2.89"/><circle cx="898.91" cy="988.88" r="11.14"/><ellipse cx="1051.32" cy="972.93" rx="24.51" ry="12.55" transform="rotate(-8.68 1050.796 972.497)" fill="#fff" stroke="#000" stroke-miterlimit="10" stroke-width="2.89"/><circle cx="1052.26" cy="972.79" r="11.25"/><path fill="none" stroke="#000" stroke-linecap="round" stroke-miterlimit="10" stroke-width="4.34" d="M978.38 1000.02v15.11h7.67m-22.89-325.64s-22.6 25.23-14.39 67c0 0-4.67-18.79-18.59-18.1"/><path d="M965 679.47s-19.14-19.78-7.66-31.21c0 0 14.81-6.21 10.89 31.21zm6.77-.95s1.32-27.49 17.51-26.94c0 0 14.66 6.55-15.3 29.3zm.96 5.86s24.57-12.4 32.07 2c0 0 1.53 16-33 1.12zm-2.9 2.53s17.13 21.55 4.59 31.8c0 0-15.34 4.74-7.8-32.12zm-5.26-.85s-22.7 15.57-32 2.34c0 0-3.64-15.64 32.59-5.52z" fill="#fff" stroke="#231f20" stroke-linecap="round" stroke-miterlimit="10" stroke-width="2.89"/><circle cx="968.9" cy="683.75" r="5.74" fill="#f8daa4" stroke="#231f20" stroke-linecap="round" stroke-miterlimit="10" stroke-width="2.89"/><path d="M964.53 735.6s-12.13-13.6-15.76 20.89" fill="none" stroke="#000" stroke-linecap="round" stroke-miterlimit="10" stroke-width="4.34"/><path data-name="ear" d="M1117.33 970.32s10.46-18.4 13.36 4.24c0 0-.73 17.3-15.62 20.78l-1.6.37s4.61-25.09 3.86-25.39z" fill="#f8e6d3" stroke="#000" stroke-miterlimit="10" stroke-width="2.89"/><ellipse cx="1070.7" cy="1007.57" rx="14.67" ry="7.51" transform="rotate(-8.68 1070.169 1007.099)" fill="#f39c9c"/><ellipse cx="896.68" cy="1028.48" rx="14.67" ry="7.51" transform="rotate(-8.68 896.233 1028.023)" fill="#f39c9c"/></g></g></svg>