<svg xmlns="http://www.w3.org/2000/svg" viewBox="0 0 72.3143 71.39406"><defs><style>.cls-1{fill:#fefefe;}.cls-2{fill:#009cdb;}</style></defs><title>compass-logo</title><g id="Layer_2" data-name="Layer 2"><g id="Layer_1-2" data-name="Layer 1"><path class="cls-1" d="M72.3143,0c-.80394,9.72-1.393,18.9472-2.38319,28.13111-.75777,7.0281-1.07946,14.31371-3.26964,20.93051-3.86707,11.68286-12.67412,18.629-24.71209,21.45451-17.42461,4.0899-33.83626-6.6513-39.72616-20.988-6.81116-16.57923,2.64284-38.80423,19.97-43.88731,7.35237-2.15688,15.23691-2.64788,22.925-3.47337C53.99742,1.214,62.92666.72681,72.3143,0ZM48.7574,31.97445H60.07162C57.77356,19.21168,44.24747,10.408,30.06339,12.72785,18.03105,14.69576,7.10175,25.89543,8.93258,41.96212,10.33205,54.24343,23.06707,64.73119,36.16,64.02318,50.07681,63.27064,59.2462,51.8844,59.69019,44.69085h-11.151c-5.07012,7.05394-11.44564,9.78215-17.87954,7.72723A15.09557,15.09557,0,0,1,19.82144,38.04136c.04564-6.7237,4.406-12.1729,11.44607-14.30428C37.57733,21.82678,43.891,24.79115,48.7574,31.97445Z"/><path class="cls-2" d="M48.7574,31.97445c-4.86641-7.1833-11.18007-10.14767-17.48988-8.23737-7.04007,2.13138-11.40043,7.58058-11.44607,14.30428A15.09557,15.09557,0,0,0,30.65965,52.41808c6.4339,2.05492,12.80942-.67329,17.87954-7.72723h11.151c-.444,7.19355-9.61338,18.5798-23.53018,19.33233-13.093.708-25.828-9.77975-27.22744-22.06106C7.10175,25.89543,18.03105,14.69576,30.06339,12.72785c14.18409-2.31984,27.71017,6.48383,30.00824,19.2466Z"/></g></g></svg>