<svg xmlns="http://www.w3.org/2000/svg" viewBox="0 0 85.68928 84.83791"><defs><style>.cls-1{fill:#009bde;}.cls-2{fill:#fefefe;}</style></defs><title>compass-logo-blue</title><g id="Layer_2" data-name="Layer 2"><g id="Layer_1-2" data-name="Layer 1"><path class="cls-1" d="M68.96439,73.23019A40.55912,40.55912,0,1,1,38.835,3.756C49.91144,3.28825,85.68928,0,85.68928,0s-3.91765,35.86063-4.6618,46.99717A40.4074,40.4074,0,0,1,68.96439,73.23019Z"/><path class="cls-2" d="M58.17811,38.17248C52.4414,29.70453,44.99862,26.21,37.56037,28.46195c-8.2991,2.51255-13.43927,8.93628-13.49307,16.86243A17.79524,17.79524,0,0,0,36.8438,62.27221c7.58453,2.42242,15.10024-.7937,21.07708-9.10916H71.06611c-.52339,8.48-11.33262,21.90257-27.73827,22.78969-15.43447.83463-30.447-11.52874-32.09675-26.00642C9.07284,31.0063,21.95672,17.8037,36.1409,15.48385c16.72075-2.73472,32.66581,7.64338,35.37486,22.68863Z"/></g></g></svg>