<svg xmlns="http://www.w3.org/2000/svg" viewBox="0 0 1920 819"><title>about-me-header-2</title><g id="8d558ec2-b5f1-4c43-9deb-bbf9ec1db077" data-name="bg"><rect y="-12" width="1920.5" height="831.5" fill="#5245db"/></g><g id="9ab33e94-d913-496d-ad8d-8a179728e217" data-name="behind leaf"><g id="24f8fb36-b5e7-4ebb-98c1-c3ca73e1f7a4" data-name="&lt;Group&gt;"><path d="M1785.48,812.67c41.28-11.16,73.6-30.66,72.19-43.55s-36-14.3-77.29-3.14-72.19,43.55-72.19,43.55S1744.2,823.83,1785.48,812.67Z" fill="#4fc6b7"/></g><g id="2aebaba2-9dce-4dd0-8e9b-4b72016cfa0d" data-name="&lt;Group&gt;" opacity="0.13"><path d="M1785.48,812.67c-41.28,11.16-77.29-3.14-77.29-3.14l149.48-40.41C1859.08,782,1826.76,801.51,1785.48,812.67Z"/></g><g id="c7b39c65-0607-48e1-8e1f-c7f1c9f283b9" data-name="&lt;Group&gt;"><path d="M1734.64,774.87c41.28-11.16,73.6-30.66,72.19-43.55s-36-14.3-77.29-3.14-72.19,43.55-72.19,43.55S1693.36,786,1734.64,774.87Z" fill="#4fc6b7"/></g><g id="049890a9-d81f-4c23-83b2-6dd564301701" data-name="&lt;Group&gt;" opacity="0.13"><path d="M1734.64,774.87c-41.28,11.16-77.29-3.14-77.29-3.14l149.48-40.41C1808.24,744.21,1775.92,763.71,1734.64,774.87Z"/></g><g id="7464e700-e984-4125-abaf-f78093f0088f" data-name="&lt;Group&gt;"><path d="M1678.89,745.69c40.73-13,72.12-34,70.13-46.79s-36.63-12.64-77.36.39-70.13,46.79-70.13,46.79S1638.16,758.72,1678.89,745.69Z" fill="#4fc6b7"/></g><g id="f492ceca-eaf5-429a-8458-0073b00112f7" data-name="&lt;Group&gt;" opacity="0.13"><path d="M1678.89,745.69c-40.73,13-77.36.39-77.36.39L1749,698.9C1751,711.72,1719.62,732.67,1678.89,745.69Z"/></g><g id="d8574af3-5ac3-4020-a92f-55178c910a7f" data-name="&lt;Group&gt;"><path d="M1873,680.49c6.67,42.24,2.06,79.7-10.28,83.67s-27.75-27-34.42-69.28,10.28-83.67,10.28-83.67S1866.38,638.25,1873,680.49Z" fill="#4fc6b7"/></g><g id="546d7524-a6af-4a4f-b250-bcf88c5f3dc1" data-name="&lt;Group&gt;" opacity="0.13"><path d="M1873,680.49c-6.67-42.24-34.42-69.28-34.42-69.28l24.14,153C1875.1,760.19,1879.71,722.73,1873,680.49Z"/></g><g id="1f6875a8-1d55-412e-aa22-6b5c2d08c344" data-name="&lt;Group&gt;"><path d="M1817.78,649.51c6.67,42.24,2.06,79.7-10.28,83.67s-27.75-27-34.42-69.28,10.28-83.67,10.28-83.67S1811.11,607.28,1817.78,649.51Z" fill="#4fc6b7"/></g><g id="f78c49f5-1bb9-45cd-9a47-c8a8ea57346f" data-name="&lt;Group&gt;" opacity="0.13"><path d="M1817.78,649.51c-6.67-42.24-34.42-69.28-34.42-69.28l24.14,153C1819.84,729.21,1824.44,691.75,1817.78,649.51Z"/></g><g id="e6be5ddd-11bc-44a0-aa19-5d6021c5ea14" data-name="&lt;Group&gt;"><path d="M1760.13,603.83c7.79,42,4.18,79.62-8.05,83.92s-28.46-26.29-36.25-68.34,8.05-83.92,8.05-83.92S1752.34,561.79,1760.13,603.83Z" fill="#4fc6b7"/></g><g id="981bb852-863b-4ea0-ac48-6fd25129d8a5" data-name="&lt;Group&gt;" opacity="0.13"><path d="M1760.13,603.83c-7.79-42-36.25-68.34-36.25-68.34l28.2,152.26C1764.31,683.45,1767.91,645.88,1760.13,603.83Z"/></g><g id="350fc612-b51c-4e56-a9cd-6c9085793fd4" data-name="&lt;Group&gt;"><path d="M1695,572.64c14.1,40.37,16.25,78.05,4.82,84.17s-32.14-21.65-46.23-62-4.82-84.17-4.82-84.17S1680.86,532.27,1695,572.64Z" fill="#4fc6b7"/></g><g id="01963fc0-07f7-4475-bb79-fc506dc9b367" data-name="&lt;Group&gt;" opacity="0.13"><path d="M1695,572.64c-14.1-40.37-46.23-62-46.23-62l51,146.19C1711.2,650.69,1709,613,1695,572.64Z"/></g><g id="eea574ca-3081-4066-9710-c87fea727176" data-name="&lt;Group&gt;"><path d="M1620.9,569.09c25.82,30.91,39.09,62.57,29.65,70.72s-38-10.31-63.83-41.22-29.65-70.72-29.65-70.72S1595.09,538.18,1620.9,569.09Z" fill="#4fc6b7"/></g><g id="fb5b6ddf-363a-4621-9af9-6ea5cfbc28c3" data-name="&lt;Group&gt;" opacity="0.13"><path d="M1620.9,569.09c-25.82-30.91-63.83-41.22-63.83-41.22l93.49,111.94C1660,631.66,1646.72,600,1620.9,569.09Z"/></g><g id="d49bc36a-62b8-4d96-8ad6-ea9a8e73bb6e" data-name="&lt;Group&gt;"><path d="M1547.32,579.77c31.35,20,51.82,44.2,45.73,54s-36.44,1.43-67.79-18.61-45.73-54-45.73-54S1516,559.73,1547.32,579.77Z" fill="#4fc6b7"/></g><g id="69233dbc-6101-4d3b-9d18-2d74e25e8951" data-name="&lt;Group&gt;" opacity="0.13"><path d="M1547.32,579.77c-31.35-20-67.79-18.61-67.79-18.61l113.52,72.57C1599.14,624,1578.67,599.82,1547.32,579.77Z"/></g><g id="60b7ac18-da8f-43b3-92b5-26df60c99009" data-name="&lt;Group&gt;"><path d="M1471.05,604.36c36.24,8.44,63.59,24.39,61.11,35.62s-33.88,13.5-70.12,5.06-61.11-35.62-61.11-35.62S1434.81,595.92,1471.05,604.36Z" fill="#4fc6b7"/></g><g id="f82869d9-9c97-42cf-8a85-b9d663c7af27" data-name="&lt;Group&gt;" opacity="0.13"><path d="M1471.05,604.36c-36.24-8.44-70.12,5.06-70.12,5.06L1532.16,640C1534.65,628.75,1507.29,612.8,1471.05,604.36Z"/></g><g id="8b6cb90a-3b9c-47a8-a01c-ad9c41ba6acb" data-name="&lt;Group&gt;"><path d="M1415.17,672.18c28.7-13.49,55.43-17.27,59.7-8.44s-15.54,26.92-44.25,40.42-57.27,11.2-57.27,11.2S1386.46,685.67,1415.17,672.18Z" fill="#4fc6b7"/></g><g id="610bf758-0e0e-4e52-aa27-75234f3058dd" data-name="&lt;Group&gt;" opacity="0.13"><path d="M1415.17,672.18c-28.7,13.49-41.82,43.18-41.82,43.18l101.52-51.61C1470.6,654.91,1443.87,658.69,1415.17,672.18Z"/></g><g id="81c557cb-d64f-4c95-8e0b-2fcf296f88f2" data-name="&lt;Group&gt;"><path d="M1609.23,711.32c39.66-16,69.43-39.18,66.5-51.82s-37.46-9.92-77.12,6.07-66.5,51.82-66.5,51.82S1569.57,727.31,1609.23,711.32Z" fill="#4fc6b7"/></g><g id="9ff607e2-4598-417f-9004-3665c66f350a" data-name="&lt;Group&gt;" opacity="0.13"><path d="M1609.23,711.32c-39.66,16-77.12,6.07-77.12,6.07l143.62-57.89C1678.67,672.14,1648.89,695.34,1609.23,711.32Z"/></g><g id="fc361632-fe5d-4e07-9a7c-3a73f040ec3a" data-name="&lt;Group&gt;"><path d="M1517.31,706.83c33.93-23.4,57.11-51.59,51.77-63s-37.17-1.64-71.1,21.75-51.77,63-51.77,63S1483.38,730.23,1517.31,706.83Z" fill="#4fc6b7"/></g><g id="a1fc5aec-3eff-4d9c-b8cc-1f8ba1b89db3" data-name="&lt;Group&gt;" opacity="0.13"><path d="M1517.31,706.83c-33.93,23.4-71.1,21.75-71.1,21.75l122.87-84.73C1574.42,655.24,1551.24,683.44,1517.31,706.83Z"/></g><g id="8a79c780-b227-4fd2-8110-df2b7f0cf4be" data-name="oqeQgB.tif"><path d="M1930.23,842.8c-16.8-17.58-34.29-34.23-52.29-50.21s-36.54-31.19-55.74-45.41c-4.79-3.56-9.62-7.07-14.51-10.47-2.43-1.73-4.89-3.41-7.34-5.1s-4.92-3.36-7.4-5c-9.93-6.54-20-12.9-30.22-18.84s-20.65-11.59-31.26-16.75-21.31-10.11-32.27-14.37-22-8.2-33.26-11.5a321.34,321.34,0,0,0-34.12-8.22,305.28,305.28,0,0,0-69.87-5.09,308.67,308.67,0,0,0-35.09,3.61l-2.19.33-2.17.42-4.35.83-4.36.83c-1.46.27-2.89.65-4.33,1l-8.68,2-8.6,2.35c-1.43.4-2.89.73-4.31,1.19l-4.27,1.34c-2.84.91-5.71,1.74-8.54,2.71-5.63,2-11.33,3.9-16.89,6.18-2.79,1.12-5.62,2.16-8.39,3.34l-8.31,3.59c-1.39.6-2.81,1.15-4.17,1.8l-4.11,1.93q-4.1,2-8.27,3.84a283.87,283.87,0,0,1,30.53-20.19c5.25-3.19,10.78-5.84,16.24-8.69,1.36-.73,2.77-1.33,4.17-2l4.21-1.91,4.21-1.91c1.4-.64,2.85-1.17,4.28-1.76l8.62-3.41,8.77-3c1.47-.49,2.92-1.05,4.41-1.47l4.47-1.3,4.47-1.3,2.24-.65,2.26-.56,9.07-2.2c3-.68,6.11-1.2,9.17-1.81,1.53-.28,3.06-.61,4.6-.86l4.63-.69,4.63-.68,2.32-.33,2.33-.23a268.38,268.38,0,0,1,37.47-1.65,276.51,276.51,0,0,1,37.4,3.32l4.65.7c1.55.24,3.07.58,4.61.86l4.61.89c1.54.29,3.08.59,4.59,1l9.15,2.1,9.07,2.39c12,3.41,23.85,7.42,35.46,12s22.88,9.82,33.94,15.45c2.76,1.42,5.52,2.84,8.23,4.35s5.47,2.93,8.13,4.5l8,4.65,7.91,4.85c10.46,6.6,20.69,13.52,30.58,20.89,2.48,1.83,5,3.66,7.38,5.56s4.9,3.72,7.28,5.68q7.21,5.76,14.22,11.75a555,555,0,0,1,52.48,51.43q12.21,13.68,23.45,28.14A357.21,357.21,0,0,1,1930.23,842.8Z" fill="#4fc6b7"/></g><g id="b6536904-8d63-44ef-aaed-038dfa3a1e3a" data-name="&lt;Group&gt;"><path d="M1891.61,708c21.54,13.34,43.06,19.42,48.07,13.59s-8.4-21.37-29.94-34.71-48.07-13.59-48.07-13.59S1870.07,694.67,1891.61,708Z" fill="#4fc6b7"/></g><g id="866f4518-127f-4fce-b3ef-ac03f145a70f" data-name="&lt;Group&gt;" opacity="0.13"><path d="M1891.61,708c-21.54-13.34-29.94-34.71-29.94-34.71l78,48.3C1934.67,727.44,1913.15,721.35,1891.61,708Z"/></g><g id="4b6ed3cc-f31c-4393-b56b-86d15bc071c0" data-name="&lt;Group&gt;"><path d="M1887.37,670.71c21.54,13.34,43.06,19.42,48.07,13.59s-8.4-21.37-29.94-34.71S1857.44,636,1857.44,636,1865.83,657.38,1887.37,670.71Z" fill="#4fc6b7"/></g><g id="72150f45-dbb1-4041-890f-dc5145459aff" data-name="&lt;Group&gt;" opacity="0.13"><path d="M1887.37,670.71c-21.54-13.34-29.94-34.71-29.94-34.71l78,48.3C1930.43,690.14,1908.91,684.05,1887.37,670.71Z"/></g><g id="a23e13b5-9735-4f6e-a70c-a786a039936f" data-name="&lt;Group&gt;"><path d="M1877.42,634.78c22.13,12.34,43.9,17.44,48.64,11.39s-9.36-21-31.49-33.31-48.64-11.39-48.64-11.39S1855.29,622.44,1877.42,634.78Z" fill="#4fc6b7"/></g><g id="e351ae80-ea1b-46c1-a517-f5e5f9126a98" data-name="&lt;Group&gt;" opacity="0.13"><path d="M1877.42,634.78c-22.13-12.34-31.49-33.31-31.49-33.31l80.13,44.7C1921.32,652.23,1899.55,647.13,1877.42,634.78Z"/></g><g id="ec0ac38d-c42d-4458-832c-eeef37353f95" data-name="&lt;Group&gt;"><path d="M1930.34,538.19c-2.92,23.68-11.24,42.25-18.58,41.46s-10.93-20.62-8-44.3,18.58-41.46,18.58-41.46S1933.26,514.51,1930.34,538.19Z" fill="#4fc6b7"/></g><g id="334465fa-24fe-4971-862f-f5f0efcbd966" data-name="&lt;Group&gt;" opacity="0.13"><path d="M1930.34,538.19c2.92-23.68-8-44.3-8-44.3l-10.57,85.76C1919.1,580.44,1927.42,561.87,1930.34,538.19Z"/></g><g id="78ff30cc-00fd-4fed-80d9-af9ea22355b2" data-name="&lt;Group&gt;"><path d="M1895.92,510.69c4,21.67,1.86,40.31-4.83,41.63s-15.37-15.19-19.4-36.86,4.83-41.63,4.83-41.63S1891.9,489,1895.92,510.69Z" fill="#4fc6b7"/></g><g id="b5ad79c6-429d-4244-b9e7-4628f0493f1e" data-name="&lt;Group&gt;" opacity="0.13"><path d="M1895.92,510.69c-4-21.67-19.4-36.86-19.4-36.86l14.57,78.49C1897.78,551,1899.95,532.36,1895.92,510.69Z"/></g><g id="7974b7dd-576b-4f85-8f6e-63dd6566f055" data-name="&lt;Group&gt;"><path d="M1854.4,487.65c11,19.09,15.2,37.38,9.33,40.86s-19.56-9.19-30.58-28.28-9.33-40.86-9.33-40.86S1843.38,468.56,1854.4,487.65Z" fill="#4fc6b7"/></g><g id="088ec3d5-694b-4a00-847e-c4aac9e5f876" data-name="&lt;Group&gt;" opacity="0.13"><path d="M1854.4,487.65c-11-19.09-30.58-28.28-30.58-28.28l39.91,69.14C1869.6,525,1865.42,506.74,1854.4,487.65Z"/></g><g id="4b977bc2-f525-4ad2-bee8-917b899f59d8" data-name="&lt;Group&gt;"><path d="M1802.44,490.94c17.46,7,29.91,17,27.82,22.41s-17.94,4.18-35.4-2.78a74.57,74.57,0,0,1-28-20.24S1785,484,1802.44,490.94Z" fill="#4fc6b7"/></g><g id="c69c989a-dffc-4825-8330-66d7272e9129" data-name="&lt;Group&gt;" opacity="0.13"><path d="M1802.44,490.94c-17.46-7-35.61-.61-35.61-.61l63.43,23C1832.36,507.92,1819.9,497.89,1802.44,490.94Z"/></g><g id="724326e1-d261-44ca-a30a-b6cad3901291" data-name="&lt;Group&gt;"><path d="M1864.09,590.73c23,10.68,45.06,14.17,49.34,7.79s-10.88-20.22-33.85-30.9-49.34-7.79-49.34-7.79S1841.11,580.05,1864.09,590.73Z" fill="#4fc6b7"/></g><g id="809c9932-dc8b-4909-bfdb-24358995b7d5" data-name="&lt;Group&gt;" opacity="0.13"><path d="M1864.09,590.73c-23-10.68-33.85-30.9-33.85-30.9l83.19,38.69C1909.15,604.9,1887.06,601.42,1864.09,590.73Z"/></g><g id="3fe683a6-a9e7-41e8-bdb6-ac5bd25c2fed" data-name="&lt;Group&gt;"><path d="M1828.81,549.15c23.86,5.2,45.44,3.81,48.21-3.1s-14.34-16.74-38.2-21.95-48.21,3.1-48.21,3.1A75.83,75.83,0,0,0,1828.81,549.15Z" fill="#4fc6b7"/></g><g id="3017b803-6d37-4016-acc5-44adda3966f3" data-name="&lt;Group&gt;" opacity="0.13"><path d="M1828.81,549.15a75.83,75.83,0,0,1-38.2-21.95L1877,546C1874.25,553,1852.67,554.36,1828.81,549.15Z"/></g><g id="46409c6c-cec2-47c1-8c30-8010ca5bb2cd" data-name="oqeQgB.tif"><path d="M1937.18,782.83c.81-14.38.93-28.69.55-42.95s-1.3-28.44-2.93-42.5a383.62,383.62,0,0,0-7-41.68c-1.59-6.84-3.35-13.62-5.41-20.31s-4.26-13.31-6.85-19.78c-10.16-25.91-24.91-50-44.84-69.42a182.86,182.86,0,0,0-15.77-13.72c-1.35-1.12-2.81-2.08-4.21-3.14s-2.83-2.07-4.3-3l-4.37-3-4.5-2.77c-12-7.4-25-13.32-38.45-18.6q2.66.49,5.31,1c1.77.35,3.55.69,5.3,1.15l5.26,1.34c1.75.46,3.47,1,5.22,1.53,3.51,1,6.89,2.29,10.34,3.5,1.72.62,3.38,1.37,5.07,2.05s3.38,1.39,5,2.19a160.68,160.68,0,0,1,19.35,10.5l4.62,3c1.52,1,3,2.15,4.49,3.23.74.55,1.5,1.08,2.23,1.64l2.17,1.72c1.44,1.16,2.93,2.27,4.29,3.52A159.1,159.1,0,0,1,1893.65,554a163.9,163.9,0,0,1,13.71,17.52,187.2,187.2,0,0,1,11.44,19.06q5.09,9.87,9.18,20.18c2.69,6.88,5,13.88,7.06,20.94s3.76,14.21,5.14,21.41a297.77,297.77,0,0,1,5.09,43.49,328.67,328.67,0,0,1-1,43.53c-.65,7.21-1.52,14.4-2.69,21.54-.59,3.57-1.22,7.12-1.93,10.66S1938.15,779.35,1937.18,782.83Z" fill="#4fc6b7"/></g></g><g id="50add845-be18-4e00-8ccd-474a251c85cf" data-name="Layer 1"><g id="0640c35d-4b74-414f-961b-5332213b6ae2" data-name="happy crop"><path d="M-38.37,729.45c-5-18.43-57.37-185.15,69.14-285.33,0,0,33.66-31.45,90.62-32.83,27-.65,54.79,10,74.6,28.18,15.08,13.8,25.47,31.84,31.83,51.14a186.09,186.09,0,0,1,8.11,40c6.23,63.16-15.37,135.54-48.34,189.46a173.67,173.67,0,0,1-15,21.1c-2.54,3-8.71,11.55-18.17,15.67C148.43,759.42-61.42,780-61.42,780-62.33,780-38.14,730.33-38.37,729.45Z" fill="#1c1c1c" stroke="#000" stroke-miterlimit="10" stroke-width="2.08"/><path d="M-72.64,808.76a2.07,2.07,0,0,1-1.44-2.43C-71.21,793.45-21.82,661.5,29.9,666c0,0,2.49.64,3.12-3.62l2.26-9.27s3.31-9.73,10.6-6.11c0,0,1.27.12,2.52,2.06,0,0,22.21,26,61.15,15.23l-1-3.2s7.21-3.28,10.69,3.21c0,0,3.77,7.79,1.65,20.72,0,0,21.33,7.55,29,26.53,0,0,29.61,91.6,4.89,141.16a2.19,2.19,0,0,1-2.56,1.25Z" fill="#4c4c4c" stroke="#000" stroke-miterlimit="10" stroke-width="2.08"/><path d="M150.8,698.42c-8.91,17.74-29.88,53.73-51.49,66.86,0,0,49.44,9.74,71.12-21.62" fill="#1c1c1c" stroke="#000" stroke-miterlimit="10" stroke-width="2.08"/><path d="M52.92,638.9s-2.2,7.33-4.35,9.5c0,0,19.19,24.91,61,15.84,0,0-1.37-6.71-1-10.54C108.57,653.71,75.85,655.26,52.92,638.9Z" fill="#f8e6d3" stroke="#000" stroke-miterlimit="10" stroke-width="2.08"/><path id="45f39cfb-18a4-4efd-b172-76f4dee9e3a0" data-name="ear" d="M1.56,562.78s-7-14.22-10.17,2.54c0,0-.26,12.95,10.69,16.23l1.18.35S1,563,1.56,562.78Z" fill="#f8e6d3" stroke="#000" stroke-miterlimit="10" stroke-width="2.08"/><path d="M6.42,530.91s-26.23,76.77,45.47,110.55C63.6,647,77.93,651.34,95.4,654c0,0,91.78,17.93,111.21-78.83,0,0-26.56-8-32.87-35.17l-.46,13.61s-25.34-16-30.08-80.67c0,0-25.29,45.71-67.75,57,0,0,4.88-11.44,5.14-17.15,0,0-24.15,15.37-43.58,17.41l3.91-10.62S21.81,530.25,6.42,530.91Z" fill="#f8e6d3" stroke="#000" stroke-miterlimit="10" stroke-width="2.08"/><line x1="35.2" y1="541.62" x2="61.72" y2="544.86" fill="#fff" stroke="#000" stroke-linecap="round" stroke-miterlimit="10" stroke-width="4.16"/><line x1="146.57" y1="561.71" x2="173.01" y2="565.52" fill="#fff" stroke="#000" stroke-linecap="round" stroke-miterlimit="10" stroke-width="4.16"/><ellipse cx="46.83" cy="563.99" rx="9.02" ry="17.61" transform="translate(-518.18 531.68) rotate(-81.98)" fill="#fff" stroke="#000" stroke-miterlimit="10" stroke-width="2.08"/><circle cx="47.12" cy="564.03" r="8" transform="translate(-506.67 447.13) rotate(-73.31)"/><ellipse cx="155.3" cy="584.52" rx="9.02" ry="17.61" transform="translate(-445.17 656.76) rotate(-81.98)" fill="#fff" stroke="#000" stroke-miterlimit="10" stroke-width="2.08"/><circle cx="155.98" cy="584.61" r="8.09" transform="translate(-448.8 566.08) rotate(-73.31)"/><polyline points="99.52 588.1 96.4 598.5 101.67 600.08" fill="none" stroke="#000" stroke-linecap="round" stroke-miterlimit="10" stroke-width="3.12"/><line x1="84.57" y1="627.31" x2="98.6" y2="628.35" fill="none" stroke="#000" stroke-linecap="round" stroke-miterlimit="10" stroke-width="4.16"/><path d="M153.14,371.25s-20.76,12.7-23.73,43.14c0,0,.66-13.9-9.06-16.29" fill="none" stroke="#000" stroke-linecap="round" stroke-miterlimit="10" stroke-width="3.12"/><path d="M156.48,364.74s-9.09-17.56,1.17-23.06c0,0,11.47-1.21,1.05,23.72Z" fill="#fff" stroke="#231f20" stroke-linecap="round" stroke-miterlimit="10" stroke-width="2.08"/><path d="M161.33,365.47s6.58-18.65,17.61-14.93c0,0,8.74,7.53-16.58,17Z" fill="#fff" stroke="#231f20" stroke-linecap="round" stroke-miterlimit="10" stroke-width="2.08"/><path d="M160.78,369.71s19.47-3.46,21.67,8c0,0-2.25,11.32-23-6Z" fill="#fff" stroke="#231f20" stroke-linecap="round" stroke-miterlimit="10" stroke-width="2.08"/><path d="M158.26,370.85s7.34,18.36-3.41,22.84c0,0-11.54.09,1.26-23.71Z" fill="#fff" stroke="#231f20" stroke-linecap="round" stroke-miterlimit="10" stroke-width="2.08"/><path d="M154.81,369.18s-18.84,6-22.54-5c0,0,.72-11.52,23.57,2.93Z" fill="#fff" stroke="#231f20" stroke-linecap="round" stroke-miterlimit="10" stroke-width="2.08"/><circle cx="158.27" cy="368.48" r="4.13" transform="translate(-240.14 414.23) rotate(-73.31)" fill="#f8daa4" stroke="#231f20" stroke-linecap="round" stroke-miterlimit="10" stroke-width="2.08"/><path d="M144.56,403.27S139,391.42,129.4,414.39" fill="none" stroke="#000" stroke-linecap="round" stroke-miterlimit="10" stroke-width="3.12"/><path id="3ab1f85d-5892-4518-9383-69d290825861" data-name="ear" d="M201.27,596.34s11-10.51,8.32,5.68c0,0-4.07,11.76-15,11.07l-1.18-.07S201.72,596.71,201.27,596.34Z" fill="#f8e6d3" stroke="#000" stroke-miterlimit="10" stroke-width="2.08"/><path d="M82.47,620.75a2.07,2.07,0,0,0-2.29,2.49c.95,4.48,5.51,8.28,11.41,9.07s11.3-1.68,13.39-5.76a2.07,2.07,0,0,0-1.55-3Z"/><ellipse cx="161.49" cy="612.35" rx="5.4" ry="10.54" transform="translate(-467.4 686.84) rotate(-81.98)" fill="#f39c9c"/><ellipse cx="37.41" cy="590.83" rx="5.4" ry="10.54" transform="translate(-552.86 545.46) rotate(-81.98)" fill="#f39c9c"/></g></g><g id="23664af3-eee0-43b3-abac-9d2cbb6ff695" data-name="big leaf"><g id="65948ac0-10f7-4bba-812e-7d5a9b4c66d2" data-name="&lt;Group&gt;"><path d="M95.59,851.64C55.77,844,23.83,827.85,24.26,815.56s33-16.06,72.86-8.43,71.33,36.08,71.33,36.08S135.41,859.28,95.59,851.64Z" fill="#4fc6b7"/></g><g id="10823a90-001c-439a-a0fa-c6250a9532b0" data-name="&lt;Group&gt;" opacity="0.13"><path d="M95.59,851.64c39.82,7.64,72.86-8.43,72.86-8.43L24.26,815.56C23.83,827.85,55.77,844,95.59,851.64Z"/></g><g id="989296e7-1a01-4cd4-a69a-5b1298d24c74" data-name="&lt;Group&gt;"><path d="M141,812.31c-39.82-7.64-71.75-23.79-71.33-36.08s33-16.06,72.86-8.43,71.33,36.08,71.33,36.08S180.81,819.94,141,812.31Z" fill="#4fc6b7"/></g><g id="c8ad3f95-b9d4-4691-9b63-eb2e226c4b0a" data-name="&lt;Group&gt;" opacity="0.13"><path d="M141,812.31c39.82,7.64,72.86-8.43,72.86-8.43L69.66,776.23C69.23,788.52,101.17,804.67,141,812.31Z"/></g><g id="3b30ed6b-5003-4ffd-b809-c2d39aade7d5" data-name="&lt;Group&gt;"><path d="M191.64,780.78c-39.43-9.44-70.59-27-69.61-39.29s33.74-14.54,73.17-5.1,69.61,39.29,69.61,39.29S231.07,790.23,191.64,780.78Z" fill="#4fc6b7"/></g><g id="a583210f-9f71-453b-b752-45ba64c80427" data-name="&lt;Group&gt;" opacity="0.13"><path d="M191.64,780.78c39.43,9.44,73.17-5.1,73.17-5.1L122,741.49C121,753.75,152.22,771.34,191.64,780.78Z"/></g><g id="9a27d51d-711a-463b-8c35-080dfc4c87db" data-name="&lt;Group&gt;"><path d="M3.46,732.84c-3.32,40.41,3.68,75.5,15.63,78.39S43.43,783.7,46.75,743.3s-15.63-78.39-15.63-78.39S6.78,692.43,3.46,732.84Z" fill="#4fc6b7"/></g><g id="3f4681fc-cc09-416e-8cd2-61893f237334" data-name="&lt;Group&gt;" opacity="0.13"><path d="M3.46,732.84c3.32-40.41,27.65-67.94,27.65-67.94l-12,146.33C7.14,808.35.14,773.25,3.46,732.84Z"/></g><g id="2a267cdb-c01d-4646-833d-5df2bcfb0c8b" data-name="&lt;Group&gt;"><path d="M53.53,699.65c-3.32,40.41,3.68,75.5,15.63,78.39s24.33-27.53,27.65-67.94-15.63-78.39-15.63-78.39S56.85,659.24,53.53,699.65Z" fill="#4fc6b7"/></g><g id="7d5a53cd-917e-4bb3-909e-b760d8630580" data-name="&lt;Group&gt;" opacity="0.13"><path d="M53.53,699.65c3.32-40.41,27.65-67.94,27.65-67.94L69.16,778C57.21,775.15,50.21,740.06,53.53,699.65Z"/></g><g id="3465594c-ba2e-44b9-aba5-cb298578a8b2" data-name="&lt;Group&gt;"><path d="M104.81,652.39c-4.39,40.3,1.67,75.58,13.54,78.78s25.06-26.87,29.45-67.18-13.54-78.78-13.54-78.78S109.21,612.08,104.81,652.39Z" fill="#4fc6b7"/></g><g id="0cd4f8be-a993-44ff-82ae-5b7353400e7a" data-name="&lt;Group&gt;" opacity="0.13"><path d="M104.81,652.39c4.39-40.3,29.45-67.18,29.45-67.18l-15.91,146C106.48,728,100.42,692.69,104.81,652.39Z"/></g><g id="2babfd25-f645-400b-bad9-53fa5fe27b0e" data-name="&lt;Group&gt;"><path d="M164.24,618.29c-10.48,39.17-9.85,74.95,1.39,79.92S194.48,675.47,205,636.3s-1.39-79.92-1.39-79.92S174.71,579.12,164.24,618.29Z" fill="#4fc6b7"/></g><g id="cf39af86-af78-4f3e-bd25-f59b314f1cd5" data-name="&lt;Group&gt;" opacity="0.13"><path d="M164.24,618.29c10.48-39.17,39.33-61.91,39.33-61.91L165.63,698.21C154.38,693.24,153.76,657.46,164.24,618.29Z"/></g><g id="d6627e59-968f-47ea-a0d7-214274bc2f3a" data-name="&lt;Group&gt;"><path d="M234,609.7c-22.23,31.05-32.54,61.92-23,69s35.22-12.44,57.45-43.49,23-69,23-69S256.23,578.65,234,609.7Z" fill="#4fc6b7"/></g><g id="6c6ee1ba-81ed-41c3-b37f-1b9cc846aabc" data-name="&lt;Group&gt;" opacity="0.13"><path d="M234,609.7c22.23-31.05,57.45-43.49,57.45-43.49L211,678.66C201.46,671.62,211.77,640.75,234,609.7Z"/></g><g id="59271501-0424-4ea8-91a6-a32bc46acad0" data-name="&lt;Group&gt;"><path d="M304.33,614.61c-28.22,21.16-45.88,45.45-39.43,54.25s34.56-1.22,62.78-22.39,39.43-54.25,39.43-54.25S332.55,593.45,304.33,614.61Z" fill="#4fc6b7"/></g><g id="18ed18f0-a472-4527-aab4-fa7589e44910" data-name="&lt;Group&gt;" opacity="0.13"><path d="M304.33,614.61c28.22-21.16,62.78-22.39,62.78-22.39L264.9,668.86C258.45,660.06,276.1,635.77,304.33,614.61Z"/></g><g id="a60b131e-0e1c-44d8-96e6-219e091e5766" data-name="&lt;Group&gt;"><path d="M378.18,632.47c-33.67,10.54-58.41,27.55-55.26,38s33,10.37,66.65-.17,55.26-38,55.26-38S411.85,621.94,378.18,632.47Z" fill="#4fc6b7"/></g><g id="244b486f-661a-4070-9b69-937790da749c" data-name="&lt;Group&gt;" opacity="0.13"><path d="M378.18,632.47c33.67-10.54,66.65-.17,66.65-.17L322.92,670.47C319.77,660,344.52,643,378.18,632.47Z"/></g><g id="4a3f842a-fbd5-4d49-a0d6-1f8075038d75" data-name="&lt;Group&gt;"><path d="M435.81,692.65c-28.09-10.73-53.63-12.41-57-3.76s16.6,24.36,44.69,35.09,54.94,6.54,54.94,6.54S463.9,703.38,435.81,692.65Z" fill="#4fc6b7"/></g><g id="98572934-7a06-410c-a520-e3797701b5cf" data-name="&lt;Group&gt;" opacity="0.13"><path d="M435.81,692.65c28.09,10.73,42.59,37.87,42.59,37.87l-99.63-41.63C382.18,680.24,407.72,681.92,435.81,692.65Z"/></g><g id="ed28e33c-9804-4d91-8f5b-c38e6db4f536" data-name="&lt;Group&gt;"><path d="M255.08,743.37c-38.63-12.31-68.42-32.15-66.54-44.3s34.72-12,73.35.29,66.54,44.3,66.54,44.3S293.71,755.68,255.08,743.37Z" fill="#4fc6b7"/></g><g id="3da3063a-eda2-4c5e-8e3b-47eaea04c9aa" data-name="&lt;Group&gt;" opacity="0.13"><path d="M255.08,743.37c38.63,12.31,73.35.29,73.35.29L188.54,699.07C186.66,711.22,216.45,731.05,255.08,743.37Z"/></g><g id="4acfbd96-c015-4fea-8668-ac3949ee12d0" data-name="&lt;Group&gt;"><path d="M341.68,732.63c-33.73-19.73-57.64-44.75-53.4-55.89s35-4.18,68.77,15.55,53.4,55.89,53.4,55.89S375.42,752.36,341.68,732.63Z" fill="#4fc6b7"/></g><g id="ae189e16-56cb-48b9-bffd-6826707c6f10" data-name="&lt;Group&gt;" opacity="0.13"><path d="M341.68,732.63c33.73,19.73,68.77,15.55,68.77,15.55L288.28,676.74C284,687.88,307.95,712.9,341.68,732.63Z"/></g><g id="afc1662c-9521-44c7-9581-66f12ab4bb3e" data-name="oqeQgB.tif"><path d="M-39.15,890.36A338.61,338.61,0,0,1-21.38,860.6q9.57-14.47,20.18-28.27A526.18,526.18,0,0,1,44.8,780q6.22-6.14,12.61-12.12c2.11-2,4.31-3.93,6.48-5.89s4.37-3.87,6.59-5.77c8.83-7.66,18-14.93,27.44-21.91s19.24-13.46,29.26-19.64,20.39-11.83,31-17,21.55-9.74,32.68-13.81l8.4-2.9,8.5-2.63c2.83-.9,5.72-1.59,8.57-2.4,1.43-.38,2.86-.8,4.3-1.14l4.34-1A262.24,262.24,0,0,1,260.12,668a254.56,254.56,0,0,1,35.55-1.09l2.22.06,2.22.14,4.43.31,4.42.33c1.47.13,2.94.33,4.41.49,2.93.36,5.87.64,8.79,1.06l8.73,1.44,2.18.37,2.16.46,4.32.91,4.32.91c1.44.29,2.85.72,4.28,1.08l8.51,2.25,8.39,2.62c1.39.46,2.8.86,4.17,1.37l4.12,1.51,4.11,1.51c1.37.51,2.75,1,4.08,1.57,5.37,2.31,10.78,4.43,16,7.07a269.17,269.17,0,0,1,30.29,16.94q-4.07-1.49-8.09-3l-4-1.54c-1.34-.52-2.72-.94-4.07-1.41l-8.11-2.81c-2.7-.92-5.46-1.71-8.17-2.57-5.42-1.77-10.94-3.15-16.41-4.65-2.74-.72-5.52-1.3-8.27-2l-4.13-1c-1.37-.33-2.77-.54-4.16-.82l-8.3-1.61-8.35-1.26c-1.39-.19-2.77-.45-4.17-.6l-4.18-.48-4.18-.48-2.09-.24-2.09-.15a292.68,292.68,0,0,0-33.44-.93,289.48,289.48,0,0,0-65.71,9.75,304.72,304.72,0,0,0-31.68,10.18q-15.6,5.88-30.64,13.22c-10.06,4.8-19.86,10.19-29.5,15.86s-19.1,11.71-28.38,18-18.31,13.06-27.25,19.95c-2.23,1.73-4.46,3.46-6.64,5.24s-4.4,3.54-6.58,5.34q-6.57,5.35-13,10.93c-17.15,14.8-33.59,30.51-49.49,46.87S-24.51,872.55-39.15,890.36Z" fill="#4fc6b7"/></g></g></svg>