<svg xmlns="http://www.w3.org/2000/svg" viewBox="0 0 920 667"><title>about-me-header-crop</title><g id="eeb599f3-9ea2-4794-913b-fffb6d5b9775" data-name="bg"><rect x="-22.14" y="-5.66" width="952.14" height="674.21" fill="#5245db"/></g><g id="26ae1b2b-507c-4d1b-942b-76b2de9f094e" data-name="behind leaf"><g id="9134e297-d22c-4d80-8854-6a2d70a6fe68" data-name="&lt;Group&gt;"><path d="M810.7,664.91c30.87-8.35,55-22.93,54-32.57s-26.94-10.69-57.81-2.35-54,32.57-54,32.57S779.83,673.25,810.7,664.91Z" fill="#4fc6b7"/></g><g id="6f75126b-a540-42f5-8d44-aeb1b465dc12" data-name="&lt;Group&gt;" opacity="0.13"><path d="M810.7,664.91c-30.87,8.35-57.81-2.35-57.81-2.35l111.8-30.22C865.74,642,841.57,656.56,810.7,664.91Z"/></g><g id="25e73fb3-54ec-49b7-afa5-fa929175be84" data-name="&lt;Group&gt;"><path d="M772.68,636.63c30.87-8.35,55-22.93,54-32.57s-26.94-10.69-57.81-2.35-54,32.57-54,32.57S741.8,645,772.68,636.63Z" fill="#4fc6b7"/></g><g id="be6afc87-b5cb-461c-ba49-c944dff5fea2" data-name="&lt;Group&gt;" opacity="0.13"><path d="M772.68,636.63c-30.87,8.35-57.81-2.35-57.81-2.35l111.8-30.22C827.72,613.71,803.55,628.29,772.68,636.63Z"/></g><g id="341a8e99-3192-45fe-a0ec-d29184c866ef" data-name="&lt;Group&gt;"><path d="M731,614.81c30.46-9.74,53.94-25.41,52.45-35s-27.4-9.45-57.86.29-52.45,35-52.45,35S700.52,624.56,731,614.81Z" fill="#4fc6b7"/></g><g id="c6a21a2e-0659-4216-8415-3096c7a6be04" data-name="&lt;Group&gt;" opacity="0.13"><path d="M731,614.81c-30.46,9.74-57.86.29-57.86.29l110.3-35.28C784.92,589.4,761.44,605.07,731,614.81Z"/></g><g id="669c943a-6013-4272-bab0-2915cf1596b2" data-name="&lt;Group&gt;"><path d="M876.18,566c5,31.59,1.54,59.61-7.69,62.58s-20.76-20.22-25.74-51.81,7.69-62.58,7.69-62.58S871.2,534.46,876.18,566Z" fill="#4fc6b7"/></g><g id="39945e7e-a498-4f5e-8744-c39af160034d" data-name="&lt;Group&gt;" opacity="0.13"><path d="M876.18,566c-5-31.59-25.74-51.81-25.74-51.81l18.05,114.39C877.73,625.65,881.17,597.64,876.18,566Z"/></g><g id="0328ccf9-321f-4c1f-9c27-d9e3facec7be" data-name="&lt;Group&gt;"><path d="M834.85,542.88c5,31.59,1.54,59.61-7.69,62.58s-20.76-20.22-25.74-51.81,7.69-62.58,7.69-62.58S829.87,511.29,834.85,542.88Z" fill="#4fc6b7"/></g><g id="dd964901-7d22-4e36-b225-85add597e97d" data-name="&lt;Group&gt;" opacity="0.13"><path d="M834.85,542.88c-5-31.59-25.74-51.81-25.74-51.81l18.05,114.39C836.39,602.49,839.84,574.47,834.85,542.88Z"/></g><g id="4c27c6f1-5144-40e0-a879-63184d9f4aa3" data-name="&lt;Group&gt;"><path d="M791.73,508.72c5.82,31.45,3.13,59.55-6,62.76s-21.29-19.67-27.11-51.11,6-62.76,6-62.76S785.91,477.27,791.73,508.72Z" fill="#4fc6b7"/></g><g id="73ac3ce8-6312-4f21-8a6c-55ed52ad0452" data-name="&lt;Group&gt;" opacity="0.13"><path d="M791.73,508.72c-5.82-31.45-27.11-51.11-27.11-51.11l21.09,113.87C794.86,568.26,797.56,540.16,791.73,508.72Z"/></g><g id="f1385576-eeed-4e5d-8613-0837a6de3639" data-name="&lt;Group&gt;"><path d="M743,485.39c10.54,30.19,12.15,58.38,3.6,62.95s-24-16.2-34.58-46.39-3.6-62.95-3.6-62.95S732.45,455.2,743,485.39Z" fill="#4fc6b7"/></g><g id="a0bc1e00-c11e-45ec-a01c-9871aa9cf828" data-name="&lt;Group&gt;" opacity="0.13"><path d="M743,485.39C732.45,455.19,708.41,439,708.41,439l38.18,109.34C755.15,543.76,753.53,515.58,743,485.39Z"/></g><g id="57a81548-c7c5-4b90-8967-039487fbb83c" data-name="&lt;Group&gt;"><path d="M687.61,482.73c19.31,23.12,29.24,46.8,22.18,52.89s-28.43-7.71-47.74-30.83-22.18-52.89-22.18-52.89S668.3,459.61,687.61,482.73Z" fill="#4fc6b7"/></g><g id="42f22665-b76a-475e-9b94-895e40e287e7" data-name="&lt;Group&gt;" opacity="0.13"><path d="M687.61,482.73c-19.31-23.12-47.74-30.83-47.74-30.83l69.92,83.72C716.85,529.53,706.92,505.85,687.61,482.73Z"/></g><g id="4dee38ff-29d1-463c-b46b-0a387288d4c8" data-name="&lt;Group&gt;"><path d="M632.58,490.72c23.44,15,38.76,33.06,34.2,40.36s-27.25,1.07-50.7-13.92-34.2-40.36-34.2-40.36S609.13,475.74,632.58,490.72Z" fill="#4fc6b7"/></g><g id="bac1ec6e-6571-4ddd-8025-9a9b33aec8f8" data-name="&lt;Group&gt;" opacity="0.13"><path d="M632.58,490.72c-23.44-15-50.7-13.92-50.7-13.92l84.9,54.28C671.34,523.78,656,505.71,632.58,490.72Z"/></g><g id="88b54157-821c-4921-a807-bf2d7e8c1372" data-name="&lt;Group&gt;"><path d="M575.54,509.11c27.1,6.31,47.56,18.24,45.7,26.64s-25.34,10.09-52.44,3.78-45.7-26.64-45.7-26.64S548.44,502.8,575.54,509.11Z" fill="#4fc6b7"/></g><g id="10a10ee0-5b22-4ad1-a85b-c37c2ffbeb52" data-name="&lt;Group&gt;" opacity="0.13"><path d="M575.54,509.11c-27.1-6.31-52.44,3.78-52.44,3.78l98.14,22.86C623.1,527.35,602.64,515.43,575.54,509.11Z"/></g><g id="625fe618-a1b6-4c4f-bfef-b9af467217eb" data-name="&lt;Group&gt;"><path d="M533.74,559.83c21.47-10.09,41.46-12.91,44.65-6.31s-11.62,20.14-33.09,30.23a94.13,94.13,0,0,1-42.83,8.38S512.27,569.92,533.74,559.83Z" fill="#4fc6b7"/></g><g id="fd82c15d-845f-4279-8d7d-c13c9745ab85" data-name="&lt;Group&gt;" opacity="0.13"><path d="M533.74,559.83c-21.47,10.09-31.27,32.29-31.27,32.29l75.92-38.6C575.2,546.92,555.21,549.74,533.74,559.83Z"/></g><g id="b4eba15b-f9c9-4177-80f1-5a3605ce8ae0" data-name="&lt;Group&gt;"><path d="M678.88,589.11c29.66-12,51.93-29.31,49.74-38.75s-28-7.42-57.68,4.54-49.74,38.75-49.74,38.75S649.22,601.06,678.88,589.11Z" fill="#4fc6b7"/></g><g id="fe2a593f-74e4-4d52-8c19-dc912d6d10af" data-name="&lt;Group&gt;" opacity="0.13"><path d="M678.88,589.11c-29.66,12-57.68,4.54-57.68,4.54l107.41-43.29C730.81,559.8,708.54,577.15,678.88,589.11Z"/></g><g id="b3e1b345-f4fd-41aa-a76b-d85a5d972d61" data-name="&lt;Group&gt;"><path d="M610.13,585.75c25.38-17.5,42.71-38.59,38.72-47.1s-27.8-1.23-53.18,16.27S557,602,557,602,584.76,603.25,610.13,585.75Z" fill="#4fc6b7"/></g><g id="c244dcc9-1b9a-4c1d-afe8-e19ca5884de7" data-name="&lt;Group&gt;" opacity="0.13"><path d="M610.13,585.75C584.76,603.25,557,602,557,602l91.9-63.37C652.84,547.16,635.51,568.25,610.13,585.75Z"/></g><g id="160e2997-1555-441e-9bda-4f4d40836cec" data-name="oqeQgB.tif"><path d="M919,687.44c-12.56-13.15-25.65-25.6-39.11-37.55s-27.33-23.33-41.68-34q-10.75-8-21.87-15.38c-7.43-4.89-14.93-9.65-22.6-14.09s-15.44-8.67-23.38-12.53-15.94-7.56-24.14-10.74-16.47-6.13-24.88-8.6a240.38,240.38,0,0,0-25.52-6.15,228.34,228.34,0,0,0-52.26-3.81,230.87,230.87,0,0,0-26.25,2.7c-1.1.14-2.18.34-3.26.56l-3.26.62-3.26.62c-1.09.2-2.16.49-3.24.72l-6.49,1.48-6.43,1.76c-17.19,4.71-33.86,11.59-50.31,19.39a212.37,212.37,0,0,1,22.83-15.1c3.93-2.38,8.06-4.37,12.15-6.5,2.05-1,4.17-1.93,6.27-2.9l3.15-1.43c1-.48,2.13-.88,3.2-1.32l6.45-2.55,6.56-2.27c2.18-.8,4.41-1.43,6.64-2.07l3.35-1c1.11-.34,2.23-.65,3.37-.91l6.79-1.64c2.27-.51,4.57-.9,6.85-1.35,1.15-.21,2.29-.46,3.44-.64l3.46-.52,3.47-.51,1.74-.24,1.74-.17a200.74,200.74,0,0,1,28-1.23,206.8,206.8,0,0,1,28,2.48l3.47.52c1.16.18,2.3.43,3.45.65,2.29.46,4.61.84,6.88,1.38l6.84,1.57,6.78,1.79c9,2.55,17.84,5.55,26.52,8.95s17.11,7.35,25.39,11.56,16.34,8.8,24.17,13.73,15.48,10.11,22.87,15.62,14.61,11.23,21.6,17.2A415,415,0,0,1,885.69,644q9.13,10.23,17.54,21A267.07,267.07,0,0,1,919,687.44Z" fill="#4fc6b7"/></g><g id="f1ed7cdf-6568-420e-aa78-c1704406a55a" data-name="&lt;Group&gt;"><path d="M898.15,55.68c18.94-19.35,30.32-40.37,25.41-46.95s-24.25,3.76-43.19,23.11S855,78.79,855,78.79,879.2,75,898.15,55.68Z" fill="#4fc6b7"/></g><g id="482e2ddc-6254-414d-b61f-df1f375b022e" data-name="&lt;Group&gt;" opacity="0.13"><path d="M898.15,55.68C879.2,75,855,78.79,855,78.79l68.6-70.06C928.47,15.31,917.09,36.33,898.15,55.68Z"/></g><g id="01001fc3-3bb6-411c-a05e-2cd027e6ca8f" data-name="&lt;Group&gt;"><path d="M858.26,51.38C877.21,32,888.58,11,883.67,4.43s-24.25,3.76-43.19,23.11-25.41,46.95-25.41,46.95S839.32,70.72,858.26,51.38Z" fill="#4fc6b7"/></g><g id="7d0c311c-2f00-45b7-9102-9ff0e3455068" data-name="&lt;Group&gt;" opacity="0.13"><path d="M858.26,51.38c-18.94,19.35-43.19,23.11-43.19,23.11l68.6-70.06C888.58,11,877.21,32,858.26,51.38Z"/></g><g id="22c4abcb-e390-4ce6-8595-bcea9f4b427a" data-name="&lt;Group&gt;"><path d="M818.46,53.36c18-20.19,28.45-41.71,23.25-48.06s-24.05,4.86-42.09,25.05-23.25,48.06-23.25,48.06S800.42,73.55,818.46,53.36Z" fill="#4fc6b7"/></g><g id="4ae029df-3538-4cf5-891b-abf0d0bd599f" data-name="&lt;Group&gt;" opacity="0.13"><path d="M818.46,53.36c-18,20.19-42.09,25.05-42.09,25.05L841.71,5.3C846.91,11.65,836.51,33.17,818.46,53.36Z"/></g><g id="91310088-be17-4fd3-a719-4eb3bc803f67" data-name="&lt;Group&gt;"><path d="M903.49-44.58c17.2,20.91,26.72,42.84,21.26,49s-23.83-5.84-41-26.76-21.26-49-21.26-49S886.28-65.49,903.49-44.58Z" fill="#4fc6b7"/></g><g id="77e39ad7-0bf9-44f1-abb4-959d2daaf08f" data-name="&lt;Group&gt;" opacity="0.13"><path d="M903.49-44.58c-17.2-20.91-41-26.76-41-26.76L924.75,4.39C930.21-1.75,920.69-23.67,903.49-44.58Z"/></g><g id="d25c0c74-d4ed-4a3e-96d4-c2e9da33cd3d" data-name="&lt;Group&gt;"><path d="M863.38-43.74c17.2,20.91,26.72,42.84,21.26,49s-23.83-5.84-41-26.76-21.26-49-21.26-49S846.17-64.65,863.38-43.74Z" fill="#4fc6b7"/></g><g id="e1d2f26b-082f-4b2e-93a1-a1f1c69df1bf" data-name="&lt;Group&gt;" opacity="0.13"><path d="M863.38-43.74c-17.2-20.91-41-26.76-41-26.76L884.64,5.23C890.1-.9,880.58-22.83,863.38-43.74Z"/></g><g id="45880055-4b8e-4d01-be28-59da4a95c6ca" data-name="&lt;Group&gt;"><path d="M771.65-46.25c20.66,17.51,33.94,37.38,29.66,44.39s-24.49-1.5-45.15-19S726.5-65.25,726.5-65.25,751-63.75,771.65-46.25Z" fill="#4fc6b7"/></g><g id="512c9f52-3d13-4c6f-a908-1ba7f542b7ff" data-name="&lt;Group&gt;"><path d="M730.1-24.41c24,8.58,41.43,21.59,38.89,29.07s-24.06,6.58-48.08-2S682-26.4,682-26.4,706.08-33,730.1-24.41Z" fill="#4fc6b7"/></g><g id="97773eb2-49d8-4b64-b6ca-fdc97bb56182" data-name="&lt;Group&gt;" opacity="0.13"><path d="M730.1-24.41c-24-8.58-48.08-2-48.08-2L769,4.66C771.53-2.81,754.11-15.83,730.1-24.41Z"/></g><g id="7fb57b3f-0924-4b82-886c-95ed2245405d" data-name="&lt;Group&gt;"><path d="M693.37,5.06c23.54.87,42.48,7.48,42.29,14.76s-19.43,12.48-43,11.61S650.4,16.67,650.4,16.67,669.83,4.19,693.37,5.06Z" fill="#4fc6b7"/></g><g id="9007d908-d99a-42ce-8d00-6faccd9e91c3" data-name="&lt;Group&gt;" opacity="0.13"><path d="M693.37,5.06c-23.54-.87-43,11.61-43,11.61l85.26,3.15C735.85,12.54,716.92,5.93,693.37,5.06Z"/></g><g id="a812ae51-90ad-492f-8945-1bab7a26d105" data-name="&lt;Group&gt;"><path d="M659.64,43c22.49-7,42.54-7.11,44.79-.18S690.28,61,667.79,68.07s-44.79.18-44.79.18S637.16,50,659.64,43Z" fill="#4fc6b7"/></g><g id="c3296534-066f-415f-8f46-3dcf711dade5" data-name="&lt;Group&gt;" opacity="0.13"><path d="M659.64,43C637.16,50,623,68.25,623,68.25l81.43-25.46C702.18,35.86,682.13,35.94,659.64,43Z"/></g><g id="8b24b25c-6820-429b-a475-45b6886b4f69" data-name="&lt;Group&gt;"><path d="M650.92,97.93c11.33-16.58,24.71-27.23,29.87-23.78s.16,19.69-11.17,36.27A79.7,79.7,0,0,1,642,134.92S639.59,114.51,650.92,97.93Z" fill="#4fc6b7"/></g><g id="72d5ff43-76c8-4e50-8032-bdb60e889dcb" data-name="&lt;Group&gt;" opacity="0.13"><path d="M650.92,97.93c-11.33,16.58-9,37-9,37L680.8,74.15C675.63,70.7,662.26,81.35,650.92,97.93Z"/></g><g id="698d7497-b5a3-450c-a43f-541ebf670438" data-name="&lt;Group&gt;"><path d="M769.41,57c16.51-21.46,25.31-43.68,19.65-49.64S765.43,14,748.92,35.41,729.27,85,729.27,85,752.9,78.43,769.41,57Z" fill="#4fc6b7"/></g><g id="399803a1-58de-4dba-806f-467cfb3c24f9" data-name="&lt;Group&gt;" opacity="0.13"><path d="M769.41,57C752.9,78.43,729.27,85,729.27,85L789.06,7.33C794.72,13.28,785.92,35.51,769.41,57Z"/></g><g id="01ad620c-1bc9-4fcb-8c61-12e1b92ae356" data-name="&lt;Group&gt;"><path d="M717.8,84c11-23.67,14.6-46.5,8-51S705,44.08,694,67.75s-8,51-8,51S706.79,107.71,717.8,84Z" fill="#4fc6b7"/></g><g id="89fd6d78-5fca-45ea-bbc9-0ab4d335dbf1" data-name="&lt;Group&gt;" opacity="0.13"><path d="M717.8,84c-11,23.67-31.82,34.71-31.82,34.71L725.83,33C732.4,37.54,728.8,60.38,717.8,84Z"/></g><g id="02a6c0bc-f8b9-4eeb-9ffd-986d8ee20b85" data-name="oqeQgB.tif"><path d="M986.83,25.64C972,21.43,957.12,18,942.16,15s-30-5.29-45-6.88a409.87,409.87,0,0,0-45.11-2.41c-7.5.06-15,.31-22.44.9S814.73,8,807.38,9.16C778,13.7,749.45,23.46,724.5,39.7a195.44,195.44,0,0,0-18,13.24c-1.48,1.15-2.83,2.44-4.25,3.66s-2.82,2.47-4.17,3.77L694,64.24l-3.94,4c-10.53,10.81-19.74,23-28.39,35.75q1.13-2.66,2.31-5.3c.78-1.77,1.55-3.54,2.43-5.26L669,88.3c.89-1.72,1.88-3.38,2.82-5.08,1.83-3.43,4-6.65,6.07-10,1-1.65,2.22-3.2,3.33-4.81s2.24-3.2,3.46-4.73l3.61-4.63,3.81-4.48c1.25-1.52,2.61-2.94,4-4.36s2.66-2.9,4.09-4.25l4.25-4.11c1.44-1.34,2.95-2.62,4.42-3.93.75-.65,1.47-1.32,2.23-1.95l2.3-1.86c1.55-1.23,3.05-2.52,4.67-3.66A169.93,169.93,0,0,1,738,17.54a175.1,175.1,0,0,1,21.48-10.2A200,200,0,0,1,782-.13q11.48-3,23.19-4.86c7.8-1.2,15.64-2,23.49-2.47s15.7-.6,23.53-.36A318.23,318.23,0,0,1,898.75-3,351.34,351.34,0,0,1,943.91,8.25c7.37,2.37,14.66,5,21.83,7.84,3.58,1.45,7.14,2.94,10.67,4.5S983.43,23.81,986.83,25.64Z" fill="#4fc6b7"/></g><g id="4266e7db-1b9d-4777-801f-bdd827343faf" data-name="&lt;Group&gt;"><path d="M887.64,578.15c17.47,10.81,34.91,15.75,39,11S919.8,571.85,902.34,561s-39-11-39-11A64.62,64.62,0,0,0,887.64,578.15Z" fill="#4fc6b7"/></g><g id="e8682baf-4088-43f2-af17-0e293f35dba7" data-name="&lt;Group&gt;" opacity="0.13"><path d="M887.64,578.15A64.62,64.62,0,0,1,863.36,550l63.25,39.16C922.55,593.9,905.1,589,887.64,578.15Z"/></g><g id="c45f2c48-9aa4-4e4a-a09c-5e6596bb2cc3" data-name="&lt;Group&gt;"><path d="M884.21,547.91c17.47,10.81,34.91,15.75,39,11s-6.81-17.33-24.28-28.14-39-11-39-11A64.62,64.62,0,0,0,884.21,547.91Z" fill="#4fc6b7"/></g><g id="0801856f-a025-48b4-a3f0-932b9df6cee7" data-name="&lt;Group&gt;" opacity="0.13"><path d="M884.21,547.91a64.62,64.62,0,0,1-24.28-28.14l63.25,39.16C919.12,563.66,901.67,558.72,884.21,547.91Z"/></g><g id="d115d53a-7514-4d0a-a985-b6a2c823fdfe" data-name="&lt;Group&gt;"><path d="M876.14,518.77c17.94,10,35.6,14.14,39.44,9.24S908,511,890,501s-39.44-9.24-39.44-9.24A64.62,64.62,0,0,0,876.14,518.77Z" fill="#4fc6b7"/></g><g id="955905cf-f4d6-4bfa-9609-66b85ce4ed92" data-name="&lt;Group&gt;" opacity="0.13"><path d="M876.14,518.77a64.62,64.62,0,0,1-25.53-27l65,36.24C911.73,532.92,894.08,528.78,876.14,518.77Z"/></g><g id="e840d8df-04d3-4046-bd0f-50e3b936fae3" data-name="&lt;Group&gt;"><path d="M952.56,500.69c-12.19,16.53-26.55,27.61-32.08,24.73s-.12-18.62,12.07-35.15,32.08-24.73,32.08-24.73A64.62,64.62,0,0,1,952.56,500.69Z" fill="#4fc6b7"/></g><g id="6ec8a01f-64b6-4a93-bc5b-d3e5dfd1dfe1" data-name="&lt;Group&gt;"><path d="M942.11,467.59c-9.53,18.2-22,31.33-27.94,29.32s-3-18.38,6.58-36.58S948.68,431,948.68,431A64.62,64.62,0,0,1,942.11,467.59Z" fill="#4fc6b7"/></g><g id="9bfcef11-a544-4d9a-aa0f-b27ebf2e913b" data-name="&lt;Group&gt;" opacity="0.13"><path d="M942.11,467.59A64.62,64.62,0,0,0,948.68,431l-34.52,65.9C920.07,498.92,932.58,485.79,942.11,467.59Z"/></g><g id="1a004500-8843-4f0c-a75c-9100d4356da8" data-name="&lt;Group&gt;"><path d="M919,440.45c-2.37,19.2-9.11,34.25-15.07,33.62s-8.86-16.72-6.5-35.92,15.07-33.62,15.07-33.62S921.41,421.25,919,440.45Z" fill="#4fc6b7"/></g><g id="b7cb66a9-e529-4145-bbd9-607998ec6723" data-name="&lt;Group&gt;" opacity="0.13"><path d="M919,440.45c2.37-19.2-6.5-35.92-6.5-35.92L904,474.07C909.93,474.71,916.68,459.66,919,440.45Z"/></g><g id="ee1041a9-4ece-47eb-ab18-193c3ef9ef82" data-name="&lt;Group&gt;"><path d="M891.14,418.15c3.26,17.57,1.51,32.69-3.91,33.76S874.76,439.59,871.5,422s3.91-33.76,3.91-33.76S887.87,400.58,891.14,418.15Z" fill="#4fc6b7"/></g><g id="c561b22f-7d10-411e-8c41-877e6133820d" data-name="&lt;Group&gt;" opacity="0.13"><path d="M891.14,418.15c-3.26-17.57-15.73-29.89-15.73-29.89l11.81,63.64C892.65,450.84,894.4,435.73,891.14,418.15Z"/></g><g id="eeb30348-ebb3-4d95-a6f5-5ec5777ab6bd" data-name="&lt;Group&gt;"><path d="M857.47,399.47C866.41,415,869.8,429.79,865,432.6s-15.86-7.45-24.79-22.93-7.57-33.13-7.57-33.13S848.54,384,857.47,399.47Z" fill="#4fc6b7"/></g><g id="8c573f8a-d021-47d7-b96d-dc5c69a4acc6" data-name="&lt;Group&gt;" opacity="0.13"><path d="M857.47,399.47c-8.94-15.48-24.79-22.93-24.79-22.93L865,432.6C869.8,429.79,866.41,415,857.47,399.47Z"/></g><g id="ac7d4cf6-214d-46f4-9c3c-77016681acc7" data-name="&lt;Group&gt;"><path d="M815.34,402.14c14.16,5.64,24.26,13.77,22.56,18.17s-14.55,3.39-28.7-2.25a60.47,60.47,0,0,1-22.73-16.41S801.18,396.5,815.34,402.14Z" fill="#4fc6b7"/></g><g id="cf20b3fa-8aea-4fe9-a005-efd017a8f82d" data-name="&lt;Group&gt;" opacity="0.13"><path d="M815.34,402.14c-14.16-5.64-28.87-.49-28.87-.49l51.43,18.66C839.6,415.91,829.5,407.78,815.34,402.14Z"/></g><g id="2f1f501f-1e78-4bc0-ad5c-3b7e4a3dfab7" data-name="&lt;Group&gt;"><path d="M865.32,483.06c18.63,8.66,36.54,11.49,40,6.31s-8.82-16.39-27.45-25.06-40-6.31-40-6.31A64.62,64.62,0,0,0,865.32,483.06Z" fill="#4fc6b7"/></g><g id="174e8fcd-5611-4466-884f-c11b8f52bb9b" data-name="&lt;Group&gt;" opacity="0.13"><path d="M865.32,483.06A64.62,64.62,0,0,1,837.88,458l67.46,31.37C901.86,494.55,884,491.72,865.32,483.06Z"/></g><g id="31e311bd-ae6b-4bb4-866b-0fb31b4ea705" data-name="&lt;Group&gt;"><path d="M836.72,449.34c19.35,4.22,36.85,3.09,39.09-2.52s-11.63-13.58-31-17.8-39.09,2.52-39.09,2.52A61.49,61.49,0,0,0,836.72,449.34Z" fill="#4fc6b7"/></g><g id="f4c8b1d7-c637-458e-b7d8-90c42016d017" data-name="&lt;Group&gt;" opacity="0.13"><path d="M836.72,449.34a61.49,61.49,0,0,1-31-17.8l70.06,15.28C873.56,452.43,856.06,453.56,836.72,449.34Z"/></g><g id="a7eea09b-53be-43b6-882d-65d6a5ba03b8" data-name="oqeQgB.tif"><path d="M924.59,638.81q.95-17.5.45-34.83c-.32-11.55-1.06-23.06-2.37-34.46-2.6-22.78-7.39-45.24-15.65-66.3s-20.2-40.52-36.36-56.29a148.28,148.28,0,0,0-12.79-11.12c-1.1-.91-2.28-1.69-3.41-2.54s-2.29-1.68-3.48-2.46l-3.54-2.39-3.65-2.25c-1.2-.78-2.45-1.49-3.69-2.19s-2.48-1.45-3.75-2.11c-2.56-1.31-5.1-2.67-7.72-3.88-1.31-.61-2.6-1.28-3.93-1.85l-4-1.72c-2.65-1.22-5.39-2.16-8.09-3.32q2.15.39,4.31.83c1.44.28,2.88.56,4.3.93l4.27,1.09c1.42.37,2.82.83,4.23,1.24a135.9,135.9,0,0,1,16.57,6.28A129.67,129.67,0,0,1,862,430l3.75,2.46c1.23.84,2.43,1.75,3.64,2.62s2.4,1.79,3.57,2.73,2.37,1.84,3.48,2.85a128.93,128.93,0,0,1,12.88,12.6,132.87,132.87,0,0,1,11.12,14.21,151.8,151.8,0,0,1,9.27,15.46q4.13,8,7.45,16.36A201.11,201.11,0,0,1,927,533.6a241.43,241.43,0,0,1,4.13,35.26,265.78,265.78,0,0,1-.81,35.29A216.23,216.23,0,0,1,924.59,638.81Z" fill="#4fc6b7"/></g></g><g id="48ae01df-a127-47a4-8bbf-5c2c4033002b" data-name="Layer 1"><g id="134f7239-bc68-4643-921f-a10e2ef5a185" data-name="happy crop"><path d="M-53.26,595.53c-4-14.94-46.52-150.12,56.06-231.35,0,0,27.3-25.5,73.48-26.62,21.86-.53,44.42,8.15,60.49,22.85,12.23,11.19,20.65,25.82,25.81,41.47a150.89,150.89,0,0,1,6.57,32.4c5.05,51.21-12.46,109.9-39.2,153.62A140.82,140.82,0,0,1,117.81,605c-2.06,2.46-7.06,9.37-14.73,12.71-4.86,2.12-175,18.82-175,18.82C-72.68,636.51-53.06,596.25-53.26,595.53Z" fill="#1c1c1c" stroke="#000" stroke-miterlimit="10" stroke-width="1.69"/><path d="M-81,659.84a1.68,1.68,0,0,1-1.16-2C-79.88,647.43-39.83,540.43,2.1,544c0,0,2,.52,2.53-2.94l1.83-7.51s2.69-7.89,8.59-5c0,0,1,.1,2,1.67,0,0,18,21.06,49.59,12.35l-.83-2.6s5.84-2.66,8.67,2.6c0,0,3.06,6.32,1.34,16.8,0,0,17.3,6.12,23.55,21.51,0,0,24,74.28,4,114.46a1.77,1.77,0,0,1-2.07,1Z" fill="#4c4c4c" stroke="#000" stroke-miterlimit="10" stroke-width="1.69"/><path d="M100.14,570.37c-7.23,14.39-24.23,43.57-41.75,54.21,0,0,40.09,7.9,57.66-17.53" fill="#1c1c1c" stroke="#000" stroke-miterlimit="10" stroke-width="1.69"/><path d="M20.77,522.11s-1.78,5.94-3.53,7.7c0,0,15.56,20.2,49.44,12.85,0,0-1.11-5.44-.79-8.54C65.89,534.12,39.36,535.38,20.77,522.11Z" fill="#f8e6d3" stroke="#000" stroke-miterlimit="10" stroke-width="1.69"/><path d="M-16.94,434.55s-21.27,62.25,36.87,89.64c9.5,4.47,21.11,8,35.28,10.21,0,0,74.42,14.54,90.17-63.92,0,0-21.53-6.46-26.65-28.52l-.38,11S97.81,440,94,387.58c0,0-20.5,37.07-54.93,46.21,0,0,4-9.27,4.17-13.9,0,0-19.58,12.46-35.33,14.12L11,425.39S-4.46,434-16.94,434.55Z" fill="#f8e6d3" stroke="#000" stroke-miterlimit="10" stroke-width="1.69"/><line x1="6.4" y1="443.23" x2="27.9" y2="445.86" fill="#fff" stroke="#000" stroke-linecap="round" stroke-miterlimit="10" stroke-width="3.37"/><line x1="96.7" y1="459.52" x2="118.14" y2="462.61" fill="#fff" stroke="#000" stroke-linecap="round" stroke-miterlimit="10" stroke-width="3.37"/><ellipse cx="15.83" cy="461.37" rx="7.31" ry="14.28" transform="translate(-443.24 412.68) rotate(-81.98)" fill="#fff" stroke="#000" stroke-miterlimit="10" stroke-width="1.69"/><circle cx="16.07" cy="461.4" r="6.49" transform="translate(-430.51 344.24) rotate(-73.31)"/><ellipse cx="103.78" cy="478.02" rx="7.31" ry="14.28" transform="matrix(0.14, -0.99, 0.99, 0.14, -384.04, 514.1)" fill="#fff" stroke="#000" stroke-miterlimit="10" stroke-width="1.69"/><circle cx="104.34" cy="478.09" r="6.56" transform="translate(-383.58 440.69) rotate(-73.31)"/><polyline points="58.55 480.92 56.02 489.36 60.3 490.64" fill="none" stroke="#000" stroke-linecap="round" stroke-miterlimit="10" stroke-width="2.53"/><line x1="46.43" y1="512.71" x2="57.81" y2="513.56" fill="none" stroke="#000" stroke-linecap="round" stroke-miterlimit="10" stroke-width="3.37"/><path d="M102,305.09s-16.83,10.3-19.24,35c0,0,.54-11.27-7.35-13.21" fill="none" stroke="#000" stroke-linecap="round" stroke-miterlimit="10" stroke-width="2.53"/><path d="M104.74,299.81s-7.37-14.24,1-18.7c0,0,9.3-1,.85,19.24Z" fill="#fff" stroke="#231f20" stroke-linecap="round" stroke-miterlimit="10" stroke-width="1.69"/><path d="M108.67,300.41s5.34-15.12,14.28-12.11c0,0,7.09,6.11-13.44,13.79Z" fill="#fff" stroke="#231f20" stroke-linecap="round" stroke-miterlimit="10" stroke-width="1.69"/><path d="M108.22,303.84S124,301,125.79,310.3c0,0-1.82,9.18-18.62-4.9Z" fill="#fff" stroke="#231f20" stroke-linecap="round" stroke-miterlimit="10" stroke-width="1.69"/><path d="M106.18,304.77s6,14.89-2.76,18.52c0,0-9.36.08,1-19.23Z" fill="#fff" stroke="#231f20" stroke-linecap="round" stroke-miterlimit="10" stroke-width="1.69"/><path d="M103.39,303.42s-15.27,4.89-18.27-4.06c0,0,.58-9.34,19.11,2.37Z" fill="#fff" stroke="#231f20" stroke-linecap="round" stroke-miterlimit="10" stroke-width="1.69"/><circle cx="106.19" cy="302.85" r="3.35" transform="translate(-214.4 317.56) rotate(-73.31)" fill="#f8daa4" stroke="#231f20" stroke-linecap="round" stroke-miterlimit="10" stroke-width="1.69"/><path d="M95.08,331.05s-4.5-9.61-12.29,9" fill="none" stroke="#000" stroke-linecap="round" stroke-miterlimit="10" stroke-width="2.53"/><path id="e873403a-9203-460c-af08-90ad33896574" data-name="ear" d="M141.06,487.61s8.92-8.52,6.75,4.6c0,0-3.3,9.53-12.19,9l-1-.06S141.42,487.9,141.06,487.61Z" fill="#f8e6d3" stroke="#000" stroke-miterlimit="10" stroke-width="1.69"/><path d="M44.73,507.39a1.68,1.68,0,0,0-1.86,2c.77,3.63,4.46,6.71,9.25,7.35S61.28,515.4,63,512.1a1.68,1.68,0,0,0-1.26-2.44Z"/><ellipse cx="108.8" cy="500.59" rx="4.38" ry="8.55" transform="matrix(0.14, -0.99, 0.99, 0.14, -402.07, 538.49)" fill="#f39c9c"/><ellipse cx="8.2" cy="483.13" rx="4.38" ry="8.55" transform="translate(-471.36 423.85) rotate(-81.98)" fill="#f39c9c"/></g></g><g id="0810402f-d0d7-4e6e-aa75-bc1d90eb2728" data-name="big leaf"><g id="2ed5acf4-62e9-4b63-8a61-132545b75bd6" data-name="&lt;Group&gt;"><path d="M55.37,694.61c-32.29-6.19-58.18-19.29-57.84-29.25s26.79-13,59.08-6.83,57.84,29.25,57.84,29.25S87.65,700.8,55.37,694.61Z" fill="#4fc6b7"/></g><g id="9d71161c-ad37-441f-8283-ab31e1ca5f02" data-name="&lt;Group&gt;" opacity="0.13"><path d="M55.37,694.61c32.29,6.19,59.08-6.83,59.08-6.83L-2.47,665.36C-2.81,675.32,23.08,688.42,55.37,694.61Z"/></g><g id="0b6325a4-8b52-4cfa-a917-e75d04518e24" data-name="&lt;Group&gt;"><path d="M92.18,662.72C59.89,656.52,34,643.43,34.34,633.46s26.79-13,59.08-6.83,57.84,29.25,57.84,29.25S124.46,668.91,92.18,662.72Z" fill="#4fc6b7"/></g><g id="d928d81d-5bfd-47fa-8eea-92614c1cfac2" data-name="&lt;Group&gt;" opacity="0.13"><path d="M92.18,662.72c32.29,6.19,59.08-6.83,59.08-6.83L34.34,633.46C34,643.43,59.89,656.52,92.18,662.72Z"/></g><g id="d22dc5e1-9440-488f-af05-e5780a210bab" data-name="&lt;Group&gt;"><path d="M133.25,637.16c-32-7.66-57.24-21.92-56.44-31.86s27.36-11.79,59.33-4.13S192.58,633,192.58,633,165.22,644.81,133.25,637.16Z" fill="#4fc6b7"/></g><g id="b67bc513-9579-4077-b566-fbf303fc2f71" data-name="&lt;Group&gt;" opacity="0.13"><path d="M133.25,637.16c32,7.66,59.33-4.13,59.33-4.13L76.81,605.3C76,615.24,101.28,629.5,133.25,637.16Z"/></g><g id="49cbcc75-8dee-453d-bb3f-28bfe7d5b792" data-name="&lt;Group&gt;"><path d="M-19.33,598.28C-22,631-16.35,659.5-6.66,661.84s19.73-22.32,22.42-55.08S3.09,543.2,3.09,543.2-16.64,565.52-19.33,598.28Z" fill="#4fc6b7"/></g><g id="4065c784-b970-4738-bdcc-5ac52e295b78" data-name="&lt;Group&gt;" opacity="0.13"><path d="M-19.33,598.28c2.69-32.76,22.42-55.08,22.42-55.08L-6.66,661.84C-16.35,659.5-22,631-19.33,598.28Z"/></g><g id="df81e75c-de61-4c9f-8ed8-09ef9f6f2ebf" data-name="&lt;Group&gt;"><path d="M21.26,571.37c-2.69,32.76,3,61.22,12.68,63.56s19.73-22.32,22.42-55.08-12.68-63.56-12.68-63.56S24,538.61,21.26,571.37Z" fill="#4fc6b7"/></g><g id="1166a33c-176d-4866-8c30-0f0cce814f48" data-name="&lt;Group&gt;" opacity="0.13"><path d="M21.26,571.37c2.69-32.76,22.42-55.08,22.42-55.08L33.94,634.93C24.25,632.59,18.57,604.13,21.26,571.37Z"/></g><g id="10a10206-aef7-4128-b312-b3920be48234" data-name="&lt;Group&gt;"><path d="M62.85,533c-3.56,32.68,1.35,61.28,11,63.88s20.32-21.79,23.88-54.47-11-63.88-11-63.88S66.41,500.37,62.85,533Z" fill="#4fc6b7"/></g><g id="3b7b98c5-6355-411d-8ae0-3c26b205a520" data-name="&lt;Group&gt;" opacity="0.13"><path d="M62.85,533c3.56-32.68,23.88-54.47,23.88-54.47L73.83,596.92C64.2,594.32,59.29,565.73,62.85,533Z"/></g><g id="ad5c7d88-6fcd-434b-b10b-4b49dba559de" data-name="&lt;Group&gt;"><path d="M111,505.4c-8.5,31.76-8,60.77,1.13,64.8S135.55,551.76,144,520s-1.13-64.8-1.13-64.8S119.52,473.64,111,505.4Z" fill="#4fc6b7"/></g><g id="b263490b-7e54-40b3-bc67-2200279cb5ac" data-name="&lt;Group&gt;" opacity="0.13"><path d="M111,505.4c8.5-31.76,31.89-50.2,31.89-50.2l-30.77,115C103,566.17,102.53,537.16,111,505.4Z"/></g><g id="ed27bb78-56d5-4b26-a330-d5bf0d6357ef" data-name="&lt;Group&gt;"><path d="M167.6,498.44c-18,25.18-26.39,50.21-18.69,55.91s28.56-10.08,46.58-35.26,18.69-55.91,18.69-55.91S185.62,473.26,167.6,498.44Z" fill="#4fc6b7"/></g><g id="91a5bda3-e621-47cf-915c-15e93c4bfcc0" data-name="&lt;Group&gt;" opacity="0.13"><path d="M167.6,498.44c18-25.18,46.58-35.26,46.58-35.26l-65.26,91.17C141.21,548.64,149.57,523.61,167.6,498.44Z"/></g><g id="d960a11a-d477-4735-93cc-8f90670fea08" data-name="&lt;Group&gt;"><path d="M224.62,502.42c-22.89,17.16-37.2,36.85-32,44s28-1,50.91-18.15,32-44,32-44S247.51,485.26,224.62,502.42Z" fill="#4fc6b7"/></g><g id="dd42d089-cf2a-454e-81bc-45487614f5c3" data-name="&lt;Group&gt;" opacity="0.13"><path d="M224.62,502.42c22.89-17.16,50.91-18.15,50.91-18.15L192.65,546.4C187.42,539.27,201.73,519.58,224.62,502.42Z"/></g><g id="4937a9e4-7ebd-4d8e-b445-bc3ce1f960b8" data-name="&lt;Group&gt;"><path d="M284.5,516.9c-27.3,8.55-47.36,22.34-44.81,30.81s26.75,8.41,54-.14,44.81-30.81,44.81-30.81S311.8,508.36,284.5,516.9Z" fill="#4fc6b7"/></g><g id="f307cd28-5fdb-4db3-bcf6-d117e48b0240" data-name="&lt;Group&gt;" opacity="0.13"><path d="M284.5,516.9c27.3-8.55,54-.14,54-.14l-98.86,30.95C237.14,539.24,257.2,525.45,284.5,516.9Z"/></g><g id="60d80a65-9147-4e92-94f3-22d94b2e6672" data-name="&lt;Group&gt;"><path d="M331.23,565.69c-22.78-8.7-43.49-10.06-46.25-3.05s13.46,19.75,36.24,28.45a96.76,96.76,0,0,0,44.55,5.31S354,574.39,331.23,565.69Z" fill="#4fc6b7"/></g><g id="f59db53a-c519-48e2-b593-7ab5e4ae1f96" data-name="&lt;Group&gt;" opacity="0.13"><path d="M331.23,565.69c22.78,8.7,34.53,30.71,34.53,30.71L285,562.64C287.74,555.63,308.45,557,331.23,565.69Z"/></g><g id="bd12b072-b2df-4f50-88f6-a77d6d573b64" data-name="&lt;Group&gt;"><path d="M184.69,606.81c-31.32-10-55.48-26.07-54-35.92s28.15-9.75,59.47.24,54,35.92,54,35.92S216,616.8,184.69,606.81Z" fill="#4fc6b7"/></g><g id="e4bd30db-0067-4bab-9021-6b4a271e5d36" data-name="&lt;Group&gt;" opacity="0.13"><path d="M184.69,606.81c31.32,10,59.47.24,59.47.24L130.74,570.9C129.21,580.75,153.37,596.83,184.69,606.81Z"/></g><g id="1862e9d8-f35e-4dbc-a464-92342c7c6d91" data-name="&lt;Group&gt;"><path d="M254.91,598.11c-27.35-16-46.74-36.29-43.3-45.32s28.4-3.39,55.76,12.61,43.3,45.32,43.3,45.32S282.26,614.11,254.91,598.11Z" fill="#4fc6b7"/></g><g id="bcd5246b-6e3e-42e7-ab8b-91bb96861d77" data-name="&lt;Group&gt;" opacity="0.13"><path d="M254.91,598.11c27.35,16,55.76,12.61,55.76,12.61l-99.06-57.93C208.17,561.83,227.55,582.12,254.91,598.11Z"/></g><g id="cc5d0157-9ac9-4864-ae5c-3665cd311e57" data-name="oqeQgB.tif"><path d="M-53.88,726a274.57,274.57,0,0,1,14.41-24.13q7.76-11.74,16.37-22.92a426.56,426.56,0,0,1,37.29-42.43c6.71-6.65,13.63-13.11,20.82-19.28s14.61-12.1,22.25-17.76S72.87,588.56,81,583.55s16.53-9.59,25.14-13.79,17.48-7.9,26.5-11.2l6.81-2.35,6.89-2.13c2.29-.73,4.64-1.29,7-1.94,1.16-.31,2.32-.65,3.49-.93l3.52-.8a212.64,212.64,0,0,1,28.49-4.69,206.34,206.34,0,0,1,28.82-.88l1.8,0,1.8.12,3.59.25,3.59.26c1.19.1,2.38.27,3.58.4,2.38.29,4.76.52,7.13.86l7.08,1.17c1.18.18,2.35.41,3.52.67l3.5.74c2.34.49,4.67,1,7,1.62l6.9,1.83,6.81,2.12c1.13.37,2.27.69,3.38,1.11l3.34,1.22c2.22.84,4.46,1.58,6.65,2.5,4.35,1.87,8.74,3.59,13,5.73a218.31,218.31,0,0,1,24.56,13.73c-17.45-6.74-35.07-12.51-53.05-16L265,561.88l-6.77-1c-1.13-.16-2.25-.37-3.38-.49l-3.39-.39-3.39-.39c-1.13-.14-2.25-.26-3.39-.32a237.34,237.34,0,0,0-27.11-.76,234.72,234.72,0,0,0-53.28,7.91,247.12,247.12,0,0,0-25.69,8.26q-12.65,4.77-24.84,10.72c-8.16,3.89-16.1,8.27-23.92,12.86s-15.49,9.5-23,14.63S51.95,623.48,44.7,629.07,30.4,640.5,23.46,646.51c-13.9,12-27.24,24.74-40.13,38S-42,711.56-53.88,726Z" fill="#4fc6b7"/></g><g id="77a3b420-0afd-4b4f-b9eb-02d345f73277" data-name="&lt;Group&gt;"><path d="M-27.29,22.76C-32.19-3-30.1-26-22.62-28.64s17.51,16,22.41,41.73S-4.87,64.49-4.87,64.49-22.38,48.48-27.29,22.76Z" fill="#4fc6b7"/></g><g id="724e29c6-eb0a-42e9-aab4-483c11e360a8" data-name="&lt;Group&gt;"><path d="M3.7,45.66C0,19.74,3.11-3.15,10.7-5.48S27.47,11.31,31.19,37.22s-7,51.14-7,51.14S7.43,71.58,3.7,45.66Z" fill="#4fc6b7"/></g><g id="20a99ee2-b99f-4571-94cf-0750bd627bad" data-name="&lt;Group&gt;" opacity="0.13"><path d="M3.7,45.66C7.43,71.58,24.19,88.37,24.19,88.37L10.7-5.48C3.11-3.15,0,19.74,3.7,45.66Z"/></g><g id="572901b2-0cb9-484d-a29b-35cf7d0a6587" data-name="&lt;Group&gt;"><path d="M94.71-9.5c-26,3-47.33,11.94-47.64,19.87s20.52,11.9,46.53,8.86S141.24-.63,141.24-.63,120.71-12.54,94.71-9.5Z" fill="#4fc6b7"/></g><g id="d43d258a-7030-43d5-8184-b8121ee19d69" data-name="&lt;Group&gt;" opacity="0.13"><path d="M94.71-9.5c26-3,46.53,8.86,46.53,8.86l-94.17,11C47.37,2.44,68.7-6.46,94.71-9.5Z"/></g><g id="e73c4396-6365-4db4-88ca-ab3c92d59737" data-name="&lt;Group&gt;"><path d="M116.48,30.33c-23.93-5.95-44.92-4.78-46.88,2.59S85.45,51.1,109.38,57s46.88-2.59,46.88-2.59S140.41,36.28,116.48,30.33Z" fill="#4fc6b7"/></g><g id="95f68c3a-f91a-4881-9108-761891716189" data-name="&lt;Group&gt;" opacity="0.13"><path d="M116.48,30.33c23.93,5.95,39.78,24.12,39.78,24.12L69.6,32.93C71.56,25.55,92.55,24.39,116.48,30.33Z"/></g><g id="1c912829-3146-4053-ac36-2ff27ce3f68a" data-name="&lt;Group&gt;"><path d="M130.28,73.71C110.86,61.81,92.07,57,88.33,63s9,20.45,28.39,32.35,42,10.74,42,10.74S149.71,85.62,130.28,73.71Z" fill="#4fc6b7"/></g><g id="06b28461-0bbf-4fd6-a4fc-2b95ddcfb7eb" data-name="&lt;Group&gt;" opacity="0.13"><path d="M130.28,73.71c19.43,11.9,28.39,32.35,28.39,32.35L88.33,63C92.07,57,110.86,61.81,130.28,73.71Z"/></g><g id="262718f8-f7bb-4157-b17e-341482e80d65" data-name="&lt;Group&gt;"><path d="M137.15,122.3c-14.35-17.7-30.45-28.5-36-24.12s1.63,22.27,16,40,36,24.12,36,24.12S151.5,140,137.15,122.3Z" fill="#4fc6b7"/></g><g id="5929d850-6beb-487a-9ae3-cf6625c61ce6" data-name="&lt;Group&gt;" opacity="0.13"><path d="M137.15,122.3c14.35,17.7,16,40,16,40L101.18,98.18C106.7,93.8,122.81,104.6,137.15,122.3Z"/></g><g id="6437c1b6-48fc-4253-9b0f-3462f3843196" data-name="&lt;Group&gt;"><path d="M114.76,171.22c-.25-19.42-5.32-35.15-11.33-35.14S92.76,151.85,93,171.27a77.06,77.06,0,0,0,9.16,34.54S115,190.64,114.76,171.22Z" fill="#4fc6b7"/></g><g id="c5615e96-57ea-4735-9e00-a5ac4c65fec5" data-name="&lt;Group&gt;" opacity="0.13"><path d="M114.76,171.22c.25,19.42-12.59,34.58-12.59,34.58l1.26-69.72C109.44,136.07,114.51,151.8,114.76,171.22Z"/></g><g id="8bf81869-fe47-4f10-b096-f05005aabdc4" data-name="&lt;Group&gt;"><path d="M41.27,74.82C39.46,48.7,44.27,26.1,52,24.33s15.49,18,17.3,44.1-10.74,50.49-10.74,50.49S43.08,100.94,41.27,74.82Z" fill="#4fc6b7"/></g><g id="287d5f68-438c-4c94-905c-1b3962b32365" data-name="&lt;Group&gt;" opacity="0.13"><path d="M41.27,74.82c1.81,26.12,17.3,44.1,17.3,44.1L52,24.33C44.27,26.1,39.46,48.7,41.27,74.82Z"/></g><g id="837cd5e5-8796-4ac0-a0b4-6170d0b79720" data-name="&lt;Group&gt;"><path d="M68.34,124.25C72.15,99.3,81.47,79,89.17,78.88s10.85,20,7,45-20.83,45.36-20.83,45.36A78.37,78.37,0,0,1,68.34,124.25Z" fill="#4fc6b7"/></g><g id="79777ee3-bb14-45b9-a786-15f13a64fe0b" data-name="&lt;Group&gt;" opacity="0.13"><path d="M68.34,124.25a78.37,78.37,0,0,0,7,45L89.17,78.88C81.47,79,72.15,99.3,68.34,124.25Z"/></g><g id="0f2dfbc8-5da7-413c-b7e9-070c438c2e7b" data-name="oqeQgB.tif"><path d="M-117-66.77c3.71.35,7.4.93,11.09,1.51s7.34,1.33,11,2.09c7.32,1.51,14.57,3.33,21.78,5.37A339.76,339.76,0,0,1-30.81-42.66a307.71,307.71,0,0,1,40.08,21c6.43,4,12.66,8.34,18.76,12.88S40,.64,45.62,5.78s11,10.62,16.08,16.33A193.46,193.46,0,0,1,75.86,40.19,169.37,169.37,0,0,1,87.7,59.9,164.32,164.32,0,0,1,96.82,81c.7,1.78,1.21,3.63,1.81,5.44l.86,2.73c.28.91.5,1.84.76,2.76.48,1.85,1,3.68,1.46,5.53l1.22,5.58c.43,1.85.67,3.75,1,5.61s.66,3.74.85,5.63l.67,5.65.43,5.66c.16,1.88.21,3.77.25,5.66s.14,3.77.1,5.65c-.11,3.77-.08,7.52-.45,11.27-.16,1.87-.25,3.74-.45,5.6l-.65,5.57c-.21,1.85-.53,3.7-.85,5.54s-.64,3.67-1,5.5c-.13-14.9-1-29.63-3.73-44l-1-5.37-1.23-5.31c-.38-1.77-.86-3.52-1.34-5.27s-.89-3.51-1.47-5.22a189,189,0,0,0-7.4-20.29C75.28,58.52,57.53,35.39,36.28,16,31,11.1,25.43,6.51,19.73,2.07S8.15-6.6,2.14-10.66a396.27,396.27,0,0,0-37.62-22.2c-13-6.77-26.32-12.9-39.92-18.54S-102.86-62.23-117-66.77Z" fill="#4fc6b7"/></g></g></svg>