<svg xmlns="http://www.w3.org/2000/svg" viewBox="0 0 1920 774"><title>about-me-header-wide2</title><g id="60144410-1fea-4a3e-beb5-d1e748990a77" data-name="bg"><rect y="-57" width="1920.5" height="831.5" fill="#5245db"/></g><g id="59c23537-9cc3-4cd6-8c2c-e94d37c661c8" data-name="behind leaf"><g id="17e7cd0c-51cc-4936-ab0d-f8974138f5f4" data-name="&lt;Group&gt;"><path d="M1785.48,767.67c41.28-11.16,73.6-30.66,72.19-43.55s-36-14.3-77.29-3.14-72.19,43.55-72.19,43.55S1744.2,778.83,1785.48,767.67Z" fill="#4fc6b7"/></g><g id="b8ea640d-7d03-406a-a1f2-d85319e4d329" data-name="&lt;Group&gt;" opacity="0.13"><path d="M1785.48,767.67c-41.28,11.16-77.29-3.14-77.29-3.14l149.48-40.41C1859.08,737,1826.76,756.51,1785.48,767.67Z"/></g><g id="eb77e8da-af36-4043-97a5-c09886bc939b" data-name="&lt;Group&gt;"><path d="M1734.64,729.87c41.28-11.16,73.6-30.66,72.19-43.55s-36-14.3-77.29-3.14-72.19,43.55-72.19,43.55S1693.36,741,1734.64,729.87Z" fill="#4fc6b7"/></g><g id="e4ae4a4f-f4cd-44d0-8a60-8f102ec30baa" data-name="&lt;Group&gt;" opacity="0.13"><path d="M1734.64,729.87c-41.28,11.16-77.29-3.14-77.29-3.14l149.48-40.41C1808.24,699.21,1775.92,718.71,1734.64,729.87Z"/></g><g id="856a399a-2b33-40bd-aad5-c443cea47c34" data-name="&lt;Group&gt;"><path d="M1678.89,700.69c40.73-13,72.12-34,70.13-46.79s-36.63-12.64-77.36.39-70.13,46.79-70.13,46.79S1638.16,713.72,1678.89,700.69Z" fill="#4fc6b7"/></g><g id="bc1dd41e-81ff-4fd0-8ee1-33f04941e773" data-name="&lt;Group&gt;" opacity="0.13"><path d="M1678.89,700.69c-40.73,13-77.36.39-77.36.39L1749,653.9C1751,666.72,1719.62,687.67,1678.89,700.69Z"/></g><g id="4bb1dfeb-7071-4931-8f16-e5615de50f2e" data-name="&lt;Group&gt;"><path d="M1873,635.49c6.67,42.24,2.06,79.7-10.28,83.67s-27.75-27-34.42-69.28,10.28-83.67,10.28-83.67S1866.38,593.25,1873,635.49Z" fill="#4fc6b7"/></g><g id="ec82400c-9c8e-4933-8fa4-4dab49fb39d9" data-name="&lt;Group&gt;" opacity="0.13"><path d="M1873,635.49c-6.67-42.24-34.42-69.28-34.42-69.28l24.14,153C1875.1,715.19,1879.71,677.73,1873,635.49Z"/></g><g id="24f23e78-a469-4c2f-9ae1-f7e40f538ade" data-name="&lt;Group&gt;"><path d="M1817.78,604.51c6.67,42.24,2.06,79.7-10.28,83.67s-27.75-27-34.42-69.28,10.28-83.67,10.28-83.67S1811.11,562.28,1817.78,604.51Z" fill="#4fc6b7"/></g><g id="3e4e0408-1a72-4f89-b00d-39dbbd7d9210" data-name="&lt;Group&gt;" opacity="0.13"><path d="M1817.78,604.51c-6.67-42.24-34.42-69.28-34.42-69.28l24.14,153C1819.84,684.21,1824.44,646.75,1817.78,604.51Z"/></g><g id="ce5f40c7-a12f-481a-910b-8085d7da1e9f" data-name="&lt;Group&gt;"><path d="M1760.13,558.83c7.79,42,4.18,79.62-8.05,83.92s-28.46-26.29-36.25-68.34,8.05-83.92,8.05-83.92S1752.34,516.79,1760.13,558.83Z" fill="#4fc6b7"/></g><g id="401d3d10-4817-4353-b220-7c85c77b5a1d" data-name="&lt;Group&gt;" opacity="0.13"><path d="M1760.13,558.83c-7.79-42-36.25-68.34-36.25-68.34l28.2,152.26C1764.31,638.45,1767.91,600.88,1760.13,558.83Z"/></g><g id="9ec5edc8-b848-4aff-befe-60eae393e23e" data-name="&lt;Group&gt;"><path d="M1695,527.64c14.1,40.37,16.25,78.05,4.82,84.17s-32.14-21.65-46.23-62-4.82-84.17-4.82-84.17S1680.86,487.27,1695,527.64Z" fill="#4fc6b7"/></g><g id="5e5e22a4-be43-44be-9c69-a5c185caccef" data-name="&lt;Group&gt;" opacity="0.13"><path d="M1695,527.64c-14.1-40.37-46.23-62-46.23-62l51,146.19C1711.2,605.69,1709,568,1695,527.64Z"/></g><g id="db3ac385-e771-4ebe-a5eb-95d38e704be0" data-name="&lt;Group&gt;"><path d="M1620.9,524.09c25.82,30.91,39.09,62.57,29.65,70.72s-38-10.31-63.83-41.22-29.65-70.72-29.65-70.72S1595.09,493.18,1620.9,524.09Z" fill="#4fc6b7"/></g><g id="1a23c654-b60a-4174-a626-6942621f0800" data-name="&lt;Group&gt;" opacity="0.13"><path d="M1620.9,524.09c-25.82-30.91-63.83-41.22-63.83-41.22l93.49,111.94C1660,586.66,1646.72,555,1620.9,524.09Z"/></g><g id="6d7a8a6d-c25a-40c2-9f98-9114c2b9e793" data-name="&lt;Group&gt;"><path d="M1547.32,534.77c31.35,20,51.82,44.2,45.73,54s-36.44,1.43-67.79-18.61-45.73-54-45.73-54S1516,514.73,1547.32,534.77Z" fill="#4fc6b7"/></g><g id="c68c3f84-d2f8-493f-9f9d-db19cf625953" data-name="&lt;Group&gt;" opacity="0.13"><path d="M1547.32,534.77c-31.35-20-67.79-18.61-67.79-18.61l113.52,72.57C1599.14,579,1578.67,554.82,1547.32,534.77Z"/></g><g id="e6d8ea48-b284-4c83-ae0f-16e99740d444" data-name="&lt;Group&gt;"><path d="M1471.05,559.36c36.24,8.44,63.59,24.39,61.11,35.62s-33.88,13.5-70.12,5.06-61.11-35.62-61.11-35.62S1434.81,550.92,1471.05,559.36Z" fill="#4fc6b7"/></g><g id="932577e6-5a37-4a62-99d9-5e5a3c63c95d" data-name="&lt;Group&gt;" opacity="0.13"><path d="M1471.05,559.36c-36.24-8.44-70.12,5.06-70.12,5.06L1532.16,595C1534.65,583.75,1507.29,567.8,1471.05,559.36Z"/></g><g id="53904333-f98b-4f48-91d9-c53d6752d4cc" data-name="&lt;Group&gt;"><path d="M1415.17,627.18c28.7-13.49,55.43-17.27,59.7-8.44s-15.54,26.92-44.25,40.42-57.27,11.2-57.27,11.2S1386.46,640.67,1415.17,627.18Z" fill="#4fc6b7"/></g><g id="ad3981fc-879d-43ec-9177-0a3189810fee" data-name="&lt;Group&gt;" opacity="0.13"><path d="M1415.17,627.18c-28.7,13.49-41.82,43.18-41.82,43.18l101.52-51.61C1470.6,609.91,1443.87,613.69,1415.17,627.18Z"/></g><g id="600e5660-503c-499b-b747-c660116cdd89" data-name="&lt;Group&gt;"><path d="M1609.23,666.32c39.66-16,69.43-39.18,66.5-51.82s-37.46-9.92-77.12,6.07-66.5,51.82-66.5,51.82S1569.57,682.31,1609.23,666.32Z" fill="#4fc6b7"/></g><g id="510f4dd0-d1da-4065-bb1a-6c37bb295c8c" data-name="&lt;Group&gt;" opacity="0.13"><path d="M1609.23,666.32c-39.66,16-77.12,6.07-77.12,6.07l143.62-57.89C1678.67,627.14,1648.89,650.34,1609.23,666.32Z"/></g><g id="f47d9ce2-5f57-4267-a7e1-ffc20bf60626" data-name="&lt;Group&gt;"><path d="M1517.31,661.83c33.93-23.4,57.11-51.59,51.77-63s-37.17-1.64-71.1,21.75-51.77,63-51.77,63S1483.38,685.23,1517.31,661.83Z" fill="#4fc6b7"/></g><g id="c1a77f89-a79c-4d5f-9f1c-6a64b9fd8b22" data-name="&lt;Group&gt;" opacity="0.13"><path d="M1517.31,661.83c-33.93,23.4-71.1,21.75-71.1,21.75l122.87-84.73C1574.42,610.24,1551.24,638.44,1517.31,661.83Z"/></g><g id="604509ff-c652-4b3a-a152-6df7b537ca87" data-name="oqeQgB.tif"><path d="M1930.23,797.8c-16.8-17.58-34.29-34.23-52.29-50.21s-36.54-31.19-55.74-45.41c-4.79-3.56-9.62-7.07-14.51-10.47-2.43-1.73-4.89-3.41-7.34-5.1s-4.92-3.35-7.4-5c-9.93-6.54-20-12.9-30.22-18.84s-20.65-11.59-31.26-16.75-21.31-10.11-32.27-14.37-22-8.2-33.26-11.5a321.4,321.4,0,0,0-34.12-8.22,305.3,305.3,0,0,0-69.87-5.09,308.61,308.61,0,0,0-35.09,3.61l-2.19.33-2.17.42-4.35.83-4.36.83c-1.46.27-2.89.65-4.33,1l-8.68,2-8.6,2.35c-1.43.4-2.89.73-4.31,1.18l-4.27,1.34c-2.84.91-5.71,1.74-8.54,2.71-5.63,2-11.33,3.9-16.89,6.18-2.79,1.12-5.62,2.16-8.39,3.34l-8.31,3.59c-1.39.6-2.81,1.15-4.17,1.8l-4.11,1.93q-4.1,2-8.27,3.84a283.87,283.87,0,0,1,30.53-20.19c5.25-3.18,10.78-5.84,16.24-8.69,1.36-.73,2.77-1.33,4.17-2l4.21-1.91,4.21-1.91c1.4-.64,2.85-1.17,4.28-1.76l8.62-3.41,8.77-3c1.47-.49,2.92-1.05,4.41-1.47l4.47-1.3,4.47-1.3,2.24-.65,2.26-.56,9.07-2.2c3-.68,6.11-1.2,9.17-1.81,1.53-.28,3.06-.61,4.6-.86l4.63-.69,4.63-.68,2.32-.33,2.33-.23a268.42,268.42,0,0,1,37.47-1.65,276.55,276.55,0,0,1,37.4,3.32l4.65.7c1.55.24,3.07.58,4.61.86l4.61.89c1.54.29,3.08.59,4.59,1l9.15,2.1,9.07,2.39c12,3.41,23.85,7.42,35.46,12s22.88,9.82,33.94,15.45c2.76,1.42,5.52,2.84,8.23,4.35s5.47,2.93,8.13,4.5l8,4.65,7.91,4.85c10.46,6.6,20.69,13.52,30.58,20.89,2.48,1.83,5,3.66,7.38,5.56s4.9,3.72,7.28,5.68q7.21,5.76,14.22,11.75a554.86,554.86,0,0,1,52.48,51.43q12.21,13.68,23.45,28.14A357.28,357.28,0,0,1,1930.23,797.8Z" fill="#4fc6b7"/></g><g id="35037cc3-a31f-4547-abd6-f6ac23af6a79" data-name="&lt;Group&gt;"><path d="M1898.42,91.84c24.68-25.2,39.5-52.58,33.1-61.16s-31.59,4.9-56.26,30.11-33.1,61.16-33.1,61.16S1873.74,117,1898.42,91.84Z" fill="#4fc6b7"/></g><g id="8dff6769-d94e-4bdd-bd09-e5334260efe1" data-name="&lt;Group&gt;" opacity="0.13"><path d="M1898.42,91.84c-24.68,25.2-56.26,30.11-56.26,30.11l89.37-91.26C1937.92,39.25,1923.1,66.63,1898.42,91.84Z"/></g><g id="83955702-8469-4b4f-a5ca-b5b475baa0a3" data-name="&lt;Group&gt;"><path d="M1846.46,86.23c24.68-25.2,39.5-52.58,33.1-61.16S1848,30,1823.3,55.17s-33.1,61.16-33.1,61.16S1821.78,111.43,1846.46,86.23Z" fill="#4fc6b7"/></g><g id="43e4f55b-ca4e-4d29-9fbd-bff86383580d" data-name="&lt;Group&gt;" opacity="0.13"><path d="M1846.46,86.23c-24.68,25.2-56.26,30.11-56.26,30.11l89.37-91.26C1886,33.64,1871.14,61,1846.46,86.23Z"/></g><g id="d5aac65e-0ca6-4445-abb5-e5dac75bb611" data-name="&lt;Group&gt;"><path d="M1794.62,88.81c23.5-26.3,37.06-54.33,30.28-62.6s-31.33,6.34-54.83,32.64-30.28,62.6-30.28,62.6S1771.11,115.11,1794.62,88.81Z" fill="#4fc6b7"/></g><g id="8b56bf13-5779-44ba-9a38-bbda908187b3" data-name="&lt;Group&gt;" opacity="0.13"><path d="M1794.62,88.81c-23.5,26.3-54.83,32.64-54.83,32.64l85.12-95.24C1831.68,34.48,1818.12,62.51,1794.62,88.81Z"/></g><g id="8d4d9d3f-ff00-48c7-b0fe-16f584b6e071" data-name="&lt;Group&gt;"><path d="M1905.37-38.77c22.41,27.24,34.81,55.8,27.69,63.79s-31-7.61-53.45-34.85-27.69-63.79-27.69-63.79S1883-66,1905.37-38.77Z" fill="#4fc6b7"/></g><g id="f68c71bd-4aa2-4f95-8d3b-92bc3d4b85af" data-name="&lt;Group&gt;" opacity="0.13"><path d="M1905.37-38.77C1883-66,1851.92-73.62,1851.92-73.62L1933.07,25C1940.18,17,1927.78-11.53,1905.37-38.77Z"/></g><g id="f11ab52a-d115-4ebd-8d6b-63f0483e1167" data-name="&lt;Group&gt;"><path d="M1853.12-37.67c22.41,27.24,34.81,55.8,27.69,63.79s-31-7.61-53.45-34.85-27.69-63.79-27.69-63.79S1830.71-64.91,1853.12-37.67Z" fill="#4fc6b7"/></g><g id="43cfa759-090a-46df-ada6-b1b747ad8092" data-name="&lt;Group&gt;" opacity="0.13"><path d="M1853.12-37.67c-22.41-27.24-53.45-34.85-53.45-34.85l81.15,98.64C1887.93,18.13,1875.53-10.43,1853.12-37.67Z"/></g><g id="b7af5d4a-922a-4c0b-95df-38acf5197ea8" data-name="&lt;Group&gt;"><path d="M1793-46c23.12,26.63,36.28,54.85,29.38,63s-31.24-6.79-54.36-33.42-29.38-63-29.38-63S1769.9-72.66,1793-46Z" fill="#4fc6b7"/></g><g id="26e7fbe0-a0eb-44ce-a346-4a2398b9a384" data-name="&lt;Group&gt;" opacity="0.13"><path d="M1793-46c-23.13-26.63-54.36-33.42-54.36-33.42L1822.41,17C1829.3,8.82,1816.15-19.4,1793-46Z"/></g><g id="b5804c5e-9177-4e4d-8b08-b4425e4d4e2b" data-name="&lt;Group&gt;"><path d="M1733.64-40.94c26.91,22.8,44.21,48.69,38.63,57.82s-31.91-2-58.82-24.75-38.63-57.82-38.63-57.82S1706.73-63.74,1733.64-40.94Z" fill="#4fc6b7"/></g><g id="d41933aa-ec56-49f7-b352-4c2e3287f00e" data-name="&lt;Group&gt;" opacity="0.13"><path d="M1733.64-40.94c-26.91-22.8-58.82-24.75-58.82-24.75l97.45,82.58C1777.85,7.75,1760.55-18.14,1733.64-40.94Z"/></g><g id="0b33a161-610f-48da-ab97-87df501931d9" data-name="&lt;Group&gt;"><path d="M1679.51-12.49c31.28,11.18,54,28.13,50.67,37.87s-31.34,8.57-62.63-2.6-50.67-37.87-50.67-37.87S1648.23-23.66,1679.51-12.49Z" fill="#4fc6b7"/></g><g id="9aea27dd-23b7-4dee-87c0-dea95eec88a3" data-name="&lt;Group&gt;" opacity="0.13"><path d="M1679.51-12.49c-31.28-11.18-62.63-2.6-62.63-2.6l113.29,40.47C1733.48,15.64,1710.8-1.31,1679.51-12.49Z"/></g><g id="18d0de91-330f-49f4-b8b7-3ac6038041d2" data-name="&lt;Group&gt;"><path d="M1631.67,25.89c30.67,1.13,55.33,9.74,55.09,19.23s-25.31,16.26-56,15.13S1575.69,41,1575.69,41,1601,24.76,1631.67,25.89Z" fill="#4fc6b7"/></g><g id="1badfdc2-ffbf-41bf-94e1-f4f18839f0e1" data-name="&lt;Group&gt;" opacity="0.13"><path d="M1631.67,25.89c-30.67-1.13-56,15.13-56,15.13l111.07,4.11C1687,35.64,1662.34,27,1631.67,25.89Z"/></g><g id="9acbf31e-a5da-45ef-a3d8-949b3b6a1f17" data-name="&lt;Group&gt;"><path d="M1587.73,75.28c29.29-9.16,55.41-9.27,58.35-.24s-18.44,23.77-47.73,32.93-58.35.24-58.35.24S1558.44,84.44,1587.73,75.28Z" fill="#4fc6b7"/></g><g id="311438a0-7c2b-4e1c-bc3f-62d1f53989e8" data-name="&lt;Group&gt;" opacity="0.13"><path d="M1587.73,75.28c-29.29,9.16-47.73,32.93-47.73,32.93L1646.08,75C1643.15,66,1617,66.12,1587.73,75.28Z"/></g><g id="04c77e88-6a9c-40d4-8e47-8135c822483b" data-name="&lt;Group&gt;"><path d="M1576.37,146.87c14.76-21.6,32.19-35.47,38.91-31s.21,25.64-14.55,47.24a103.82,103.82,0,0,1-36,31.92S1561.61,168.47,1576.37,146.87Z" fill="#4fc6b7"/></g><g id="bee73ad9-3505-4932-a380-b644ed113547" data-name="&lt;Group&gt;" opacity="0.13"><path d="M1576.37,146.87c-14.76,21.6-11.67,48.19-11.67,48.19l50.58-79.16C1608.56,111.41,1591.14,125.27,1576.37,146.87Z"/></g><g id="a69987c3-2873-48b4-9960-1fd97e50e26f" data-name="&lt;Group&gt;"><path d="M1730.72,93.51c21.51-28,33-56.9,25.6-64.66s-30.78,8.62-52.29,36.58-25.6,64.66-25.6,64.66S1709.21,121.47,1730.72,93.51Z" fill="#4fc6b7"/></g><g id="e942c63b-b01e-4ecc-ae14-298e9a0f785e" data-name="&lt;Group&gt;" opacity="0.13"><path d="M1730.72,93.51c-21.51,28-52.29,36.58-52.29,36.58l77.89-101.24C1763.69,36.61,1752.23,65.56,1730.72,93.51Z"/></g><g id="96eca9ff-f84f-440f-bc9f-66bbfe3c6d99" data-name="&lt;Group&gt;"><path d="M1663.49,128.78c14.33-30.83,19-60.57,10.46-66.43s-27.11,14.38-41.45,45.21S1622,174,1622,174,1649.15,159.61,1663.49,128.78Z" fill="#4fc6b7"/></g><g id="fa7f1a17-99d8-41eb-97b0-7dc2de41ae33" data-name="&lt;Group&gt;" opacity="0.13"><path d="M1663.49,128.78C1649.15,159.61,1622,174,1622,174l51.91-111.64C1682.51,68.21,1677.82,98,1663.49,128.78Z"/></g><g id="1b6c1764-21c1-4b05-a96c-3c1a30923d25" data-name="oqeQgB.tif"><path d="M2013.93,52.7c-19.3-5.47-38.7-10-58.18-13.82s-39-6.89-58.62-9c-4.9-.53-9.79-1-14.7-1.38l-7.35-.56c-2.45-.19-4.9-.33-7.35-.46-9.8-.5-19.59-.82-29.37-.75s-19.53.4-29.23,1.17-19.38,1.73-29,3.29-19.08,3.38-28.46,5.74A265.21,265.21,0,0,0,1724,45.41,251.83,251.83,0,0,0,1672.22,71a254.6,254.6,0,0,0-23.44,17.25l-1.42,1.15-1.37,1.2L1643.24,93l-2.75,2.41c-.92.8-1.78,1.67-2.68,2.5l-5.34,5-5.13,5.27c-.85.88-1.75,1.73-2.57,2.65l-2.47,2.73c-1.64,1.83-3.33,3.63-4.94,5.5-3.16,3.78-6.43,7.51-9.42,11.46-1.52,2-3.09,3.89-4.57,5.89l-4.4,6c-.73,1-1.52,2-2.21,3l-2.11,3.09q-2.1,3.11-4.28,6.19a234.24,234.24,0,0,1,13.26-27.13c2.4-4.46,5.22-8.66,7.91-13,1.36-2.14,2.89-4.17,4.33-6.26l2.2-3.12c.73-1,1.54-2,2.3-3l4.7-6,5-5.83c.84-1,1.64-2,2.52-2.89l2.63-2.79,2.64-2.8,1.32-1.4,1.37-1.35,5.53-5.36c1.88-1.75,3.84-3.41,5.76-5.12,1-.84,1.92-1.71,2.91-2.53l3-2.43,3-2.42,1.51-1.2L1663.8,59a221.38,221.38,0,0,1,25.95-16.85,228.14,228.14,0,0,1,28-13.29l3.6-1.45c1.2-.47,2.43-.88,3.64-1.32,2.44-.84,4.85-1.78,7.32-2.54l7.38-2.34,7.44-2.1q15-3.91,30.21-6.33c10.16-1.56,20.38-2.59,30.6-3.21s20.45-.78,30.65-.47,20.37,1,30.48,2.06c2.53.26,5.06.53,7.57.86s5,.6,7.55,1c5,.72,10,1.54,15,2.41A457.65,457.65,0,0,1,1958,30q14.41,4.62,28.44,10.2A294.69,294.69,0,0,1,2013.93,52.7Z" fill="#4fc6b7"/></g><g id="3ec87b58-2767-4567-9ca4-2c8a9bc3e67e" data-name="&lt;Group&gt;"><path d="M1891.61,663c21.54,13.34,43.06,19.42,48.07,13.59s-8.4-21.37-29.94-34.71-48.07-13.59-48.07-13.59S1870.07,649.67,1891.61,663Z" fill="#4fc6b7"/></g><g id="1134d632-a5d7-47a5-b2e7-4ecd26c9702c" data-name="&lt;Group&gt;" opacity="0.13"><path d="M1891.61,663c-21.54-13.34-29.94-34.71-29.94-34.71l78,48.3C1934.67,682.44,1913.15,676.35,1891.61,663Z"/></g><g id="7ca43020-87e8-4fa6-a7fc-1d1a23cd02f0" data-name="&lt;Group&gt;"><path d="M1887.37,625.71c21.54,13.34,43.06,19.42,48.07,13.59s-8.4-21.37-29.94-34.71S1857.44,591,1857.44,591,1865.83,612.38,1887.37,625.71Z" fill="#4fc6b7"/></g><g id="15e131c6-c33a-4307-a2a1-1bd02e52d9a0" data-name="&lt;Group&gt;" opacity="0.13"><path d="M1887.37,625.71c-21.54-13.34-29.94-34.71-29.94-34.71l78,48.3C1930.43,645.14,1908.91,639.05,1887.37,625.71Z"/></g><g id="0881438a-1a2b-4d4b-aac9-c9aa71e5c225" data-name="&lt;Group&gt;"><path d="M1877.42,589.78c22.13,12.34,43.9,17.44,48.64,11.39s-9.36-21-31.49-33.31-48.64-11.39-48.64-11.39S1855.29,577.44,1877.42,589.78Z" fill="#4fc6b7"/></g><g id="365b4d17-b598-4f7d-a9af-c114077b0a8b" data-name="&lt;Group&gt;" opacity="0.13"><path d="M1877.42,589.78c-22.13-12.34-31.49-33.31-31.49-33.31l80.13,44.7C1921.32,607.23,1899.55,602.13,1877.42,589.78Z"/></g><g id="2b4499fb-e05f-41ba-ae53-43d92d3405f3" data-name="&lt;Group&gt;"><path d="M1930.34,493.19c-2.92,23.68-11.24,42.25-18.58,41.46s-10.93-20.62-8-44.3,18.58-41.46,18.58-41.46S1933.26,469.51,1930.34,493.19Z" fill="#4fc6b7"/></g><g id="0912b700-8836-4ac5-bfed-f2befb2500c8" data-name="&lt;Group&gt;" opacity="0.13"><path d="M1930.34,493.19c2.92-23.68-8-44.3-8-44.3l-10.57,85.76C1919.1,535.44,1927.42,516.87,1930.34,493.19Z"/></g><g id="077303b9-39cd-40dd-85a2-a75c8604b16c" data-name="&lt;Group&gt;"><path d="M1895.92,465.69c4,21.67,1.86,40.31-4.83,41.63s-15.37-15.19-19.4-36.86,4.83-41.63,4.83-41.63S1891.9,444,1895.92,465.69Z" fill="#4fc6b7"/></g><g id="9984e331-4471-48ea-a492-9a47169049c4" data-name="&lt;Group&gt;" opacity="0.13"><path d="M1895.92,465.69c-4-21.67-19.4-36.86-19.4-36.86l14.57,78.49C1897.78,506,1899.95,487.36,1895.92,465.69Z"/></g><g id="f4061749-39b6-4d8e-918b-576c7555bd30" data-name="&lt;Group&gt;"><path d="M1854.4,442.65c11,19.09,15.2,37.38,9.33,40.86s-19.56-9.19-30.58-28.28-9.33-40.86-9.33-40.86S1843.38,423.56,1854.4,442.65Z" fill="#4fc6b7"/></g><g id="8db0f58b-21d4-471b-acab-668c479764e0" data-name="&lt;Group&gt;" opacity="0.13"><path d="M1854.4,442.65c-11-19.09-30.58-28.28-30.58-28.28l39.91,69.14C1869.6,480,1865.42,461.74,1854.4,442.65Z"/></g><g id="9defa3c8-2c44-4bc7-bcc1-847965fe0271" data-name="&lt;Group&gt;"><path d="M1802.44,445.94c17.46,7,29.91,17,27.82,22.41s-17.94,4.18-35.4-2.78a74.57,74.57,0,0,1-28-20.24S1785,439,1802.44,445.94Z" fill="#4fc6b7"/></g><g id="09713b04-50be-4239-a6c4-9c7641358e9d" data-name="&lt;Group&gt;" opacity="0.13"><path d="M1802.44,445.94c-17.46-7-35.61-.61-35.61-.61l63.43,23C1832.36,462.92,1819.9,452.89,1802.44,445.94Z"/></g><g id="89ecacdc-1c8f-439b-ad4b-664b8bec9e09" data-name="&lt;Group&gt;"><path d="M1864.09,545.73c23,10.68,45.06,14.17,49.34,7.79s-10.88-20.22-33.85-30.9-49.34-7.79-49.34-7.79S1841.11,535.05,1864.09,545.73Z" fill="#4fc6b7"/></g><g id="83cb944f-4118-4505-8bb4-d1c1db533843" data-name="&lt;Group&gt;" opacity="0.13"><path d="M1864.09,545.73c-23-10.68-33.85-30.9-33.85-30.9l83.19,38.69C1909.15,559.9,1887.06,556.42,1864.09,545.73Z"/></g><g id="39c20657-2e64-4a8d-8508-fd6a00f3edda" data-name="&lt;Group&gt;"><path d="M1828.81,504.15c23.86,5.2,45.44,3.81,48.21-3.1s-14.34-16.74-38.2-21.95-48.21,3.1-48.21,3.1A75.83,75.83,0,0,0,1828.81,504.15Z" fill="#4fc6b7"/></g><g id="00a042a5-09cb-4cca-9a50-e7e69cad1eb0" data-name="&lt;Group&gt;" opacity="0.13"><path d="M1828.81,504.15a75.83,75.83,0,0,1-38.2-21.95L1877,501C1874.25,508,1852.67,509.36,1828.81,504.15Z"/></g><g id="a5ff8229-aaf9-4357-9e43-29a9aedf8b09" data-name="oqeQgB.tif"><path d="M1937.18,737.83c.81-14.38.93-28.69.55-42.95s-1.3-28.44-2.93-42.5a383.6,383.6,0,0,0-7-41.68c-1.59-6.84-3.35-13.62-5.41-20.31s-4.26-13.31-6.85-19.78c-10.16-25.91-24.91-50-44.84-69.42a182.9,182.9,0,0,0-15.77-13.72c-1.35-1.12-2.81-2.08-4.21-3.14s-2.83-2.07-4.3-3l-4.37-3-4.5-2.77c-12-7.4-25-13.32-38.45-18.6q2.66.49,5.31,1c1.77.35,3.55.69,5.3,1.15l5.26,1.34c1.75.46,3.47,1,5.22,1.53,3.51,1,6.89,2.29,10.34,3.5,1.72.62,3.38,1.37,5.07,2.05s3.38,1.39,5,2.19a160.61,160.61,0,0,1,19.35,10.5l4.62,3c1.52,1,3,2.16,4.49,3.23.74.55,1.5,1.08,2.23,1.64l2.17,1.72c1.44,1.16,2.93,2.27,4.29,3.52A159.05,159.05,0,0,1,1893.65,509a163.85,163.85,0,0,1,13.71,17.52,187.2,187.2,0,0,1,11.44,19.06q5.09,9.87,9.18,20.18c2.69,6.88,5,13.88,7.06,20.94s3.76,14.21,5.14,21.41a297.76,297.76,0,0,1,5.09,43.49,328.68,328.68,0,0,1-1,43.53c-.65,7.21-1.52,14.4-2.69,21.54-.59,3.57-1.22,7.12-1.93,10.66S1938.15,734.35,1937.18,737.83Z" fill="#4fc6b7"/></g></g><g id="b58aa895-e9fa-4e47-827b-f751a1c1c5b0" data-name="Layer 1"><g id="2edb3183-695b-4a94-8331-cedb432e1584" data-name="happy crop"><path d="M-38.37,684.45c-5-18.43-57.37-185.15,69.14-285.33,0,0,33.66-31.45,90.62-32.83,27-.65,54.79,10,74.6,28.18,15.08,13.8,25.47,31.84,31.83,51.14a186.09,186.09,0,0,1,8.11,40c6.23,63.16-15.37,135.54-48.34,189.46a173.67,173.67,0,0,1-15,21.1c-2.54,3-8.71,11.55-18.17,15.67C148.43,714.42-61.42,735-61.42,735-62.33,735-38.14,685.33-38.37,684.45Z" fill="#1c1c1c" stroke="#000" stroke-miterlimit="10" stroke-width="2.08"/><path d="M-72.64,763.76a2.07,2.07,0,0,1-1.44-2.43C-71.21,748.45-21.82,616.5,29.9,621c0,0,2.49.64,3.12-3.62l2.26-9.27s3.31-9.73,10.6-6.11c0,0,1.27.12,2.52,2.06,0,0,22.21,26,61.15,15.23l-1-3.2s7.21-3.28,10.69,3.21c0,0,3.77,7.79,1.65,20.72,0,0,21.33,7.55,29,26.53,0,0,29.61,91.6,4.89,141.16a2.19,2.19,0,0,1-2.56,1.25Z" fill="#4c4c4c" stroke="#000" stroke-miterlimit="10" stroke-width="2.08"/><path d="M150.8,653.42c-8.91,17.74-29.88,53.73-51.49,66.86,0,0,49.44,9.74,71.12-21.62" fill="#1c1c1c" stroke="#000" stroke-miterlimit="10" stroke-width="2.08"/><path d="M52.92,593.9s-2.2,7.33-4.35,9.5c0,0,19.19,24.91,61,15.84,0,0-1.37-6.71-1-10.54C108.57,608.71,75.85,610.26,52.92,593.9Z" fill="#f8e6d3" stroke="#000" stroke-miterlimit="10" stroke-width="2.08"/><path id="3cbcf34f-0e1f-458b-9583-b72b8cc0c427" data-name="ear" d="M1.56,517.78s-7-14.22-10.17,2.54c0,0-.26,12.95,10.69,16.23l1.18.35S1,518,1.56,517.78Z" fill="#f8e6d3" stroke="#000" stroke-miterlimit="10" stroke-width="2.08"/><path d="M6.42,485.91s-26.23,76.77,45.47,110.55C63.6,602,77.93,606.34,95.4,609c0,0,91.78,17.93,111.21-78.83,0,0-26.56-8-32.87-35.17l-.46,13.61s-25.34-16-30.08-80.67c0,0-25.29,45.71-67.75,57,0,0,4.88-11.44,5.14-17.15,0,0-24.15,15.37-43.58,17.41l3.91-10.62S21.81,485.25,6.42,485.91Z" fill="#f8e6d3" stroke="#000" stroke-miterlimit="10" stroke-width="2.08"/><line x1="35.2" y1="496.62" x2="61.72" y2="499.86" fill="#fff" stroke="#000" stroke-linecap="round" stroke-miterlimit="10" stroke-width="4.16"/><line x1="146.57" y1="516.71" x2="173.01" y2="520.52" fill="#fff" stroke="#000" stroke-linecap="round" stroke-miterlimit="10" stroke-width="4.16"/><ellipse cx="46.83" cy="518.99" rx="9.02" ry="17.61" transform="translate(-473.62 492.96) rotate(-81.98)" fill="#fff" stroke="#000" stroke-miterlimit="10" stroke-width="2.08"/><circle cx="47.12" cy="519.03" r="8" transform="translate(-463.57 415.06) rotate(-73.31)"/><ellipse cx="155.3" cy="539.52" rx="9.02" ry="17.61" transform="translate(-400.61 618.03) rotate(-81.98)" fill="#fff" stroke="#000" stroke-miterlimit="10" stroke-width="2.08"/><circle cx="155.98" cy="539.61" r="8.09" transform="translate(-405.69 534) rotate(-73.31)"/><polyline points="99.52 543.1 96.4 553.5 101.67 555.08" fill="none" stroke="#000" stroke-linecap="round" stroke-miterlimit="10" stroke-width="3.12"/><line x1="84.57" y1="582.31" x2="98.6" y2="583.35" fill="none" stroke="#000" stroke-linecap="round" stroke-miterlimit="10" stroke-width="4.16"/><path d="M153.14,326.25s-20.76,12.7-23.73,43.14c0,0,.66-13.9-9.06-16.29" fill="none" stroke="#000" stroke-linecap="round" stroke-miterlimit="10" stroke-width="3.12"/><path d="M156.48,319.74s-9.09-17.56,1.17-23.06c0,0,11.47-1.21,1.05,23.72Z" fill="#fff" stroke="#231f20" stroke-linecap="round" stroke-miterlimit="10" stroke-width="2.08"/><path d="M161.33,320.47s6.58-18.65,17.61-14.93c0,0,8.74,7.53-16.58,17Z" fill="#fff" stroke="#231f20" stroke-linecap="round" stroke-miterlimit="10" stroke-width="2.08"/><path d="M160.78,324.71s19.47-3.46,21.67,8c0,0-2.25,11.32-23-6Z" fill="#fff" stroke="#231f20" stroke-linecap="round" stroke-miterlimit="10" stroke-width="2.08"/><path d="M158.26,325.85s7.34,18.36-3.41,22.84c0,0-11.54.09,1.26-23.71Z" fill="#fff" stroke="#231f20" stroke-linecap="round" stroke-miterlimit="10" stroke-width="2.08"/><path d="M154.81,324.18s-18.84,6-22.54-5c0,0,.72-11.52,23.57,2.93Z" fill="#fff" stroke="#231f20" stroke-linecap="round" stroke-miterlimit="10" stroke-width="2.08"/><circle cx="158.27" cy="323.48" r="4.13" transform="translate(-197.04 382.16) rotate(-73.31)" fill="#f8daa4" stroke="#231f20" stroke-linecap="round" stroke-miterlimit="10" stroke-width="2.08"/><path d="M144.56,358.27S139,346.42,129.4,369.39" fill="none" stroke="#000" stroke-linecap="round" stroke-miterlimit="10" stroke-width="3.12"/><path id="7001f44d-4e12-49b9-99ad-19730ea55e1b" data-name="ear" d="M201.27,551.34s11-10.51,8.32,5.68c0,0-4.07,11.76-15,11.07l-1.18-.07S201.72,551.71,201.27,551.34Z" fill="#f8e6d3" stroke="#000" stroke-miterlimit="10" stroke-width="2.08"/><path d="M82.47,575.75a2.07,2.07,0,0,0-2.29,2.49c.95,4.48,5.51,8.28,11.41,9.07s11.3-1.68,13.39-5.76a2.07,2.07,0,0,0-1.55-3Z"/><ellipse cx="161.49" cy="567.35" rx="5.4" ry="10.54" transform="translate(-422.84 648.12) rotate(-81.98)" fill="#f39c9c"/><ellipse cx="37.41" cy="545.83" rx="5.4" ry="10.54" transform="translate(-508.3 506.73) rotate(-81.98)" fill="#f39c9c"/></g></g><g id="0bf51304-e33a-43b6-9023-b4a27c057eb2" data-name="big leaf"><g id="a4a9da0d-ca4b-4378-abab-d0cd59ce1eb4" data-name="&lt;Group&gt;"><path d="M95.59,806.64C55.77,799,23.83,782.85,24.26,770.56s33-16.06,72.86-8.43,71.33,36.08,71.33,36.08S135.41,814.28,95.59,806.64Z" fill="#4fc6b7"/></g><g id="a6843d30-298e-4bc6-8771-4d916127c6b7" data-name="&lt;Group&gt;" opacity="0.13"><path d="M95.59,806.64c39.82,7.64,72.86-8.43,72.86-8.43L24.26,770.56C23.83,782.85,55.77,799,95.59,806.64Z"/></g><g id="bb5178d9-a567-40df-8c94-6fcab22fdb95" data-name="&lt;Group&gt;"><path d="M141,767.31c-39.82-7.64-71.75-23.79-71.33-36.08s33-16.06,72.86-8.43,71.33,36.08,71.33,36.08S180.81,774.94,141,767.31Z" fill="#4fc6b7"/></g><g id="251b666b-5f5c-4c76-a353-56002d1c916c" data-name="&lt;Group&gt;" opacity="0.13"><path d="M141,767.31c39.82,7.64,72.86-8.43,72.86-8.43L69.66,731.23C69.23,743.52,101.17,759.67,141,767.31Z"/></g><g id="7ac9c594-9361-415c-a273-7a1b16c8d7a7" data-name="&lt;Group&gt;"><path d="M191.64,735.78c-39.43-9.44-70.59-27-69.61-39.29s33.74-14.54,73.17-5.1,69.61,39.29,69.61,39.29S231.07,745.23,191.64,735.78Z" fill="#4fc6b7"/></g><g id="b3b8a186-622f-4c03-b7eb-ba12be102bdf" data-name="&lt;Group&gt;" opacity="0.13"><path d="M191.64,735.78c39.43,9.44,73.17-5.1,73.17-5.1L122,696.49C121,708.75,152.22,726.34,191.64,735.78Z"/></g><g id="ad886366-e4d0-4ee6-a84b-83ea8fa7c615" data-name="&lt;Group&gt;"><path d="M3.46,687.84c-3.32,40.41,3.68,75.5,15.63,78.39S43.43,738.7,46.75,698.3s-15.63-78.39-15.63-78.39S6.78,647.43,3.46,687.84Z" fill="#4fc6b7"/></g><g id="4d230636-8efe-4988-bbda-aff61f338d53" data-name="&lt;Group&gt;" opacity="0.13"><path d="M3.46,687.84c3.32-40.41,27.65-67.94,27.65-67.94l-12,146.33C7.14,763.35.14,728.25,3.46,687.84Z"/></g><g id="5ffda4f7-5b72-4e87-97a9-46610d28d4f8" data-name="&lt;Group&gt;"><path d="M53.53,654.65c-3.32,40.41,3.68,75.5,15.63,78.39s24.33-27.53,27.65-67.94-15.63-78.39-15.63-78.39S56.85,614.24,53.53,654.65Z" fill="#4fc6b7"/></g><g id="669e18d0-a17a-4804-a5fe-41971c94033f" data-name="&lt;Group&gt;" opacity="0.13"><path d="M53.53,654.65c3.32-40.41,27.65-67.94,27.65-67.94L69.16,733C57.21,730.15,50.21,695.06,53.53,654.65Z"/></g><g id="cd0d3655-b2c6-47db-b3cf-e8c34c16f676" data-name="&lt;Group&gt;"><path d="M104.81,607.39c-4.39,40.3,1.67,75.58,13.54,78.78s25.06-26.87,29.45-67.18-13.54-78.78-13.54-78.78S109.21,567.08,104.81,607.39Z" fill="#4fc6b7"/></g><g id="0b279517-615e-4498-9f0b-e2254966ead2" data-name="&lt;Group&gt;" opacity="0.13"><path d="M104.81,607.39c4.39-40.3,29.45-67.18,29.45-67.18l-15.91,146C106.48,683,100.42,647.69,104.81,607.39Z"/></g><g id="52f1dadb-0e04-4289-b0e2-9236901017ea" data-name="&lt;Group&gt;"><path d="M164.24,573.29c-10.48,39.17-9.85,74.95,1.39,79.92S194.48,630.47,205,591.3s-1.39-79.92-1.39-79.92S174.71,534.12,164.24,573.29Z" fill="#4fc6b7"/></g><g id="4438514d-cf44-4097-bc93-e157e2994408" data-name="&lt;Group&gt;" opacity="0.13"><path d="M164.24,573.29c10.48-39.17,39.33-61.91,39.33-61.91L165.63,653.21C154.38,648.24,153.76,612.46,164.24,573.29Z"/></g><g id="5bae8f6e-3eb5-47a8-8aee-aa916fd475dd" data-name="&lt;Group&gt;"><path d="M234,564.7c-22.23,31.05-32.54,61.92-23,69s35.22-12.44,57.45-43.49,23-69,23-69S256.23,533.65,234,564.7Z" fill="#4fc6b7"/></g><g id="c8163d35-1dcf-4c13-a3e2-22a1d300bd5e" data-name="&lt;Group&gt;" opacity="0.13"><path d="M234,564.7c22.23-31.05,57.45-43.49,57.45-43.49L211,633.66C201.46,626.62,211.77,595.75,234,564.7Z"/></g><g id="61969562-5fc6-4eb1-8c07-8da91f0d01d8" data-name="&lt;Group&gt;"><path d="M304.33,569.61c-28.22,21.16-45.88,45.45-39.43,54.25s34.56-1.22,62.78-22.39,39.43-54.25,39.43-54.25S332.55,548.45,304.33,569.61Z" fill="#4fc6b7"/></g><g id="7d404312-d6ee-4537-b411-6af95b9bb4e1" data-name="&lt;Group&gt;" opacity="0.13"><path d="M304.33,569.61c28.22-21.16,62.78-22.39,62.78-22.39L264.9,623.86C258.45,615.06,276.1,590.77,304.33,569.61Z"/></g><g id="3f7d6b3e-6488-4ece-b0b8-1eb4acb6f70b" data-name="&lt;Group&gt;"><path d="M378.18,587.47c-33.67,10.54-58.41,27.55-55.26,38s33,10.37,66.65-.17,55.26-38,55.26-38S411.85,576.94,378.18,587.47Z" fill="#4fc6b7"/></g><g id="446795ba-eb51-48e6-8ee5-bddcba3b2acf" data-name="&lt;Group&gt;" opacity="0.13"><path d="M378.18,587.47c33.67-10.54,66.65-.17,66.65-.17L322.92,625.47C319.77,615,344.52,598,378.18,587.47Z"/></g><g id="4576e8f8-1ae5-430f-8859-39f2b5fb984d" data-name="&lt;Group&gt;"><path d="M435.81,647.65c-28.09-10.73-53.63-12.41-57-3.76s16.6,24.36,44.69,35.09,54.94,6.54,54.94,6.54S463.9,658.38,435.81,647.65Z" fill="#4fc6b7"/></g><g id="02943334-941d-4691-9929-b165eb8e4146" data-name="&lt;Group&gt;" opacity="0.13"><path d="M435.81,647.65c28.09,10.73,42.59,37.87,42.59,37.87l-99.63-41.63C382.18,635.24,407.72,636.92,435.81,647.65Z"/></g><g id="6b9676d8-148e-4fc9-9f8f-8766ef53dc3b" data-name="&lt;Group&gt;"><path d="M255.08,698.37c-38.63-12.31-68.42-32.15-66.54-44.3s34.72-12,73.35.29,66.54,44.3,66.54,44.3S293.71,710.68,255.08,698.37Z" fill="#4fc6b7"/></g><g id="7c3812be-1c03-4fae-9c5e-92daad00b3e4" data-name="&lt;Group&gt;" opacity="0.13"><path d="M255.08,698.37c38.63,12.31,73.35.29,73.35.29L188.54,654.07C186.66,666.22,216.45,686.05,255.08,698.37Z"/></g><g id="96580fcf-ba27-4c21-82b9-9dc2e3f8989b" data-name="&lt;Group&gt;"><path d="M341.68,687.63c-33.73-19.73-57.64-44.75-53.4-55.89s35-4.18,68.77,15.55,53.4,55.89,53.4,55.89S375.42,707.36,341.68,687.63Z" fill="#4fc6b7"/></g><g id="f07127be-7304-4282-ba09-ee3f11dbe2a7" data-name="&lt;Group&gt;" opacity="0.13"><path d="M341.68,687.63c33.73,19.73,68.77,15.55,68.77,15.55L288.28,631.74C284,642.88,307.95,667.9,341.68,687.63Z"/></g><g id="29c3a422-894c-46ab-b1ef-45df7e2cc315" data-name="oqeQgB.tif"><path d="M-39.15,845.36A338.64,338.64,0,0,1-21.38,815.6q9.57-14.47,20.18-28.27A526.1,526.1,0,0,1,44.8,735q6.22-6.14,12.61-12.12c2.11-2,4.31-3.93,6.48-5.89s4.37-3.87,6.59-5.78c8.83-7.66,18-14.93,27.44-21.91s19.24-13.46,29.26-19.64,20.39-11.83,31-17,21.55-9.74,32.68-13.81l8.4-2.9,8.5-2.63c2.83-.9,5.72-1.59,8.57-2.4,1.43-.38,2.86-.8,4.3-1.14l4.34-1A262.2,262.2,0,0,1,260.12,623a254.49,254.49,0,0,1,35.55-1.09l2.22.06,2.22.14,4.43.31,4.42.33c1.47.12,2.94.33,4.41.49,2.93.36,5.87.64,8.79,1.06l8.73,1.44,2.18.37,2.16.46,4.32.91,4.32.91c1.44.29,2.85.72,4.28,1.08l8.51,2.25,8.39,2.62c1.39.46,2.8.86,4.17,1.37l4.12,1.51,4.11,1.51c1.37.51,2.75,1,4.08,1.57,5.37,2.31,10.78,4.43,16,7.07a269.2,269.2,0,0,1,30.29,16.94q-4.07-1.49-8.09-3l-4-1.54c-1.34-.52-2.72-.94-4.07-1.41l-8.11-2.81c-2.7-.92-5.46-1.71-8.17-2.57-5.42-1.77-10.94-3.15-16.41-4.65-2.74-.72-5.52-1.3-8.27-2l-4.13-1c-1.37-.33-2.77-.54-4.16-.82l-8.3-1.61-8.35-1.26c-1.39-.19-2.77-.45-4.17-.6l-4.18-.48-4.18-.48-2.09-.24-2.09-.15a292.68,292.68,0,0,0-33.44-.93,289.5,289.5,0,0,0-65.71,9.75,304.78,304.78,0,0,0-31.68,10.18q-15.6,5.88-30.64,13.22c-10.06,4.8-19.86,10.19-29.5,15.86s-19.1,11.71-28.38,18-18.31,13.06-27.25,19.95c-2.23,1.72-4.46,3.46-6.64,5.24s-4.4,3.54-6.58,5.34q-6.57,5.35-13,10.93c-17.15,14.8-33.59,30.51-49.49,46.87S-24.51,827.55-39.15,845.36Z" fill="#4fc6b7"/></g><g id="aaeb75a7-e62c-4592-9c41-16f79ccedefe" data-name="&lt;Group&gt;"><path d="M-6.35,22.05c-6-31.72-3.47-60.1,5.75-63.4S21-21.6,27,10.12s-5.75,63.4-5.75,63.4S-.3,53.77-6.35,22.05Z" fill="#4fc6b7"/></g><g id="618245a9-9166-430f-9e38-55cc22cc4393" data-name="&lt;Group&gt;" opacity="0.13"><path d="M-6.35,22.05C-.3,53.77,21.3,73.52,21.3,73.52L-.59-41.35C-9.81-38-12.39-9.66-6.35,22.05Z"/></g><g id="e62c1c4d-4e2c-4ed5-bb3c-518d5b9ec3ac" data-name="&lt;Group&gt;"><path d="M31.87,50.29c-4.59-32-.73-60.2,8.64-63.07S61.18,7.93,65.77,39.89,57.14,103,57.14,103,36.46,82.25,31.87,50.29Z" fill="#4fc6b7"/></g><g id="7bbaf19f-f5ac-43c8-8992-ee852a2b1d17" data-name="&lt;Group&gt;" opacity="0.13"><path d="M31.87,50.29C36.46,82.25,57.14,103,57.14,103L40.51-12.78C31.14-9.91,27.28,18.33,31.87,50.29Z"/></g><g id="8e604aa3-d990-4deb-aa8b-cc6a191eb704" data-name="&lt;Group&gt;"><path d="M144.11-17.73C112-14,85.73-3,85.35,6.78s25.31,14.68,57.38,10.93S201.49-6.8,201.49-6.8,176.18-21.48,144.11-17.73Z" fill="#4fc6b7"/></g><g id="b44ec151-f45d-494c-a0e9-d3c03f70179d" data-name="&lt;Group&gt;" opacity="0.13"><path d="M144.11-17.73C176.18-21.48,201.49-6.8,201.49-6.8L85.35,6.78C85.73-3,112-14,144.11-17.73Z"/></g><g id="5014a9f1-c0b0-4010-9581-82feac5466c2" data-name="&lt;Group&gt;"><path d="M171,31.39c-29.51-7.33-55.4-5.9-57.82,3.2S132.69,57,162.21,64.34,220,61.14,220,61.14,200.47,38.72,171,31.39Z" fill="#4fc6b7"/></g><g id="a1159307-cad9-4ee7-bcca-f0b52fda4120" data-name="&lt;Group&gt;" opacity="0.13"><path d="M171,31.39C200.47,38.72,220,61.14,220,61.14L113.14,34.59C115.56,25.49,141.44,24.06,171,31.39Z"/></g><g id="1e9956a2-cb33-41cd-8e69-00178a59a69f" data-name="&lt;Group&gt;"><path d="M188,84.89c-24-14.68-47.12-20.61-51.74-13.25s11.06,25.22,35,39.9S223,124.79,223,124.79,211.94,99.57,188,84.89Z" fill="#4fc6b7"/></g><g id="f2773d39-52fd-4d2e-9035-f37fc78eec14" data-name="&lt;Group&gt;" opacity="0.13"><path d="M188,84.89c24,14.68,35,39.9,35,39.9L136.24,71.64C140.86,64.28,164,70.22,188,84.89Z"/></g><g id="31968c5e-ce05-495b-a911-fe4796f18464" data-name="&lt;Group&gt;"><path d="M196.46,144.81c-17.69-21.83-37.55-35.14-44.36-29.75s2,27.47,19.71,49.29,44.36,29.75,44.36,29.75S214.15,166.64,196.46,144.81Z" fill="#4fc6b7"/></g><g id="25e703a9-a49f-423e-a783-803aa26ded49" data-name="&lt;Group&gt;" opacity="0.13"><path d="M196.46,144.81c17.69,21.83,19.71,49.29,19.71,49.29l-64.07-79C158.9,109.67,178.76,123,196.46,144.81Z"/></g><g id="dd78bdd5-ffdf-4f44-bb23-0382c2c23714" data-name="&lt;Group&gt;"><path d="M168.84,205.15c-.31-23.95-6.57-43.35-14-43.33S141.71,181.26,142,205.21a95,95,0,0,0,11.3,42.59S169.15,229.1,168.84,205.15Z" fill="#4fc6b7"/></g><g id="5c443d8f-5571-40aa-bf3e-114ad05ba949" data-name="&lt;Group&gt;" opacity="0.13"><path d="M168.84,205.15c.31,23.95-15.52,42.65-15.52,42.65l1.55-86C162.27,161.8,168.53,181.2,168.84,205.15Z"/></g><g id="cb098159-c41c-4957-9e20-6c6c9dd3ddfd" data-name="&lt;Group&gt;"><path d="M78.2,86.26C76,54,81.9,26.17,91.45,24s19.1,22.17,21.33,54.38-13.25,62.27-13.25,62.27S80.44,118.47,78.2,86.26Z" fill="#4fc6b7"/></g><g id="a097622c-7ea0-40df-b1bc-37b858648042" data-name="&lt;Group&gt;" opacity="0.13"><path d="M78.2,86.26c2.23,32.21,21.33,54.38,21.33,54.38L91.45,24C81.9,26.17,76,54,78.2,86.26Z"/></g><g id="ea4b9918-6d98-4f07-8594-c49880175913" data-name="&lt;Group&gt;"><path d="M111.59,147.21c4.69-30.77,16.19-55.82,25.69-55.95S150.66,116,146,146.74s-25.69,55.95-25.69,55.95S106.9,178,111.59,147.21Z" fill="#4fc6b7"/></g><g id="5f236366-2ae9-45c5-9a53-37d1b991e49c" data-name="&lt;Group&gt;" opacity="0.13"><path d="M111.59,147.21c-4.69,30.77,8.69,55.47,8.69,55.47l17-111.42C127.79,91.4,116.28,116.45,111.59,147.21Z"/></g><g id="84a3a6cf-99b5-46cc-bc44-63c29d786d43" data-name="oqeQgB.tif"><path d="M-117-88.37a269.81,269.81,0,0,1,27.25,4.42q13.53,2.83,26.85,6.64A419,419,0,0,1-10.69-58.64c8.5,3.71,16.91,7.69,25.15,12s16.34,9,24.28,13.88S54.36-22.44,61.88-16.85s14.74,11.62,21.7,18S97.12,14.2,103.4,21.24L108,26.61l4.44,5.52c1.49,1.83,2.86,3.76,4.29,5.64.7,1,1.43,1.88,2.11,2.85l2,2.93a208.77,208.77,0,0,1,14.6,24.31,202.7,202.7,0,0,1,11.25,26l.61,1.66.54,1.68,1.07,3.37,1.06,3.37c.34,1.13.62,2.27.93,3.41.6,2.28,1.25,4.54,1.8,6.82l1.5,6.89c.26,1.14.48,2.3.66,3.46l.59,3.47c.4,2.31.82,4.61,1,6.95l.83,7,.53,7c.07,1.16.19,2.32.21,3.49l.09,3.49c0,2.33.18,4.65.13,7-.13,4.65-.11,9.28-.54,13.9a214.35,214.35,0,0,1-3.64,27.4c-.17-18.38-1.28-36.55-4.59-54.24l-1.24-6.62-1.52-6.55c-.27-1.09-.48-2.18-.78-3.26l-.88-3.24-.87-3.23c-.28-1.08-.58-2.15-.94-3.21a233.06,233.06,0,0,0-9.13-25A230.55,230.55,0,0,0,107.68,53,242.73,242.73,0,0,0,90.84,32.51Q81.91,22.69,72,13.71C65.54,7.68,58.67,2,51.64-3.46s-14.28-10.7-21.7-15.71-15-9.72-22.77-14.31S-8.44-42.39-16.45-46.55c-16-8.35-32.46-15.9-49.23-22.87S-99.55-82.76-117-88.37Z" fill="#4fc6b7"/></g></g></svg>