<svg xmlns="http://www.w3.org/2000/svg" viewBox="0 0 1920 1033"><title>about-me-header</title><g id="31ab57e7-e7ea-472a-ad82-5f60d202a7f1" data-name="bg"><rect y="-22" width="1920.5" height="1055.5" fill="#5245db"/></g><g id="527eaacb-40a0-4417-a032-9e02e2c3eb09" data-name="behind leaf"><g id="2b24ac1b-ea54-4e40-a7d5-6e1d142136bb" data-name="&lt;Group&gt;"><path d="M1785.48,1026.67c41.28-11.16,73.6-30.66,72.19-43.55s-36-14.3-77.29-3.14-72.19,43.55-72.19,43.55S1744.2,1037.83,1785.48,1026.67Z" fill="#4fc6b7"/></g><g id="707a52cf-a6ee-40c3-9fb9-dddb4f20a569" data-name="&lt;Group&gt;" opacity="0.13"><path d="M1785.48,1026.67c-41.28,11.16-77.29-3.14-77.29-3.14l149.48-40.41C1859.08,996,1826.76,1015.51,1785.48,1026.67Z"/></g><g id="89883240-193e-4f16-a10e-dfdaeba554e3" data-name="&lt;Group&gt;"><path d="M1734.64,988.87c41.28-11.16,73.6-30.66,72.19-43.55s-36-14.3-77.29-3.14-72.19,43.55-72.19,43.55S1693.36,1000,1734.64,988.87Z" fill="#4fc6b7"/></g><g id="48f29463-d283-4f86-84cf-2f5c0e1d4210" data-name="&lt;Group&gt;" opacity="0.13"><path d="M1734.64,988.87c-41.28,11.16-77.29-3.14-77.29-3.14l149.48-40.41C1808.24,958.21,1775.92,977.71,1734.64,988.87Z"/></g><g id="f754764d-087a-4e65-81bc-b46b3afb50a8" data-name="&lt;Group&gt;"><path d="M1678.89,959.69c40.73-13,72.12-34,70.13-46.79s-36.63-12.64-77.36.39-70.13,46.79-70.13,46.79S1638.16,972.72,1678.89,959.69Z" fill="#4fc6b7"/></g><g id="95bff5e5-56ca-4c5b-a715-f3efafa4b86a" data-name="&lt;Group&gt;" opacity="0.13"><path d="M1678.89,959.69c-40.73,13-77.36.39-77.36.39L1749,912.9C1751,925.72,1719.62,946.67,1678.89,959.69Z"/></g><g id="e508c404-8798-4529-a877-938de440c258" data-name="&lt;Group&gt;"><path d="M1873,894.49c6.67,42.24,2.06,79.7-10.28,83.67s-27.75-27-34.42-69.28,10.28-83.67,10.28-83.67S1866.38,852.25,1873,894.49Z" fill="#4fc6b7"/></g><g id="3680ed8d-7cc6-48b1-8e85-fbd94fb0f04d" data-name="&lt;Group&gt;" opacity="0.13"><path d="M1873,894.49c-6.67-42.24-34.42-69.28-34.42-69.28l24.14,153C1875.1,974.19,1879.71,936.73,1873,894.49Z"/></g><g id="aec05bc4-f321-4863-b47c-6cc32b22e6ca" data-name="&lt;Group&gt;"><path d="M1817.78,863.51c6.67,42.24,2.06,79.7-10.28,83.67s-27.75-27-34.42-69.28,10.28-83.67,10.28-83.67S1811.11,821.28,1817.78,863.51Z" fill="#4fc6b7"/></g><g id="2a5eb022-af92-4c3d-8377-ace0b3613aee" data-name="&lt;Group&gt;" opacity="0.13"><path d="M1817.78,863.51c-6.67-42.24-34.42-69.28-34.42-69.28l24.14,153C1819.84,943.21,1824.44,905.75,1817.78,863.51Z"/></g><g id="d9ec85a5-8d65-4f82-b116-d9888cee5c55" data-name="&lt;Group&gt;"><path d="M1760.13,817.83c7.79,42,4.18,79.62-8.05,83.92s-28.46-26.29-36.25-68.34,8.05-83.92,8.05-83.92S1752.34,775.79,1760.13,817.83Z" fill="#4fc6b7"/></g><g id="97aaa3cb-ca66-455b-bb10-c24a5f4f269f" data-name="&lt;Group&gt;" opacity="0.13"><path d="M1760.13,817.83c-7.79-42-36.25-68.34-36.25-68.34l28.2,152.26C1764.31,897.45,1767.91,859.88,1760.13,817.83Z"/></g><g id="ae05e7fd-d63b-4963-a60d-1e9e2566b1e2" data-name="&lt;Group&gt;"><path d="M1695,786.64c14.1,40.37,16.25,78.05,4.82,84.17s-32.14-21.65-46.23-62-4.82-84.17-4.82-84.17S1680.86,746.27,1695,786.64Z" fill="#4fc6b7"/></g><g id="a6da66d2-47d9-42d4-b1ea-334f58856437" data-name="&lt;Group&gt;" opacity="0.13"><path d="M1695,786.64c-14.1-40.37-46.23-62-46.23-62l51,146.19C1711.2,864.69,1709,827,1695,786.64Z"/></g><g id="52f57fd5-9cc0-41f6-967d-b12170fb1bfb" data-name="&lt;Group&gt;"><path d="M1620.9,783.09c25.82,30.91,39.09,62.57,29.65,70.72s-38-10.31-63.83-41.22-29.65-70.72-29.65-70.72S1595.09,752.18,1620.9,783.09Z" fill="#4fc6b7"/></g><g id="f875ff69-6da9-4e96-b4d5-20afd8a49081" data-name="&lt;Group&gt;" opacity="0.13"><path d="M1620.9,783.09c-25.82-30.91-63.83-41.22-63.83-41.22l93.49,111.94C1660,845.66,1646.72,814,1620.9,783.09Z"/></g><g id="567c82d2-c5cb-49dd-891f-90009f2b8b69" data-name="&lt;Group&gt;"><path d="M1547.32,793.77c31.35,20,51.82,44.2,45.73,54s-36.44,1.43-67.79-18.61-45.73-54-45.73-54S1516,773.73,1547.32,793.77Z" fill="#4fc6b7"/></g><g id="99405a12-af82-40a3-aaaa-d8f215315357" data-name="&lt;Group&gt;" opacity="0.13"><path d="M1547.32,793.77c-31.35-20-67.79-18.61-67.79-18.61l113.52,72.57C1599.14,838,1578.67,813.82,1547.32,793.77Z"/></g><g id="06282fa1-73c4-421c-b8e8-119eeac9a0b6" data-name="&lt;Group&gt;"><path d="M1471.05,818.36c36.24,8.44,63.59,24.39,61.11,35.62s-33.88,13.5-70.12,5.06-61.11-35.62-61.11-35.62S1434.81,809.92,1471.05,818.36Z" fill="#4fc6b7"/></g><g id="faefaf14-16cf-4166-9a65-84b5257cf873" data-name="&lt;Group&gt;" opacity="0.13"><path d="M1471.05,818.36c-36.24-8.44-70.12,5.06-70.12,5.06L1532.16,854C1534.65,842.75,1507.29,826.8,1471.05,818.36Z"/></g><g id="3ce4ebea-8397-4a3b-96c7-8d962ebeba4a" data-name="&lt;Group&gt;"><path d="M1415.17,886.18c28.7-13.49,55.43-17.27,59.7-8.44s-15.54,26.92-44.25,40.42-57.27,11.2-57.27,11.2S1386.46,899.67,1415.17,886.18Z" fill="#4fc6b7"/></g><g id="acf7908e-615d-4da4-987d-aec982bea580" data-name="&lt;Group&gt;" opacity="0.13"><path d="M1415.17,886.18c-28.7,13.49-41.82,43.18-41.82,43.18l101.52-51.61C1470.6,868.91,1443.87,872.69,1415.17,886.18Z"/></g><g id="908302ca-5b63-4046-a3e5-3540ca28ed6d" data-name="&lt;Group&gt;"><path d="M1609.23,925.32c39.66-16,69.43-39.18,66.5-51.82s-37.46-9.92-77.12,6.07-66.5,51.82-66.5,51.82S1569.57,941.31,1609.23,925.32Z" fill="#4fc6b7"/></g><g id="089b3b68-1390-4e1a-96f5-d8069614bf29" data-name="&lt;Group&gt;" opacity="0.13"><path d="M1609.23,925.32c-39.66,16-77.12,6.07-77.12,6.07l143.62-57.89C1678.67,886.14,1648.89,909.34,1609.23,925.32Z"/></g><g id="65144500-f58b-4698-8742-64f8c74761c5" data-name="&lt;Group&gt;"><path d="M1517.31,920.83c33.93-23.4,57.11-51.59,51.77-63s-37.17-1.64-71.1,21.75-51.77,63-51.77,63S1483.38,944.23,1517.31,920.83Z" fill="#4fc6b7"/></g><g id="028361fa-1147-4e00-acac-39e6bc1186ce" data-name="&lt;Group&gt;" opacity="0.13"><path d="M1517.31,920.83c-33.93,23.4-71.1,21.75-71.1,21.75l122.87-84.73C1574.42,869.24,1551.24,897.44,1517.31,920.83Z"/></g><g id="c1e2287e-e559-4967-b68f-6a624924a478" data-name="oqeQgB.tif"><path d="M1930.23,1056.8c-16.8-17.58-34.29-34.23-52.29-50.21s-36.54-31.19-55.74-45.41c-4.79-3.56-9.62-7.07-14.51-10.47-2.43-1.73-4.89-3.41-7.34-5.1s-4.92-3.36-7.4-5c-9.93-6.54-20-12.9-30.22-18.84s-20.65-11.59-31.26-16.75-21.31-10.11-32.27-14.37-22-8.2-33.26-11.5a321.34,321.34,0,0,0-34.12-8.22,305.28,305.28,0,0,0-69.87-5.09,308.67,308.67,0,0,0-35.09,3.61l-2.19.33-2.17.42-4.35.83-4.36.83c-1.46.27-2.89.65-4.33,1l-8.68,2-8.6,2.35c-1.43.4-2.89.73-4.31,1.19l-4.27,1.34c-2.84.91-5.71,1.74-8.54,2.71-5.63,2-11.33,3.9-16.89,6.18-2.79,1.12-5.62,2.16-8.39,3.34l-8.31,3.59c-1.39.6-2.81,1.15-4.17,1.8l-4.11,1.93q-4.1,2-8.27,3.84a283.87,283.87,0,0,1,30.53-20.19c5.25-3.19,10.78-5.84,16.24-8.69,1.36-.73,2.77-1.33,4.17-2l4.21-1.91,4.21-1.91c1.4-.64,2.85-1.17,4.28-1.76l8.62-3.41,8.77-3c1.47-.49,2.92-1.05,4.41-1.47l4.47-1.3,4.47-1.3,2.24-.65,2.26-.56,9.07-2.2c3-.68,6.11-1.2,9.17-1.81,1.53-.28,3.06-.61,4.6-.86l4.63-.69,4.63-.68,2.32-.33,2.33-.23a268.38,268.38,0,0,1,37.47-1.65,276.51,276.51,0,0,1,37.4,3.32l4.65.7c1.55.24,3.07.58,4.61.86l4.61.89c1.54.29,3.08.59,4.59,1l9.15,2.1,9.07,2.39c12,3.41,23.85,7.42,35.46,12s22.88,9.82,33.94,15.45c2.76,1.42,5.52,2.84,8.23,4.35s5.47,2.93,8.13,4.5l8,4.65,7.91,4.85c10.46,6.6,20.69,13.52,30.58,20.89,2.48,1.83,5,3.66,7.38,5.56s4.9,3.72,7.28,5.68q7.21,5.76,14.22,11.75a555,555,0,0,1,52.48,51.43q12.21,13.68,23.45,28.14A357.21,357.21,0,0,1,1930.23,1056.8Z" fill="#4fc6b7"/></g><g id="365832f8-0e15-44f5-a777-e26b35eacccd" data-name="&lt;Group&gt;"><path d="M1892.55,100.53c25.93-26.48,41.5-55.25,34.78-64.26s-33.19,5.15-59.12,31.63-34.78,64.26-34.78,64.26S1866.62,127,1892.55,100.53Z" fill="#4fc6b7"/></g><g id="3366e665-ff2b-4883-97d1-121cb3e89f24" data-name="&lt;Group&gt;" opacity="0.13"><path d="M1892.55,100.53c-25.93,26.48-59.12,31.63-59.12,31.63l93.9-95.9C1934.06,45.28,1918.49,74.05,1892.55,100.53Z"/></g><g id="35a18197-f85b-4aaa-b4f0-36c67e8d3ac9" data-name="&lt;Group&gt;"><path d="M1838,94.64c25.93-26.48,41.5-55.25,34.78-64.26s-33.19,5.15-59.12,31.63-34.78,64.26-34.78,64.26S1812,121.12,1838,94.64Z" fill="#4fc6b7"/></g><g id="65c4555a-23ff-4bbe-817a-aa2f73c7233e" data-name="&lt;Group&gt;" opacity="0.13"><path d="M1838,94.64c-25.93,26.48-59.12,31.63-59.12,31.63l93.9-95.9C1879.46,39.39,1863.89,68.16,1838,94.64Z"/></g><g id="30f47fea-a3e0-43b3-a904-0d5d9e476537" data-name="&lt;Group&gt;"><path d="M1783.48,97.35c24.7-27.64,38.94-57.09,31.82-65.78s-32.92,6.66-57.62,34.29-31.82,65.78-31.82,65.78S1758.79,125,1783.48,97.35Z" fill="#4fc6b7"/></g><g id="61de38ed-dfcb-4b17-a100-21fff4a1522d" data-name="&lt;Group&gt;" opacity="0.13"><path d="M1783.48,97.35c-24.7,27.64-57.62,34.29-57.62,34.29L1815.3,31.57C1822.43,40.27,1808.18,69.72,1783.48,97.35Z"/></g><g id="dde66a13-c6fe-4670-9567-e0e7b2b4b4aa" data-name="&lt;Group&gt;"><path d="M1899.86-36.7c23.55,28.62,36.57,58.63,29.1,67s-32.62-8-56.17-36.62-29.1-67-29.1-67S1876.31-65.33,1899.86-36.7Z" fill="#4fc6b7"/></g><g id="712417ab-ff29-435b-b210-9b0ba2ee2308" data-name="&lt;Group&gt;" opacity="0.13"><path d="M1899.86-36.7c-23.55-28.62-56.17-36.62-56.17-36.62L1929,30.32C1936.43,21.93,1923.41-8.08,1899.86-36.7Z"/></g><g id="dee130a3-b08a-4299-a529-ce328b6b5bba" data-name="&lt;Group&gt;"><path d="M1845-35.55c23.55,28.62,36.57,58.63,29.1,67s-32.62-8-56.17-36.62-29.1-67-29.1-67S1821.41-64.17,1845-35.55Z" fill="#4fc6b7"/></g><g id="51f00730-85a7-4fff-9467-8546b273f298" data-name="&lt;Group&gt;" opacity="0.13"><path d="M1845-35.55c-23.55-28.62-56.17-36.62-56.17-36.62l85.27,103.65C1881.53,23.08,1868.5-6.93,1845-35.55Z"/></g><g id="797e553b-9229-4a6d-9612-51f7d346d2af" data-name="&lt;Group&gt;"><path d="M1781.81-44.33c24.3,28,38.12,57.64,30.87,66.23s-32.82-7.13-57.12-35.12-30.87-66.23-30.87-66.23S1757.51-72.32,1781.81-44.33Z" fill="#4fc6b7"/></g><g id="142db1a3-a52b-45ca-b15e-6059365a6b62" data-name="&lt;Group&gt;" opacity="0.13"><path d="M1781.81-44.33c-24.3-28-57.12-35.12-57.12-35.12l88,101.35C1819.93,13.31,1806.11-16.35,1781.81-44.33Z"/></g><g id="45a757f5-bb78-497b-b818-8849a1f7681f" data-name="&lt;Group&gt;"><path d="M1719.41-39c28.28,24,46.45,51.16,40.6,60.76s-33.53-2-61.8-26S1657.61-65,1657.61-65,1691.13-62.95,1719.41-39Z" fill="#4fc6b7"/></g><g id="326d05b1-698d-4ab9-8d3b-e969e20191cc" data-name="&lt;Group&gt;" opacity="0.13"><path d="M1719.41-39c-28.28-24-61.8-26-61.8-26L1760,21.77C1765.86,12.18,1747.69-15,1719.41-39Z"/></g><g id="cd290c16-d3c5-406c-9345-ce5d8818a764" data-name="&lt;Group&gt;"><path d="M1662.53-9.09c32.87,11.74,56.71,29.56,53.24,39.79s-32.93,9-65.81-2.73-53.24-39.79-53.24-39.79S1629.66-20.83,1662.53-9.09Z" fill="#4fc6b7"/></g><g id="49fbfcf9-8c8c-477a-8a99-79f220222e14" data-name="&lt;Group&gt;" opacity="0.13"><path d="M1662.53-9.09c-32.87-11.74-65.81-2.73-65.81-2.73l119,42.53C1719.24,20.47,1695.4,2.66,1662.53-9.09Z"/></g><g id="503db92a-0bf3-4949-9438-9c458680ed2c" data-name="&lt;Group&gt;"><path d="M1612.26,31.24c32.23,1.19,58.14,10.24,57.88,20.21s-26.6,17.09-58.82,15.89-57.88-20.21-57.88-20.21S1580,30.05,1612.26,31.24Z" fill="#4fc6b7"/></g><g id="1a9211db-5b6a-4433-9dd3-4d0b7c46eae5" data-name="&lt;Group&gt;" opacity="0.13"><path d="M1612.26,31.24c-32.23-1.19-58.82,15.89-58.82,15.89l116.71,4.31C1670.4,41.48,1644.49,32.43,1612.26,31.24Z"/></g><g id="be5be73a-d3cb-4708-b035-46350e1173f3" data-name="&lt;Group&gt;"><path d="M1566.09,83.14c30.78-9.62,58.23-9.74,61.31-.25s-19.38,25-50.16,34.6-61.31.25-61.31.25S1535.31,92.76,1566.09,83.14Z" fill="#4fc6b7"/></g><g id="008cf2e5-7758-4c06-b0e9-e20309a371a4" data-name="&lt;Group&gt;" opacity="0.13"><path d="M1566.09,83.14c-30.78,9.62-50.16,34.6-50.16,34.6L1627.4,82.89C1624.32,73.4,1596.87,73.51,1566.09,83.14Z"/></g><g id="c74a48a8-c3b6-486b-85e9-fe93d0ad8940" data-name="&lt;Group&gt;"><path d="M1554.16,158.36c15.51-22.7,33.82-37.27,40.89-32.55s.23,26.95-15.29,49.64S1541.9,209,1541.9,209,1538.64,181.06,1554.16,158.36Z" fill="#4fc6b7"/></g><g id="fd2ef41c-1669-4f4a-915a-ec5a56643002" data-name="&lt;Group&gt;" opacity="0.13"><path d="M1554.16,158.36c-15.51,22.7-12.26,50.64-12.26,50.64L1595,125.82C1588,121.1,1569.67,135.67,1554.16,158.36Z"/></g><g id="615de724-4554-487c-aacf-289ba4fad7d4" data-name="&lt;Group&gt;"><path d="M1716.34,102.3c22.6-29.38,34.64-59.79,26.9-67.94s-32.34,9.06-54.94,38.43-26.9,67.94-26.9,67.94S1693.74,131.67,1716.34,102.3Z" fill="#4fc6b7"/></g><g id="dde6383c-fcc5-4bd1-beab-2d8c8726cf19" data-name="&lt;Group&gt;" opacity="0.13"><path d="M1716.34,102.3c-22.6,29.38-54.94,38.43-54.94,38.43l81.84-106.38C1751,42.5,1738.94,72.92,1716.34,102.3Z"/></g><g id="a94c3d66-fb27-4bab-a057-e211cf38bd0d" data-name="&lt;Group&gt;"><path d="M1645.69,139.35c15.06-32.39,20-63.65,11-69.81s-28.49,15.11-43.55,47.51-11,69.81-11,69.81S1630.63,171.75,1645.69,139.35Z" fill="#4fc6b7"/></g><g id="016648e6-2e6f-4b02-8e96-7db1bc515cfb" data-name="&lt;Group&gt;" opacity="0.13"><path d="M1645.69,139.35c-15.06,32.39-43.55,47.51-43.55,47.51l54.54-117.31C1665.68,75.71,1660.76,107,1645.69,139.35Z"/></g><g id="e5e2910b-a37b-468b-960f-ff33396f2e11" data-name="oqeQgB.tif"><path d="M2013.93,59.41c-20.28-5.75-40.67-10.5-61.14-14.52s-41-7.24-61.6-9.42c-5.15-.55-10.29-1-15.44-1.45-2.57-.22-5.15-.4-7.72-.58s-5.15-.34-7.72-.48c-10.3-.52-20.59-.86-30.86-.79s-20.52.42-30.72,1.23-20.37,1.82-30.42,3.45-20.05,3.56-29.9,6a278.55,278.55,0,0,0-29.1,8.86,264.62,264.62,0,0,0-54.44,26.91,267.58,267.58,0,0,0-24.63,18.12L1628.75,98l-1.44,1.27-2.89,2.53-2.89,2.54c-1,.84-1.87,1.75-2.81,2.63l-5.61,5.3-5.39,5.53c-.9.93-1.84,1.82-2.7,2.78l-2.6,2.87c-1.72,1.93-3.5,3.81-5.19,5.78-3.32,4-6.75,7.89-9.9,12-1.59,2.06-3.25,4.09-4.8,6.19l-4.63,6.34c-.77,1.06-1.59,2.09-2.33,3.18l-2.22,3.25q-2.21,3.26-4.49,6.5a246.13,246.13,0,0,1,13.93-28.5c2.52-4.69,5.49-9.1,8.31-13.63,1.43-2.25,3-4.38,4.55-6.58l2.31-3.28c.77-1.1,1.62-2.13,2.42-3.2l4.94-6.34,5.22-6.13c.88-1,1.72-2.07,2.65-3l2.77-2.93,2.77-2.94,1.39-1.47,1.44-1.41,5.81-5.63c2-1.84,4-3.58,6.05-5.38,1-.89,2-1.8,3.06-2.66l3.15-2.55,3.17-2.54,1.59-1.26L1646,66a232.62,232.62,0,0,1,27.27-17.71,239.7,239.7,0,0,1,29.4-14l3.78-1.52c1.26-.5,2.55-.92,3.83-1.38,2.56-.88,5.1-1.87,7.69-2.66l7.75-2.46,7.82-2.2q15.72-4.11,31.75-6.65c10.68-1.64,21.41-2.72,32.15-3.38s21.49-.82,32.21-.49,21.4,1,32,2.16c2.66.28,5.31.56,8,.9s5.3.63,7.94,1c5.28.76,10.54,1.62,15.79,2.53a481,481,0,0,1,61.82,15.35q15.14,4.85,29.89,10.72A309.73,309.73,0,0,1,2013.93,59.41Z" fill="#4fc6b7"/></g><g id="3c51cc72-7f50-45a6-abc2-9509b580db54" data-name="&lt;Group&gt;"><path d="M1891.61,922c21.54,13.34,43.06,19.42,48.07,13.59s-8.4-21.37-29.94-34.71-48.07-13.59-48.07-13.59S1870.07,908.67,1891.61,922Z" fill="#4fc6b7"/></g><g id="66e7d28d-6700-4b51-9230-c6f32ca174c1" data-name="&lt;Group&gt;" opacity="0.13"><path d="M1891.61,922c-21.54-13.34-29.94-34.71-29.94-34.71l78,48.3C1934.67,941.44,1913.15,935.35,1891.61,922Z"/></g><g id="17c29a30-8453-43e7-9a4b-493da410e05d" data-name="&lt;Group&gt;"><path d="M1887.37,884.71c21.54,13.34,43.06,19.42,48.07,13.59s-8.4-21.37-29.94-34.71S1857.44,850,1857.44,850,1865.83,871.38,1887.37,884.71Z" fill="#4fc6b7"/></g><g id="d3e278c8-fc9e-4fde-9190-5374743bc8d3" data-name="&lt;Group&gt;" opacity="0.13"><path d="M1887.37,884.71c-21.54-13.34-29.94-34.71-29.94-34.71l78,48.3C1930.43,904.14,1908.91,898.05,1887.37,884.71Z"/></g><g id="7f9ef2cc-7a5a-42f5-a2e4-0cc7c95f6d13" data-name="&lt;Group&gt;"><path d="M1877.42,848.78c22.13,12.34,43.9,17.44,48.64,11.39s-9.36-21-31.49-33.31-48.64-11.39-48.64-11.39S1855.29,836.44,1877.42,848.78Z" fill="#4fc6b7"/></g><g id="1d5aeaa0-c17e-40c5-8f43-64fd6e6468e5" data-name="&lt;Group&gt;" opacity="0.13"><path d="M1877.42,848.78c-22.13-12.34-31.49-33.31-31.49-33.31l80.13,44.7C1921.32,866.23,1899.55,861.13,1877.42,848.78Z"/></g><g id="5caa2fb4-ae1d-4a2a-9f90-36441f8a2cf4" data-name="&lt;Group&gt;"><path d="M1930.34,752.19c-2.92,23.68-11.24,42.25-18.58,41.46s-10.93-20.62-8-44.3,18.58-41.46,18.58-41.46S1933.26,728.51,1930.34,752.19Z" fill="#4fc6b7"/></g><g id="139858d0-5466-4cfc-a627-eab6ac74f461" data-name="&lt;Group&gt;" opacity="0.13"><path d="M1930.34,752.19c2.92-23.68-8-44.3-8-44.3l-10.57,85.76C1919.1,794.44,1927.42,775.87,1930.34,752.19Z"/></g><g id="b57a3977-fa8f-4845-ab87-a0522b0389e9" data-name="&lt;Group&gt;"><path d="M1895.92,724.69c4,21.67,1.86,40.31-4.83,41.63s-15.37-15.19-19.4-36.86,4.83-41.63,4.83-41.63S1891.9,703,1895.92,724.69Z" fill="#4fc6b7"/></g><g id="3b9b59a7-a276-4f9d-83d9-2e83a1f2a205" data-name="&lt;Group&gt;" opacity="0.13"><path d="M1895.92,724.69c-4-21.67-19.4-36.86-19.4-36.86l14.57,78.49C1897.78,765,1899.95,746.36,1895.92,724.69Z"/></g><g id="bd739088-6da6-4e15-9b1d-d3c585908017" data-name="&lt;Group&gt;"><path d="M1854.4,701.65c11,19.09,15.2,37.38,9.33,40.86s-19.56-9.19-30.58-28.28-9.33-40.86-9.33-40.86S1843.38,682.56,1854.4,701.65Z" fill="#4fc6b7"/></g><g id="ef494c0a-90c3-4e7c-9e1a-fcf15e9af7e5" data-name="&lt;Group&gt;" opacity="0.13"><path d="M1854.4,701.65c-11-19.09-30.58-28.28-30.58-28.28l39.91,69.14C1869.6,739,1865.42,720.74,1854.4,701.65Z"/></g><g id="51295f15-f24e-4d3b-b399-f7d24e018991" data-name="&lt;Group&gt;"><path d="M1802.44,704.94c17.46,7,29.91,17,27.82,22.41s-17.94,4.18-35.4-2.78a74.57,74.57,0,0,1-28-20.24S1785,698,1802.44,704.94Z" fill="#4fc6b7"/></g><g id="49da916a-7107-463d-af62-cc1aecf857ee" data-name="&lt;Group&gt;" opacity="0.13"><path d="M1802.44,704.94c-17.46-7-35.61-.61-35.61-.61l63.43,23C1832.36,721.92,1819.9,711.89,1802.44,704.94Z"/></g><g id="bece5cfb-5127-4e25-b2b6-093a1961a8a3" data-name="&lt;Group&gt;"><path d="M1864.09,804.73c23,10.68,45.06,14.17,49.34,7.79s-10.88-20.22-33.85-30.9-49.34-7.79-49.34-7.79S1841.11,794.05,1864.09,804.73Z" fill="#4fc6b7"/></g><g id="66c1d54e-9a09-44ed-8ca1-fa09bfbc7062" data-name="&lt;Group&gt;" opacity="0.13"><path d="M1864.09,804.73c-23-10.68-33.85-30.9-33.85-30.9l83.19,38.69C1909.15,818.9,1887.06,815.42,1864.09,804.73Z"/></g><g id="75bfe583-3512-4f9d-9c0f-3593ba375eac" data-name="&lt;Group&gt;"><path d="M1828.81,763.15c23.86,5.2,45.44,3.81,48.21-3.1s-14.34-16.74-38.2-21.95-48.21,3.1-48.21,3.1A75.83,75.83,0,0,0,1828.81,763.15Z" fill="#4fc6b7"/></g><g id="c413675c-f4a8-4465-b99f-646e4fd4dcce" data-name="&lt;Group&gt;" opacity="0.13"><path d="M1828.81,763.15a75.83,75.83,0,0,1-38.2-21.95L1877,760C1874.25,767,1852.67,768.36,1828.81,763.15Z"/></g><g id="68d4a0dc-ffb1-4dec-95c4-1851508a35cc" data-name="oqeQgB.tif"><path d="M1937.18,996.83c.81-14.38.93-28.69.55-42.95s-1.3-28.44-2.93-42.5a383.62,383.62,0,0,0-7-41.68c-1.59-6.84-3.35-13.62-5.41-20.31s-4.26-13.31-6.85-19.78c-10.16-25.91-24.91-50-44.84-69.42a182.86,182.86,0,0,0-15.77-13.72c-1.35-1.12-2.81-2.08-4.21-3.14s-2.83-2.07-4.3-3l-4.37-3-4.5-2.77c-12-7.4-25-13.32-38.45-18.6q2.66.49,5.31,1c1.77.35,3.55.69,5.3,1.15l5.26,1.34c1.75.46,3.47,1,5.22,1.53,3.51,1,6.89,2.29,10.34,3.5,1.72.62,3.38,1.37,5.07,2.05s3.38,1.39,5,2.19a160.68,160.68,0,0,1,19.35,10.5l4.62,3c1.52,1,3,2.15,4.49,3.23.74.55,1.5,1.08,2.23,1.64l2.17,1.72c1.44,1.16,2.93,2.27,4.29,3.52A159.1,159.1,0,0,1,1893.65,768a163.9,163.9,0,0,1,13.71,17.52,187.2,187.2,0,0,1,11.44,19.06q5.09,9.87,9.18,20.18c2.69,6.88,5,13.88,7.06,20.94s3.76,14.21,5.14,21.41a297.77,297.77,0,0,1,5.09,43.49,328.67,328.67,0,0,1-1,43.53c-.65,7.21-1.52,14.4-2.69,21.54-.59,3.57-1.22,7.12-1.93,10.66S1938.15,993.35,1937.18,996.83Z" fill="#4fc6b7"/></g></g><g id="1edc81e1-af52-4acf-bfbe-1982e17b91ab" data-name="Layer 1"><g id="f7dbace5-b514-4241-babf-dbe9a41fa61e" data-name="happy crop"><path d="M-38.37,943.45c-5-18.43-57.37-185.15,69.14-285.33,0,0,33.66-31.45,90.62-32.83,27-.65,54.79,10,74.6,28.18,15.08,13.8,25.47,31.84,31.83,51.14a186.09,186.09,0,0,1,8.11,40c6.23,63.16-15.37,135.54-48.34,189.46a173.67,173.67,0,0,1-15,21.1c-2.54,3-8.71,11.55-18.17,15.67C148.43,973.42-61.42,994-61.42,994-62.33,994-38.14,944.33-38.37,943.45Z" fill="#1c1c1c" stroke="#000" stroke-miterlimit="10" stroke-width="2.08"/><path d="M-72.64,1022.76a2.07,2.07,0,0,1-1.44-2.43c2.86-12.88,52.26-144.83,104-140.38,0,0,2.49.64,3.12-3.62l2.26-9.27s3.31-9.73,10.6-6.11c0,0,1.27.12,2.52,2.06,0,0,22.21,26,61.15,15.23l-1-3.2s7.21-3.28,10.69,3.21c0,0,3.77,7.79,1.65,20.72,0,0,21.33,7.55,29,26.53,0,0,29.61,91.6,4.89,141.16a2.19,2.19,0,0,1-2.56,1.25Z" fill="#4c4c4c" stroke="#000" stroke-miterlimit="10" stroke-width="2.08"/><path d="M150.8,912.42c-8.91,17.74-29.88,53.73-51.49,66.86,0,0,49.44,9.74,71.12-21.62" fill="#1c1c1c" stroke="#000" stroke-miterlimit="10" stroke-width="2.08"/><path d="M52.92,852.9s-2.2,7.33-4.35,9.5c0,0,19.19,24.91,61,15.84,0,0-1.37-6.71-1-10.54C108.57,867.71,75.85,869.26,52.92,852.9Z" fill="#f8e6d3" stroke="#000" stroke-miterlimit="10" stroke-width="2.08"/><path id="80e2d1d7-ab1a-48e9-be75-014e7ae8f078" data-name="ear" d="M1.56,776.78s-7-14.22-10.17,2.54c0,0-.26,12.95,10.69,16.23l1.18.35S1,777,1.56,776.78Z" fill="#f8e6d3" stroke="#000" stroke-miterlimit="10" stroke-width="2.08"/><path d="M6.42,744.91s-26.23,76.77,45.47,110.55C63.6,861,77.93,865.34,95.4,868c0,0,91.78,17.93,111.21-78.83,0,0-26.56-8-32.87-35.17l-.46,13.61s-25.34-16-30.08-80.67c0,0-25.29,45.71-67.75,57,0,0,4.88-11.44,5.14-17.15,0,0-24.15,15.37-43.58,17.41l3.91-10.62S21.81,744.25,6.42,744.91Z" fill="#f8e6d3" stroke="#000" stroke-miterlimit="10" stroke-width="2.08"/><line x1="35.2" y1="755.62" x2="61.72" y2="758.86" fill="#fff" stroke="#000" stroke-linecap="round" stroke-miterlimit="10" stroke-width="4.16"/><line x1="146.57" y1="775.71" x2="173.01" y2="779.52" fill="#fff" stroke="#000" stroke-linecap="round" stroke-miterlimit="10" stroke-width="4.16"/><ellipse cx="46.83" cy="777.99" rx="9.02" ry="17.61" transform="translate(-730.09 715.83) rotate(-81.98)" fill="#fff" stroke="#000" stroke-miterlimit="10" stroke-width="2.08"/><circle cx="47.12" cy="778.03" r="8" transform="translate(-711.65 599.66) rotate(-73.31)"/><ellipse cx="155.3" cy="798.52" rx="9.02" ry="17.61" transform="translate(-657.07 840.9) rotate(-81.98)" fill="#fff" stroke="#000" stroke-miterlimit="10" stroke-width="2.08"/><circle cx="155.98" cy="798.61" r="8.09" transform="translate(-653.78 718.6) rotate(-73.31)"/><polyline points="99.52 802.1 96.4 812.5 101.67 814.08" fill="none" stroke="#000" stroke-linecap="round" stroke-miterlimit="10" stroke-width="3.12"/><line x1="84.57" y1="841.31" x2="98.6" y2="842.35" fill="none" stroke="#000" stroke-linecap="round" stroke-miterlimit="10" stroke-width="4.16"/><path d="M153.14,585.25s-20.76,12.7-23.73,43.14c0,0,.66-13.9-9.06-16.29" fill="none" stroke="#000" stroke-linecap="round" stroke-miterlimit="10" stroke-width="3.12"/><path d="M156.48,578.74s-9.09-17.56,1.17-23.06c0,0,11.47-1.21,1.05,23.72Z" fill="#fff" stroke="#231f20" stroke-linecap="round" stroke-miterlimit="10" stroke-width="2.08"/><path d="M161.33,579.47s6.58-18.65,17.61-14.93c0,0,8.74,7.53-16.58,17Z" fill="#fff" stroke="#231f20" stroke-linecap="round" stroke-miterlimit="10" stroke-width="2.08"/><path d="M160.78,583.71s19.47-3.46,21.67,8c0,0-2.25,11.32-23-6Z" fill="#fff" stroke="#231f20" stroke-linecap="round" stroke-miterlimit="10" stroke-width="2.08"/><path d="M158.26,584.85s7.34,18.36-3.41,22.84c0,0-11.54.09,1.26-23.71Z" fill="#fff" stroke="#231f20" stroke-linecap="round" stroke-miterlimit="10" stroke-width="2.08"/><path d="M154.81,583.18s-18.84,6-22.54-5c0,0,.72-11.52,23.57,2.93Z" fill="#fff" stroke="#231f20" stroke-linecap="round" stroke-miterlimit="10" stroke-width="2.08"/><circle cx="158.27" cy="582.48" r="4.13" transform="translate(-445.12 566.75) rotate(-73.31)" fill="#f8daa4" stroke="#231f20" stroke-linecap="round" stroke-miterlimit="10" stroke-width="2.08"/><path d="M144.56,617.27S139,605.42,129.4,628.39" fill="none" stroke="#000" stroke-linecap="round" stroke-miterlimit="10" stroke-width="3.12"/><path id="d515c99d-0e31-4e6e-b097-bb5dd522038a" data-name="ear" d="M201.27,810.34s11-10.51,8.32,5.68c0,0-4.07,11.76-15,11.07l-1.18-.07S201.72,810.71,201.27,810.34Z" fill="#f8e6d3" stroke="#000" stroke-miterlimit="10" stroke-width="2.08"/><path d="M82.47,834.75a2.07,2.07,0,0,0-2.29,2.49c.95,4.48,5.51,8.28,11.41,9.07s11.3-1.68,13.39-5.76a2.07,2.07,0,0,0-1.55-3Z"/><ellipse cx="161.49" cy="826.35" rx="5.4" ry="10.54" transform="translate(-679.31 870.99) rotate(-81.98)" fill="#f39c9c"/><ellipse cx="37.41" cy="804.83" rx="5.4" ry="10.54" transform="translate(-764.77 729.6) rotate(-81.98)" fill="#f39c9c"/></g></g><g id="ca4c97a7-7fff-4274-ac2b-db4e83370d42" data-name="big leaf"><g id="4d9e82f7-c2d9-47c8-9330-6e0b52ef9dbd" data-name="&lt;Group&gt;"><path d="M95.59,1065.64c-39.82-7.64-71.75-23.79-71.33-36.08s33-16.06,72.86-8.43,71.33,36.08,71.33,36.08S135.41,1073.28,95.59,1065.64Z" fill="#4fc6b7"/></g><g id="fa935a7b-f9c8-44fb-9e4c-75da0b8eb41d" data-name="&lt;Group&gt;" opacity="0.13"><path d="M95.59,1065.64c39.82,7.64,72.86-8.43,72.86-8.43L24.26,1029.56C23.83,1041.85,55.77,1058,95.59,1065.64Z"/></g><g id="1f5c69b0-18ce-44fc-ba27-54fa20f0e1aa" data-name="&lt;Group&gt;"><path d="M141,1026.31c-39.82-7.64-71.75-23.79-71.33-36.08s33-16.06,72.86-8.43,71.33,36.08,71.33,36.08S180.81,1033.94,141,1026.31Z" fill="#4fc6b7"/></g><g id="c831310b-b2e8-4cb0-8c0d-994f21ce1202" data-name="&lt;Group&gt;" opacity="0.13"><path d="M141,1026.31c39.82,7.64,72.86-8.43,72.86-8.43L69.66,990.23C69.23,1002.52,101.17,1018.67,141,1026.31Z"/></g><g id="cfd6865b-fbe4-40ec-b563-01b99c00c835" data-name="&lt;Group&gt;"><path d="M191.64,994.78c-39.43-9.44-70.59-27-69.61-39.29s33.74-14.54,73.17-5.1,69.61,39.29,69.61,39.29S231.07,1004.23,191.64,994.78Z" fill="#4fc6b7"/></g><g id="0a68aad5-36bf-45f1-b925-6f13bd975ce7" data-name="&lt;Group&gt;" opacity="0.13"><path d="M191.64,994.78c39.43,9.44,73.17-5.1,73.17-5.1L122,955.49C121,967.75,152.22,985.34,191.64,994.78Z"/></g><g id="fac0e9dd-5c2c-4e82-bf15-271dc5d91291" data-name="&lt;Group&gt;"><path d="M3.46,946.84c-3.32,40.41,3.68,75.5,15.63,78.39S43.43,997.7,46.75,957.3s-15.63-78.39-15.63-78.39S6.78,906.43,3.46,946.84Z" fill="#4fc6b7"/></g><g id="dd68b1ad-7b89-4432-a313-6579acbd945c" data-name="&lt;Group&gt;" opacity="0.13"><path d="M3.46,946.84c3.32-40.41,27.65-67.94,27.65-67.94l-12,146.33C7.14,1022.35.14,987.25,3.46,946.84Z"/></g><g id="4778483e-694d-477b-9784-a997ac9bc5ee" data-name="&lt;Group&gt;"><path d="M53.53,913.65c-3.32,40.41,3.68,75.5,15.63,78.39s24.33-27.53,27.65-67.94-15.63-78.39-15.63-78.39S56.85,873.24,53.53,913.65Z" fill="#4fc6b7"/></g><g id="90758163-5d96-4d64-a9c7-7b6ebbaec270" data-name="&lt;Group&gt;" opacity="0.13"><path d="M53.53,913.65c3.32-40.41,27.65-67.94,27.65-67.94L69.16,992C57.21,989.15,50.21,954.06,53.53,913.65Z"/></g><g id="d3bb1e86-2e50-446a-aa6d-f7505153be9f" data-name="&lt;Group&gt;"><path d="M104.81,866.39c-4.39,40.3,1.67,75.58,13.54,78.78s25.06-26.87,29.45-67.18-13.54-78.78-13.54-78.78S109.21,826.08,104.81,866.39Z" fill="#4fc6b7"/></g><g id="d7895725-6035-4165-90d5-1fe10004e0bf" data-name="&lt;Group&gt;" opacity="0.13"><path d="M104.81,866.39c4.39-40.3,29.45-67.18,29.45-67.18l-15.91,146C106.48,942,100.42,906.69,104.81,866.39Z"/></g><g id="1d4db623-d69e-45fa-891f-b433bc7b71b0" data-name="&lt;Group&gt;"><path d="M164.24,832.29c-10.48,39.17-9.85,74.95,1.39,79.92S194.48,889.47,205,850.3s-1.39-79.92-1.39-79.92S174.71,793.12,164.24,832.29Z" fill="#4fc6b7"/></g><g id="e45c250e-1b21-4646-928e-55486cea0d85" data-name="&lt;Group&gt;" opacity="0.13"><path d="M164.24,832.29c10.48-39.17,39.33-61.91,39.33-61.91L165.63,912.21C154.38,907.24,153.76,871.46,164.24,832.29Z"/></g><g id="e847f5a4-5194-4a06-9def-89afebb145d8" data-name="&lt;Group&gt;"><path d="M234,823.7c-22.23,31.05-32.54,61.92-23,69s35.22-12.44,57.45-43.49,23-69,23-69S256.23,792.65,234,823.7Z" fill="#4fc6b7"/></g><g id="94cac9c9-f689-4128-998c-fce5e0f4bd71" data-name="&lt;Group&gt;" opacity="0.13"><path d="M234,823.7c22.23-31.05,57.45-43.49,57.45-43.49L211,892.66C201.46,885.62,211.77,854.75,234,823.7Z"/></g><g id="c861b563-dd3a-4e76-a334-1d243dec719b" data-name="&lt;Group&gt;"><path d="M304.33,828.61c-28.22,21.16-45.88,45.45-39.43,54.25s34.56-1.22,62.78-22.39,39.43-54.25,39.43-54.25S332.55,807.45,304.33,828.61Z" fill="#4fc6b7"/></g><g id="15838510-dcb6-424b-902a-e581b5cfe1be" data-name="&lt;Group&gt;" opacity="0.13"><path d="M304.33,828.61c28.22-21.16,62.78-22.39,62.78-22.39L264.9,882.86C258.45,874.06,276.1,849.77,304.33,828.61Z"/></g><g id="fc711468-7831-41a9-8404-e1dfd8434a10" data-name="&lt;Group&gt;"><path d="M378.18,846.47c-33.67,10.54-58.41,27.55-55.26,38s33,10.37,66.65-.17,55.26-38,55.26-38S411.85,835.94,378.18,846.47Z" fill="#4fc6b7"/></g><g id="efd5aad8-eea7-4175-a601-f7c94f7c8e8c" data-name="&lt;Group&gt;" opacity="0.13"><path d="M378.18,846.47c33.67-10.54,66.65-.17,66.65-.17L322.92,884.47C319.77,874,344.52,857,378.18,846.47Z"/></g><g id="c13a915d-fd43-4ee9-9583-22409c88cc6f" data-name="&lt;Group&gt;"><path d="M435.81,906.65c-28.09-10.73-53.63-12.41-57-3.76s16.6,24.36,44.69,35.09,54.94,6.54,54.94,6.54S463.9,917.38,435.81,906.65Z" fill="#4fc6b7"/></g><g id="17c94229-74e2-4fb8-89df-fb52fa03ea8d" data-name="&lt;Group&gt;" opacity="0.13"><path d="M435.81,906.65c28.09,10.73,42.59,37.87,42.59,37.87l-99.63-41.63C382.18,894.24,407.72,895.92,435.81,906.65Z"/></g><g id="286c3c4f-dbf2-40f2-8691-5da02c18f82d" data-name="&lt;Group&gt;"><path d="M255.08,957.37c-38.63-12.31-68.42-32.15-66.54-44.3s34.72-12,73.35.29,66.54,44.3,66.54,44.3S293.71,969.68,255.08,957.37Z" fill="#4fc6b7"/></g><g id="ba6f5b6b-ae22-425b-871b-e32eb36c071d" data-name="&lt;Group&gt;" opacity="0.13"><path d="M255.08,957.37c38.63,12.31,73.35.29,73.35.29L188.54,913.07C186.66,925.22,216.45,945.05,255.08,957.37Z"/></g><g id="379fd0f6-9cbe-464e-b389-9e502c132c45" data-name="&lt;Group&gt;"><path d="M341.68,946.63c-33.73-19.73-57.64-44.75-53.4-55.89s35-4.18,68.77,15.55,53.4,55.89,53.4,55.89S375.42,966.36,341.68,946.63Z" fill="#4fc6b7"/></g><g id="cfa2fb73-90b5-442f-a87f-b942f4356fb3" data-name="&lt;Group&gt;" opacity="0.13"><path d="M341.68,946.63c33.73,19.73,68.77,15.55,68.77,15.55L288.28,890.74C284,901.88,307.95,926.9,341.68,946.63Z"/></g><g id="30bf53c9-8361-4f28-9f93-d29fcb55cb47" data-name="oqeQgB.tif"><path d="M-39.15,1104.36a338.68,338.68,0,0,1,17.77-29.75q9.57-14.47,20.18-28.27A526.21,526.21,0,0,1,44.8,994q6.22-6.14,12.61-12.12c2.11-2,4.31-3.93,6.48-5.89s4.37-3.87,6.59-5.77c8.83-7.66,18-14.93,27.44-21.91s19.24-13.46,29.26-19.64,20.39-11.83,31-17,21.55-9.74,32.68-13.81l8.4-2.9,8.5-2.63c2.83-.9,5.72-1.59,8.57-2.4,1.43-.38,2.86-.8,4.3-1.14l4.34-1A262.22,262.22,0,0,1,260.12,882a254.56,254.56,0,0,1,35.55-1.09l2.22.06,2.22.14,4.43.31,4.42.33c1.47.13,2.94.33,4.41.49,2.94.36,5.87.64,8.79,1.06l8.73,1.44,2.18.37,2.16.46,4.32.91,4.31.91c1.44.29,2.85.72,4.28,1.08l8.51,2.25,8.39,2.62c1.39.46,2.8.86,4.17,1.37l4.12,1.51,4.11,1.51c1.37.51,2.75,1,4.08,1.57,5.37,2.31,10.78,4.43,16,7.07a269.15,269.15,0,0,1,30.29,16.94q-4.07-1.49-8.09-3l-4-1.54c-1.34-.52-2.72-.94-4.07-1.41l-8.11-2.81c-2.7-.92-5.46-1.71-8.17-2.57-5.42-1.77-10.94-3.15-16.41-4.65-2.74-.72-5.52-1.3-8.27-2l-4.13-1c-1.37-.33-2.77-.54-4.16-.82l-8.3-1.61-8.35-1.26c-1.39-.19-2.77-.45-4.17-.6l-4.18-.48-4.18-.48-2.08-.24-2.1-.15a292.67,292.67,0,0,0-33.44-.93,289.48,289.48,0,0,0-65.71,9.75,304.69,304.69,0,0,0-31.68,10.18Q182.61,923.6,167.56,931c-10.06,4.8-19.86,10.19-29.5,15.86s-19.1,11.71-28.38,18-18.31,13.06-27.25,19.95c-2.23,1.73-4.46,3.46-6.64,5.24s-4.4,3.54-6.58,5.34q-6.57,5.35-13,10.93c-17.15,14.8-33.59,30.51-49.49,46.87S-24.51,1086.55-39.15,1104.36Z" fill="#4fc6b7"/></g><g id="fed44095-5e26-4585-94b7-f1468f26b77b" data-name="&lt;Group&gt;"><path d="M-7.32,45.91c-6-31.44-3.44-59.57,5.7-62.84s21.41,19.57,27.4,51-5.7,62.84-5.7,62.84S-1.33,77.35-7.32,45.91Z" fill="#4fc6b7"/></g><g id="cbeece6a-645d-4fa3-a76b-31144c621aaf" data-name="&lt;Group&gt;" opacity="0.13"><path d="M-7.32,45.91c6,31.44,27.4,51,27.4,51L-1.62-16.93C-10.76-13.66-13.31,14.48-7.32,45.91Z"/></g><g id="e9490004-9bea-4a68-910f-7e331d1e8628" data-name="&lt;Group&gt;"><path d="M30.56,73.9C26,42.23,29.84,14.24,39.12,11.39s20.49,20.52,25,52.2-8.56,62.52-8.56,62.52S35.11,105.58,30.56,73.9Z" fill="#4fc6b7"/></g><g id="7ebd9bef-4f22-48ec-b582-cf17ebdf9f96" data-name="&lt;Group&gt;" opacity="0.13"><path d="M30.56,73.9c4.55,31.68,25,52.2,25,52.2L39.12,11.39C29.84,14.24,26,42.23,30.56,73.9Z"/></g><g id="d2c8965a-eed1-464d-b13f-346b72a174b5" data-name="&lt;Group&gt;"><path d="M99.48-27.19C68.63-18.68,44.52-4,45.62,5.68s27,10.56,57.86,2,53.86-32.87,53.86-32.87S130.34-35.7,99.48-27.19Z" fill="#4fc6b7"/></g><g id="aaf7a452-188a-4ce1-90bc-d4823fba04ad" data-name="&lt;Group&gt;" opacity="0.13"><path d="M99.48-27.19c30.85-8.51,57.86,2,57.86,2L45.62,5.68C44.52-4,68.63-18.68,99.48-27.19Z"/></g><g id="23751085-f9d8-421a-9b75-dd1a6a3be68f" data-name="&lt;Group&gt;"><path d="M141.8,6.48C110,10.2,83.94,21.07,83.57,30.77s25.09,14.55,56.88,10.83,58.24-24.29,58.24-24.29S173.59,2.76,141.8,6.48Z" fill="#4fc6b7"/></g><g id="5a47e4fe-9e20-4532-b7b8-28e583014f0e" data-name="&lt;Group&gt;" opacity="0.13"><path d="M141.8,6.48c31.79-3.72,56.88,10.83,56.88,10.83L83.57,30.77C83.94,21.07,110,10.2,141.8,6.48Z"/></g><g id="403b3e02-756b-4514-a213-f6f784b6c7af" data-name="&lt;Group&gt;"><path d="M168.42,55.17c-29.25-7.27-54.91-5.85-57.31,3.17s19.38,22.22,48.63,29.49,57.31-3.17,57.31-3.17S197.67,62.44,168.42,55.17Z" fill="#4fc6b7"/></g><g id="2cf0db33-4710-4de4-a624-8fe0e342c98d" data-name="&lt;Group&gt;" opacity="0.13"><path d="M168.42,55.17c29.25,7.27,48.63,29.49,48.63,29.49L111.11,58.34C113.51,49.32,139.16,47.9,168.42,55.17Z"/></g><g id="13a2a1a0-2f19-47fd-9b02-21dc4e56a137" data-name="&lt;Group&gt;"><path d="M185.29,108.2C161.55,93.65,138.59,87.77,134,95.07s11,25,34.71,39.55S220,147.75,220,147.75,209,122.75,185.29,108.2Z" fill="#4fc6b7"/></g><g id="d93c3a80-5c7f-482e-87b2-c072a3f7772f" data-name="&lt;Group&gt;" opacity="0.13"><path d="M185.29,108.2C209,122.75,220,147.75,220,147.75L134,95.07C138.59,87.77,161.55,93.65,185.29,108.2Z"/></g><g id="a7d2cd7e-e36c-4319-9f3b-847fb87768b4" data-name="&lt;Group&gt;"><path d="M193.69,167.59c-17.54-21.63-37.22-34.83-44-29.48s2,27.22,19.53,48.86,44,29.48,44,29.48S211.23,189.22,193.69,167.59Z" fill="#4fc6b7"/></g><g id="300bb367-56fe-43fa-9a3a-b1f8dd4ad27d" data-name="&lt;Group&gt;" opacity="0.13"><path d="M193.69,167.59c17.54,21.63,19.53,48.86,19.53,48.86l-63.5-78.34C156.47,132.75,176.15,146,193.69,167.59Z"/></g><g id="02ae0996-1070-4ab1-b481-0afbb3e1e75e" data-name="&lt;Group&gt;"><path d="M166.32,227.39c-.31-23.74-6.51-43-13.85-43s-13,19.27-12.73,43a94.2,94.2,0,0,0,11.2,42.22S166.63,251.13,166.32,227.39Z" fill="#4fc6b7"/></g><g id="9e1073b4-0cbb-4ee8-b25a-1fceb5c39a7f" data-name="&lt;Group&gt;" opacity="0.13"><path d="M166.32,227.39c.31,23.74-15.39,42.27-15.39,42.27l1.54-85.23C159.81,184.43,166,203.66,166.32,227.39Z"/></g><g id="53643295-8e59-453d-a9d5-584eb141e21d" data-name="&lt;Group&gt;"><path d="M76.48,109.55C74.27,77.62,80.15,50,89.61,47.83s18.93,22,21.14,53.9-13.13,61.72-13.13,61.72S78.69,141.48,76.48,109.55Z" fill="#4fc6b7"/></g><g id="2620b33e-be22-4f26-a69d-bf7acfd26df9" data-name="&lt;Group&gt;" opacity="0.13"><path d="M76.48,109.55c2.21,31.93,21.14,53.9,21.14,53.9l-8-115.62C80.15,50,74.27,77.62,76.48,109.55Z"/></g><g id="53554550-f85a-498f-bfd8-869fc5b89fec" data-name="&lt;Group&gt;"><path d="M109.57,170c4.65-30.5,16.05-55.32,25.46-55.45s13.27,24.49,8.61,55S118.19,225,118.19,225,104.92,200.47,109.57,170Z" fill="#4fc6b7"/></g><g id="4ef1ca9d-5d9f-4ce1-a503-17cd6113952f" data-name="&lt;Group&gt;" opacity="0.13"><path d="M109.57,170c-4.65,30.5,8.61,55,8.61,55L135,114.51C125.63,114.65,114.23,139.47,109.57,170Z"/></g><g id="0df8845e-223c-4d1d-aa01-d8604ed74e4d" data-name="oqeQgB.tif"><path d="M-117-63.53a267.37,267.37,0,0,1,27,4.38q13.41,2.81,26.62,6.58A415.26,415.26,0,0,1-11.62-34.07C-3.2-30.39,5.13-26.44,13.3-22.15S29.5-13.27,37.37-8.39,52.84,1.81,60.3,7.36,74.91,18.87,81.8,25.15s13.43,13,19.65,20L106,50.43l4.4,5.47c1.48,1.81,2.83,3.73,4.26,5.59.7.94,1.42,1.86,2.09,2.82l2,2.9a207,207,0,0,1,14.47,24.1,200.85,200.85,0,0,1,11.15,25.77l.61,1.64.54,1.67,1.06,3.34,1,3.34c.34,1.12.62,2.25.93,3.38.59,2.26,1.24,4.5,1.78,6.76l1.49,6.83c.26,1.13.47,2.28.66,3.43l.59,3.44c.4,2.29.81,4.57,1,6.88l.82,6.9.52,6.92c.07,1.15.19,2.3.21,3.46l.09,3.46c0,2.31.17,4.61.13,6.91-.13,4.61-.11,9.2-.53,13.78a212.54,212.54,0,0,1-3.61,27.16c-.17-18.21-1.27-36.23-4.55-53.76L146,166.05l-1.5-6.49c-.26-1.08-.47-2.16-.77-3.23l-.87-3.21-.87-3.2c-.28-1.07-.58-2.13-.93-3.18A231.1,231.1,0,0,0,132,121.93,228.51,228.51,0,0,0,105.7,76.56,240.64,240.64,0,0,0,89,56.28q-8.85-9.73-18.62-18.63c-6.45-6-13.26-11.6-20.23-17S36,10,28.65,5.05,13.74-4.58,6.08-9.13-9.4-18-17.33-22.09c-15.85-8.27-32.17-15.76-48.8-22.67S-99.71-58-117-63.53Z" fill="#4fc6b7"/></g></g></svg>