<svg xmlns="http://www.w3.org/2000/svg" viewBox="0 0 1299.52 622.78"><title>confetti-blue-2</title><g id="5ff51358-c556-4298-bf89-da3eed830c7e" data-name="Layer 2"><g id="d5e68815-ba3c-4de2-bfb6-8cfe5a5f0de3" data-name="confetti-blue"><rect x="416.42" y="314.88" width="14.49" height="7.77" transform="translate(-87.46 459.65) rotate(-52.37)" fill="none"/><polygon points="424.87 311.78 428.79 314.25 422.46 325.75 418.55 323.28 424.87 311.78" fill="#d2ebf9" stroke="#3f3f3f" stroke-miterlimit="10"/><rect x="257.16" y="606.9" width="14.49" height="7.77" transform="translate(-352.87 859.66) rotate(-88.55)" fill="none"/><polygon points="261.26 604.44 265.88 604.12 267.56 617.13 262.94 617.45 261.26 604.44" fill="#d2ebf9" stroke="#3f3f3f" stroke-miterlimit="10"/><rect x="179.95" y="231.65" width="14.49" height="7.77" transform="translate(-111.49 199.43) rotate(-44.63)" fill="none"/><polygon points="189.33 228.78 192.87 231.75 185.05 242.29 181.51 239.32 189.33 228.78" fill="#d2ebf9" stroke="#3f3f3f" stroke-miterlimit="10"/><rect x="52.06" y="326.45" width="14.49" height="7.77" transform="translate(-273.47 286.71) rotate(-72.35)" fill="none"/><polygon points="58.05 323.36 62.57 324.34 60.55 337.31 56.03 336.33 58.05 323.36" fill="#d2ebf9" stroke="#3f3f3f" stroke-miterlimit="10"/><rect x="942.46" y="611.43" width="14.49" height="7.77" transform="translate(275.29 1524) rotate(-86.36)" fill="none"/><polygon points="946.8 608.84 951.43 608.71 952.61 621.77 947.98 621.91 946.8 608.84" fill="#d2ebf9" stroke="#3f3f3f" stroke-miterlimit="10"/><rect x="792.85" y="413.21" width="14.49" height="7.77" transform="translate(-101.45 453.7) rotate(-29.86)" fill="none"/><polygon points="803.88 411.11 806.55 414.89 796.31 423.08 793.64 419.3 803.88 411.11" fill="#d2ebf9" stroke="#3f3f3f" stroke-miterlimit="10"/><rect x="959.35" y="322.93" width="14.49" height="7.77" transform="translate(322.97 1118.55) rotate(-69.57)" fill="none"/><polygon points="965.68 319.78 970.15 320.99 967.51 333.84 963.04 332.64 965.68 319.78" fill="#d2ebf9" stroke="#3f3f3f" stroke-miterlimit="10"/><rect x="1254.69" y="364.51" width="7.77" height="14.49" transform="translate(-41.83 195.22) rotate(-8.73)" fill="none"/><polygon points="1254.35 366.06 1258.84 364.94 1262.79 377.45 1258.3 378.58 1254.35 366.06" fill="#d2ebf9" stroke="#3f3f3f" stroke-miterlimit="10"/><rect x="937.63" y="66.73" width="14.49" height="7.77" transform="translate(763.93 1000.69) rotate(-83.26)" fill="none"/><polygon points="942.33 64 946.95 64.11 947.43 77.23 942.8 77.12 942.33 64" fill="#d2ebf9" stroke="#3f3f3f" stroke-miterlimit="10"/><rect x="735.89" y="101.88" width="7.77" height="14.49" transform="translate(14.1 289.62) rotate(-22.36)" fill="none"/><polygon points="734.33 104.59 738.42 102.43 745.21 113.66 741.12 115.82 734.33 104.59" fill="#d2ebf9" stroke="#3f3f3f" stroke-miterlimit="10"/><rect x="66.54" y="59.74" width="14.49" height="7.77" transform="translate(-23.37 70.89) rotate(-45.05)" fill="none"/><polygon points="75.87 56.85 79.43 59.8 71.69 70.39 68.13 67.44 75.87 56.85" fill="#d2ebf9" stroke="#3f3f3f" stroke-miterlimit="10"/><rect x="963.98" y="402.16" width="7.77" height="14.49" transform="translate(-83.02 405.69) rotate(-22.73)" fill="none"/><polygon points="962.39 404.9 966.48 402.72 973.34 413.91 969.25 416.09 962.39 404.9" fill="#d2ebf9" stroke="#3f3f3f" stroke-miterlimit="10"/><rect x="1090.01" y="348.27" width="14.49" height="7.77" transform="translate(546.35 1364.32) rotate(-79.24)" fill="none"/><polygon points="1095.17 345.38 1099.78 345.82 1099.33 358.93 1094.72 358.5 1095.17 345.38" fill="#d2ebf9" stroke="#3f3f3f" stroke-miterlimit="10"/><rect x="962.3" y="91.15" width="14.49" height="7.77" transform="translate(22.09 321.7) rotate(-19.05)" fill="none"/><polygon points="974.39 89.86 976.3 94.07 964.7 100.2 962.79 95.99 974.39 89.86" fill="#d2ebf9" stroke="#3f3f3f" stroke-miterlimit="10"/><rect x="481.73" y="87.91" width="14.49" height="7.77" transform="translate(286.75 546.36) rotate(-76.65)" fill="none"/><polygon points="487.2 84.94 491.78 85.58 490.74 98.66 486.16 98.02 487.2 84.94" fill="#d2ebf9" stroke="#3f3f3f" stroke-miterlimit="10"/><rect x="666.56" y="467.78" width="14.49" height="7.77" transform="translate(-26.1 903.65) rotate(-66.68)" fill="none"/><polygon points="673.25 464.6 677.65 466.02 674.36 478.73 669.96 477.3 673.25 464.6" fill="#d2ebf9" stroke="#3f3f3f" stroke-miterlimit="10"/><rect x="530.91" y="210.01" width="14.49" height="7.77" transform="translate(-7.36 408.25) rotate(-41.29)" fill="none"/><polygon points="540.68 207.27 544.05 210.45 535.63 220.51 532.26 217.34 540.68 207.27" fill="#d2ebf9" stroke="#3f3f3f" stroke-miterlimit="10"/><rect x="987.95" y="131.65" width="14.49" height="7.77" transform="translate(475.91 995.25) rotate(-66.62)" fill="none"/><polygon points="994.65 128.47 999.05 129.9 995.75 142.6 991.35 141.17 994.65 128.47" fill="#d2ebf9" stroke="#3f3f3f" stroke-miterlimit="10"/><rect x="667.17" y="151.44" width="14.49" height="7.77" transform="translate(113.37 560.53) rotate(-48.81)" fill="none"/><polygon points="676.05 148.43 679.81 151.13 672.78 162.22 669.02 159.51 676.05 148.43" fill="#d2ebf9" stroke="#3f3f3f" stroke-miterlimit="10"/><rect x="787.82" y="10.62" width="14.49" height="7.77" transform="translate(193.85 534.96) rotate(-41.93)" fill="none"/><polygon points="797.52 7.85 800.92 10.99 792.61 21.15 789.21 18.01 797.52 7.85" fill="#d2ebf9" stroke="#3f3f3f" stroke-miterlimit="10"/><rect x="664.33" y="29.09" width="14.49" height="7.77" transform="translate(99.47 386.24) rotate(-34.51)" fill="none"/><polygon points="674.87 26.7 677.84 30.25 668.28 39.25 665.32 35.7 674.87 26.7" fill="#d2ebf9" stroke="#3f3f3f" stroke-miterlimit="10"/><rect x="353.49" y="4.3" width="14.49" height="7.77" transform="matrix(0.55, -0.83, 0.83, 0.55, 154.82, 304.49)" fill="none"/><polygon points="361.43 1.13 365.51 3.31 360.03 15.23 355.95 13.05 361.43 1.13" fill="#d2ebf9" stroke="#3f3f3f" stroke-miterlimit="10"/><rect x="203.03" y="113.22" width="14.49" height="7.77" transform="translate(18.42 262.43) rotate(-66.26)" fill="none"/><polygon points="209.77 110.04 214.16 111.5 210.78 124.17 206.39 122.72 209.77 110.04" fill="#d2ebf9" stroke="#3f3f3f" stroke-miterlimit="10"/><rect x="136.32" y="47.4" width="14.49" height="7.77" transform="translate(-7.66 32) rotate(-12.39)" fill="none"/><polygon points="148.97 46.71 150.39 51.12 138.15 55.86 136.74 51.45 148.97 46.71" fill="#d2ebf9" stroke="#3f3f3f" stroke-miterlimit="10"/><rect x="71.55" y="101.72" width="7.77" height="14.49" transform="translate(-19.44 16.44) rotate(-11.02)" fill="none"/><polygon points="70.99 103.44 75.43 102.14 79.88 114.48 75.44 115.79 70.99 103.44" fill="#d2ebf9" stroke="#3f3f3f" stroke-miterlimit="10"/><rect x="1116.22" y="16.2" width="7.77" height="14.49" transform="translate(1.81 91.28) rotate(-4.67)" fill="none"/><polygon points="1116.3 17.47 1120.85 16.66 1123.91 29.43 1119.35 30.23 1116.3 17.47" fill="#d2ebf9" stroke="#3f3f3f" stroke-miterlimit="10"/><rect x="1286.03" y="43.27" width="14.49" height="7.77" transform="translate(779.84 1235.08) rotate(-68.71)" fill="none"/><polygon points="1292.46 40.12 1296.91 41.39 1294.08 54.2 1289.63 52.93 1292.46 40.12" fill="#d2ebf9" stroke="#3f3f3f" stroke-miterlimit="10"/><rect x="823.83" y="159.11" width="7.77" height="14.49" transform="translate(-13.41 239.13) rotate(-16.31)" fill="none"/><polygon points="822.77 161.27 827.08 159.56 832.64 171.44 828.34 173.15 822.77 161.27" fill="#d2ebf9" stroke="#3f3f3f" stroke-miterlimit="10"/><rect x="352.07" y="168.3" width="14.49" height="7.77" transform="translate(48.95 422.05) rotate(-64.44)" fill="none"/><polygon points="359.03 165.11 363.37 166.7 359.59 179.27 355.25 177.67 359.03 165.11" fill="#d2ebf9" stroke="#3f3f3f" stroke-miterlimit="10"/><rect x="651.56" y="292.98" width="14.49" height="7.77" transform="translate(24.29 642.61) rotate(-52.84)" fill="none"/><polygon points="659.95 289.87 663.88 292.3 657.65 303.85 653.72 301.41 659.95 289.87" fill="#d2ebf9" stroke="#3f3f3f" stroke-miterlimit="10"/><rect x="418.78" y="383.83" width="14.49" height="7.77" transform="translate(-144.92 311.23) rotate(-34.68)" fill="none"/><polygon points="429.29 381.43 432.27 384.97 422.75 394 419.77 390.46 429.29 381.43" fill="#d2ebf9" stroke="#3f3f3f" stroke-miterlimit="10"/><rect x="132.06" y="312.18" width="14.49" height="7.77" transform="translate(-82.75 51.5) rotate(-16.22)" fill="none"/><polygon points="144.4 311.14 146.1 315.44 134.21 320.99 132.51 316.69 144.4 311.14" fill="#d2ebf9" stroke="#3f3f3f" stroke-miterlimit="10"/><rect x="776.47" y="43.59" width="14.49" height="7.77" transform="translate(91.21 417.46) rotate(-31.58)" fill="none"/><polygon points="787.32 41.37 790.1 45.07 780.1 53.57 777.32 49.87 787.32 41.37" fill="#d2ebf9" stroke="#3f3f3f" stroke-miterlimit="10"/><rect x="379.04" y="107.74" width="14.49" height="7.77" transform="translate(274 497.71) rotate(-89.9)" fill="none"/><polygon points="382.98 105.35 387.59 104.93 389.58 117.9 384.97 118.33 382.98 105.35" fill="#d2ebf9" stroke="#3f3f3f" stroke-miterlimit="10"/><rect x="503.04" y="27.26" width="7.77" height="14.49" transform="translate(71.98 297.15) rotate(-35.02)" fill="none"/><polygon points="500.62 31.26 504.15 28.26 513.23 37.73 509.71 40.73 500.62 31.26" fill="#d2ebf9" stroke="#3f3f3f" stroke-miterlimit="10"/><rect x="156.71" y="75.02" width="7.77" height="14.49" transform="translate(-19.6 91.65) rotate(-30.1)" fill="none"/><polygon points="154.59 78.5 158.36 75.81 166.6 86.03 162.83 88.71 154.59 78.5" fill="#d2ebf9" stroke="#3f3f3f" stroke-miterlimit="10"/><rect x="0.06" y="34.84" width="14.49" height="7.77" transform="matrix(0.57, -0.82, 0.82, 0.57, -28.75, 22.82)" fill="none"/><polygon points="8.12 31.68 12.17 33.94 6.48 45.76 2.44 43.51 8.12 31.68" fill="#d2ebf9" stroke="#3f3f3f" stroke-miterlimit="10"/><rect x="1017.76" y="62" width="14.49" height="7.77" transform="translate(904.52 1085.91) rotate(-86.94)" fill="none"/><polygon points="1022.03 59.45 1026.66 59.26 1027.97 72.32 1023.35 72.5 1022.03 59.45" fill="#d2ebf9" stroke="#3f3f3f" stroke-miterlimit="10"/><rect x="786.4" y="99.23" width="14.49" height="7.77" transform="translate(82.81 470.84) rotate(-34.76)" fill="none"/><polygon points="796.91 96.82 799.89 100.36 790.38 109.41 787.4 105.87 796.91 96.82" fill="#d2ebf9" stroke="#3f3f3f" stroke-miterlimit="10"/><rect x="1202.28" y="112.03" width="14.49" height="7.77" transform="translate(45.69 465) rotate(-22.17)" fill="none"/><polygon points="1214.08 110.48 1216.22 114.58 1204.97 121.34 1202.83 117.23 1214.08 110.48" fill="#d2ebf9" stroke="#3f3f3f" stroke-miterlimit="10"/><rect x="1233.51" y="24.02" width="14.49" height="7.77" transform="translate(893.8 1219.48) rotate(-75.05)" fill="none"/><polygon points="1239.17 20.99 1243.74 21.76 1242.33 34.81 1237.77 34.04 1239.17 20.99" fill="#d2ebf9" stroke="#3f3f3f" stroke-miterlimit="10"/><rect x="626.01" y="94.88" width="14.49" height="7.77" transform="translate(155.74 526.24) rotate(-50.7)" fill="none"/><polygon points="634.66 91.81 638.5 94.4 631.84 105.7 628 103.12 634.66 91.81" fill="#d2ebf9" stroke="#3f3f3f" stroke-miterlimit="10"/><rect x="650.14" y="207.07" width="14.49" height="7.77" transform="translate(48.88 537.1) rotate(-45.98)" fill="none"/><polygon points="659.36 204.15 662.97 207.04 655.41 217.76 651.79 214.87 659.36 204.15" fill="#d2ebf9" stroke="#3f3f3f" stroke-miterlimit="10"/><rect x="210.65" y="141.8" width="7.77" height="14.49" transform="translate(-42.35 101.62) rotate(-24.33)" fill="none"/><polygon points="208.94 144.69 212.96 142.4 220.13 153.39 216.11 155.68 208.94 144.69" fill="#d2ebf9" stroke="#3f3f3f" stroke-miterlimit="10"/><rect x="557.88" y="120.11" width="14.49" height="7.77" transform="translate(4.51 267) rotate(-26.69)" fill="none"/><polygon points="569.24 118.22 571.69 122.14 561.01 129.76 558.55 125.84 569.24 118.22" fill="#d2ebf9" stroke="#3f3f3f" stroke-miterlimit="10"/><rect x="281.1" y="47.08" width="14.49" height="7.77" transform="translate(73.04 249.42) rotate(-52.69)" fill="none"/><polygon points="289.51 43.98 293.44 46.42 287.17 57.95 283.25 55.51 289.51 43.98" fill="#d2ebf9" stroke="#3f3f3f" stroke-miterlimit="10"/><rect x="489.75" y="153.82" width="14.49" height="7.77" transform="translate(-21.29 214.74) rotate(-23.89)" fill="none"/><polygon points="501.38 152.14 503.64 156.18 492.6 163.27 490.34 159.23 501.38 152.14" fill="#d2ebf9" stroke="#3f3f3f" stroke-miterlimit="10"/><rect x="1016.34" y="199.2" width="14.49" height="7.77" transform="translate(761.99 1213.3) rotate(-86.7)" fill="none"/><polygon points="1020.64 196.64 1025.27 196.47 1026.53 209.53 1021.9 209.7 1020.64 196.64" fill="#d2ebf9" stroke="#3f3f3f" stroke-miterlimit="10"/><rect x="776.47" y="125.59" width="14.49" height="7.77" transform="translate(361.12 802.07) rotate(-67.24)" fill="none"/><polygon points="783.08 122.42 787.5 123.8 784.33 136.54 779.92 135.15 783.08 122.42" fill="#d2ebf9" stroke="#3f3f3f" stroke-miterlimit="10"/><rect x="791.18" y="182.14" width="7.77" height="14.49" transform="translate(-19.29 119.94) rotate(-8.52)" fill="none"/><polygon points="790.86 183.68 795.36 182.57 799.26 195.09 794.77 196.21 790.86 183.68" fill="#d2ebf9" stroke="#3f3f3f" stroke-miterlimit="10"/><rect x="897.63" y="38.76" width="7.77" height="14.49" transform="translate(43.19 325.5) rotate(-20.96)" fill="none"/><polygon points="896.19 41.33 900.34 39.28 906.85 50.67 902.7 52.72 896.19 41.33" fill="#d2ebf9" stroke="#3f3f3f" stroke-miterlimit="10"/><rect x="1261" y="241.72" width="7.77" height="14.49" transform="translate(56.72 698.69) rotate(-31.55)" fill="none"/><polygon points="1258.78 245.35 1262.48 242.57 1270.98 252.57 1267.28 255.35 1258.78 245.35" fill="#d2ebf9" stroke="#3f3f3f" stroke-miterlimit="10"/><rect x="311.43" y="214.71" width="7.77" height="14.49" transform="translate(-70.26 226.06) rotate(-35.75)" fill="none"/><polygon points="308.96 218.8 312.45 215.75 321.66 225.11 318.17 228.15 308.96 218.8" fill="#d2ebf9" stroke="#3f3f3f" stroke-miterlimit="10"/></g></g></svg>