<?xml version="1.0" encoding="utf-8"?>
<!-- Generator: Adobe Illustrator 21.0.2, SVG Export Plug-In . SVG Version: 6.00 Build 0)  -->
<svg version="1.1" id="Layer_1" xmlns="http://www.w3.org/2000/svg" xmlns:xlink="http://www.w3.org/1999/xlink" x="0px" y="0px"
	 viewBox="0 0 1274.7 643.4" style="enable-background:new 0 0 1274.7 643.4;" xml:space="preserve">
<style type="text/css">
	.st0{fill:#BDFFEE;stroke:#3F3F3F;stroke-miterlimit:10;}
	.st1{fill:#BDFFEE;}
	.st2{fill:#BDFFEE;stroke:#000000;stroke-miterlimit:10;}
	.st3{fill:none;}
	.st4{fill:#CAEFC5;stroke:#3F3F3F;stroke-miterlimit:10;}
</style>
<title>confetti-green-2</title>
<rect x="1042.2" y="72.1" transform="matrix(0.65 -0.76 0.76 0.65 305.3099 821.5128)" class="st0" width="4.6" height="14.4"/>
<rect x="991.6" y="253.6" transform="matrix(0.9256 -0.3785 0.3785 0.9256 -23.0226 397.4741)" class="st1" width="15.9" height="7.4"/>
<rect x="992.4" y="255.1" transform="matrix(0.8756 -0.483 0.483 0.8756 1.189405e-02 514.8322)" class="st0" width="14.4" height="4.6"/>
<rect x="1184.1" y="355.2" transform="matrix(0.2478 -0.9688 0.9688 0.2478 541.5781 1423.924)" class="st1" width="7.4" height="15.9"/>
<rect x="1185.5" y="355.9" transform="matrix(0.134 -0.991 0.991 0.134 668.7573 1491.5018)" class="st0" width="4.6" height="14.4"/>
<rect x="899.9" y="510.5" transform="matrix(0.258 -0.9661 0.9661 0.258 176.8869 1258.6304)" class="st1" width="15.9" height="7.4"/>
<rect x="900.6" y="511.9" transform="matrix(0.1445 -0.9895 0.9895 0.1445 267.8787 1338.1621)" class="st0" width="14.4" height="4.6"/>
<rect x="364.2" y="485.3" transform="matrix(0.4464 -0.8948 0.8948 0.4464 -231.5612 603.6794)" class="st1" width="15.9" height="7.4"/>
<rect x="365.1" y="486.6" transform="matrix(0.3399 -0.9405 0.9405 0.3399 -214.0416 672.9031)" class="st0" width="14.4" height="4.6"/>
<rect x="296.1" y="95.1" transform="matrix(0.7765 -0.6301 0.6301 0.7765 2.0716 211.922)" class="st1" width="7.4" height="15.9"/>
<rect x="297.5" y="95.9" transform="matrix(0.6983 -0.7158 0.7158 0.6983 16.6404 245.7184)" class="st0" width="4.6" height="14.4"/>
<rect x="103.6" y="161.2" transform="matrix(0.7894 -0.6139 0.6139 0.7894 -77.7515 103.2146)" class="st1" width="15.9" height="7.4"/>
<rect x="104.4" y="162.6" transform="matrix(0.7131 -0.701 0.701 0.7131 -83.5813 125.5429)" class="st0" width="14.4" height="4.6"/>
<rect x="258.5" y="280.6" transform="matrix(0.9525 -0.3045 0.3045 0.9525 -73.5115 94.3507)" class="st0" width="14.4" height="4.6"/>
<rect x="132" y="412.6" transform="matrix(0.7493 -0.6622 0.6622 0.7493 -244.4763 195.2816)" class="st1" width="7.4" height="15.9"/>
<rect x="133.4" y="413.3" transform="matrix(0.6676 -0.7445 0.7445 0.6676 -267.972 240.7723)" class="st0" width="4.6" height="14.4"/>
<rect x="605.9" y="623.7" transform="matrix(0.5476 -0.8368 0.8368 0.5476 -246.3907 796.2576)" class="st0" width="14.4" height="4.6"/>
<rect x="810.1" y="365.7" transform="matrix(0.6586 -0.7525 0.7525 0.6586 -3.3307 739.9329)" class="st1" width="7.4" height="15.9"/>
<rect x="811.5" y="366.6" transform="matrix(0.5671 -0.8236 0.8236 0.5671 44.3825 832.0708)" class="st0" width="4.6" height="14.4"/>
<rect x="1180.7" y="582.3" transform="matrix(0.9002 -0.4355 0.4355 0.9002 -136.5595 576.1509)" class="st1" width="15.9" height="7.4"/>
<rect x="1181.5" y="583.4" transform="matrix(0.8437 -0.5369 0.5369 0.8437 -128.614 729.7767)" class="st0" width="14.4" height="4.6"/>
<rect x="554.3" y="29.4" transform="matrix(9.271675e-02 -0.9957 0.9957 9.271675e-02 469.1429 589.4728)" class="st1" width="7.4" height="15.9"/>
<rect x="550.8" y="35" transform="matrix(0.9997 -2.303790e-02 2.303790e-02 0.9997 -0.7112 12.8646)" class="st0" width="14.4" height="4.6"/>
<rect x="89.1" y="569.6" transform="matrix(0.7785 -0.6277 0.6277 0.7785 -338.3734 187.9179)" class="st1" width="15.9" height="7.4"/>
<rect x="89.9" y="571" transform="matrix(0.7005 -0.7136 0.7136 0.7005 -380.0242 240.9819)" class="st0" width="14.4" height="4.6"/>
<rect x="513.8" y="344" transform="matrix(0.7096 -0.7046 0.7046 0.7096 -93.4683 468.6167)" class="st1" width="15.9" height="7.4"/>
<rect x="514.7" y="345.3" transform="matrix(0.6232 -0.7821 0.7821 0.6232 -75.2122 539.1235)" class="st0" width="14.4" height="4.6"/>
<rect x="691.8" y="205.9" transform="matrix(3.751550e-02 -0.9993 0.9993 3.751550e-02 455.7066 900.9207)" class="st1" width="7.4" height="15.9"/>
<rect x="688.3" y="211.5" transform="matrix(0.9969 -7.846180e-02 7.846180e-02 0.9969 -14.6306 55.2284)" class="st0" width="14.4" height="4.6"/>
<rect x="634" y="409.6" transform="matrix(0.2682 -0.9634 0.9634 0.2682 64.4159 919.8397)" class="st1" width="7.4" height="15.9"/>
<rect x="635.2" y="410.3" transform="matrix(0.1549 -0.9879 0.9879 0.1549 126.3132 982.6824)" class="st0" width="4.6" height="14.4"/>
<rect x="421.6" y="142.8" transform="matrix(0.5927 -0.8054 0.8054 0.5927 51.8251 403.912)" class="st1" width="7.4" height="15.9"/>
<rect x="423" y="143.6" transform="matrix(0.4956 -0.8685 0.8685 0.4956 83.5144 445.4053)" class="st0" width="4.6" height="14.4"/>
<rect x="1225.9" y="146.7" transform="matrix(0.9198 -0.3925 0.3925 0.9198 39.984 496.312)" class="st1" width="15.9" height="7.4"/>
<rect x="1226.5" y="148.1" transform="matrix(0.8682 -0.4962 0.4962 0.8682 87.956 631.9803)" class="st0" width="14.4" height="4.6"/>
<rect x="84.4" y="20.5" transform="matrix(0.3914 -0.9202 0.9202 0.3914 33.9393 99.6493)" class="st1" width="15.9" height="7.4"/>
<rect x="85.1" y="21.8" transform="matrix(0.2822 -0.9594 0.9594 0.2822 43.0654 105.8503)" class="st0" width="14.4" height="4.6"/>
<rect x="214.6" y="48.4" transform="matrix(0.7019 -0.7123 0.7123 0.7019 29.2186 174.0695)" class="st1" width="15.9" height="7.4"/>
<rect x="215.3" y="49.7" transform="matrix(0.6148 -0.7887 0.7887 0.6148 44.6714 195.5408)" class="st0" width="14.4" height="4.6"/>
<rect x="808.2" y="87.7" transform="matrix(0.5734 -0.8193 0.8193 0.5734 273.3016 707.6765)" class="st1" width="15.9" height="7.4"/>
<rect x="809" y="89.1" transform="matrix(0.4747 -0.8801 0.8801 0.4747 348.2569 766.3818)" class="st0" width="14.4" height="4.6"/>
<rect x="516" y="89.4" transform="matrix(0.6353 -0.7723 0.7723 0.6353 114.356 436.8972)" class="st1" width="7.4" height="15.9"/>
<rect x="517.5" y="90.1" transform="matrix(0.5416 -0.8407 0.8407 0.5416 156.4588 481.5951)" class="st2" width="4.6" height="14.4"/>
<rect x="847.5" y="8.9" transform="matrix(0.52 -0.8542 0.8542 0.52 400.7261 735.4622)" class="st2" width="14.4" height="4.6"/>
<rect x="1102.1" y="108.5" transform="matrix(0.28 -0.96 0.96 0.28 684.3456 1145.4313)" class="st1" width="7.4" height="15.9"/>
<rect x="1103.7" y="109.4" transform="matrix(0.1671 -0.9859 0.9859 0.1671 806.1873 1187.5906)" class="st2" width="4.6" height="14.4"/>
<rect x="966" y="31.6" transform="matrix(0.9635 -0.2676 0.2676 0.9635 26.0759 261.9182)" class="st1" width="15.9" height="7.4"/>
<rect x="966.8" y="33" transform="matrix(0.9261 -0.3772 0.3772 0.9261 58.6374 369.9998)" class="st2" width="14.4" height="4.6"/>
<rect x="1232.1" y="41.9" transform="matrix(3.141561e-03 -1 1 3.141561e-03 1181.4756 1283.3815)" class="st2" width="4.6" height="14.4"/>
<rect x="305.4" y="55.3" transform="matrix(0.1532 -0.9882 0.9882 0.1532 198.7583 356.962)" class="st2" width="4.6" height="14.4"/>
<rect x="403.9" y="203" transform="matrix(0.419 -0.908 0.908 0.419 45.2533 492.6307)" class="st1" width="7.4" height="15.9"/>
<rect x="405.3" y="203.8" transform="matrix(0.311 -0.9504 0.9504 0.311 80.3268 532.8121)" class="st2" width="4.6" height="14.4"/>
<rect x="210.9" y="220.9" transform="matrix(0.9988 -4.919734e-02 4.919734e-02 0.9988 -10.7848 11.0389)" class="st1" width="15.9" height="7.4"/>
<rect x="211.6" y="222.2" transform="matrix(0.9864 -0.1645 0.1645 0.9864 -33.9494 39.0505)" class="st2" width="14.4" height="4.6"/>
<rect x="941.7" y="140.7" transform="matrix(0.9291 -0.3699 0.3699 0.9291 14.3959 361.1221)" class="st2" width="14.4" height="4.6"/>
<rect x="398.3" y="83.7" transform="matrix(0.7935 -0.6086 0.6086 0.7935 27.2456 263.5953)" class="st1" width="7.4" height="15.9"/>
<rect x="399.6" y="84.4" transform="matrix(0.7176 -0.6964 0.6964 0.7176 49.6781 305.7417)" class="st2" width="4.6" height="14.4"/>
<rect x="61.9" y="118.7" transform="matrix(0.52 -0.8542 0.8542 0.52 -71.0283 118.3929)" class="st1" width="15.9" height="7.4"/>
<rect x="62.6" y="120" transform="matrix(0.4175 -0.9087 0.9087 0.4175 -70.4562 134.62)" class="st2" width="14.4" height="4.6"/>
<rect x="629.6" y="67.2" transform="matrix(0.6334 -0.7738 0.7738 0.6334 178.8203 519.316)" class="st1" width="15.9" height="7.4"/>
<rect x="630.3" y="68.6" transform="matrix(0.5395 -0.842 0.842 0.5395 233.8739 569.3821)" class="st2" width="14.4" height="4.6"/>
<rect x="721.9" y="29.9" transform="matrix(0.9503 -0.3113 0.3113 0.9503 25.8043 228.8702)" class="st1" width="15.9" height="7.4"/>
<rect x="722.6" y="31.3" transform="matrix(0.9079 -0.4193 0.4193 0.9079 53.1617 309.1041)" class="st2" width="14.4" height="4.6"/>
<rect x="1065.4" y="249.8" transform="matrix(0.4179 -0.9085 0.9085 0.4179 394.4528 1122.7087)" class="st1" width="15.9" height="7.4"/>
<rect x="1066" y="251.3" transform="matrix(0.3098 -0.9508 0.9508 0.3098 499.6303 1195.3849)" class="st2" width="14.4" height="4.6"/>
<rect x="993" y="140.7" transform="matrix(0.9752 -0.2212 0.2212 0.9752 -7.1453 224.9871)" class="st1" width="15.9" height="7.4"/>
<rect x="993.7" y="142" transform="matrix(0.943 -0.3327 0.3327 0.943 9.0113 341.2149)" class="st2" width="14.4" height="4.6"/>
<rect x="475.9" y="260.6" transform="matrix(0.9964 -8.506487e-02 8.506487e-02 0.9964 -20.6113 42.046)" class="st2" width="14.4" height="4.6"/>
<rect x="675" y="122" transform="matrix(0.4156 -0.9095 0.9095 0.4156 278.4033 693.2512)" class="st1" width="7.4" height="15.9"/>
<rect x="676.4" y="122.9" transform="matrix(0.3075 -0.9515 0.9515 0.3075 346.238 735.8682)" class="st2" width="4.6" height="14.4"/>
<rect x="561.4" y="77.3" transform="matrix(0.7396 -0.673 0.673 0.7396 89.7424 402.5401)" class="st1" width="7.4" height="15.9"/>
<rect x="562.8" y="78.2" transform="matrix(0.6568 -0.754 0.754 0.6568 129.5578 455.3894)" class="st2" width="4.6" height="14.4"/>
<rect x="44.7" y="146" transform="matrix(0.4997 -0.8662 0.8662 0.4997 -109.1059 118.972)" class="st1" width="7.4" height="15.9"/>
<rect x="46.2" y="146.8" transform="matrix(0.3962 -0.9182 0.9182 0.3962 -112.1356 137.5033)" class="st2" width="4.6" height="14.4"/>
<rect x="358.5" y="18.1" transform="matrix(0.8689 -0.495 0.495 0.8689 37.253 184.2485)" class="st1" width="15.9" height="7.4"/>
<rect x="359.3" y="19.5" transform="matrix(0.8057 -0.5923 0.5923 0.8057 58.3046 221.3214)" class="st2" width="14.4" height="4.6"/>
<rect x="535.9" y="180.3" transform="matrix(0.7891 -0.6143 0.6143 0.7891 1.6745 372.8924)" class="st1" width="15.9" height="7.4"/>
<rect x="536.6" y="181.7" transform="matrix(0.7126 -0.7015 0.7015 0.7126 27.162 434.3792)" class="st2" width="14.4" height="4.6"/>
<rect x="1031.3" y="132.5" transform="matrix(0.2312 -0.9729 0.9729 0.2312 659.0558 1114.8676)" class="st1" width="7.4" height="15.9"/>
<rect x="1032.6" y="133.3" transform="matrix(0.117 -0.9931 0.9931 0.117 774.2644 1151.8127)" class="st2" width="4.6" height="14.4"/>
<rect x="936.1" y="170.8" transform="matrix(7.079970e-02 -0.9975 0.9975 7.079970e-02 694.4878 1101.4396)" class="st2" width="4.6" height="14.4"/>
<rect x="375.5" y="145.8" transform="matrix(0.6289 -0.7775 0.7775 0.6289 26.062 353.6447)" class="st1" width="15.9" height="7.4"/>
<rect x="376.3" y="147.2" transform="matrix(0.5348 -0.845 0.845 0.5348 52.09 393.6388)" class="st2" width="14.4" height="4.6"/>
<rect x="9.8" y="68.6" transform="matrix(0.822 -0.5694 0.5694 0.822 -37.3387 22.2886)" class="st2" width="14.4" height="4.6"/>
<rect x="54.7" y="34.7" transform="matrix(0.2207 -0.9753 0.9753 0.2207 3.9349 90.2119)" class="st1" width="7.4" height="15.9"/>
<rect x="56.1" y="35.5" transform="matrix(0.1063 -0.9943 0.9943 0.1063 9.7497 96.2455)" class="st2" width="4.6" height="14.4"/>
<rect x="669.3" y="5.6" transform="matrix(5.216564e-02 -0.9986 0.9986 5.216564e-02 632.5798 685.161)" class="st1" width="15.9" height="7.4"/>
<rect x="675" y="11.1" transform="matrix(0.998 -6.365772e-02 6.365772e-02 0.998 0.2087 43.1537)" class="st2" width="4.6" height="14.4"/>
<rect x="1036.3" y="12.5" transform="matrix(0.2894 -0.9572 0.9572 0.2894 727.3718 1009.4004)" class="st2" width="14.4" height="4.6"/>
<rect x="1141.5" y="82.6" transform="matrix(0.9335 -0.3587 0.3587 0.9335 45.9959 417.6847)" class="st2" width="14.4" height="4.6"/>
<rect x="602.6" y="109.3" transform="matrix(0.7179 -0.6962 0.6962 0.7179 89.4366 455.1757)" class="st1" width="7.4" height="15.9"/>
<rect x="604" y="110.2" transform="matrix(0.6326 -0.7745 0.7745 0.6326 131.8594 512.7361)" class="st2" width="4.6" height="14.4"/>
<rect x="484.8" y="136.1" transform="matrix(0.211 -0.9775 0.9775 0.211 252.1832 591.9271)" class="st1" width="15.9" height="7.4"/>
<rect x="485.5" y="137.5" transform="matrix(9.637566e-02 -0.9953 0.9953 9.637566e-02 306.0841 616.6588)" class="st2" width="14.4" height="4.6"/>
<rect x="501.1" y="49" transform="matrix(0.9984 -5.651872e-02 5.651872e-02 0.9984 -2.1648 28.855)" class="st1" width="15.9" height="7.4"/>
<rect x="501.9" y="50.3" transform="matrix(0.9851 -0.1718 0.1718 0.9851 -1.4667 88.2463)" class="st2" width="14.4" height="4.6"/>
<rect x="130" y="103.8" transform="matrix(0.7711 -0.6368 0.6368 0.7711 -40.5463 110.7405)" class="st1" width="7.4" height="15.9"/>
<rect x="131.4" y="104.5" transform="matrix(0.6921 -0.7218 0.7218 0.6921 -39.4376 130.9003)" class="st2" width="4.6" height="14.4"/>
<rect x="38.6" y="314.5" transform="matrix(0.1188 -0.9929 0.9929 0.1188 -283.3296 324.1314)" class="st2" width="4.6" height="14.4"/>
<rect x="1007.1" y="194.7" transform="matrix(0.9913 -0.1317 0.1317 0.9913 -17.288 135.4094)" class="st1" width="15.9" height="7.4"/>
<rect x="1008" y="196.1" transform="matrix(0.9694 -0.2455 0.2455 0.9694 -17.6374 255.3051)" class="st2" width="14.4" height="4.6"/>
<rect x="879.5" y="174.3" transform="matrix(0.3587 -0.9335 0.9335 0.3587 402.976 942.5224)" class="st1" width="15.9" height="7.4"/>
<rect x="880.1" y="175.8" transform="matrix(0.2482 -0.9687 0.9687 0.2482 494.563 993.4372)" class="st2" width="14.4" height="4.6"/>
<rect x="1106.3" y="441.9" transform="matrix(0.2482 -0.9687 0.9687 0.2482 406.8019 1412.5974)" class="st2" width="14.4" height="4.6"/>
<rect x="905.6" y="257.9" transform="matrix(0.6089 -0.7932 0.7932 0.6089 144.7368 823.8397)" class="st2" width="4.6" height="14.4"/>
<rect x="625.5" y="98" transform="matrix(0.5182 -0.8553 0.8553 0.5182 218.2113 590.7343)" class="st1" width="15.9" height="7.4"/>
<rect x="626" y="99.4" transform="matrix(0.4156 -0.9095 0.9095 0.4156 277.5386 635.3068)" class="st2" width="14.4" height="4.6"/>
<rect x="434.5" y="53" transform="matrix(0.769 -0.6392 0.6392 0.769 62.2276 294.185)" class="st1" width="7.4" height="16"/>
<rect x="435.1" y="53.6" transform="matrix(0.689 -0.7248 0.7248 0.689 91.9887 335.9262)" class="st2" width="4.6" height="14.4"/>
<rect x="997.2" y="94.2" transform="matrix(0.7023 -0.7119 0.7119 0.7023 229.528 744.704)" class="st1" width="15.9" height="7.4"/>
<rect x="997.9" y="95.7" transform="matrix(0.6151 -0.7884 0.7884 0.6151 309.5649 830.1492)" class="st2" width="14.4" height="4.6"/>
<rect x="721.9" y="69.2" transform="matrix(0.6435 -0.7655 0.7655 0.6435 204.4415 584.657)" class="st1" width="15.9" height="7.4"/>
<rect x="722.6" y="70.6" transform="matrix(0.5506 -0.8348 0.8348 0.5506 267.1598 641.9926)" class="st2" width="14.4" height="4.6"/>
<rect x="877.2" y="104.9" transform="matrix(0.1709 -0.9853 0.9853 0.1709 627.6487 960.2001)" class="st2" width="14.3" height="4.6"/>
<rect x="771.5" y="50" transform="matrix(0.937 -0.3494 0.3494 0.937 30.3624 275.7241)" class="st1" width="15.9" height="7.4"/>
<rect x="772.3" y="51.5" transform="matrix(0.8903 -0.4554 0.4554 0.8903 61.0175 360.8892)" class="st2" width="14.4" height="4.6"/>
<rect x="1232.8" y="201.6" transform="matrix(0.3528 -0.9357 0.9357 0.3528 610.8904 1293.8064)" class="st1" width="15.9" height="7.4"/>
<rect x="1233.7" y="202.9" transform="matrix(0.2423 -0.9702 0.9702 0.2423 741.094 1359.4176)" class="st2" width="14.4" height="4.6"/>
<rect x="1066.1" y="182" transform="matrix(0.2659 -0.964 0.964 0.2659 610.2729 1169.9396)" class="st2" width="14.4" height="4.6"/>
<rect x="740.8" y="297.9" transform="matrix(0.2659 -0.964 0.964 0.2659 259.6797 941.4684)" class="st2" width="14.4" height="4.6"/>
<rect x="1154" y="202.7" transform="matrix(0.1473 -0.9891 0.9891 0.1473 778.3542 1322.6466)" class="st2" width="4.6" height="14.4"/>
<rect x="155.5" y="171.1" transform="matrix(0.736 -0.677 0.677 0.736 -75.2022 156.8099)" class="st1" width="15.9" height="7.4"/>
<rect x="156.3" y="172.5" transform="matrix(0.6526 -0.7577 0.7577 0.6526 -75.6259 184.6364)" class="st2" width="14.4" height="4.6"/>
<g>
	<g>
		<g>
			
				<rect x="603.3" y="203.6" transform="matrix(0.4735 -0.8808 0.8808 0.4735 133.1789 644.4553)" class="st2" width="4.6" height="14.4"/>
		</g>
	</g>
</g>
<g>
	<g>
		<g>
			
				<rect x="1008.9" y="402.8" transform="matrix(0.6014 -0.7989 0.7989 0.6014 75.4536 972.6591)" class="st3" width="7.4" height="15.9"/>
			
				<rect x="1010.4" y="403.5" transform="matrix(0.5049 -0.8632 0.8632 0.5049 146.9125 1077.4456)" class="st4" width="4.6" height="14.4"/>
		</g>
	</g>
</g>
<g>
	<g>
		<g>
			
				<rect x="281.9" y="264.5" transform="matrix(0.309 -0.9511 0.9511 0.309 -60.2269 462.3328)" class="st3" width="12.2" height="16.2"/>
			<g>
				<g>
					
						<rect x="285.8" y="265.5" transform="matrix(0.7225 -0.6914 0.6914 0.7225 -108.5589 274.8846)" class="st2" width="4.6" height="14.4"/>
				</g>
			</g>
		</g>
	</g>
</g>
<g>
	<g>
		<g>
			
				<rect x="391.1" y="266.5" transform="matrix(0.309 -0.9511 0.9511 0.309 13.3566 567.4886)" class="st3" width="12.2" height="16.2"/>
			<g>
				<g>
					
						<rect x="395" y="267.3" transform="matrix(0.7225 -0.6914 0.6914 0.7225 -79.5118 350.834)" class="st2" width="4.6" height="14.4"/>
				</g>
			</g>
		</g>
	</g>
</g>
<g>
	<g>
		<g>
			
				<rect x="140.5" y="331.2" transform="matrix(0.891 -0.454 0.454 0.891 -136.9362 104.2393)" class="st3" width="16.2" height="12.2"/>
			<g>
				<g>
					
						<rect x="146.4" y="330.1" transform="matrix(2.201166e-02 -0.9998 0.9998 2.201166e-02 -191.7963 478.4915)" class="st2" width="4.6" height="14.4"/>
				</g>
			</g>
		</g>
	</g>
</g>
<g>
	<g>
		<g>
			
				<rect x="820.3" y="140.1" transform="matrix(0.309 -0.9511 0.9511 0.309 430.0954 888.3688)" class="st3" width="12.2" height="16.2"/>
			<g>
				<g>
					
						<rect x="824.1" y="141" transform="matrix(0.7225 -0.6914 0.6914 0.7225 126.8513 612.5087)" class="st2" width="4.6" height="14.4"/>
				</g>
			</g>
		</g>
	</g>
</g>
<g>
	<g>
		<g>
			
				<rect x="800.4" y="208.2" transform="matrix(0.9842 -0.1771 0.1771 0.9842 -25.5544 146.2963)" class="st3" width="12.2" height="16.2"/>
			<g>
				<g>
					
						<rect x="799.3" y="214" transform="matrix(0.31 -0.9507 0.9507 0.31 350.912 916.0177)" class="st2" width="14.4" height="4.6"/>
				</g>
			</g>
		</g>
	</g>
</g>
<g>
	<g>
		<g>
			
				<rect x="1021.6" y="258.9" transform="matrix(0.309 -0.9511 0.9511 0.309 456.2305 1161.927)" class="st3" width="12.2" height="16.2"/>
			<g>
				<g>
					
						<rect x="1025.4" y="259.8" transform="matrix(0.7225 -0.6914 0.6914 0.7225 100.6056 784.6422)" class="st2" width="4.6" height="14.4"/>
				</g>
			</g>
		</g>
	</g>
</g>
<g>
	<g>
		<g>
			
				<rect x="925.6" y="44.2" transform="matrix(0.309 -0.9511 0.9511 0.309 594.0999 922.2912)" class="st3" width="12.2" height="16.2"/>
			<g>
				<g>
					
						<rect x="929.5" y="45" transform="matrix(0.7225 -0.6914 0.6914 0.7225 222.4716 658.7288)" class="st2" width="4.6" height="14.4"/>
				</g>
			</g>
		</g>
	</g>
</g>
<g>
	<g>
		<g>
			
				<rect x="1192.9" y="87.4" transform="matrix(0.309 -0.9511 0.9511 0.309 737.6719 1206.3655)" class="st3" width="12.2" height="16.2"/>
			<g>
				<g>
					
						<rect x="1196.7" y="88.4" transform="matrix(0.7225 -0.6914 0.6914 0.7225 266.676 855.5071)" class="st2" width="4.6" height="14.4"/>
				</g>
			</g>
		</g>
	</g>
</g>
<g>
	<g>
		<g>
			
				<rect x="233" y="104.4" transform="matrix(0.309 -0.9511 0.9511 0.309 58.1999 305.2024)" class="st3" width="12.2" height="16.2"/>
			<g>
				<g>
					
						<rect x="236.9" y="105.3" transform="matrix(0.7225 -0.6914 0.6914 0.7225 -11.38 196.5793)" class="st2" width="4.6" height="14.4"/>
				</g>
			</g>
		</g>
	</g>
</g>
<g>
	<g>
		<g>
			
				<rect x="272.6" y="147.8" transform="matrix(0.309 -0.9511 0.9511 0.309 44.2867 372.8419)" class="st3" width="12.2" height="16.2"/>
			<g>
				<g>
					
						<rect x="276.4" y="148.8" transform="matrix(0.7225 -0.6914 0.6914 0.7225 -30.4847 235.9885)" class="st2" width="4.6" height="14.4"/>
				</g>
			</g>
		</g>
	</g>
</g>
<g>
	<g>
		<g>
			
				<rect x="114" y="227.3" transform="matrix(0.309 -0.9511 0.9511 0.309 -140.865 276.8654)" class="st3" width="12.2" height="16.2"/>
			<g>
				<g>
					
						<rect x="117.8" y="228.2" transform="matrix(0.7225 -0.6914 0.6914 0.7225 -129.415 148.3377)" class="st2" width="4.6" height="14.4"/>
				</g>
			</g>
		</g>
	</g>
</g>
<g>
	<g>
		<g>
			
				<rect x="157.9" y="24.9" transform="matrix(0.9991 -4.312159e-02 4.312159e-02 0.9991 -1.1813 7.185)" class="st3" width="16.2" height="12.2"/>
			<g>
				<g>
					
						<rect x="163.6" y="23.7" transform="matrix(0.4351 -0.9004 0.9004 0.4351 65.8699 166.8829)" class="st2" width="4.6" height="14.4"/>
				</g>
			</g>
		</g>
		<g>
			
				<rect x="92.5" y="145" transform="matrix(0.1837 -0.983 0.983 0.1837 -66.3793 222.2128)" class="st3" width="16.2" height="12.2"/>
			<g>
				<g>
					
						<rect x="93.4" y="148.8" transform="matrix(0.6272 -0.7788 0.7788 0.6272 -80.1737 134.647)" class="st2" width="14.4" height="4.6"/>
				</g>
			</g>
		</g>
	</g>
</g>
<g>
	<g>
		<g>
			
				<rect x="402.5" y="153.9" transform="matrix(0.1363 -0.9907 0.9907 0.1363 196.1074 544.9261)" class="st3" width="16.2" height="12.2"/>
			<g>
				<g>
					
						<rect x="403.4" y="157.7" transform="matrix(0.5891 -0.808 0.808 0.5891 39.3891 397.4897)" class="st2" width="14.4" height="4.6"/>
				</g>
			</g>
		</g>
		<g>
			
				<rect x="321.9" y="44.1" transform="matrix(0.4213 -0.9069 0.9069 0.4213 142.4675 327.7239)" class="st3" width="12.2" height="16.2"/>
			<g>
				<g>
					
						<rect x="325.7" y="45" transform="matrix(0.8005 -0.5994 0.5994 0.8005 34.1656 207.0232)" class="st2" width="4.6" height="14.4"/>
				</g>
			</g>
		</g>
		<g>
			
				<rect x="227.1" y="51.4" transform="matrix(0.1156 -0.9933 0.9933 0.1156 147.0657 284.262)" class="st3" width="12.2" height="16.2"/>
			<g>
				<g>
					
						<rect x="230.9" y="52.3" transform="matrix(0.5722 -0.8201 0.8201 0.5722 50.9882 216.6934)" class="st2" width="4.6" height="14.4"/>
				</g>
			</g>
		</g>
	</g>
</g>
<g>
	<g>
		<g>
			
				<rect x="1180.5" y="77" transform="matrix(0.846 -0.5332 0.5332 0.846 137.3906 645.8047)" class="st3" width="12.2" height="16.2"/>
			<g>
				<g>
					
						<rect x="1184.3" y="77.8" transform="matrix(0.9976 -6.910897e-02 6.910897e-02 0.9976 -3.0374 82.207)" class="st2" width="4.6" height="14.4"/>
				</g>
			</g>
		</g>
		<g>
			
				<rect x="1069.5" y="43.7" transform="matrix(0.2146 -0.9767 0.9767 0.2146 794.1782 1091.199)" class="st3" width="12.2" height="16.2"/>
			<g>
				<g>
					
						<rect x="1073.3" y="44.6" transform="matrix(0.6515 -0.7587 0.7587 0.6515 335.6115 834.074)" class="st2" width="4.6" height="14.4"/>
				</g>
			</g>
		</g>
	</g>
</g>
<g>
	<g>
		<g>
			
				<rect x="748.3" y="137.5" transform="matrix(0.8887 -0.4584 0.4584 0.8887 18.3195 362.7094)" class="st3" width="16.2" height="12.2"/>
			<g>
				<g>
					
						<rect x="754.1" y="136.4" transform="matrix(1.701347e-02 -0.9999 0.9999 1.701347e-02 599.9559 897.3589)" class="st2" width="4.6" height="14.4"/>
				</g>
			</g>
		</g>
	</g>
</g>
<g>
	<g>
		<g>
			
				<rect x="923.7" y="102.5" transform="matrix(0.309 -0.9511 0.9511 0.309 537.3885 960.7402)" class="st3" width="12.2" height="16.2"/>
			<g>
				<g>
					
						<rect x="927.6" y="103.4" transform="matrix(0.7225 -0.6914 0.6914 0.7225 181.613 673.5848)" class="st2" width="4.6" height="14.4"/>
				</g>
			</g>
		</g>
	</g>
</g>
<rect x="576.7" y="162.6" transform="matrix(0.2993 -0.9542 0.9542 0.2993 245.4663 675.6557)" class="st3" width="12.2" height="16.2"/>
<g>
	<g>
		
			<rect x="580.4" y="163.5" transform="matrix(0.7154 -0.6987 0.6987 0.7154 46.5515 455.7412)" class="st2" width="4.6" height="14.4"/>
	</g>
</g>
<rect x="651.5" y="162.3" transform="matrix(0.3652 -0.9309 0.9309 0.3652 258.8382 720.3705)" class="st3" width="12.2" height="16.2"/>
<g>
	<g>
		
			<rect x="650.5" y="168.1" transform="matrix(0.3563 -0.9344 0.9344 0.3563 264.084 724.1698)" class="st2" width="14.4" height="4.6"/>
	</g>
</g>
<rect x="729.9" y="167" transform="matrix(0.3652 -0.9309 0.9309 0.3652 304.2698 796.3311)" class="st3" width="12.2" height="16.2"/>
<g>
	<g>
		
			<rect x="733.9" y="167.9" transform="matrix(0.7625 -0.647 0.647 0.7625 61.5458 517.8839)" class="st2" width="4.6" height="14.4"/>
	</g>
</g>
<g>
	<g>
		<g>
			
				<rect x="197.3" y="87.5" transform="matrix(0.309 -0.9511 0.9511 0.309 49.6781 259.5109)" class="st3" width="12.2" height="16.2"/>
			<g>
				<g>
					
						<rect x="201.1" y="88.4" transform="matrix(0.7225 -0.6914 0.6914 0.7225 -9.633 167.1688)" class="st2" width="4.6" height="14.4"/>
				</g>
			</g>
		</g>
	</g>
</g>
<g>
	<g>
		<g>
			
				<rect x="190.5" y="143.5" transform="matrix(0.9258 -0.3781 0.3781 0.9258 -42.7312 85.5941)" class="st3" width="12.2" height="16.2"/>
			<g>
				<g>
					
						<rect x="189.5" y="149.3" transform="matrix(0.1053 -0.9944 0.9944 0.1053 25.1573 331.2178)" class="st2" width="14.4" height="4.6"/>
				</g>
			</g>
		</g>
	</g>
</g>
<g>
	<g>
		<g>
			
				<rect x="196.2" y="154.9" transform="matrix(0.6401 -0.7683 0.7683 0.6401 -52.4417 214.1066)" class="st3" width="12.2" height="16.2"/>
			<g>
				<g>
					
						<rect x="200" y="155.8" transform="matrix(0.9276 -0.3736 0.3736 0.9276 -46.2539 87.3833)" class="st2" width="4.6" height="14.4"/>
				</g>
			</g>
		</g>
	</g>
</g>
<g>
	<g>
		<g>
			
				<rect x="242.6" y="463.4" transform="matrix(0.6401 -0.7683 0.7683 0.6401 -272.7358 360.7849)" class="st3" width="12.2" height="16.2"/>
			<g>
				<g>
					
						<rect x="246.4" y="464.3" transform="matrix(0.9276 -0.3736 0.3736 0.9276 -158.1375 127.0586)" class="st2" width="4.6" height="14.4"/>
				</g>
			</g>
		</g>
	</g>
</g>
<g>
	<g>
		<g>
			
				<rect x="1142.6" y="136.2" transform="matrix(0.309 -0.9511 0.9511 0.309 656.563 1192.2419)" class="st3" width="12.2" height="16.2"/>
			<g>
				<g>
					
						<rect x="1146.4" y="137.1" transform="matrix(0.7225 -0.6914 0.6914 0.7225 219.0323 834.2564)" class="st2" width="4.6" height="14.4"/>
				</g>
			</g>
		</g>
	</g>
</g>
<g>
	<g>
		<g>
			
				<rect x="510.8" y="533.1" transform="matrix(0.3023 -0.9532 0.9532 0.3023 -151.9378 870.802)" class="st3" width="16.2" height="12.2"/>
			<g>
				<g>
					
						<rect x="511.7" y="536.9" transform="matrix(0.7176 -0.6964 0.6964 0.7176 -228.9935 513.6122)" class="st2" width="14.4" height="4.6"/>
				</g>
			</g>
		</g>
	</g>
</g>
<g>
	<g>
		<g>
			
				<rect x="455.1" y="257" transform="matrix(0.309 -0.9511 0.9511 0.309 66.5406 621.8497)" class="st3" width="12.2" height="16.2"/>
			<g>
				<g>
					
						<rect x="458.9" y="257.9" transform="matrix(0.7225 -0.6914 0.6914 0.7225 -55.3107 392.4428)" class="st2" width="4.6" height="14.4"/>
				</g>
			</g>
		</g>
	</g>
</g>
<g>
	<g>
		<g>
			
				<rect x="315.9" y="176.1" transform="matrix(0.309 -0.9511 0.9511 0.309 47.3545 433.4789)" class="st3" width="12.2" height="16.2"/>
			<g>
				<g>
					
						<rect x="319.7" y="177" transform="matrix(0.7225 -0.6914 0.6914 0.7225 -37.971 273.7343)" class="st2" width="4.6" height="14.4"/>
				</g>
			</g>
		</g>
	</g>
</g>
<g>
	<g>
		<g>
			
				<rect x="1175.3" y="284.6" transform="matrix(0.309 -0.9511 0.9511 0.309 538.0246 1325.8634)" class="st3" width="12.2" height="16.2"/>
			<g>
				<g>
					
						<rect x="1179.1" y="285.5" transform="matrix(0.7225 -0.6914 0.6914 0.7225 125.5032 898.0621)" class="st2" width="4.6" height="14.4"/>
				</g>
			</g>
		</g>
	</g>
</g>
</svg>
