<?xml version="1.0" encoding="utf-8"?>
<!-- Generator: Adobe Illustrator 21.0.2, SVG Export Plug-In . SVG Version: 6.00 Build 0)  -->
<svg version="1.1" id="Layer_1" xmlns="http://www.w3.org/2000/svg" xmlns:xlink="http://www.w3.org/1999/xlink" x="0px" y="0px"
	 viewBox="0 0 1309.6 728" style="enable-background:new 0 0 1309.6 728;" xml:space="preserve">
<style type="text/css">
	.st0{fill:#E5D4F4;stroke:#3F3F3F;stroke-miterlimit:10;}
	.st1{fill:#E5D4F4;}
	.st2{fill:#E5D4F4;stroke:#3F3F3F;stroke-width:0.9052;stroke-miterlimit:10;}
	.st3{fill:none;}
	.st4{fill:#DECCED;stroke:#3F3F3F;stroke-miterlimit:10;}
</style>
<title>confetti-purple-2</title>
<rect x="390.6" y="264.9" transform="matrix(0.9636 -0.2674 0.2674 0.9636 -56.9565 116.0591)" class="st0" width="14.1" height="4.5"/>
<rect x="269.7" y="148" transform="matrix(0.8536 -0.521 0.521 0.8536 -40.9501 164.3863)" class="st0" width="4.5" height="14.1"/>
<rect x="263" y="361.4" transform="matrix(0.5219 -0.853 0.853 0.5219 -187.5186 402.3938)" class="st0" width="4.5" height="14.1"/>
<rect x="71.7" y="198" transform="matrix(0.4648 -0.8854 0.8854 0.4648 -135.1113 176.8983)" class="st0" width="14.1" height="4.5"/>
<rect x="882.4" y="226.4" transform="matrix(0.9762 -0.2168 0.2168 0.9762 -29.5708 197.3453)" class="st0" width="4.5" height="14.1"/>
<rect x="790.7" y="573.8" transform="matrix(0.3246 -0.9459 0.9459 0.3246 -6.0634 1143.6426)" class="st0" width="14.1" height="4.5"/>
<rect x="458.9" y="434.2" transform="matrix(0.3782 -0.9257 0.9257 0.3782 -114.29 702.6595)" class="st0" width="14.1" height="4.5"/>
<rect x="1085" y="692.7" transform="matrix(0.4538 -0.8911 0.8911 0.4538 -29.6875 1351.0804)" class="st0" width="4.5" height="14.1"/>
<rect x="1143" y="194.6" transform="matrix(0.2484 -0.9687 0.9687 0.2484 673.691 1261.9973)" class="st0" width="14.1" height="4.5"/>
<rect x="933" y="37.3" transform="matrix(0.5162 -0.8564 0.8564 0.5162 414.7966 825.0165)" class="st1" width="9.4" height="16.1"/>
<rect x="935.5" y="38.2" transform="matrix(0.7266 -0.6871 0.6871 0.7266 225.3263 656.684)" class="st0" width="4.5" height="14.1"/>
<rect x="708.7" y="55.4" transform="matrix(0.8479 -0.5302 0.5302 0.8479 74.8836 387.8992)" class="st1" width="9.4" height="16.1"/>
<rect x="711.1" y="56.3" transform="matrix(0.9588 -0.2842 0.2842 0.9588 11.4111 205.3471)" class="st0" width="4.5" height="14.1"/>
<rect x="1208" y="50.2" transform="matrix(0.8149 -0.5796 0.5796 0.8149 190.825 712.0723)" class="st0" width="4.5" height="14.1"/>
<rect x="465" y="9.7" transform="matrix(0.5264 -0.8503 0.8503 0.5264 207.3582 407.7324)" class="st1" width="9.4" height="16.1"/>
<rect x="467.4" y="10.7" transform="matrix(0.7347 -0.6784 0.6784 0.7347 112.5582 323.3282)" class="st0" width="4.5" height="14.1"/>
<rect x="747.3" y="244.8" transform="matrix(0.9568 -0.2907 0.2907 0.9568 -40.8417 228.7707)" class="st0" width="4.5" height="14.1"/>
<rect x="595.7" y="145" transform="matrix(0.5171 -0.8559 0.8559 0.5171 158.5572 585.223)" class="st0" width="4.5" height="14.1"/>
<rect x="1166.3" y="264" transform="matrix(0.8762 -0.4819 0.4819 0.8762 13.8444 597.9781)" class="st1" width="9.4" height="16.1"/>
<rect x="1168.7" y="265.1" transform="matrix(0.9732 -0.2299 0.2299 0.9732 -31.2021 276.492)" class="st0" width="4.5" height="14.1"/>
<polygon class="st2" points="41.3,665 44.5,667.2 38.8,679.5 35.5,677.2 "/>
<rect x="407.6" y="23.6" transform="matrix(0.2745 -0.9616 0.9616 0.2745 267.8491 416.3009)" class="st0" width="4.5" height="14.1"/>
<rect x="183.2" y="3.6" transform="matrix(7.828989e-02 -0.9969 0.9969 7.828989e-02 167.9159 198.3016)" class="st1" width="16.1" height="9.4"/>
<rect x="184.1" y="6.2" transform="matrix(0.3422 -0.9396 0.9396 0.3422 117.8049 185.1914)" class="st0" width="14.1" height="4.5"/>
<rect x="1136.6" y="58.2" transform="matrix(0.2294 -0.9733 0.9733 0.2294 822.4236 1159.7129)" class="st0" width="14.1" height="4.5"/>
<rect x="22.9" y="140.8" transform="matrix(0.9691 -0.2468 0.2468 0.9691 -35.711 10.7799)" class="st0" width="4.5" height="14.1"/>
<rect x="1107.9" y="161.5" transform="matrix(0.4324 -0.9017 0.9017 0.4324 478.1645 1096.635)" class="st0" width="4.5" height="14.1"/>
<rect x="877.4" y="101.7" transform="matrix(0.9465 -0.3226 0.3226 0.9465 11.9511 289.5896)" class="st0" width="4.5" height="14.1"/>
<rect x="578.4" y="32.7" transform="matrix(0.6865 -0.7272 0.7272 0.6865 153.1916 436.7458)" class="st1" width="9.4" height="16.1"/>
<rect x="580.7" y="33.7" transform="matrix(0.856 -0.517 0.517 0.856 62.8855 307.2465)" class="st0" width="4.5" height="14.1"/>
<rect x="567.9" y="232.6" transform="matrix(0.6372 -0.7707 0.7707 0.6372 22.1845 526.386)" class="st0" width="4.5" height="14.1"/>
<rect x="1283.1" y="217.2" transform="matrix(0.342 -0.9397 0.9397 0.342 635.053 1355.3568)" class="st0" width="4.5" height="14.1"/>
<rect x="244.3" y="70.1" transform="matrix(0.5315 -0.847 0.847 0.5315 50.1031 244.9751)" class="st0" width="4.5" height="14.1"/>
<rect x="134.9" y="66.8" transform="matrix(0.4942 -0.8693 0.8693 0.4942 10.1314 160.46)" class="st1" width="16.1" height="9.4"/>
<rect x="135.9" y="69.2" transform="matrix(0.7087 -0.7055 0.7055 0.7087 -8.7765 121.6574)" class="st0" width="14.1" height="4.5"/>
<rect x="814.9" y="14.3" transform="matrix(0.9995 -3.210754e-02 3.210754e-02 0.9995 -0.2642 26.2481)" class="st0" width="4.5" height="14.1"/>
<rect x="49.8" y="233.3" transform="matrix(0.9061 -0.4231 0.4231 0.9061 -96.8043 44.5897)" class="st0" width="4.5" height="14.1"/>
<rect x="858.4" y="147.9" transform="matrix(3.559479e-02 -0.9994 0.9994 3.559479e-02 684.5934 1009.6771)" class="st0" width="14.1" height="4.5"/>
<rect x="823.4" y="11" transform="matrix(0.6518 -0.7584 0.7584 0.6518 273.8446 632.4648)" class="st0" width="4.5" height="14.1"/>
<rect x="194.5" y="18" transform="matrix(0.3318 -0.9433 0.9433 0.3318 113.8946 206.2718)" class="st1" width="16.1" height="9.4"/>
<rect x="195.5" y="20.4" transform="matrix(0.5721 -0.8202 0.8202 0.5721 68.0843 175.786)" class="st0" width="14.1" height="4.5"/>
<rect x="1085.5" y="66.6" transform="matrix(0.1927 -0.9813 0.9813 0.1927 814.4524 1127.6458)" class="st0" width="14.1" height="4.5"/>
<rect x="958.3" y="73.2" transform="matrix(0.9845 -0.1752 0.1752 0.9845 0.7977 169.5299)" class="st0" width="4.5" height="14.1"/>
<rect x="1236.6" y="71.7" transform="matrix(0.6528 -0.7576 0.7576 0.6528 370.4863 965.817)" class="st0" width="4.5" height="14.1"/>
<rect x="1204.4" y="187.4" transform="matrix(0.2496 -0.9684 0.9684 0.2496 725.4762 1315.4961)" class="st0" width="14.2" height="4.5"/>
<rect x="833.4" y="230.3" transform="matrix(1 -2.268908e-03 2.268908e-03 1 -0.5364 1.8966)" class="st0" width="4.5" height="14.1"/>
<rect x="207.4" y="299.1" transform="matrix(0.9968 -8.053899e-02 8.053899e-02 0.9968 -23.9772 17.8803)" class="st0" width="4.5" height="14.1"/>
<rect x="240.1" y="97.8" transform="matrix(0.7955 -0.606 0.606 0.7955 -13.9653 168.3152)" class="st0" width="4.5" height="14.1"/>
<rect x="63.9" y="479" transform="matrix(0.4221 -0.9065 0.9065 0.4221 -395.2723 342.4151)" class="st0" width="14.1" height="4.5"/>
<g>
	
		<rect x="995.5" y="236.3" transform="matrix(0.2466 -0.9691 0.9691 0.2466 522.5932 1154.1388)" class="st1" width="16.1" height="9.4"/>
	
		<rect x="996.5" y="238.7" transform="matrix(0.4969 -0.8678 0.8678 0.4969 295.7813 992.0673)" class="st0" width="14.1" height="4.5"/>
</g>
<g>
	
		<rect x="460.2" y="91.2" transform="matrix(0.8743 -0.4854 0.4854 0.8743 10.2646 238.1346)" class="st1" width="9.4" height="16.1"/>
	
		<rect x="462.6" y="92.2" transform="matrix(0.9723 -0.2339 0.2339 0.9723 -10.3202 111.4815)" class="st0" width="4.5" height="14.1"/>
</g>
<rect x="168.6" y="204.1" transform="matrix(0.6081 -0.7939 0.7939 0.6081 -100.6937 218.3718)" class="st0" width="4.5" height="14.1"/>
<rect x="163.6" y="387.6" transform="matrix(0.3309 -0.9437 0.9437 0.3309 -253.6874 421.876)" class="st0" width="14.1" height="4.5"/>
<rect x="523.1" y="286" transform="matrix(0.9429 -0.3331 0.3331 0.9429 -67.6138 191.7323)" class="st0" width="4.5" height="14.1"/>
<g>
	
		<rect x="727" y="305.4" transform="matrix(0.5506 -0.8347 0.8347 0.5506 66.8655 749.1321)" class="st0" width="4.5" height="14.1"/>
</g>
<g>
	
		<rect x="938.5" y="314.1" transform="matrix(0.1482 -0.989 0.989 0.1482 484.8173 1207.2415)" class="st1" width="9.4" height="16.1"/>
	
		<rect x="940.9" y="315.1" transform="matrix(0.4073 -0.9133 0.9133 0.4073 264.7494 1052.2783)" class="st0" width="4.5" height="14.1"/>
</g>
<rect x="691.6" y="127.5" transform="matrix(0.4085 -0.9128 0.9128 0.4085 294.8626 714.4753)" class="st0" width="14.1" height="4.5"/>
<g>
	<g>
		<g>
			
				<rect x="603.9" y="274.5" transform="matrix(0.309 -0.9511 0.9511 0.309 156.9933 775.1794)" class="st3" width="16.1" height="10.1"/>
			
				<rect x="604.9" y="277.3" transform="matrix(0.601 -0.7993 0.7993 0.601 20.7352 600.6938)" class="st4" width="14.1" height="4.5"/>
		</g>
	</g>
</g>
<g>
	<g>
		<g>
			
				<rect x="397.9" y="82.8" transform="matrix(0.309 -0.9511 0.9511 0.309 196.9678 446.7801)" class="st3" width="16.1" height="10.1"/>
			
				<rect x="398.9" y="85.7" transform="matrix(0.601 -0.7993 0.7993 0.601 91.6727 359.5235)" class="st4" width="14.1" height="4.5"/>
		</g>
	</g>
</g>
<g>
	<g>
		<g>
			
				<rect x="362.1" y="284.5" transform="matrix(0.309 -0.9511 0.9511 0.309 -19.6373 552.1503)" class="st3" width="16.1" height="10.1"/>
			
				<rect x="363.1" y="287.4" transform="matrix(0.601 -0.7993 0.7993 0.601 -83.7685 411.4267)" class="st4" width="14.1" height="4.5"/>
		</g>
	</g>
</g>
<g>
	<g>
		<g>
			
				<rect x="557.6" y="171.9" transform="matrix(0.5903 -0.8072 0.8072 0.5903 88.8712 529.0736)" class="st3" width="16.1" height="10.1"/>
			
				<rect x="558.5" y="174.8" transform="matrix(0.8203 -0.5719 0.5719 0.8203 0.3604 355.2463)" class="st4" width="14.1" height="4.5"/>
		</g>
		<g>
			
				<rect x="486.3" y="148.5" transform="matrix(0.5903 -0.8072 0.8072 0.5903 78.5501 461.9439)" class="st3" width="16.1" height="10.1"/>
			
				<rect x="487.2" y="151.4" transform="matrix(0.8203 -0.5719 0.5719 0.8203 0.9307 310.2709)" class="st4" width="14.1" height="4.5"/>
		</g>
	</g>
</g>
<g>
	<g>
		<g>
			
				<rect x="349.7" y="342.6" transform="matrix(0.4737 -0.8807 0.8807 0.4737 -117.9015 498.015)" class="st3" width="16.1" height="10.1"/>
			
				<rect x="350.7" y="345.4" transform="matrix(0.7339 -0.6793 0.6793 0.7339 -140.9361 335.5188)" class="st4" width="14.1" height="4.5"/>
		</g>
		<g>
			
				<rect x="423.5" y="356" transform="matrix(0.4737 -0.8807 0.8807 0.4737 -90.8633 570.1043)" class="st3" width="16.1" height="10.1"/>
			
				<rect x="424.5" y="358.8" transform="matrix(0.7339 -0.6793 0.6793 0.7339 -130.4045 389.2346)" class="st4" width="14.1" height="4.5"/>
		</g>
	</g>
</g>
<g>
	<g>
		<g>
			
				<rect x="268.6" y="209.8" transform="matrix(0.2242 -0.9745 0.9745 0.2242 5.198197e-02 435.6657)" class="st3" width="10.1" height="16.1"/>
			
				<rect x="271.4" y="210.8" transform="matrix(0.5284 -0.849 0.849 0.5284 -55.8506 335.0732)" class="st4" width="4.5" height="14.1"/>
		</g>
		<g>
			
				<rect x="267.2" y="272.2" transform="matrix(0.3487 -0.9372 0.9372 0.3487 -85.3228 437.6556)" class="st3" width="10.1" height="16.1"/>
			
				<rect x="270" y="273.2" transform="matrix(0.634 -0.7733 0.7733 0.634 -117.0596 313.0855)" class="st4" width="4.5" height="14.1"/>
		</g>
	</g>
</g>
<g>
	<g>
		<g>
			
				<rect x="76" y="42.7" transform="matrix(0.309 -0.9511 0.9511 0.309 12.6031 112.9192)" class="st3" width="16.1" height="10.1"/>
			
				<rect x="76.9" y="45.6" transform="matrix(0.601 -0.7993 0.7993 0.601 -4.7614 86.2184)" class="st4" width="14.1" height="4.5"/>
		</g>
	</g>
</g>
<g>
	<g>
		<g>
			
				<rect x="80.3" y="256" transform="matrix(0.309 -0.9511 0.9511 0.309 -187.2504 264.3775)" class="st3" width="16.1" height="10.1"/>
			
				<rect x="81.2" y="258.8" transform="matrix(0.601 -0.7993 0.7993 0.601 -173.425 174.745)" class="st4" width="14.1" height="4.5"/>
		</g>
	</g>
</g>
<g>
	<g>
		<g>
			
				<rect x="682.5" y="314.5" transform="matrix(0.309 -0.9511 0.9511 0.309 173.266 877.6236)" class="st3" width="16.1" height="10.1"/>
			
				<rect x="683.5" y="317.4" transform="matrix(0.601 -0.7993 0.7993 0.601 20.052 679.5056)" class="st4" width="14.1" height="4.5"/>
		</g>
	</g>
</g>
<g>
	<g>
		<g>
			
				<rect x="616.8" y="517.8" transform="matrix(0.309 -0.9511 0.9511 0.309 -65.4988 955.5078)" class="st3" width="16.1" height="10.1"/>
			
				<rect x="617.8" y="520.6" transform="matrix(0.601 -0.7993 0.7993 0.601 -168.5826 708.0186)" class="st4" width="14.1" height="4.5"/>
		</g>
	</g>
</g>
<g>
	<g>
		<g>
			
				<rect x="910.7" y="297.5" transform="matrix(0.4675 -0.884 0.884 0.4675 221.7477 973.2718)" class="st3" width="16.1" height="10.1"/>
			
				<rect x="911.7" y="300.3" transform="matrix(0.7291 -0.6844 0.6844 0.7291 41.81 710.7307)" class="st4" width="14.1" height="4.5"/>
		</g>
	</g>
</g>
<g>
	<g>
		<g>
			
				<rect x="1121.8" y="449" transform="matrix(0.309 -0.9511 0.9511 0.309 348.8761 1388.2821)" class="st3" width="16.1" height="10.1"/>
			
				<rect x="1122.8" y="451.8" transform="matrix(0.601 -0.7993 0.7993 0.601 87.9114 1084.2499)" class="st4" width="14.1" height="4.5"/>
		</g>
	</g>
</g>
<g>
	<g>
		<g>
			
				<rect x="791.2" y="394.7" transform="matrix(0.309 -0.9511 0.9511 0.309 172.1698 1036.3845)" class="st3" width="16.1" height="10.1"/>
			
				<rect x="792.3" y="397.5" transform="matrix(0.601 -0.7993 0.7993 0.601 -0.5288 798.3779)" class="st4" width="14.1" height="4.5"/>
		</g>
	</g>
</g>
<g>
	<g>
		<g>
			
				<rect x="777" y="9.8" transform="matrix(0.309 -0.9511 0.9511 0.309 528.3073 756.8845)" class="st3" width="16.1" height="10.1"/>
			
				<rect x="778" y="12.6" transform="matrix(0.601 -0.7993 0.7993 0.601 301.3558 633.4084)" class="st4" width="14.1" height="4.5"/>
		</g>
	</g>
</g>
<g>
	<g>
		<g>
			
				<rect x="366.4" y="88.5" transform="matrix(0.309 -0.9511 0.9511 0.309 169.7386 420.7856)" class="st3" width="16.1" height="10.1"/>
			
				<rect x="367.4" y="91.3" transform="matrix(0.601 -0.7993 0.7993 0.601 74.6077 336.6428)" class="st4" width="14.1" height="4.5"/>
		</g>
	</g>
</g>
<g>
	<g>
		<g>
			
				<rect x="1038.8" y="205.3" transform="matrix(0.309 -0.9511 0.9511 0.309 523.3256 1140.9858)" class="st3" width="16.1" height="10.1"/>
			
				<rect x="1039.8" y="208.1" transform="matrix(0.601 -0.7993 0.7993 0.601 249.5847 920.6919)" class="st4" width="14.1" height="4.5"/>
		</g>
	</g>
</g>
<g>
	<g>
		<g>
			
				<rect x="788.4" y="28.5" transform="matrix(0.309 -0.9511 0.9511 0.309 518.4786 780.6396)" class="st3" width="16.1" height="10.1"/>
			
				<rect x="789.4" y="31.3" transform="matrix(0.601 -0.7993 0.7993 0.601 291.0179 649.9722)" class="st4" width="14.1" height="4.5"/>
		</g>
	</g>
</g>
<g>
	<g>
		<g>
			
				<rect x="1021.6" y="117.2" transform="matrix(0.309 -0.9511 0.9511 0.309 595.273 1063.71)" class="st3" width="16.1" height="10.1"/>
			
				<rect x="1022.6" y="120" transform="matrix(0.601 -0.7993 0.7993 0.601 313.1845 871.7557)" class="st4" width="14.1" height="4.5"/>
		</g>
	</g>
</g>
<g>
	<g>
		<g>
			
				<rect x="726.9" y="121.4" transform="matrix(0.309 -0.9511 0.9511 0.309 387.5515 786.3972)" class="st3" width="16.1" height="10.1"/>
			
				<rect x="727.9" y="124.3" transform="matrix(0.601 -0.7993 0.7993 0.601 192.1573 637.9216)" class="st4" width="14.1" height="4.5"/>
		</g>
	</g>
</g>
<g>
	<g>
		<g>
			
				<rect x="809.8" y="198.7" transform="matrix(0.309 -0.9511 0.9511 0.309 371.425 918.6281)" class="st3" width="16.1" height="10.1"/>
			
				<rect x="810.9" y="201.5" transform="matrix(0.601 -0.7993 0.7993 0.601 163.5509 735.0276)" class="st4" width="14.1" height="4.5"/>
		</g>
	</g>
</g>
<g>
	<g>
		<g>
			
				<rect x="370.8" y="185.2" transform="matrix(0.8025 -0.5966 0.5966 0.8025 -38.7034 263.5945)" class="st3" width="16.1" height="10.1"/>
			
				<rect x="371.8" y="188" transform="matrix(0.9527 -0.3038 0.3038 0.9527 -39.8969 124.0869)" class="st4" width="14.1" height="4.5"/>
		</g>
		<g>
			
				<rect x="447.8" y="232" transform="matrix(0.6981 -0.716 0.716 0.6981 -32.0836 397.9334)" class="st3" width="16.1" height="10.1"/>
			
				<rect x="448.8" y="234.8" transform="matrix(0.8927 -0.4506 0.4506 0.8927 -57.909 230.8335)" class="st4" width="14.1" height="4.5"/>
		</g>
		<g>
			
				<rect x="532.4" y="262.9" transform="matrix(0.5762 -0.8173 0.8173 0.5762 10.0092 555.2692)" class="st3" width="16.1" height="10.1"/>
			
				<rect x="533.4" y="265.7" transform="matrix(0.8103 -0.5861 0.5861 0.8103 -54.4842 367.5872)" class="st4" width="14.1" height="4.5"/>
		</g>
	</g>
</g>
<g>
	<g>
		<g>
			
				<rect x="339.8" y="159.9" transform="matrix(0.6427 -0.7661 0.7661 0.6427 -5.4651 324.1837)" class="st3" width="10.1" height="16.1"/>
			
				<rect x="342.6" y="160.9" transform="matrix(0.8565 -0.5161 0.5161 0.8565 -37.1921 202.0609)" class="st4" width="4.5" height="14.1"/>
		</g>
	</g>
</g>
<g>
	<g>
		<g>
			
				<rect x="611.5" y="390.9" transform="matrix(0.6427 -0.7661 0.7661 0.6427 -85.3406 614.858)" class="st3" width="10.1" height="16.1"/>
			
				<rect x="614.3" y="391.9" transform="matrix(0.8565 -0.5161 0.5161 0.8565 -117.414 375.4087)" class="st4" width="4.5" height="14.1"/>
		</g>
	</g>
</g>
<g>
	<g>
		<g>
			
				<rect x="1020.2" y="69.9" transform="matrix(0.309 -0.9511 0.9511 0.309 639.2225 1029.7262)" class="st3" width="16.1" height="10.1"/>
			
				<rect x="1021.2" y="72.7" transform="matrix(0.601 -0.7993 0.7993 0.601 350.3735 851.7872)" class="st4" width="14.1" height="4.5"/>
		</g>
	</g>
</g>
<g>
	<g>
		<g>
			
				<rect x="692.6" y="88.5" transform="matrix(0.309 -0.9511 0.9511 0.309 395.1597 730.9971)" class="st3" width="16.1" height="10.1"/>
			
				<rect x="693.6" y="91.3" transform="matrix(0.601 -0.7993 0.7993 0.601 204.7859 597.3573)" class="st4" width="14.1" height="4.5"/>
		</g>
	</g>
</g>
<g>
	<g>
		<g>
			
				<rect x="672.5" y="181.6" transform="matrix(0.309 -0.9511 0.9511 0.309 292.8037 776.2442)" class="st3" width="16.1" height="10.1"/>
			
				<rect x="673.5" y="184.4" transform="matrix(0.601 -0.7993 0.7993 0.601 122.4036 618.4532)" class="st4" width="14.1" height="4.5"/>
		</g>
	</g>
</g>
<g>
	<g>
		<g>
			
				<rect x="1150.4" y="327.4" transform="matrix(0.309 -0.9511 0.9511 0.309 484.2868 1331.4709)" class="st3" width="16.1" height="10.1"/>
			
				<rect x="1151.4" y="330.2" transform="matrix(0.601 -0.7993 0.7993 0.601 196.5129 1058.5944)" class="st4" width="14.1" height="4.5"/>
		</g>
	</g>
</g>
<g>
	<g>
		<g>
			
				<rect x="974.4" y="101.4" transform="matrix(0.309 -0.9511 0.9511 0.309 577.6408 1007.9724)" class="st3" width="16.1" height="10.1"/>
			
				<rect x="975.5" y="104.2" transform="matrix(0.601 -0.7993 0.7993 0.601 306.9268 827.7752)" class="st4" width="14.1" height="4.5"/>
		</g>
	</g>
</g>
<g>
	<g>
		<g>
			
				<rect x="875.9" y="134.8" transform="matrix(0.7597 -0.6503 0.6503 0.7597 118.8091 607.1954)" class="st3" width="10.1" height="16.1"/>
			
				<rect x="878.7" y="135.8" transform="matrix(0.9296 -0.3685 0.3685 0.9296 9.3598 334.6768)" class="st4" width="4.5" height="14.1"/>
		</g>
	</g>
</g>
<g>
	<g>
		<g>
			
				<rect x="1262" y="45.6" transform="matrix(0.309 -0.9511 0.9511 0.309 829.4613 1242.8762)" class="st3" width="16.1" height="10.1"/>
			
				<rect x="1263" y="48.4" transform="matrix(0.601 -0.7993 0.7993 0.601 466.3109 1035.351)" class="st4" width="14.1" height="4.5"/>
		</g>
	</g>
</g>
<g>
	<g>
		<g>
			
				<rect x="1240.5" y="387.5" transform="matrix(0.309 -0.9511 0.9511 0.309 489.3955 1458.7365)" class="st3" width="16.1" height="10.1"/>
			
				<rect x="1241.5" y="390.4" transform="matrix(0.601 -0.7993 0.7993 0.601 184.425 1154.6178)" class="st4" width="14.1" height="4.5"/>
		</g>
	</g>
</g>
<g>
	<g>
		<g>
			
				<rect x="943.2" y="365.3" transform="matrix(0.998 -6.380252e-02 6.380252e-02 0.998 -21.8894 61.2637)" class="st3" width="10.1" height="16.1"/>
			
				<rect x="941.2" y="371.1" transform="matrix(0.2636 -0.9646 0.9646 0.2636 338.1046 1189.6482)" class="st4" width="14.1" height="4.5"/>
		</g>
	</g>
</g>
<g>
	<g>
		<g>
			
				<rect x="285.5" y="444.9" transform="matrix(0.8396 -0.5433 0.5433 0.8396 -197.3305 231.6793)" class="st3" width="16.1" height="10.1"/>
			
				<rect x="286.4" y="447.7" transform="matrix(0.9704 -0.2413 0.2413 0.9704 -99.9085 84.1036)" class="st4" width="14.1" height="4.5"/>
		</g>
	</g>
</g>
<g>
	<g>
		<g>
			
				<rect x="363.5" y="609.3" transform="matrix(0.309 -0.9511 0.9511 0.309 -327.559 777.877)" class="st3" width="16.1" height="10.1"/>
			
				<rect x="364.5" y="612.1" transform="matrix(0.601 -0.7993 0.7993 0.601 -342.7844 542.1115)" class="st4" width="14.1" height="4.5"/>
		</g>
	</g>
</g>
<g>
	<g>
		<g>
			
				<rect x="204.4" y="81.3" transform="matrix(0.4316 -0.9021 0.9021 0.4316 42.892 240.7229)" class="st3" width="16.1" height="10.1"/>
			
				<rect x="205.4" y="84.1" transform="matrix(0.7011 -0.7131 0.7131 0.7011 1.9518 177.3255)" class="st4" width="14.1" height="4.5"/>
		</g>
		<g>
			
				<rect x="130" y="71.4" transform="matrix(0.4316 -0.9021 0.9021 0.4316 9.5202 167.9949)" class="st3" width="16.1" height="10.1"/>
			
				<rect x="131" y="74.2" transform="matrix(0.7011 -0.7131 0.7131 0.7011 -13.2405 121.3126)" class="st4" width="14.1" height="4.5"/>
		</g>
	</g>
</g>
<g>
	<g>
		<g>
			
				<rect x="981.2" y="275.2" transform="matrix(0.1455 -0.9894 0.9894 0.1455 568.0392 1218.2172)" class="st3" width="16.1" height="10.1"/>
			
				<rect x="982.3" y="278" transform="matrix(0.4588 -0.8886 0.8886 0.4588 286.3858 1030.7474)" class="st4" width="14.1" height="4.5"/>
		</g>
		<g>
			
				<rect x="1043.4" y="273.7" transform="matrix(0.2764 -0.961 0.961 0.2764 492.948 1212.2064)" class="st3" width="16.1" height="10.1"/>
			
				<rect x="1044.3" y="276.6" transform="matrix(0.5733 -0.8193 0.8193 0.5733 220.0721 980.3659)" class="st4" width="14.1" height="4.5"/>
		</g>
	</g>
</g>
<g>
	<g>
		<g>
			
				<rect x="128.9" y="121.5" transform="matrix(0.309 -0.9511 0.9511 0.309 -25.6832 217.6643)" class="st3" width="16.1" height="10.1"/>
			
				<rect x="129.9" y="124.3" transform="matrix(0.601 -0.7993 0.7993 0.601 -46.4733 159.9503)" class="st4" width="14.1" height="4.5"/>
		</g>
	</g>
</g>
<g>
	<g>
		<g>
			
				<rect x="487.3" y="84.3" transform="matrix(0.9892 -0.1467 0.1467 0.9892 -7.7472 73.6354)" class="st3" width="16.1" height="10.1"/>
			
				<rect x="493.1" y="82.3" transform="matrix(0.1823 -0.9832 0.9832 0.1823 317.2144 560.1493)" class="st4" width="4.5" height="14.1"/>
		</g>
		<g>
			
				<rect x="531.5" y="158.8" transform="matrix(0.9638 -0.2666 0.2666 0.9638 -24.1537 149.7711)" class="st3" width="16.1" height="10.1"/>
			
				<rect x="537.3" y="156.8" transform="matrix(6.069300e-02 -0.9982 0.9982 6.069300e-02 343.1945 692.4914)" class="st4" width="4.5" height="14.1"/>
		</g>
		<g>
			
				<rect x="662.5" y="241.5" transform="matrix(0.3926 -0.9197 0.9197 0.3926 180.5852 766.4792)" class="st3" width="16.1" height="10.1"/>
			
				<rect x="663.5" y="244.3" transform="matrix(0.6698 -0.7425 0.7425 0.6698 38.3596 579.2863)" class="st4" width="14.1" height="4.5"/>
		</g>
	</g>
</g>
<g>
	<g>
		<g>
			
				<rect x="1129.7" y="100.5" transform="matrix(0.9438 -0.3306 0.3306 0.9438 29.0805 382.071)" class="st3" width="16.1" height="10.1"/>
			
				<rect x="1130.7" y="103.3" transform="matrix(1 -6.353798e-03 6.353798e-03 1 -0.6477 7.2313)" class="st4" width="14.1" height="4.5"/>
		</g>
		<g>
			
				<rect x="1229.7" y="171.5" transform="matrix(0.6607 -0.7507 0.7507 0.6607 287.4246 989.0526)" class="st3" width="16.1" height="10.1"/>
			
				<rect x="1230.6" y="174.4" transform="matrix(0.8685 -0.4956 0.4956 0.8685 75.159 636.6052)" class="st4" width="14.1" height="4.5"/>
		</g>
	</g>
</g>
<g>
	<g>
		<g>
			
				<rect x="532.3" y="54.2" transform="matrix(0.309 -0.9511 0.9511 0.309 316.9887 554.8356)" class="st3" width="16.1" height="10.1"/>
			
				<rect x="533.3" y="57" transform="matrix(0.601 -0.7993 0.7993 0.601 168.2385 455.5186)" class="st4" width="14.1" height="4.5"/>
		</g>
	</g>
</g>
<g>
	<g>
		<g>
			
				<rect x="546.4" y="249" transform="matrix(0.309 -0.9511 0.9511 0.309 136.5704 702.116)" class="st3" width="10.1" height="16.1"/>
			
				<rect x="549.2" y="250" transform="matrix(0.601 -0.7993 0.7993 0.601 14.5642 543.369)" class="st4" width="4.5" height="14.1"/>
		</g>
	</g>
</g>
<g>
	<g>
		<g>
			
				<rect x="641.1" y="9.8" transform="matrix(0.309 -0.9511 0.9511 0.309 434.4003 627.6237)" class="st3" width="16.1" height="10.1"/>
			
				<rect x="642.1" y="12.6" transform="matrix(0.601 -0.7993 0.7993 0.601 247.1295 524.7801)" class="st4" width="14.1" height="4.5"/>
		</g>
	</g>
</g>
<g>
	<g>
		<g>
			
				<rect x="792.7" y="88.8" transform="matrix(0.9961 -8.805553e-02 8.805553e-02 0.9961 -5.429 70.6213)" class="st3" width="10.1" height="16.1"/>
			
				<rect x="790.6" y="94.5" transform="matrix(0.24 -0.9708 0.9708 0.24 512.2775 847.9344)" class="st4" width="14.1" height="4.5"/>
		</g>
		<g>
			
				<rect x="711" y="131.9" transform="matrix(0.9635 -0.2677 0.2677 0.9635 -11.326 196.7923)" class="st3" width="10.1" height="16.1"/>
			
				<rect x="709" y="137.7" transform="matrix(5.957720e-02 -0.9982 0.9982 5.957720e-02 533.7318 846.4078)" class="st4" width="14.1" height="4.5"/>
		</g>
		<g>
			
				<rect x="627.9" y="210.8" transform="matrix(0.7664 -0.6424 0.6424 0.7664 7.3214 457.7324)" class="st3" width="10.1" height="16.1"/>
			
				<rect x="630.7" y="211.8" transform="matrix(0.9334 -0.3588 0.3588 0.9334 -36.377 241.6801)" class="st4" width="4.5" height="14.1"/>
		</g>
	</g>
</g>
<g>
	<g>
		<g>
			
				<rect x="1115.2" y="359.4" transform="matrix(0.6224 -0.7827 0.7827 0.6224 138.8536 1016.7618)" class="st3" width="16.1" height="10.1"/>
			
				<rect x="1116.2" y="362.2" transform="matrix(0.8428 -0.5383 0.5383 0.8428 -19.5692 661.9419)" class="st4" width="14.1" height="4.5"/>
		</g>
	</g>
</g>
<g>
	<g>
		<g>
			
				<rect x="1085.7" y="151.9" transform="matrix(0.2351 -0.972 0.972 0.2351 684.0535 1183.2087)" class="st3" width="16.1" height="10.1"/>
			
				<rect x="1086.8" y="154.8" transform="matrix(0.5379 -0.843 0.843 0.5379 373.0602 994.684)" class="st4" width="14.1" height="4.5"/>
		</g>
	</g>
</g>
<g>
	<g>
		<g>
			
				<rect x="281.5" y="111.4" transform="matrix(0.8998 -0.4364 0.4364 0.8998 -21.79 138.0355)" class="st3" width="16.1" height="10.1"/>
			
				<rect x="282.5" y="114.2" transform="matrix(0.9927 -0.1207 0.1207 0.9927 -11.938 35.8004)" class="st4" width="14.1" height="4.5"/>
		</g>
		<g>
			
				<rect x="243.1" y="61.8" transform="matrix(0.9476 -0.3193 0.3193 0.9476 -8.1956 83.695)" class="st3" width="16.1" height="10.1"/>
			
				<rect x="248.9" y="59.7" transform="matrix(5.564425e-03 -1 1 5.564425e-03 182.9869 317.5769)" class="st4" width="4.5" height="14.1"/>
		</g>
	</g>
</g>
<g>
	<g>
		<g>
			
				<rect x="307.7" y="62.8" transform="matrix(0.309 -0.9511 0.9511 0.309 153.6294 347.1676)" class="st3" width="16.1" height="10.1"/>
			
				<rect x="308.7" y="65.6" transform="matrix(0.601 -0.7993 0.7993 0.601 71.7527 279.4344)" class="st4" width="14.1" height="4.5"/>
		</g>
	</g>
</g>
<g>
	<g>
		<g>
			
				<rect x="970.1" y="168.7" transform="matrix(0.309 -0.9511 0.9511 0.309 510.7034 1050.3142)" class="st3" width="16.1" height="10.1"/>
			
				<rect x="971.1" y="171.5" transform="matrix(0.601 -0.7993 0.7993 0.601 251.4701 851.1409)" class="st4" width="14.1" height="4.5"/>
		</g>
	</g>
</g>
</svg>
