<svg xmlns="http://www.w3.org/2000/svg" viewBox="0 0 1920 819"><title>javascript-tutorial-header-wide</title><g id="84667047-3f49-48aa-8f5f-07a48811506c" data-name="bg"><rect y="-12" width="1920.5" height="831.5" fill="#6179cd"/></g><g id="719c94dc-f346-41c1-aca0-4a1368dadb33" data-name="Layer 1"><g id="b40947a2-bcf4-49a1-bbea-671ee3900656" data-name="&lt;Group&gt;"><g id="c48afc3a-b0ac-4c71-a78a-c9e472e1b53c" data-name="&lt;Group&gt;"><path d="M-34.89,48.88C-1.77,1.07,40.6-26.63,59.74-13s7.81,63.48-25.31,111.3S-60.2,160.18-60.2,160.18-68,96.7-34.89,48.88Z" fill="#4fc6b7"/></g><g id="4c131587-b9e9-452a-a29b-bac8f30cb02f" data-name="&lt;Group&gt;" opacity="0.13"><path d="M-34.89,48.88C-68,96.7-60.2,160.18-60.2,160.18L59.74-13C40.6-26.63-1.77,1.07-34.89,48.88Z"/></g></g><g id="cce0ff0b-a4f8-497d-af5d-25671a588ee3" data-name="&lt;Group&gt;"><ellipse cx="1806.68" cy="55.98" rx="136.02" ry="54.81" transform="translate(75.45 575.67) rotate(-18.48)" fill="#4fc6b7"/></g><g id="7b2659db-2326-4068-90f8-81eb0d542285" data-name="&lt;Group&gt;" opacity="0.13"><path d="M1789.3,4c-71.25,23.82-111.62,95.11-111.62,95.11l258-86.24C1926.08-15.86,1860.54-19.82,1789.3,4Z"/></g><g id="22044856-5e3f-4f85-9b08-7e9063573ebd" data-name="&lt;Group&gt;"><rect x="1807.83" y="499.3" width="112.92" height="295.7" rx="50.72" ry="50.72" fill="#3ebdb2"/></g><g id="dcebaac6-bff9-4241-8af8-45e97d9ff009" data-name="&lt;Group&gt;"><path d="M1920.74,738.54V555.76c2.79-33.9-26.37-60.14-56.46-56.46V795A56.62,56.62,0,0,0,1920.74,738.54Z" fill="#34a799"/></g><g id="c1439929-bdff-4d70-9fea-1a771b2f3580" data-name="&lt;Group&gt;"><path d="M1807.17,754.65V653.48a41.81,41.81,0,0,0-41.69-41.69h0a41.81,41.81,0,0,0-41.69,41.69V754.65Z" fill="#3ebdb2"/></g><g id="4f4b15e5-6ce8-4c56-92c5-5f159176d379" data-name="&lt;Group&gt;"><path d="M1807.17,754.65V653.48a41.81,41.81,0,0,0-41.69-41.69V754.65Z" fill="#34a799"/></g><g id="b655b163-6021-474a-a179-fb4e30c97a5d" data-name="&lt;Group&gt;"><g id="b58d89e1-9bea-4993-abfb-8f29640a2cb8" data-name="&lt;Group&gt;"><rect x="1887.92" y="578.7" width="14.87" height="3.07" transform="translate(90.46 1399.63) rotate(-41.44)" fill="#131d32"/></g><g id="b76dace6-a82e-4c00-ac1f-5d5ef3a87c83" data-name="&lt;Group&gt;"><rect x="1833.94" y="645.62" width="14.87" height="3.07" transform="translate(32.67 1380.66) rotate(-41.44)" fill="#131d32"/></g><g id="03a24642-9d54-4377-be66-ab27771ffff0" data-name="&lt;Group&gt;"><rect x="1834.5" y="699.74" width="14.87" height="3.07" transform="translate(-3.01 1394.57) rotate(-41.44)" fill="#131d32"/></g><g id="2076cd64-3bab-4995-a247-6e6f13f1e615" data-name="&lt;Group&gt;"><rect x="1738.12" y="647.47" width="14.87" height="3.07" transform="translate(7.45 1317.7) rotate(-41.44)" fill="#131d32"/></g><g id="6adccb9d-accc-44ca-9616-5ded53ba642c" data-name="&lt;Group&gt;"><rect x="1837.34" y="591.21" width="3.07" height="14.87" transform="translate(173.59 1581.84) rotate(-48.59)" fill="#131d32"/></g><g id="24462a07-1086-4b7b-ab75-a2b50c95a5aa" data-name="&lt;Group&gt;"><rect x="1898.02" y="676.01" width="3.07" height="14.87" transform="translate(130.53 1656.06) rotate(-48.59)" fill="#131d32"/></g><g id="faaccc5b-f00b-40a1-b92e-fbf805728d08" data-name="&lt;Group&gt;"><rect x="1895.5" y="629.09" width="3.07" height="14.87" transform="translate(164.8 1638.16) rotate(-48.59)" fill="#131d32"/></g><g id="e1ee87d9-60a2-470b-b809-437ca4f2dc59" data-name="&lt;Group&gt;"><rect x="1892.44" y="527.86" width="3.07" height="14.87" transform="translate(239.76 1601.72) rotate(-48.59)" fill="#131d32"/></g><g id="bbaa60f7-808a-4690-a8eb-1080635021f8" data-name="&lt;Group&gt;"><rect x="1744.02" y="684" width="3.07" height="14.87" transform="translate(72.41 1543.26) rotate(-48.59)" fill="#131d32"/></g><g id="7d4de82f-3f89-41df-b321-4faa412dbe68" data-name="&lt;Group&gt;"><rect x="1775.97" y="668.54" width="14.87" height="3.07" transform="translate(2.98 1348.03) rotate(-41.44)" fill="#131d32"/></g><g id="ee12831c-1481-4769-8dd9-dcb24a208afb" data-name="&lt;Group&gt;"><rect x="1775.97" y="706.51" width="14.87" height="3.07" transform="translate(-22.15 1357.53) rotate(-41.44)" fill="#131d32"/></g><g id="795db117-363e-4ffd-b41d-95d3ec45e3ed" data-name="&lt;Group&gt;"><rect x="1834.27" y="548.03" width="14.87" height="3.07" transform="translate(97.33 1356.45) rotate(-41.44)" fill="#131d32"/></g></g><circle cx="1654.65" cy="152.35" r="99.65" fill="#ead981"/><path d="M1655.61,52.71V252a99.65,99.65,0,1,0,0-199.29Z" opacity="0.08"/><g id="6e527412-edc6-4ef0-a8b4-24c5f731c675" data-name="&lt;Group&gt;"><g id="9ad2431e-7939-48f0-b505-507f7b41a5e2" data-name="&lt;Group&gt;"><ellipse cx="32.3" cy="172.91" rx="112.35" ry="45.27" transform="translate(-142.19 150.69) rotate(-72.16)" fill="#4fc6b7"/></g><g id="3073190f-ad59-44e3-b01d-94bcba4f87da" data-name="&lt;Group&gt;"><ellipse cx="175.61" cy="62.87" rx="49.53" ry="122.91" transform="translate(46.08 197.08) rotate(-65.71)" fill="#4fc6b7"/></g><g id="6240392c-cc68-491f-b37f-0bdac08ecf8d" data-name="&lt;Group&gt;" opacity="0.13"><path d="M-10.79,159c-19,59.06,8.68,120.81,8.68,120.81L66.72,66C42.92,58.31,8.21,100-10.79,159Z"/></g><g id="26dcb71d-8035-40ac-8b4e-04f2807dd7f1" data-name="&lt;Group&gt;" opacity="0.13"><path d="M164.46,110.36c57.57,24.92,123.94,3.18,123.94,3.18L79.91,23.3C69,46.46,106.88,85.44,164.46,110.36Z"/></g><g id="cfe22512-f70b-4052-8b30-5f0cb8f9f0ca" data-name="&lt;Group&gt;"><ellipse cx="106.83" cy="123.93" rx="57.39" ry="142.42" transform="matrix(0.85, -0.53, 0.53, 0.85, -49.17, 74.58)" fill="#4fc6b7"/></g><g id="322a3eab-1426-494d-80fd-e22b2d3b8506" data-name="&lt;Group&gt;" opacity="0.13"><path d="M58,154.07c41.31,66.93,123.64,91,123.64,91L32,2.74C5.06,19.39,16.68,87.14,58,154.07Z"/></g></g><g id="198bd9f9-d15c-49a9-9dbe-dda6a1dd7fbc" data-name="&lt;Group&gt;"><g id="67a62ad9-7104-4893-aa54-7cbd3f312b2b" data-name="&lt;Group&gt;"><path d="M370.73,648.31h50.76a21,21,0,0,0,20.91-20.91h0a21,21,0,0,0-20.91-20.91H370.73Z" fill="#3ebdb2"/></g><g id="f96815b6-7b19-4904-be6e-7b7500214281" data-name="&lt;Group&gt;"><path d="M451.19,626v-39.9c0-10.58-9.36-19.24-20.8-19.24h0c-11.44,0-20.8,8.66-20.8,19.24V626Z" fill="#3ebdb2"/></g><g id="96767b09-081f-4794-9b56-9932b74679b1" data-name="&lt;Group&gt;"><path d="M451.19,627.39V586.53c0-10.8-9.5-19.63-21.12-19.63v60.49Z" fill="#34a799"/></g><g id="9f95c345-7965-4dd2-83de-0537efb08fa3" data-name="&lt;Group&gt;"><path d="M367.18,649.19h59.49c13.48,0,24.51-10.38,24.51-23.07h-84Z" fill="#34a799"/></g></g><g id="a49fee8a-14f4-4cb5-9a0e-833aa81d575e" data-name="&lt;Group&gt;"><g id="974ffe21-2189-4ca6-b8e6-6c667e10fce2" data-name="&lt;Group&gt;"><path d="M337,626.88H286.24A21,21,0,0,1,265.33,606h0A21,21,0,0,1,286.24,585H337Z" fill="#3ebdb2"/></g><g id="ebe9c4c8-93db-47fb-8919-33fac9e32846" data-name="&lt;Group&gt;"><path d="M256.55,606.06V525.3a20.93,20.93,0,0,1,20.8-20.93h0a20.93,20.93,0,0,1,20.8,20.93v80.76Z" fill="#3ebdb2"/></g><g id="571e26d8-9578-4b8b-8e97-337eea640999" data-name="&lt;Group&gt;"><path d="M256.55,607.54V525.73a21.3,21.3,0,0,1,21.12-21.36V607.54Z" fill="#34a799"/></g><g id="dff31c02-2657-4bc5-8a4c-071e61ccbe22" data-name="&lt;Group&gt;"><path d="M337,627.76H280a23.34,23.34,0,0,1-23.48-23.07H337Z" fill="#34a799"/></g></g><g id="83f68f50-7a3c-4458-8370-2a03e485c268" data-name="&lt;Group&gt;"><rect x="336.32" y="639.63" width="13.79" height="2.84" transform="translate(-338.34 387.62) rotate(-41.44)" fill="#131d32"/></g><g id="f9512812-1fa0-4a99-9142-5dd04a7b15e5" data-name="&lt;Group&gt;"><rect x="314.85" y="470" width="80" height="323.98" rx="40" ry="40" fill="#3ebdb2"/></g><g id="f9779560-f3cc-4c46-8686-c3ffb9bcd66c" data-name="&lt;Group&gt;"><path d="M394.85,732.12V531.86c3.15-36.56-6-58.1-40-61.86V794C377.1,791.42,398.41,784.32,394.85,732.12Z" fill="#34a799"/></g><g id="d6240d0f-47c2-4c21-81ab-761eb2a68c95" data-name="&lt;Group&gt;"><g id="e9daa07b-b1b0-4c1a-85f4-49c20fb20de0" data-name="&lt;Group&gt;"><rect x="367.36" y="576.74" width="13.79" height="2.84" transform="translate(-288.95 392.42) rotate(-41.44)" fill="#131d32"/></g><g id="73432033-7bb8-46ce-930d-ad2ccbe43332" data-name="&lt;Group&gt;"><rect x="328.26" y="688.57" width="13.79" height="2.84" transform="translate(-372.75 394.54) rotate(-41.44)" fill="#131d32"/></g><g id="13e93668-2413-4bd3-9817-f3447c2daba4" data-name="&lt;Group&gt;"><rect x="336.66" y="558.04" width="2.84" height="13.79" transform="translate(-309.24 444.83) rotate(-48.59)" fill="#131d32"/></g><g id="6b98f530-83a6-4a6a-9aa3-90705d1f43a2" data-name="&lt;Group&gt;"><rect x="331.19" y="629.13" width="13.79" height="2.84" transform="translate(-332.55 381.26) rotate(-41.41)" fill="#131d32"/></g><g id="e5b82fde-a217-4dc7-9435-52833d1f28cc" data-name="&lt;Group&gt;"><rect x="365.45" y="525.46" width="13.79" height="2.84" transform="translate(-255.49 378.32) rotate(-41.44)" fill="#131d32"/></g><g id="e09f7312-0061-4b74-8438-e5ec2c7f6154" data-name="&lt;Group&gt;"><rect x="331.19" y="503.31" width="13.79" height="2.84" transform="translate(-249.41 350.1) rotate(-41.44)" fill="#131d32"/></g><g id="81b25d50-842e-449f-9e55-572ae66740cf" data-name="&lt;Group&gt;"><rect x="368.25" y="721.76" width="13.79" height="2.84" transform="translate(-384.7 429.31) rotate(-41.44)" fill="#131d32"/></g><g id="ca8ad1cc-e66d-40ba-9a94-3329caa72e06" data-name="&lt;Group&gt;"><rect x="376.1" y="637.72" width="2.84" height="13.79" transform="translate(-355.65 501.38) rotate(-48.59)" fill="#131d32"/></g></g><g id="3a44e077-6191-48b8-9685-c3f376e802ec" data-name="&lt;Group&gt;"><g id="bd18b582-c29b-4b9c-9581-aa1cc1a0f5e6" data-name="&lt;Group&gt;"><polygon points="428.56 817 281.58 817 260.96 691.64 449.18 691.64 428.56 817" fill="#a7acd9"/></g><g id="3008ead0-614f-4d66-94ed-1b7e370ad9b7" data-name="&lt;Group&gt;"><polygon points="466.62 698.14 446.35 713.45 263.79 713.45 241.77 698.14 466.62 698.14" fill="#7d89bc"/></g><g id="f847dcff-7321-4a9b-8a91-3df8942669d4" data-name="&lt;Group&gt;"><rect x="241.77" y="670.84" width="224.86" height="27.31" fill="#a7acd9"/></g><polygon points="355.57 670.84 355.57 817 428.56 817 445.68 713.45 446.35 713.45 466.62 698.14 466.62 670.84 355.57 670.84" opacity="0.11"/></g><g id="2dbc8eb8-b6fa-4627-bfce-a2c28a0d35d6" data-name="&lt;Group&gt;"><g id="76f6b64d-ecdf-4d71-a85c-52321da8cb6b" data-name="&lt;Group&gt;"><path d="M1940.76,796.07c-37.24,42.27-81.11,64.15-98,48.86s-.37-61.95,36.88-104.22,98-48.86,98-48.86S1978,753.8,1940.76,796.07Z" fill="#4fc6b7"/></g><g id="11e41b1f-a374-4f1a-b8f5-e0ef18f5248a" data-name="&lt;Group&gt;" opacity="0.13"><path d="M1940.76,796.07c37.24-42.27,36.88-104.22,36.88-104.22L1842.77,844.93C1859.65,860.22,1903.52,838.34,1940.76,796.07Z"/></g></g><g id="9898e950-329f-4d3e-8be2-adb1231036a9" data-name="&lt;Group&gt;"><ellipse cx="193.15" cy="763.5" rx="145.23" ry="58.53" transform="translate(-180.15 70.04) rotate(-14.1)" fill="#4fc6b7"/></g><g id="8222d451-d7c4-4fed-b39b-0b3928006688" data-name="&lt;Group&gt;" opacity="0.13"><path d="M207.4,820.26C285.19,800.73,334,728.13,334,728.13L52.3,798.87C60.17,830.22,129.61,839.8,207.4,820.26Z"/></g><g id="b1928c39-a770-44f4-b0f8-e3cc66b03659" data-name="&lt;Group&gt;"><path d="M182,723.8c-47.51,56.62-102.56,83.21-123,59.4s1.57-89,49.07-145.62,123-59.4,123-59.4S229.54,667.18,182,723.8Z" fill="#4fc6b7"/></g><g id="6c3305d5-1f74-4dba-959d-dfd75d400fa7" data-name="&lt;Group&gt;" opacity="0.13"><path d="M182,723.8c47.51-56.62,49.07-145.62,49.07-145.62l-172,205C79.47,807,134.52,780.41,182,723.8Z"/></g><g id="57c7ad80-a3b6-4ed7-b930-c9e1d6bf3643" data-name="&lt;Group&gt;"><ellipse cx="53.49" cy="681.85" rx="145.23" ry="58.53" transform="translate(-621.61 572.23) rotate(-76.29)" fill="#4fc6b7"/></g><g id="8c94dd3a-c0f3-49c1-9f9e-7b5225899f10" data-name="&lt;Group&gt;" opacity="0.13"><path d="M110.35,695.72c19-77.92-22.44-155-22.44-155L19.08,822.94C50.48,830.6,91.34,773.64,110.35,695.72Z"/></g><g id="c772c169-0281-424f-ab0a-57cadb1eb645" data-name="&lt;Group&gt;"><ellipse cx="1870.75" cy="152.55" rx="154.25" ry="62.16" transform="translate(1417.16 1973.88) rotate(-80.68)" fill="#4fc6b7"/></g><g id="5ef783e2-3f63-4efa-abe7-4de407cd3be4" data-name="&lt;Group&gt;" opacity="0.13"><path d="M1809.41,142.48c-13.8,84.06,36.35,162.28,36.35,162.28l50-304.42C1861.86-5.22,1823.21,58.42,1809.41,142.48Z"/></g><g id="2f447da3-f8ab-4e2f-95b7-ca04be8c79d5" data-name="&lt;Group&gt;"><ellipse cx="1730.77" cy="762.09" rx="51.63" ry="128.11" transform="translate(302.41 2001.5) rotate(-64.71)" fill="#4fc6b7"/></g><g id="a0849ce4-9e48-43c4-b062-ac13460063a4" data-name="&lt;Group&gt;" opacity="0.13"><path d="M1752.83,715.41c-64-30.22-137.89-8-137.89-8l231.67,109.44C1858.79,791,1816.8,745.63,1752.83,715.41Z"/></g></g></svg>