<svg xmlns="http://www.w3.org/2000/svg" viewBox="0 0 920 667"><title>javascript-tutorial-header-crop</title><g id="a14db1ed-24b0-46db-bda2-842994a6cf36" data-name="bg"><rect width="920" height="667" fill="#6179cd"/></g><g id="38cfb7e7-4cda-4ca5-90b8-e667acd99b80" data-name="Layer 1"><g id="a08f3839-516c-47f3-8c0e-19cba071a102" data-name="&lt;Group&gt;"><g id="ef93bc4a-c65b-4904-aac1-7bfed323ca52" data-name="&lt;Group&gt;"><path d="M-15.16,24C7.78-9.11,37.12-28.29,50.37-18.84s5.41,44-17.53,77.09-65.54,42.84-65.54,42.84S-38.1,57.12-15.16,24Z" fill="#4fc6b7"/></g><g id="442c6dde-f9d8-47b1-bab2-d95853954d3c" data-name="&lt;Group&gt;" opacity="0.13"><path d="M-15.16,24c-22.94,33.12-17.53,77.09-17.53,77.09L50.37-18.84C37.12-28.29,7.78-9.11-15.16,24Z"/></g></g><g id="e7a6f2d4-e63e-4235-a958-d463ca5febc7" data-name="&lt;Group&gt;"><ellipse cx="836.75" cy="41.76" rx="95.12" ry="38.33" transform="translate(29.92 267.43) rotate(-18.48)" fill="#4fc6b7"/></g><g id="8dc26d2e-4131-4705-924f-d00698f32741" data-name="&lt;Group&gt;" opacity="0.13"><path d="M824.6,5.41c-49.82,16.65-78.06,66.51-78.06,66.51L927,11.61C920.25-8.47,874.42-11.25,824.6,5.41Z"/></g><g id="4f92f0d0-7d0b-4c48-8610-be5a56b2dc1b" data-name="&lt;Group&gt;"><rect x="825.12" y="437.25" width="79.25" height="207.52" rx="35.59" ry="35.59" fill="#3ebdb2"/></g><g id="fabd13f5-dee9-45b3-977e-053dc59a6325" data-name="&lt;Group&gt;"><path d="M904.37,605.15V476.87c2-23.79-18.51-42.21-39.62-39.62V644.77A39.74,39.74,0,0,0,904.37,605.15Z" fill="#34a799"/></g><g id="130c20a6-ff44-4196-84fd-6c83dbdf4eb9" data-name="&lt;Group&gt;"><path d="M824.66,616.45v-71A29.34,29.34,0,0,0,795.4,516.2h0a29.34,29.34,0,0,0-29.26,29.26v71Z" fill="#3ebdb2"/></g><g id="ab2f121e-e7d1-4c6e-9c35-64e79274d98c" data-name="&lt;Group&gt;"><path d="M824.66,616.45v-71A29.34,29.34,0,0,0,795.4,516.2V616.45Z" fill="#34a799"/></g><g id="e5c56b38-adc8-4e4f-9dd9-2e0fcb21aceb" data-name="&lt;Group&gt;"><g id="9b085936-dfff-4e88-8d37-5fbd1997d7e9" data-name="&lt;Group&gt;"><rect x="881.33" y="492.97" width="10.44" height="2.15" transform="translate(-105.04 710.41) rotate(-41.44)" fill="#131d32"/></g><g id="cb8ff3b7-1723-42f5-b204-9c9b3e11bc3a" data-name="&lt;Group&gt;"><rect x="843.45" y="539.93" width="10.44" height="2.15" transform="translate(-145.6 697.09) rotate(-41.44)" fill="#131d32"/></g><g id="81ece9c3-4bda-407b-9ce6-e4cca3c563dd" data-name="&lt;Group&gt;"><rect x="843.84" y="577.91" width="10.44" height="2.15" transform="translate(-170.64 706.86) rotate(-41.44)" fill="#131d32"/></g><g id="da72a8a9-4177-4730-808e-a8db0ac2ff5a" data-name="&lt;Group&gt;"><rect x="776.2" y="541.23" width="10.44" height="2.15" transform="translate(-163.29 652.91) rotate(-41.44)" fill="#131d32"/></g><g id="a038ba4d-7641-4471-88f4-166599538697" data-name="&lt;Group&gt;"><rect x="845.83" y="501.75" width="2.15" height="10.44" transform="translate(-93.49 806.82) rotate(-48.59)" fill="#131d32"/></g><g id="93162b7b-f083-4cd1-9ce2-5e6c0ff5eaa7" data-name="&lt;Group&gt;"><rect x="888.42" y="561.26" width="2.15" height="10.44" transform="translate(-123.71 858.91) rotate(-48.59)" fill="#131d32"/></g><g id="7536d7dc-ff25-4e02-bb2b-26c23cfb385c" data-name="&lt;Group&gt;"><rect x="886.65" y="528.33" width="2.15" height="10.44" transform="translate(-99.64 846.37) rotate(-48.59)" fill="#131d32"/></g><g id="47799a39-beec-483b-9828-eca48ab1363d" data-name="&lt;Group&gt;"><rect x="884.5" y="457.29" width="2.15" height="10.44" transform="translate(-47.06 820.77) rotate(-48.59)" fill="#131d32"/></g><g id="1c57fea9-eb37-4b8e-972f-9a15771cadd1" data-name="&lt;Group&gt;"><rect x="780.34" y="566.87" width="2.15" height="10.44" transform="translate(-164.51 779.75) rotate(-48.59)" fill="#131d32"/></g><g id="263c41a1-d0ec-4e59-be4c-b290ce84f1d5" data-name="&lt;Group&gt;"><rect x="802.76" y="556.02" width="10.44" height="2.15" transform="translate(-166.43 674.19) rotate(-41.44)" fill="#131d32"/></g><g id="01a5de96-8534-4c7e-85f1-4cb8ca86b4b7" data-name="&lt;Group&gt;"><rect x="802.76" y="582.67" width="10.44" height="2.15" transform="translate(-184.07 680.87) rotate(-41.44)" fill="#131d32"/></g><g id="333a344e-3a6f-44e7-9f92-df453708e2d8" data-name="&lt;Group&gt;"><rect x="843.68" y="471.45" width="10.44" height="2.15" transform="translate(-100.22 680.1) rotate(-41.44)" fill="#131d32"/></g></g><circle cx="730.43" cy="109.16" r="69.68" fill="#ead981"/><path d="M731.11,39.47V178.84a69.68,69.68,0,0,0,0-139.37Z" opacity="0.08"/><g id="716ef1f6-646d-4c5e-b96e-c094ce27f3c0" data-name="&lt;Group&gt;"><g id="befbc103-e4f8-4419-999e-686b1e276cd6" data-name="&lt;Group&gt;"><ellipse cx="31.37" cy="109.91" rx="77.81" ry="31.36" transform="translate(-82.86 106.1) rotate(-72.16)" fill="#4fc6b7"/></g><g id="f802f485-64b9-4c75-b5ad-70f1f7c3d7c5" data-name="&lt;Group&gt;"><ellipse cx="130.63" cy="33.69" rx="34.31" ry="85.13" transform="translate(46.19 138.9) rotate(-65.71)" fill="#4fc6b7"/></g><g id="ed9dd4aa-b118-4752-85bb-7a0dc16b1f9e" data-name="&lt;Group&gt;" opacity="0.13"><path d="M1.52,100.3c-13.17,40.91,6,83.68,6,83.68L55.21,35.84C38.72,30.53,14.69,59.39,1.52,100.3Z"/></g><g id="8e9fc471-b2ca-4d53-9d5d-085d6b918e9c" data-name="&lt;Group&gt;" opacity="0.13"><path d="M122.9,66.59c39.88,17.26,85.85,2.2,85.85,2.2L64.35,6.28C56.81,22.33,83,49.33,122.9,66.59Z"/></g><g id="b2befe85-c948-4c20-93a5-44f50855c436" data-name="&lt;Group&gt;"><ellipse cx="82.99" cy="75.98" rx="39.75" ry="98.64" transform="translate(-27.54 54.91) rotate(-31.68)" fill="#4fc6b7"/></g><g id="ab97ae45-3dce-46cf-bffe-55d25fc96f86" data-name="&lt;Group&gt;" opacity="0.13"><path d="M49.17,96.86c28.61,46.36,85.63,63.06,85.63,63.06L31.19-8C12.5,3.57,20.55,50.5,49.17,96.86Z"/></g></g><g id="27dc7a81-a131-4e8e-a8a5-c180bca39e0d" data-name="&lt;Group&gt;"><g id="49bb1fab-3a60-414c-a0f8-92c3d65b21d4" data-name="&lt;Group&gt;"><path d="M258.19,553h36.29a15,15,0,0,0,15-15h0a15,15,0,0,0-15-15H258.19Z" fill="#3ebdb2"/></g><g id="d48e2ad5-2033-48ee-a16b-c35f1ba3ce46" data-name="&lt;Group&gt;"><path d="M315.71,537.13V508.6c0-7.56-6.69-13.75-14.87-13.75h0c-8.18,0-14.87,6.19-14.87,13.75v28.53Z" fill="#3ebdb2"/></g><g id="6fa0bfb3-4ee9-416a-91bb-65de4c685fac" data-name="&lt;Group&gt;"><path d="M315.71,538.1V508.88c0-7.72-6.79-14-15.1-14V538.1Z" fill="#34a799"/></g><g id="66701855-e426-4cf1-9de6-32c2303c10ed" data-name="&lt;Group&gt;"><path d="M255.65,553.68h42.54c9.64,0,17.53-7.42,17.53-16.49H255.65Z" fill="#34a799"/></g></g><g id="94795a18-8e2a-4c81-9d69-157e3d55c461" data-name="&lt;Group&gt;"><g id="cb47073e-7bb0-407d-9d4b-e244e629ab52" data-name="&lt;Group&gt;"><path d="M234.08,537.73H197.79a15,15,0,0,1-15-15h0a15,15,0,0,1,15-15h36.29Z" fill="#3ebdb2"/></g><g id="4f3e79d2-b573-4ae8-9b5f-27b8cfe2537a" data-name="&lt;Group&gt;"><path d="M176.56,522.85V465.11a15,15,0,0,1,14.87-15h0a15,15,0,0,1,14.87,15v57.74Z" fill="#3ebdb2"/></g><g id="a948fbc6-930c-47ef-8bf3-bc41c4de5764" data-name="&lt;Group&gt;"><path d="M176.56,523.9V465.41a15.23,15.23,0,0,1,15.1-15.27V523.9Z" fill="#34a799"/></g><g id="fcc3aaf8-55d0-4bb7-8e80-a4530b1e5f29" data-name="&lt;Group&gt;"><path d="M234.08,538.36H193.34a16.69,16.69,0,0,1-16.78-16.49h57.52Z" fill="#34a799"/></g></g><g id="6d4067f3-029a-4f62-a02a-01ad428ae872" data-name="&lt;Group&gt;"><rect x="233.59" y="546.85" width="9.86" height="2.03" transform="translate(-302.87 295.01) rotate(-41.44)" fill="#131d32"/></g><g id="84e0d936-95c9-4d59-b553-ac80077bb3a6" data-name="&lt;Group&gt;"><rect x="218.24" y="425.57" width="57.2" height="231.62" rx="28.6" ry="28.6" fill="#3ebdb2"/></g><g id="4e5cc7ba-b621-4dce-ad15-a3aa959dde6d" data-name="&lt;Group&gt;"><path d="M275.44,613V469.79c2.26-26.14-4.26-41.54-28.6-44.22V657.19C262.74,655.37,278,650.29,275.44,613Z" fill="#34a799"/></g><g id="0294ce6f-4b1e-4869-aef7-5ccd69c61034" data-name="&lt;Group&gt;"><g id="5673da4f-1a17-4ad1-8cfc-f32e0cf6bee9" data-name="&lt;Group&gt;"><rect x="255.78" y="501.88" width="9.86" height="2.03" transform="translate(-267.56 298.44) rotate(-41.44)" fill="#131d32"/></g><g id="dec57456-733e-4a8b-ab2a-92789db30dac" data-name="&lt;Group&gt;"><rect x="227.83" y="581.83" width="9.86" height="2.03" transform="translate(-327.47 299.95) rotate(-41.44)" fill="#131d32"/></g><g id="3f23d795-fb20-49d4-9aa1-2c9cac97f0ce" data-name="&lt;Group&gt;"><rect x="233.84" y="488.52" width="2.03" height="9.86" transform="translate(-290.57 343.2) rotate(-48.59)" fill="#131d32"/></g><g id="cc9a106f-6454-451d-aa74-32a7404929b0" data-name="&lt;Group&gt;"><rect x="229.92" y="539.34" width="9.86" height="2.03" transform="translate(-298.7 290.43) rotate(-41.41)" fill="#131d32"/></g><g id="f024eee6-b3aa-481a-ab4d-2bda66087351" data-name="&lt;Group&gt;"><rect x="254.42" y="465.22" width="9.86" height="2.03" transform="translate(-243.64 288.36) rotate(-41.44)" fill="#131d32"/></g><g id="df3951e7-e5e0-4103-b0d0-71997a6c3d09" data-name="&lt;Group&gt;"><rect x="229.92" y="449.39" width="9.86" height="2.03" transform="translate(-239.29 268.18) rotate(-41.44)" fill="#131d32"/></g><g id="e7bdb86f-359c-4e44-87b1-a55a72630094" data-name="&lt;Group&gt;"><rect x="256.42" y="605.56" width="9.86" height="2.03" transform="translate(-336.02 324.81) rotate(-41.44)" fill="#131d32"/></g><g id="7f844fa0-8a05-41c0-ae56-355048bdf296" data-name="&lt;Group&gt;"><rect x="262.03" y="545.48" width="2.03" height="9.86" transform="translate(-323.75 383.63) rotate(-48.59)" fill="#131d32"/></g></g><g id="9c23a175-10d0-44d2-a482-22300ea81956" data-name="&lt;Group&gt;"><g id="438b2aee-3e6d-4ef3-81d0-5b3d279978b9" data-name="&lt;Group&gt;"><polygon points="299.54 673.65 194.46 673.65 179.71 584.03 314.28 584.03 299.54 673.65" fill="#a7acd9"/></g><g id="ee447b0f-bfaa-485e-8d8d-e9355fa22cb3" data-name="&lt;Group&gt;"><polygon points="326.75 588.68 312.25 599.62 181.74 599.62 165.99 588.68 326.75 588.68" fill="#7d89bc"/></g><g id="e2c906cd-6cc1-49d8-8035-fe72f702a3e8" data-name="&lt;Group&gt;"><rect x="165.99" y="569.16" width="160.76" height="19.52" fill="#a7acd9"/></g><polygon points="247.36 569.16 247.36 673.65 299.54 673.65 311.77 599.62 312.25 599.62 326.75 588.68 326.75 569.16 247.36 569.16" opacity="0.11"/></g><g id="325ce621-f094-405e-a621-5e92b071f4d3" data-name="&lt;Group&gt;"><g id="85ecfdef-8043-4c3e-832d-d96dd6c195e5" data-name="&lt;Group&gt;"><path d="M918.41,645.52c-26.14,29.67-56.93,45-68.77,34.29s-.26-43.48,25.88-73.14,68.77-34.29,68.77-34.29S944.55,615.85,918.41,645.52Z" fill="#4fc6b7"/></g><g id="4f9d91c3-1b85-4724-8dc8-23db23d0f400" data-name="&lt;Group&gt;" opacity="0.13"><path d="M918.41,645.52c26.14-29.67,25.88-73.14,25.88-73.14L849.65,679.81C861.49,690.54,892.28,675.19,918.41,645.52Z"/></g></g><g id="845cf205-9e8c-4be3-856f-b84ff315fea5" data-name="&lt;Group&gt;"><ellipse cx="131.23" cy="635.41" rx="103.83" ry="41.84" transform="translate(-150.82 51.1) rotate(-14.1)" fill="#4fc6b7"/></g><g id="a2f4b4f1-78fa-403b-bc63-e040ac8f57fc" data-name="&lt;Group&gt;" opacity="0.13"><path d="M141.42,676c55.62-14,90.51-65.87,90.51-65.87L30.53,660.7C36.16,683.11,85.81,690,141.42,676Z"/></g><g id="4a32f6e2-4bc7-461e-90f1-6c678cd1a34c" data-name="&lt;Group&gt;"><path d="M123.28,607c-34,40.48-73.32,59.49-87.91,42.47s1.12-63.64,35.08-104.11,87.91-42.47,87.91-42.47S157.25,566.54,123.28,607Z" fill="#4fc6b7"/></g><g id="0031f65b-6af7-4921-8c60-74fc36f64f97" data-name="&lt;Group&gt;" opacity="0.13"><path d="M123.28,607c34-40.48,35.08-104.11,35.08-104.11l-123,146.58C50,666.51,89.32,647.5,123.28,607Z"/></g><g id="9001958b-4df3-45c1-bbeb-4cdd33a25791" data-name="&lt;Group&gt;"><ellipse cx="31.39" cy="577.03" rx="103.83" ry="41.84" transform="translate(-536.65 470.77) rotate(-76.29)" fill="#4fc6b7"/></g><g id="fedadf49-3cf8-4386-986a-67bcd0f70318" data-name="&lt;Group&gt;" opacity="0.13"><path d="M72,586.95c13.59-55.71-16-110.79-16-110.79L6.78,677.9C29.23,683.38,58.45,642.66,72,586.95Z"/></g><g id="aade17b9-8b10-4912-813e-857cca497890" data-name="&lt;Group&gt;"><ellipse cx="881.56" cy="109.3" rx="107.87" ry="43.47" transform="translate(630.9 961.51) rotate(-80.68)" fill="#4fc6b7"/></g><g id="e0bccc6a-302d-4d5c-b12e-dac03a12c5f0" data-name="&lt;Group&gt;" opacity="0.13"><path d="M838.66,102.26C829,161,864.08,215.74,864.08,215.74L899,2.85C875.34-1,848.31,43.47,838.66,102.26Z"/></g><g id="aa14ebcc-462d-4672-a759-0150c0a681c3" data-name="&lt;Group&gt;"><ellipse cx="771.04" cy="621.67" rx="36.23" ry="89.91" transform="translate(-120.41 1053.29) rotate(-64.71)" fill="#4fc6b7"/></g><g id="90bd8c34-4952-4d07-9f9b-6a604480c71b" data-name="&lt;Group&gt;" opacity="0.13"><path d="M786.52,588.91c-44.9-21.21-96.77-5.64-96.77-5.64l162.59,76.81C860.88,642,831.42,610.12,786.52,588.91Z"/></g></g></svg>