<svg xmlns="http://www.w3.org/2000/svg" viewBox="0 0 1920 819"><title>javascript-tutorial-header</title><g id="f87899f6-207f-4f2c-8cd9-3ad03819f92d" data-name="bg"><rect y="-214" width="1920.5" height="1033.5" fill="#6179cd"/></g><g id="794447c1-e7db-4cc8-bf65-16c2fc8d4fc4" data-name="Layer 1"><g id="d1d10313-9f7a-4ebb-a668-d26195813325" data-name="&lt;Group&gt;"><rect x="1807.83" y="499.3" width="112.92" height="295.7" rx="50.72" ry="50.72" fill="#3ebdb2"/></g><g id="7020d0ed-ccb2-4367-9756-a897d3c5047f" data-name="&lt;Group&gt;"><path d="M1920.74,738.54V555.76c2.79-33.9-26.37-60.14-56.46-56.46V795A56.62,56.62,0,0,0,1920.74,738.54Z" fill="#34a799"/></g><g id="8b1ae74e-425d-4aa6-8d7c-f6183ed58847" data-name="&lt;Group&gt;"><path d="M1807.17,754.65V653.48a41.81,41.81,0,0,0-41.69-41.69h0a41.81,41.81,0,0,0-41.69,41.69V754.65Z" fill="#3ebdb2"/></g><g id="dbe1640a-17c3-4277-8ce0-9189f5005326" data-name="&lt;Group&gt;"><path d="M1807.17,754.65V653.48a41.81,41.81,0,0,0-41.69-41.69V754.65Z" fill="#34a799"/></g><g id="c96e15bd-fc32-4950-b506-a954b92f1691" data-name="&lt;Group&gt;"><g id="155da367-d9bc-47d9-8dea-b16edadbc80d" data-name="&lt;Group&gt;"><rect x="1887.92" y="578.7" width="14.87" height="3.07" transform="translate(90.46 1399.63) rotate(-41.44)" fill="#131d32"/></g><g id="43f1997f-e858-4fd1-8b30-d427552cf6de" data-name="&lt;Group&gt;"><rect x="1833.94" y="645.62" width="14.87" height="3.07" transform="translate(32.67 1380.66) rotate(-41.44)" fill="#131d32"/></g><g id="194f45b4-722e-4b7a-8a0c-0239cbd1aa27" data-name="&lt;Group&gt;"><rect x="1834.5" y="699.74" width="14.87" height="3.07" transform="translate(-3.01 1394.57) rotate(-41.44)" fill="#131d32"/></g><g id="b96d7a0f-8aae-4461-9cfe-c03e72bb385f" data-name="&lt;Group&gt;"><rect x="1738.12" y="647.47" width="14.87" height="3.07" transform="translate(7.45 1317.7) rotate(-41.44)" fill="#131d32"/></g><g id="d902489d-1dad-4c0c-aa44-a8ebfe821f51" data-name="&lt;Group&gt;"><rect x="1837.34" y="591.21" width="3.07" height="14.87" transform="translate(173.59 1581.84) rotate(-48.59)" fill="#131d32"/></g><g id="4b544da3-a01e-4c24-82bf-57eda63a3170" data-name="&lt;Group&gt;"><rect x="1898.02" y="676.01" width="3.07" height="14.87" transform="translate(130.53 1656.06) rotate(-48.59)" fill="#131d32"/></g><g id="ccc10473-2b4a-40d9-b362-616ec6fa9109" data-name="&lt;Group&gt;"><rect x="1895.5" y="629.09" width="3.07" height="14.87" transform="translate(164.8 1638.16) rotate(-48.59)" fill="#131d32"/></g><g id="28980df7-e130-49ce-84c8-996315702f4f" data-name="&lt;Group&gt;"><rect x="1892.44" y="527.86" width="3.07" height="14.87" transform="translate(239.76 1601.72) rotate(-48.59)" fill="#131d32"/></g><g id="cf371a82-b891-4cd4-b02e-1944ef088a43" data-name="&lt;Group&gt;"><rect x="1744.02" y="684" width="3.07" height="14.87" transform="translate(72.41 1543.26) rotate(-48.59)" fill="#131d32"/></g><g id="4ee7044e-815e-4c0f-8a5a-9eb742eb6b31" data-name="&lt;Group&gt;"><rect x="1775.97" y="668.54" width="14.87" height="3.07" transform="translate(2.98 1348.03) rotate(-41.44)" fill="#131d32"/></g><g id="acbe09e7-e526-4d2e-9631-c7577e1a991f" data-name="&lt;Group&gt;"><rect x="1775.97" y="706.51" width="14.87" height="3.07" transform="translate(-22.15 1357.53) rotate(-41.44)" fill="#131d32"/></g><g id="bc22b5c3-a686-4326-b4cc-b26aa8dc7b98" data-name="&lt;Group&gt;"><rect x="1834.27" y="548.03" width="14.87" height="3.07" transform="translate(97.33 1356.45) rotate(-41.44)" fill="#131d32"/></g></g><circle cx="1654.65" cy="-75.65" r="99.65" fill="#ead981"/><path d="M1655.61-175.29V24a99.64,99.64,0,0,0,99.65-99.65A99.64,99.64,0,0,0,1655.61-175.29Z" opacity="0.08"/><g id="98cf61a3-04fc-4d11-b637-9bf3af3b3d0a" data-name="&lt;Group&gt;"><g id="780440df-f315-44d4-8d7d-eaebab51d597" data-name="&lt;Group&gt;"><ellipse cx="47.3" cy="-50.09" rx="112.35" ry="45.27" transform="translate(80.49 10.28) rotate(-72.16)" fill="#4fc6b7"/></g><g id="35a01741-6bbc-48e5-a91a-818516403937" data-name="&lt;Group&gt;" opacity="0.13"><path d="M4.21-64C-14.8-4.9,12.89,56.85,12.89,56.85L81.72-157C57.92-164.69,23.21-123,4.21-64Z"/></g><g id="0c7703a3-23c6-46f7-8b18-0e9641883225" data-name="&lt;Group&gt;"><ellipse cx="121.83" cy="-99.07" rx="57.39" ry="142.42" transform="matrix(0.85, -0.53, 0.53, 0.85, 70.19, 49.22)" fill="#4fc6b7"/></g><g id="ec4e0276-070d-46f3-a809-d32c0e035ff6" data-name="&lt;Group&gt;" opacity="0.13"><path d="M73-68.93c41.31,66.93,123.64,91,123.64,91L47-220.26C20.06-203.61,31.68-135.86,73-68.93Z"/></g></g><g id="a56854e7-22f6-435a-817d-dafa76d94383" data-name="&lt;Group&gt;"><g id="f2fac60d-0197-43c9-bda5-a2f16e711aa1" data-name="&lt;Group&gt;"><path d="M370.73,648.31h50.76a21,21,0,0,0,20.91-20.91h0a21,21,0,0,0-20.91-20.91H370.73Z" fill="#3ebdb2"/></g><g id="dbefdfd8-c331-411a-a9cb-1b253d56f941" data-name="&lt;Group&gt;"><path d="M451.19,626v-39.9c0-10.58-9.36-19.24-20.8-19.24h0c-11.44,0-20.8,8.66-20.8,19.24V626Z" fill="#3ebdb2"/></g><g id="b2bb0f56-91b3-46b0-9938-c30026fbd546" data-name="&lt;Group&gt;"><path d="M451.19,627.39V586.53c0-10.8-9.5-19.63-21.12-19.63v60.49Z" fill="#34a799"/></g><g id="9fddff94-fd20-48ff-8c8d-9de411822818" data-name="&lt;Group&gt;"><path d="M367.18,649.19h59.49c13.48,0,24.51-10.38,24.51-23.07h-84Z" fill="#34a799"/></g></g><g id="ae37aff5-6b1b-4890-a99d-b6b25c20da13" data-name="&lt;Group&gt;"><g id="26e14fcc-a46f-46fe-8354-8b213769dbc9" data-name="&lt;Group&gt;"><path d="M337,626.88H286.24A21,21,0,0,1,265.33,606h0A21,21,0,0,1,286.24,585H337Z" fill="#3ebdb2"/></g><g id="237927e3-5bbe-48db-b14e-7e6a874435be" data-name="&lt;Group&gt;"><path d="M256.55,606.06V525.3a20.93,20.93,0,0,1,20.8-20.93h0a20.93,20.93,0,0,1,20.8,20.93v80.76Z" fill="#3ebdb2"/></g><g id="5cd02af4-2a5b-4559-8fe6-4269794a57bd" data-name="&lt;Group&gt;"><path d="M256.55,607.54V525.73a21.3,21.3,0,0,1,21.12-21.36V607.54Z" fill="#34a799"/></g><g id="4b1305dc-e2b3-4196-8595-0fd1d52a53c5" data-name="&lt;Group&gt;"><path d="M337,627.76H280a23.34,23.34,0,0,1-23.48-23.07H337Z" fill="#34a799"/></g></g><g id="b93975fc-aaaf-4174-85b4-74451a0c0403" data-name="&lt;Group&gt;"><rect x="336.32" y="639.63" width="13.79" height="2.84" transform="translate(-338.34 387.62) rotate(-41.44)" fill="#131d32"/></g><g id="eed8853c-ac50-4cb3-93bc-5f48799b6098" data-name="&lt;Group&gt;"><rect x="314.85" y="470" width="80" height="323.98" rx="40" ry="40" fill="#3ebdb2"/></g><g id="7895c823-6fb6-4816-8031-24e816449dbb" data-name="&lt;Group&gt;"><path d="M394.85,732.12V531.86c3.15-36.56-6-58.1-40-61.86V794C377.1,791.42,398.41,784.32,394.85,732.12Z" fill="#34a799"/></g><g id="9e861c33-6685-4861-bfa5-53f6adbc25c1" data-name="&lt;Group&gt;"><g id="bed8063a-7e17-4e5f-aa86-cbee5262fa71" data-name="&lt;Group&gt;"><rect x="367.36" y="576.74" width="13.79" height="2.84" transform="translate(-288.95 392.42) rotate(-41.44)" fill="#131d32"/></g><g id="a1750e67-389c-47a6-b3c8-55ecac3158e0" data-name="&lt;Group&gt;"><rect x="328.26" y="688.57" width="13.79" height="2.84" transform="translate(-372.75 394.54) rotate(-41.44)" fill="#131d32"/></g><g id="db8b3645-c01a-467f-aa09-03b028923c7f" data-name="&lt;Group&gt;"><rect x="336.66" y="558.04" width="2.84" height="13.79" transform="translate(-309.24 444.83) rotate(-48.59)" fill="#131d32"/></g><g id="0532c691-69e6-479c-b4a5-057ea0e56d70" data-name="&lt;Group&gt;"><rect x="331.19" y="629.13" width="13.79" height="2.84" transform="translate(-332.55 381.26) rotate(-41.41)" fill="#131d32"/></g><g id="cd75dbff-b652-47e7-a5a6-33fb06751309" data-name="&lt;Group&gt;"><rect x="365.45" y="525.46" width="13.79" height="2.84" transform="translate(-255.49 378.32) rotate(-41.44)" fill="#131d32"/></g><g id="0803d071-3499-4d5a-a3cf-e07ea9e7a2a2" data-name="&lt;Group&gt;"><rect x="331.19" y="503.31" width="13.79" height="2.84" transform="translate(-249.41 350.1) rotate(-41.44)" fill="#131d32"/></g><g id="a955ee16-6a31-45cd-8e24-f5b703ddecf8" data-name="&lt;Group&gt;"><rect x="368.25" y="721.76" width="13.79" height="2.84" transform="translate(-384.7 429.31) rotate(-41.44)" fill="#131d32"/></g><g id="d2a8820a-338a-4f50-80d2-d7a85d170e66" data-name="&lt;Group&gt;"><rect x="376.1" y="637.72" width="2.84" height="13.79" transform="translate(-355.65 501.38) rotate(-48.59)" fill="#131d32"/></g></g><g id="9e40571b-0a02-4140-adcf-95f204dab2fc" data-name="&lt;Group&gt;"><g id="0840fd17-1c47-4395-80fc-3a125d337c79" data-name="&lt;Group&gt;"><polygon points="428.56 817 281.58 817 260.96 691.64 449.18 691.64 428.56 817" fill="#a7acd9"/></g><g id="81664861-5ed4-4272-840a-12647cd3ee2f" data-name="&lt;Group&gt;"><polygon points="466.62 698.14 446.35 713.45 263.79 713.45 241.77 698.14 466.62 698.14" fill="#7d89bc"/></g><g id="7e0f604a-45b4-4721-b5db-1287920e933a" data-name="&lt;Group&gt;"><rect x="241.77" y="670.84" width="224.86" height="27.31" fill="#a7acd9"/></g><polygon points="355.57 670.84 355.57 817 428.56 817 445.68 713.45 446.35 713.45 466.62 698.14 466.62 670.84 355.57 670.84" opacity="0.11"/></g><g id="02542e96-0afe-417a-b249-2efa8a521e68" data-name="&lt;Group&gt;"><g id="e5c2b736-dc8e-474e-a8da-8ef2aef3e430" data-name="&lt;Group&gt;"><path d="M1940.76,796.07c-37.24,42.27-81.11,64.15-98,48.86s-.37-61.95,36.88-104.22,98-48.86,98-48.86S1978,753.8,1940.76,796.07Z" fill="#4fc6b7"/></g><g id="800d2dd0-2dcb-4b0e-9a2a-6e8b396561f7" data-name="&lt;Group&gt;" opacity="0.13"><path d="M1940.76,796.07c37.24-42.27,36.88-104.22,36.88-104.22L1842.77,844.93C1859.65,860.22,1903.52,838.34,1940.76,796.07Z"/></g></g><g id="1b67b2a9-3793-488b-be02-873632b32e32" data-name="&lt;Group&gt;"><ellipse cx="193.15" cy="763.5" rx="145.23" ry="58.53" transform="translate(-180.15 70.04) rotate(-14.1)" fill="#4fc6b7"/></g><g id="de229faa-1b52-401a-96da-dd565140ef82" data-name="&lt;Group&gt;" opacity="0.13"><path d="M207.4,820.26C285.19,800.73,334,728.13,334,728.13L52.3,798.87C60.17,830.22,129.61,839.8,207.4,820.26Z"/></g><g id="ac7fab61-2373-4f9c-be2d-5e821f201619" data-name="&lt;Group&gt;"><path d="M182,723.8c-47.51,56.62-102.56,83.21-123,59.4s1.57-89,49.07-145.62,123-59.4,123-59.4S229.54,667.18,182,723.8Z" fill="#4fc6b7"/></g><g id="e32100a7-9051-4af7-94c2-f70323ab1fde" data-name="&lt;Group&gt;" opacity="0.13"><path d="M182,723.8c47.51-56.62,49.07-145.62,49.07-145.62l-172,205C79.47,807,134.52,780.41,182,723.8Z"/></g><g id="b19518f9-62bd-47b1-9ae9-51ef7bf8a937" data-name="&lt;Group&gt;"><ellipse cx="53.49" cy="681.85" rx="145.23" ry="58.53" transform="translate(-621.61 572.23) rotate(-76.29)" fill="#4fc6b7"/></g><g id="18609416-dea1-410a-9bcf-65ebddbcb905" data-name="&lt;Group&gt;" opacity="0.13"><path d="M110.35,695.72c19-77.92-22.44-155-22.44-155L19.08,822.94C50.48,830.6,91.34,773.64,110.35,695.72Z"/></g><g id="ff02e5f8-63ec-4895-974c-0ea18c8058ed" data-name="&lt;Group&gt;"><ellipse cx="1870.75" cy="-75.45" rx="154.25" ry="62.16" transform="translate(1642.15 1782.81) rotate(-80.68)" fill="#4fc6b7"/></g><g id="cec4346c-d002-462d-b666-419f913bbcdc" data-name="&lt;Group&gt;" opacity="0.13"><path d="M1809.41-85.52c-13.8,84.06,36.35,162.28,36.35,162.28l50-304.42C1861.86-233.22,1823.21-169.58,1809.41-85.52Z"/></g><g id="027f0657-9ee6-4118-863c-c4dde42400f3" data-name="&lt;Group&gt;"><ellipse cx="1730.77" cy="762.09" rx="51.63" ry="128.11" transform="translate(302.41 2001.5) rotate(-64.71)" fill="#4fc6b7"/></g><g id="bd1e2591-80be-4861-821c-a51ffd643823" data-name="&lt;Group&gt;" opacity="0.13"><path d="M1752.83,715.41c-64-30.22-137.89-8-137.89-8l231.67,109.44C1858.79,791,1816.8,745.63,1752.83,715.41Z"/></g></g></svg>