<svg id="Layer_1" data-name="Layer 1" xmlns="http://www.w3.org/2000/svg" viewBox="0 0 100.32825 35.87793"><title>logo-7-hover</title><path d="M16.77441,9.38281V24.38965c0,4.74414-3.44141,7.751-8.68164,7.751A12.37934,12.37934,0,0,1,1.085,29.93945l1.61328-2.915A8.45942,8.45942,0,0,0,7.876,28.76074c2.97656,0,4.86719-1.64258,4.86719-4.27832V22.5293a5.99192,5.99192,0,0,1-5.27051,2.60449c-4.40332,0-7.37988-3.22461-7.37988-8,0-4.68164,2.94629-7.875,7.25586-7.875a6.13983,6.13983,0,0,1,5.39453,2.60449V9.38281Zm-4.03125,7.84473c0-2.791-1.79785-4.74414-4.40234-4.74414s-4.40234,1.98438-4.43359,4.74414c.03125,2.79,1.79785,4.74316,4.43359,4.74316C10.94531,21.9707,12.74316,20.01758,12.74316,17.22754Z"/><path d="M35.38867,9.22754v3.90625c-3.50391-.2168-5.64355,1.83008-5.64355,4.83789v7.999H25.71484V9.38281h4.03027v3.19336A6.03877,6.03877,0,0,1,35.38867,9.22754Z"/><path d="M52.61621,25.9707V23.95508a6.50688,6.50688,0,0,1-5.36328,2.20215c-3.56641,0-5.79883-2.20215-5.79883-5.14746,0-3.06934,2.26367-4.96094,6.29492-4.99219H52.585V15.584c0-1.92285-1.27051-3.06934-3.751-3.06934a9.711,9.711,0,0,0-4.93066,1.5498l-1.457-2.79A13.34156,13.34156,0,0,1,49.7334,9.22754c4.33984,0,6.79,2.20117,6.82031,5.89062L56.585,25.9707ZM52.585,20.2041V18.71582H48.39941c-2.13867,0-3.13086.58887-3.13086,2.0459,0,1.39551,1.11523,2.29395,2.94531,2.29395C50.53906,23.05566,52.36816,21.81543,52.585,20.2041Z"/><path d="M72.37793,12.793c-2.666,0-4.52637,1.98438-4.52637,4.89941,0,2.97656,1.86035,4.96094,4.52637,4.96094a5.33833,5.33833,0,0,0,4.46484-1.95312l2.51172,2.07715c-1.457,2.1084-3.9375,3.34863-7.19336,3.34863A7.98285,7.98285,0,0,1,63.79,17.72363a8.03132,8.03132,0,0,1,8.43359-8.46484,8.45914,8.45914,0,0,1,6.94531,3.03809l-2.4502,2.3252A5.69181,5.69181,0,0,0,72.37793,12.793Z"/><path d="M100.25488,19.08691H88.00781a4.62731,4.62731,0,0,0,4.74414,3.7832,6.16218,6.16218,0,0,0,4.46484-1.86035l2.1709,2.26367A9.21094,9.21094,0,0,1,92.41113,26.126c-5.14746,0-8.52734-3.41113-8.52734-8.40234a8.04806,8.04806,0,0,1,8.43359-8.46484C98.14746,9.25879,100.6582,13.07227,100.25488,19.08691Zm-3.6582-2.69727a3.9427,3.9427,0,0,0-4.248-4,4.34482,4.34482,0,0,0-4.43359,4Z"/></svg>