<svg xmlns="http://www.w3.org/2000/svg" viewBox="0 0 1920 1033"><title>portfolio-project-header</title><g id="b29dc3e0-4488-47df-b049-a1156507c4f7" data-name="bg"><rect y="-22" width="1920.5" height="1055.5" fill="#5245db"/><polygon points="840.27 79.32 844.9 75.29 861.85 86.07 857.22 90.09 840.27 79.32" fill="#bdffee" stroke="#3f3f3f" stroke-miterlimit="10" stroke-width="1.34"/><polygon points="770 289.48 789.53 281.47 792.97 286.11 773.44 294.12 770 289.48" fill="#bdffee" stroke="#3f3f3f" stroke-miterlimit="10" stroke-width="1.34"/><polygon points="211.49 235.6 233.72 234.3 234.28 239.58 212.05 240.88 211.49 235.6" fill="#bdffee" stroke="#3f3f3f" stroke-miterlimit="10" stroke-width="1.34"/><polygon points="142.39 384.28 143.5 379.05 165.53 381.62 164.43 386.85 142.39 384.28" fill="#bdffee" stroke="#3f3f3f" stroke-miterlimit="10" stroke-width="1.34"/><polygon points="488.91 102.77 499.5 88.18 505.77 90.69 495.19 105.28 488.91 102.77" fill="#bdffee" stroke="#3f3f3f" stroke-miterlimit="10" stroke-width="1.34"/><polygon points="551.11 63.92 562.71 49.76 568.8 52.52 557.2 66.68 551.11 63.92" fill="#bdffee" stroke="#000" stroke-miterlimit="10" stroke-width="1.34"/><polygon points="992.34 127.01 993.53 121.79 1015.52 124.56 1014.33 129.78 992.34 127.01" fill="#bdffee" stroke="#000" stroke-miterlimit="10" stroke-width="1.34"/><polygon points="730.14 32.78 750.8 26.53 753.49 31.43 732.83 37.69 730.14 32.78" fill="#bdffee" stroke="#000" stroke-miterlimit="10" stroke-width="1.34"/><polygon points="1178.01 50.66 1178.03 45.36 1200.34 45.42 1200.32 50.71 1178.01 50.66" fill="#bdffee" stroke="#000" stroke-miterlimit="10" stroke-width="1.34"/><polygon points="691.32 156.68 712.04 150.55 714.68 155.47 693.95 161.6 691.32 156.68" fill="#bdffee" stroke="#000" stroke-miterlimit="10" stroke-width="1.34"/><polygon points="124.05 78.59 136.08 64.64 142.08 67.49 130.05 81.45 124.05 78.59" fill="#bdffee" stroke="#000" stroke-miterlimit="10" stroke-width="1.34"/><polygon points="324.65 31.23 344.9 24.28 347.89 29.09 327.64 36.04 324.65 31.23" fill="#bdffee" stroke="#000" stroke-miterlimit="10" stroke-width="1.34"/><polygon points="37 50.96 58.03 45.44 60.41 50.44 39.37 55.95 37 50.96" fill="#bdffee" stroke="#000" stroke-miterlimit="10" stroke-width="1.34"/><polygon points="185.22 141.2 187.41 136.16 208.63 141.26 206.44 146.3 185.22 141.2" fill="#bdffee" stroke="#000" stroke-miterlimit="10" stroke-width="1.34"/><polygon points="824.66 154.87 825.5 149.61 847.65 151.55 846.81 156.81 824.66 154.87" fill="#bdffee" stroke="#000" stroke-miterlimit="10" stroke-width="1.34"/><polygon points="675.46 198.43 675.96 193.14 698.21 194.32 697.71 199.6 675.46 198.43" fill="#bdffee" stroke="#000" stroke-miterlimit="10" stroke-width="1.34"/><polygon points="272.1 36.92 279.21 36.58 280.63 53.13 273.52 53.46 272.1 36.92" fill="#bdffee" stroke="#000" stroke-miterlimit="10" stroke-width="1.34"/><polygon points="870.13 74.03 876.59 58.16 883.41 59.69 876.95 75.56 870.13 74.03" fill="#bdffee" stroke="#000" stroke-miterlimit="10" stroke-width="1.34"/><polygon points="1058.54 89.71 1079.36 83.77 1081.92 88.71 1061.1 94.65 1058.54 89.71" fill="#bdffee" stroke="#000" stroke-miterlimit="10" stroke-width="1.34"/><polygon points="73.89 123.46 78.4 119.36 95.67 129.84 91.17 133.94 73.89 123.46" fill="#bdffee" stroke="#000" stroke-miterlimit="10" stroke-width="1.34"/><polygon points="793.99 219.34 815.62 215.27 817.37 220.4 795.74 224.47 793.99 219.34" fill="#bdffee" stroke="#000" stroke-miterlimit="10" stroke-width="1.34"/><polygon points="601.36 203.89 606.9 187.83 613.8 189.14 608.27 205.2 601.36 203.89" fill="#bdffee" stroke="#000" stroke-miterlimit="10" stroke-width="1.34"/><polygon points="1171.64 261.02 1177.18 244.96 1184.08 246.28 1178.54 262.33 1171.64 261.02" fill="#bdffee" stroke="#000" stroke-miterlimit="10" stroke-width="1.34"/><polygon points="628.35 293.72 632.69 289.52 650.38 299.61 646.04 303.81 628.35 293.72" fill="#bdffee" stroke="#000" stroke-miterlimit="10" stroke-width="1.34"/><polygon points="118.52 114.96 127.78 99.89 134.27 102.09 125 117.16 118.52 114.96" fill="#bdffee" stroke="#000" stroke-miterlimit="10" stroke-width="1.34"/><polygon points="780.3 109.2 794.02 96.14 799.64 99.39 785.92 112.46 780.3 109.2" fill="#bdffee" stroke="#000" stroke-miterlimit="10" stroke-width="1.34"/><polygon points="266.99 80.85 279.27 67.01 285.22 69.93 272.94 83.77 266.99 80.85" fill="#bdffee" stroke="#000" stroke-miterlimit="10" stroke-width="1.34"/><polygon points="597.67 122.5 601.46 106.28 608.48 107.19 604.7 123.41 597.67 122.5" fill="#bdffee" stroke="#000" stroke-miterlimit="10" stroke-width="1.34"/><polygon points="429.04 54.83 448.89 47.28 452.14 51.99 432.28 59.54 429.04 54.83" fill="#bdffee" stroke="#000" stroke-miterlimit="10" stroke-width="1.34"/><polygon points="946.99 210.9 952.92 194.92 959.79 196.33 953.86 212.31 946.99 210.9" fill="#bdffee" stroke="#000" stroke-miterlimit="10" stroke-width="1.34"/><polygon points="385.33 344.37 391.26 328.39 398.13 329.8 392.2 345.78 385.33 344.37" fill="#bdffee" stroke="#000" stroke-miterlimit="10" stroke-width="1.34"/><polygon points="1070.34 234.47 1071.38 229.23 1093.45 231.67 1092.4 236.91 1070.34 234.47" fill="#bdffee" stroke="#000" stroke-miterlimit="10" stroke-width="1.34"/><polygon points="72.14 232.62 75.52 227.95 95.17 235.8 91.79 240.47 72.14 232.62" fill="#bdffee" stroke="#000" stroke-miterlimit="10" stroke-width="1.34"/><polygon points="944.03 329.53 950.93 322.73 970.6 333.74 963.71 340.54 944.03 329.53" fill="none"/><polygon points="946.14 329.65 949.74 325.08 968.99 333.45 965.4 338.02 946.14 329.65" fill="#caefc5" stroke="#3f3f3f" stroke-miterlimit="10" stroke-width="1.34"/><polygon points="498.38 165.85 504.22 152.49 528.09 158.25 522.25 171.61 498.38 165.85" fill="none"/><polygon points="502.93 157.93 508.07 154.27 523.5 166.25 518.35 169.91 502.93 157.93" fill="#bdffee" stroke="#000" stroke-miterlimit="10" stroke-width="1.34"/><polygon points="470.89 232.6 489.49 230.11 493.94 248.46 475.34 250.95 470.89 232.6" fill="none"/><polygon points="475.65 247.57 482.57 231.81 489.34 233.45 482.43 249.21 475.65 247.57" fill="#bdffee" stroke="#000" stroke-miterlimit="10" stroke-width="1.34"/><polygon points="861.64 219.16 867.48 205.8 891.35 211.57 885.5 224.93 861.64 219.16" fill="none"/><polygon points="866.19 211.22 871.34 207.56 886.76 219.54 881.61 223.2 866.19 211.22" fill="#bdffee" stroke="#000" stroke-miterlimit="10" stroke-width="1.34"/><polygon points="661.54 55.49 667.38 42.13 691.24 47.9 685.4 61.26 661.54 55.49" fill="none"/><polygon points="666.18 47.4 671.33 43.74 686.75 55.72 681.61 59.38 666.18 47.4" fill="#bdffee" stroke="#000" stroke-miterlimit="10" stroke-width="1.34"/><polygon points="1133.19 105.22 1139.03 91.86 1162.89 97.62 1157.05 110.98 1133.19 105.22" fill="none"/><polygon points="1137.84 97.36 1142.99 93.7 1158.41 105.67 1153.27 109.33 1137.84 97.36" fill="#bdffee" stroke="#000" stroke-miterlimit="10" stroke-width="1.34"/><polygon points="1114.2 85.3 1130.19 77.81 1143.57 93.59 1127.59 101.08 1114.2 85.3" fill="none"/><polygon points="1124.5 81.24 1131.61 80.87 1133.15 97.41 1126.04 97.77 1124.5 81.24" fill="#bdffee" stroke="#000" stroke-miterlimit="10" stroke-width="1.34"/><polygon points="942.62 55.94 946.67 42.22 971.18 46.22 967.12 59.94 942.62 55.94" fill="none"/><polygon points="946.22 47.67 950.87 43.66 967.79 54.45 963.15 58.47 946.22 47.67" fill="#bdffee" stroke="#000" stroke-miterlimit="10" stroke-width="1.34"/><polygon points="389.25 154.81 411.55 146.26 420.21 158.74 397.91 167.29 389.25 154.81" fill="none"/><polygon points="393.6 159.15 393.72 153.85 416.02 154.14 415.9 159.43 393.6 159.15" fill="#bdffee" stroke="#000" stroke-miterlimit="10" stroke-width="1.34"/><polygon points="658.67 122.57 664.51 109.22 688.38 114.98 682.54 128.34 658.67 122.57" fill="none"/><polygon points="663.31 114.59 668.46 110.93 683.88 122.91 678.74 126.57 663.31 114.59" fill="#bdffee" stroke="#000" stroke-miterlimit="10" stroke-width="1.34"/><polygon points="1736.91 102.77 1747.5 88.18 1753.77 90.69 1743.18 105.28 1736.91 102.77" fill="#bdffee" stroke="#3f3f3f" stroke-miterlimit="10" stroke-width="1.34"/><polygon points="1799.11 63.92 1810.71 49.76 1816.8 52.52 1805.2 66.68 1799.11 63.92" fill="#bdffee" stroke="#000" stroke-miterlimit="10" stroke-width="1.34"/><polygon points="1652.46 291.43 1652.96 286.14 1675.21 287.32 1674.71 292.6 1652.46 291.43" fill="#bdffee" stroke="#000" stroke-miterlimit="10" stroke-width="1.34"/><polygon points="1849.36 203.89 1854.9 187.83 1861.8 189.14 1856.27 205.2 1849.36 203.89" fill="#bdffee" stroke="#000" stroke-miterlimit="10" stroke-width="1.34"/><polygon points="1876.35 293.72 1880.69 289.52 1898.38 299.61 1894.04 303.81 1876.35 293.72" fill="#bdffee" stroke="#000" stroke-miterlimit="10" stroke-width="1.34"/><polygon points="1845.67 122.5 1849.46 106.28 1856.48 107.19 1852.7 123.41 1845.67 122.5" fill="#bdffee" stroke="#000" stroke-miterlimit="10" stroke-width="1.34"/><polygon points="1677.04 54.83 1696.89 47.28 1700.14 51.99 1680.28 59.54 1677.04 54.83" fill="#bdffee" stroke="#000" stroke-miterlimit="10" stroke-width="1.34"/><polygon points="1746.38 165.85 1752.22 152.49 1776.09 158.25 1770.25 171.61 1746.38 165.85" fill="none"/><polygon points="1750.92 157.93 1756.07 154.27 1771.49 166.25 1766.35 169.91 1750.92 157.93" fill="#bdffee" stroke="#000" stroke-miterlimit="10" stroke-width="1.34"/><polygon points="1718.89 232.6 1737.49 230.11 1741.94 248.46 1723.34 250.95 1718.89 232.6" fill="none"/><polygon points="1723.65 247.57 1730.57 231.81 1737.34 233.45 1730.43 249.21 1723.65 247.57" fill="#bdffee" stroke="#000" stroke-miterlimit="10" stroke-width="1.34"/><polygon points="1637.25 154.81 1659.55 146.26 1668.21 158.74 1645.91 167.29 1637.25 154.81" fill="none"/><polygon points="1641.6 159.15 1641.72 153.85 1664.02 154.14 1663.9 159.43 1641.6 159.15" fill="#bdffee" stroke="#000" stroke-miterlimit="10" stroke-width="1.34"/><polygon points="149.1 190.81 156 177.74 179.36 184.55 172.46 197.63 149.1 190.81" fill="none"/><polygon points="156.96 194.35 164.91 178.87 171.57 180.75 163.62 196.24 156.96 194.35" fill="#bdffee" stroke="#000" stroke-miterlimit="10" stroke-width="1.34"/><polygon points="270.6 196.22 277.5 183.14 300.86 189.96 293.96 203.03 270.6 196.22" fill="none"/><polygon points="276 188.41 281.43 184.99 295.86 197.63 290.43 201.05 276 188.41" fill="#bdffee" stroke="#000" stroke-miterlimit="10" stroke-width="1.34"/><polygon points="1055.37 161.39 1061.21 148.03 1085.07 153.79 1079.23 167.15 1055.37 161.39" fill="none"/><polygon points="1059.91 153.43 1065.06 149.77 1080.48 161.75 1075.33 165.41 1059.91 153.43" fill="#bdffee" stroke="#000" stroke-miterlimit="10" stroke-width="1.34"/><polygon points="1106.03 332.2 1111.87 318.84 1135.74 324.6 1129.9 337.96 1106.03 332.2" fill="none"/><polygon points="1110.56 324.29 1115.71 320.63 1131.13 332.6 1125.98 336.26 1110.56 324.29" fill="#bdffee" stroke="#000" stroke-miterlimit="10" stroke-width="1.34"/><polygon points="1425.38 255.59 1447.61 254.29 1448.17 259.57 1425.94 260.87 1425.38 255.59" fill="#bdffee" stroke="#3f3f3f" stroke-miterlimit="10" stroke-width="1.34"/><polygon points="1326.34 349.51 1327.44 344.28 1349.48 346.85 1348.38 352.08 1326.34 349.51" fill="#bdffee" stroke="#3f3f3f" stroke-miterlimit="10" stroke-width="1.34"/><polygon points="1337.94 98.58 1349.97 84.62 1355.97 87.48 1343.94 101.44 1337.94 98.58" fill="#bdffee" stroke="#000" stroke-miterlimit="10" stroke-width="1.34"/><polygon points="1572.76 78.59 1593.01 71.64 1596 76.45 1575.75 83.4 1572.76 78.59" fill="#bdffee" stroke="#000" stroke-miterlimit="10" stroke-width="1.34"/><polygon points="1262.44 44.3 1283.47 38.78 1285.84 43.77 1264.81 49.29 1262.44 44.3" fill="#bdffee" stroke="#000" stroke-miterlimit="10" stroke-width="1.34"/><polygon points="1399.11 161.19 1401.3 156.15 1422.52 161.25 1420.33 166.29 1399.11 161.19" fill="#bdffee" stroke="#000" stroke-miterlimit="10" stroke-width="1.34"/><polygon points="1464.55 24.43 1471.66 24.09 1473.08 40.63 1465.97 40.97 1464.55 24.43" fill="#bdffee" stroke="#000" stroke-miterlimit="10" stroke-width="1.34"/><polygon points="1287.78 143.44 1292.29 139.34 1309.56 149.83 1305.06 153.93 1287.78 143.44" fill="#bdffee" stroke="#000" stroke-miterlimit="10" stroke-width="1.34"/><polygon points="1332.4 134.95 1341.67 119.87 1348.15 122.07 1338.88 137.15 1332.4 134.95" fill="#bdffee" stroke="#000" stroke-miterlimit="10" stroke-width="1.34"/><polygon points="1480.88 100.84 1493.16 87 1499.11 89.92 1486.83 103.75 1480.88 100.84" fill="#bdffee" stroke="#000" stroke-miterlimit="10" stroke-width="1.34"/><polygon points="1199.98 180.58 1219.84 173.03 1223.09 177.75 1203.23 185.3 1199.98 180.58" fill="#bdffee" stroke="#000" stroke-miterlimit="10" stroke-width="1.34"/><polygon points="1571.84 364.36 1577.77 348.38 1584.64 349.78 1578.71 365.76 1571.84 364.36" fill="#bdffee" stroke="#000" stroke-miterlimit="10" stroke-width="1.34"/><polygon points="1286.03 252.6 1289.41 247.94 1309.05 255.79 1305.68 260.45 1286.03 252.6" fill="#bdffee" stroke="#000" stroke-miterlimit="10" stroke-width="1.34"/><polygon points="1546.07 174.8 1568.37 166.25 1577.03 178.73 1554.73 187.28 1546.07 174.8" fill="none"/><polygon points="1550.42 179.14 1550.54 173.84 1572.84 174.12 1572.72 179.42 1550.42 179.14" fill="#bdffee" stroke="#000" stroke-miterlimit="10" stroke-width="1.34"/><polygon points="1362.98 210.8 1369.89 197.73 1393.25 204.54 1386.35 217.61 1362.98 210.8" fill="none"/><polygon points="1370.85 214.34 1378.8 198.85 1385.46 200.74 1377.51 216.23 1370.85 214.34" fill="#bdffee" stroke="#000" stroke-miterlimit="10" stroke-width="1.34"/><polygon points="1484.49 216.21 1491.39 203.13 1514.75 209.94 1507.85 223.02 1484.49 216.21" fill="none"/><polygon points="1489.89 208.4 1495.32 204.97 1509.75 217.61 1504.32 221.04 1489.89 208.4" fill="#bdffee" stroke="#000" stroke-miterlimit="10" stroke-width="1.34"/></g><g id="f5839202-b92b-46a7-ac21-e88944d334e4" data-name="big leaf"><g id="181e0f91-13bf-4dd3-a582-7e4e7462b523" data-name="happy crop"><path d="M851.07,1243.58c-14-22.58-150.51-223.88-21.9-408,0,0,32.31-55.38,107.69-80,35.68-11.65,77.05-8.51,110.72,7.74,25.62,12.36,46.69,32.26,62.88,55.45a259,259,0,0,1,26.78,50c33.56,81.71,33.7,186.84,11.3,271.9A241.72,241.72,0,0,1,1137,1174.8c-2.18,5.06-7,18.88-18,28.16-7,5.88-264.78,41.88-264.78,41.88A2.88,2.88,0,0,1,851.07,1243.58Z" fill="#1c1c1c" stroke="#000" stroke-miterlimit="10" stroke-width="2.89"/><path id="390bff76-40f9-42a9-bc6b-7cb78ce0c812" data-name="ear" d="M837.67,1005.42s-15-16.18-12.54,7.46c0,0,4.82,17.37,20.74,17.37h1.71S837,1005.9,837.67,1005.42Z" fill="#f8e6d3" stroke="#000" stroke-miterlimit="10" stroke-width="2.89"/><path d="M831.4,961s-4.28,112.83,104.82,129.2c17.82,2.67,38.66,2.77,63-.61,0,0,129.52-12.79,116.73-149.56,0,0-38.59,0-57.88-33.74l4.82,18.33s-40.19-11.23-72.36-95.51c0,0-15.44,71.05-67.53,103.06,0,0,1.93-17.2,0-24.91,0,0-26,30.14-51.13,40.64l1-15.72S851.66,954,831.4,961Z" fill="#f8e6d3" stroke="#000" stroke-miterlimit="10" stroke-width="2.89"/><line x1="874.05" y1="963.77" x2="910.7" y2="957.48" fill="#fff" stroke="#000" stroke-linecap="round" stroke-miterlimit="10" stroke-width="5.79"/><line x1="1030.55" y1="946.02" x2="1067.33" y2="940.52" fill="#fff" stroke="#000" stroke-linecap="round" stroke-miterlimit="10" stroke-width="5.79"/><ellipse cx="898.5" cy="988.94" rx="24.51" ry="12.55" transform="translate(-138.89 146.85) rotate(-8.68)" fill="#fff" stroke="#000" stroke-miterlimit="10" stroke-width="2.89"/><circle cx="898.91" cy="988.88" r="11.14"/><ellipse cx="1051.32" cy="972.93" rx="24.51" ry="12.55" transform="translate(-134.73 169.72) rotate(-8.68)" fill="#fff" stroke="#000" stroke-miterlimit="10" stroke-width="2.89"/><circle cx="1052.26" cy="972.79" r="11.25"/><polyline points="978.38 1000.02 978.38 1015.13 986.05 1015.13" fill="none" stroke="#000" stroke-linecap="round" stroke-miterlimit="10" stroke-width="4.34"/><path d="M963.16,689.49s-22.6,25.23-14.39,67c0,0-4.67-18.79-18.59-18.1" fill="none" stroke="#000" stroke-linecap="round" stroke-miterlimit="10" stroke-width="4.34"/><path d="M965,679.47s-19.14-19.78-7.66-31.21c0,0,14.81-6.21,10.89,31.21Z" fill="#fff" stroke="#231f20" stroke-linecap="round" stroke-miterlimit="10" stroke-width="2.89"/><path d="M971.77,678.52s1.32-27.49,17.51-26.94c0,0,14.66,6.55-15.3,29.3Z" fill="#fff" stroke="#231f20" stroke-linecap="round" stroke-miterlimit="10" stroke-width="2.89"/><path d="M972.73,684.38s24.57-12.4,32.07,2c0,0,1.53,16-33,1.12Z" fill="#fff" stroke="#231f20" stroke-linecap="round" stroke-miterlimit="10" stroke-width="2.89"/><path d="M969.83,686.91s17.13,21.55,4.59,31.8c0,0-15.34,4.74-7.8-32.12Z" fill="#fff" stroke="#231f20" stroke-linecap="round" stroke-miterlimit="10" stroke-width="2.89"/><path d="M964.57,686.06s-22.7,15.57-32,2.34c0,0-3.64-15.64,32.59-5.52Z" fill="#fff" stroke="#231f20" stroke-linecap="round" stroke-miterlimit="10" stroke-width="2.89"/><circle cx="968.9" cy="683.75" r="5.74" fill="#f8daa4" stroke="#231f20" stroke-linecap="round" stroke-miterlimit="10" stroke-width="2.89"/><path d="M964.53,735.6S952.4,722,948.77,756.49" fill="none" stroke="#000" stroke-linecap="round" stroke-miterlimit="10" stroke-width="4.34"/><path id="9d65efd1-2b1a-498a-9cb1-0be8dbc615f3" data-name="ear" d="M1117.33,970.32s10.46-18.4,13.36,4.24c0,0-.73,17.3-15.62,20.78l-1.6.37S1118.08,970.62,1117.33,970.32Z" fill="#f8e6d3" stroke="#000" stroke-miterlimit="10" stroke-width="2.89"/><ellipse cx="1070.7" cy="1007.57" rx="14.67" ry="7.51" transform="translate(-139.73 173.04) rotate(-8.68)" fill="#f39c9c"/><ellipse cx="896.68" cy="1028.48" rx="14.67" ry="7.51" transform="translate(-144.88 147.03) rotate(-8.68)" fill="#f39c9c"/></g></g></svg>