<svg xmlns="http://www.w3.org/2000/svg" viewBox="0 0 920 667"><title>portfolio-project-header-crop</title><g id="cf61a446-701b-4ec4-8f85-0397365a714c" data-name="bg"><rect x="-22.14" y="-5.66" width="952.14" height="674.21" fill="#5245db"/><polygon points="528.27 58.32 532.9 54.29 549.85 65.07 545.22 69.09 528.27 58.32" fill="#bdffee" stroke="#3f3f3f" stroke-miterlimit="10" stroke-width="1.34"/><polygon points="458 268.48 477.53 260.47 480.97 265.11 461.44 273.12 458 268.48" fill="#bdffee" stroke="#3f3f3f" stroke-miterlimit="10" stroke-width="1.34"/><polygon points="176.91 81.77 187.5 67.18 193.77 69.69 183.19 84.28 176.91 81.77" fill="#bdffee" stroke="#3f3f3f" stroke-miterlimit="10" stroke-width="1.34"/><polygon points="239.11 42.92 250.71 28.76 256.8 31.52 245.2 45.68 239.11 42.92" fill="#bdffee" stroke="#000" stroke-miterlimit="10" stroke-width="1.34"/><polygon points="680.34 106.01 681.53 100.79 703.52 103.56 702.33 108.78 680.34 106.01" fill="#bdffee" stroke="#000" stroke-miterlimit="10" stroke-width="1.34"/><polygon points="418.14 11.78 438.8 5.53 441.49 10.43 420.83 16.69 418.14 11.78" fill="#bdffee" stroke="#000" stroke-miterlimit="10" stroke-width="1.34"/><polygon points="866.01 29.66 866.03 24.36 888.34 24.42 888.32 29.71 866.01 29.66" fill="#bdffee" stroke="#000" stroke-miterlimit="10" stroke-width="1.34"/><polygon points="379.32 135.68 400.04 129.55 402.68 134.47 381.95 140.6 379.32 135.68" fill="#bdffee" stroke="#000" stroke-miterlimit="10" stroke-width="1.34"/><polygon points="12.65 10.23 32.9 3.28 35.89 8.09 15.64 15.04 12.65 10.23" fill="#bdffee" stroke="#000" stroke-miterlimit="10" stroke-width="1.34"/><polygon points="512.66 133.87 513.5 128.61 535.65 130.55 534.81 135.81 512.66 133.87" fill="#bdffee" stroke="#000" stroke-miterlimit="10" stroke-width="1.34"/><polygon points="363.46 177.43 363.96 172.14 386.21 173.32 385.71 178.6 363.46 177.43" fill="#bdffee" stroke="#000" stroke-miterlimit="10" stroke-width="1.34"/><polygon points="558.13 53.03 564.59 37.16 571.41 38.69 564.95 54.56 558.13 53.03" fill="#bdffee" stroke="#000" stroke-miterlimit="10" stroke-width="1.34"/><polygon points="746.54 68.71 767.36 62.77 769.92 67.71 749.1 73.65 746.54 68.71" fill="#bdffee" stroke="#000" stroke-miterlimit="10" stroke-width="1.34"/><polygon points="481.99 198.34 503.62 194.27 505.37 199.4 483.74 203.47 481.99 198.34" fill="#bdffee" stroke="#000" stroke-miterlimit="10" stroke-width="1.34"/><polygon points="289.36 182.89 294.9 166.83 301.8 168.14 296.27 184.2 289.36 182.89" fill="#bdffee" stroke="#000" stroke-miterlimit="10" stroke-width="1.34"/><polygon points="859.64 240.02 865.18 223.96 872.08 225.28 866.54 241.33 859.64 240.02" fill="#bdffee" stroke="#000" stroke-miterlimit="10" stroke-width="1.34"/><polygon points="316.35 272.72 320.69 268.52 338.38 278.61 334.04 282.81 316.35 272.72" fill="#bdffee" stroke="#000" stroke-miterlimit="10" stroke-width="1.34"/><polygon points="468.31 88.2 482.02 75.14 487.64 78.39 473.92 91.46 468.31 88.2" fill="#bdffee" stroke="#000" stroke-miterlimit="10" stroke-width="1.34"/><polygon points="285.68 101.5 289.46 85.28 296.48 86.19 292.7 102.41 285.68 101.5" fill="#bdffee" stroke="#000" stroke-miterlimit="10" stroke-width="1.34"/><polygon points="117.04 33.83 136.89 26.28 140.14 30.99 120.28 38.54 117.04 33.83" fill="#bdffee" stroke="#000" stroke-miterlimit="10" stroke-width="1.34"/><polygon points="634.99 189.9 640.92 173.92 647.79 175.33 641.86 191.31 634.99 189.9" fill="#bdffee" stroke="#000" stroke-miterlimit="10" stroke-width="1.34"/><polygon points="73.33 323.37 79.26 307.39 86.13 308.8 80.2 324.78 73.33 323.37" fill="#bdffee" stroke="#000" stroke-miterlimit="10" stroke-width="1.34"/><polygon points="758.34 213.47 759.38 208.23 781.45 210.67 780.4 215.91 758.34 213.47" fill="#bdffee" stroke="#000" stroke-miterlimit="10" stroke-width="1.34"/><polygon points="632.03 308.53 638.93 301.73 658.6 312.74 651.71 319.54 632.03 308.53" fill="none"/><polygon points="634.14 308.65 637.74 304.08 656.99 312.45 653.4 317.02 634.14 308.65" fill="#caefc5" stroke="#3f3f3f" stroke-miterlimit="10" stroke-width="1.34"/><polygon points="186.38 144.85 192.22 131.49 216.09 137.25 210.25 150.61 186.38 144.85" fill="none"/><polygon points="190.93 136.93 196.07 133.27 211.5 145.25 206.35 148.91 190.93 136.93" fill="#bdffee" stroke="#000" stroke-miterlimit="10" stroke-width="1.34"/><polygon points="158.89 211.6 177.49 209.11 181.94 227.46 163.34 229.95 158.89 211.6" fill="none"/><polygon points="163.65 226.57 170.57 210.81 177.34 212.45 170.43 228.21 163.65 226.57" fill="#bdffee" stroke="#000" stroke-miterlimit="10" stroke-width="1.34"/><polygon points="549.64 198.16 555.48 184.8 579.35 190.57 573.5 203.93 549.64 198.16" fill="none"/><polygon points="554.19 190.22 559.34 186.56 574.76 198.54 569.61 202.2 554.19 190.22" fill="#bdffee" stroke="#000" stroke-miterlimit="10" stroke-width="1.34"/><polygon points="349.54 34.49 355.38 21.13 379.24 26.9 373.4 40.26 349.54 34.49" fill="none"/><polygon points="354.18 26.4 359.33 22.74 374.75 34.72 369.61 38.38 354.18 26.4" fill="#bdffee" stroke="#000" stroke-miterlimit="10" stroke-width="1.34"/><polygon points="821.19 84.22 827.02 70.86 850.89 76.62 845.05 89.98 821.19 84.22" fill="none"/><polygon points="825.84 76.36 830.99 72.7 846.41 84.67 841.27 88.33 825.84 76.36" fill="#bdffee" stroke="#000" stroke-miterlimit="10" stroke-width="1.34"/><polygon points="802.21 64.3 818.19 56.81 831.57 72.59 815.59 80.08 802.21 64.3" fill="none"/><polygon points="812.5 60.24 819.61 59.87 821.15 76.41 814.04 76.77 812.5 60.24" fill="#bdffee" stroke="#000" stroke-miterlimit="10" stroke-width="1.34"/><polygon points="630.62 34.94 634.67 21.22 659.18 25.22 655.12 38.94 630.62 34.94" fill="none"/><polygon points="634.22 26.67 638.87 22.66 655.79 33.45 651.15 37.47 634.22 26.67" fill="#bdffee" stroke="#000" stroke-miterlimit="10" stroke-width="1.34"/><polygon points="77.25 133.81 99.55 125.26 108.21 137.74 85.91 146.29 77.25 133.81" fill="none"/><polygon points="81.6 138.15 81.72 132.85 104.02 133.14 103.9 138.43 81.6 138.15" fill="#bdffee" stroke="#000" stroke-miterlimit="10" stroke-width="1.34"/><polygon points="346.67 101.57 352.51 88.22 376.38 93.98 370.54 107.33 346.67 101.57" fill="none"/><polygon points="351.31 93.59 356.46 89.93 371.88 101.91 366.74 105.57 351.31 93.59" fill="#bdffee" stroke="#000" stroke-miterlimit="10" stroke-width="1.34"/><polygon points="743.37 140.39 749.21 127.03 773.07 132.79 767.24 146.15 743.37 140.39" fill="none"/><polygon points="747.91 132.43 753.06 128.77 768.48 140.75 763.33 144.41 747.91 132.43" fill="#bdffee" stroke="#000" stroke-miterlimit="10" stroke-width="1.34"/><polygon points="794.03 311.2 799.87 297.84 823.74 303.6 817.9 316.96 794.03 311.2" fill="none"/><polygon points="798.56 303.29 803.71 299.63 819.13 311.6 813.98 315.26 798.56 303.29" fill="#bdffee" stroke="#000" stroke-miterlimit="10" stroke-width="1.34"/><polygon points="887.98 159.58 907.84 152.03 911.09 156.75 891.23 164.3 887.98 159.58" fill="#bdffee" stroke="#000" stroke-miterlimit="10" stroke-width="1.34"/></g><g id="d57dc5cf-3955-4c4c-b750-5fae5e570eec" data-name="big leaf"><g id="b218a659-fd4b-4fff-a753-d7a046aacf64" data-name="happy crop"><path d="M369.79,826.26c-10-16.15-107.67-160.16-15.67-291.88,0,0,23.11-39.62,77-57.23,25.53-8.33,55.12-6.09,79.2,5.53,18.33,8.85,33.4,23.08,45,39.67a185.28,185.28,0,0,1,19.16,35.79c24,58.45,24.11,133.66,8.08,194.5a172.91,172.91,0,0,1-8.25,24.4c-1.56,3.62-5,13.51-12.85,20.15-5,4.21-189.41,30-189.41,30A2.06,2.06,0,0,1,369.79,826.26Z" fill="#1c1c1c" stroke="#000" stroke-miterlimit="10" stroke-width="2.07"/><path id="4b15ba53-50b8-486b-9aab-6f34245a5934" data-name="ear" d="M360.2,655.88s-10.7-11.57-9,5.33c0,0,3.45,12.42,14.84,12.42h1.23S359.71,656.23,360.2,655.88Z" fill="#f8e6d3" stroke="#000" stroke-miterlimit="10" stroke-width="2.07"/><path d="M355.71,624.1s-3.06,80.71,75,92.42c12.75,1.91,27.66,2,45.1-.44,0,0,92.65-9.15,83.51-107,0,0-27.61,0-41.41-24.14l3.45,13.11s-28.75-8-51.76-68.32c0,0-11,50.83-48.31,73.72,0,0,1.38-12.3,0-17.82,0,0-18.63,21.56-36.58,29.07l.69-11.25S370.21,619.08,355.71,624.1Z" fill="#f8e6d3" stroke="#000" stroke-miterlimit="10" stroke-width="2.07"/><line x1="386.22" y1="626.09" x2="412.44" y2="621.59" fill="#fff" stroke="#000" stroke-linecap="round" stroke-miterlimit="10" stroke-width="4.14"/><line x1="498.18" y1="613.39" x2="524.49" y2="609.46" fill="#fff" stroke="#000" stroke-linecap="round" stroke-miterlimit="10" stroke-width="4.14"/><ellipse cx="403.72" cy="644.1" rx="17.53" ry="8.98" transform="translate(-92.54 68.27) rotate(-8.68)" fill="#fff" stroke="#000" stroke-miterlimit="10" stroke-width="2.07"/><circle cx="404" cy="644.05" r="7.97"/><ellipse cx="513.03" cy="632.65" rx="17.53" ry="8.98" transform="translate(-89.56 84.63) rotate(-8.68)" fill="#fff" stroke="#000" stroke-miterlimit="10" stroke-width="2.07"/><circle cx="513.71" cy="632.54" r="8.05"/><polyline points="460.86 652.02 460.86 662.83 466.34 662.83" fill="none" stroke="#000" stroke-linecap="round" stroke-miterlimit="10" stroke-width="3.11"/><path d="M450,429.88s-16.17,18.05-10.3,47.93c0,0-3.34-13.44-13.3-12.95" fill="none" stroke="#000" stroke-linecap="round" stroke-miterlimit="10" stroke-width="3.11"/><path d="M451.29,422.71s-13.69-14.15-5.48-22.32c0,0,10.6-4.44,7.79,22.32Z" fill="#fff" stroke="#231f20" stroke-linecap="round" stroke-miterlimit="10" stroke-width="2.07"/><path d="M456.13,422s.94-19.67,12.52-19.27c0,0,10.49,4.69-10.94,21Z" fill="#fff" stroke="#231f20" stroke-linecap="round" stroke-miterlimit="10" stroke-width="2.07"/><path d="M456.82,426.23s17.58-8.87,22.94,1.4c0,0,1.09,11.44-23.63.8Z" fill="#fff" stroke="#231f20" stroke-linecap="round" stroke-miterlimit="10" stroke-width="2.07"/><path d="M454.74,428S467,443.45,458,450.79c0,0-11,3.39-5.58-23Z" fill="#fff" stroke="#231f20" stroke-linecap="round" stroke-miterlimit="10" stroke-width="2.07"/><path d="M451,427.43s-16.24,11.14-22.93,1.67c0,0-2.61-11.19,23.31-3.95Z" fill="#fff" stroke="#231f20" stroke-linecap="round" stroke-miterlimit="10" stroke-width="2.07"/><circle cx="454.08" cy="425.77" r="4.11" fill="#f8daa4" stroke="#231f20" stroke-linecap="round" stroke-miterlimit="10" stroke-width="2.07"/><path d="M451,462.87s-8.68-9.71-11.28,14.94" fill="none" stroke="#000" stroke-linecap="round" stroke-miterlimit="10" stroke-width="3.11"/><path id="382ea8c4-d8bf-4cc9-8851-b0c9c82f0807" data-name="ear" d="M560.26,630.78s7.48-13.17,9.56,3c0,0-.52,12.38-11.17,14.86l-1.15.27S560.79,631,560.26,630.78Z" fill="#f8e6d3" stroke="#000" stroke-miterlimit="10" stroke-width="2.07"/><ellipse cx="526.9" cy="657.42" rx="10.5" ry="5.37" transform="translate(-93.14 87) rotate(-8.68)" fill="#f39c9c"/><ellipse cx="402.41" cy="672.38" rx="10.5" ry="5.37" transform="translate(-96.82 68.39) rotate(-8.68)" fill="#f39c9c"/></g></g></svg>