<svg xmlns="http://www.w3.org/2000/svg" viewBox="0 0 1920.5 831.5"><title>portfolio-project-header-wide</title><g id="d827d69a-9a99-49db-83f5-c9e1803ce22f" data-name="bg"><rect width="1920.5" height="831.5" fill="#5245db"/><polygon points="840.27 64.32 844.9 60.29 861.85 71.07 857.22 75.09 840.27 64.32" fill="#bdffee" stroke="#3f3f3f" stroke-miterlimit="10" stroke-width="1.34"/><polygon points="770 274.48 789.53 266.47 792.97 271.11 773.44 279.12 770 274.48" fill="#bdffee" stroke="#3f3f3f" stroke-miterlimit="10" stroke-width="1.34"/><polygon points="211.49 220.6 233.72 219.3 234.28 224.58 212.05 225.88 211.49 220.6" fill="#bdffee" stroke="#3f3f3f" stroke-miterlimit="10" stroke-width="1.34"/><polygon points="142.39 369.28 143.5 364.05 165.53 366.62 164.43 371.85 142.39 369.28" fill="#bdffee" stroke="#3f3f3f" stroke-miterlimit="10" stroke-width="1.34"/><polygon points="488.91 87.77 499.5 73.18 505.77 75.69 495.19 90.28 488.91 87.77" fill="#bdffee" stroke="#3f3f3f" stroke-miterlimit="10" stroke-width="1.34"/><polygon points="551.11 48.92 562.71 34.76 568.8 37.52 557.2 51.68 551.11 48.92" fill="#bdffee" stroke="#000" stroke-miterlimit="10" stroke-width="1.34"/><polygon points="992.34 112.01 993.53 106.79 1015.52 109.56 1014.33 114.78 992.34 112.01" fill="#bdffee" stroke="#000" stroke-miterlimit="10" stroke-width="1.34"/><polygon points="730.14 17.78 750.8 11.53 753.49 16.43 732.83 22.69 730.14 17.78" fill="#bdffee" stroke="#000" stroke-miterlimit="10" stroke-width="1.34"/><polygon points="1178.01 35.66 1178.03 30.36 1200.34 30.42 1200.32 35.71 1178.01 35.66" fill="#bdffee" stroke="#000" stroke-miterlimit="10" stroke-width="1.34"/><polygon points="691.32 141.68 712.04 135.55 714.68 140.47 693.95 146.6 691.32 141.68" fill="#bdffee" stroke="#000" stroke-miterlimit="10" stroke-width="1.34"/><polygon points="124.05 63.59 136.08 49.64 142.08 52.49 130.05 66.45 124.05 63.59" fill="#bdffee" stroke="#000" stroke-miterlimit="10" stroke-width="1.34"/><polygon points="324.65 16.23 344.9 9.28 347.89 14.09 327.64 21.04 324.65 16.23" fill="#bdffee" stroke="#000" stroke-miterlimit="10" stroke-width="1.34"/><polygon points="37 35.96 58.03 30.44 60.41 35.44 39.37 40.95 37 35.96" fill="#bdffee" stroke="#000" stroke-miterlimit="10" stroke-width="1.34"/><polygon points="185.22 126.2 187.41 121.16 208.63 126.26 206.44 131.3 185.22 126.2" fill="#bdffee" stroke="#000" stroke-miterlimit="10" stroke-width="1.34"/><polygon points="824.66 139.87 825.5 134.61 847.65 136.55 846.81 141.81 824.66 139.87" fill="#bdffee" stroke="#000" stroke-miterlimit="10" stroke-width="1.34"/><polygon points="675.46 183.43 675.96 178.14 698.21 179.32 697.71 184.6 675.46 183.43" fill="#bdffee" stroke="#000" stroke-miterlimit="10" stroke-width="1.34"/><polygon points="272.1 21.92 279.21 21.58 280.63 38.13 273.52 38.46 272.1 21.92" fill="#bdffee" stroke="#000" stroke-miterlimit="10" stroke-width="1.34"/><polygon points="870.13 59.03 876.59 43.16 883.41 44.69 876.95 60.56 870.13 59.03" fill="#bdffee" stroke="#000" stroke-miterlimit="10" stroke-width="1.34"/><polygon points="1058.54 74.71 1079.36 68.77 1081.92 73.71 1061.1 79.65 1058.54 74.71" fill="#bdffee" stroke="#000" stroke-miterlimit="10" stroke-width="1.34"/><polygon points="73.89 108.46 78.4 104.36 95.67 114.84 91.17 118.94 73.89 108.46" fill="#bdffee" stroke="#000" stroke-miterlimit="10" stroke-width="1.34"/><polygon points="793.99 204.34 815.62 200.27 817.37 205.4 795.74 209.47 793.99 204.34" fill="#bdffee" stroke="#000" stroke-miterlimit="10" stroke-width="1.34"/><polygon points="601.36 188.89 606.9 172.83 613.8 174.14 608.27 190.2 601.36 188.89" fill="#bdffee" stroke="#000" stroke-miterlimit="10" stroke-width="1.34"/><polygon points="1171.64 246.02 1177.18 229.96 1184.08 231.28 1178.54 247.33 1171.64 246.02" fill="#bdffee" stroke="#000" stroke-miterlimit="10" stroke-width="1.34"/><polygon points="628.35 278.72 632.69 274.52 650.38 284.61 646.04 288.81 628.35 278.72" fill="#bdffee" stroke="#000" stroke-miterlimit="10" stroke-width="1.34"/><polygon points="118.52 99.96 127.78 84.89 134.27 87.09 125 102.16 118.52 99.96" fill="#bdffee" stroke="#000" stroke-miterlimit="10" stroke-width="1.34"/><polygon points="780.3 94.2 794.02 81.14 799.64 84.39 785.92 97.46 780.3 94.2" fill="#bdffee" stroke="#000" stroke-miterlimit="10" stroke-width="1.34"/><polygon points="266.99 65.85 279.27 52.01 285.22 54.93 272.94 68.77 266.99 65.85" fill="#bdffee" stroke="#000" stroke-miterlimit="10" stroke-width="1.34"/><polygon points="597.67 107.5 601.46 91.28 608.48 92.19 604.7 108.41 597.67 107.5" fill="#bdffee" stroke="#000" stroke-miterlimit="10" stroke-width="1.34"/><polygon points="429.04 39.83 448.89 32.28 452.14 36.99 432.28 44.54 429.04 39.83" fill="#bdffee" stroke="#000" stroke-miterlimit="10" stroke-width="1.34"/><polygon points="946.99 195.9 952.92 179.92 959.79 181.33 953.86 197.31 946.99 195.9" fill="#bdffee" stroke="#000" stroke-miterlimit="10" stroke-width="1.34"/><polygon points="385.33 329.37 391.26 313.39 398.13 314.8 392.2 330.78 385.33 329.37" fill="#bdffee" stroke="#000" stroke-miterlimit="10" stroke-width="1.34"/><polygon points="1070.34 219.47 1071.38 214.23 1093.45 216.67 1092.4 221.91 1070.34 219.47" fill="#bdffee" stroke="#000" stroke-miterlimit="10" stroke-width="1.34"/><polygon points="72.14 217.62 75.52 212.95 95.17 220.8 91.79 225.47 72.14 217.62" fill="#bdffee" stroke="#000" stroke-miterlimit="10" stroke-width="1.34"/><polygon points="944.03 314.53 950.93 307.73 970.6 318.74 963.71 325.54 944.03 314.53" fill="none"/><polygon points="946.14 314.65 949.74 310.08 968.99 318.45 965.4 323.02 946.14 314.65" fill="#caefc5" stroke="#3f3f3f" stroke-miterlimit="10" stroke-width="1.34"/><polygon points="498.38 150.85 504.22 137.49 528.09 143.25 522.25 156.61 498.38 150.85" fill="none"/><polygon points="502.93 142.93 508.07 139.27 523.5 151.25 518.35 154.91 502.93 142.93" fill="#bdffee" stroke="#000" stroke-miterlimit="10" stroke-width="1.34"/><polygon points="470.89 217.6 489.49 215.11 493.94 233.46 475.34 235.95 470.89 217.6" fill="none"/><polygon points="475.65 232.57 482.57 216.81 489.34 218.45 482.43 234.21 475.65 232.57" fill="#bdffee" stroke="#000" stroke-miterlimit="10" stroke-width="1.34"/><polygon points="861.64 204.16 867.48 190.8 891.35 196.57 885.5 209.93 861.64 204.16" fill="none"/><polygon points="866.19 196.22 871.34 192.56 886.76 204.54 881.61 208.2 866.19 196.22" fill="#bdffee" stroke="#000" stroke-miterlimit="10" stroke-width="1.34"/><polygon points="661.54 40.49 667.38 27.13 691.24 32.9 685.4 46.26 661.54 40.49" fill="none"/><polygon points="666.18 32.4 671.33 28.74 686.75 40.72 681.61 44.38 666.18 32.4" fill="#bdffee" stroke="#000" stroke-miterlimit="10" stroke-width="1.34"/><polygon points="1133.19 90.22 1139.03 76.86 1162.89 82.62 1157.05 95.98 1133.19 90.22" fill="none"/><polygon points="1137.84 82.36 1142.99 78.7 1158.41 90.67 1153.27 94.33 1137.84 82.36" fill="#bdffee" stroke="#000" stroke-miterlimit="10" stroke-width="1.34"/><polygon points="1114.2 70.3 1130.19 62.81 1143.57 78.59 1127.59 86.08 1114.2 70.3" fill="none"/><polygon points="1124.5 66.24 1131.61 65.87 1133.15 82.41 1126.04 82.77 1124.5 66.24" fill="#bdffee" stroke="#000" stroke-miterlimit="10" stroke-width="1.34"/><polygon points="942.62 40.94 946.67 27.22 971.18 31.22 967.12 44.94 942.62 40.94" fill="none"/><polygon points="946.22 32.67 950.87 28.66 967.79 39.45 963.15 43.47 946.22 32.67" fill="#bdffee" stroke="#000" stroke-miterlimit="10" stroke-width="1.34"/><polygon points="389.25 139.81 411.55 131.26 420.21 143.74 397.91 152.29 389.25 139.81" fill="none"/><polygon points="393.6 144.15 393.72 138.85 416.02 139.14 415.9 144.43 393.6 144.15" fill="#bdffee" stroke="#000" stroke-miterlimit="10" stroke-width="1.34"/><polygon points="658.67 107.57 664.51 94.22 688.38 99.98 682.54 113.33 658.67 107.57" fill="none"/><polygon points="663.31 99.59 668.46 95.93 683.88 107.91 678.74 111.57 663.31 99.59" fill="#bdffee" stroke="#000" stroke-miterlimit="10" stroke-width="1.34"/><polygon points="1736.91 87.77 1747.5 73.18 1753.77 75.69 1743.18 90.28 1736.91 87.77" fill="#bdffee" stroke="#3f3f3f" stroke-miterlimit="10" stroke-width="1.34"/><polygon points="1799.11 48.92 1810.71 34.76 1816.8 37.52 1805.2 51.68 1799.11 48.92" fill="#bdffee" stroke="#000" stroke-miterlimit="10" stroke-width="1.34"/><polygon points="1652.46 276.43 1652.96 271.14 1675.21 272.32 1674.71 277.6 1652.46 276.43" fill="#bdffee" stroke="#000" stroke-miterlimit="10" stroke-width="1.34"/><polygon points="1849.36 188.89 1854.9 172.83 1861.8 174.14 1856.27 190.2 1849.36 188.89" fill="#bdffee" stroke="#000" stroke-miterlimit="10" stroke-width="1.34"/><polygon points="1876.35 278.72 1880.69 274.52 1898.38 284.61 1894.04 288.81 1876.35 278.72" fill="#bdffee" stroke="#000" stroke-miterlimit="10" stroke-width="1.34"/><polygon points="1845.67 107.5 1849.46 91.28 1856.48 92.19 1852.7 108.41 1845.67 107.5" fill="#bdffee" stroke="#000" stroke-miterlimit="10" stroke-width="1.34"/><polygon points="1677.04 39.83 1696.89 32.28 1700.14 36.99 1680.28 44.54 1677.04 39.83" fill="#bdffee" stroke="#000" stroke-miterlimit="10" stroke-width="1.34"/><polygon points="1746.38 150.85 1752.22 137.49 1776.09 143.25 1770.25 156.61 1746.38 150.85" fill="none"/><polygon points="1750.92 142.93 1756.07 139.27 1771.49 151.25 1766.35 154.91 1750.92 142.93" fill="#bdffee" stroke="#000" stroke-miterlimit="10" stroke-width="1.34"/><polygon points="1718.89 217.6 1737.49 215.11 1741.94 233.46 1723.34 235.95 1718.89 217.6" fill="none"/><polygon points="1723.65 232.57 1730.57 216.81 1737.34 218.45 1730.43 234.21 1723.65 232.57" fill="#bdffee" stroke="#000" stroke-miterlimit="10" stroke-width="1.34"/><polygon points="1637.25 139.81 1659.55 131.26 1668.21 143.74 1645.91 152.29 1637.25 139.81" fill="none"/><polygon points="1641.6 144.15 1641.72 138.85 1664.02 139.14 1663.9 144.43 1641.6 144.15" fill="#bdffee" stroke="#000" stroke-miterlimit="10" stroke-width="1.34"/><polygon points="149.1 175.81 156 162.74 179.36 169.55 172.46 182.63 149.1 175.81" fill="none"/><polygon points="156.96 179.35 164.91 163.87 171.57 165.75 163.62 181.24 156.96 179.35" fill="#bdffee" stroke="#000" stroke-miterlimit="10" stroke-width="1.34"/><polygon points="270.6 181.22 277.5 168.14 300.86 174.96 293.96 188.03 270.6 181.22" fill="none"/><polygon points="276 173.41 281.43 169.99 295.86 182.63 290.43 186.05 276 173.41" fill="#bdffee" stroke="#000" stroke-miterlimit="10" stroke-width="1.34"/><polygon points="1055.37 146.39 1061.21 133.03 1085.07 138.79 1079.23 152.15 1055.37 146.39" fill="none"/><polygon points="1059.91 138.43 1065.06 134.77 1080.48 146.75 1075.33 150.41 1059.91 138.43" fill="#bdffee" stroke="#000" stroke-miterlimit="10" stroke-width="1.34"/><polygon points="1106.03 317.2 1111.87 303.84 1135.74 309.6 1129.9 322.96 1106.03 317.2" fill="none"/><polygon points="1110.56 309.29 1115.71 305.63 1131.13 317.6 1125.98 321.26 1110.56 309.29" fill="#bdffee" stroke="#000" stroke-miterlimit="10" stroke-width="1.34"/><polygon points="1425.38 240.59 1447.61 239.29 1448.17 244.57 1425.94 245.87 1425.38 240.59" fill="#bdffee" stroke="#3f3f3f" stroke-miterlimit="10" stroke-width="1.34"/><polygon points="1326.34 334.51 1327.44 329.28 1349.48 331.85 1348.38 337.08 1326.34 334.51" fill="#bdffee" stroke="#3f3f3f" stroke-miterlimit="10" stroke-width="1.34"/><polygon points="1337.94 83.58 1349.97 69.62 1355.97 72.48 1343.94 86.44 1337.94 83.58" fill="#bdffee" stroke="#000" stroke-miterlimit="10" stroke-width="1.34"/><polygon points="1572.76 63.59 1593.01 56.64 1596 61.45 1575.75 68.4 1572.76 63.59" fill="#bdffee" stroke="#000" stroke-miterlimit="10" stroke-width="1.34"/><polygon points="1262.44 29.3 1283.47 23.78 1285.84 28.77 1264.81 34.29 1262.44 29.3" fill="#bdffee" stroke="#000" stroke-miterlimit="10" stroke-width="1.34"/><polygon points="1399.11 146.19 1401.3 141.15 1422.52 146.25 1420.33 151.29 1399.11 146.19" fill="#bdffee" stroke="#000" stroke-miterlimit="10" stroke-width="1.34"/><polygon points="1464.55 9.43 1471.66 9.09 1473.08 25.63 1465.97 25.97 1464.55 9.43" fill="#bdffee" stroke="#000" stroke-miterlimit="10" stroke-width="1.34"/><polygon points="1287.78 128.44 1292.29 124.34 1309.56 134.83 1305.06 138.93 1287.78 128.44" fill="#bdffee" stroke="#000" stroke-miterlimit="10" stroke-width="1.34"/><polygon points="1332.4 119.95 1341.67 104.87 1348.15 107.07 1338.88 122.15 1332.4 119.95" fill="#bdffee" stroke="#000" stroke-miterlimit="10" stroke-width="1.34"/><polygon points="1480.88 85.84 1493.16 72 1499.11 74.92 1486.83 88.75 1480.88 85.84" fill="#bdffee" stroke="#000" stroke-miterlimit="10" stroke-width="1.34"/><polygon points="1199.98 165.58 1219.84 158.03 1223.09 162.75 1203.23 170.3 1199.98 165.58" fill="#bdffee" stroke="#000" stroke-miterlimit="10" stroke-width="1.34"/><polygon points="1571.84 349.36 1577.77 333.38 1584.64 334.78 1578.71 350.76 1571.84 349.36" fill="#bdffee" stroke="#000" stroke-miterlimit="10" stroke-width="1.34"/><polygon points="1286.03 237.6 1289.41 232.94 1309.05 240.79 1305.68 245.45 1286.03 237.6" fill="#bdffee" stroke="#000" stroke-miterlimit="10" stroke-width="1.34"/><polygon points="1546.07 159.8 1568.37 151.25 1577.03 163.73 1554.73 172.28 1546.07 159.8" fill="none"/><polygon points="1550.42 164.14 1550.54 158.84 1572.84 159.12 1572.72 164.42 1550.42 164.14" fill="#bdffee" stroke="#000" stroke-miterlimit="10" stroke-width="1.34"/><polygon points="1362.98 195.8 1369.89 182.73 1393.25 189.54 1386.35 202.61 1362.98 195.8" fill="none"/><polygon points="1370.85 199.34 1378.8 183.85 1385.46 185.74 1377.51 201.23 1370.85 199.34" fill="#bdffee" stroke="#000" stroke-miterlimit="10" stroke-width="1.34"/><polygon points="1484.49 201.21 1491.39 188.13 1514.75 194.94 1507.85 208.02 1484.49 201.21" fill="none"/><polygon points="1489.89 193.4 1495.32 189.97 1509.75 202.61 1504.32 206.04 1489.89 193.4" fill="#bdffee" stroke="#000" stroke-miterlimit="10" stroke-width="1.34"/></g><g id="a89af004-c9e1-401f-a01d-dd9d9c8d2a04" data-name="big leaf"><g id="71446b78-fe3a-4b5f-991c-b992edc1a38d" data-name="happy crop"><path d="M860.42,1031.64c-12.91-20.85-139-206.72-20.22-376.74,0,0,29.83-51.14,99.43-73.86,32.95-10.76,71.15-7.86,102.23,7.14,23.65,11.42,43.11,29.79,58.06,51.2a239.14,239.14,0,0,1,24.73,46.2c31,75.44,31.11,172.51,10.43,251.05a223.18,223.18,0,0,1-10.65,31.5c-2,4.67-6.45,17.43-16.58,26-6.42,5.43-244.48,38.67-244.48,38.67A2.66,2.66,0,0,1,860.42,1031.64Z" fill="#1c1c1c" stroke="#000" stroke-miterlimit="10" stroke-width="2.67"/><path id="2e24af74-6eed-4cf6-a15b-16b625ef99ae" data-name="ear" d="M848.05,811.74s-13.81-14.94-11.58,6.88c0,0,4.45,16,19.15,16h1.58S847.42,812.18,848.05,811.74Z" fill="#f8e6d3" stroke="#000" stroke-miterlimit="10" stroke-width="2.67"/><path d="M842.26,770.72S838.31,874.9,939,890c16.45,2.47,35.7,2.56,58.21-.57,0,0,119.59-11.81,107.78-138.09,0,0-35.63,0-53.45-31.15l4.45,16.92s-37.11-10.37-66.81-88.19c0,0-14.25,65.6-62.35,95.16,0,0,1.78-15.88,0-23,0,0-24.05,27.83-47.21,37.52l.89-14.52S861,764.23,842.26,770.72Z" fill="#f8e6d3" stroke="#000" stroke-miterlimit="10" stroke-width="2.67"/><line x1="881.64" y1="773.28" x2="915.48" y2="767.47" fill="#fff" stroke="#000" stroke-linecap="round" stroke-miterlimit="10" stroke-width="5.34"/><line x1="1026.14" y1="756.89" x2="1060.1" y2="751.82" fill="#fff" stroke="#000" stroke-linecap="round" stroke-miterlimit="10" stroke-width="5.34"/><ellipse cx="904.22" cy="796.52" rx="22.63" ry="11.59" transform="translate(-109.8 145.51) rotate(-8.68)" fill="#fff" stroke="#000" stroke-miterlimit="10" stroke-width="2.67"/><circle cx="904.59" cy="796.46" r="10.28"/><ellipse cx="1045.31" cy="781.74" rx="22.63" ry="11.59" transform="translate(-105.96 166.62) rotate(-8.68)" fill="#fff" stroke="#000" stroke-miterlimit="10" stroke-width="2.67"/><circle cx="1046.19" cy="781.61" r="10.39"/><polyline points="977.97 806.75 977.97 820.7 985.05 820.7" fill="none" stroke="#000" stroke-linecap="round" stroke-miterlimit="10" stroke-width="4.01"/><path d="M963.92,520s-20.87,23.3-13.29,61.86c0,0-4.31-17.35-17.17-16.71" fill="none" stroke="#000" stroke-linecap="round" stroke-miterlimit="10" stroke-width="4.01"/><path d="M965.63,510.78S948,492.52,958.56,482c0,0,13.68-5.73,10.05,28.81Z" fill="#fff" stroke="#231f20" stroke-linecap="round" stroke-miterlimit="10" stroke-width="2.67"/><path d="M971.87,509.9S973.09,484.51,988,485c0,0,13.54,6-14.12,27.05Z" fill="#fff" stroke="#231f20" stroke-linecap="round" stroke-miterlimit="10" stroke-width="2.67"/><path d="M972.76,515.31s22.69-11.45,29.61,1.81c0,0,1.41,14.76-30.5,1Z" fill="#fff" stroke="#231f20" stroke-linecap="round" stroke-miterlimit="10" stroke-width="2.67"/><path d="M970.08,517.65s15.82,19.89,4.24,29.36c0,0-14.17,4.38-7.21-29.65Z" fill="#fff" stroke="#231f20" stroke-linecap="round" stroke-miterlimit="10" stroke-width="2.67"/><path d="M965.22,516.87s-21,14.37-29.59,2.16c0,0-3.36-14.44,30.09-5.1Z" fill="#fff" stroke="#231f20" stroke-linecap="round" stroke-miterlimit="10" stroke-width="2.67"/><circle cx="969.22" cy="514.73" r="5.3" fill="#f8daa4" stroke="#231f20" stroke-linecap="round" stroke-miterlimit="10" stroke-width="2.67"/><path d="M965.19,562.61S954,550.08,950.63,581.89" fill="none" stroke="#000" stroke-linecap="round" stroke-miterlimit="10" stroke-width="4.01"/><path id="8a403e2c-17b5-4670-becd-bc14ba11f5f3" data-name="ear" d="M1106.27,779.33s9.66-17,12.34,3.92c0,0-.67,16-14.42,19.18l-1.48.35S1107,779.61,1106.27,779.33Z" fill="#f8e6d3" stroke="#000" stroke-miterlimit="10" stroke-width="2.67"/><ellipse cx="1063.21" cy="813.72" rx="13.55" ry="6.94" transform="translate(-110.58 169.69) rotate(-8.68)" fill="#f39c9c"/><ellipse cx="902.54" cy="833.03" rx="13.55" ry="6.94" transform="translate(-115.33 145.67) rotate(-8.68)" fill="#f39c9c"/></g></g></svg>