<svg xmlns="http://www.w3.org/2000/svg" viewBox="0 0 1920 819"><title>compass-header-wide</title><g id="3024ff7b-21f5-4fd8-8b10-602eae06acf9" data-name="Layer 2"><rect width="1920" height="819" fill="#009ddc"/></g><g id="2f068d1e-ad6c-4bed-ab13-ed1caf052057" data-name="Layer 1"><path d="M317.69,79.64c.15,8.9-3,16.24-8.47,22.71q-10.81,12.68-21.5,25.46c-2.25,2.67-2.56,2.82-4.77.27-5.38-6.2-10.6-12.53-15.94-18.76-3.29-3.84-6.77-7.53-9.57-11.77a29.73,29.73,0,0,1-5.11-17.33c.31-10.12,4-19,12.35-25.43a32,32,0,0,1,25-6.75c13.06,1.84,21.3,9.55,26.2,21.22A23.23,23.23,0,0,1,317.69,79.64Z" fill="#00a7e3"/><path d="M286.12,105.09a24,24,0,0,1-24.65-18.23c-2.53-9.73.66-19.32,9.16-26.08,5.8-4.61,12.4-5.14,19.28-4.63,7.54.56,17.59,9.55,19.18,16.93.28,1.3,0,2.09-1.6,2q-3.62-.09-7.25,0a2.45,2.45,0,0,1-2.36-1.48,14.65,14.65,0,0,0-12-7.4c-5-.39-11.41,3.22-13.74,9.22A14.21,14.21,0,0,0,297,88.85a4.73,4.73,0,0,1,4.57-2.27c1.74.13,3.5,0,5.25,0,2.38,0,2.71.52,1.82,2.66-3.13,7.55-8.39,12.62-16.37,15.05A30.09,30.09,0,0,1,286.12,105.09Z" fill="#009cdb"/><path d="M174,95.26c.86,13.51-9.87,26.14-21.45,29.91-12.63,4.11-23.85,1.91-33.66-7.33-8-7.52-10.83-16.88-9.82-27.4.64-6.66,3.7-12.59,8.05-17.75q8-9.49,16.06-19c2.25-2.65,4.57-5.25,6.8-7.92,1.08-1.3,1.93-1.2,3,0,3.51,4.09,7.12,8.09,10.6,12.19,4.07,4.8,7.94,9.78,12.11,14.48A31.28,31.28,0,0,1,174,95.26Z" fill="#00a7e3"/><path d="M160.23,89.11c-1,0-2-.07-3,0a3.43,3.43,0,0,1-3.49-1.81,13.28,13.28,0,0,0-12.35-6.42c-6.46.24-10.7,3.58-13,9.45-2.6,6.58,2,15.5,8.52,17.93s14.28-.58,17.14-6.17c.48-.94,1.24-1,2.09-1,2.67,0,5.33,0,8,0,1.61,0,1.75.41,1.2,1.89-3,8.1-8.66,13.83-16.84,15.84-11,2.69-21.46-.28-28.27-11.92-7-11.94-2-26.64,8.62-33,5-3,10.41-4.59,16.1-3.69,10.25,1.63,17.17,7.62,20.73,17.42.37,1,0,1.44-.94,1.45-1.5,0-3,0-4.5,0Z" fill="#009cdb"/><path d="M612.69,79.64c.15,8.9-3,16.24-8.47,22.71q-10.81,12.68-21.5,25.46c-2.25,2.67-2.56,2.82-4.77.27-5.38-6.2-10.6-12.53-15.94-18.76-3.29-3.84-6.77-7.53-9.57-11.77a29.73,29.73,0,0,1-5.11-17.33c.31-10.12,4-19,12.35-25.43a32,32,0,0,1,25-6.75c13.06,1.84,21.3,9.55,26.2,21.22A23.23,23.23,0,0,1,612.69,79.64Z" fill="#00a7e3"/><path d="M581.12,105.09a24,24,0,0,1-24.65-18.23c-2.53-9.73.66-19.32,9.16-26.08,5.8-4.61,12.4-5.14,19.28-4.63,7.54.56,17.59,9.55,19.18,16.93.28,1.3,0,2.09-1.6,2q-3.62-.09-7.25,0a2.45,2.45,0,0,1-2.36-1.48,14.65,14.65,0,0,0-12-7.4c-5-.39-11.41,3.22-13.74,9.22A14.21,14.21,0,0,0,592,88.85a4.73,4.73,0,0,1,4.57-2.27c1.74.13,3.5,0,5.25,0,2.38,0,2.71.52,1.82,2.66-3.13,7.55-8.39,12.62-16.37,15.05A30.09,30.09,0,0,1,581.12,105.09Z" fill="#009cdb"/><path d="M469,95.26c.86,13.51-9.87,26.14-21.45,29.91-12.63,4.11-23.85,1.91-33.66-7.33-8-7.52-10.83-16.88-9.82-27.4.64-6.66,3.7-12.59,8.05-17.75q8-9.49,16.06-19c2.25-2.65,4.57-5.25,6.8-7.92,1.08-1.3,1.93-1.2,3,0,3.51,4.09,7.12,8.09,10.6,12.19,4.07,4.8,7.94,9.78,12.11,14.48A31.28,31.28,0,0,1,469,95.26Z" fill="#00a7e3"/><path d="M455.23,89.11c-1,0-2-.07-3,0a3.43,3.43,0,0,1-3.49-1.81,13.28,13.28,0,0,0-12.35-6.42c-6.46.24-10.7,3.58-13,9.45-2.6,6.58,2,15.5,8.52,17.93s14.28-.58,17.14-6.17c.48-.94,1.24-1,2.09-1,2.67,0,5.33,0,8,0,1.61,0,1.75.41,1.2,1.89-3,8.1-8.66,13.83-16.84,15.84-11,2.69-21.46-.28-28.27-11.92-7-11.94-2-26.64,8.62-33,5-3,10.41-4.59,16.1-3.69,10.25,1.63,17.17,7.62,20.73,17.42.37,1,0,1.44-.94,1.45-1.5,0-3,0-4.5,0Z" fill="#009cdb"/><path d="M907.69,79.64c.15,8.9-3,16.24-8.47,22.71q-10.81,12.68-21.5,25.46c-2.25,2.67-2.56,2.82-4.77.27-5.38-6.2-10.6-12.53-15.94-18.76-3.29-3.84-6.77-7.53-9.57-11.77a29.73,29.73,0,0,1-5.11-17.33c.31-10.12,4-19,12.35-25.43a32,32,0,0,1,25-6.75c13.06,1.84,21.3,9.55,26.2,21.22A23.23,23.23,0,0,1,907.69,79.64Z" fill="#00a7e3"/><path d="M876.12,105.09a24,24,0,0,1-24.65-18.23c-2.53-9.73.66-19.32,9.16-26.08,5.8-4.61,12.4-5.14,19.28-4.63,7.54.56,17.59,9.55,19.18,16.93.28,1.3,0,2.09-1.6,2q-3.62-.09-7.25,0a2.45,2.45,0,0,1-2.36-1.48,14.65,14.65,0,0,0-12-7.4c-5-.39-11.41,3.22-13.74,9.22A14.21,14.21,0,0,0,887,88.85a4.73,4.73,0,0,1,4.57-2.27c1.74.13,3.5,0,5.25,0,2.38,0,2.71.52,1.82,2.66-3.13,7.55-8.39,12.62-16.37,15.05A30.09,30.09,0,0,1,876.12,105.09Z" fill="#009cdb"/><path d="M764,95.26c.86,13.51-9.87,26.14-21.45,29.91-12.63,4.11-23.85,1.91-33.66-7.33-8-7.52-10.83-16.88-9.82-27.4.64-6.66,3.7-12.59,8.05-17.75q8-9.49,16.06-19c2.25-2.65,4.57-5.25,6.8-7.92,1.08-1.3,1.93-1.2,3,0,3.51,4.09,7.12,8.09,10.6,12.19,4.07,4.8,7.94,9.78,12.11,14.48A31.28,31.28,0,0,1,764,95.26Z" fill="#00a7e3"/><path d="M750.23,89.11c-1,0-2-.07-3,0a3.43,3.43,0,0,1-3.49-1.81,13.28,13.28,0,0,0-12.35-6.42c-6.46.24-10.7,3.58-13,9.45-2.6,6.58,2,15.5,8.52,17.93s14.28-.58,17.14-6.17c.48-.94,1.24-1,2.09-1,2.67,0,5.33,0,8,0,1.61,0,1.75.41,1.2,1.89-3,8.1-8.66,13.83-16.84,15.84-11,2.69-21.46-.28-28.27-11.92-7-11.94-2-26.64,8.62-33,5-3,10.41-4.59,16.1-3.69,10.25,1.63,17.17,7.62,20.73,17.42.37,1,0,1.44-.94,1.45-1.5,0-3,0-4.5,0Z" fill="#009cdb"/><path d="M378.48,290.17c-8.9.15-16.24-3-22.71-8.47q-12.68-10.81-25.46-21.5c-2.67-2.25-2.82-2.56-.27-4.77,6.2-5.38,12.53-10.6,18.76-15.94,3.84-3.29,7.53-6.77,11.77-9.57a29.73,29.73,0,0,1,17.33-5.11c10.12.31,19,4,25.43,12.35a32,32,0,0,1,6.75,25c-1.84,13.06-9.55,21.3-21.22,26.2A23.23,23.23,0,0,1,378.48,290.17Z" fill="#00a7e3"/><path d="M353,258.6a24,24,0,0,1,18.23-24.65c9.73-2.53,19.32.66,26.08,9.16,4.61,5.8,5.14,12.4,4.63,19.28-.56,7.54-9.55,17.59-16.93,19.18-1.3.28-2.09,0-2-1.6q.09-3.62,0-7.25a2.45,2.45,0,0,1,1.48-2.36,14.65,14.65,0,0,0,7.4-12c.39-5-3.22-11.41-9.22-13.74a14.21,14.21,0,0,0-13.38,24.81,4.73,4.73,0,0,1,2.27,4.57c-.13,1.74,0,3.5,0,5.25,0,2.38-.52,2.71-2.66,1.82-7.55-3.13-12.62-8.39-15.05-16.37A30.09,30.09,0,0,1,353,258.6Z" fill="#009cdb"/><path d="M216.52,287.27c-13.51.86-26.14-9.87-29.91-21.45-4.11-12.63-1.91-23.85,7.33-33.66,7.52-8,16.88-10.83,27.4-9.82,6.66.64,12.59,3.7,17.75,8.05q9.49,8,19,16.06c2.65,2.25,5.25,4.57,7.92,6.8,1.3,1.08,1.2,1.93,0,3-4.09,3.51-8.09,7.12-12.19,10.6-4.8,4.07-9.78,7.94-14.48,12.11A31.28,31.28,0,0,1,216.52,287.27Z" fill="#00a7e3"/><path d="M222.67,273.5c0-1,.07-2,0-3a3.43,3.43,0,0,1,1.81-3.49,13.28,13.28,0,0,0,6.42-12.35c-.24-6.46-3.58-10.7-9.45-13-6.58-2.6-15.5,2-17.93,8.52s.58,14.28,6.17,17.14c.94.48,1,1.24,1,2.09,0,2.67,0,5.33,0,8,0,1.61-.41,1.75-1.89,1.2-8.1-3-13.83-8.66-15.84-16.84-2.69-11,.28-21.46,11.92-28.27,11.94-7,26.64-2,33,8.62,3,5,4.59,10.41,3.69,16.1-1.63,10.25-7.62,17.17-17.42,20.73-1,.37-1.44,0-1.45-.94,0-1.5,0-3,0-4.5Z" fill="#009cdb"/><path d="M673.48,290.17c-8.9.15-16.24-3-22.71-8.47q-12.68-10.81-25.46-21.5c-2.67-2.25-2.82-2.56-.27-4.77,6.2-5.38,12.53-10.6,18.76-15.94,3.84-3.29,7.53-6.77,11.77-9.57a29.73,29.73,0,0,1,17.33-5.11c10.12.31,19,4,25.43,12.35a32,32,0,0,1,6.75,25c-1.84,13.06-9.55,21.3-21.22,26.2A23.23,23.23,0,0,1,673.48,290.17Z" fill="#00a7e3"/><path d="M648,258.6a24,24,0,0,1,18.23-24.65c9.73-2.53,19.32.66,26.08,9.16,4.61,5.8,5.14,12.4,4.63,19.28-.56,7.54-9.55,17.59-16.93,19.18-1.3.28-2.09,0-2-1.6q.09-3.62,0-7.25a2.45,2.45,0,0,1,1.48-2.36,14.65,14.65,0,0,0,7.4-12c.39-5-3.22-11.41-9.22-13.74a14.21,14.21,0,0,0-13.38,24.81,4.73,4.73,0,0,1,2.27,4.57c-.13,1.74,0,3.5,0,5.25,0,2.38-.52,2.71-2.66,1.82-7.55-3.13-12.62-8.39-15.05-16.37A30.09,30.09,0,0,1,648,258.6Z" fill="#009cdb"/><path d="M511.52,287.27c-13.51.86-26.14-9.87-29.91-21.45-4.11-12.63-1.91-23.85,7.33-33.66,7.52-8,16.88-10.83,27.4-9.82,6.66.64,12.59,3.7,17.75,8.05q9.49,8,19,16.06c2.65,2.25,5.25,4.57,7.92,6.8,1.3,1.08,1.2,1.93,0,3-4.09,3.51-8.09,7.12-12.19,10.6-4.8,4.07-9.78,7.94-14.48,12.11A31.28,31.28,0,0,1,511.52,287.27Z" fill="#00a7e3"/><path d="M517.67,273.5c0-1,.07-2,0-3a3.43,3.43,0,0,1,1.81-3.49,13.28,13.28,0,0,0,6.42-12.35c-.24-6.46-3.58-10.7-9.45-13-6.58-2.6-15.5,2-17.93,8.52s.58,14.28,6.17,17.14c.94.48,1,1.24,1,2.09,0,2.67,0,5.33,0,8,0,1.61-.41,1.75-1.89,1.2-8.1-3-13.83-8.66-15.84-16.84-2.69-11,.28-21.46,11.92-28.27,11.94-7,26.64-2,33,8.62,3,5,4.59,10.41,3.69,16.1-1.63,10.25-7.62,17.17-17.42,20.73-1,.37-1.44,0-1.45-.94,0-1.5,0-3,0-4.5Z" fill="#009cdb"/><path d="M968.48,290.17c-8.9.15-16.24-3-22.71-8.47q-12.68-10.81-25.46-21.5c-2.67-2.25-2.82-2.56-.27-4.77,6.2-5.38,12.53-10.6,18.76-15.94,3.84-3.29,7.53-6.77,11.77-9.57a29.73,29.73,0,0,1,17.33-5.11c10.12.31,19,4,25.43,12.35a32,32,0,0,1,6.75,25c-1.84,13.06-9.55,21.3-21.22,26.2A23.23,23.23,0,0,1,968.48,290.17Z" fill="#00a7e3"/><path d="M943,258.6a24,24,0,0,1,18.23-24.65c9.73-2.53,19.32.66,26.08,9.16,4.61,5.8,5.14,12.4,4.63,19.28-.56,7.54-9.55,17.59-16.93,19.18-1.3.28-2.09,0-2-1.6q.09-3.62,0-7.25a2.45,2.45,0,0,1,1.48-2.36,14.65,14.65,0,0,0,7.4-12c.39-5-3.22-11.41-9.22-13.74a14.21,14.21,0,0,0-13.38,24.81,4.73,4.73,0,0,1,2.27,4.57c-.13,1.74,0,3.5,0,5.25,0,2.38-.52,2.71-2.66,1.82-7.55-3.13-12.62-8.39-15.05-16.37A30.09,30.09,0,0,1,943,258.6Z" fill="#009cdb"/><path d="M74.21,290.91c-8.87-.73-15.87-4.55-21.76-10.67q-11.55-12-23.21-23.91c-2.44-2.5-2.55-2.83.21-4.77,6.7-4.74,13.52-9.31,20.24-14,4.15-2.9,8.16-6,12.66-8.35a29.73,29.73,0,0,1,17.75-3.37c10,1.31,18.51,5.84,24.08,14.8a32,32,0,0,1,4.24,25.55c-3.13,12.82-11.61,20.25-23.71,24A23.23,23.23,0,0,1,74.21,290.91Z" fill="#00a7e3"/><path d="M52,257a24,24,0,0,1,20.58-22.73c9.93-1.55,19.16,2.56,25,11.7,4,6.23,3.88,12.85,2.7,19.65C99,273,89.08,282.16,81.59,283c-1.32.15-2.07-.25-1.88-1.79q.45-3.59.71-7.21a2.45,2.45,0,0,1,1.71-2.2,14.65,14.65,0,0,0,8.55-11.2c.88-4.95-2.07-11.67-7.82-14.58a14.21,14.21,0,0,0-15.77,23.36,4.73,4.73,0,0,1,1.81,4.77c-.3,1.72-.34,3.48-.55,5.22-.29,2.37-.79,2.64-2.83,1.55-7.2-3.86-11.73-9.6-13.36-17.78A30.09,30.09,0,0,1,52,257Z" fill="#009cdb"/><path d="M806.52,287.27c-13.51.86-26.14-9.87-29.91-21.45-4.11-12.63-1.91-23.85,7.33-33.66,7.52-8,16.88-10.83,27.4-9.82,6.66.64,12.59,3.7,17.75,8.05q9.49,8,19,16.06c2.65,2.25,5.25,4.57,7.92,6.8,1.3,1.08,1.2,1.93,0,3-4.09,3.51-8.09,7.12-12.19,10.6-4.8,4.07-9.78,7.94-14.48,12.11A31.28,31.28,0,0,1,806.52,287.27Z" fill="#00a7e3"/><path d="M812.67,273.5c0-1,.07-2,0-3a3.43,3.43,0,0,1,1.81-3.49,13.28,13.28,0,0,0,6.42-12.35c-.24-6.46-3.58-10.7-9.45-13-6.58-2.6-15.5,2-17.93,8.52s.58,14.28,6.17,17.14c.94.48,1,1.24,1,2.09,0,2.67,0,5.33,0,8,0,1.61-.41,1.75-1.89,1.2-8.1-3-13.83-8.66-15.84-16.84-2.69-11,.28-21.46,11.92-28.27,11.94-7,26.64-2,33,8.62,3,5,4.59,10.41,3.69,16.1-1.63,10.25-7.62,17.17-17.42,20.73-1,.37-1.44,0-1.45-.94,0-1.5,0-3,0-4.5Z" fill="#009cdb"/><path d="M378.48,629.17c-8.9.15-16.24-3-22.71-8.47q-12.68-10.81-25.46-21.5c-2.67-2.25-2.82-2.56-.27-4.77,6.2-5.38,12.53-10.6,18.76-15.94,3.84-3.29,7.53-6.77,11.77-9.57a29.73,29.73,0,0,1,17.33-5.11c10.12.31,19,4,25.43,12.35a32,32,0,0,1,6.75,25c-1.84,13.06-9.55,21.3-21.22,26.2A23.23,23.23,0,0,1,378.48,629.17Z" fill="#00a7e3"/><path d="M353,597.6a24,24,0,0,1,18.23-24.65c9.73-2.53,19.32.66,26.08,9.16,4.61,5.8,5.14,12.4,4.63,19.28-.56,7.54-9.55,17.59-16.93,19.18-1.3.28-2.09,0-2-1.6q.09-3.62,0-7.25a2.45,2.45,0,0,1,1.48-2.36,14.65,14.65,0,0,0,7.4-12c.39-5-3.22-11.41-9.22-13.74a14.21,14.21,0,0,0-13.38,24.81,4.73,4.73,0,0,1,2.27,4.57c-.13,1.74,0,3.5,0,5.25,0,2.38-.52,2.71-2.66,1.82-7.55-3.13-12.62-8.39-15.05-16.37A30.09,30.09,0,0,1,353,597.6Z" fill="#009cdb"/><path d="M216.52,626.27c-13.51.86-26.14-9.87-29.91-21.45-4.11-12.63-1.91-23.85,7.33-33.66,7.52-8,16.88-10.83,27.4-9.82,6.66.64,12.59,3.7,17.75,8.05q9.49,8,19,16.06c2.65,2.25,5.25,4.57,7.92,6.8,1.3,1.08,1.2,1.93,0,3-4.09,3.51-8.09,7.12-12.19,10.6-4.8,4.07-9.78,7.94-14.48,12.11A31.28,31.28,0,0,1,216.52,626.27Z" fill="#00a7e3"/><path d="M222.67,612.5c0-1,.07-2,0-3a3.43,3.43,0,0,1,1.81-3.49,13.28,13.28,0,0,0,6.42-12.35c-.24-6.46-3.58-10.7-9.45-13-6.58-2.6-15.5,2-17.93,8.52s.58,14.28,6.17,17.14c.94.48,1,1.24,1,2.09,0,2.67,0,5.33,0,8,0,1.61-.41,1.75-1.89,1.2-8.1-3-13.83-8.66-15.84-16.84-2.69-11,.28-21.46,11.92-28.27,11.94-7,26.64-2,33,8.62,3,5,4.59,10.41,3.69,16.1-1.63,10.25-7.62,17.17-17.42,20.73-1,.37-1.44,0-1.45-.94,0-1.5,0-3,0-4.5Z" fill="#009cdb"/><path d="M673.48,629.17c-8.9.15-16.24-3-22.71-8.47q-12.68-10.81-25.46-21.5c-2.67-2.25-2.82-2.56-.27-4.77,6.2-5.38,12.53-10.6,18.76-15.94,3.84-3.29,7.53-6.77,11.77-9.57a29.73,29.73,0,0,1,17.33-5.11c10.12.31,19,4,25.43,12.35a32,32,0,0,1,6.75,25c-1.84,13.06-9.55,21.3-21.22,26.2A23.23,23.23,0,0,1,673.48,629.17Z" fill="#00a7e3"/><path d="M648,597.6a24,24,0,0,1,18.23-24.65c9.73-2.53,19.32.66,26.08,9.16,4.61,5.8,5.14,12.4,4.63,19.28-.56,7.54-9.55,17.59-16.93,19.18-1.3.28-2.09,0-2-1.6q.09-3.62,0-7.25a2.45,2.45,0,0,1,1.48-2.36,14.65,14.65,0,0,0,7.4-12c.39-5-3.22-11.41-9.22-13.74a14.21,14.21,0,0,0-13.38,24.81,4.73,4.73,0,0,1,2.27,4.57c-.13,1.74,0,3.5,0,5.25,0,2.38-.52,2.71-2.66,1.82-7.55-3.13-12.62-8.39-15.05-16.37A30.09,30.09,0,0,1,648,597.6Z" fill="#009cdb"/><path d="M511.52,626.27c-13.51.86-26.14-9.87-29.91-21.45-4.11-12.63-1.91-23.85,7.33-33.66,7.52-8,16.88-10.83,27.4-9.82,6.66.64,12.59,3.7,17.75,8.05q9.49,8,19,16.06c2.65,2.25,5.25,4.57,7.92,6.8,1.3,1.08,1.2,1.93,0,3-4.09,3.51-8.09,7.12-12.19,10.6-4.8,4.07-9.78,7.94-14.48,12.11A31.28,31.28,0,0,1,511.52,626.27Z" fill="#00a7e3"/><path d="M517.67,612.5c0-1,.07-2,0-3a3.43,3.43,0,0,1,1.81-3.49,13.28,13.28,0,0,0,6.42-12.35c-.24-6.46-3.58-10.7-9.45-13-6.58-2.6-15.5,2-17.93,8.52s.58,14.28,6.17,17.14c.94.48,1,1.24,1,2.09,0,2.67,0,5.33,0,8,0,1.61-.41,1.75-1.89,1.2-8.1-3-13.83-8.66-15.84-16.84-2.69-11,.28-21.46,11.92-28.27,11.94-7,26.64-2,33,8.62,3,5,4.59,10.41,3.69,16.1-1.63,10.25-7.62,17.17-17.42,20.73-1,.37-1.44,0-1.45-.94,0-1.5,0-3,0-4.5Z" fill="#009cdb"/><path d="M968.48,629.17c-8.9.15-16.24-3-22.71-8.47q-12.68-10.81-25.46-21.5c-2.67-2.25-2.82-2.56-.27-4.77,6.2-5.38,12.53-10.6,18.76-15.94,3.84-3.29,7.53-6.77,11.77-9.57a29.73,29.73,0,0,1,17.33-5.11c10.12.31,19,4,25.43,12.35a32,32,0,0,1,6.75,25c-1.84,13.06-9.55,21.3-21.22,26.2A23.23,23.23,0,0,1,968.48,629.17Z" fill="#00a7e3"/><path d="M943,597.6a24,24,0,0,1,18.23-24.65c9.73-2.53,19.32.66,26.08,9.16,4.61,5.8,5.14,12.4,4.63,19.28-.56,7.54-9.55,17.59-16.93,19.18-1.3.28-2.09,0-2-1.6q.09-3.62,0-7.25a2.45,2.45,0,0,1,1.48-2.36,14.65,14.65,0,0,0,7.4-12c.39-5-3.22-11.41-9.22-13.74a14.21,14.21,0,0,0-13.38,24.81,4.73,4.73,0,0,1,2.27,4.57c-.13,1.74,0,3.5,0,5.25,0,2.38-.52,2.71-2.66,1.82-7.55-3.13-12.62-8.39-15.05-16.37A30.09,30.09,0,0,1,943,597.6Z" fill="#009cdb"/><path d="M74.21,629.91c-8.87-.73-15.87-4.55-21.76-10.67q-11.55-12-23.21-23.91c-2.44-2.5-2.55-2.83.21-4.77,6.7-4.74,13.52-9.31,20.24-14,4.15-2.9,8.16-6,12.66-8.35a29.73,29.73,0,0,1,17.75-3.37c10,1.31,18.51,5.84,24.08,14.8a32,32,0,0,1,4.24,25.55c-3.13,12.82-11.61,20.25-23.71,24A23.23,23.23,0,0,1,74.21,629.91Z" fill="#00a7e3"/><path d="M52,596a24,24,0,0,1,20.58-22.73c9.93-1.55,19.16,2.56,25,11.7,4,6.23,3.88,12.85,2.7,19.65C99,612,89.08,621.16,81.59,622c-1.32.15-2.07-.25-1.88-1.79q.45-3.59.71-7.21a2.45,2.45,0,0,1,1.71-2.2,14.65,14.65,0,0,0,8.55-11.2c.88-4.95-2.07-11.67-7.82-14.58a14.21,14.21,0,0,0-15.77,23.36,4.73,4.73,0,0,1,1.81,4.77c-.3,1.72-.34,3.48-.55,5.22-.29,2.37-.79,2.64-2.83,1.55-7.2-3.86-11.73-9.6-13.36-17.78A30.09,30.09,0,0,1,52,596Z" fill="#009cdb"/><path d="M806.52,626.27c-13.51.86-26.14-9.87-29.91-21.45-4.11-12.63-1.91-23.85,7.33-33.66,7.52-8,16.88-10.83,27.4-9.82,6.66.64,12.59,3.7,17.75,8.05q9.49,8,19,16.06c2.65,2.25,5.25,4.57,7.92,6.8,1.3,1.08,1.2,1.93,0,3-4.09,3.51-8.09,7.12-12.19,10.6-4.8,4.07-9.78,7.94-14.48,12.11A31.28,31.28,0,0,1,806.52,626.27Z" fill="#00a7e3"/><path d="M812.67,612.5c0-1,.07-2,0-3a3.43,3.43,0,0,1,1.81-3.49,13.28,13.28,0,0,0,6.42-12.35c-.24-6.46-3.58-10.7-9.45-13-6.58-2.6-15.5,2-17.93,8.52s.58,14.28,6.17,17.14c.94.48,1,1.24,1,2.09,0,2.67,0,5.33,0,8,0,1.61-.41,1.75-1.89,1.2-8.1-3-13.83-8.66-15.84-16.84-2.69-11,.28-21.46,11.92-28.27,11.94-7,26.64-2,33,8.62,3,5,4.59,10.41,3.69,16.1-1.63,10.25-7.62,17.17-17.42,20.73-1,.37-1.44,0-1.45-.94,0-1.5,0-3,0-4.5Z" fill="#009cdb"/><path d="M318.29,417.64c.15,8.9-3,16.24-8.47,22.71Q299,453,288.33,465.81c-2.25,2.67-2.56,2.82-4.77.27-5.38-6.2-10.6-12.53-15.94-18.76-3.29-3.84-6.77-7.53-9.57-11.77a29.73,29.73,0,0,1-5.11-17.33c.31-10.12,4-19,12.35-25.43a32,32,0,0,1,25-6.75c13.06,1.84,21.3,9.55,26.2,21.22A23.23,23.23,0,0,1,318.29,417.64Z" fill="#00a7e3"/><path d="M286.73,443.09a24,24,0,0,1-24.65-18.23c-2.53-9.73.66-19.32,9.16-26.08,5.8-4.61,12.4-5.14,19.28-4.63,7.54.56,17.59,9.55,19.18,16.93.28,1.3,0,2.09-1.6,2q-3.62-.09-7.25,0a2.45,2.45,0,0,1-2.36-1.48,14.65,14.65,0,0,0-12-7.4c-5-.39-11.41,3.22-13.74,9.22a14.21,14.21,0,0,0,24.81,13.38,4.73,4.73,0,0,1,4.57-2.27c1.74.13,3.5,0,5.25,0,2.38,0,2.71.52,1.82,2.66-3.13,7.55-8.39,12.62-16.37,15.05A30.09,30.09,0,0,1,286.73,443.09Z" fill="#009cdb"/><path d="M174.6,433.26c.86,13.51-9.87,26.14-21.45,29.91-12.63,4.11-23.85,1.91-33.66-7.33-8-7.52-10.83-16.88-9.82-27.4.64-6.66,3.7-12.59,8.05-17.75q8-9.49,16.06-19c2.25-2.65,4.57-5.25,6.8-7.92,1.08-1.3,1.93-1.2,3,0,3.51,4.09,7.12,8.09,10.6,12.19,4.07,4.8,7.94,9.78,12.11,14.48A31.28,31.28,0,0,1,174.6,433.26Z" fill="#00a7e3"/><path d="M160.83,427.11c-1,0-2-.07-3,0a3.43,3.43,0,0,1-3.49-1.81A13.28,13.28,0,0,0,142,418.89c-6.46.24-10.7,3.58-13,9.45-2.6,6.58,2,15.5,8.52,17.93s14.28-.58,17.14-6.17c.48-.94,1.24-1,2.09-1,2.67,0,5.33,0,8,0,1.61,0,1.75.41,1.2,1.89-3,8.1-8.66,13.83-16.84,15.84-11,2.69-21.46-.28-28.27-11.92-7-11.94-2-26.64,8.62-33,5-3,10.41-4.59,16.1-3.69,10.25,1.63,17.17,7.62,20.73,17.42.37,1,0,1.44-.94,1.45-1.5,0-3,0-4.5,0Z" fill="#009cdb"/><path d="M613.29,417.64c.15,8.9-3,16.24-8.47,22.71Q594,453,583.33,465.81c-2.25,2.67-2.56,2.82-4.77.27-5.38-6.2-10.6-12.53-15.94-18.76-3.29-3.84-6.77-7.53-9.57-11.77a29.73,29.73,0,0,1-5.11-17.33c.31-10.12,4-19,12.35-25.43a32,32,0,0,1,25-6.75c13.06,1.84,21.3,9.55,26.2,21.22A23.23,23.23,0,0,1,613.29,417.64Z" fill="#00a7e3"/><path d="M581.73,443.09a24,24,0,0,1-24.65-18.23c-2.53-9.73.66-19.32,9.16-26.08,5.8-4.61,12.4-5.14,19.28-4.63,7.54.56,17.59,9.55,19.18,16.93.28,1.3,0,2.09-1.6,2q-3.62-.09-7.25,0a2.45,2.45,0,0,1-2.36-1.48,14.65,14.65,0,0,0-12-7.4c-5-.39-11.41,3.22-13.74,9.22a14.21,14.21,0,0,0,24.81,13.38,4.73,4.73,0,0,1,4.57-2.27c1.74.13,3.5,0,5.25,0,2.38,0,2.71.52,1.82,2.66-3.13,7.55-8.39,12.62-16.37,15.05A30.09,30.09,0,0,1,581.73,443.09Z" fill="#009cdb"/><path d="M469.6,433.26c.86,13.51-9.87,26.14-21.45,29.91-12.63,4.11-23.85,1.91-33.66-7.33-8-7.52-10.83-16.88-9.82-27.4.64-6.66,3.7-12.59,8.05-17.75q8-9.49,16.06-19c2.25-2.65,4.57-5.25,6.8-7.92,1.08-1.3,1.93-1.2,3,0,3.51,4.09,7.12,8.09,10.6,12.19,4.07,4.8,7.94,9.78,12.11,14.48A31.28,31.28,0,0,1,469.6,433.26Z" fill="#00a7e3"/><path d="M455.83,427.11c-1,0-2-.07-3,0a3.43,3.43,0,0,1-3.49-1.81A13.28,13.28,0,0,0,437,418.89c-6.46.24-10.7,3.58-13,9.45-2.6,6.58,2,15.5,8.52,17.93s14.28-.58,17.14-6.17c.48-.94,1.24-1,2.09-1,2.67,0,5.33,0,8,0,1.61,0,1.75.41,1.2,1.89-3,8.1-8.66,13.83-16.84,15.84-11,2.69-21.46-.28-28.27-11.92-7-11.94-2-26.64,8.62-33,5-3,10.41-4.59,16.1-3.69,10.25,1.63,17.17,7.62,20.73,17.42.37,1,0,1.44-.94,1.45-1.5,0-3,0-4.5,0Z" fill="#009cdb"/><path d="M908.29,417.64c.15,8.9-3,16.24-8.47,22.71Q889,453,878.33,465.81c-2.25,2.67-2.56,2.82-4.77.27-5.38-6.2-10.6-12.53-15.94-18.76-3.29-3.84-6.77-7.53-9.57-11.77a29.73,29.73,0,0,1-5.11-17.33c.31-10.12,4-19,12.35-25.43a32,32,0,0,1,25-6.75c13.06,1.84,21.3,9.55,26.2,21.22A23.23,23.23,0,0,1,908.29,417.64Z" fill="#00a7e3"/><path d="M876.73,443.09a24,24,0,0,1-24.65-18.23c-2.53-9.73.66-19.32,9.16-26.08,5.8-4.61,12.4-5.14,19.28-4.63,7.54.56,17.59,9.55,19.18,16.93.28,1.3,0,2.09-1.6,2q-3.62-.09-7.25,0a2.45,2.45,0,0,1-2.36-1.48,14.65,14.65,0,0,0-12-7.4c-5-.39-11.41,3.22-13.74,9.22a14.21,14.21,0,0,0,24.81,13.38,4.73,4.73,0,0,1,4.57-2.27c1.74.13,3.5,0,5.25,0,2.38,0,2.71.52,1.82,2.66-3.13,7.55-8.39,12.62-16.37,15.05A30.09,30.09,0,0,1,876.73,443.09Z" fill="#009cdb"/><path d="M764.6,433.26c.86,13.51-9.87,26.14-21.45,29.91-12.63,4.11-23.85,1.91-33.66-7.33-8-7.52-10.83-16.88-9.82-27.4.64-6.66,3.7-12.59,8.05-17.75q8-9.49,16.06-19c2.25-2.65,4.57-5.25,6.8-7.92,1.08-1.3,1.93-1.2,3,0,3.51,4.09,7.12,8.09,10.6,12.19,4.07,4.8,7.94,9.78,12.11,14.48A31.28,31.28,0,0,1,764.6,433.26Z" fill="#00a7e3"/><path d="M750.83,427.11c-1,0-2-.07-3,0a3.43,3.43,0,0,1-3.49-1.81A13.28,13.28,0,0,0,732,418.89c-6.46.24-10.7,3.58-13,9.45-2.6,6.58,2,15.5,8.52,17.93s14.28-.58,17.14-6.17c.48-.94,1.24-1,2.09-1,2.67,0,5.33,0,8,0,1.61,0,1.75.41,1.2,1.89-3,8.1-8.66,13.83-16.84,15.84-11,2.69-21.46-.28-28.27-11.92-7-11.94-2-26.64,8.62-33,5-3,10.41-4.59,16.1-3.69,10.25,1.63,17.17,7.62,20.73,17.42.37,1,0,1.44-.94,1.45-1.5,0-3,0-4.5,0Z" fill="#009cdb"/><path d="M318,763.64c.15,8.9-3,16.24-8.47,22.71Q298.71,799,288,811.81c-2.25,2.67-2.56,2.82-4.77.27-5.38-6.2-10.6-12.53-15.94-18.76-3.29-3.84-6.77-7.53-9.57-11.77a29.73,29.73,0,0,1-5.11-17.33c.31-10.12,4-19,12.35-25.43A32,32,0,0,1,290,732c13.06,1.84,21.3,9.55,26.2,21.22A23.23,23.23,0,0,1,318,763.64Z" fill="#00a7e3"/><path d="M286.42,789.09a24,24,0,0,1-24.65-18.23c-2.53-9.73.66-19.32,9.16-26.08,5.8-4.61,12.4-5.14,19.28-4.63,7.54.56,17.59,9.55,19.18,16.93.28,1.3,0,2.09-1.6,2q-3.62-.09-7.25,0a2.45,2.45,0,0,1-2.36-1.48,14.65,14.65,0,0,0-12-7.4c-5-.39-11.41,3.22-13.74,9.22a14.21,14.21,0,0,0,24.81,13.38,4.73,4.73,0,0,1,4.57-2.27c1.74.13,3.5,0,5.25,0,2.38,0,2.71.52,1.82,2.66-3.13,7.55-8.39,12.62-16.37,15.05A30.09,30.09,0,0,1,286.42,789.09Z" fill="#009cdb"/><path d="M174.3,779.26c.86,13.51-9.87,26.14-21.45,29.91-12.63,4.11-23.85,1.91-33.66-7.33-8-7.52-10.83-16.88-9.82-27.4.64-6.66,3.7-12.59,8.05-17.75q8-9.49,16.06-19c2.25-2.65,4.57-5.25,6.8-7.92,1.08-1.3,1.93-1.2,3,0,3.51,4.09,7.12,8.09,10.6,12.19,4.07,4.8,7.94,9.78,12.11,14.48A31.28,31.28,0,0,1,174.3,779.26Z" fill="#00a7e3"/><path d="M160.53,773.11c-1,0-2-.07-3,0a3.43,3.43,0,0,1-3.49-1.81,13.28,13.28,0,0,0-12.35-6.42c-6.46.24-10.7,3.58-13,9.45-2.6,6.58,2,15.5,8.52,17.93s14.28-.58,17.14-6.17c.48-.94,1.24-1,2.09-1,2.67,0,5.33,0,8,0,1.61,0,1.75.41,1.2,1.89-3,8.1-8.66,13.83-16.84,15.84-11,2.69-21.46-.28-28.27-11.92-7-11.94-2-26.64,8.62-33,5-3,10.41-4.59,16.1-3.69,10.25,1.63,17.17,7.62,20.73,17.42.37,1,0,1.44-.94,1.45-1.5,0-3,0-4.5,0Z" fill="#009cdb"/><path d="M613,763.64c.15,8.9-3,16.24-8.47,22.71Q593.71,799,583,811.81c-2.25,2.67-2.56,2.82-4.77.27-5.38-6.2-10.6-12.53-15.94-18.76-3.29-3.84-6.77-7.53-9.57-11.77a29.73,29.73,0,0,1-5.11-17.33c.31-10.12,4-19,12.35-25.43A32,32,0,0,1,585,732c13.06,1.84,21.3,9.55,26.2,21.22A23.23,23.23,0,0,1,613,763.64Z" fill="#00a7e3"/><path d="M581.42,789.09a24,24,0,0,1-24.65-18.23c-2.53-9.73.66-19.32,9.16-26.08,5.8-4.61,12.4-5.14,19.28-4.63,7.54.56,17.59,9.55,19.18,16.93.28,1.3,0,2.09-1.6,2q-3.62-.09-7.25,0a2.45,2.45,0,0,1-2.36-1.48,14.65,14.65,0,0,0-12-7.4c-5-.39-11.41,3.22-13.74,9.22a14.21,14.21,0,0,0,24.81,13.38,4.73,4.73,0,0,1,4.57-2.27c1.74.13,3.5,0,5.25,0,2.38,0,2.71.52,1.82,2.66-3.13,7.55-8.39,12.62-16.37,15.05A30.09,30.09,0,0,1,581.42,789.09Z" fill="#009cdb"/><path d="M469.3,779.26c.86,13.51-9.87,26.14-21.45,29.91-12.63,4.11-23.85,1.91-33.66-7.33-8-7.52-10.83-16.88-9.82-27.4.64-6.66,3.7-12.59,8.05-17.75q8-9.49,16.06-19c2.25-2.65,4.57-5.25,6.8-7.92,1.08-1.3,1.93-1.2,3,0,3.51,4.09,7.12,8.09,10.6,12.19,4.07,4.8,7.94,9.78,12.11,14.48A31.28,31.28,0,0,1,469.3,779.26Z" fill="#00a7e3"/><path d="M455.53,773.11c-1,0-2-.07-3,0a3.43,3.43,0,0,1-3.49-1.81,13.28,13.28,0,0,0-12.35-6.42c-6.46.24-10.7,3.58-13,9.45-2.6,6.58,2,15.5,8.52,17.93s14.28-.58,17.14-6.17c.48-.94,1.24-1,2.09-1,2.67,0,5.33,0,8,0,1.61,0,1.75.41,1.2,1.89-3,8.1-8.66,13.83-16.84,15.84-11,2.69-21.46-.28-28.27-11.92-7-11.94-2-26.64,8.62-33,5-3,10.41-4.59,16.1-3.69,10.25,1.63,17.17,7.62,20.73,17.42.37,1,0,1.44-.94,1.45-1.5,0-3,0-4.5,0Z" fill="#009cdb"/><path d="M908,763.64c.15,8.9-3,16.24-8.47,22.71Q888.71,799,878,811.81c-2.25,2.67-2.56,2.82-4.77.27-5.38-6.2-10.6-12.53-15.94-18.76-3.29-3.84-6.77-7.53-9.57-11.77a29.73,29.73,0,0,1-5.11-17.33c.31-10.12,4-19,12.35-25.43A32,32,0,0,1,880,732c13.06,1.84,21.3,9.55,26.2,21.22A23.23,23.23,0,0,1,908,763.64Z" fill="#00a7e3"/><path d="M876.42,789.09a24,24,0,0,1-24.65-18.23c-2.53-9.73.66-19.32,9.16-26.08,5.8-4.61,12.4-5.14,19.28-4.63,7.54.56,17.59,9.55,19.18,16.93.28,1.3,0,2.09-1.6,2q-3.62-.09-7.25,0a2.45,2.45,0,0,1-2.36-1.48,14.65,14.65,0,0,0-12-7.4c-5-.39-11.41,3.22-13.74,9.22a14.21,14.21,0,0,0,24.81,13.38,4.73,4.73,0,0,1,4.57-2.27c1.74.13,3.5,0,5.25,0,2.38,0,2.71.52,1.82,2.66-3.13,7.55-8.39,12.62-16.37,15.05A30.09,30.09,0,0,1,876.42,789.09Z" fill="#009cdb"/><path d="M764.3,779.26c.86,13.51-9.87,26.14-21.45,29.91-12.63,4.11-23.85,1.91-33.66-7.33-8-7.52-10.83-16.88-9.82-27.4.64-6.66,3.7-12.59,8.05-17.75q8-9.49,16.06-19c2.25-2.65,4.57-5.25,6.8-7.92,1.08-1.3,1.93-1.2,3,0,3.51,4.09,7.12,8.09,10.6,12.19,4.07,4.8,7.94,9.78,12.11,14.48A31.28,31.28,0,0,1,764.3,779.26Z" fill="#00a7e3"/><path d="M750.53,773.11c-1,0-2-.07-3,0a3.43,3.43,0,0,1-3.49-1.81,13.28,13.28,0,0,0-12.35-6.42c-6.46.24-10.7,3.58-13,9.45-2.6,6.58,2,15.5,8.52,17.93s14.28-.58,17.14-6.17c.48-.94,1.24-1,2.09-1,2.67,0,5.33,0,8,0,1.61,0,1.75.41,1.2,1.89-3,8.1-8.66,13.83-16.84,15.84-11,2.69-21.46-.28-28.27-11.92-7-11.94-2-26.64,8.62-33,5-3,10.41-4.59,16.1-3.69,10.25,1.63,17.17,7.62,20.73,17.42.37,1,0,1.44-.94,1.45-1.5,0-3,0-4.5,0Z" fill="#009cdb"/><path d="M1205.69,79.64c.15,8.9-3,16.24-8.47,22.71q-10.81,12.68-21.5,25.46c-2.25,2.67-2.56,2.82-4.77.27-5.38-6.2-10.6-12.53-15.94-18.76-3.29-3.84-6.77-7.53-9.57-11.77a29.73,29.73,0,0,1-5.11-17.33c.31-10.12,4-19,12.35-25.43a32,32,0,0,1,25-6.75c13.06,1.84,21.3,9.55,26.2,21.22A23.23,23.23,0,0,1,1205.69,79.64Z" fill="#00a7e3"/><path d="M1174.12,105.09a24,24,0,0,1-24.65-18.23c-2.53-9.73.66-19.32,9.16-26.08,5.8-4.61,12.4-5.14,19.28-4.63,7.54.56,17.59,9.55,19.18,16.93.28,1.3,0,2.09-1.6,2q-3.62-.09-7.25,0a2.45,2.45,0,0,1-2.36-1.48,14.65,14.65,0,0,0-12-7.4c-5-.39-11.41,3.22-13.74,9.22A14.21,14.21,0,0,0,1185,88.85a4.73,4.73,0,0,1,4.57-2.27c1.74.13,3.5,0,5.25,0,2.38,0,2.71.52,1.82,2.66-3.13,7.55-8.39,12.62-16.37,15.05A30.09,30.09,0,0,1,1174.12,105.09Z" fill="#009cdb"/><path d="M1062,95.26c.86,13.51-9.87,26.14-21.45,29.91-12.63,4.11-23.85,1.91-33.66-7.33-8-7.52-10.83-16.88-9.82-27.4.64-6.66,3.7-12.59,8.05-17.75q8-9.49,16.06-19c2.25-2.65,4.57-5.25,6.8-7.92,1.08-1.3,1.93-1.2,3,0,3.51,4.09,7.12,8.09,10.6,12.19,4.07,4.8,7.94,9.78,12.11,14.48A31.28,31.28,0,0,1,1062,95.26Z" fill="#00a7e3"/><path d="M1048.23,89.11c-1,0-2-.07-3,0a3.43,3.43,0,0,1-3.49-1.81,13.28,13.28,0,0,0-12.35-6.42c-6.46.24-10.7,3.58-13,9.45-2.6,6.58,2,15.5,8.52,17.93s14.28-.58,17.14-6.17c.48-.94,1.24-1,2.09-1,2.67,0,5.33,0,8,0,1.61,0,1.75.41,1.2,1.89-3,8.1-8.66,13.83-16.84,15.84-11,2.69-21.46-.28-28.27-11.92-7-11.94-2-26.64,8.62-33,5-3,10.41-4.59,16.1-3.69,10.25,1.63,17.17,7.62,20.73,17.42.37,1,0,1.44-.94,1.45-1.5,0-3,0-4.5,0Z" fill="#009cdb"/><path d="M1500.69,79.64c.15,8.9-3,16.24-8.47,22.71q-10.81,12.68-21.5,25.46c-2.25,2.67-2.56,2.82-4.77.27-5.38-6.2-10.6-12.53-15.94-18.76-3.29-3.84-6.77-7.53-9.57-11.77a29.73,29.73,0,0,1-5.11-17.33c.31-10.12,4-19,12.35-25.43a32,32,0,0,1,25-6.75c13.06,1.84,21.3,9.55,26.2,21.22A23.23,23.23,0,0,1,1500.69,79.64Z" fill="#00a7e3"/><path d="M1469.12,105.09a24,24,0,0,1-24.65-18.23c-2.53-9.73.66-19.32,9.16-26.08,5.8-4.61,12.4-5.14,19.28-4.63,7.54.56,17.59,9.55,19.18,16.93.28,1.3,0,2.09-1.6,2q-3.62-.09-7.25,0a2.45,2.45,0,0,1-2.36-1.48,14.65,14.65,0,0,0-12-7.4c-5-.39-11.41,3.22-13.74,9.22A14.21,14.21,0,0,0,1480,88.85a4.73,4.73,0,0,1,4.57-2.27c1.74.13,3.5,0,5.25,0,2.38,0,2.71.52,1.82,2.66-3.13,7.55-8.39,12.62-16.37,15.05A30.09,30.09,0,0,1,1469.12,105.09Z" fill="#009cdb"/><path d="M1357,95.26c.86,13.51-9.87,26.14-21.45,29.91-12.63,4.11-23.85,1.91-33.66-7.33-8-7.52-10.83-16.88-9.82-27.4.64-6.66,3.7-12.59,8.05-17.75q8-9.49,16.06-19c2.25-2.65,4.57-5.25,6.8-7.92,1.08-1.3,1.93-1.2,3,0,3.51,4.09,7.12,8.09,10.6,12.19,4.07,4.8,7.94,9.78,12.11,14.48A31.28,31.28,0,0,1,1357,95.26Z" fill="#00a7e3"/><path d="M1343.23,89.11c-1,0-2-.07-3,0a3.43,3.43,0,0,1-3.49-1.81,13.28,13.28,0,0,0-12.35-6.42c-6.46.24-10.7,3.58-13,9.45-2.6,6.58,2,15.5,8.52,17.93s14.28-.58,17.14-6.17c.48-.94,1.24-1,2.09-1,2.67,0,5.33,0,8,0,1.61,0,1.75.41,1.2,1.89-3,8.1-8.66,13.83-16.84,15.84-11,2.69-21.46-.28-28.27-11.92-7-11.94-2-26.64,8.62-33,5-3,10.41-4.59,16.1-3.69,10.25,1.63,17.17,7.62,20.73,17.42.37,1,0,1.44-.94,1.45-1.5,0-3,0-4.5,0Z" fill="#009cdb"/><path d="M1795.69,79.64c.15,8.9-3,16.24-8.47,22.71q-10.81,12.68-21.5,25.46c-2.25,2.67-2.56,2.82-4.77.27-5.38-6.2-10.6-12.53-15.94-18.76-3.29-3.84-6.77-7.53-9.57-11.77a29.73,29.73,0,0,1-5.11-17.33c.31-10.12,4-19,12.35-25.43a32,32,0,0,1,25-6.75c13.06,1.84,21.3,9.55,26.2,21.22A23.23,23.23,0,0,1,1795.69,79.64Z" fill="#00a7e3"/><path d="M1764.12,105.09a24,24,0,0,1-24.65-18.23c-2.53-9.73.66-19.32,9.16-26.08,5.8-4.61,12.4-5.14,19.28-4.63,7.54.56,17.59,9.55,19.18,16.93.28,1.3,0,2.09-1.6,2q-3.62-.09-7.25,0a2.45,2.45,0,0,1-2.36-1.48,14.65,14.65,0,0,0-12-7.4c-5-.39-11.41,3.22-13.74,9.22A14.21,14.21,0,0,0,1775,88.85a4.73,4.73,0,0,1,4.57-2.27c1.74.13,3.5,0,5.25,0,2.38,0,2.71.52,1.82,2.66-3.13,7.55-8.39,12.62-16.37,15.05A30.09,30.09,0,0,1,1764.12,105.09Z" fill="#009cdb"/><path d="M1652,95.26c.86,13.51-9.87,26.14-21.45,29.91-12.63,4.11-23.85,1.91-33.66-7.33-8-7.52-10.83-16.88-9.82-27.4.64-6.66,3.7-12.59,8.05-17.75q8-9.49,16.06-19c2.25-2.65,4.57-5.25,6.8-7.92,1.08-1.3,1.93-1.2,3,0,3.51,4.09,7.12,8.09,10.6,12.19,4.07,4.8,7.94,9.78,12.11,14.48A31.28,31.28,0,0,1,1652,95.26Z" fill="#00a7e3"/><path d="M1638.23,89.11c-1,0-2-.07-3,0a3.43,3.43,0,0,1-3.49-1.81,13.28,13.28,0,0,0-12.35-6.42c-6.46.24-10.7,3.58-13,9.45-2.6,6.58,2,15.5,8.52,17.93s14.28-.58,17.14-6.17c.48-.94,1.24-1,2.09-1,2.67,0,5.33,0,8,0,1.61,0,1.75.41,1.2,1.89-3,8.1-8.66,13.83-16.84,15.84-11,2.69-21.46-.28-28.27-11.92-7-11.94-2-26.64,8.62-33,5-3,10.41-4.59,16.1-3.69,10.25,1.63,17.17,7.62,20.73,17.42.37,1,0,1.44-.94,1.45-1.5,0-3,0-4.5,0Z" fill="#009cdb"/><path d="M1266.48,290.17c-8.9.15-16.24-3-22.71-8.47q-12.68-10.81-25.46-21.5c-2.67-2.25-2.82-2.56-.27-4.77,6.2-5.38,12.53-10.6,18.76-15.94,3.84-3.29,7.53-6.77,11.77-9.57a29.73,29.73,0,0,1,17.33-5.11c10.12.31,19,4,25.43,12.35a32,32,0,0,1,6.75,25c-1.84,13.06-9.55,21.3-21.22,26.2A23.23,23.23,0,0,1,1266.48,290.17Z" fill="#00a7e3"/><path d="M1241,258.6a24,24,0,0,1,18.23-24.65c9.73-2.53,19.32.66,26.08,9.16,4.61,5.8,5.14,12.4,4.63,19.28-.56,7.54-9.55,17.59-16.93,19.18-1.3.28-2.09,0-2-1.6q.09-3.62,0-7.25a2.45,2.45,0,0,1,1.48-2.36,14.65,14.65,0,0,0,7.4-12c.39-5-3.22-11.41-9.22-13.74a14.21,14.21,0,0,0-13.38,24.81,4.73,4.73,0,0,1,2.27,4.57c-.13,1.74,0,3.5,0,5.25,0,2.38-.52,2.71-2.66,1.82-7.55-3.13-12.62-8.39-15.05-16.37A30.09,30.09,0,0,1,1241,258.6Z" fill="#009cdb"/><path d="M1104.52,287.27c-13.51.86-26.14-9.87-29.91-21.45-4.11-12.63-1.91-23.85,7.33-33.66,7.52-8,16.88-10.83,27.4-9.82,6.66.64,12.59,3.7,17.75,8.05q9.49,8,19,16.06c2.65,2.25,5.25,4.57,7.92,6.8,1.3,1.08,1.2,1.93,0,3-4.09,3.51-8.09,7.12-12.19,10.6-4.8,4.07-9.78,7.94-14.48,12.11A31.28,31.28,0,0,1,1104.52,287.27Z" fill="#00a7e3"/><path d="M1110.67,273.5c0-1,.07-2,0-3a3.43,3.43,0,0,1,1.81-3.49,13.28,13.28,0,0,0,6.42-12.35c-.24-6.46-3.58-10.7-9.45-13-6.58-2.6-15.5,2-17.93,8.52s.58,14.28,6.17,17.14c.94.48,1,1.24,1,2.09,0,2.67,0,5.33,0,8,0,1.61-.41,1.75-1.89,1.2-8.1-3-13.83-8.66-15.84-16.84-2.69-11,.28-21.46,11.92-28.27,11.94-7,26.64-2,33,8.62,3,5,4.59,10.41,3.69,16.1-1.63,10.25-7.62,17.17-17.42,20.73-1,.37-1.44,0-1.45-.94,0-1.5,0-3,0-4.5Z" fill="#009cdb"/><path d="M1561.48,290.17c-8.9.15-16.24-3-22.71-8.47q-12.68-10.81-25.46-21.5c-2.67-2.25-2.82-2.56-.27-4.77,6.2-5.38,12.53-10.6,18.76-15.94,3.84-3.29,7.53-6.77,11.77-9.57a29.73,29.73,0,0,1,17.33-5.11c10.12.31,19,4,25.43,12.35a32,32,0,0,1,6.75,25c-1.84,13.06-9.55,21.3-21.22,26.2A23.23,23.23,0,0,1,1561.48,290.17Z" fill="#00a7e3"/><path d="M1536,258.6a24,24,0,0,1,18.23-24.65c9.73-2.53,19.32.66,26.08,9.16,4.61,5.8,5.14,12.4,4.63,19.28-.56,7.54-9.55,17.59-16.93,19.18-1.3.28-2.09,0-2-1.6q.09-3.62,0-7.25a2.45,2.45,0,0,1,1.48-2.36,14.65,14.65,0,0,0,7.4-12c.39-5-3.22-11.41-9.22-13.74a14.21,14.21,0,0,0-13.38,24.81,4.73,4.73,0,0,1,2.27,4.57c-.13,1.74,0,3.5,0,5.25,0,2.38-.52,2.71-2.66,1.82-7.55-3.13-12.62-8.39-15.05-16.37A30.09,30.09,0,0,1,1536,258.6Z" fill="#009cdb"/><path d="M1399.52,287.27c-13.51.86-26.14-9.87-29.91-21.45-4.11-12.63-1.91-23.85,7.33-33.66,7.52-8,16.88-10.83,27.4-9.82,6.66.64,12.59,3.7,17.75,8.05q9.49,8,19,16.06c2.65,2.25,5.25,4.57,7.92,6.8,1.3,1.08,1.2,1.93,0,3-4.09,3.51-8.09,7.12-12.19,10.6-4.8,4.07-9.78,7.94-14.48,12.11A31.28,31.28,0,0,1,1399.52,287.27Z" fill="#00a7e3"/><path d="M1405.67,273.5c0-1,.07-2,0-3a3.43,3.43,0,0,1,1.81-3.49,13.28,13.28,0,0,0,6.42-12.35c-.24-6.46-3.58-10.7-9.45-13-6.58-2.6-15.5,2-17.93,8.52s.58,14.28,6.17,17.14c.94.48,1,1.24,1,2.09,0,2.67,0,5.33,0,8,0,1.61-.41,1.75-1.89,1.2-8.1-3-13.83-8.66-15.84-16.84-2.69-11,.28-21.46,11.92-28.27,11.94-7,26.64-2,33,8.62,3,5,4.59,10.41,3.69,16.1-1.63,10.25-7.62,17.17-17.42,20.73-1,.37-1.44,0-1.45-.94,0-1.5,0-3,0-4.5Z" fill="#009cdb"/><path d="M1856.48,290.17c-8.9.15-16.24-3-22.71-8.47q-12.68-10.81-25.46-21.5c-2.67-2.25-2.82-2.56-.27-4.77,6.2-5.38,12.53-10.6,18.76-15.94,3.84-3.29,7.53-6.77,11.77-9.57a29.73,29.73,0,0,1,17.33-5.11c10.12.31,19,4,25.43,12.35a32,32,0,0,1,6.75,25c-1.84,13.06-9.55,21.3-21.22,26.2A23.23,23.23,0,0,1,1856.48,290.17Z" fill="#00a7e3"/><path d="M1831,258.6a24,24,0,0,1,18.23-24.65c9.73-2.53,19.32.66,26.08,9.16,4.61,5.8,5.14,12.4,4.63,19.28-.56,7.54-9.55,17.59-16.93,19.18-1.3.28-2.09,0-2-1.6q.09-3.62,0-7.25a2.45,2.45,0,0,1,1.48-2.36,14.65,14.65,0,0,0,7.4-12c.39-5-3.22-11.41-9.22-13.74a14.21,14.21,0,0,0-13.38,24.81,4.73,4.73,0,0,1,2.27,4.57c-.13,1.74,0,3.5,0,5.25,0,2.38-.52,2.71-2.66,1.82-7.55-3.13-12.62-8.39-15.05-16.37A30.09,30.09,0,0,1,1831,258.6Z" fill="#009cdb"/><path d="M1694.52,287.27c-13.51.86-26.14-9.87-29.91-21.45-4.11-12.63-1.91-23.85,7.33-33.66,7.52-8,16.88-10.83,27.4-9.82,6.66.64,12.59,3.7,17.75,8.05q9.49,8,19,16.06c2.65,2.25,5.25,4.57,7.92,6.8,1.3,1.08,1.2,1.93,0,3-4.09,3.51-8.09,7.12-12.19,10.6-4.8,4.07-9.78,7.94-14.48,12.11A31.28,31.28,0,0,1,1694.52,287.27Z" fill="#00a7e3"/><path d="M1700.67,273.5c0-1,.07-2,0-3a3.43,3.43,0,0,1,1.81-3.49,13.28,13.28,0,0,0,6.42-12.35c-.24-6.46-3.58-10.7-9.45-13-6.58-2.6-15.5,2-17.93,8.52s.58,14.28,6.17,17.14c.94.48,1,1.24,1,2.09,0,2.67,0,5.33,0,8,0,1.61-.41,1.75-1.89,1.2-8.1-3-13.83-8.66-15.84-16.84-2.69-11,.28-21.46,11.92-28.27,11.94-7,26.64-2,33,8.62,3,5,4.59,10.41,3.69,16.1-1.63,10.25-7.62,17.17-17.42,20.73-1,.37-1.44,0-1.45-.94,0-1.5,0-3,0-4.5Z" fill="#009cdb"/><path d="M1266.48,629.17c-8.9.15-16.24-3-22.71-8.47q-12.68-10.81-25.46-21.5c-2.67-2.25-2.82-2.56-.27-4.77,6.2-5.38,12.53-10.6,18.76-15.94,3.84-3.29,7.53-6.77,11.77-9.57a29.73,29.73,0,0,1,17.33-5.11c10.12.31,19,4,25.43,12.35a32,32,0,0,1,6.75,25c-1.84,13.06-9.55,21.3-21.22,26.2A23.23,23.23,0,0,1,1266.48,629.17Z" fill="#00a7e3"/><path d="M1241,597.6a24,24,0,0,1,18.23-24.65c9.73-2.53,19.32.66,26.08,9.16,4.61,5.8,5.14,12.4,4.63,19.28-.56,7.54-9.55,17.59-16.93,19.18-1.3.28-2.09,0-2-1.6q.09-3.62,0-7.25a2.45,2.45,0,0,1,1.48-2.36,14.65,14.65,0,0,0,7.4-12c.39-5-3.22-11.41-9.22-13.74a14.21,14.21,0,0,0-13.38,24.81,4.73,4.73,0,0,1,2.27,4.57c-.13,1.74,0,3.5,0,5.25,0,2.38-.52,2.71-2.66,1.82-7.55-3.13-12.62-8.39-15.05-16.37A30.09,30.09,0,0,1,1241,597.6Z" fill="#009cdb"/><path d="M1104.52,626.27c-13.51.86-26.14-9.87-29.91-21.45-4.11-12.63-1.91-23.85,7.33-33.66,7.52-8,16.88-10.83,27.4-9.82,6.66.64,12.59,3.7,17.75,8.05q9.49,8,19,16.06c2.65,2.25,5.25,4.57,7.92,6.8,1.3,1.08,1.2,1.93,0,3-4.09,3.51-8.09,7.12-12.19,10.6-4.8,4.07-9.78,7.94-14.48,12.11A31.28,31.28,0,0,1,1104.52,626.27Z" fill="#00a7e3"/><path d="M1110.67,612.5c0-1,.07-2,0-3a3.43,3.43,0,0,1,1.81-3.49,13.28,13.28,0,0,0,6.42-12.35c-.24-6.46-3.58-10.7-9.45-13-6.58-2.6-15.5,2-17.93,8.52s.58,14.28,6.17,17.14c.94.48,1,1.24,1,2.09,0,2.67,0,5.33,0,8,0,1.61-.41,1.75-1.89,1.2-8.1-3-13.83-8.66-15.84-16.84-2.69-11,.28-21.46,11.92-28.27,11.94-7,26.64-2,33,8.62,3,5,4.59,10.41,3.69,16.1-1.63,10.25-7.62,17.17-17.42,20.73-1,.37-1.44,0-1.45-.94,0-1.5,0-3,0-4.5Z" fill="#009cdb"/><path d="M1561.48,629.17c-8.9.15-16.24-3-22.71-8.47q-12.68-10.81-25.46-21.5c-2.67-2.25-2.82-2.56-.27-4.77,6.2-5.38,12.53-10.6,18.76-15.94,3.84-3.29,7.53-6.77,11.77-9.57a29.73,29.73,0,0,1,17.33-5.11c10.12.31,19,4,25.43,12.35a32,32,0,0,1,6.75,25c-1.84,13.06-9.55,21.3-21.22,26.2A23.23,23.23,0,0,1,1561.48,629.17Z" fill="#00a7e3"/><path d="M1536,597.6a24,24,0,0,1,18.23-24.65c9.73-2.53,19.32.66,26.08,9.16,4.61,5.8,5.14,12.4,4.63,19.28-.56,7.54-9.55,17.59-16.93,19.18-1.3.28-2.09,0-2-1.6q.09-3.62,0-7.25a2.45,2.45,0,0,1,1.48-2.36,14.65,14.65,0,0,0,7.4-12c.39-5-3.22-11.41-9.22-13.74a14.21,14.21,0,0,0-13.38,24.81,4.73,4.73,0,0,1,2.27,4.57c-.13,1.74,0,3.5,0,5.25,0,2.38-.52,2.71-2.66,1.82-7.55-3.13-12.62-8.39-15.05-16.37A30.09,30.09,0,0,1,1536,597.6Z" fill="#009cdb"/><path d="M1399.52,626.27c-13.51.86-26.14-9.87-29.91-21.45-4.11-12.63-1.91-23.85,7.33-33.66,7.52-8,16.88-10.83,27.4-9.82,6.66.64,12.59,3.7,17.75,8.05q9.49,8,19,16.06c2.65,2.25,5.25,4.57,7.92,6.8,1.3,1.08,1.2,1.93,0,3-4.09,3.51-8.09,7.12-12.19,10.6-4.8,4.07-9.78,7.94-14.48,12.11A31.28,31.28,0,0,1,1399.52,626.27Z" fill="#00a7e3"/><path d="M1405.67,612.5c0-1,.07-2,0-3a3.43,3.43,0,0,1,1.81-3.49,13.28,13.28,0,0,0,6.42-12.35c-.24-6.46-3.58-10.7-9.45-13-6.58-2.6-15.5,2-17.93,8.52s.58,14.28,6.17,17.14c.94.48,1,1.24,1,2.09,0,2.67,0,5.33,0,8,0,1.61-.41,1.75-1.89,1.2-8.1-3-13.83-8.66-15.84-16.84-2.69-11,.28-21.46,11.92-28.27,11.94-7,26.64-2,33,8.62,3,5,4.59,10.41,3.69,16.1-1.63,10.25-7.62,17.17-17.42,20.73-1,.37-1.44,0-1.45-.94,0-1.5,0-3,0-4.5Z" fill="#009cdb"/><path d="M1856.48,629.17c-8.9.15-16.24-3-22.71-8.47q-12.68-10.81-25.46-21.5c-2.67-2.25-2.82-2.56-.27-4.77,6.2-5.38,12.53-10.6,18.76-15.94,3.84-3.29,7.53-6.77,11.77-9.57a29.73,29.73,0,0,1,17.33-5.11c10.12.31,19,4,25.43,12.35a32,32,0,0,1,6.75,25c-1.84,13.06-9.55,21.3-21.22,26.2A23.23,23.23,0,0,1,1856.48,629.17Z" fill="#00a7e3"/><path d="M1831,597.6a24,24,0,0,1,18.23-24.65c9.73-2.53,19.32.66,26.08,9.16,4.61,5.8,5.14,12.4,4.63,19.28-.56,7.54-9.55,17.59-16.93,19.18-1.3.28-2.09,0-2-1.6q.09-3.62,0-7.25a2.45,2.45,0,0,1,1.48-2.36,14.65,14.65,0,0,0,7.4-12c.39-5-3.22-11.41-9.22-13.74a14.21,14.21,0,0,0-13.38,24.81,4.73,4.73,0,0,1,2.27,4.57c-.13,1.74,0,3.5,0,5.25,0,2.38-.52,2.71-2.66,1.82-7.55-3.13-12.62-8.39-15.05-16.37A30.09,30.09,0,0,1,1831,597.6Z" fill="#009cdb"/><path d="M1694.52,626.27c-13.51.86-26.14-9.87-29.91-21.45-4.11-12.63-1.91-23.85,7.33-33.66,7.52-8,16.88-10.83,27.4-9.82,6.66.64,12.59,3.7,17.75,8.05q9.49,8,19,16.06c2.65,2.25,5.25,4.57,7.92,6.8,1.3,1.08,1.2,1.93,0,3-4.09,3.51-8.09,7.12-12.19,10.6-4.8,4.07-9.78,7.94-14.48,12.11A31.28,31.28,0,0,1,1694.52,626.27Z" fill="#00a7e3"/><path d="M1700.67,612.5c0-1,.07-2,0-3a3.43,3.43,0,0,1,1.81-3.49,13.28,13.28,0,0,0,6.42-12.35c-.24-6.46-3.58-10.7-9.45-13-6.58-2.6-15.5,2-17.93,8.52s.58,14.28,6.17,17.14c.94.48,1,1.24,1,2.09,0,2.67,0,5.33,0,8,0,1.61-.41,1.75-1.89,1.2-8.1-3-13.83-8.66-15.84-16.84-2.69-11,.28-21.46,11.92-28.27,11.94-7,26.64-2,33,8.62,3,5,4.59,10.41,3.69,16.1-1.63,10.25-7.62,17.17-17.42,20.73-1,.37-1.44,0-1.45-.94,0-1.5,0-3,0-4.5Z" fill="#009cdb"/><path d="M1206.29,417.64c.15,8.9-3,16.24-8.47,22.71Q1187,453,1176.33,465.81c-2.25,2.67-2.56,2.82-4.77.27-5.38-6.2-10.6-12.53-15.94-18.76-3.29-3.84-6.77-7.53-9.57-11.77a29.73,29.73,0,0,1-5.11-17.33c.31-10.12,4-19,12.35-25.43a32,32,0,0,1,25-6.75c13.06,1.84,21.3,9.55,26.2,21.22A23.23,23.23,0,0,1,1206.29,417.64Z" fill="#00a7e3"/><path d="M1174.73,443.09a24,24,0,0,1-24.65-18.23c-2.53-9.73.66-19.32,9.16-26.08,5.8-4.61,12.4-5.14,19.28-4.63,7.54.56,17.59,9.55,19.18,16.93.28,1.3,0,2.09-1.6,2q-3.62-.09-7.25,0a2.45,2.45,0,0,1-2.36-1.48,14.65,14.65,0,0,0-12-7.4c-5-.39-11.41,3.22-13.74,9.22a14.21,14.21,0,0,0,24.81,13.38,4.73,4.73,0,0,1,4.57-2.27c1.74.13,3.5,0,5.25,0,2.38,0,2.71.52,1.82,2.66-3.13,7.55-8.39,12.62-16.37,15.05A30.09,30.09,0,0,1,1174.73,443.09Z" fill="#009cdb"/><path d="M1062.6,433.26c.86,13.51-9.87,26.14-21.45,29.91-12.63,4.11-23.85,1.91-33.66-7.33-8-7.52-10.83-16.88-9.82-27.4.64-6.66,3.7-12.59,8.05-17.75q8-9.49,16.06-19c2.25-2.65,4.57-5.25,6.8-7.92,1.08-1.3,1.93-1.2,3,0,3.51,4.09,7.12,8.09,10.6,12.19,4.07,4.8,7.94,9.78,12.11,14.48A31.28,31.28,0,0,1,1062.6,433.26Z" fill="#00a7e3"/><path d="M1048.83,427.11c-1,0-2-.07-3,0a3.43,3.43,0,0,1-3.49-1.81,13.28,13.28,0,0,0-12.35-6.42c-6.46.24-10.7,3.58-13,9.45-2.6,6.58,2,15.5,8.52,17.93s14.28-.58,17.14-6.17c.48-.94,1.24-1,2.09-1,2.67,0,5.33,0,8,0,1.61,0,1.75.41,1.2,1.89-3,8.1-8.66,13.83-16.84,15.84-11,2.69-21.46-.28-28.27-11.92-7-11.94-2-26.64,8.62-33,5-3,10.41-4.59,16.1-3.69,10.25,1.63,17.17,7.62,20.73,17.42.37,1,0,1.44-.94,1.45-1.5,0-3,0-4.5,0Z" fill="#009cdb"/><path d="M1501.29,417.64c.15,8.9-3,16.24-8.47,22.71Q1482,453,1471.33,465.81c-2.25,2.67-2.56,2.82-4.77.27-5.38-6.2-10.6-12.53-15.94-18.76-3.29-3.84-6.77-7.53-9.57-11.77a29.73,29.73,0,0,1-5.11-17.33c.31-10.12,4-19,12.35-25.43a32,32,0,0,1,25-6.75c13.06,1.84,21.3,9.55,26.2,21.22A23.23,23.23,0,0,1,1501.29,417.64Z" fill="#00a7e3"/><path d="M1469.73,443.09a24,24,0,0,1-24.65-18.23c-2.53-9.73.66-19.32,9.16-26.08,5.8-4.61,12.4-5.14,19.28-4.63,7.54.56,17.59,9.55,19.18,16.93.28,1.3,0,2.09-1.6,2q-3.62-.09-7.25,0a2.45,2.45,0,0,1-2.36-1.48,14.65,14.65,0,0,0-12-7.4c-5-.39-11.41,3.22-13.74,9.22a14.21,14.21,0,0,0,24.81,13.38,4.73,4.73,0,0,1,4.57-2.27c1.74.13,3.5,0,5.25,0,2.38,0,2.71.52,1.82,2.66-3.13,7.55-8.39,12.62-16.37,15.05A30.09,30.09,0,0,1,1469.73,443.09Z" fill="#009cdb"/><path d="M1357.6,433.26c.86,13.51-9.87,26.14-21.45,29.91-12.63,4.11-23.85,1.91-33.66-7.33-8-7.52-10.83-16.88-9.82-27.4.64-6.66,3.7-12.59,8.05-17.75q8-9.49,16.06-19c2.25-2.65,4.57-5.25,6.8-7.92,1.08-1.3,1.93-1.2,3,0,3.51,4.09,7.12,8.09,10.6,12.19,4.07,4.8,7.94,9.78,12.11,14.48A31.28,31.28,0,0,1,1357.6,433.26Z" fill="#00a7e3"/><path d="M1343.83,427.11c-1,0-2-.07-3,0a3.43,3.43,0,0,1-3.49-1.81,13.28,13.28,0,0,0-12.35-6.42c-6.46.24-10.7,3.58-13,9.45-2.6,6.58,2,15.5,8.52,17.93s14.28-.58,17.14-6.17c.48-.94,1.24-1,2.09-1,2.67,0,5.33,0,8,0,1.61,0,1.75.41,1.2,1.89-3,8.1-8.66,13.83-16.84,15.84-11,2.69-21.46-.28-28.27-11.92-7-11.94-2-26.64,8.62-33,5-3,10.41-4.59,16.1-3.69,10.25,1.63,17.17,7.62,20.73,17.42.37,1,0,1.44-.94,1.45-1.5,0-3,0-4.5,0Z" fill="#009cdb"/><path d="M1796.29,417.64c.15,8.9-3,16.24-8.47,22.71Q1777,453,1766.33,465.81c-2.25,2.67-2.56,2.82-4.77.27-5.38-6.2-10.6-12.53-15.94-18.76-3.29-3.84-6.77-7.53-9.57-11.77a29.73,29.73,0,0,1-5.11-17.33c.31-10.12,4-19,12.35-25.43a32,32,0,0,1,25-6.75c13.06,1.84,21.3,9.55,26.2,21.22A23.23,23.23,0,0,1,1796.29,417.64Z" fill="#00a7e3"/><path d="M1764.73,443.09a24,24,0,0,1-24.65-18.23c-2.53-9.73.66-19.32,9.16-26.08,5.8-4.61,12.4-5.14,19.28-4.63,7.54.56,17.59,9.55,19.18,16.93.28,1.3,0,2.09-1.6,2q-3.62-.09-7.25,0a2.45,2.45,0,0,1-2.36-1.48,14.65,14.65,0,0,0-12-7.4c-5-.39-11.41,3.22-13.74,9.22a14.21,14.21,0,0,0,24.81,13.38,4.73,4.73,0,0,1,4.57-2.27c1.74.13,3.5,0,5.25,0,2.38,0,2.71.52,1.82,2.66-3.13,7.55-8.39,12.62-16.37,15.05A30.09,30.09,0,0,1,1764.73,443.09Z" fill="#009cdb"/><path d="M1652.6,433.26c.86,13.51-9.87,26.14-21.45,29.91-12.63,4.11-23.85,1.91-33.66-7.33-8-7.52-10.83-16.88-9.82-27.4.64-6.66,3.7-12.59,8.05-17.75q8-9.49,16.06-19c2.25-2.65,4.57-5.25,6.8-7.92,1.08-1.3,1.93-1.2,3,0,3.51,4.09,7.12,8.09,10.6,12.19,4.07,4.8,7.94,9.78,12.11,14.48A31.28,31.28,0,0,1,1652.6,433.26Z" fill="#00a7e3"/><path d="M1638.83,427.11c-1,0-2-.07-3,0a3.43,3.43,0,0,1-3.49-1.81,13.28,13.28,0,0,0-12.35-6.42c-6.46.24-10.7,3.58-13,9.45-2.6,6.58,2,15.5,8.52,17.93s14.28-.58,17.14-6.17c.48-.94,1.24-1,2.09-1,2.67,0,5.33,0,8,0,1.61,0,1.75.41,1.2,1.89-3,8.1-8.66,13.83-16.84,15.84-11,2.69-21.46-.28-28.27-11.92-7-11.94-2-26.64,8.62-33,5-3,10.41-4.59,16.1-3.69,10.25,1.63,17.17,7.62,20.73,17.42.37,1,0,1.44-.94,1.45-1.5,0-3,0-4.5,0Z" fill="#009cdb"/><path d="M1206,763.64c.15,8.9-3,16.24-8.47,22.71Q1186.71,799,1176,811.81c-2.25,2.67-2.56,2.82-4.77.27-5.38-6.2-10.6-12.53-15.94-18.76-3.29-3.84-6.77-7.53-9.57-11.77a29.73,29.73,0,0,1-5.11-17.33c.31-10.12,4-19,12.35-25.43a32,32,0,0,1,25-6.75c13.06,1.84,21.3,9.55,26.2,21.22A23.23,23.23,0,0,1,1206,763.64Z" fill="#00a7e3"/><path d="M1174.42,789.09a24,24,0,0,1-24.65-18.23c-2.53-9.73.66-19.32,9.16-26.08,5.8-4.61,12.4-5.14,19.28-4.63,7.54.56,17.59,9.55,19.18,16.93.28,1.3,0,2.09-1.6,2q-3.62-.09-7.25,0a2.45,2.45,0,0,1-2.36-1.48,14.65,14.65,0,0,0-12-7.4c-5-.39-11.41,3.22-13.74,9.22a14.21,14.21,0,0,0,24.81,13.38,4.73,4.73,0,0,1,4.57-2.27c1.74.13,3.5,0,5.25,0,2.38,0,2.71.52,1.82,2.66-3.13,7.55-8.39,12.62-16.37,15.05A30.09,30.09,0,0,1,1174.42,789.09Z" fill="#009cdb"/><path d="M1062.3,779.26c.86,13.51-9.87,26.14-21.45,29.91-12.63,4.11-23.85,1.91-33.66-7.33-8-7.52-10.83-16.88-9.82-27.4.64-6.66,3.7-12.59,8.05-17.75q8-9.49,16.06-19c2.25-2.65,4.57-5.25,6.8-7.92,1.08-1.3,1.93-1.2,3,0,3.51,4.09,7.12,8.09,10.6,12.19,4.07,4.8,7.94,9.78,12.11,14.48A31.28,31.28,0,0,1,1062.3,779.26Z" fill="#00a7e3"/><path d="M1048.53,773.11c-1,0-2-.07-3,0a3.43,3.43,0,0,1-3.49-1.81,13.28,13.28,0,0,0-12.35-6.42c-6.46.24-10.7,3.58-13,9.45-2.6,6.58,2,15.5,8.52,17.93s14.28-.58,17.14-6.17c.48-.94,1.24-1,2.09-1,2.67,0,5.33,0,8,0,1.61,0,1.75.41,1.2,1.89-3,8.1-8.66,13.83-16.84,15.84-11,2.69-21.46-.28-28.27-11.92-7-11.94-2-26.64,8.62-33,5-3,10.41-4.59,16.1-3.69,10.25,1.63,17.17,7.62,20.73,17.42.37,1,0,1.44-.94,1.45-1.5,0-3,0-4.5,0Z" fill="#009cdb"/><path d="M1501,763.64c.15,8.9-3,16.24-8.47,22.71Q1481.71,799,1471,811.81c-2.25,2.67-2.56,2.82-4.77.27-5.38-6.2-10.6-12.53-15.94-18.76-3.29-3.84-6.77-7.53-9.57-11.77a29.73,29.73,0,0,1-5.11-17.33c.31-10.12,4-19,12.35-25.43a32,32,0,0,1,25-6.75c13.06,1.84,21.3,9.55,26.2,21.22A23.23,23.23,0,0,1,1501,763.64Z" fill="#00a7e3"/><path d="M1469.42,789.09a24,24,0,0,1-24.65-18.23c-2.53-9.73.66-19.32,9.16-26.08,5.8-4.61,12.4-5.14,19.28-4.63,7.54.56,17.59,9.55,19.18,16.93.28,1.3,0,2.09-1.6,2q-3.62-.09-7.25,0a2.45,2.45,0,0,1-2.36-1.48,14.65,14.65,0,0,0-12-7.4c-5-.39-11.41,3.22-13.74,9.22a14.21,14.21,0,0,0,24.81,13.38,4.73,4.73,0,0,1,4.57-2.27c1.74.13,3.5,0,5.25,0,2.38,0,2.71.52,1.82,2.66-3.13,7.55-8.39,12.62-16.37,15.05A30.09,30.09,0,0,1,1469.42,789.09Z" fill="#009cdb"/><path d="M1357.3,779.26c.86,13.51-9.87,26.14-21.45,29.91-12.63,4.11-23.85,1.91-33.66-7.33-8-7.52-10.83-16.88-9.82-27.4.64-6.66,3.7-12.59,8.05-17.75q8-9.49,16.06-19c2.25-2.65,4.57-5.25,6.8-7.92,1.08-1.3,1.93-1.2,3,0,3.51,4.09,7.12,8.09,10.6,12.19,4.07,4.8,7.94,9.78,12.11,14.48A31.28,31.28,0,0,1,1357.3,779.26Z" fill="#00a7e3"/><path d="M1343.53,773.11c-1,0-2-.07-3,0a3.43,3.43,0,0,1-3.49-1.81,13.28,13.28,0,0,0-12.35-6.42c-6.46.24-10.7,3.58-13,9.45-2.6,6.58,2,15.5,8.52,17.93s14.28-.58,17.14-6.17c.48-.94,1.24-1,2.09-1,2.67,0,5.33,0,8,0,1.61,0,1.75.41,1.2,1.89-3,8.1-8.66,13.83-16.84,15.84-11,2.69-21.46-.28-28.27-11.92-7-11.94-2-26.64,8.62-33,5-3,10.41-4.59,16.1-3.69,10.25,1.63,17.17,7.62,20.73,17.42.37,1,0,1.44-.94,1.45-1.5,0-3,0-4.5,0Z" fill="#009cdb"/><path d="M1796,763.64c.15,8.9-3,16.24-8.47,22.71Q1776.71,799,1766,811.81c-2.25,2.67-2.56,2.82-4.77.27-5.38-6.2-10.6-12.53-15.94-18.76-3.29-3.84-6.77-7.53-9.57-11.77a29.73,29.73,0,0,1-5.11-17.33c.31-10.12,4-19,12.35-25.43a32,32,0,0,1,25-6.75c13.06,1.84,21.3,9.55,26.2,21.22A23.23,23.23,0,0,1,1796,763.64Z" fill="#00a7e3"/><path d="M1764.42,789.09a24,24,0,0,1-24.65-18.23c-2.53-9.73.66-19.32,9.16-26.08,5.8-4.61,12.4-5.14,19.28-4.63,7.54.56,17.59,9.55,19.18,16.93.28,1.3,0,2.09-1.6,2q-3.62-.09-7.25,0a2.45,2.45,0,0,1-2.36-1.48,14.65,14.65,0,0,0-12-7.4c-5-.39-11.41,3.22-13.74,9.22a14.21,14.21,0,0,0,24.81,13.38,4.73,4.73,0,0,1,4.57-2.27c1.74.13,3.5,0,5.25,0,2.38,0,2.71.52,1.82,2.66-3.13,7.55-8.39,12.62-16.37,15.05A30.09,30.09,0,0,1,1764.42,789.09Z" fill="#009cdb"/><path d="M1652.3,779.26c.86,13.51-9.87,26.14-21.45,29.91-12.63,4.11-23.85,1.91-33.66-7.33-8-7.52-10.83-16.88-9.82-27.4.64-6.66,3.7-12.59,8.05-17.75q8-9.49,16.06-19c2.25-2.65,4.57-5.25,6.8-7.92,1.08-1.3,1.93-1.2,3,0,3.51,4.09,7.12,8.09,10.6,12.19,4.07,4.8,7.94,9.78,12.11,14.48A31.28,31.28,0,0,1,1652.3,779.26Z" fill="#00a7e3"/><path d="M1638.53,773.11c-1,0-2-.07-3,0a3.43,3.43,0,0,1-3.49-1.81,13.28,13.28,0,0,0-12.35-6.42c-6.46.24-10.7,3.58-13,9.45-2.6,6.58,2,15.5,8.52,17.93s14.28-.58,17.14-6.17c.48-.94,1.24-1,2.09-1,2.67,0,5.33,0,8,0,1.61,0,1.75.41,1.2,1.89-3,8.1-8.66,13.83-16.84,15.84-11,2.69-21.46-.28-28.27-11.92-7-11.94-2-26.64,8.62-33,5-3,10.41-4.59,16.1-3.69,10.25,1.63,17.17,7.62,20.73,17.42.37,1,0,1.44-.94,1.45-1.5,0-3,0-4.5,0Z" fill="#009cdb"/></g></svg>