<?xml version="1.0" encoding="utf-8"?>
<!-- Generator: Adobe Illustrator 21.0.2, SVG Export Plug-In . SVG Version: 6.00 Build 0)  -->
<svg version="1.1" id="_x36_91df0a8-1fb0-4797-bcea-ce6935921c01"
	 xmlns="http://www.w3.org/2000/svg" xmlns:xlink="http://www.w3.org/1999/xlink" x="0px" y="0px" viewBox="0 0 1366 699.2"
	 style="enable-background:new 0 0 1366 699.2;" xml:space="preserve">
<style type="text/css">
	.st0{fill:#009DDC;}
	.st1{fill:#FFFFFF;}
	.st2{font-family:'Roboto-Bold';}
	.st3{font-size:24.92px;}
	.st4{font-family:'MyriadPro-Bold';}
	.st5{font-size:50px;}
	.st6{font-size:44.5px;}
	.st7{fill:none;stroke:#FFFFFF;stroke-width:5.34;stroke-miterlimit:10;}
	.st8{fill:#EFEFF0;}
	.st9{font-family:'Roboto-Regular';}
	.st10{font-size:16px;}
	.st11{fill:#00A8E3;}
	.st12{font-size:20.47px;}
	.st13{fill:#0C0C0C;}
	.st14{opacity:0.35;}
	.st15{fill:#161616;}
	.st16{font-family:'Roboto-Medium';}
	.st17{font-size:32px;}
	.st18{letter-spacing:-1;}
	.st19{fill:#515151;}
	.st20{fill:#929293;}
	.st21{opacity:0.68;enable-background:new    ;}
	.st22{font-family:'ArialMT';}
	.st23{font-size:21px;}
	.st24{fill:#2D2D2D;}
	.st25{fill:none;stroke:#FFFFFF;stroke-width:5;stroke-miterlimit:10;}
	.st26{fill:#009CDB;}
	.st27{fill:#FEFEFE;}
	.st28{fill:#F1F1F1;}
	.st29{fill:#B5B3B5;}
	.st30{fill:#00A7E3;}
	.st31{fill:#00A6E2;}
	.st32{fill:#009DDB;}
	.st33{fill:#009BDE;}
</style>
<title>Current Compass Style</title>
<rect x="115.2" y="226.5" class="st0" width="221.9" height="54.6"/>
<rect x="675.3" y="229.3" class="st0" width="582.6" height="65"/>
<text transform="matrix(1 0 0 1 698.25 270.2393)" class="st1 st2 st3">How do I .....</text>
<text transform="matrix(1 0 0 1 1203.71 275.0893)" class="st1 st4 st5">+</text>
<text transform="matrix(1 0 0 1 1151.04 448.4693)" class="st1 st4 st6">+</text>
<rect x="675.3" y="298.7" class="st0" width="582.6" height="65"/>
<text transform="matrix(1 0 0 1 698.25 339.6593)" class="st1 st2 st3">What is ....</text>
<line class="st7" x1="1150.9" y1="507.6" x2="1178.5" y2="507.6"/>
<rect x="674.8" y="363.7" class="st8" width="583.2" height="193.4"/>
<text transform="matrix(1 0 0 1 697.16 403.5593)" class="st9 st10">Balance p</text>
<text transform="matrix(1 0 0 1 767.03 403.5593)" class="st9 st10">r</text>
<text transform="matrix(1 0 0 1 772.29 403.5593)" class="st9 st10">otection is exactly what it sounds li</text>
<text transform="matrix(1 0 0 1 1020.55 403.5593)" class="st9 st10">k</text>
<text transform="matrix(1 0 0 1 1028.5 403.5593)" class="st9 st10">e – a w</text>
<text transform="matrix(1 0 0 1 1080.09 403.5593)" class="st9 st10">a</text>
<text transform="matrix(1 0 0 1 1088.6799 403.5593)" class="st9 st10">y </text>
<text transform="matrix(1 0 0 1 1100.21 403.5593)" class="st9 st10">t</text>
<text transform="matrix(1 0 0 1 1105.28 403.5593)" class="st9 st10">o sa</text>
<text transform="matrix(1 0 0 1 1135.3199 403.5593)" class="st9 st10">f</text>
<text transform="matrix(1 0 0 1 1140.6799 403.5593)" class="st9 st10">egua</text>
<text transform="matrix(1 0 0 1 1175.6599 403.5593)" class="st9 st10">r</text>
<text transform="matrix(1 0 0 1 1180.9299 403.5593)" class="st9 st10">d the </text>
<text transform="matrix(1 0 0 1 697.16 423.5593)" class="st9 st10">v</text>
<text transform="matrix(1 0 0 1 704.79 423.5593)" class="st9 st10">alue on </text>
<text transform="matrix(1 0 0 1 760.55 423.5593)" class="st9 st10">y</text>
<text transform="matrix(1 0 0 1 768 423.5593)" class="st9 st10">our Compass Ca</text>
<text transform="matrix(1 0 0 1 886.14 423.5593)" class="st9 st10">r</text>
<text transform="matrix(1 0 0 1 891.41 423.5593)" class="st9 st10">d in the </text>
<text transform="matrix(1 0 0 1 947.54 423.5593)" class="st9 st10">ev</text>
<text transform="matrix(1 0 0 1 963.5699 423.5593)" class="st9 st10">ent it</text>
<text transform="matrix(1 0 0 1 999.17 423.5593)" class="st9 st10">&apos;</text>
<text transform="matrix(1 0 0 1 1001.33 423.5593)" class="st9 st10">s lost or s</text>
<text transform="matrix(1 0 0 1 1070.74 423.5593)" class="st9 st10">t</text>
<text transform="matrix(1 0 0 1 1075.8099 423.5593)" class="st9 st10">olen. When </text>
<text transform="matrix(1 0 0 1 1158.5699 423.5593)" class="st9 st10">y</text>
<text transform="matrix(1 0 0 1 1166.02 423.5593)" class="st9 st10">ou </text>
<text transform="matrix(1 0 0 1 1187.9299 423.5593)" class="st9 st10">r</text>
<text transform="matrix(1 0 0 1 1193.1899 423.5593)" class="st9 st10">epo</text>
<text transform="matrix(1 0 0 1 1219.77 423.5593)" class="st9 st10">r</text>
<text transform="matrix(1 0 0 1 1225.5699 423.5593)" class="st9 st10">t </text>
<text transform="matrix(1 0 0 1 697.16 443.5593)" class="st9 st10">y</text>
<text transform="matrix(1 0 0 1 704.61 443.5593)" class="st9 st10">our ca</text>
<text transform="matrix(1 0 0 1 749.0099 443.5593)" class="st9 st10">r</text>
<text transform="matrix(1 0 0 1 754.28 443.5593)" class="st9 st10">d </text>
<text transform="matrix(1 0 0 1 767.2599 443.5593)" class="st9 st10">t</text>
<text transform="matrix(1 0 0 1 772.33 443.5593)" class="st9 st10">o Cus</text>
<text transform="matrix(1 0 0 1 812.9 443.5593)" class="st9 st10">t</text>
<text transform="matrix(1 0 0 1 817.97 443.5593)" class="st9 st10">omer Se</text>
<text transform="matrix(1 0 0 1 876.9399 443.5593)" class="st9 st10">r</text>
<text transform="matrix(1 0 0 1 882.5 443.5593)" class="st9 st10">vice, it will be “f</text>
<text transform="matrix(1 0 0 1 991.41 443.5593)" class="st9 st10">r</text>
<text transform="matrix(1 0 0 1 996.67 443.5593)" class="st9 st10">oz</text>
<text transform="matrix(1 0 0 1 1013.47 443.5593)" class="st9 st10">e</text>
<text transform="matrix(1 0 0 1 1021.95 443.5593)" class="st9 st10">n</text>
<text transform="matrix(1 0 0 1 1029.96 443.5593)" class="st9 st10">” and the balance </text>
<text transform="matrix(1 0 0 1 697.16 463.5593)" class="st9 st10">t</text>
<text transform="matrix(1 0 0 1 702.39 463.5593)" class="st9 st10">r</text>
<text transform="matrix(1 0 0 1 707.49 463.5593)" class="st9 st10">ans</text>
<text transform="matrix(1 0 0 1 733.27 463.5593)" class="st9 st10">f</text>
<text transform="matrix(1 0 0 1 738.64 463.5593)" class="st9 st10">er</text>
<text transform="matrix(1 0 0 1 752.53 463.5593)" class="st9 st10">r</text>
<text transform="matrix(1 0 0 1 757.79 463.5593)" class="st9 st10">ed </text>
<text transform="matrix(1 0 0 1 779.25 463.5593)" class="st9 st10">t</text>
<text transform="matrix(1 0 0 1 784.3199 463.5593)" class="st9 st10">o a new Compass Ca</text>
<text transform="matrix(1 0 0 1 934.18 463.5593)" class="st9 st10">r</text>
<text transform="matrix(1 0 0 1 939.45 463.5593)" class="st9 st10">d or </text>
<text transform="matrix(1 0 0 1 970.9299 463.5593)" class="st9 st10">r</text>
<text transform="matrix(1 0 0 1 976.2 463.5593)" class="st9 st10">efunded </text>
<text transform="matrix(1 0 0 1 1038.36 463.5593)" class="st9 st10">b</text>
<text transform="matrix(1 0 0 1 1047.25 463.5593)" class="st9 st10">y cheque. All </text>
<text transform="matrix(1 0 0 1 1141.1799 463.5593)" class="st9 st10">r</text>
<text transform="matrix(1 0 0 1 1146.4399 463.5593)" class="st9 st10">egiste</text>
<text transform="matrix(1 0 0 1 1189.73 463.5593)" class="st9 st10">r</text>
<text transform="matrix(1 0 0 1 1195 463.5593)" class="st9 st10">ed </text>
<text transform="matrix(1 0 0 1 697.16 483.5593)" class="st9 st10">Compass Ca</text>
<text transform="matrix(1 0 0 1 787.98 483.5593)" class="st9 st10">r</text>
<text transform="matrix(1 0 0 1 793.25 483.5593)" class="st9 st10">ds </text>
<text transform="matrix(1 0 0 1 814.48 483.5593)" class="st9 st10">r</text>
<text transform="matrix(1 0 0 1 819.75 483.5593)" class="st9 st10">ecei</text>
<text transform="matrix(1 0 0 1 848.96 483.5593)" class="st9 st10">v</text>
<text transform="matrix(1 0 0 1 856.61 483.5593)" class="st9 st10">e the benefit of Balance p</text>
<text transform="matrix(1 0 0 1 1037.4099 483.5593)" class="st9 st10">r</text>
<text transform="matrix(1 0 0 1 1042.6699 483.5593)" class="st9 st10">otection. It</text>
<text transform="matrix(1 0 0 1 1118.6799 483.5593)" class="st9 st10">’</text>
<text transform="matrix(1 0 0 1 1121 483.5593)" class="st9 st10">s one mo</text>
<text transform="matrix(1 0 0 1 1186.75 483.5593)" class="st9 st10">r</text>
<text transform="matrix(1 0 0 1 1192.02 483.5593)" class="st9 st10">e </text>
<text transform="matrix(1 0 0 1 697.16 503.5593)" class="st9 st10">r</text>
<text transform="matrix(1 0 0 1 702.43 503.5593)" class="st9 st10">eason (hint, hint) </text>
<text transform="matrix(1 0 0 1 825.36 503.5593)" class="st9 st10">y</text>
<text transform="matrix(1 0 0 1 832.8199 503.5593)" class="st9 st10">ou should consider </text>
<text transform="matrix(1 0 0 1 971.9299 503.5593)" class="st9 st10">r</text>
<text transform="matrix(1 0 0 1 977.2 503.5593)" class="st9 st10">egistering </text>
<text transform="matrix(1 0 0 1 1051.55 503.5593)" class="st9 st10">y</text>
<text transform="matrix(1 0 0 1 1059 503.5593)" class="st9 st10">our ca</text>
<text transform="matrix(1 0 0 1 1103.3999 503.5593)" class="st9 st10">r</text>
<text transform="matrix(1 0 0 1 1108.6699 503.5593)" class="st9 st10">d </text>
<text transform="matrix(1 0 0 1 1121.6499 503.5593)" class="st9 st10">t</text>
<text transform="matrix(1 0 0 1 1126.72 503.5593)" class="st9 st10">od</text>
<text transform="matrix(1 0 0 1 1144.87 503.5593)" class="st9 st10">a</text>
<text transform="matrix(1 0 0 1 1153.46 503.5593)" class="st9 st10">y</text>
<text transform="matrix(1 0 0 1 1160.1899 503.5593)" class="st9 st10">.</text>
<rect x="259.1" y="533.1" class="st11" width="143.6" height="109.5"/>
<text transform="matrix(1 0 0 1 273.48 632.0493)" class="st1 st9 st12">#00a8e3</text>
<rect x="115.5" y="533.1" class="st0" width="143.6" height="109.5"/>
<rect x="382.7" y="226.6" class="st1" width="220.9" height="54"/>
<path class="st0" d="M603.1,227.1v53h-220v-53H603.1 M604.1,226.1h-222v55h221.9L604.1,226.1L604.1,226.1z"/>
<text transform="matrix(1 0 0 1 130.21 632.0493)" class="st1 st9 st12">#009ddc</text>
<rect x="402.7" y="533.1" class="st8" width="143.6" height="109.5"/>
<text transform="matrix(1 0 0 1 417.65 632.0493)" class="st13 st9 st12">#e</text>
<text transform="matrix(1 0 0 1 441.1 632.0493)" class="st13 st9 st12">f</text>
<text transform="matrix(1 0 0 1 447.96 632.0493)" class="st13 st9 st12">eff0</text>
<text transform="matrix(1 0 0 1 166.45 260.7893)" class="st1 st9 st12">Register ca</text>
<text transform="matrix(1 0 0 1 268.27 260.7893)" class="st1 st9 st12">r</text>
<text transform="matrix(1 0 0 1 275.01 260.7893)" class="st1 st9 st12">d</text>
<rect x="115.7" y="338.5" class="st0" width="221.9" height="54.6"/>
<g class="st14">
	<rect x="115.7" y="338.5" width="221.9" height="54.6"/>
</g>
<text transform="matrix(1 0 0 1 166.45 372.9993)" class="st1 st9 st12">Register ca</text>
<text transform="matrix(1 0 0 1 268.27 372.9993)" class="st1 st9 st12">r</text>
<text transform="matrix(1 0 0 1 275.01 372.9993)" class="st1 st9 st12">d</text>
<rect x="382.2" y="338.5" class="st0" width="221.9" height="54.6"/>
<text transform="matrix(1 0 0 1 411.03 372.9993)" class="st1 st9 st12">Continue as guest</text>
<text transform="matrix(1 0 0 1 674.25 62.4893)" class="st15 st16 st17">Headline</text>
<text transform="matrix(1 0 0 1 800.84 62.4893)" class="st15 st16 st17"> </text>
<text transform="matrix(1 0 0 1 807.88 62.4893)" class="st15 st16 st17 st18">T</text>
<text transform="matrix(1 0 0 1 825.91 62.4893)" class="st15 st16 st17">ext</text>
<text transform="matrix(1 0 0 1 411.03 260.7893)" class="st0 st9 st12">Continue as guest</text>
<rect x="550.9" y="441.6" class="st0" width="52.1" height="46.7"/>
<path class="st19" d="M602.8,441.9v46.2h-51.6v-46.2H602.8 M603.2,441.4h-52.5v47.2h52.5L603.2,441.4L603.2,441.4z"/>
<path class="st20" d="M602.8,442.7v44.5H117.3v-44.5H602.8 M604.1,441.4H116v47.2h488.1L604.1,441.4L604.1,441.4z"/>
<polygon class="st1" points="578.6,471.6 587.2,458.3 570.1,458.3 "/>
<text transform="matrix(1 0 0 1 674.53 99.7893)" class="st9 st10">This is the pa</text>
<text transform="matrix(1 0 0 1 769.23 99.7893)" class="st9 st10">r</text>
<text transform="matrix(1 0 0 1 774.33 99.7893)" class="st9 st10">ag</text>
<text transform="matrix(1 0 0 1 792.01 99.7893)" class="st9 st10">r</text>
<text transform="matrix(1 0 0 1 797.12 99.7893)" class="st9 st10">aph text style for the Compass Ca</text>
<text transform="matrix(1 0 0 1 1037.11 99.7893)" class="st9 st10">r</text>
<text transform="matrix(1 0 0 1 1042.37 99.7893)" class="st9 st10">d website.</text>
<text transform="matrix(1 0 0 1 674.53 129.7893)" class="st9 st10">Mo</text>
<text transform="matrix(1 0 0 1 697.6201 129.7893)" class="st9 st10">r</text>
<text transform="matrix(1 0 0 1 702.89 129.7893)" class="st9 st10">e pa</text>
<text transform="matrix(1 0 0 1 733.01 129.7893)" class="st9 st10">r</text>
<text transform="matrix(1 0 0 1 738.11 129.7893)" class="st9 st10">ag</text>
<text transform="matrix(1 0 0 1 755.79 129.7893)" class="st9 st10">r</text>
<text transform="matrix(1 0 0 1 760.89 129.7893)" class="st9 st10">aph text he</text>
<text transform="matrix(1 0 0 1 839.45 129.7893)" class="st9 st10">r</text>
<text transform="matrix(1 0 0 1 844.72 129.7893)" class="st9 st10">e. If </text>
<text transform="matrix(1 0 0 1 875.23 129.7893)" class="st9 st10">y</text>
<text transform="matrix(1 0 0 1 882.6901 129.7893)" class="st9 st10">ou cannot find what </text>
<text transform="matrix(1 0 0 1 1027.62 129.7893)" class="st9 st10">y</text>
<text transform="matrix(1 0 0 1 1035.0701 129.7893)" class="st9 st10">ou a</text>
<text transform="matrix(1 0 0 1 1065.6801 129.7893)" class="st9 st10">r</text>
<text transform="matrix(1 0 0 1 1070.9401 129.7893)" class="st9 st10">e looking </text>
<text transform="matrix(1 0 0 1 674.53 149.7893)" class="st9 st10">for on this page, the</text>
<text transform="matrix(1 0 0 1 815.38 149.7893)" class="st9 st10">r</text>
<text transform="matrix(1 0 0 1 820.65 149.7893)" class="st9 st10">e a</text>
<text transform="matrix(1 0 0 1 841.79 149.7893)" class="st9 st10">r</text>
<text transform="matrix(1 0 0 1 847.05 149.7893)" class="st9 st10">e additional </text>
<text transform="matrix(1 0 0 1 933.73 149.7893)" class="st9 st10">r</text>
<text transform="matrix(1 0 0 1 939 149.7893)" class="st9 st10">esou</text>
<text transform="matrix(1 0 0 1 973.67 149.7893)" class="st9 st10">r</text>
<text transform="matrix(1 0 0 1 978.9401 149.7893)" class="st9 st10">ces </text>
<text transform="matrix(1 0 0 1 1008 149.7893)" class="st9 st10">av</text>
<text transform="matrix(1 0 0 1 1024.22 149.7893)" class="st9 st10">ailable for </text>
<text transform="matrix(1 0 0 1 1098.74 149.7893)" class="st9 st10">y</text>
<text transform="matrix(1 0 0 1 1106.1901 149.7893)" class="st9 st10">ou. </text>
<text transform="matrix(1 0 0 1 674.53 169.7893)" class="st9 st10">Please visit </text>
<text transform="matrix(1 0 0 1 759.33 169.7893)" class="st0 st9 st10">AskCompass.ca </text>
<text transform="matrix(1 0 0 1 879.12 169.7893)" class="st9 st10">t</text>
<text transform="matrix(1 0 0 1 884.1901 169.7893)" class="st9 st10">o </text>
<text transform="matrix(1 0 0 1 897.27 169.7893)" class="st9 st10">r</text>
<text transform="matrix(1 0 0 1 902.54 169.7893)" class="st9 st10">equest new </text>
<text transform="matrix(1 0 0 1 988.13 169.7893)" class="st9 st10">f</text>
<text transform="matrix(1 0 0 1 993.5 169.7893)" class="st9 st10">eatu</text>
<text transform="matrix(1 0 0 1 1024.73 169.7893)" class="st9 st10">r</text>
<text transform="matrix(1 0 0 1 1029.99 169.7893)" class="st9 st10">es or ask </text>
<text transform="matrix(1 0 0 1 674.53 189.7893)" class="st9 st10">questions that a</text>
<text transform="matrix(1 0 0 1 789.08 189.7893)" class="st9 st10">r</text>
<text transform="matrix(1 0 0 1 794.34 189.7893)" class="st9 st10">e not c</text>
<text transform="matrix(1 0 0 1 842.3 189.7893)" class="st9 st10">o</text>
<text transform="matrix(1 0 0 1 851.3 189.7893)" class="st9 st10">v</text>
<text transform="matrix(1 0 0 1 858.95 189.7893)" class="st9 st10">e</text>
<text transform="matrix(1 0 0 1 867.4301 189.7893)" class="st9 st10">r</text>
<text transform="matrix(1 0 0 1 872.6901 189.7893)" class="st9 st10">ed he</text>
<text transform="matrix(1 0 0 1 911.4401 189.7893)" class="st9 st10">r</text>
<text transform="matrix(1 0 0 1 916.71 189.7893)" class="st9 st10">e.</text>
<text transform="matrix(1 0 0 1 113.18 212.9693)" class="st21 st22 st23">Button 1</text>
<text transform="matrix(1 0 0 1 382.18 212.9693)" class="st21 st22 st23">Button 2</text>
<text transform="matrix(1 0 0 1 113.18 325.9693)" class="st21 st22 st23">Button 1 Hover</text>
<text transform="matrix(1 0 0 1 130.18 471.6892)" class="st24 st9 st23">Menu Item</text>
<text transform="matrix(1 0 0 1 382.18 325.9693)" class="st21 st22 st23">Button 2 Hover</text>
<line class="st25" x1="1207" y1="331.6" x2="1233" y2="331.6"/>
<path class="st26" d="M334.7,27.1h-70.8h-26.2c-0.5,0-0.9,0.1-1.3,0.4l-0.2,0.2c-0.2,0.2-0.5,0.4-0.7,0.6l0,0
	c-0.1,0.1-0.2,0.2-0.4,0.3c-4.2,3.3-9.1,5.4-14.3,6.1c-8.9,1.1-17.4-0.4-24.7-6.3l-0.2-0.1c-0.2-0.2-0.4-0.4-0.7-0.6l0,0
	c-0.4-0.4-1-0.5-1.5-0.6l-31.2,0h-46.1c0,0.9-0.1,1.8-0.5,2.6v117l0,0c0.1,0.3,0.2,0.6,0.3,0.9c3.5-1.2,7.3-1.8,11-1.7
	c3.6,0.2,7.1,0.9,10.4,2l0,0c0.6,0.2,1.2,0.4,1.9,0.7s1,0.4,1.4,0.6c17.7,0,35.4,0,53.1,0c0.3-0.1,0.5-0.3,0.7-0.5v-0.1
	c0.7-0.9-0.5-1.6-1.1-2.2c-2.4-2.2-5-4.4-7.6-6.4c-2.2-1.8-2.3-2.7-0.1-4.6c8.9-7.6,17.8-15.2,26.8-22.7c11.3-9.1,27.3-9.4,38.9-0.7
	c1.7,1.3,3.2,2.9,4.9,4.2c6.1,5.1,8.2,12.1,9,19.6c0.4,3.9-0.5,7.6-1.3,11.3c-0.2,0.5-0.2,1-0.1,1.5v0.1c0.2,0.3,0.6,0.6,1,0.6
	c17.7,0.1,35.4,0,53.1,0c0.6,0,1.2-0.2,1.7-0.6c0.2-0.2,0.4-0.3,0.6-0.5c0.3-0.3,0.6-0.7,1-1c0.6-0.8,1.7-1,2.5-0.4
	c0.2,0.1,0.4,0.3,0.5,0.6c0.2,0.3,0.5,0.6,0.7,0.9c0.1,0.2,0.3,0.3,0.4,0.4c0.4,0.4,1,0.6,1.5,0.6c2.4,0,4.8,0,7.2,0L334.7,27.1z"/>
<path class="st27" d="M334.7,149.6v-1h-8.2c-0.3-0.2-0.7-0.3-1.1-0.4c-1.5-0.5-3.1-0.5-4.6-0.1c-0.4,0.1-0.9,0.3-1.3,0.5h-55
	l-0.1-0.1c-2.9-1.4-5.9-0.5-8.8-0.6h-0.1h-0.3c-3.9-0.2-7.7,0-11.6,0h-0.9c-0.2,0-0.4,0-0.7,0c-6.2-0.1-12.3-0.1-18.4,0h-1.1
	c-3.9,0-7.7-0.1-11.6,0h-0.4h-0.2c-4.2-0.2-8.5-0.1-12.7-0.1c-0.9-0.1-1.8,0.2-2.5,0.8h-54.5c-0.9-0.3-1.8-0.5-2.8-0.7l0,0
	c-0.8-0.1-1.6-0.2-2.4-0.1h-17.5c-0.5,0-1,0-1.6,0.1c0.1,0.6,0.2,1.2,0.1,1.8C189.2,149.6,261.9,149.6,334.7,149.6z"/>
<path class="st28" d="M334.7,26.6H116.4c0,0.3,0.1,0.5,0.1,0.8c26.2-0.2,52.5-0.3,78.8,0.3h0.3l2.1,0.1c9.9,0.2,19.8,0.1,29.6-0.1
	l9.1-0.2h3.6c31.5-0.4,63.1-0.2,94.6-0.2L334.7,26.6z"/>
<path class="st29" d="M334.7,27.1H116.5c0,0.2,0,0.3,0,0.5h63.8c4.7,0,9.5,0.1,14.2,0.1c0.4,0.3,0.9,0.4,1.4,0.6
	c0.9,0.2,1.8,0.3,2.7,0.3c11.4,0,22.8,0,34.2,0c0.9,0,1.8-0.1,2.6-0.2l0,0c0.5-0.1,1-0.3,1.5-0.6c1.1,0,2.2-0.1,3.2-0.1h94.4
	L334.7,27.1z"/>
<path class="st30" d="M325,61.1c0.1,8.9-3,16.2-8.5,22.7c-7.2,8.5-14.4,17-21.5,25.5c-2.2,2.7-2.6,2.8-4.8,0.3
	c-5.4-6.2-10.6-12.5-15.9-18.8c-3.3-3.8-6.8-7.5-9.6-11.8c-3.5-5.1-5.2-11.2-5.1-17.3c0.3-10.1,4-19,12.4-25.4
	c7-5.7,16.1-8.1,25-6.8c13.1,1.8,21.3,9.6,26.2,21.2C324.6,54,325.2,57.5,325,61.1z"/>
<path class="st30" d="M189.5,79.7c0.9,13.5-9.9,26.1-21.4,29.9c-12.6,4.1-23.9,1.9-33.7-7.3c-8-7.5-10.8-16.9-9.8-27.4
	c0.6-6.7,3.7-12.6,8-17.8c5.3-6.3,10.7-12.7,16.1-19c2.2-2.7,4.6-5.2,6.8-7.9c1.1-1.3,1.9-1.2,3,0c3.5,4.1,7.1,8.1,10.6,12.2
	c4.1,4.8,7.9,9.8,12.1,14.5C187,63.1,190,71.3,189.5,79.7z"/>
<path class="st30" d="M242,148.5h-18.5c-4.4-2.8-5.6-7.2-5.5-11.9c0-3.5,1.7-6.6,4-9.4c4.8-5.7,16.5-6.3,22,0.4
	c0.9,1.1,1.6,2.7,3.2,3c2.4,0.4,4.8,0.4,7.2,0.1c1.4-0.1,1-1.3,0.7-2.1c-1-2.7-2.6-5.2-4.6-7.3c-5-5.3-11.3-8.4-18.5-7.8
	c-11.5,0.9-19.4,6.7-22.5,18.9c-1.1,4.4-0.8,9,0.8,13.3c0.3,0.9,0.9,1.9,0.1,2.8H195c-2.8-3-5.9-5.6-9.2-8c-2.9-2.2-3.1-3.2-0.4-5.6
	c4.7-4.2,9.6-8.2,14.4-12.2c3.8-3.2,7.6-6.4,11.4-9.6c4.7-4,10.4-6.7,16.6-7.7c8.8-1.6,16.6,0.6,23.7,5.3c6.3,4.2,11.6,9.4,13.6,17
	c1.4,5.2,2.4,10.6,0.6,16.1c-0.5,1.6-0.1,3.4-1.2,4.8h-9c-0.5-0.6-0.6-1.4-0.2-2.1c0.6-1.6-0.3-2.1-1.7-2.1s-2.6,0.1-4,0
	c-2.1-0.2-3.9,0.3-5,2.3C244,147.5,243.1,148.2,242,148.5z"/>
<path class="st30" d="M194.5,27.7H237c-3.3,3.7-7.7,5.2-12.1,6.9s-9.2,1.4-13.7,0.9C204.8,35,198.9,32.2,194.5,27.7z"/>
<path class="st30" d="M116.4,148.5h24.1c-0.3-0.3-0.6-0.6-0.9-0.8c-5-2.1-10.5-3-16-2.5c-2.6,0.2-5.2,0.7-7.6,1.6l0,0
	C116.2,147.3,116.4,147.9,116.4,148.5z"/>
<path class="st31" d="M326.5,148.5h-7c0.1-0.1,0.2-0.3,0.3-0.4C323.3,144.3,323.4,144.3,326.5,148.5z"/>
<path class="st26" d="M210.5,148.5c-1.4-3.9-2.2-8.1-2.1-12.3c0.1-6.6,2.8-11.9,7.2-16.4c4.6-4.8,11-7.4,17.6-7.1
	c10.3,0.2,19.5,6.7,23,16.4c0.7,1.8,0.2,2.7-1.9,2.6c-1-0.1-2-0.1-3,0c-3.7,0.6-5.9-1-8.2-3.9c-5-6.1-16.7-5.9-21.6,1.2
	c-3.9,5.6-3.8,12.3,0.5,17.5c0.5,0.6,0.9,1.4,1.4,2L210.5,148.5z"/>
<path class="st32" d="M242,148.5c1-1.3,2.1-2.6,3.1-3.8c0.3-0.3,0.5-0.8,0.8-0.9c3.3-0.3,6.6-0.3,9.9,0c0.9,0.1,0.7,1.2,0.5,1.9
	c-0.2,0.9-1,1.8-0.9,2.8L242,148.5z"/>
<path class="st26" d="M293.4,86.6c-11.5,0.6-21.9-7-24.6-18.2c-2.5-9.7,0.7-19.3,9.2-26.1c5.8-4.6,12.4-5.1,19.3-4.6
	c7.5,0.6,17.6,9.6,19.2,16.9c0.3,1.3,0,2.1-1.6,2c-2.4-0.1-4.8-0.1-7.2,0c-1,0-1.9-0.5-2.3-1.5c-2.5-4.4-7-7.1-12-7.4
	c-5-0.4-11.4,3.2-13.7,9.2c-2.8,7.3,0.8,15.5,8.2,18.4c6,2.3,12.9,0.3,16.6-5c0.9-1.6,2.7-2.5,4.6-2.3c1.7,0.1,3.5,0,5.2,0
	c2.4,0,2.7,0.5,1.8,2.7c-3.1,7.6-8.4,12.6-16.4,15C297.5,86.2,295.5,86.5,293.4,86.6z"/>
<path class="st26" d="M175.8,73.6c-1,0-2-0.1-3,0c-1.4,0.2-2.8-0.5-3.5-1.8c-2.6-4.3-7.4-6.8-12.4-6.4c-6.5,0.2-10.7,3.6-13,9.4
	c-2.6,6.6,2,15.5,8.5,17.9s14.3-0.6,17.1-6.2c0.5-0.9,1.2-1,2.1-1c2.7,0,5.3,0,8,0c1.6,0,1.8,0.4,1.2,1.9c-3,8.1-8.7,13.8-16.8,15.8
	c-11,2.7-21.5-0.3-28.3-11.9c-7-11.9-2-26.6,8.6-33c5-3,10.4-4.6,16.1-3.7c10.2,1.6,17.2,7.6,20.7,17.4c0.4,1,0,1.4-0.9,1.4
	C178.8,73.6,177.3,73.6,175.8,73.6L175.8,73.6z"/>
<path class="st27" d="M255.9,118.5c-16,15.7-41.7,15.5-57.4-0.5S183,76.3,199,60.6c7.2-7,16.7-11.2,26.7-11.6
	c11.1-0.5,46.9-3.8,46.9-3.8s-3.9,35.9-4.7,47C267.3,102.2,263,111.5,255.9,118.5z"/>
<path class="st26" d="M245.1,83.4c-5.7-8.5-13.2-12-20.6-9.7c-8.3,2.5-13.4,8.9-13.5,16.9c0.1,7.8,5.2,14.7,12.8,16.9
	c7.6,2.4,15.1-0.8,21.1-9.1H258c-0.5,8.5-11.3,21.9-27.7,22.8c-15.4,0.8-30.4-11.5-32.1-26C196,76.3,208.8,63.1,223,60.7
	c16.7-2.7,32.7,7.6,35.4,22.7L245.1,83.4z"/>
<path class="st33" d="M486.9,118.5c-16,15.7-41.7,15.5-57.4-0.5S414,76.3,430,60.6c7.2-7,16.7-11.2,26.7-11.6
	c11.1-0.5,46.9-3.8,46.9-3.8s-3.9,35.9-4.7,47C498.3,102.2,494,111.5,486.9,118.5z"/>
<path class="st27" d="M476.1,83.4c-5.7-8.5-13.2-12-20.6-9.7c-8.3,2.5-13.4,8.9-13.5,16.9c0.1,7.8,5.2,14.7,12.8,16.9
	c7.6,2.4,15.1-0.8,21.1-9.1H489c-0.5,8.5-11.3,21.9-27.7,22.8c-15.4,0.8-30.5-11.5-32.1-26C427,76.3,439.8,63.1,454,60.7
	c16.7-2.7,32.7,7.6,35.4,22.7L476.1,83.4z"/>
</svg>
