<svg id="5450151d-8ee6-47e3-8ffd-0224fe95ff61" data-name="Layer 1" xmlns="http://www.w3.org/2000/svg" viewBox="0 0 1445 803"><title>Artboard 1</title><line x1="807.5" y1="298" x2="807.5" y2="328" fill="none" stroke="#000" stroke-miterlimit="10"/><line x1="1137.5" y1="397.5" x2="1137.5" y2="298" fill="none" stroke="#000" stroke-miterlimit="10"/><line x1="1071" y1="149.5" x2="729" y2="149.5" fill="none" stroke="#000" stroke-miterlimit="10"/><line x1="768.5" y1="658.5" x2="601.5" y2="658.5" fill="none" stroke="#000" stroke-miterlimit="10"/><line x1="624.5" y1="485.5" x2="379.5" y2="485.5" fill="none" stroke="#000" stroke-miterlimit="10"/><line x1="379.5" y1="444.5" x2="379.5" y2="485.5" fill="none" stroke="#000" stroke-miterlimit="10"/><line x1="687.5" y1="658.5" x2="687.5" y2="384.5" fill="none" stroke="#000" stroke-miterlimit="10"/><line x1="184.5" y1="176.5" x2="184.5" y2="592.5" fill="none" stroke="#000" stroke-miterlimit="10"/><rect x="596.84" y="131.5" width="136" height="45" fill="#fff"/><path d="M732.34,132v44h-135V132h135m1-1h-137v46h137V131Z"/><text transform="translate(636.66 159)" font-size="12" font-family="MyriadPro-Regular, Myriad Pro"><tspan letter-spacing="-0.01em">M</tspan><tspan x="9.53" y="0">AIN </tspan><tspan x="30.18" y="0" letter-spacing="-0.08em">P</tspan><tspan x="35.56" y="0" letter-spacing="-0.02em">A</tspan><tspan x="42.72" y="0">GE</tspan></text><rect x="365.74" y="227.5" width="136" height="45" fill="#fff"/><path d="M501.24,228v44h-135V228h135m1-1h-137v46h137V227Z"/><text transform="translate(403.76 255)" font-size="12" font-family="MyriadPro-Regular, Myriad Pro"><tspan letter-spacing="-0.04em">L</tspan><tspan x="5.2" y="0" letter-spacing="-0.01em">O</tspan><tspan x="13.3" y="0">AD </tspan><tspan x="31.18" y="0" letter-spacing="0em">C</tspan><tspan x="38.18" y="0" letter-spacing="0em">ARD</tspan></text><rect x="359.08" y="326.5" width="136" height="45" fill="#fff"/><path d="M494.58,327v44h-135V327h135m1-1h-137v46h137V326Z"/><text transform="translate(410.42 354)" font-size="12" font-family="MyriadPro-Regular, Myriad Pro">GUEST</text><rect x="312.5" y="408.5" width="136" height="45" fill="#fff"/><path d="M448,409v44H313V409H448m1-1H312v46H449V408Z"/><text transform="translate(350.51 436)" font-size="12" font-family="MyriadPro-Regular, Myriad Pro">ENTER <tspan x="34.67" y="0" letter-spacing="0em">C</tspan><tspan x="41.68" y="0" letter-spacing="0em">ARD #</tspan></text><rect x="465.15" y="408.5" width="136" height="45" fill="#fff"/><path d="M600.65,409v44h-135V409h135m1-1h-137v46h137V408Z"/><text transform="translate(493.87 436)" font-size="12" font-family="MyriadPro-Regular, Myriad Pro">REGISTER <tspan x="49.76" y="0" letter-spacing="0em">C</tspan><tspan x="56.77" y="0" letter-spacing="0em">ARD</tspan></text><rect x="622.41" y="460.5" width="136" height="45" fill="#fff"/><path d="M757.91,461v44h-135V461h135m1-1h-137v46h137V460Z"/><text transform="translate(666.6 488)" font-size="12" font-family="MyriadPro-Regular, Myriad Pro">BALANCE</text><rect x="622.5" y="526.5" width="146" height="105" fill="#fff"/><path d="M768,527V631H623V527H768m1-1H622V632H769V526Z"/><text transform="translate(658.08 554)" font-size="12" font-family="MyriadPro-Regular, Myriad Pro"><tspan letter-spacing="-0.04em">L</tspan><tspan x="5.2" y="0" letter-spacing="-0.01em">O</tspan><tspan x="13.3" y="0">AD </tspan><tspan x="31.18" y="0" letter-spacing="0em">C</tspan><tspan x="38.18" y="0" letter-spacing="0em">ARD</tspan></text><rect x="527.5" y="684.5" width="158" height="45" fill="#fff"/><path d="M685,685v44H528V685H685m1-1H527v46H686V684Z"/><text transform="translate(541.08 712)" font-size="12" font-family="MyriadPro-Regular, Myriad Pro">GUEST P<tspan x="42.23" y="0" letter-spacing="0em">R</tspan><tspan x="48.72" y="0">OMP</tspan><tspan x="73.02" y="0" letter-spacing="-0.03em">T</tspan><tspan x="78.67" y="0">: REGISTER?</tspan></text><rect x="469.5" y="535.5" width="127" height="43" fill="#fff"/><path d="M596,536v42H470V536H596m1-1H469v44H597V535Z"/><text transform="translate(483.08 563)" font-size="12" font-family="MyriadPro-Regular, Myriad Pro">CRE<tspan x="19.32" y="0" letter-spacing="-0.08em">A</tspan><tspan x="25.74" y="0">TE </tspan><tspan x="40.15" y="0" letter-spacing="-0.02em">A</tspan><tspan x="47.32" y="0" letter-spacing="-0.02em">CC</tspan><tspan x="60.73" y="0">OUNT</tspan></text><rect x="719.78" y="684.5" width="105" height="45" fill="#fff"/><path d="M824.28,685v44h-104V685h104m1-1h-106v46h106V684Z"/><text transform="translate(747.79 712)" font-size="12" font-family="MyriadPro-Regular, Myriad Pro">SIGN OUT</text><rect x="521.82" y="326.5" width="136" height="45" fill="#fff"/><path d="M657.32,327v44h-135V327h135m1-1h-137v46h137V326Z"/><text transform="translate(569.68 354)" font-size="12" font-family="MyriadPro-Regular, Myriad Pro">SIGN IN </text><rect x="742.38" y="326.5" width="136" height="45" fill="#fff"/><path d="M877.88,327v44h-135V327h135m1-1h-137v46h137V326Z"/><text transform="translate(795.12 354)" font-size="12" font-family="MyriadPro-Regular, Myriad Pro"><tspan letter-spacing="-0.08em">F</tspan><tspan x="4.91" y="0">ARES</tspan></text><rect x="1228.5" y="326.5" width="136" height="45" fill="#fff"/><path d="M1364,327v44H1229V327h135m1-1H1228v46h137V326Z"/><text transform="translate(1253.25 354)" font-size="12" font-family="MyriadPro-Regular, Myriad Pro">HELP &amp; <tspan x="38.12" y="0" letter-spacing="-0.02em">C</tspan><tspan x="44.83" y="0">ON</tspan><tspan x="61" y="0" letter-spacing="-0.07em">T</tspan><tspan x="66.06" y="0" letter-spacing="-0.01em">A</tspan><tspan x="73.22" y="0" letter-spacing="0.03em">C</tspan><tspan x="80.52" y="0" letter-spacing="0em">T</tspan></text><rect x="910.71" y="326.5" width="136" height="96" fill="#fff"/><path d="M1046.21,327v95h-135V327h135m1-1h-137v97h137V326Z"/><text transform="translate(948.79 354)" font-size="12" font-family="MyriadPro-Regular, Myriad Pro">SCHEDULES</text><rect x="1069.78" y="326.5" width="136" height="45" fill="#fff"/><path d="M1205.28,327v44h-135V327h135m1-1h-137v46h137V326Z"/><text transform="translate(1111.72 354)" font-size="12" font-family="MyriadPro-Regular, Myriad Pro">BUY <tspan x="23.3" y="0" letter-spacing="0em">C</tspan><tspan x="30.31" y="0" letter-spacing="0em">ARD</tspan></text><rect x="1069.5" y="395.5" width="136" height="45" fill="#fff"/><path d="M1205,396v44H1070V396h135m1-1H1069v46h137V395Z"/><text transform="translate(1086.45 423)" font-size="12" font-family="MyriadPro-Regular, Myriad Pro">C<tspan x="6.96" y="0" letter-spacing="-0.04em">L</tspan><tspan x="12.16" y="0">OSEST R</tspan><tspan x="53.12" y="0" letter-spacing="0.02em">E</tspan><tspan x="59.22" y="0" letter-spacing="-0.07em">T</tspan><tspan x="64.28" y="0" letter-spacing="0em">AILERS</tspan></text><rect x="116.31" y="131.5" width="136" height="45" fill="#fff"/><path d="M251.81,132v44h-135V132h135m1-1h-137v46h137V131Z"/><text transform="translate(168.7 159)" font-size="12" font-family="MyriadPro-Regular, Myriad Pro">MENU</text><rect x="1071.02" y="131.5" width="136" height="45" fill="#fff"/><path d="M1206.52,132v44h-135V132h135m1-1h-137v46h137V131Z"/><text transform="translate(1120.38 159)" font-size="12" font-family="MyriadPro-Regular, Myriad Pro">ALE<tspan x="18.91" y="0" letter-spacing="0.01em">R</tspan><tspan x="25.48" y="0" letter-spacing="-0.01em">T</tspan><tspan x="31.37" y="0">S</tspan></text><rect x="116.31" y="197.5" width="136" height="45" fill="#fff"/><path d="M251.81,198v44h-135V198h135m1-1h-137v46h137V197Z"/><text transform="translate(140.82 225)" font-size="12" font-family="MyriadPro-Regular, Myriad Pro">PLAN A JOURN<tspan x="74.54" y="0" letter-spacing="0em">E</tspan><tspan x="80.48" y="0">Y</tspan></text><rect x="116.31" y="263.5" width="136" height="45" fill="#fff"/><path d="M251.81,264v44h-135V264h135m1-1h-137v46h137V263Z"/><text transform="translate(141.43 291)" font-size="12" font-family="MyriadPro-Regular, Myriad Pro">S<tspan x="5.92" y="0" letter-spacing="-0.07em">T</tspan><tspan x="10.98" y="0" letter-spacing="-0.08em">A</tspan><tspan x="17.4" y="0">TUS UP</tspan><tspan x="53.74" y="0" letter-spacing="-0.01em">D</tspan><tspan x="61.56" y="0" letter-spacing="-0.08em">A</tspan><tspan x="67.98" y="0">TES</tspan></text><rect x="116.31" y="329.5" width="136" height="45" fill="#fff"/><path d="M251.81,330v44h-135V330h135m1-1h-137v46h137V329Z"/><text transform="translate(169.72 357)" font-size="12" font-family="MyriadPro-Regular, Myriad Pro"><tspan letter-spacing="-0.01em">M</tspan><tspan x="9.53" y="0">APS</tspan></text><rect x="116.31" y="395.5" width="136" height="45" fill="#fff"/><path d="M251.81,396v44h-135V396h135m1-1h-137v46h137V395Z"/><text transform="translate(136.17 423)" font-size="12" font-family="MyriadPro-Regular, Myriad Pro"><tspan letter-spacing="-0.08em">F</tspan><tspan x="4.91" y="0">ARES &amp; </tspan><tspan x="42.88" y="0" letter-spacing="-0.08em">P</tspan><tspan x="48.25" y="0" letter-spacing="-0.08em">A</tspan><tspan x="54.65" y="0" letter-spacing="-0.01em">Y</tspan><tspan x="61.02" y="0">MEN</tspan><tspan x="84.47" y="0" letter-spacing="-0.01em">T</tspan><tspan x="90.36" y="0">S</tspan></text><rect x="116.31" y="461.5" width="136" height="45" fill="#fff"/><path d="M251.81,462v44h-135V462h135m1-1h-137v46h137V461Z"/><text transform="translate(130.31 489)" font-size="12" font-family="MyriadPro-Regular, Myriad Pro">VISITING<tspan x="42.83" y="0" letter-spacing="-0.04em"> </tspan><tspan x="44.94" y="0" letter-spacing="-0.06em">V</tspan><tspan x="50.95" y="0">AN</tspan><tspan x="66.19" y="0" letter-spacing="-0.02em">C</tspan><tspan x="72.9" y="0">OUVER</tspan></text><rect x="116.31" y="527.5" width="136" height="45" fill="#fff"/><path d="M251.81,528v44h-135V528h135m1-1h-137v46h137V527Z"/><text transform="translate(141.06 555)" font-size="12" font-family="MyriadPro-Regular, Myriad Pro">HELP &amp; <tspan x="38.12" y="0" letter-spacing="-0.02em">C</tspan><tspan x="44.83" y="0">ON</tspan><tspan x="61" y="0" letter-spacing="-0.07em">T</tspan><tspan x="66.06" y="0" letter-spacing="-0.01em">A</tspan><tspan x="73.22" y="0" letter-spacing="0.03em">C</tspan><tspan x="80.52" y="0" letter-spacing="0em">T</tspan></text><rect x="116.31" y="593.5" width="136" height="45" fill="#fff"/><path d="M251.81,594v44h-135V594h135m1-1h-137v46h137V593Z"/><text transform="translate(165.31 621)" font-size="12" font-family="MyriadPro-Regular, Myriad Pro">SAF<tspan x="19.1" y="0" letter-spacing="0.02em">E</tspan><tspan x="25.2" y="0" letter-spacing="0.03em">T</tspan><tspan x="31.5" y="0">Y</tspan></text><rect x="597.5" y="227.5" width="136" height="45" fill="#fff"/><path d="M733,228v44H598V228H733m1-1H597v46H734V227Z"/><text transform="translate(621.84 255)" font-size="12" font-family="MyriadPro-Regular, Myriad Pro">CHECK BALANCE</text><rect x="831.5" y="227.5" width="136" height="45" fill="#fff"/><path d="M967,228v44H832V228H967m1-1H831v46H968V227Z"/><text transform="translate(867 255)" font-size="12" font-family="MyriadPro-Regular, Myriad Pro">T<tspan x="5.96" y="0" letter-spacing="0em">R</tspan><tspan x="12.48" y="0" letter-spacing="0em">ANSIT INFO</tspan></text><line x1="663.5" y1="176.5" x2="663.5" y2="196.5" fill="none" stroke="#000" stroke-miterlimit="10"/><line x1="435.5" y1="196.5" x2="899.5" y2="196.5" fill="none" stroke="#000" stroke-miterlimit="10"/><line x1="663.5" y1="196.5" x2="663.5" y2="226.5" fill="none" stroke="#000" stroke-miterlimit="10"/><line x1="435.5" y1="196.5" x2="435.5" y2="226.5" fill="none" stroke="#000" stroke-miterlimit="10"/><line x1="899.5" y1="196.5" x2="899.5" y2="226.5" fill="none" stroke="#000" stroke-miterlimit="10"/><line x1="435.5" y1="272.5" x2="435.5" y2="297.5" fill="none" stroke="#000" stroke-miterlimit="10"/><line x1="435.5" y1="297.5" x2="435.5" y2="327.5" fill="none" stroke="#000" stroke-miterlimit="10"/><line x1="435.5" y1="297.5" x2="585.5" y2="297.5" fill="none" stroke="#000" stroke-miterlimit="10"/><line x1="585.5" y1="326.5" x2="585.5" y2="297.5" fill="none" stroke="#000" stroke-miterlimit="10"/><line x1="979.5" y1="327" x2="979.5" y2="298" fill="none" stroke="#000" stroke-miterlimit="10"/><line x1="1296.5" y1="327" x2="1296.5" y2="298" fill="none" stroke="#000" stroke-miterlimit="10"/><line x1="663.5" y1="272.5" x2="663.5" y2="297.5" fill="none" stroke="#000" stroke-miterlimit="10"/><line x1="585.5" y1="297.5" x2="663.5" y2="297.5" fill="none" stroke="#000" stroke-miterlimit="10"/><line x1="594.5" y1="149.5" x2="252.5" y2="149.5" fill="none" stroke="#000" stroke-miterlimit="10"/><line x1="807.5" y1="297.5" x2="1296.5" y2="297.5" fill="none" stroke="#000" stroke-miterlimit="10"/><line x1="899.5" y1="272.5" x2="899.5" y2="297.5" fill="none" stroke="#000" stroke-miterlimit="10"/><line x1="380" y1="388" x2="510" y2="388" fill="none" stroke="#000" stroke-miterlimit="10"/><line x1="431.5" y1="387.5" x2="431.5" y2="371.5" fill="none" stroke="#000" stroke-miterlimit="10"/><line x1="379.5" y1="387.5" x2="379.5" y2="407.5" fill="none" stroke="#000" stroke-miterlimit="10"/><line x1="509.5" y1="387.5" x2="509.5" y2="407.5" fill="none" stroke="#000" stroke-miterlimit="10"/><line x1="585.5" y1="371.5" x2="585.5" y2="384.5" fill="none" stroke="#000" stroke-miterlimit="10"/><line x1="687.5" y1="384.5" x2="585.5" y2="384.5" fill="none" stroke="#000" stroke-miterlimit="10"/><text transform="translate(642 578.52)" font-size="12" font-family="MyriadPro-Regular, Myriad Pro"><tspan letter-spacing="-0.01em">L</tspan><tspan x="5.5" y="0">oad Upass</tspan><tspan x="0" y="14.4" letter-spacing="-0.01em">L</tspan><tspan x="5.5" y="14.4">oad </tspan><tspan x="27.18" y="14.4" letter-spacing="0.01em">M</tspan><tspan x="36.9" y="14.4">o</tspan><tspan x="43.49" y="14.4" letter-spacing="0em">n</tspan><tspan x="50.1" y="14.4">thly </tspan><tspan x="71.76" y="14.4" letter-spacing="-0.03em">P</tspan><tspan x="77.83" y="14.4">ass</tspan><tspan x="0" y="28.8" letter-spacing="-0.01em">A</tspan><tspan x="7.2" y="28.8">dd </tspan><tspan x="23.28" y="28.8" letter-spacing="0em">S</tspan><tspan x="29.16" y="28.8" letter-spacing="-0.01em">t</tspan><tspan x="33.06" y="28.8">o</tspan><tspan x="39.65" y="28.8" letter-spacing="-0.01em">r</tspan><tspan x="43.45" y="28.8">ed</tspan><tspan x="56.23" y="28.8" letter-spacing="-0.04em"> </tspan><tspan x="58.34" y="28.8" letter-spacing="-0.03em">V</tspan><tspan x="64.64" y="28.8">alue</tspan></text><text transform="translate(937 376.52)" font-size="12" font-family="MyriadPro-Regular, Myriad Pro">Bus<tspan x="0" y="14.4">S</tspan><tspan x="5.92" y="14.4" letter-spacing="0.01em">k</tspan><tspan x="11.7" y="14.4">yt</tspan><tspan x="21.32" y="14.4" letter-spacing="-0.01em">r</tspan><tspan x="25.19" y="14.4">ain</tspan><tspan x="0" y="28.8" letter-spacing="0.01em">S</tspan><tspan x="5.99" y="28.8">eabus</tspan></text><line x1="601.5" y1="658.5" x2="601.5" y2="683.5" fill="none" stroke="#000" stroke-miterlimit="10"/><line x1="768.5" y1="659" x2="768.5" y2="684" fill="none" stroke="#000" stroke-miterlimit="10"/><line x1="541.5" y1="453.5" x2="541.5" y2="534.5" fill="none" stroke="#f47a7a" stroke-miterlimit="10"/><line x1="541.5" y1="584.54" x2="541.5" y2="683.5" fill="none" stroke="#000" stroke-miterlimit="10"/><path d="M541.5,578.5a30.22,30.22,0,0,1-4.76,8.55l4.76-1.72,4.75,1.72A30.2,30.2,0,0,1,541.5,578.5Z"/><line x1="636.5" y1="371.5" x2="585.5" y2="534.5" fill="none" stroke="#f47a7a" stroke-miterlimit="10"/><polygon points="284.5 114.5 284.5 762.5 878.5 762.5 878.5 409.5 719.5 409.5 719.5 289.5 772.5 289.5 772.5 107.5 284.5 107.5 284.5 114.5" fill="#b8e6f4" stroke="#62abb7" stroke-miterlimit="10" stroke-width="2" opacity="0.33"/><text transform="translate(406.02 68)" font-size="36" font-family="Roboto-Bold, Roboto" font-weight="700">P<tspan x="23.22" y="0" letter-spacing="-0.02em">r</tspan><tspan x="35.72" y="0">oposed A</tspan><tspan x="188.14" y="0" letter-spacing="-0.01em">r</tspan><tspan x="200.94" y="0">ea for Redesign (Blue Highlight)</tspan></text></svg>