<svg xmlns="http://www.w3.org/2000/svg" viewBox="0 0 920 667"><title>compass-header-crop</title><g id="4d39ffcf-afee-4dc8-bceb-baaafc34b03d" data-name="Layer 2"><rect y="0.5" width="920" height="667" fill="#009ddc"/></g><g id="86286f47-4212-4f5c-99fd-72b8c751c617" data-name="Layer 1"><path d="M264.16,67.14c.15,8.9-3,16.24-8.47,22.71q-10.81,12.68-21.5,25.46c-2.25,2.67-2.56,2.82-4.77.27-5.38-6.2-10.6-12.53-15.94-18.76-3.29-3.84-6.77-7.53-9.57-11.77a29.73,29.73,0,0,1-5.11-17.33c.31-10.12,4-19,12.35-25.43a32,32,0,0,1,25-6.75c13.06,1.84,21.3,9.55,26.2,21.22A23.23,23.23,0,0,1,264.16,67.14Z" fill="#00a7e3"/><path d="M232.59,92.59a24,24,0,0,1-24.65-18.23c-2.53-9.73.66-19.32,9.16-26.08,5.8-4.61,12.4-5.14,19.28-4.63,7.54.56,17.59,9.55,19.18,16.93.28,1.3,0,2.09-1.6,2q-3.62-.09-7.25,0a2.45,2.45,0,0,1-2.36-1.48,14.65,14.65,0,0,0-12-7.4c-5-.39-11.41,3.22-13.74,9.22a14.21,14.21,0,0,0,24.81,13.38A4.73,4.73,0,0,1,248,74.08c1.74.13,3.5,0,5.25,0,2.38,0,2.71.52,1.82,2.66-3.13,7.55-8.39,12.62-16.37,15.05A30.09,30.09,0,0,1,232.59,92.59Z" fill="#009cdb"/><path d="M120.47,82.76c.86,13.51-9.87,26.14-21.45,29.91-12.63,4.11-23.85,1.91-33.66-7.33-8-7.52-10.83-16.88-9.82-27.4.64-6.66,3.7-12.59,8.05-17.75q8-9.49,16.06-19c2.25-2.65,4.57-5.25,6.8-7.92,1.08-1.3,1.93-1.2,3,0,3.51,4.09,7.12,8.09,10.6,12.19,4.07,4.8,7.94,9.78,12.11,14.48A31.28,31.28,0,0,1,120.47,82.76Z" fill="#00a7e3"/><path d="M106.7,76.61c-1,0-2-.07-3,0a3.43,3.43,0,0,1-3.49-1.81,13.28,13.28,0,0,0-12.35-6.42c-6.46.24-10.7,3.58-13,9.45-2.6,6.58,2,15.5,8.52,17.93s14.28-.58,17.14-6.17c.48-.94,1.24-1,2.09-1,2.67,0,5.33,0,8,0,1.61,0,1.75.41,1.2,1.89-3,8.1-8.66,13.83-16.84,15.84C84,109,73.5,106,66.69,94.39c-7-11.94-2-26.64,8.62-33,5-3,10.41-4.59,16.1-3.69,10.25,1.63,17.17,7.62,20.73,17.42.37,1,0,1.44-.94,1.45-1.5,0-3,0-4.5,0Z" fill="#009cdb"/><path d="M559.16,67.14c.15,8.9-3,16.24-8.47,22.71q-10.81,12.68-21.5,25.46c-2.25,2.67-2.56,2.82-4.77.27-5.38-6.2-10.6-12.53-15.94-18.76-3.29-3.84-6.77-7.53-9.57-11.77a29.73,29.73,0,0,1-5.11-17.33c.31-10.12,4-19,12.35-25.43a32,32,0,0,1,25-6.75c13.06,1.84,21.3,9.55,26.2,21.22A23.23,23.23,0,0,1,559.16,67.14Z" fill="#00a7e3"/><path d="M527.59,92.59a24,24,0,0,1-24.65-18.23c-2.53-9.73.66-19.32,9.16-26.08,5.8-4.61,12.4-5.14,19.28-4.63,7.54.56,17.59,9.55,19.18,16.93.28,1.3,0,2.09-1.6,2q-3.62-.09-7.25,0a2.45,2.45,0,0,1-2.36-1.48,14.65,14.65,0,0,0-12-7.4c-5-.39-11.41,3.22-13.74,9.22a14.21,14.21,0,0,0,24.81,13.38A4.73,4.73,0,0,1,543,74.08c1.74.13,3.5,0,5.25,0,2.38,0,2.71.52,1.82,2.66-3.13,7.55-8.39,12.62-16.37,15.05A30.09,30.09,0,0,1,527.59,92.59Z" fill="#009cdb"/><path d="M415.47,82.76c.86,13.51-9.87,26.14-21.45,29.91-12.63,4.11-23.85,1.91-33.66-7.33-8-7.52-10.83-16.88-9.82-27.4.64-6.66,3.7-12.59,8.05-17.75q8-9.49,16.06-19c2.25-2.65,4.57-5.25,6.8-7.92,1.08-1.3,1.93-1.2,3,0,3.51,4.09,7.12,8.09,10.6,12.19,4.07,4.8,7.94,9.78,12.11,14.48A31.28,31.28,0,0,1,415.47,82.76Z" fill="#00a7e3"/><path d="M401.7,76.61c-1,0-2-.07-3,0a3.43,3.43,0,0,1-3.49-1.81,13.28,13.28,0,0,0-12.35-6.42c-6.46.24-10.7,3.58-13,9.45-2.6,6.58,2,15.5,8.52,17.93s14.28-.58,17.14-6.17c.48-.94,1.24-1,2.09-1,2.67,0,5.33,0,8,0,1.61,0,1.75.41,1.2,1.89-3,8.1-8.66,13.83-16.84,15.84C379,109,368.5,106,361.69,94.39c-7-11.94-2-26.64,8.62-33,5-3,10.41-4.59,16.1-3.69,10.25,1.63,17.17,7.62,20.73,17.42.37,1,0,1.44-.94,1.45-1.5,0-3,0-4.5,0Z" fill="#009cdb"/><path d="M854.16,67.14c.15,8.9-3,16.24-8.47,22.71q-10.81,12.68-21.5,25.46c-2.25,2.67-2.56,2.82-4.77.27-5.38-6.2-10.6-12.53-15.94-18.76-3.29-3.84-6.77-7.53-9.57-11.77a29.73,29.73,0,0,1-5.11-17.33c.31-10.12,4-19,12.35-25.43a32,32,0,0,1,25-6.75c13.06,1.84,21.3,9.55,26.2,21.22A23.23,23.23,0,0,1,854.16,67.14Z" fill="#00a7e3"/><path d="M822.59,92.59a24,24,0,0,1-24.65-18.23c-2.53-9.73.66-19.32,9.16-26.08,5.8-4.61,12.4-5.14,19.28-4.63,7.54.56,17.59,9.55,19.18,16.93.28,1.3,0,2.09-1.6,2q-3.62-.09-7.25,0a2.45,2.45,0,0,1-2.36-1.48,14.65,14.65,0,0,0-12-7.4c-5-.39-11.41,3.22-13.74,9.22a14.21,14.21,0,0,0,24.81,13.38A4.73,4.73,0,0,1,838,74.08c1.74.13,3.5,0,5.25,0,2.38,0,2.71.52,1.82,2.66-3.13,7.55-8.39,12.62-16.37,15.05A30.09,30.09,0,0,1,822.59,92.59Z" fill="#009cdb"/><path d="M710.47,82.76c.86,13.51-9.87,26.14-21.45,29.91-12.63,4.11-23.85,1.91-33.66-7.33-8-7.52-10.83-16.88-9.82-27.4.64-6.66,3.7-12.59,8.05-17.75q8-9.49,16.06-19c2.25-2.65,4.57-5.25,6.8-7.92,1.08-1.3,1.93-1.2,3,0,3.51,4.09,7.12,8.09,10.6,12.19,4.07,4.8,7.94,9.78,12.11,14.48A31.28,31.28,0,0,1,710.47,82.76Z" fill="#00a7e3"/><path d="M696.7,76.61c-1,0-2-.07-3,0a3.43,3.43,0,0,1-3.49-1.81,13.28,13.28,0,0,0-12.35-6.42c-6.46.24-10.7,3.58-13,9.45-2.6,6.58,2,15.5,8.52,17.93s14.28-.58,17.14-6.17c.48-.94,1.24-1,2.09-1,2.67,0,5.33,0,8,0,1.61,0,1.75.41,1.2,1.89-3,8.1-8.66,13.83-16.84,15.84C674,109,663.5,106,656.69,94.39c-7-11.94-2-26.64,8.62-33,5-3,10.41-4.59,16.1-3.69,10.25,1.63,17.17,7.62,20.73,17.42.37,1,0,1.44-.94,1.45-1.5,0-3,0-4.5,0Z" fill="#009cdb"/><path d="M325,277.67c-8.9.15-16.24-3-22.71-8.47q-12.68-10.81-25.46-21.5c-2.67-2.25-2.82-2.56-.27-4.77,6.2-5.38,12.53-10.6,18.76-15.94,3.84-3.29,7.53-6.77,11.77-9.57a29.73,29.73,0,0,1,17.33-5.11c10.12.31,19,4,25.43,12.35a32,32,0,0,1,6.75,25c-1.84,13.06-9.55,21.3-21.22,26.2A23.23,23.23,0,0,1,325,277.67Z" fill="#00a7e3"/><path d="M299.51,246.1a24,24,0,0,1,18.23-24.65c9.73-2.53,19.32.66,26.08,9.16,4.61,5.8,5.14,12.4,4.63,19.28-.56,7.54-9.55,17.59-16.93,19.18-1.3.28-2.09,0-2-1.6q.09-3.62,0-7.25a2.45,2.45,0,0,1,1.48-2.36,14.65,14.65,0,0,0,7.4-12c.39-5-3.22-11.41-9.22-13.74A14.21,14.21,0,0,0,315.74,257a4.73,4.73,0,0,1,2.27,4.57c-.13,1.74,0,3.5,0,5.25,0,2.38-.52,2.71-2.66,1.82-7.55-3.13-12.62-8.39-15.05-16.37A30.09,30.09,0,0,1,299.51,246.1Z" fill="#009cdb"/><path d="M163,274.77c-13.51.86-26.14-9.87-29.91-21.45-4.11-12.63-1.91-23.85,7.33-33.66,7.52-8,16.88-10.83,27.4-9.82,6.66.64,12.59,3.7,17.75,8.05q9.49,8,19,16.06c2.65,2.25,5.25,4.57,7.92,6.8,1.3,1.08,1.2,1.93,0,3-4.09,3.51-8.09,7.12-12.19,10.6-4.8,4.07-9.78,7.94-14.48,12.11A31.28,31.28,0,0,1,163,274.77Z" fill="#00a7e3"/><path d="M169.14,261c0-1,.07-2,0-3a3.43,3.43,0,0,1,1.81-3.49,13.28,13.28,0,0,0,6.42-12.35c-.24-6.46-3.58-10.7-9.45-13-6.58-2.6-15.5,2-17.93,8.52s.58,14.28,6.17,17.14c.94.48,1,1.24,1,2.09,0,2.67,0,5.33,0,8,0,1.61-.41,1.75-1.89,1.2-8.1-3-13.83-8.66-15.84-16.84-2.69-11,.28-21.46,11.92-28.27,11.94-7,26.64-2,33,8.62,3,5,4.59,10.41,3.69,16.1-1.63,10.25-7.62,17.17-17.42,20.73-1,.37-1.44,0-1.45-.94,0-1.5,0-3,0-4.5Z" fill="#009cdb"/><path d="M620,277.67c-8.9.15-16.24-3-22.71-8.47q-12.68-10.81-25.46-21.5c-2.67-2.25-2.82-2.56-.27-4.77,6.2-5.38,12.53-10.6,18.76-15.94,3.84-3.29,7.53-6.77,11.77-9.57a29.73,29.73,0,0,1,17.33-5.11c10.12.31,19,4,25.43,12.35a32,32,0,0,1,6.75,25c-1.84,13.06-9.55,21.3-21.22,26.2A23.23,23.23,0,0,1,620,277.67Z" fill="#00a7e3"/><path d="M594.51,246.1a24,24,0,0,1,18.23-24.65c9.73-2.53,19.32.66,26.08,9.16,4.61,5.8,5.14,12.4,4.63,19.28-.56,7.54-9.55,17.59-16.93,19.18-1.3.28-2.09,0-2-1.6q.09-3.62,0-7.25a2.45,2.45,0,0,1,1.48-2.36,14.65,14.65,0,0,0,7.4-12c.39-5-3.22-11.41-9.22-13.74A14.21,14.21,0,0,0,610.74,257a4.73,4.73,0,0,1,2.27,4.57c-.13,1.74,0,3.5,0,5.25,0,2.38-.52,2.71-2.66,1.82-7.55-3.13-12.62-8.39-15.05-16.37A30.09,30.09,0,0,1,594.51,246.1Z" fill="#009cdb"/><path d="M458,274.77c-13.51.86-26.14-9.87-29.91-21.45-4.11-12.63-1.91-23.85,7.33-33.66,7.52-8,16.88-10.83,27.4-9.82,6.66.64,12.59,3.7,17.75,8.05q9.49,8,19,16.06c2.65,2.25,5.25,4.57,7.92,6.8,1.3,1.08,1.2,1.93,0,3-4.09,3.51-8.09,7.12-12.19,10.6-4.8,4.07-9.78,7.94-14.48,12.11A31.28,31.28,0,0,1,458,274.77Z" fill="#00a7e3"/><path d="M464.14,261c0-1,.07-2,0-3a3.43,3.43,0,0,1,1.81-3.49,13.28,13.28,0,0,0,6.42-12.35c-.24-6.46-3.58-10.7-9.45-13-6.58-2.6-15.5,2-17.93,8.52s.58,14.28,6.17,17.14c.94.48,1,1.24,1,2.09,0,2.67,0,5.33,0,8,0,1.61-.41,1.75-1.89,1.2-8.1-3-13.83-8.66-15.84-16.84-2.69-11,.28-21.46,11.92-28.27,11.94-7,26.64-2,33,8.62,3,5,4.59,10.41,3.69,16.1-1.63,10.25-7.62,17.17-17.42,20.73-1,.37-1.44,0-1.45-.94,0-1.5,0-3,0-4.5Z" fill="#009cdb"/><path d="M915,277.67c-8.9.15-16.24-3-22.71-8.47q-12.68-10.81-25.46-21.5c-2.67-2.25-2.82-2.56-.27-4.77,6.2-5.38,12.53-10.6,18.76-15.94,3.84-3.29,7.53-6.77,11.77-9.57a29.73,29.73,0,0,1,17.33-5.11c10.12.31,19,4,25.43,12.35a32,32,0,0,1,6.75,25c-1.84,13.06-9.55,21.3-21.22,26.2A23.23,23.23,0,0,1,915,277.67Z" fill="#00a7e3"/><path d="M889.51,246.1a24,24,0,0,1,18.23-24.65c9.73-2.53,19.32.66,26.08,9.16,4.61,5.8,5.14,12.4,4.63,19.28-.56,7.54-9.55,17.59-16.93,19.18-1.3.28-2.09,0-2-1.6q.09-3.62,0-7.25a2.45,2.45,0,0,1,1.48-2.36,14.65,14.65,0,0,0,7.4-12c.39-5-3.22-11.41-9.22-13.74A14.21,14.21,0,0,0,905.74,257a4.73,4.73,0,0,1,2.27,4.57c-.13,1.74,0,3.5,0,5.25,0,2.38-.52,2.71-2.66,1.82-7.55-3.13-12.62-8.39-15.05-16.37A30.09,30.09,0,0,1,889.51,246.1Z" fill="#009cdb"/><path d="M20.68,278.41c-8.87-.73-15.87-4.55-21.76-10.67q-11.55-12-23.21-23.91c-2.44-2.5-2.55-2.83.21-4.77,6.7-4.74,13.52-9.31,20.24-14,4.15-2.9,8.16-6,12.66-8.35a29.73,29.73,0,0,1,17.75-3.37c10,1.31,18.51,5.84,24.08,14.8a32,32,0,0,1,4.24,25.55c-3.13,12.82-11.61,20.25-23.71,24A23.23,23.23,0,0,1,20.68,278.41Z" fill="#00a7e3"/><path d="M-1.52,244.48a24,24,0,0,1,20.58-22.73c9.93-1.55,19.16,2.56,25,11.7,4,6.23,3.88,12.85,2.7,19.65-1.3,7.44-11.25,16.56-18.74,17.41-1.32.15-2.07-.25-1.88-1.79q.45-3.59.71-7.21a2.45,2.45,0,0,1,1.71-2.2,14.65,14.65,0,0,0,8.55-11.2c.88-4.95-2.07-11.67-7.82-14.58a14.21,14.21,0,0,0-15.77,23.36,4.73,4.73,0,0,1,1.81,4.77c-.3,1.72-.34,3.48-.55,5.22-.29,2.37-.79,2.64-2.83,1.55-7.2-3.86-11.73-9.6-13.36-17.78A30.09,30.09,0,0,1-1.52,244.48Z" fill="#009cdb"/><path d="M753,274.77c-13.51.86-26.14-9.87-29.91-21.45-4.11-12.63-1.91-23.85,7.33-33.66,7.52-8,16.88-10.83,27.4-9.82,6.66.64,12.59,3.7,17.75,8.05q9.49,8,19,16.06c2.65,2.25,5.25,4.57,7.92,6.8,1.3,1.08,1.2,1.93,0,3-4.09,3.51-8.09,7.12-12.19,10.6-4.8,4.07-9.78,7.94-14.48,12.11A31.28,31.28,0,0,1,753,274.77Z" fill="#00a7e3"/><path d="M759.14,261c0-1,.07-2,0-3a3.43,3.43,0,0,1,1.81-3.49,13.28,13.28,0,0,0,6.42-12.35c-.24-6.46-3.58-10.7-9.45-13-6.58-2.6-15.5,2-17.93,8.52s.58,14.28,6.17,17.14c.94.48,1,1.24,1,2.09,0,2.67,0,5.33,0,8,0,1.61-.41,1.75-1.89,1.2-8.1-3-13.83-8.66-15.84-16.84-2.69-11,.28-21.46,11.92-28.27,11.94-7,26.64-2,33,8.62,3,5,4.59,10.41,3.69,16.1-1.63,10.25-7.62,17.17-17.42,20.73-1,.37-1.44,0-1.45-.94,0-1.5,0-3,0-4.5Z" fill="#009cdb"/><path d="M325,616.67c-8.9.15-16.24-3-22.71-8.47q-12.68-10.81-25.46-21.5c-2.67-2.25-2.82-2.56-.27-4.77,6.2-5.38,12.53-10.6,18.76-15.94,3.84-3.29,7.53-6.77,11.77-9.57a29.73,29.73,0,0,1,17.33-5.11c10.12.31,19,4,25.43,12.35a32,32,0,0,1,6.75,25c-1.84,13.06-9.55,21.3-21.22,26.2A23.23,23.23,0,0,1,325,616.67Z" fill="#00a7e3"/><path d="M299.51,585.1a24,24,0,0,1,18.23-24.65c9.73-2.53,19.32.66,26.08,9.16,4.61,5.8,5.14,12.4,4.63,19.28-.56,7.54-9.55,17.59-16.93,19.18-1.3.28-2.09,0-2-1.6q.09-3.62,0-7.25a2.45,2.45,0,0,1,1.48-2.36,14.65,14.65,0,0,0,7.4-12c.39-5-3.22-11.41-9.22-13.74A14.21,14.21,0,0,0,315.74,596a4.73,4.73,0,0,1,2.27,4.57c-.13,1.74,0,3.5,0,5.25,0,2.38-.52,2.71-2.66,1.82-7.55-3.13-12.62-8.39-15.05-16.37A30.09,30.09,0,0,1,299.51,585.1Z" fill="#009cdb"/><path d="M163,613.77c-13.51.86-26.14-9.87-29.91-21.45-4.11-12.63-1.91-23.85,7.33-33.66,7.52-8,16.88-10.83,27.4-9.82,6.66.64,12.59,3.7,17.75,8.05q9.49,8,19,16.06c2.65,2.25,5.25,4.57,7.92,6.8,1.3,1.08,1.2,1.93,0,3-4.09,3.51-8.09,7.12-12.19,10.6-4.8,4.07-9.78,7.94-14.48,12.11A31.28,31.28,0,0,1,163,613.77Z" fill="#00a7e3"/><path d="M169.14,600c0-1,.07-2,0-3a3.43,3.43,0,0,1,1.81-3.49,13.28,13.28,0,0,0,6.42-12.35c-.24-6.46-3.58-10.7-9.45-13-6.58-2.6-15.5,2-17.93,8.52s.58,14.28,6.17,17.14c.94.48,1,1.24,1,2.09,0,2.67,0,5.33,0,8,0,1.61-.41,1.75-1.89,1.2-8.1-3-13.83-8.66-15.84-16.84-2.69-11,.28-21.46,11.92-28.27,11.94-7,26.64-2,33,8.62,3,5,4.59,10.41,3.69,16.1-1.63,10.25-7.62,17.17-17.42,20.73-1,.37-1.44,0-1.45-.94,0-1.5,0-3,0-4.5Z" fill="#009cdb"/><path d="M620,616.67c-8.9.15-16.24-3-22.71-8.47q-12.68-10.81-25.46-21.5c-2.67-2.25-2.82-2.56-.27-4.77,6.2-5.38,12.53-10.6,18.76-15.94,3.84-3.29,7.53-6.77,11.77-9.57a29.73,29.73,0,0,1,17.33-5.11c10.12.31,19,4,25.43,12.35a32,32,0,0,1,6.75,25c-1.84,13.06-9.55,21.3-21.22,26.2A23.23,23.23,0,0,1,620,616.67Z" fill="#00a7e3"/><path d="M594.51,585.1a24,24,0,0,1,18.23-24.65c9.73-2.53,19.32.66,26.08,9.16,4.61,5.8,5.14,12.4,4.63,19.28-.56,7.54-9.55,17.59-16.93,19.18-1.3.28-2.09,0-2-1.6q.09-3.62,0-7.25a2.45,2.45,0,0,1,1.48-2.36,14.65,14.65,0,0,0,7.4-12c.39-5-3.22-11.41-9.22-13.74A14.21,14.21,0,0,0,610.74,596a4.73,4.73,0,0,1,2.27,4.57c-.13,1.74,0,3.5,0,5.25,0,2.38-.52,2.71-2.66,1.82-7.55-3.13-12.62-8.39-15.05-16.37A30.09,30.09,0,0,1,594.51,585.1Z" fill="#009cdb"/><path d="M458,613.77c-13.51.86-26.14-9.87-29.91-21.45-4.11-12.63-1.91-23.85,7.33-33.66,7.52-8,16.88-10.83,27.4-9.82,6.66.64,12.59,3.7,17.75,8.05q9.49,8,19,16.06c2.65,2.25,5.25,4.57,7.92,6.8,1.3,1.08,1.2,1.93,0,3-4.09,3.51-8.09,7.12-12.19,10.6-4.8,4.07-9.78,7.94-14.48,12.11A31.28,31.28,0,0,1,458,613.77Z" fill="#00a7e3"/><path d="M464.14,600c0-1,.07-2,0-3a3.43,3.43,0,0,1,1.81-3.49,13.28,13.28,0,0,0,6.42-12.35c-.24-6.46-3.58-10.7-9.45-13-6.58-2.6-15.5,2-17.93,8.52s.58,14.28,6.17,17.14c.94.48,1,1.24,1,2.09,0,2.67,0,5.33,0,8,0,1.61-.41,1.75-1.89,1.2-8.1-3-13.83-8.66-15.84-16.84-2.69-11,.28-21.46,11.92-28.27,11.94-7,26.64-2,33,8.62,3,5,4.59,10.41,3.69,16.1-1.63,10.25-7.62,17.17-17.42,20.73-1,.37-1.44,0-1.45-.94,0-1.5,0-3,0-4.5Z" fill="#009cdb"/><path d="M915,616.67c-8.9.15-16.24-3-22.71-8.47q-12.68-10.81-25.46-21.5c-2.67-2.25-2.82-2.56-.27-4.77,6.2-5.38,12.53-10.6,18.76-15.94,3.84-3.29,7.53-6.77,11.77-9.57a29.73,29.73,0,0,1,17.33-5.11c10.12.31,19,4,25.43,12.35a32,32,0,0,1,6.75,25c-1.84,13.06-9.55,21.3-21.22,26.2A23.23,23.23,0,0,1,915,616.67Z" fill="#00a7e3"/><path d="M889.51,585.1a24,24,0,0,1,18.23-24.65c9.73-2.53,19.32.66,26.08,9.16,4.61,5.8,5.14,12.4,4.63,19.28-.56,7.54-9.55,17.59-16.93,19.18-1.3.28-2.09,0-2-1.6q.09-3.62,0-7.25a2.45,2.45,0,0,1,1.48-2.36,14.65,14.65,0,0,0,7.4-12c.39-5-3.22-11.41-9.22-13.74A14.21,14.21,0,0,0,905.74,596a4.73,4.73,0,0,1,2.27,4.57c-.13,1.74,0,3.5,0,5.25,0,2.38-.52,2.71-2.66,1.82-7.55-3.13-12.62-8.39-15.05-16.37A30.09,30.09,0,0,1,889.51,585.1Z" fill="#009cdb"/><path d="M20.68,617.41c-8.87-.73-15.87-4.55-21.76-10.67q-11.55-12-23.21-23.91c-2.44-2.5-2.55-2.83.21-4.77,6.7-4.74,13.52-9.31,20.24-14,4.15-2.9,8.16-6,12.66-8.35a29.73,29.73,0,0,1,17.75-3.37c10,1.31,18.51,5.84,24.08,14.8a32,32,0,0,1,4.24,25.55c-3.13,12.82-11.61,20.25-23.71,24A23.23,23.23,0,0,1,20.68,617.41Z" fill="#00a7e3"/><path d="M-1.52,583.48a24,24,0,0,1,20.58-22.73c9.93-1.55,19.16,2.56,25,11.7,4,6.23,3.88,12.85,2.7,19.65-1.3,7.44-11.25,16.56-18.74,17.41-1.32.15-2.07-.25-1.88-1.79q.45-3.59.71-7.21a2.45,2.45,0,0,1,1.71-2.2,14.65,14.65,0,0,0,8.55-11.2c.88-4.95-2.07-11.67-7.82-14.58a14.21,14.21,0,0,0-15.77,23.36,4.73,4.73,0,0,1,1.81,4.77c-.3,1.72-.34,3.48-.55,5.22-.29,2.37-.79,2.64-2.83,1.55-7.2-3.86-11.73-9.6-13.36-17.78A30.09,30.09,0,0,1-1.52,583.48Z" fill="#009cdb"/><path d="M753,613.77c-13.51.86-26.14-9.87-29.91-21.45-4.11-12.63-1.91-23.85,7.33-33.66,7.52-8,16.88-10.83,27.4-9.82,6.66.64,12.59,3.7,17.75,8.05q9.49,8,19,16.06c2.65,2.25,5.25,4.57,7.92,6.8,1.3,1.08,1.2,1.93,0,3-4.09,3.51-8.09,7.12-12.19,10.6-4.8,4.07-9.78,7.94-14.48,12.11A31.28,31.28,0,0,1,753,613.77Z" fill="#00a7e3"/><path d="M759.14,600c0-1,.07-2,0-3a3.43,3.43,0,0,1,1.81-3.49,13.28,13.28,0,0,0,6.42-12.35c-.24-6.46-3.58-10.7-9.45-13-6.58-2.6-15.5,2-17.93,8.52s.58,14.28,6.17,17.14c.94.48,1,1.24,1,2.09,0,2.67,0,5.33,0,8,0,1.61-.41,1.75-1.89,1.2-8.1-3-13.83-8.66-15.84-16.84-2.69-11,.28-21.46,11.92-28.27,11.94-7,26.64-2,33,8.62,3,5,4.59,10.41,3.69,16.1-1.63,10.25-7.62,17.17-17.42,20.73-1,.37-1.44,0-1.45-.94,0-1.5,0-3,0-4.5Z" fill="#009cdb"/><path d="M264.76,405.14c.15,8.9-3,16.24-8.47,22.71q-10.81,12.68-21.5,25.46c-2.25,2.67-2.56,2.82-4.77.27-5.38-6.2-10.6-12.53-15.94-18.76-3.29-3.84-6.77-7.53-9.57-11.77a29.73,29.73,0,0,1-5.11-17.33c.31-10.12,4-19,12.35-25.43a32,32,0,0,1,25-6.75c13.06,1.84,21.3,9.55,26.2,21.22A23.23,23.23,0,0,1,264.76,405.14Z" fill="#00a7e3"/><path d="M233.2,430.59a24,24,0,0,1-24.65-18.23c-2.53-9.73.66-19.32,9.16-26.08,5.8-4.61,12.4-5.14,19.28-4.63,7.54.56,17.59,9.55,19.18,16.93.28,1.3,0,2.09-1.6,2q-3.62-.09-7.25,0a2.45,2.45,0,0,1-2.36-1.48,14.65,14.65,0,0,0-12-7.4c-5-.39-11.41,3.22-13.74,9.22A14.21,14.21,0,0,0,244,414.35a4.73,4.73,0,0,1,4.57-2.27c1.74.13,3.5,0,5.25,0,2.38,0,2.71.52,1.82,2.66-3.13,7.55-8.39,12.62-16.37,15.05A30.09,30.09,0,0,1,233.2,430.59Z" fill="#009cdb"/><path d="M121.07,420.76c.86,13.51-9.87,26.14-21.45,29.91C87,454.78,75.77,452.58,66,443.34c-8-7.52-10.83-16.88-9.82-27.4.64-6.66,3.7-12.59,8.05-17.75q8-9.49,16.06-19c2.25-2.65,4.57-5.25,6.8-7.92,1.08-1.3,1.93-1.2,3,0,3.51,4.09,7.12,8.09,10.6,12.19,4.07,4.8,7.94,9.78,12.11,14.48A31.28,31.28,0,0,1,121.07,420.76Z" fill="#00a7e3"/><path d="M107.3,414.61c-1,0-2-.07-3,0a3.43,3.43,0,0,1-3.49-1.81,13.28,13.28,0,0,0-12.35-6.42c-6.46.24-10.7,3.58-13,9.45-2.6,6.58,2,15.5,8.52,17.93s14.28-.58,17.14-6.17c.48-.94,1.24-1,2.09-1,2.67,0,5.33,0,8,0,1.61,0,1.75.41,1.2,1.89-3,8.1-8.66,13.83-16.84,15.84-11,2.69-21.46-.28-28.27-11.92-7-11.94-2-26.64,8.62-33,5-3,10.41-4.59,16.1-3.69,10.25,1.63,17.17,7.62,20.73,17.42.37,1,0,1.44-.94,1.45-1.5,0-3,0-4.5,0Z" fill="#009cdb"/><path d="M559.76,405.14c.15,8.9-3,16.24-8.47,22.71q-10.81,12.68-21.5,25.46c-2.25,2.67-2.56,2.82-4.77.27-5.38-6.2-10.6-12.53-15.94-18.76-3.29-3.84-6.77-7.53-9.57-11.77a29.73,29.73,0,0,1-5.11-17.33c.31-10.12,4-19,12.35-25.43a32,32,0,0,1,25-6.75c13.06,1.84,21.3,9.55,26.2,21.22A23.23,23.23,0,0,1,559.76,405.14Z" fill="#00a7e3"/><path d="M528.2,430.59a24,24,0,0,1-24.65-18.23c-2.53-9.73.66-19.32,9.16-26.08,5.8-4.61,12.4-5.14,19.28-4.63,7.54.56,17.59,9.55,19.18,16.93.28,1.3,0,2.09-1.6,2q-3.62-.09-7.25,0a2.45,2.45,0,0,1-2.36-1.48,14.65,14.65,0,0,0-12-7.4c-5-.39-11.41,3.22-13.74,9.22A14.21,14.21,0,0,0,539,414.35a4.73,4.73,0,0,1,4.57-2.27c1.74.13,3.5,0,5.25,0,2.38,0,2.71.52,1.82,2.66-3.13,7.55-8.39,12.62-16.37,15.05A30.09,30.09,0,0,1,528.2,430.59Z" fill="#009cdb"/><path d="M416.07,420.76c.86,13.51-9.87,26.14-21.45,29.91-12.63,4.11-23.85,1.91-33.66-7.33-8-7.52-10.83-16.88-9.82-27.4.64-6.66,3.7-12.59,8.05-17.75q8-9.49,16.06-19c2.25-2.65,4.57-5.25,6.8-7.92,1.08-1.3,1.93-1.2,3,0,3.51,4.09,7.12,8.09,10.6,12.19,4.07,4.8,7.94,9.78,12.11,14.48A31.28,31.28,0,0,1,416.07,420.76Z" fill="#00a7e3"/><path d="M402.3,414.61c-1,0-2-.07-3,0a3.43,3.43,0,0,1-3.49-1.81,13.28,13.28,0,0,0-12.35-6.42c-6.46.24-10.7,3.58-13,9.45-2.6,6.58,2,15.5,8.52,17.93s14.28-.58,17.14-6.17c.48-.94,1.24-1,2.09-1,2.67,0,5.33,0,8,0,1.61,0,1.75.41,1.2,1.89-3,8.1-8.66,13.83-16.84,15.84-11,2.69-21.46-.28-28.27-11.92-7-11.94-2-26.64,8.62-33,5-3,10.41-4.59,16.1-3.69,10.25,1.63,17.17,7.62,20.73,17.42.37,1,0,1.44-.94,1.45-1.5,0-3,0-4.5,0Z" fill="#009cdb"/><path d="M854.76,405.14c.15,8.9-3,16.24-8.47,22.71q-10.81,12.68-21.5,25.46c-2.25,2.67-2.56,2.82-4.77.27-5.38-6.2-10.6-12.53-15.94-18.76-3.29-3.84-6.77-7.53-9.57-11.77a29.73,29.73,0,0,1-5.11-17.33c.31-10.12,4-19,12.35-25.43a32,32,0,0,1,25-6.75c13.06,1.84,21.3,9.55,26.2,21.22A23.23,23.23,0,0,1,854.76,405.14Z" fill="#00a7e3"/><path d="M823.2,430.59a24,24,0,0,1-24.65-18.23c-2.53-9.73.66-19.32,9.16-26.08,5.8-4.61,12.4-5.14,19.28-4.63,7.54.56,17.59,9.55,19.18,16.93.28,1.3,0,2.09-1.6,2q-3.62-.09-7.25,0a2.45,2.45,0,0,1-2.36-1.48,14.65,14.65,0,0,0-12-7.4c-5-.39-11.41,3.22-13.74,9.22A14.21,14.21,0,0,0,834,414.35a4.73,4.73,0,0,1,4.57-2.27c1.74.13,3.5,0,5.25,0,2.38,0,2.71.52,1.82,2.66-3.13,7.55-8.39,12.62-16.37,15.05A30.09,30.09,0,0,1,823.2,430.59Z" fill="#009cdb"/><path d="M711.07,420.76c.86,13.51-9.87,26.14-21.45,29.91-12.63,4.11-23.85,1.91-33.66-7.33-8-7.52-10.83-16.88-9.82-27.4.64-6.66,3.7-12.59,8.05-17.75q8-9.49,16.06-19c2.25-2.65,4.57-5.25,6.8-7.92,1.08-1.3,1.93-1.2,3,0,3.51,4.09,7.12,8.09,10.6,12.19,4.07,4.8,7.94,9.78,12.11,14.48A31.28,31.28,0,0,1,711.07,420.76Z" fill="#00a7e3"/><path d="M697.3,414.61c-1,0-2-.07-3,0a3.43,3.43,0,0,1-3.49-1.81,13.28,13.28,0,0,0-12.35-6.42c-6.46.24-10.7,3.58-13,9.45-2.6,6.58,2,15.5,8.52,17.93s14.28-.58,17.14-6.17c.48-.94,1.24-1,2.09-1,2.67,0,5.33,0,8,0,1.61,0,1.75.41,1.2,1.89-3,8.1-8.66,13.83-16.84,15.84-11,2.69-21.46-.28-28.27-11.92-7-11.94-2-26.64,8.62-33,5-3,10.41-4.59,16.1-3.69,10.25,1.63,17.17,7.62,20.73,17.42.37,1,0,1.44-.94,1.45-1.5,0-3,0-4.5,0Z" fill="#009cdb"/></g></svg>