<svg id="Layer_1" data-name="Layer 1" xmlns="http://www.w3.org/2000/svg" viewBox="0 0 28.18 23.08"><defs><style>.cls-1{fill:#313131;}.cls-2{fill:none;stroke:#313131;stroke-miterlimit:10;stroke-width:2.49px;}</style></defs><title>logo-5</title><path class="cls-1" d="M3.61.47,7.28,8.18,10.94.47h3.17v12.6H11.55V4.58L8.2,11.8H6.35L3,4.58v8.5H.42V.47Z"/><path class="cls-1" d="M28.18,4.85c0,2.94-1.84,4.63-5,4.63h-2.5v3.6H17.79V.47h5.35C26.34.47,28.18,2.06,28.18,4.85Zm-2.7.09c0-1.41-.9-2.11-2.48-2.11H20.64V7.1H23C24.58,7.1,25.48,6.38,25.48,4.94Z"/><polyline class="cls-2" points="0.55 20.93 7.66 17.41 14.05 20.93 21.16 17.41 27.55 20.93"/></svg>