<svg id="Layer_1" data-name="Layer 1" xmlns="http://www.w3.org/2000/svg" viewBox="0 0 48.45 30.58"><defs><style>.cls-1{fill:#313131;}.cls-2{fill:none;stroke:#313131;stroke-miterlimit:10;stroke-width:2.17px;}</style></defs><title>logo-1</title><path class="cls-1" d="M2.13.06,4.59,5.22,7,.06H9.16V8.49H7.45V2.81L5.21,7.64H4L1.72,2.81V8.49H0V.06Z"/><path class="cls-1" d="M17.19,6.86h-3.9l-.66,1.64h-2L14.32.06h2l3.6,8.43h-2Zm-.61-1.53L15.25,2,13.91,5.33Z"/><path class="cls-1" d="M25.06,1.65a2.54,2.54,0,0,0-2.57,2.59,2.55,2.55,0,0,0,2.57,2.6,3.25,3.25,0,0,0,2.19-1l1.12,1.22A4.94,4.94,0,0,1,25,8.58,4.29,4.29,0,1,1,25,0a4.8,4.8,0,0,1,3.33,1.4L27.25,2.75A3.05,3.05,0,0,0,25.06,1.65Z"/><path class="cls-1" d="M32,.06V3.58h3.82V.06h1.9V8.49h-1.9V5.17H32V8.49H30.1V.06Z"/><path class="cls-1" d="M43.86,6.92a1.79,1.79,0,0,0,1.88-2V.06h1.9V5a3.44,3.44,0,0,1-3.78,3.62C41.52,8.58,40,7.19,40,5V.06h1.9V5A1.82,1.82,0,0,0,43.86,6.92Z"/><path class="cls-1" d="M7,16.83c0,2-1.23,3.1-3.37,3.1H1.9v2.41H0V13.9H3.58C5.72,13.9,7,15,7,16.83Zm-1.81.06c0-.94-.6-1.41-1.66-1.41H1.9v2.86H3.48C4.54,18.33,5.15,17.85,5.15,16.89Z"/><path class="cls-1" d="M10.67,13.9v8.43H8.77V13.9Z"/><path class="cls-1" d="M17.06,15.49a2.6,2.6,0,0,0,0,5.19,3.25,3.25,0,0,0,2.19-1l1.12,1.22A4.94,4.94,0,0,1,17,22.42,4.29,4.29,0,1,1,17,13.84a4.8,4.8,0,0,1,3.33,1.4l-1.11,1.35A3.06,3.06,0,0,0,17.06,15.49Z"/><path class="cls-1" d="M25.86,15.49a2.6,2.6,0,0,0,0,5.19,3.25,3.25,0,0,0,2.19-1l1.12,1.22a4.94,4.94,0,0,1-3.41,1.51,4.29,4.29,0,1,1,.07-8.58,4.8,4.8,0,0,1,3.33,1.4l-1.11,1.35A3.06,3.06,0,0,0,25.86,15.49Z"/><path class="cls-1" d="M32.81,13.9v3.52h3.82V13.9h1.9v8.43h-1.9V19H32.81v3.33h-1.9V13.9Z"/><path class="cls-1" d="M44.67,20.76a1.79,1.79,0,0,0,1.88-2V13.9h1.9v4.9a3.44,3.44,0,0,1-3.78,3.62c-2.34,0-3.83-1.39-3.83-3.62V13.9h1.9v4.9A1.82,1.82,0,0,0,44.67,20.76Z"/><line class="cls-2" x1="13.74" y1="29.49" x2="35.43" y2="29.49"/></svg>